G04 #@! TF.FileFunction,Copper,L2,Bot,Signal*
%FSLAX46Y46*%
G04 Gerber Fmt 4.6, Leading zero omitted, Abs format (unit mm)*
G04 Created by KiCad (PCBNEW (2015-07-31 BZR 6030)-product) date Sat Sep 12 09:46:02 2015*
%MOMM*%
G01*
G04 APERTURE LIST*
%ADD10C,0.100000*%
%ADD11C,5.000000*%
%ADD12C,1.501140*%
%ADD13C,2.999740*%
%ADD14C,4.064000*%
%ADD15C,0.700000*%
%ADD16C,0.250000*%
%ADD17C,0.254000*%
G04 APERTURE END LIST*
D10*
D11*
X130811800Y-46265400D03*
X130811800Y-72300400D03*
X158116800Y-72300400D03*
D12*
X150127800Y-61935400D03*
X147587800Y-61935400D03*
X145555800Y-61935400D03*
X143015800Y-61935400D03*
D13*
X153175800Y-64602400D03*
X139459800Y-64602400D03*
D14*
X150496800Y-46265400D03*
X139586800Y-46060400D03*
D11*
X158116800Y-46265400D03*
D15*
X142946800Y-57305400D03*
X142946800Y-56405400D03*
X143846800Y-56405400D03*
X143846800Y-57305400D03*
D16*
X142876800Y-57060400D02*
X142876800Y-57235400D01*
X142876800Y-57235400D02*
X142946800Y-57305400D01*
X142876800Y-56425400D02*
X142926800Y-56425400D01*
X142926800Y-56425400D02*
X142946800Y-56405400D01*
X143826800Y-56425400D02*
X143511800Y-56425400D01*
X143846800Y-56405400D02*
X143826800Y-56425400D01*
X143511800Y-57060400D02*
X143601800Y-57060400D01*
X143601800Y-57060400D02*
X143846800Y-57305400D01*
D17*
G36*
X156343285Y-43606127D02*
X155460626Y-44487247D01*
X154982346Y-45639074D01*
X154981257Y-46886254D01*
X155457527Y-48038915D01*
X156338647Y-48921574D01*
X157490474Y-49399854D01*
X158737654Y-49400943D01*
X159890315Y-48924673D01*
X160772974Y-48043553D01*
X161164800Y-47099931D01*
X161164800Y-50589520D01*
X161063543Y-50741062D01*
X161011400Y-51003200D01*
X161063543Y-51265338D01*
X161164800Y-51416880D01*
X161164800Y-71467676D01*
X160776073Y-70526885D01*
X159894953Y-69644226D01*
X158743126Y-69165946D01*
X157495946Y-69164857D01*
X156343285Y-69641127D01*
X155460626Y-70522247D01*
X154982346Y-71674074D01*
X154981257Y-72921254D01*
X155457527Y-74073915D01*
X156338647Y-74956574D01*
X157282269Y-75348400D01*
X131644524Y-75348400D01*
X132585315Y-74959673D01*
X133467974Y-74078553D01*
X133946254Y-72926726D01*
X133947343Y-71679546D01*
X133471073Y-70526885D01*
X132589953Y-69644226D01*
X131438126Y-69165946D01*
X130190946Y-69164857D01*
X129038285Y-69641127D01*
X128155626Y-70522247D01*
X127763800Y-71465869D01*
X127763800Y-66116277D01*
X138125528Y-66116277D01*
X138285295Y-66435032D01*
X139076017Y-66744995D01*
X139925166Y-66728767D01*
X140634305Y-66435032D01*
X140794072Y-66116277D01*
X151841528Y-66116277D01*
X152001295Y-66435032D01*
X152792017Y-66744995D01*
X153641166Y-66728767D01*
X154350305Y-66435032D01*
X154510072Y-66116277D01*
X153175800Y-64782005D01*
X151841528Y-66116277D01*
X140794072Y-66116277D01*
X139459800Y-64782005D01*
X138125528Y-66116277D01*
X127763800Y-66116277D01*
X127763800Y-64218617D01*
X137317205Y-64218617D01*
X137333433Y-65067766D01*
X137627168Y-65776905D01*
X137945923Y-65936672D01*
X139280195Y-64602400D01*
X139639405Y-64602400D01*
X140973677Y-65936672D01*
X141292432Y-65776905D01*
X141602395Y-64986183D01*
X141587727Y-64218617D01*
X151033205Y-64218617D01*
X151049433Y-65067766D01*
X151343168Y-65776905D01*
X151661923Y-65936672D01*
X152996195Y-64602400D01*
X153355405Y-64602400D01*
X154689677Y-65936672D01*
X155008432Y-65776905D01*
X155318395Y-64986183D01*
X155302167Y-64137034D01*
X155008432Y-63427895D01*
X154689677Y-63268128D01*
X153355405Y-64602400D01*
X152996195Y-64602400D01*
X151661923Y-63268128D01*
X151343168Y-63427895D01*
X151033205Y-64218617D01*
X141587727Y-64218617D01*
X141586167Y-64137034D01*
X141292432Y-63427895D01*
X140973677Y-63268128D01*
X139639405Y-64602400D01*
X139280195Y-64602400D01*
X137945923Y-63268128D01*
X137627168Y-63427895D01*
X137317205Y-64218617D01*
X127763800Y-64218617D01*
X127763800Y-63088523D01*
X138125528Y-63088523D01*
X139459800Y-64422795D01*
X140794072Y-63088523D01*
X140634305Y-62769768D01*
X139843583Y-62459805D01*
X138994434Y-62476033D01*
X138285295Y-62769768D01*
X138125528Y-63088523D01*
X127763800Y-63088523D01*
X127763800Y-62209798D01*
X141629990Y-62209798D01*
X141840486Y-62719237D01*
X142229913Y-63109344D01*
X142738984Y-63320729D01*
X143290198Y-63321210D01*
X143799637Y-63110714D01*
X144189744Y-62721287D01*
X144285775Y-62490019D01*
X144380486Y-62719237D01*
X144769913Y-63109344D01*
X145278984Y-63320729D01*
X145830198Y-63321210D01*
X146339637Y-63110714D01*
X146571863Y-62878893D01*
X146801913Y-63109344D01*
X147310984Y-63320729D01*
X147862198Y-63321210D01*
X148371637Y-63110714D01*
X148575376Y-62907330D01*
X149335475Y-62907330D01*
X149403535Y-63148331D01*
X149922834Y-63333167D01*
X150473338Y-63305205D01*
X150852065Y-63148331D01*
X150868955Y-63088523D01*
X151841528Y-63088523D01*
X153175800Y-64422795D01*
X154510072Y-63088523D01*
X154429515Y-62927800D01*
X159108200Y-62927800D01*
X159108200Y-66102800D01*
X159160343Y-66364938D01*
X159308832Y-66587168D01*
X159531062Y-66735657D01*
X159793200Y-66787800D01*
X160055338Y-66735657D01*
X160277568Y-66587168D01*
X160426057Y-66364938D01*
X160478200Y-66102800D01*
X160478200Y-62927800D01*
X160426057Y-62665662D01*
X160277568Y-62443432D01*
X160055338Y-62294943D01*
X159793200Y-62242800D01*
X159531062Y-62294943D01*
X159308832Y-62443432D01*
X159160343Y-62665662D01*
X159108200Y-62927800D01*
X154429515Y-62927800D01*
X154350305Y-62769768D01*
X153559583Y-62459805D01*
X152710434Y-62476033D01*
X152001295Y-62769768D01*
X151841528Y-63088523D01*
X150868955Y-63088523D01*
X150920125Y-62907330D01*
X150127800Y-62115005D01*
X149335475Y-62907330D01*
X148575376Y-62907330D01*
X148761744Y-62721287D01*
X148851179Y-62505904D01*
X148914869Y-62659665D01*
X149155870Y-62727725D01*
X149948195Y-61935400D01*
X150307405Y-61935400D01*
X151099730Y-62727725D01*
X151340731Y-62659665D01*
X151525567Y-62140366D01*
X151497605Y-61589862D01*
X151340731Y-61211135D01*
X151099730Y-61143075D01*
X150307405Y-61935400D01*
X149948195Y-61935400D01*
X149155870Y-61143075D01*
X148914869Y-61211135D01*
X148856031Y-61376440D01*
X148763114Y-61151563D01*
X148575349Y-60963470D01*
X149335475Y-60963470D01*
X150127800Y-61755795D01*
X150920125Y-60963470D01*
X150852065Y-60722469D01*
X150332766Y-60537633D01*
X149782262Y-60565595D01*
X149403535Y-60722469D01*
X149335475Y-60963470D01*
X148575349Y-60963470D01*
X148373687Y-60761456D01*
X147864616Y-60550071D01*
X147313402Y-60549590D01*
X146803963Y-60760086D01*
X146571737Y-60991907D01*
X146341687Y-60761456D01*
X145832616Y-60550071D01*
X145281402Y-60549590D01*
X144771963Y-60760086D01*
X144381856Y-61149513D01*
X144285825Y-61380781D01*
X144191114Y-61151563D01*
X143801687Y-60761456D01*
X143292616Y-60550071D01*
X142741402Y-60549590D01*
X142231963Y-60760086D01*
X141841856Y-61149513D01*
X141630471Y-61658584D01*
X141629990Y-62209798D01*
X127763800Y-62209798D01*
X127763800Y-47098124D01*
X128152527Y-48038915D01*
X129033647Y-48921574D01*
X130185474Y-49399854D01*
X131432654Y-49400943D01*
X132585315Y-48924673D01*
X133467974Y-48043553D01*
X133946254Y-46891726D01*
X133946518Y-46588572D01*
X136919338Y-46588572D01*
X137324509Y-47569161D01*
X138074093Y-48320055D01*
X139053973Y-48726936D01*
X140114972Y-48727862D01*
X141095561Y-48322691D01*
X141255009Y-48163521D01*
X148778284Y-48163521D01*
X149002954Y-48537568D01*
X149986188Y-48936280D01*
X151047157Y-48928375D01*
X151990646Y-48537568D01*
X152215316Y-48163521D01*
X150496800Y-46445005D01*
X148778284Y-48163521D01*
X141255009Y-48163521D01*
X141846455Y-47573107D01*
X142253336Y-46593227D01*
X142254067Y-45754788D01*
X147825920Y-45754788D01*
X147833825Y-46815757D01*
X148224632Y-47759246D01*
X148598679Y-47983916D01*
X150317195Y-46265400D01*
X150676405Y-46265400D01*
X152394921Y-47983916D01*
X152768968Y-47759246D01*
X153167680Y-46776012D01*
X153159775Y-45715043D01*
X152768968Y-44771554D01*
X152394921Y-44546884D01*
X150676405Y-46265400D01*
X150317195Y-46265400D01*
X148598679Y-44546884D01*
X148224632Y-44771554D01*
X147825920Y-45754788D01*
X142254067Y-45754788D01*
X142254262Y-45532228D01*
X141849091Y-44551639D01*
X141665053Y-44367279D01*
X148778284Y-44367279D01*
X150496800Y-46085795D01*
X152215316Y-44367279D01*
X151990646Y-43993232D01*
X151007412Y-43594520D01*
X149946443Y-43602425D01*
X149002954Y-43993232D01*
X148778284Y-44367279D01*
X141665053Y-44367279D01*
X141099507Y-43800745D01*
X140119627Y-43393864D01*
X139058628Y-43392938D01*
X138078039Y-43798109D01*
X137327145Y-44547693D01*
X136920264Y-45527573D01*
X136919338Y-46588572D01*
X133946518Y-46588572D01*
X133947343Y-45644546D01*
X133471073Y-44491885D01*
X132589953Y-43609226D01*
X131646331Y-43217400D01*
X157284076Y-43217400D01*
X156343285Y-43606127D01*
X156343285Y-43606127D01*
G37*
X156343285Y-43606127D02*
X155460626Y-44487247D01*
X154982346Y-45639074D01*
X154981257Y-46886254D01*
X155457527Y-48038915D01*
X156338647Y-48921574D01*
X157490474Y-49399854D01*
X158737654Y-49400943D01*
X159890315Y-48924673D01*
X160772974Y-48043553D01*
X161164800Y-47099931D01*
X161164800Y-50589520D01*
X161063543Y-50741062D01*
X161011400Y-51003200D01*
X161063543Y-51265338D01*
X161164800Y-51416880D01*
X161164800Y-71467676D01*
X160776073Y-70526885D01*
X159894953Y-69644226D01*
X158743126Y-69165946D01*
X157495946Y-69164857D01*
X156343285Y-69641127D01*
X155460626Y-70522247D01*
X154982346Y-71674074D01*
X154981257Y-72921254D01*
X155457527Y-74073915D01*
X156338647Y-74956574D01*
X157282269Y-75348400D01*
X131644524Y-75348400D01*
X132585315Y-74959673D01*
X133467974Y-74078553D01*
X133946254Y-72926726D01*
X133947343Y-71679546D01*
X133471073Y-70526885D01*
X132589953Y-69644226D01*
X131438126Y-69165946D01*
X130190946Y-69164857D01*
X129038285Y-69641127D01*
X128155626Y-70522247D01*
X127763800Y-71465869D01*
X127763800Y-66116277D01*
X138125528Y-66116277D01*
X138285295Y-66435032D01*
X139076017Y-66744995D01*
X139925166Y-66728767D01*
X140634305Y-66435032D01*
X140794072Y-66116277D01*
X151841528Y-66116277D01*
X152001295Y-66435032D01*
X152792017Y-66744995D01*
X153641166Y-66728767D01*
X154350305Y-66435032D01*
X154510072Y-66116277D01*
X153175800Y-64782005D01*
X151841528Y-66116277D01*
X140794072Y-66116277D01*
X139459800Y-64782005D01*
X138125528Y-66116277D01*
X127763800Y-66116277D01*
X127763800Y-64218617D01*
X137317205Y-64218617D01*
X137333433Y-65067766D01*
X137627168Y-65776905D01*
X137945923Y-65936672D01*
X139280195Y-64602400D01*
X139639405Y-64602400D01*
X140973677Y-65936672D01*
X141292432Y-65776905D01*
X141602395Y-64986183D01*
X141587727Y-64218617D01*
X151033205Y-64218617D01*
X151049433Y-65067766D01*
X151343168Y-65776905D01*
X151661923Y-65936672D01*
X152996195Y-64602400D01*
X153355405Y-64602400D01*
X154689677Y-65936672D01*
X155008432Y-65776905D01*
X155318395Y-64986183D01*
X155302167Y-64137034D01*
X155008432Y-63427895D01*
X154689677Y-63268128D01*
X153355405Y-64602400D01*
X152996195Y-64602400D01*
X151661923Y-63268128D01*
X151343168Y-63427895D01*
X151033205Y-64218617D01*
X141587727Y-64218617D01*
X141586167Y-64137034D01*
X141292432Y-63427895D01*
X140973677Y-63268128D01*
X139639405Y-64602400D01*
X139280195Y-64602400D01*
X137945923Y-63268128D01*
X137627168Y-63427895D01*
X137317205Y-64218617D01*
X127763800Y-64218617D01*
X127763800Y-63088523D01*
X138125528Y-63088523D01*
X139459800Y-64422795D01*
X140794072Y-63088523D01*
X140634305Y-62769768D01*
X139843583Y-62459805D01*
X138994434Y-62476033D01*
X138285295Y-62769768D01*
X138125528Y-63088523D01*
X127763800Y-63088523D01*
X127763800Y-62209798D01*
X141629990Y-62209798D01*
X141840486Y-62719237D01*
X142229913Y-63109344D01*
X142738984Y-63320729D01*
X143290198Y-63321210D01*
X143799637Y-63110714D01*
X144189744Y-62721287D01*
X144285775Y-62490019D01*
X144380486Y-62719237D01*
X144769913Y-63109344D01*
X145278984Y-63320729D01*
X145830198Y-63321210D01*
X146339637Y-63110714D01*
X146571863Y-62878893D01*
X146801913Y-63109344D01*
X147310984Y-63320729D01*
X147862198Y-63321210D01*
X148371637Y-63110714D01*
X148575376Y-62907330D01*
X149335475Y-62907330D01*
X149403535Y-63148331D01*
X149922834Y-63333167D01*
X150473338Y-63305205D01*
X150852065Y-63148331D01*
X150868955Y-63088523D01*
X151841528Y-63088523D01*
X153175800Y-64422795D01*
X154510072Y-63088523D01*
X154429515Y-62927800D01*
X159108200Y-62927800D01*
X159108200Y-66102800D01*
X159160343Y-66364938D01*
X159308832Y-66587168D01*
X159531062Y-66735657D01*
X159793200Y-66787800D01*
X160055338Y-66735657D01*
X160277568Y-66587168D01*
X160426057Y-66364938D01*
X160478200Y-66102800D01*
X160478200Y-62927800D01*
X160426057Y-62665662D01*
X160277568Y-62443432D01*
X160055338Y-62294943D01*
X159793200Y-62242800D01*
X159531062Y-62294943D01*
X159308832Y-62443432D01*
X159160343Y-62665662D01*
X159108200Y-62927800D01*
X154429515Y-62927800D01*
X154350305Y-62769768D01*
X153559583Y-62459805D01*
X152710434Y-62476033D01*
X152001295Y-62769768D01*
X151841528Y-63088523D01*
X150868955Y-63088523D01*
X150920125Y-62907330D01*
X150127800Y-62115005D01*
X149335475Y-62907330D01*
X148575376Y-62907330D01*
X148761744Y-62721287D01*
X148851179Y-62505904D01*
X148914869Y-62659665D01*
X149155870Y-62727725D01*
X149948195Y-61935400D01*
X150307405Y-61935400D01*
X151099730Y-62727725D01*
X151340731Y-62659665D01*
X151525567Y-62140366D01*
X151497605Y-61589862D01*
X151340731Y-61211135D01*
X151099730Y-61143075D01*
X150307405Y-61935400D01*
X149948195Y-61935400D01*
X149155870Y-61143075D01*
X148914869Y-61211135D01*
X148856031Y-61376440D01*
X148763114Y-61151563D01*
X148575349Y-60963470D01*
X149335475Y-60963470D01*
X150127800Y-61755795D01*
X150920125Y-60963470D01*
X150852065Y-60722469D01*
X150332766Y-60537633D01*
X149782262Y-60565595D01*
X149403535Y-60722469D01*
X149335475Y-60963470D01*
X148575349Y-60963470D01*
X148373687Y-60761456D01*
X147864616Y-60550071D01*
X147313402Y-60549590D01*
X146803963Y-60760086D01*
X146571737Y-60991907D01*
X146341687Y-60761456D01*
X145832616Y-60550071D01*
X145281402Y-60549590D01*
X144771963Y-60760086D01*
X144381856Y-61149513D01*
X144285825Y-61380781D01*
X144191114Y-61151563D01*
X143801687Y-60761456D01*
X143292616Y-60550071D01*
X142741402Y-60549590D01*
X142231963Y-60760086D01*
X141841856Y-61149513D01*
X141630471Y-61658584D01*
X141629990Y-62209798D01*
X127763800Y-62209798D01*
X127763800Y-47098124D01*
X128152527Y-48038915D01*
X129033647Y-48921574D01*
X130185474Y-49399854D01*
X131432654Y-49400943D01*
X132585315Y-48924673D01*
X133467974Y-48043553D01*
X133946254Y-46891726D01*
X133946518Y-46588572D01*
X136919338Y-46588572D01*
X137324509Y-47569161D01*
X138074093Y-48320055D01*
X139053973Y-48726936D01*
X140114972Y-48727862D01*
X141095561Y-48322691D01*
X141255009Y-48163521D01*
X148778284Y-48163521D01*
X149002954Y-48537568D01*
X149986188Y-48936280D01*
X151047157Y-48928375D01*
X151990646Y-48537568D01*
X152215316Y-48163521D01*
X150496800Y-46445005D01*
X148778284Y-48163521D01*
X141255009Y-48163521D01*
X141846455Y-47573107D01*
X142253336Y-46593227D01*
X142254067Y-45754788D01*
X147825920Y-45754788D01*
X147833825Y-46815757D01*
X148224632Y-47759246D01*
X148598679Y-47983916D01*
X150317195Y-46265400D01*
X150676405Y-46265400D01*
X152394921Y-47983916D01*
X152768968Y-47759246D01*
X153167680Y-46776012D01*
X153159775Y-45715043D01*
X152768968Y-44771554D01*
X152394921Y-44546884D01*
X150676405Y-46265400D01*
X150317195Y-46265400D01*
X148598679Y-44546884D01*
X148224632Y-44771554D01*
X147825920Y-45754788D01*
X142254067Y-45754788D01*
X142254262Y-45532228D01*
X141849091Y-44551639D01*
X141665053Y-44367279D01*
X148778284Y-44367279D01*
X150496800Y-46085795D01*
X152215316Y-44367279D01*
X151990646Y-43993232D01*
X151007412Y-43594520D01*
X149946443Y-43602425D01*
X149002954Y-43993232D01*
X148778284Y-44367279D01*
X141665053Y-44367279D01*
X141099507Y-43800745D01*
X140119627Y-43393864D01*
X139058628Y-43392938D01*
X138078039Y-43798109D01*
X137327145Y-44547693D01*
X136920264Y-45527573D01*
X136919338Y-46588572D01*
X133946518Y-46588572D01*
X133947343Y-45644546D01*
X133471073Y-44491885D01*
X132589953Y-43609226D01*
X131646331Y-43217400D01*
X157284076Y-43217400D01*
X156343285Y-43606127D01*
M02*
