%FSLAX45Y45*%
G04 Gerber Fmt 4.5, Leading zero omitted, Abs format (unit mm)*
G04 Created by KiCad (PCBNEW (2015-07-31 BZR 6030)-product) date Sat Sep 12 09:46:00 2015*
%MOMM*%
G01*
G04 APERTURE LIST*
%ADD10C,0.127000*%
%ADD11C,0.100000*%
%ADD12C,0.200000*%
%ADD13C,0.300000*%
G04 APERTURE END LIST*
D10*
D11*
X12507140Y-7814240D02*
X12507140Y-4055040D01*
X16383180Y-7814240D02*
X12507140Y-7814240D01*
X16383180Y-4055040D02*
X16383180Y-7814240D01*
X12507140Y-4055040D02*
X16383180Y-4055040D01*
X15979320Y-6292780D02*
X15979320Y-6610280D01*
D12*
X14279680Y-5625540D02*
X14309680Y-5655540D01*
X14309680Y-5625540D02*
X14279680Y-5655540D01*
X14279680Y-5715540D02*
X14309680Y-5745540D01*
X14309680Y-5715540D02*
X14279680Y-5745540D01*
X14369680Y-5625540D02*
X14399680Y-5655540D01*
X14399680Y-5625540D02*
X14369680Y-5655540D01*
X14369680Y-5715540D02*
X14399680Y-5745540D01*
X14399680Y-5715540D02*
X14369680Y-5745540D01*
X14351618Y-6193540D02*
G75*
G03X14351618Y-6193540I-50038J0D01*
G01*
X14605618Y-6193540D02*
G75*
G03X14605618Y-6193540I-50038J0D01*
G01*
X14808818Y-6193540D02*
G75*
G03X14808818Y-6193540I-50038J0D01*
G01*
X15062818Y-6193540D02*
G75*
G03X15062818Y-6193540I-50038J0D01*
G01*
X13945980Y-6345178D02*
X13945980Y-6575302D01*
X13830918Y-6460240D02*
X14061042Y-6460240D01*
X15317580Y-6345178D02*
X15317580Y-6575302D01*
X15202518Y-6460240D02*
X15432642Y-6460240D01*
X13187247Y-4732607D02*
X13187247Y-4520473D01*
X12975113Y-4520473D01*
X12975113Y-4732607D01*
X13187247Y-4732607D01*
X13187247Y-7336107D02*
X13187247Y-7123973D01*
X12975113Y-7123973D01*
X12975113Y-7336107D01*
X13187247Y-7336107D01*
X15917747Y-4732607D02*
X15917747Y-4520473D01*
X15705613Y-4520473D01*
X15705613Y-4732607D01*
X15917747Y-4732607D01*
X15917747Y-7336107D02*
X15917747Y-7123973D01*
X15705613Y-7123973D01*
X15705613Y-7336107D01*
X15917747Y-7336107D01*
X13958680Y-4758440D02*
X14111080Y-4606040D01*
X13958680Y-4453640D01*
X13806280Y-4606040D01*
X13958680Y-4758440D01*
X15049680Y-4778940D02*
X15202080Y-4626540D01*
X15049680Y-4474140D01*
X14897280Y-4626540D01*
X15049680Y-4778940D01*
D13*
X12773568Y-8284954D02*
X12773568Y-7984954D01*
X12844997Y-7984954D01*
X12887854Y-7999240D01*
X12916426Y-8027811D01*
X12930711Y-8056383D01*
X12944997Y-8113526D01*
X12944997Y-8156383D01*
X12930711Y-8213526D01*
X12916426Y-8242097D01*
X12887854Y-8270669D01*
X12844997Y-8284954D01*
X12773568Y-8284954D01*
X13073568Y-8284954D02*
X13073568Y-8084954D01*
X13073568Y-8142097D02*
X13087854Y-8113526D01*
X13102140Y-8099240D01*
X13130711Y-8084954D01*
X13159283Y-8084954D01*
X13259283Y-8284954D02*
X13259283Y-8084954D01*
X13259283Y-7984954D02*
X13244997Y-7999240D01*
X13259283Y-8013526D01*
X13273568Y-7999240D01*
X13259283Y-7984954D01*
X13259283Y-8013526D01*
X13444997Y-8284954D02*
X13416426Y-8270669D01*
X13402140Y-8242097D01*
X13402140Y-7984954D01*
X13602140Y-8284954D02*
X13573568Y-8270669D01*
X13559283Y-8242097D01*
X13559283Y-7984954D01*
X13944997Y-8284954D02*
X13944997Y-7984954D01*
X14044997Y-8199240D01*
X14144997Y-7984954D01*
X14144997Y-8284954D01*
X14416426Y-8284954D02*
X14416426Y-8127811D01*
X14402140Y-8099240D01*
X14373568Y-8084954D01*
X14316426Y-8084954D01*
X14287854Y-8099240D01*
X14416426Y-8270669D02*
X14387854Y-8284954D01*
X14316426Y-8284954D01*
X14287854Y-8270669D01*
X14273568Y-8242097D01*
X14273568Y-8213526D01*
X14287854Y-8184954D01*
X14316426Y-8170669D01*
X14387854Y-8170669D01*
X14416426Y-8156383D01*
X14559283Y-8084954D02*
X14559283Y-8384954D01*
X14559283Y-8099240D02*
X14587854Y-8084954D01*
X14644997Y-8084954D01*
X14673568Y-8099240D01*
X14687854Y-8113526D01*
X14702140Y-8142097D01*
X14702140Y-8227811D01*
X14687854Y-8256383D01*
X14673568Y-8270669D01*
X14644997Y-8284954D01*
X14587854Y-8284954D01*
X14559283Y-8270669D01*
X14830711Y-8256383D02*
X14844997Y-8270669D01*
X14830711Y-8284954D01*
X14816426Y-8270669D01*
X14830711Y-8256383D01*
X14830711Y-8284954D01*
X14830711Y-8099240D02*
X14844997Y-8113526D01*
X14830711Y-8127811D01*
X14816426Y-8113526D01*
X14830711Y-8099240D01*
X14830711Y-8127811D01*
X12472140Y-8764240D02*
X12502140Y-8794240D01*
X12502140Y-8764240D02*
X12472140Y-8794240D01*
X12830711Y-8614954D02*
X12859283Y-8614954D01*
X12887854Y-8629240D01*
X12902140Y-8643526D01*
X12916426Y-8672097D01*
X12930711Y-8729240D01*
X12930711Y-8800669D01*
X12916426Y-8857812D01*
X12902140Y-8886383D01*
X12887854Y-8900669D01*
X12859283Y-8914954D01*
X12830711Y-8914954D01*
X12802140Y-8900669D01*
X12787854Y-8886383D01*
X12773568Y-8857812D01*
X12759283Y-8800669D01*
X12759283Y-8729240D01*
X12773568Y-8672097D01*
X12787854Y-8643526D01*
X12802140Y-8629240D01*
X12830711Y-8614954D01*
X13059283Y-8886383D02*
X13073568Y-8900669D01*
X13059283Y-8914954D01*
X13044997Y-8900669D01*
X13059283Y-8886383D01*
X13059283Y-8914954D01*
X13173568Y-8614954D02*
X13359283Y-8614954D01*
X13259283Y-8729240D01*
X13302140Y-8729240D01*
X13330711Y-8743526D01*
X13344997Y-8757812D01*
X13359283Y-8786383D01*
X13359283Y-8857812D01*
X13344997Y-8886383D01*
X13330711Y-8900669D01*
X13302140Y-8914954D01*
X13216426Y-8914954D01*
X13187854Y-8900669D01*
X13173568Y-8886383D01*
X13544997Y-8614954D02*
X13573568Y-8614954D01*
X13602140Y-8629240D01*
X13616426Y-8643526D01*
X13630711Y-8672097D01*
X13644997Y-8729240D01*
X13644997Y-8800669D01*
X13630711Y-8857812D01*
X13616426Y-8886383D01*
X13602140Y-8900669D01*
X13573568Y-8914954D01*
X13544997Y-8914954D01*
X13516426Y-8900669D01*
X13502140Y-8886383D01*
X13487854Y-8857812D01*
X13473568Y-8800669D01*
X13473568Y-8729240D01*
X13487854Y-8672097D01*
X13502140Y-8643526D01*
X13516426Y-8629240D01*
X13544997Y-8614954D01*
X13773568Y-8914954D02*
X13773568Y-8714954D01*
X13773568Y-8743526D02*
X13787854Y-8729240D01*
X13816426Y-8714954D01*
X13859283Y-8714954D01*
X13887854Y-8729240D01*
X13902140Y-8757812D01*
X13902140Y-8914954D01*
X13902140Y-8757812D02*
X13916426Y-8729240D01*
X13944997Y-8714954D01*
X13987854Y-8714954D01*
X14016426Y-8729240D01*
X14030711Y-8757812D01*
X14030711Y-8914954D01*
X14173568Y-8914954D02*
X14173568Y-8714954D01*
X14173568Y-8743526D02*
X14187854Y-8729240D01*
X14216426Y-8714954D01*
X14259283Y-8714954D01*
X14287854Y-8729240D01*
X14302140Y-8757812D01*
X14302140Y-8914954D01*
X14302140Y-8757812D02*
X14316426Y-8729240D01*
X14344997Y-8714954D01*
X14387854Y-8714954D01*
X14416426Y-8729240D01*
X14430711Y-8757812D01*
X14430711Y-8914954D01*
X15016426Y-8600669D02*
X14759283Y-8986383D01*
X15402140Y-8614954D02*
X15430711Y-8614954D01*
X15459283Y-8629240D01*
X15473568Y-8643526D01*
X15487854Y-8672097D01*
X15502140Y-8729240D01*
X15502140Y-8800669D01*
X15487854Y-8857812D01*
X15473568Y-8886383D01*
X15459283Y-8900669D01*
X15430711Y-8914954D01*
X15402140Y-8914954D01*
X15373568Y-8900669D01*
X15359283Y-8886383D01*
X15344997Y-8857812D01*
X15330711Y-8800669D01*
X15330711Y-8729240D01*
X15344997Y-8672097D01*
X15359283Y-8643526D01*
X15373568Y-8629240D01*
X15402140Y-8614954D01*
X15630711Y-8886383D02*
X15644997Y-8900669D01*
X15630711Y-8914954D01*
X15616426Y-8900669D01*
X15630711Y-8886383D01*
X15630711Y-8914954D01*
X15830711Y-8614954D02*
X15859283Y-8614954D01*
X15887854Y-8629240D01*
X15902140Y-8643526D01*
X15916425Y-8672097D01*
X15930711Y-8729240D01*
X15930711Y-8800669D01*
X15916425Y-8857812D01*
X15902140Y-8886383D01*
X15887854Y-8900669D01*
X15859283Y-8914954D01*
X15830711Y-8914954D01*
X15802140Y-8900669D01*
X15787854Y-8886383D01*
X15773568Y-8857812D01*
X15759283Y-8800669D01*
X15759283Y-8729240D01*
X15773568Y-8672097D01*
X15787854Y-8643526D01*
X15802140Y-8629240D01*
X15830711Y-8614954D01*
X16216425Y-8914954D02*
X16044997Y-8914954D01*
X16130711Y-8914954D02*
X16130711Y-8614954D01*
X16102140Y-8657812D01*
X16073568Y-8686383D01*
X16044997Y-8700669D01*
X16330711Y-8643526D02*
X16344997Y-8629240D01*
X16373568Y-8614954D01*
X16444997Y-8614954D01*
X16473568Y-8629240D01*
X16487854Y-8643526D01*
X16502140Y-8672097D01*
X16502140Y-8700669D01*
X16487854Y-8743526D01*
X16316425Y-8914954D01*
X16502140Y-8914954D01*
X16616426Y-8614954D02*
X16616426Y-8672097D01*
X16730711Y-8614954D02*
X16730711Y-8672097D01*
X17173568Y-9029240D02*
X17159283Y-9014954D01*
X17130711Y-8972097D01*
X17116426Y-8943526D01*
X17102140Y-8900669D01*
X17087854Y-8829240D01*
X17087854Y-8772097D01*
X17102140Y-8700669D01*
X17116426Y-8657812D01*
X17130711Y-8629240D01*
X17159283Y-8586383D01*
X17173568Y-8572097D01*
X17416426Y-8714954D02*
X17416426Y-8914954D01*
X17344997Y-8600669D02*
X17273568Y-8814954D01*
X17459283Y-8814954D01*
X17802140Y-8914954D02*
X17802140Y-8614954D01*
X17930711Y-8914954D02*
X17930711Y-8757812D01*
X17916426Y-8729240D01*
X17887854Y-8714954D01*
X17844997Y-8714954D01*
X17816426Y-8729240D01*
X17802140Y-8743526D01*
X18116426Y-8914954D02*
X18087854Y-8900669D01*
X18073568Y-8886383D01*
X18059283Y-8857812D01*
X18059283Y-8772097D01*
X18073568Y-8743526D01*
X18087854Y-8729240D01*
X18116426Y-8714954D01*
X18159283Y-8714954D01*
X18187854Y-8729240D01*
X18202140Y-8743526D01*
X18216426Y-8772097D01*
X18216426Y-8857812D01*
X18202140Y-8886383D01*
X18187854Y-8900669D01*
X18159283Y-8914954D01*
X18116426Y-8914954D01*
X18387854Y-8914954D02*
X18359283Y-8900669D01*
X18344997Y-8872097D01*
X18344997Y-8614954D01*
X18616426Y-8900669D02*
X18587854Y-8914954D01*
X18530711Y-8914954D01*
X18502140Y-8900669D01*
X18487854Y-8872097D01*
X18487854Y-8757812D01*
X18502140Y-8729240D01*
X18530711Y-8714954D01*
X18587854Y-8714954D01*
X18616426Y-8729240D01*
X18630711Y-8757812D01*
X18630711Y-8786383D01*
X18487854Y-8814954D01*
X18744997Y-8900669D02*
X18773569Y-8914954D01*
X18830711Y-8914954D01*
X18859283Y-8900669D01*
X18873569Y-8872097D01*
X18873569Y-8857812D01*
X18859283Y-8829240D01*
X18830711Y-8814954D01*
X18787854Y-8814954D01*
X18759283Y-8800669D01*
X18744997Y-8772097D01*
X18744997Y-8757812D01*
X18759283Y-8729240D01*
X18787854Y-8714954D01*
X18830711Y-8714954D01*
X18859283Y-8729240D01*
X18973568Y-9029240D02*
X18987854Y-9014954D01*
X19016426Y-8972097D01*
X19030711Y-8943526D01*
X19044997Y-8900669D01*
X19059283Y-8829240D01*
X19059283Y-8772097D01*
X19044997Y-8700669D01*
X19030711Y-8657812D01*
X19016426Y-8629240D01*
X18987854Y-8586383D01*
X18973568Y-8572097D01*
X12502140Y-9175240D02*
G75*
G03X12502140Y-9175240I-50038J0D01*
G01*
X12930711Y-9310954D02*
X12759283Y-9310954D01*
X12844997Y-9310954D02*
X12844997Y-9010954D01*
X12816426Y-9053812D01*
X12787854Y-9082383D01*
X12759283Y-9096669D01*
X13059283Y-9282383D02*
X13073568Y-9296669D01*
X13059283Y-9310954D01*
X13044997Y-9296669D01*
X13059283Y-9282383D01*
X13059283Y-9310954D01*
X13259283Y-9010954D02*
X13287854Y-9010954D01*
X13316426Y-9025240D01*
X13330711Y-9039526D01*
X13344997Y-9068097D01*
X13359283Y-9125240D01*
X13359283Y-9196669D01*
X13344997Y-9253812D01*
X13330711Y-9282383D01*
X13316426Y-9296669D01*
X13287854Y-9310954D01*
X13259283Y-9310954D01*
X13230711Y-9296669D01*
X13216426Y-9282383D01*
X13202140Y-9253812D01*
X13187854Y-9196669D01*
X13187854Y-9125240D01*
X13202140Y-9068097D01*
X13216426Y-9039526D01*
X13230711Y-9025240D01*
X13259283Y-9010954D01*
X13544997Y-9010954D02*
X13573568Y-9010954D01*
X13602140Y-9025240D01*
X13616426Y-9039526D01*
X13630711Y-9068097D01*
X13644997Y-9125240D01*
X13644997Y-9196669D01*
X13630711Y-9253812D01*
X13616426Y-9282383D01*
X13602140Y-9296669D01*
X13573568Y-9310954D01*
X13544997Y-9310954D01*
X13516426Y-9296669D01*
X13502140Y-9282383D01*
X13487854Y-9253812D01*
X13473568Y-9196669D01*
X13473568Y-9125240D01*
X13487854Y-9068097D01*
X13502140Y-9039526D01*
X13516426Y-9025240D01*
X13544997Y-9010954D01*
X13773568Y-9310954D02*
X13773568Y-9110954D01*
X13773568Y-9139526D02*
X13787854Y-9125240D01*
X13816426Y-9110954D01*
X13859283Y-9110954D01*
X13887854Y-9125240D01*
X13902140Y-9153812D01*
X13902140Y-9310954D01*
X13902140Y-9153812D02*
X13916426Y-9125240D01*
X13944997Y-9110954D01*
X13987854Y-9110954D01*
X14016426Y-9125240D01*
X14030711Y-9153812D01*
X14030711Y-9310954D01*
X14173568Y-9310954D02*
X14173568Y-9110954D01*
X14173568Y-9139526D02*
X14187854Y-9125240D01*
X14216426Y-9110954D01*
X14259283Y-9110954D01*
X14287854Y-9125240D01*
X14302140Y-9153812D01*
X14302140Y-9310954D01*
X14302140Y-9153812D02*
X14316426Y-9125240D01*
X14344997Y-9110954D01*
X14387854Y-9110954D01*
X14416426Y-9125240D01*
X14430711Y-9153812D01*
X14430711Y-9310954D01*
X15016426Y-8996669D02*
X14759283Y-9382383D01*
X15402140Y-9010954D02*
X15430711Y-9010954D01*
X15459283Y-9025240D01*
X15473568Y-9039526D01*
X15487854Y-9068097D01*
X15502140Y-9125240D01*
X15502140Y-9196669D01*
X15487854Y-9253812D01*
X15473568Y-9282383D01*
X15459283Y-9296669D01*
X15430711Y-9310954D01*
X15402140Y-9310954D01*
X15373568Y-9296669D01*
X15359283Y-9282383D01*
X15344997Y-9253812D01*
X15330711Y-9196669D01*
X15330711Y-9125240D01*
X15344997Y-9068097D01*
X15359283Y-9039526D01*
X15373568Y-9025240D01*
X15402140Y-9010954D01*
X15630711Y-9282383D02*
X15644997Y-9296669D01*
X15630711Y-9310954D01*
X15616426Y-9296669D01*
X15630711Y-9282383D01*
X15630711Y-9310954D01*
X15830711Y-9010954D02*
X15859283Y-9010954D01*
X15887854Y-9025240D01*
X15902140Y-9039526D01*
X15916425Y-9068097D01*
X15930711Y-9125240D01*
X15930711Y-9196669D01*
X15916425Y-9253812D01*
X15902140Y-9282383D01*
X15887854Y-9296669D01*
X15859283Y-9310954D01*
X15830711Y-9310954D01*
X15802140Y-9296669D01*
X15787854Y-9282383D01*
X15773568Y-9253812D01*
X15759283Y-9196669D01*
X15759283Y-9125240D01*
X15773568Y-9068097D01*
X15787854Y-9039526D01*
X15802140Y-9025240D01*
X15830711Y-9010954D01*
X16030711Y-9010954D02*
X16216425Y-9010954D01*
X16116425Y-9125240D01*
X16159283Y-9125240D01*
X16187854Y-9139526D01*
X16202140Y-9153812D01*
X16216425Y-9182383D01*
X16216425Y-9253812D01*
X16202140Y-9282383D01*
X16187854Y-9296669D01*
X16159283Y-9310954D01*
X16073568Y-9310954D01*
X16044997Y-9296669D01*
X16030711Y-9282383D01*
X16359283Y-9310954D02*
X16416425Y-9310954D01*
X16444997Y-9296669D01*
X16459283Y-9282383D01*
X16487854Y-9239526D01*
X16502140Y-9182383D01*
X16502140Y-9068097D01*
X16487854Y-9039526D01*
X16473568Y-9025240D01*
X16444997Y-9010954D01*
X16387854Y-9010954D01*
X16359283Y-9025240D01*
X16344997Y-9039526D01*
X16330711Y-9068097D01*
X16330711Y-9139526D01*
X16344997Y-9168097D01*
X16359283Y-9182383D01*
X16387854Y-9196669D01*
X16444997Y-9196669D01*
X16473568Y-9182383D01*
X16487854Y-9168097D01*
X16502140Y-9139526D01*
X16616426Y-9010954D02*
X16616426Y-9068097D01*
X16730711Y-9010954D02*
X16730711Y-9068097D01*
X17173568Y-9425240D02*
X17159283Y-9410954D01*
X17130711Y-9368097D01*
X17116426Y-9339526D01*
X17102140Y-9296669D01*
X17087854Y-9225240D01*
X17087854Y-9168097D01*
X17102140Y-9096669D01*
X17116426Y-9053812D01*
X17130711Y-9025240D01*
X17159283Y-8982383D01*
X17173568Y-8968097D01*
X17416426Y-9110954D02*
X17416426Y-9310954D01*
X17344997Y-8996669D02*
X17273568Y-9210954D01*
X17459283Y-9210954D01*
X17802140Y-9310954D02*
X17802140Y-9010954D01*
X17930711Y-9310954D02*
X17930711Y-9153812D01*
X17916426Y-9125240D01*
X17887854Y-9110954D01*
X17844997Y-9110954D01*
X17816426Y-9125240D01*
X17802140Y-9139526D01*
X18116426Y-9310954D02*
X18087854Y-9296669D01*
X18073568Y-9282383D01*
X18059283Y-9253812D01*
X18059283Y-9168097D01*
X18073568Y-9139526D01*
X18087854Y-9125240D01*
X18116426Y-9110954D01*
X18159283Y-9110954D01*
X18187854Y-9125240D01*
X18202140Y-9139526D01*
X18216426Y-9168097D01*
X18216426Y-9253812D01*
X18202140Y-9282383D01*
X18187854Y-9296669D01*
X18159283Y-9310954D01*
X18116426Y-9310954D01*
X18387854Y-9310954D02*
X18359283Y-9296669D01*
X18344997Y-9268097D01*
X18344997Y-9010954D01*
X18616426Y-9296669D02*
X18587854Y-9310954D01*
X18530711Y-9310954D01*
X18502140Y-9296669D01*
X18487854Y-9268097D01*
X18487854Y-9153812D01*
X18502140Y-9125240D01*
X18530711Y-9110954D01*
X18587854Y-9110954D01*
X18616426Y-9125240D01*
X18630711Y-9153812D01*
X18630711Y-9182383D01*
X18487854Y-9210954D01*
X18744997Y-9296669D02*
X18773569Y-9310954D01*
X18830711Y-9310954D01*
X18859283Y-9296669D01*
X18873569Y-9268097D01*
X18873569Y-9253812D01*
X18859283Y-9225240D01*
X18830711Y-9210954D01*
X18787854Y-9210954D01*
X18759283Y-9196669D01*
X18744997Y-9168097D01*
X18744997Y-9153812D01*
X18759283Y-9125240D01*
X18787854Y-9110954D01*
X18830711Y-9110954D01*
X18859283Y-9125240D01*
X18973568Y-9425240D02*
X18987854Y-9410954D01*
X19016426Y-9368097D01*
X19030711Y-9339526D01*
X19044997Y-9296669D01*
X19059283Y-9225240D01*
X19059283Y-9168097D01*
X19044997Y-9096669D01*
X19030711Y-9053812D01*
X19016426Y-9025240D01*
X18987854Y-8982383D01*
X18973568Y-8968097D01*
X12387078Y-9456178D02*
X12387078Y-9686302D01*
X12272016Y-9571240D02*
X12502140Y-9571240D01*
X12759283Y-9435526D02*
X12773568Y-9421240D01*
X12802140Y-9406954D01*
X12873568Y-9406954D01*
X12902140Y-9421240D01*
X12916426Y-9435526D01*
X12930711Y-9464097D01*
X12930711Y-9492669D01*
X12916426Y-9535526D01*
X12744997Y-9706954D01*
X12930711Y-9706954D01*
X13059283Y-9678383D02*
X13073568Y-9692669D01*
X13059283Y-9706954D01*
X13044997Y-9692669D01*
X13059283Y-9678383D01*
X13059283Y-9706954D01*
X13173568Y-9406954D02*
X13359283Y-9406954D01*
X13259283Y-9521240D01*
X13302140Y-9521240D01*
X13330711Y-9535526D01*
X13344997Y-9549812D01*
X13359283Y-9578383D01*
X13359283Y-9649812D01*
X13344997Y-9678383D01*
X13330711Y-9692669D01*
X13302140Y-9706954D01*
X13216426Y-9706954D01*
X13187854Y-9692669D01*
X13173568Y-9678383D01*
X13544997Y-9406954D02*
X13573568Y-9406954D01*
X13602140Y-9421240D01*
X13616426Y-9435526D01*
X13630711Y-9464097D01*
X13644997Y-9521240D01*
X13644997Y-9592669D01*
X13630711Y-9649812D01*
X13616426Y-9678383D01*
X13602140Y-9692669D01*
X13573568Y-9706954D01*
X13544997Y-9706954D01*
X13516426Y-9692669D01*
X13502140Y-9678383D01*
X13487854Y-9649812D01*
X13473568Y-9592669D01*
X13473568Y-9521240D01*
X13487854Y-9464097D01*
X13502140Y-9435526D01*
X13516426Y-9421240D01*
X13544997Y-9406954D01*
X13773568Y-9706954D02*
X13773568Y-9506954D01*
X13773568Y-9535526D02*
X13787854Y-9521240D01*
X13816426Y-9506954D01*
X13859283Y-9506954D01*
X13887854Y-9521240D01*
X13902140Y-9549812D01*
X13902140Y-9706954D01*
X13902140Y-9549812D02*
X13916426Y-9521240D01*
X13944997Y-9506954D01*
X13987854Y-9506954D01*
X14016426Y-9521240D01*
X14030711Y-9549812D01*
X14030711Y-9706954D01*
X14173568Y-9706954D02*
X14173568Y-9506954D01*
X14173568Y-9535526D02*
X14187854Y-9521240D01*
X14216426Y-9506954D01*
X14259283Y-9506954D01*
X14287854Y-9521240D01*
X14302140Y-9549812D01*
X14302140Y-9706954D01*
X14302140Y-9549812D02*
X14316426Y-9521240D01*
X14344997Y-9506954D01*
X14387854Y-9506954D01*
X14416426Y-9521240D01*
X14430711Y-9549812D01*
X14430711Y-9706954D01*
X15016426Y-9392669D02*
X14759283Y-9778383D01*
X15402140Y-9406954D02*
X15430711Y-9406954D01*
X15459283Y-9421240D01*
X15473568Y-9435526D01*
X15487854Y-9464097D01*
X15502140Y-9521240D01*
X15502140Y-9592669D01*
X15487854Y-9649812D01*
X15473568Y-9678383D01*
X15459283Y-9692669D01*
X15430711Y-9706954D01*
X15402140Y-9706954D01*
X15373568Y-9692669D01*
X15359283Y-9678383D01*
X15344997Y-9649812D01*
X15330711Y-9592669D01*
X15330711Y-9521240D01*
X15344997Y-9464097D01*
X15359283Y-9435526D01*
X15373568Y-9421240D01*
X15402140Y-9406954D01*
X15630711Y-9678383D02*
X15644997Y-9692669D01*
X15630711Y-9706954D01*
X15616426Y-9692669D01*
X15630711Y-9678383D01*
X15630711Y-9706954D01*
X15830711Y-9406954D02*
X15859283Y-9406954D01*
X15887854Y-9421240D01*
X15902140Y-9435526D01*
X15916425Y-9464097D01*
X15930711Y-9521240D01*
X15930711Y-9592669D01*
X15916425Y-9649812D01*
X15902140Y-9678383D01*
X15887854Y-9692669D01*
X15859283Y-9706954D01*
X15830711Y-9706954D01*
X15802140Y-9692669D01*
X15787854Y-9678383D01*
X15773568Y-9649812D01*
X15759283Y-9592669D01*
X15759283Y-9521240D01*
X15773568Y-9464097D01*
X15787854Y-9435526D01*
X15802140Y-9421240D01*
X15830711Y-9406954D01*
X16073568Y-9706954D02*
X16130711Y-9706954D01*
X16159283Y-9692669D01*
X16173568Y-9678383D01*
X16202140Y-9635526D01*
X16216425Y-9578383D01*
X16216425Y-9464097D01*
X16202140Y-9435526D01*
X16187854Y-9421240D01*
X16159283Y-9406954D01*
X16102140Y-9406954D01*
X16073568Y-9421240D01*
X16059283Y-9435526D01*
X16044997Y-9464097D01*
X16044997Y-9535526D01*
X16059283Y-9564097D01*
X16073568Y-9578383D01*
X16102140Y-9592669D01*
X16159283Y-9592669D01*
X16187854Y-9578383D01*
X16202140Y-9564097D01*
X16216425Y-9535526D01*
X16502140Y-9706954D02*
X16330711Y-9706954D01*
X16416425Y-9706954D02*
X16416425Y-9406954D01*
X16387854Y-9449812D01*
X16359283Y-9478383D01*
X16330711Y-9492669D01*
X16616426Y-9406954D02*
X16616426Y-9464097D01*
X16730711Y-9406954D02*
X16730711Y-9464097D01*
X17173568Y-9821240D02*
X17159283Y-9806954D01*
X17130711Y-9764097D01*
X17116426Y-9735526D01*
X17102140Y-9692669D01*
X17087854Y-9621240D01*
X17087854Y-9564097D01*
X17102140Y-9492669D01*
X17116426Y-9449812D01*
X17130711Y-9421240D01*
X17159283Y-9378383D01*
X17173568Y-9364097D01*
X17273568Y-9435526D02*
X17287854Y-9421240D01*
X17316426Y-9406954D01*
X17387854Y-9406954D01*
X17416426Y-9421240D01*
X17430711Y-9435526D01*
X17444997Y-9464097D01*
X17444997Y-9492669D01*
X17430711Y-9535526D01*
X17259283Y-9706954D01*
X17444997Y-9706954D01*
X17802140Y-9706954D02*
X17802140Y-9406954D01*
X17930711Y-9706954D02*
X17930711Y-9549812D01*
X17916426Y-9521240D01*
X17887854Y-9506954D01*
X17844997Y-9506954D01*
X17816426Y-9521240D01*
X17802140Y-9535526D01*
X18116426Y-9706954D02*
X18087854Y-9692669D01*
X18073568Y-9678383D01*
X18059283Y-9649812D01*
X18059283Y-9564097D01*
X18073568Y-9535526D01*
X18087854Y-9521240D01*
X18116426Y-9506954D01*
X18159283Y-9506954D01*
X18187854Y-9521240D01*
X18202140Y-9535526D01*
X18216426Y-9564097D01*
X18216426Y-9649812D01*
X18202140Y-9678383D01*
X18187854Y-9692669D01*
X18159283Y-9706954D01*
X18116426Y-9706954D01*
X18387854Y-9706954D02*
X18359283Y-9692669D01*
X18344997Y-9664097D01*
X18344997Y-9406954D01*
X18616426Y-9692669D02*
X18587854Y-9706954D01*
X18530711Y-9706954D01*
X18502140Y-9692669D01*
X18487854Y-9664097D01*
X18487854Y-9549812D01*
X18502140Y-9521240D01*
X18530711Y-9506954D01*
X18587854Y-9506954D01*
X18616426Y-9521240D01*
X18630711Y-9549812D01*
X18630711Y-9578383D01*
X18487854Y-9606954D01*
X18744997Y-9692669D02*
X18773569Y-9706954D01*
X18830711Y-9706954D01*
X18859283Y-9692669D01*
X18873569Y-9664097D01*
X18873569Y-9649812D01*
X18859283Y-9621240D01*
X18830711Y-9606954D01*
X18787854Y-9606954D01*
X18759283Y-9592669D01*
X18744997Y-9564097D01*
X18744997Y-9549812D01*
X18759283Y-9521240D01*
X18787854Y-9506954D01*
X18830711Y-9506954D01*
X18859283Y-9521240D01*
X18973568Y-9821240D02*
X18987854Y-9806954D01*
X19016426Y-9764097D01*
X19030711Y-9735526D01*
X19044997Y-9692669D01*
X19059283Y-9621240D01*
X19059283Y-9564097D01*
X19044997Y-9492669D01*
X19030711Y-9449812D01*
X19016426Y-9421240D01*
X18987854Y-9378383D01*
X18973568Y-9364097D01*
X12458207Y-10073307D02*
X12458207Y-9861173D01*
X12246073Y-9861173D01*
X12246073Y-10073307D01*
X12458207Y-10073307D01*
X12744997Y-9802954D02*
X12930711Y-9802954D01*
X12830711Y-9917240D01*
X12873568Y-9917240D01*
X12902140Y-9931526D01*
X12916426Y-9945812D01*
X12930711Y-9974383D01*
X12930711Y-10045812D01*
X12916426Y-10074383D01*
X12902140Y-10088669D01*
X12873568Y-10102954D01*
X12787854Y-10102954D01*
X12759283Y-10088669D01*
X12744997Y-10074383D01*
X13059283Y-10074383D02*
X13073568Y-10088669D01*
X13059283Y-10102954D01*
X13044997Y-10088669D01*
X13059283Y-10074383D01*
X13059283Y-10102954D01*
X13259283Y-9802954D02*
X13287854Y-9802954D01*
X13316426Y-9817240D01*
X13330711Y-9831526D01*
X13344997Y-9860097D01*
X13359283Y-9917240D01*
X13359283Y-9988669D01*
X13344997Y-10045812D01*
X13330711Y-10074383D01*
X13316426Y-10088669D01*
X13287854Y-10102954D01*
X13259283Y-10102954D01*
X13230711Y-10088669D01*
X13216426Y-10074383D01*
X13202140Y-10045812D01*
X13187854Y-9988669D01*
X13187854Y-9917240D01*
X13202140Y-9860097D01*
X13216426Y-9831526D01*
X13230711Y-9817240D01*
X13259283Y-9802954D01*
X13544997Y-9802954D02*
X13573568Y-9802954D01*
X13602140Y-9817240D01*
X13616426Y-9831526D01*
X13630711Y-9860097D01*
X13644997Y-9917240D01*
X13644997Y-9988669D01*
X13630711Y-10045812D01*
X13616426Y-10074383D01*
X13602140Y-10088669D01*
X13573568Y-10102954D01*
X13544997Y-10102954D01*
X13516426Y-10088669D01*
X13502140Y-10074383D01*
X13487854Y-10045812D01*
X13473568Y-9988669D01*
X13473568Y-9917240D01*
X13487854Y-9860097D01*
X13502140Y-9831526D01*
X13516426Y-9817240D01*
X13544997Y-9802954D01*
X13773568Y-10102954D02*
X13773568Y-9902954D01*
X13773568Y-9931526D02*
X13787854Y-9917240D01*
X13816426Y-9902954D01*
X13859283Y-9902954D01*
X13887854Y-9917240D01*
X13902140Y-9945812D01*
X13902140Y-10102954D01*
X13902140Y-9945812D02*
X13916426Y-9917240D01*
X13944997Y-9902954D01*
X13987854Y-9902954D01*
X14016426Y-9917240D01*
X14030711Y-9945812D01*
X14030711Y-10102954D01*
X14173568Y-10102954D02*
X14173568Y-9902954D01*
X14173568Y-9931526D02*
X14187854Y-9917240D01*
X14216426Y-9902954D01*
X14259283Y-9902954D01*
X14287854Y-9917240D01*
X14302140Y-9945812D01*
X14302140Y-10102954D01*
X14302140Y-9945812D02*
X14316426Y-9917240D01*
X14344997Y-9902954D01*
X14387854Y-9902954D01*
X14416426Y-9917240D01*
X14430711Y-9945812D01*
X14430711Y-10102954D01*
X15016426Y-9788669D02*
X14759283Y-10174383D01*
X15402140Y-9802954D02*
X15430711Y-9802954D01*
X15459283Y-9817240D01*
X15473568Y-9831526D01*
X15487854Y-9860097D01*
X15502140Y-9917240D01*
X15502140Y-9988669D01*
X15487854Y-10045812D01*
X15473568Y-10074383D01*
X15459283Y-10088669D01*
X15430711Y-10102954D01*
X15402140Y-10102954D01*
X15373568Y-10088669D01*
X15359283Y-10074383D01*
X15344997Y-10045812D01*
X15330711Y-9988669D01*
X15330711Y-9917240D01*
X15344997Y-9860097D01*
X15359283Y-9831526D01*
X15373568Y-9817240D01*
X15402140Y-9802954D01*
X15630711Y-10074383D02*
X15644997Y-10088669D01*
X15630711Y-10102954D01*
X15616426Y-10088669D01*
X15630711Y-10074383D01*
X15630711Y-10102954D01*
X15930711Y-10102954D02*
X15759283Y-10102954D01*
X15844997Y-10102954D02*
X15844997Y-9802954D01*
X15816425Y-9845812D01*
X15787854Y-9874383D01*
X15759283Y-9888669D01*
X16216425Y-10102954D02*
X16044997Y-10102954D01*
X16130711Y-10102954D02*
X16130711Y-9802954D01*
X16102140Y-9845812D01*
X16073568Y-9874383D01*
X16044997Y-9888669D01*
X16387854Y-9931526D02*
X16359283Y-9917240D01*
X16344997Y-9902954D01*
X16330711Y-9874383D01*
X16330711Y-9860097D01*
X16344997Y-9831526D01*
X16359283Y-9817240D01*
X16387854Y-9802954D01*
X16444997Y-9802954D01*
X16473568Y-9817240D01*
X16487854Y-9831526D01*
X16502140Y-9860097D01*
X16502140Y-9874383D01*
X16487854Y-9902954D01*
X16473568Y-9917240D01*
X16444997Y-9931526D01*
X16387854Y-9931526D01*
X16359283Y-9945812D01*
X16344997Y-9960097D01*
X16330711Y-9988669D01*
X16330711Y-10045812D01*
X16344997Y-10074383D01*
X16359283Y-10088669D01*
X16387854Y-10102954D01*
X16444997Y-10102954D01*
X16473568Y-10088669D01*
X16487854Y-10074383D01*
X16502140Y-10045812D01*
X16502140Y-9988669D01*
X16487854Y-9960097D01*
X16473568Y-9945812D01*
X16444997Y-9931526D01*
X16616426Y-9802954D02*
X16616426Y-9860097D01*
X16730711Y-9802954D02*
X16730711Y-9860097D01*
X17173568Y-10217240D02*
X17159283Y-10202954D01*
X17130711Y-10160097D01*
X17116426Y-10131526D01*
X17102140Y-10088669D01*
X17087854Y-10017240D01*
X17087854Y-9960097D01*
X17102140Y-9888669D01*
X17116426Y-9845812D01*
X17130711Y-9817240D01*
X17159283Y-9774383D01*
X17173568Y-9760097D01*
X17416426Y-9902954D02*
X17416426Y-10102954D01*
X17344997Y-9788669D02*
X17273568Y-10002954D01*
X17459283Y-10002954D01*
X17802140Y-10102954D02*
X17802140Y-9802954D01*
X17930711Y-10102954D02*
X17930711Y-9945812D01*
X17916426Y-9917240D01*
X17887854Y-9902954D01*
X17844997Y-9902954D01*
X17816426Y-9917240D01*
X17802140Y-9931526D01*
X18116426Y-10102954D02*
X18087854Y-10088669D01*
X18073568Y-10074383D01*
X18059283Y-10045812D01*
X18059283Y-9960097D01*
X18073568Y-9931526D01*
X18087854Y-9917240D01*
X18116426Y-9902954D01*
X18159283Y-9902954D01*
X18187854Y-9917240D01*
X18202140Y-9931526D01*
X18216426Y-9960097D01*
X18216426Y-10045812D01*
X18202140Y-10074383D01*
X18187854Y-10088669D01*
X18159283Y-10102954D01*
X18116426Y-10102954D01*
X18387854Y-10102954D02*
X18359283Y-10088669D01*
X18344997Y-10060097D01*
X18344997Y-9802954D01*
X18616426Y-10088669D02*
X18587854Y-10102954D01*
X18530711Y-10102954D01*
X18502140Y-10088669D01*
X18487854Y-10060097D01*
X18487854Y-9945812D01*
X18502140Y-9917240D01*
X18530711Y-9902954D01*
X18587854Y-9902954D01*
X18616426Y-9917240D01*
X18630711Y-9945812D01*
X18630711Y-9974383D01*
X18487854Y-10002954D01*
X18744997Y-10088669D02*
X18773569Y-10102954D01*
X18830711Y-10102954D01*
X18859283Y-10088669D01*
X18873569Y-10060097D01*
X18873569Y-10045812D01*
X18859283Y-10017240D01*
X18830711Y-10002954D01*
X18787854Y-10002954D01*
X18759283Y-9988669D01*
X18744997Y-9960097D01*
X18744997Y-9945812D01*
X18759283Y-9917240D01*
X18787854Y-9902954D01*
X18830711Y-9902954D01*
X18859283Y-9917240D01*
X18973568Y-10217240D02*
X18987854Y-10202954D01*
X19016426Y-10160097D01*
X19030711Y-10131526D01*
X19044997Y-10088669D01*
X19059283Y-10017240D01*
X19059283Y-9960097D01*
X19044997Y-9888669D01*
X19030711Y-9845812D01*
X19016426Y-9817240D01*
X18987854Y-9774383D01*
X18973568Y-9760097D01*
X12349740Y-10549640D02*
X12502140Y-10397240D01*
X12349740Y-10244840D01*
X12197340Y-10397240D01*
X12349740Y-10549640D01*
X12744997Y-10232954D02*
X12930711Y-10232954D01*
X12830711Y-10347240D01*
X12873568Y-10347240D01*
X12902140Y-10361526D01*
X12916426Y-10375812D01*
X12930711Y-10404383D01*
X12930711Y-10475812D01*
X12916426Y-10504383D01*
X12902140Y-10518669D01*
X12873568Y-10532954D01*
X12787854Y-10532954D01*
X12759283Y-10518669D01*
X12744997Y-10504383D01*
X13059283Y-10504383D02*
X13073568Y-10518669D01*
X13059283Y-10532954D01*
X13044997Y-10518669D01*
X13059283Y-10504383D01*
X13059283Y-10532954D01*
X13259283Y-10232954D02*
X13287854Y-10232954D01*
X13316426Y-10247240D01*
X13330711Y-10261526D01*
X13344997Y-10290097D01*
X13359283Y-10347240D01*
X13359283Y-10418669D01*
X13344997Y-10475812D01*
X13330711Y-10504383D01*
X13316426Y-10518669D01*
X13287854Y-10532954D01*
X13259283Y-10532954D01*
X13230711Y-10518669D01*
X13216426Y-10504383D01*
X13202140Y-10475812D01*
X13187854Y-10418669D01*
X13187854Y-10347240D01*
X13202140Y-10290097D01*
X13216426Y-10261526D01*
X13230711Y-10247240D01*
X13259283Y-10232954D01*
X13630711Y-10232954D02*
X13487854Y-10232954D01*
X13473568Y-10375812D01*
X13487854Y-10361526D01*
X13516426Y-10347240D01*
X13587854Y-10347240D01*
X13616426Y-10361526D01*
X13630711Y-10375812D01*
X13644997Y-10404383D01*
X13644997Y-10475812D01*
X13630711Y-10504383D01*
X13616426Y-10518669D01*
X13587854Y-10532954D01*
X13516426Y-10532954D01*
X13487854Y-10518669D01*
X13473568Y-10504383D01*
X13773568Y-10532954D02*
X13773568Y-10332954D01*
X13773568Y-10361526D02*
X13787854Y-10347240D01*
X13816426Y-10332954D01*
X13859283Y-10332954D01*
X13887854Y-10347240D01*
X13902140Y-10375812D01*
X13902140Y-10532954D01*
X13902140Y-10375812D02*
X13916426Y-10347240D01*
X13944997Y-10332954D01*
X13987854Y-10332954D01*
X14016426Y-10347240D01*
X14030711Y-10375812D01*
X14030711Y-10532954D01*
X14173568Y-10532954D02*
X14173568Y-10332954D01*
X14173568Y-10361526D02*
X14187854Y-10347240D01*
X14216426Y-10332954D01*
X14259283Y-10332954D01*
X14287854Y-10347240D01*
X14302140Y-10375812D01*
X14302140Y-10532954D01*
X14302140Y-10375812D02*
X14316426Y-10347240D01*
X14344997Y-10332954D01*
X14387854Y-10332954D01*
X14416426Y-10347240D01*
X14430711Y-10375812D01*
X14430711Y-10532954D01*
X15016426Y-10218669D02*
X14759283Y-10604383D01*
X15402140Y-10232954D02*
X15430711Y-10232954D01*
X15459283Y-10247240D01*
X15473568Y-10261526D01*
X15487854Y-10290097D01*
X15502140Y-10347240D01*
X15502140Y-10418669D01*
X15487854Y-10475812D01*
X15473568Y-10504383D01*
X15459283Y-10518669D01*
X15430711Y-10532954D01*
X15402140Y-10532954D01*
X15373568Y-10518669D01*
X15359283Y-10504383D01*
X15344997Y-10475812D01*
X15330711Y-10418669D01*
X15330711Y-10347240D01*
X15344997Y-10290097D01*
X15359283Y-10261526D01*
X15373568Y-10247240D01*
X15402140Y-10232954D01*
X15630711Y-10504383D02*
X15644997Y-10518669D01*
X15630711Y-10532954D01*
X15616426Y-10518669D01*
X15630711Y-10504383D01*
X15630711Y-10532954D01*
X15930711Y-10532954D02*
X15759283Y-10532954D01*
X15844997Y-10532954D02*
X15844997Y-10232954D01*
X15816425Y-10275812D01*
X15787854Y-10304383D01*
X15759283Y-10318669D01*
X16044997Y-10261526D02*
X16059283Y-10247240D01*
X16087854Y-10232954D01*
X16159283Y-10232954D01*
X16187854Y-10247240D01*
X16202140Y-10261526D01*
X16216425Y-10290097D01*
X16216425Y-10318669D01*
X16202140Y-10361526D01*
X16030711Y-10532954D01*
X16216425Y-10532954D01*
X16402140Y-10232954D02*
X16430711Y-10232954D01*
X16459283Y-10247240D01*
X16473568Y-10261526D01*
X16487854Y-10290097D01*
X16502140Y-10347240D01*
X16502140Y-10418669D01*
X16487854Y-10475812D01*
X16473568Y-10504383D01*
X16459283Y-10518669D01*
X16430711Y-10532954D01*
X16402140Y-10532954D01*
X16373568Y-10518669D01*
X16359283Y-10504383D01*
X16344997Y-10475812D01*
X16330711Y-10418669D01*
X16330711Y-10347240D01*
X16344997Y-10290097D01*
X16359283Y-10261526D01*
X16373568Y-10247240D01*
X16402140Y-10232954D01*
X16616426Y-10232954D02*
X16616426Y-10290097D01*
X16730711Y-10232954D02*
X16730711Y-10290097D01*
X17173568Y-10647240D02*
X17159283Y-10632954D01*
X17130711Y-10590097D01*
X17116426Y-10561526D01*
X17102140Y-10518669D01*
X17087854Y-10447240D01*
X17087854Y-10390097D01*
X17102140Y-10318669D01*
X17116426Y-10275812D01*
X17130711Y-10247240D01*
X17159283Y-10204383D01*
X17173568Y-10190097D01*
X17273568Y-10261526D02*
X17287854Y-10247240D01*
X17316426Y-10232954D01*
X17387854Y-10232954D01*
X17416426Y-10247240D01*
X17430711Y-10261526D01*
X17444997Y-10290097D01*
X17444997Y-10318669D01*
X17430711Y-10361526D01*
X17259283Y-10532954D01*
X17444997Y-10532954D01*
X17802140Y-10532954D02*
X17802140Y-10232954D01*
X17930711Y-10532954D02*
X17930711Y-10375812D01*
X17916426Y-10347240D01*
X17887854Y-10332954D01*
X17844997Y-10332954D01*
X17816426Y-10347240D01*
X17802140Y-10361526D01*
X18116426Y-10532954D02*
X18087854Y-10518669D01*
X18073568Y-10504383D01*
X18059283Y-10475812D01*
X18059283Y-10390097D01*
X18073568Y-10361526D01*
X18087854Y-10347240D01*
X18116426Y-10332954D01*
X18159283Y-10332954D01*
X18187854Y-10347240D01*
X18202140Y-10361526D01*
X18216426Y-10390097D01*
X18216426Y-10475812D01*
X18202140Y-10504383D01*
X18187854Y-10518669D01*
X18159283Y-10532954D01*
X18116426Y-10532954D01*
X18387854Y-10532954D02*
X18359283Y-10518669D01*
X18344997Y-10490097D01*
X18344997Y-10232954D01*
X18616426Y-10518669D02*
X18587854Y-10532954D01*
X18530711Y-10532954D01*
X18502140Y-10518669D01*
X18487854Y-10490097D01*
X18487854Y-10375812D01*
X18502140Y-10347240D01*
X18530711Y-10332954D01*
X18587854Y-10332954D01*
X18616426Y-10347240D01*
X18630711Y-10375812D01*
X18630711Y-10404383D01*
X18487854Y-10432954D01*
X18744997Y-10518669D02*
X18773569Y-10532954D01*
X18830711Y-10532954D01*
X18859283Y-10518669D01*
X18873569Y-10490097D01*
X18873569Y-10475812D01*
X18859283Y-10447240D01*
X18830711Y-10432954D01*
X18787854Y-10432954D01*
X18759283Y-10418669D01*
X18744997Y-10390097D01*
X18744997Y-10375812D01*
X18759283Y-10347240D01*
X18787854Y-10332954D01*
X18830711Y-10332954D01*
X18859283Y-10347240D01*
X18973568Y-10647240D02*
X18987854Y-10632954D01*
X19016426Y-10590097D01*
X19030711Y-10561526D01*
X19044997Y-10518669D01*
X19059283Y-10447240D01*
X19059283Y-10390097D01*
X19044997Y-10318669D01*
X19030711Y-10275812D01*
X19016426Y-10247240D01*
X18987854Y-10204383D01*
X18973568Y-10190097D01*
M02*
