G04 #@! TF.FileFunction,Legend,Top*
%FSLAX46Y46*%
G04 Gerber Fmt 4.6, Leading zero omitted, Abs format (unit mm)*
G04 Created by KiCad (PCBNEW (2015-07-31 BZR 6030)-product) date Sat Sep 12 09:46:02 2015*
%MOMM*%
G01*
G04 APERTURE LIST*
%ADD10C,0.100000*%
%ADD11C,0.150000*%
G04 APERTURE END LIST*
D10*
D11*
X133097800Y-46265400D02*
G75*
G03X133097800Y-46265400I-2286000J0D01*
G01*
X133097800Y-72300400D02*
G75*
G03X133097800Y-72300400I-2286000J0D01*
G01*
X160402800Y-72300400D02*
G75*
G03X160402800Y-72300400I-2286000J0D01*
G01*
X137816800Y-55800400D02*
X138816800Y-55800400D01*
X138816800Y-54100400D02*
X137816800Y-54100400D01*
X137816800Y-58975400D02*
X138816800Y-58975400D01*
X138816800Y-57275400D02*
X137816800Y-57275400D01*
X145031800Y-52020400D02*
X143031800Y-52020400D01*
X143031800Y-54070400D02*
X145031800Y-54070400D01*
X141626800Y-60880400D02*
X142626800Y-60880400D01*
X142626800Y-59180400D02*
X141626800Y-59180400D01*
X154064800Y-60792400D02*
X154064800Y-74889400D01*
X139078800Y-74889400D02*
X139078800Y-60792400D01*
X154064800Y-60792400D02*
X139078800Y-60792400D01*
X154064800Y-74889400D02*
X139078800Y-74889400D01*
X145841800Y-56125400D02*
X149841800Y-56125400D01*
X145841800Y-56125400D02*
X145841800Y-60125400D01*
X145841800Y-60125400D02*
X149841800Y-60125400D01*
X149841800Y-60125400D02*
X149841800Y-56125400D01*
X151691800Y-56355400D02*
X151691800Y-57355400D01*
X150341800Y-57355400D02*
X150341800Y-56355400D01*
X141771800Y-58480400D02*
X141771800Y-57980400D01*
X145021800Y-55230400D02*
X145021800Y-55730400D01*
X141771800Y-55230400D02*
X141771800Y-55730400D01*
X145021800Y-58480400D02*
X144521800Y-58480400D01*
X145021800Y-55230400D02*
X144521800Y-55230400D01*
X141771800Y-55230400D02*
X142271800Y-55230400D01*
X141771800Y-58480400D02*
X142271800Y-58480400D01*
X152782800Y-46265400D02*
G75*
G03X152782800Y-46265400I-2286000J0D01*
G01*
X141872800Y-46060400D02*
G75*
G03X141872800Y-46060400I-2286000J0D01*
G01*
X160402800Y-46265400D02*
G75*
G03X160402800Y-46265400I-2286000J0D01*
G01*
X134312181Y-47598733D02*
X133835990Y-47932067D01*
X134312181Y-48170162D02*
X133312181Y-48170162D01*
X133312181Y-47789209D01*
X133359800Y-47693971D01*
X133407419Y-47646352D01*
X133502657Y-47598733D01*
X133645514Y-47598733D01*
X133740752Y-47646352D01*
X133788371Y-47693971D01*
X133835990Y-47789209D01*
X133835990Y-48170162D01*
X133788371Y-47170162D02*
X133788371Y-46836828D01*
X134312181Y-46693971D02*
X134312181Y-47170162D01*
X133312181Y-47170162D01*
X133312181Y-46693971D01*
X133788371Y-45932066D02*
X133788371Y-46265400D01*
X134312181Y-46265400D02*
X133312181Y-46265400D01*
X133312181Y-45789209D01*
X133312181Y-45265400D02*
X133550276Y-45265400D01*
X133455038Y-45503495D02*
X133550276Y-45265400D01*
X133455038Y-45027304D01*
X133740752Y-45408257D02*
X133550276Y-45265400D01*
X133740752Y-45122542D01*
X133312181Y-44503495D02*
X133550276Y-44503495D01*
X133455038Y-44741590D02*
X133550276Y-44503495D01*
X133455038Y-44265399D01*
X133740752Y-44646352D02*
X133550276Y-44503495D01*
X133740752Y-44360637D01*
X134312181Y-73633733D02*
X133835990Y-73967067D01*
X134312181Y-74205162D02*
X133312181Y-74205162D01*
X133312181Y-73824209D01*
X133359800Y-73728971D01*
X133407419Y-73681352D01*
X133502657Y-73633733D01*
X133645514Y-73633733D01*
X133740752Y-73681352D01*
X133788371Y-73728971D01*
X133835990Y-73824209D01*
X133835990Y-74205162D01*
X133788371Y-73205162D02*
X133788371Y-72871828D01*
X134312181Y-72728971D02*
X134312181Y-73205162D01*
X133312181Y-73205162D01*
X133312181Y-72728971D01*
X133788371Y-71967066D02*
X133788371Y-72300400D01*
X134312181Y-72300400D02*
X133312181Y-72300400D01*
X133312181Y-71824209D01*
X133312181Y-71300400D02*
X133550276Y-71300400D01*
X133455038Y-71538495D02*
X133550276Y-71300400D01*
X133455038Y-71062304D01*
X133740752Y-71443257D02*
X133550276Y-71300400D01*
X133740752Y-71157542D01*
X133312181Y-70538495D02*
X133550276Y-70538495D01*
X133455038Y-70776590D02*
X133550276Y-70538495D01*
X133455038Y-70300399D01*
X133740752Y-70681352D02*
X133550276Y-70538495D01*
X133740752Y-70395637D01*
X161617181Y-73633733D02*
X161140990Y-73967067D01*
X161617181Y-74205162D02*
X160617181Y-74205162D01*
X160617181Y-73824209D01*
X160664800Y-73728971D01*
X160712419Y-73681352D01*
X160807657Y-73633733D01*
X160950514Y-73633733D01*
X161045752Y-73681352D01*
X161093371Y-73728971D01*
X161140990Y-73824209D01*
X161140990Y-74205162D01*
X161093371Y-73205162D02*
X161093371Y-72871828D01*
X161617181Y-72728971D02*
X161617181Y-73205162D01*
X160617181Y-73205162D01*
X160617181Y-72728971D01*
X161093371Y-71967066D02*
X161093371Y-72300400D01*
X161617181Y-72300400D02*
X160617181Y-72300400D01*
X160617181Y-71824209D01*
X160617181Y-71300400D02*
X160855276Y-71300400D01*
X160760038Y-71538495D02*
X160855276Y-71300400D01*
X160760038Y-71062304D01*
X161045752Y-71443257D02*
X160855276Y-71300400D01*
X161045752Y-71157542D01*
X160617181Y-70538495D02*
X160855276Y-70538495D01*
X160760038Y-70776590D02*
X160855276Y-70538495D01*
X160760038Y-70300399D01*
X161045752Y-70681352D02*
X160855276Y-70538495D01*
X161045752Y-70395637D01*
X138150134Y-53402543D02*
X138102515Y-53450162D01*
X137959658Y-53497781D01*
X137864420Y-53497781D01*
X137721562Y-53450162D01*
X137626324Y-53354924D01*
X137578705Y-53259686D01*
X137531086Y-53069210D01*
X137531086Y-52926352D01*
X137578705Y-52735876D01*
X137626324Y-52640638D01*
X137721562Y-52545400D01*
X137864420Y-52497781D01*
X137959658Y-52497781D01*
X138102515Y-52545400D01*
X138150134Y-52593019D01*
X139102515Y-53497781D02*
X138531086Y-53497781D01*
X138816800Y-53497781D02*
X138816800Y-52497781D01*
X138721562Y-52640638D01*
X138626324Y-52735876D01*
X138531086Y-52783495D01*
X138150134Y-60582543D02*
X138102515Y-60630162D01*
X137959658Y-60677781D01*
X137864420Y-60677781D01*
X137721562Y-60630162D01*
X137626324Y-60534924D01*
X137578705Y-60439686D01*
X137531086Y-60249210D01*
X137531086Y-60106352D01*
X137578705Y-59915876D01*
X137626324Y-59820638D01*
X137721562Y-59725400D01*
X137864420Y-59677781D01*
X137959658Y-59677781D01*
X138102515Y-59725400D01*
X138150134Y-59773019D01*
X138531086Y-59773019D02*
X138578705Y-59725400D01*
X138673943Y-59677781D01*
X138912039Y-59677781D01*
X139007277Y-59725400D01*
X139054896Y-59773019D01*
X139102515Y-59868257D01*
X139102515Y-59963495D01*
X139054896Y-60106352D01*
X138483467Y-60677781D01*
X139102515Y-60677781D01*
X143865134Y-51102543D02*
X143817515Y-51150162D01*
X143674658Y-51197781D01*
X143579420Y-51197781D01*
X143436562Y-51150162D01*
X143341324Y-51054924D01*
X143293705Y-50959686D01*
X143246086Y-50769210D01*
X143246086Y-50626352D01*
X143293705Y-50435876D01*
X143341324Y-50340638D01*
X143436562Y-50245400D01*
X143579420Y-50197781D01*
X143674658Y-50197781D01*
X143817515Y-50245400D01*
X143865134Y-50293019D01*
X144198467Y-50197781D02*
X144817515Y-50197781D01*
X144484181Y-50578733D01*
X144627039Y-50578733D01*
X144722277Y-50626352D01*
X144769896Y-50673971D01*
X144817515Y-50769210D01*
X144817515Y-51007305D01*
X144769896Y-51102543D01*
X144722277Y-51150162D01*
X144627039Y-51197781D01*
X144341324Y-51197781D01*
X144246086Y-51150162D01*
X144198467Y-51102543D01*
X140170134Y-62497543D02*
X140122515Y-62545162D01*
X139979658Y-62592781D01*
X139884420Y-62592781D01*
X139741562Y-62545162D01*
X139646324Y-62449924D01*
X139598705Y-62354686D01*
X139551086Y-62164210D01*
X139551086Y-62021352D01*
X139598705Y-61830876D01*
X139646324Y-61735638D01*
X139741562Y-61640400D01*
X139884420Y-61592781D01*
X139979658Y-61592781D01*
X140122515Y-61640400D01*
X140170134Y-61688019D01*
X141027277Y-61926114D02*
X141027277Y-62592781D01*
X140789181Y-61545162D02*
X140551086Y-62259448D01*
X141170134Y-62259448D01*
X143484181Y-69888733D02*
X144198467Y-69888733D01*
X144341324Y-69936353D01*
X144436562Y-70031591D01*
X144484181Y-70174448D01*
X144484181Y-70269686D01*
X144484181Y-68888733D02*
X144484181Y-69460162D01*
X144484181Y-69174448D02*
X143484181Y-69174448D01*
X143627038Y-69269686D01*
X143722276Y-69364924D01*
X143769895Y-69460162D01*
X151584181Y-59767066D02*
X151584181Y-60243257D01*
X150584181Y-60243257D01*
X151584181Y-58909923D02*
X151584181Y-59481352D01*
X151584181Y-59195638D02*
X150584181Y-59195638D01*
X150727038Y-59290876D01*
X150822276Y-59386114D01*
X150869895Y-59481352D01*
X151584181Y-54687066D02*
X151107990Y-55020400D01*
X151584181Y-55258495D02*
X150584181Y-55258495D01*
X150584181Y-54877542D01*
X150631800Y-54782304D01*
X150679419Y-54734685D01*
X150774657Y-54687066D01*
X150917514Y-54687066D01*
X151012752Y-54734685D01*
X151060371Y-54782304D01*
X151107990Y-54877542D01*
X151107990Y-55258495D01*
X151584181Y-53734685D02*
X151584181Y-54306114D01*
X151584181Y-54020400D02*
X150584181Y-54020400D01*
X150727038Y-54115638D01*
X150822276Y-54210876D01*
X150869895Y-54306114D01*
X146774181Y-55282305D02*
X147583705Y-55282305D01*
X147678943Y-55234686D01*
X147726562Y-55187067D01*
X147774181Y-55091829D01*
X147774181Y-54901352D01*
X147726562Y-54806114D01*
X147678943Y-54758495D01*
X147583705Y-54710876D01*
X146774181Y-54710876D01*
X147774181Y-53710876D02*
X147774181Y-54282305D01*
X147774181Y-53996591D02*
X146774181Y-53996591D01*
X146917038Y-54091829D01*
X147012276Y-54187067D01*
X147059895Y-54282305D01*
X153997181Y-47003495D02*
X152997181Y-47003495D01*
X152997181Y-46622542D01*
X153044800Y-46527304D01*
X153092419Y-46479685D01*
X153187657Y-46432066D01*
X153330514Y-46432066D01*
X153425752Y-46479685D01*
X153473371Y-46527304D01*
X153520990Y-46622542D01*
X153520990Y-47003495D01*
X153997181Y-45479685D02*
X153997181Y-46051114D01*
X153997181Y-45765400D02*
X152997181Y-45765400D01*
X153140038Y-45860638D01*
X153235276Y-45955876D01*
X153282895Y-46051114D01*
X143087181Y-46798495D02*
X142087181Y-46798495D01*
X142087181Y-46417542D01*
X142134800Y-46322304D01*
X142182419Y-46274685D01*
X142277657Y-46227066D01*
X142420514Y-46227066D01*
X142515752Y-46274685D01*
X142563371Y-46322304D01*
X142610990Y-46417542D01*
X142610990Y-46798495D01*
X142182419Y-45846114D02*
X142134800Y-45798495D01*
X142087181Y-45703257D01*
X142087181Y-45465161D01*
X142134800Y-45369923D01*
X142182419Y-45322304D01*
X142277657Y-45274685D01*
X142372895Y-45274685D01*
X142515752Y-45322304D01*
X143087181Y-45893733D01*
X143087181Y-45274685D01*
X161617181Y-47598733D02*
X161140990Y-47932067D01*
X161617181Y-48170162D02*
X160617181Y-48170162D01*
X160617181Y-47789209D01*
X160664800Y-47693971D01*
X160712419Y-47646352D01*
X160807657Y-47598733D01*
X160950514Y-47598733D01*
X161045752Y-47646352D01*
X161093371Y-47693971D01*
X161140990Y-47789209D01*
X161140990Y-48170162D01*
X161093371Y-47170162D02*
X161093371Y-46836828D01*
X161617181Y-46693971D02*
X161617181Y-47170162D01*
X160617181Y-47170162D01*
X160617181Y-46693971D01*
X161093371Y-45932066D02*
X161093371Y-46265400D01*
X161617181Y-46265400D02*
X160617181Y-46265400D01*
X160617181Y-45789209D01*
X160617181Y-45265400D02*
X160855276Y-45265400D01*
X160760038Y-45503495D02*
X160855276Y-45265400D01*
X160760038Y-45027304D01*
X161045752Y-45408257D02*
X160855276Y-45265400D01*
X161045752Y-45122542D01*
X160617181Y-44503495D02*
X160855276Y-44503495D01*
X160760038Y-44741590D02*
X160855276Y-44503495D01*
X160760038Y-44265399D01*
X161045752Y-44646352D02*
X160855276Y-44503495D01*
X161045752Y-44360637D01*
M02*
