G04 #@! TF.FileFunction,Copper,L1,Top,Signal*
%FSLAX46Y46*%
G04 Gerber Fmt 4.6, Leading zero omitted, Abs format (unit mm)*
G04 Created by KiCad (PCBNEW (2015-07-31 BZR 6030)-product) date Sat Sep 12 09:46:02 2015*
%MOMM*%
G01*
G04 APERTURE LIST*
%ADD10C,0.100000*%
%ADD11C,5.000000*%
%ADD12R,1.000000X1.250000*%
%ADD13R,1.000000X1.600000*%
%ADD14C,1.501140*%
%ADD15C,2.999740*%
%ADD16R,3.400000X0.980000*%
%ADD17R,0.900000X0.500000*%
%ADD18O,0.750000X0.300000*%
%ADD19O,0.300000X0.750000*%
%ADD20R,0.900000X0.900000*%
%ADD21C,4.064000*%
%ADD22C,0.700000*%
%ADD23C,0.250000*%
%ADD24C,0.635000*%
%ADD25C,0.254000*%
G04 APERTURE END LIST*
D10*
D11*
X130811800Y-46265400D03*
X130811800Y-72300400D03*
X158116800Y-72300400D03*
D12*
X139316800Y-54950400D03*
X137316800Y-54950400D03*
X139316800Y-58125400D03*
X137316800Y-58125400D03*
D13*
X142531800Y-53045400D03*
X145531800Y-53045400D03*
D12*
X143126800Y-60030400D03*
X141126800Y-60030400D03*
D14*
X150127800Y-61935400D03*
X147587800Y-61935400D03*
X145555800Y-61935400D03*
X143015800Y-61935400D03*
D15*
X153175800Y-64602400D03*
X139459800Y-64602400D03*
D16*
X147841800Y-56770400D03*
X147841800Y-59310400D03*
D17*
X151016800Y-57605400D03*
X151016800Y-56105400D03*
D18*
X144871800Y-57605400D03*
X144871800Y-57105400D03*
X144871800Y-56605400D03*
X144871800Y-56105400D03*
D19*
X144146800Y-55380400D03*
X143646800Y-55380400D03*
X143146800Y-55380400D03*
X142646800Y-55380400D03*
D18*
X141921800Y-56105400D03*
X141921800Y-56605400D03*
X141921800Y-57105400D03*
X141921800Y-57605400D03*
D19*
X142646800Y-58330400D03*
X143146800Y-58330400D03*
X143646800Y-58330400D03*
X144146800Y-58330400D03*
D20*
X142946800Y-56405400D03*
X142946800Y-57305400D03*
X143846800Y-56405400D03*
X143846800Y-57305400D03*
D21*
X150496800Y-46265400D03*
X139586800Y-46060400D03*
D11*
X158116800Y-46265400D03*
D22*
X142946800Y-57305400D03*
X142946800Y-56405400D03*
X143846800Y-56405400D03*
X143846800Y-57305400D03*
D23*
X144146800Y-56105400D02*
X143846800Y-56405400D01*
X145531800Y-53045400D02*
X145531800Y-53995400D01*
X145531800Y-53995400D02*
X144146800Y-55380400D01*
D24*
X141126800Y-60030400D02*
X137161800Y-60030400D01*
X137316800Y-54950400D02*
X137316800Y-58125400D01*
X137316800Y-58125400D02*
X137161800Y-58280400D01*
X137161800Y-58280400D02*
X137161800Y-60030400D01*
X137161800Y-60030400D02*
X137161800Y-62304400D01*
X137161800Y-62304400D02*
X139459800Y-64602400D01*
D23*
X144146800Y-55380400D02*
X144146800Y-56105400D01*
X143646800Y-58330400D02*
X143646800Y-57505400D01*
X143646800Y-57505400D02*
X143846800Y-57305400D01*
X144146800Y-58330400D02*
X144146800Y-57605400D01*
X144146800Y-57605400D02*
X143846800Y-57305400D01*
X142646800Y-55380400D02*
X142646800Y-56105400D01*
X142646800Y-56105400D02*
X142946800Y-56405400D01*
X143146800Y-55380400D02*
X143146800Y-56205400D01*
X143146800Y-56205400D02*
X142946800Y-56405400D01*
X141921800Y-56605400D02*
X141921800Y-57105400D01*
X142646800Y-58330400D02*
X141606800Y-58330400D01*
X141606800Y-58330400D02*
X141401800Y-58125400D01*
X141921800Y-56605400D02*
X141036800Y-57490400D01*
D24*
X141921800Y-57105400D02*
X141536800Y-57490400D01*
X141536800Y-57490400D02*
X141036800Y-57490400D01*
X141036800Y-57490400D02*
X140856800Y-57490400D01*
X141921800Y-57605400D02*
X141401800Y-58125400D01*
X141401800Y-58125400D02*
X140856800Y-58125400D01*
X139316800Y-58125400D02*
X140856800Y-58125400D01*
X140856800Y-57490400D02*
X140856800Y-54950400D01*
X140856800Y-58125400D02*
X140856800Y-57490400D01*
X139316800Y-54950400D02*
X140856800Y-54950400D01*
X139586800Y-46060400D02*
X140856800Y-47330400D01*
X140856800Y-47330400D02*
X140856800Y-54950400D01*
D23*
X143146800Y-58330400D02*
X143146800Y-60010400D01*
X143146800Y-60010400D02*
X143126800Y-60030400D01*
D24*
X151016800Y-57605400D02*
X149311800Y-59310400D01*
X149311800Y-59310400D02*
X147841800Y-59310400D01*
X147841800Y-59310400D02*
X147121800Y-60030400D01*
X147121800Y-60030400D02*
X143126800Y-60030400D01*
X143126800Y-60030400D02*
X143126800Y-61824400D01*
X143126800Y-61824400D02*
X143015800Y-61935400D01*
D23*
X141921800Y-56105400D02*
X141921800Y-53655400D01*
X141921800Y-53655400D02*
X142531800Y-53045400D01*
X144871800Y-57605400D02*
X144871800Y-56605400D01*
X144871800Y-56605400D02*
X144666800Y-56810400D01*
X144666800Y-56810400D02*
X144666800Y-57490400D01*
X144666800Y-57490400D02*
X144871800Y-57605400D01*
X144871800Y-57605400D02*
X145706800Y-56770400D01*
X145706800Y-56770400D02*
X147841800Y-56770400D01*
X144871800Y-56605400D02*
X144871800Y-56650400D01*
X144871800Y-56650400D02*
X144991800Y-56770400D01*
X144991800Y-56770400D02*
X147841800Y-56770400D01*
D24*
X144871800Y-57105400D02*
X147506800Y-57105400D01*
X147506800Y-57105400D02*
X147841800Y-56770400D01*
D23*
X144871800Y-56105400D02*
X145416800Y-56105400D01*
X150496800Y-55585400D02*
X151016800Y-56105400D01*
X145936800Y-55585400D02*
X150496800Y-55585400D01*
X145416800Y-56105400D02*
X145936800Y-55585400D01*
D25*
G36*
X156343285Y-43606127D02*
X155460626Y-44487247D01*
X154982346Y-45639074D01*
X154981257Y-46886254D01*
X155457527Y-48038915D01*
X156338647Y-48921574D01*
X157490474Y-49399854D01*
X158737654Y-49400943D01*
X159890315Y-48924673D01*
X160772974Y-48043553D01*
X161164800Y-47099931D01*
X161164800Y-50589520D01*
X161063543Y-50741062D01*
X161011400Y-51003200D01*
X161063543Y-51265338D01*
X161164800Y-51416880D01*
X161164800Y-71467676D01*
X160776073Y-70526885D01*
X159894953Y-69644226D01*
X158743126Y-69165946D01*
X157495946Y-69164857D01*
X156343285Y-69641127D01*
X155460626Y-70522247D01*
X154982346Y-71674074D01*
X154981257Y-72921254D01*
X155457527Y-74073915D01*
X156338647Y-74956574D01*
X157282269Y-75348400D01*
X131644524Y-75348400D01*
X132585315Y-74959673D01*
X133467974Y-74078553D01*
X133946254Y-72926726D01*
X133947343Y-71679546D01*
X133471073Y-70526885D01*
X132589953Y-69644226D01*
X131438126Y-69165946D01*
X130190946Y-69164857D01*
X129038285Y-69641127D01*
X128155626Y-70522247D01*
X127763800Y-71465869D01*
X127763800Y-66116277D01*
X138125528Y-66116277D01*
X138285295Y-66435032D01*
X139076017Y-66744995D01*
X139925166Y-66728767D01*
X140634305Y-66435032D01*
X140794072Y-66116277D01*
X151841528Y-66116277D01*
X152001295Y-66435032D01*
X152792017Y-66744995D01*
X153641166Y-66728767D01*
X154350305Y-66435032D01*
X154510072Y-66116277D01*
X153175800Y-64782005D01*
X151841528Y-66116277D01*
X140794072Y-66116277D01*
X139459800Y-64782005D01*
X138125528Y-66116277D01*
X127763800Y-66116277D01*
X127763800Y-64218617D01*
X137317205Y-64218617D01*
X137333433Y-65067766D01*
X137627168Y-65776905D01*
X137945923Y-65936672D01*
X139280195Y-64602400D01*
X139639405Y-64602400D01*
X140973677Y-65936672D01*
X141292432Y-65776905D01*
X141602395Y-64986183D01*
X141587727Y-64218617D01*
X151033205Y-64218617D01*
X151049433Y-65067766D01*
X151343168Y-65776905D01*
X151661923Y-65936672D01*
X152996195Y-64602400D01*
X153355405Y-64602400D01*
X154689677Y-65936672D01*
X155008432Y-65776905D01*
X155318395Y-64986183D01*
X155302167Y-64137034D01*
X155008432Y-63427895D01*
X154689677Y-63268128D01*
X153355405Y-64602400D01*
X152996195Y-64602400D01*
X151661923Y-63268128D01*
X151343168Y-63427895D01*
X151033205Y-64218617D01*
X141587727Y-64218617D01*
X141586167Y-64137034D01*
X141292432Y-63427895D01*
X140973677Y-63268128D01*
X139639405Y-64602400D01*
X139280195Y-64602400D01*
X137945923Y-63268128D01*
X137627168Y-63427895D01*
X137317205Y-64218617D01*
X127763800Y-64218617D01*
X127763800Y-63088523D01*
X138125528Y-63088523D01*
X139459800Y-64422795D01*
X140794072Y-63088523D01*
X140634305Y-62769768D01*
X139843583Y-62459805D01*
X138994434Y-62476033D01*
X138285295Y-62769768D01*
X138125528Y-63088523D01*
X127763800Y-63088523D01*
X127763800Y-60316150D01*
X139991800Y-60316150D01*
X139991800Y-60781710D01*
X140088473Y-61015099D01*
X140267102Y-61193727D01*
X140500491Y-61290400D01*
X140841050Y-61290400D01*
X140999800Y-61131650D01*
X140999800Y-60157400D01*
X140150550Y-60157400D01*
X139991800Y-60316150D01*
X127763800Y-60316150D01*
X127763800Y-58411150D01*
X136181800Y-58411150D01*
X136181800Y-58876710D01*
X136278473Y-59110099D01*
X136457102Y-59288727D01*
X136690491Y-59385400D01*
X137031050Y-59385400D01*
X137189800Y-59226650D01*
X137189800Y-58252400D01*
X136340550Y-58252400D01*
X136181800Y-58411150D01*
X127763800Y-58411150D01*
X127763800Y-57374090D01*
X136181800Y-57374090D01*
X136181800Y-57839650D01*
X136340550Y-57998400D01*
X137189800Y-57998400D01*
X137189800Y-57024150D01*
X137031050Y-56865400D01*
X136690491Y-56865400D01*
X136457102Y-56962073D01*
X136278473Y-57140701D01*
X136181800Y-57374090D01*
X127763800Y-57374090D01*
X127763800Y-55236150D01*
X136181800Y-55236150D01*
X136181800Y-55701710D01*
X136278473Y-55935099D01*
X136457102Y-56113727D01*
X136690491Y-56210400D01*
X137031050Y-56210400D01*
X137189800Y-56051650D01*
X137189800Y-55077400D01*
X136340550Y-55077400D01*
X136181800Y-55236150D01*
X127763800Y-55236150D01*
X127763800Y-54199090D01*
X136181800Y-54199090D01*
X136181800Y-54664650D01*
X136340550Y-54823400D01*
X137189800Y-54823400D01*
X137189800Y-53849150D01*
X137031050Y-53690400D01*
X136690491Y-53690400D01*
X136457102Y-53787073D01*
X136278473Y-53965701D01*
X136181800Y-54199090D01*
X127763800Y-54199090D01*
X127763800Y-47098124D01*
X128152527Y-48038915D01*
X129033647Y-48921574D01*
X130185474Y-49399854D01*
X131432654Y-49400943D01*
X132585315Y-48924673D01*
X133467974Y-48043553D01*
X133946254Y-46891726D01*
X133946518Y-46588572D01*
X136919338Y-46588572D01*
X137324509Y-47569161D01*
X138074093Y-48320055D01*
X139053973Y-48726936D01*
X139904300Y-48727678D01*
X139904300Y-53695679D01*
X139816800Y-53677960D01*
X138816800Y-53677960D01*
X138581483Y-53722238D01*
X138365359Y-53861310D01*
X138318831Y-53929406D01*
X138176498Y-53787073D01*
X137943109Y-53690400D01*
X137602550Y-53690400D01*
X137443800Y-53849150D01*
X137443800Y-54823400D01*
X137463800Y-54823400D01*
X137463800Y-55077400D01*
X137443800Y-55077400D01*
X137443800Y-56051650D01*
X137602550Y-56210400D01*
X137943109Y-56210400D01*
X138176498Y-56113727D01*
X138317736Y-55972490D01*
X138352710Y-56026841D01*
X138564910Y-56171831D01*
X138816800Y-56222840D01*
X139816800Y-56222840D01*
X139904300Y-56206376D01*
X139904300Y-56870679D01*
X139816800Y-56852960D01*
X138816800Y-56852960D01*
X138581483Y-56897238D01*
X138365359Y-57036310D01*
X138318831Y-57104406D01*
X138176498Y-56962073D01*
X137943109Y-56865400D01*
X137602550Y-56865400D01*
X137443800Y-57024150D01*
X137443800Y-57998400D01*
X137463800Y-57998400D01*
X137463800Y-58252400D01*
X137443800Y-58252400D01*
X137443800Y-59226650D01*
X137602550Y-59385400D01*
X137943109Y-59385400D01*
X138176498Y-59288727D01*
X138317736Y-59147490D01*
X138352710Y-59201841D01*
X138564910Y-59346831D01*
X138816800Y-59397840D01*
X139816800Y-59397840D01*
X139991800Y-59364911D01*
X139991800Y-59744650D01*
X140150550Y-59903400D01*
X140999800Y-59903400D01*
X140999800Y-59883400D01*
X141253800Y-59883400D01*
X141253800Y-59903400D01*
X141273800Y-59903400D01*
X141273800Y-60157400D01*
X141253800Y-60157400D01*
X141253800Y-61131650D01*
X141412550Y-61290400D01*
X141753109Y-61290400D01*
X141789637Y-61275269D01*
X141630471Y-61658584D01*
X141629990Y-62209798D01*
X141840486Y-62719237D01*
X142229913Y-63109344D01*
X142738984Y-63320729D01*
X143290198Y-63321210D01*
X143799637Y-63110714D01*
X144189744Y-62721287D01*
X144285775Y-62490019D01*
X144380486Y-62719237D01*
X144769913Y-63109344D01*
X145278984Y-63320729D01*
X145830198Y-63321210D01*
X146339637Y-63110714D01*
X146571863Y-62878893D01*
X146801913Y-63109344D01*
X147310984Y-63320729D01*
X147862198Y-63321210D01*
X148371637Y-63110714D01*
X148575376Y-62907330D01*
X149335475Y-62907330D01*
X149403535Y-63148331D01*
X149922834Y-63333167D01*
X150473338Y-63305205D01*
X150852065Y-63148331D01*
X150868955Y-63088523D01*
X151841528Y-63088523D01*
X153175800Y-64422795D01*
X154510072Y-63088523D01*
X154429515Y-62927800D01*
X159108200Y-62927800D01*
X159108200Y-66102800D01*
X159160343Y-66364938D01*
X159308832Y-66587168D01*
X159531062Y-66735657D01*
X159793200Y-66787800D01*
X160055338Y-66735657D01*
X160277568Y-66587168D01*
X160426057Y-66364938D01*
X160478200Y-66102800D01*
X160478200Y-62927800D01*
X160426057Y-62665662D01*
X160277568Y-62443432D01*
X160055338Y-62294943D01*
X159793200Y-62242800D01*
X159531062Y-62294943D01*
X159308832Y-62443432D01*
X159160343Y-62665662D01*
X159108200Y-62927800D01*
X154429515Y-62927800D01*
X154350305Y-62769768D01*
X153559583Y-62459805D01*
X152710434Y-62476033D01*
X152001295Y-62769768D01*
X151841528Y-63088523D01*
X150868955Y-63088523D01*
X150920125Y-62907330D01*
X150127800Y-62115005D01*
X149335475Y-62907330D01*
X148575376Y-62907330D01*
X148761744Y-62721287D01*
X148851179Y-62505904D01*
X148914869Y-62659665D01*
X149155870Y-62727725D01*
X149948195Y-61935400D01*
X150307405Y-61935400D01*
X151099730Y-62727725D01*
X151340731Y-62659665D01*
X151525567Y-62140366D01*
X151497605Y-61589862D01*
X151340731Y-61211135D01*
X151099730Y-61143075D01*
X150307405Y-61935400D01*
X149948195Y-61935400D01*
X149155870Y-61143075D01*
X148914869Y-61211135D01*
X148856031Y-61376440D01*
X148763114Y-61151563D01*
X148575349Y-60963470D01*
X149335475Y-60963470D01*
X150127800Y-61755795D01*
X150920125Y-60963470D01*
X150852065Y-60722469D01*
X150332766Y-60537633D01*
X149782262Y-60565595D01*
X149403535Y-60722469D01*
X149335475Y-60963470D01*
X148575349Y-60963470D01*
X148373687Y-60761456D01*
X147924359Y-60574879D01*
X148051398Y-60447840D01*
X149541800Y-60447840D01*
X149777117Y-60403562D01*
X149993241Y-60264490D01*
X150138231Y-60052290D01*
X150189240Y-59800400D01*
X150189240Y-59779998D01*
X151466398Y-58502840D01*
X151466800Y-58502840D01*
X151702117Y-58458562D01*
X151918241Y-58319490D01*
X152063231Y-58107290D01*
X152114240Y-57855400D01*
X152114240Y-57355400D01*
X152069962Y-57120083D01*
X151930890Y-56903959D01*
X151861089Y-56856266D01*
X151918241Y-56819490D01*
X152063231Y-56607290D01*
X152114240Y-56355400D01*
X152114240Y-55855400D01*
X152069962Y-55620083D01*
X151930890Y-55403959D01*
X151718690Y-55258969D01*
X151466800Y-55207960D01*
X151194162Y-55207960D01*
X151034201Y-55047999D01*
X150787639Y-54883252D01*
X150496800Y-54825400D01*
X145936800Y-54825400D01*
X145645961Y-54883252D01*
X145399399Y-55047999D01*
X145125271Y-55322127D01*
X145116587Y-55320400D01*
X144931800Y-55320400D01*
X144931800Y-55253398D01*
X144780927Y-55253398D01*
X144945243Y-55128161D01*
X144874041Y-54824684D01*
X144692124Y-54571555D01*
X144427186Y-54407311D01*
X144343116Y-54395344D01*
X144221800Y-54533657D01*
X144221800Y-54610348D01*
X144201879Y-54580534D01*
X143986960Y-54436931D01*
X143950484Y-54395344D01*
X143904548Y-54401883D01*
X143646800Y-54350613D01*
X143389052Y-54401883D01*
X143348606Y-54396125D01*
X143483241Y-54309490D01*
X143628231Y-54097290D01*
X143679240Y-53845400D01*
X143679240Y-53331150D01*
X144396800Y-53331150D01*
X144396800Y-53971710D01*
X144493473Y-54205099D01*
X144672102Y-54383727D01*
X144905491Y-54480400D01*
X145246050Y-54480400D01*
X145404800Y-54321650D01*
X145404800Y-53172400D01*
X145658800Y-53172400D01*
X145658800Y-54321650D01*
X145817550Y-54480400D01*
X146158109Y-54480400D01*
X146391498Y-54383727D01*
X146570127Y-54205099D01*
X146666800Y-53971710D01*
X146666800Y-53331150D01*
X146508050Y-53172400D01*
X145658800Y-53172400D01*
X145404800Y-53172400D01*
X144555550Y-53172400D01*
X144396800Y-53331150D01*
X143679240Y-53331150D01*
X143679240Y-52245400D01*
X143655474Y-52119090D01*
X144396800Y-52119090D01*
X144396800Y-52759650D01*
X144555550Y-52918400D01*
X145404800Y-52918400D01*
X145404800Y-51769150D01*
X145658800Y-51769150D01*
X145658800Y-52918400D01*
X146508050Y-52918400D01*
X146666800Y-52759650D01*
X146666800Y-52119090D01*
X146570127Y-51885701D01*
X146391498Y-51707073D01*
X146158109Y-51610400D01*
X145817550Y-51610400D01*
X145658800Y-51769150D01*
X145404800Y-51769150D01*
X145246050Y-51610400D01*
X144905491Y-51610400D01*
X144672102Y-51707073D01*
X144493473Y-51885701D01*
X144396800Y-52119090D01*
X143655474Y-52119090D01*
X143634962Y-52010083D01*
X143495890Y-51793959D01*
X143283690Y-51648969D01*
X143031800Y-51597960D01*
X142031800Y-51597960D01*
X141809300Y-51639826D01*
X141809300Y-48163521D01*
X148778284Y-48163521D01*
X149002954Y-48537568D01*
X149986188Y-48936280D01*
X151047157Y-48928375D01*
X151990646Y-48537568D01*
X152215316Y-48163521D01*
X150496800Y-46445005D01*
X148778284Y-48163521D01*
X141809300Y-48163521D01*
X141809300Y-47610197D01*
X141846455Y-47573107D01*
X142253336Y-46593227D01*
X142254067Y-45754788D01*
X147825920Y-45754788D01*
X147833825Y-46815757D01*
X148224632Y-47759246D01*
X148598679Y-47983916D01*
X150317195Y-46265400D01*
X150676405Y-46265400D01*
X152394921Y-47983916D01*
X152768968Y-47759246D01*
X153167680Y-46776012D01*
X153159775Y-45715043D01*
X152768968Y-44771554D01*
X152394921Y-44546884D01*
X150676405Y-46265400D01*
X150317195Y-46265400D01*
X148598679Y-44546884D01*
X148224632Y-44771554D01*
X147825920Y-45754788D01*
X142254067Y-45754788D01*
X142254262Y-45532228D01*
X141849091Y-44551639D01*
X141665053Y-44367279D01*
X148778284Y-44367279D01*
X150496800Y-46085795D01*
X152215316Y-44367279D01*
X151990646Y-43993232D01*
X151007412Y-43594520D01*
X149946443Y-43602425D01*
X149002954Y-43993232D01*
X148778284Y-44367279D01*
X141665053Y-44367279D01*
X141099507Y-43800745D01*
X140119627Y-43393864D01*
X139058628Y-43392938D01*
X138078039Y-43798109D01*
X137327145Y-44547693D01*
X136920264Y-45527573D01*
X136919338Y-46588572D01*
X133946518Y-46588572D01*
X133947343Y-45644546D01*
X133471073Y-44491885D01*
X132589953Y-43609226D01*
X131646331Y-43217400D01*
X157284076Y-43217400D01*
X156343285Y-43606127D01*
X156343285Y-43606127D01*
G37*
X156343285Y-43606127D02*
X155460626Y-44487247D01*
X154982346Y-45639074D01*
X154981257Y-46886254D01*
X155457527Y-48038915D01*
X156338647Y-48921574D01*
X157490474Y-49399854D01*
X158737654Y-49400943D01*
X159890315Y-48924673D01*
X160772974Y-48043553D01*
X161164800Y-47099931D01*
X161164800Y-50589520D01*
X161063543Y-50741062D01*
X161011400Y-51003200D01*
X161063543Y-51265338D01*
X161164800Y-51416880D01*
X161164800Y-71467676D01*
X160776073Y-70526885D01*
X159894953Y-69644226D01*
X158743126Y-69165946D01*
X157495946Y-69164857D01*
X156343285Y-69641127D01*
X155460626Y-70522247D01*
X154982346Y-71674074D01*
X154981257Y-72921254D01*
X155457527Y-74073915D01*
X156338647Y-74956574D01*
X157282269Y-75348400D01*
X131644524Y-75348400D01*
X132585315Y-74959673D01*
X133467974Y-74078553D01*
X133946254Y-72926726D01*
X133947343Y-71679546D01*
X133471073Y-70526885D01*
X132589953Y-69644226D01*
X131438126Y-69165946D01*
X130190946Y-69164857D01*
X129038285Y-69641127D01*
X128155626Y-70522247D01*
X127763800Y-71465869D01*
X127763800Y-66116277D01*
X138125528Y-66116277D01*
X138285295Y-66435032D01*
X139076017Y-66744995D01*
X139925166Y-66728767D01*
X140634305Y-66435032D01*
X140794072Y-66116277D01*
X151841528Y-66116277D01*
X152001295Y-66435032D01*
X152792017Y-66744995D01*
X153641166Y-66728767D01*
X154350305Y-66435032D01*
X154510072Y-66116277D01*
X153175800Y-64782005D01*
X151841528Y-66116277D01*
X140794072Y-66116277D01*
X139459800Y-64782005D01*
X138125528Y-66116277D01*
X127763800Y-66116277D01*
X127763800Y-64218617D01*
X137317205Y-64218617D01*
X137333433Y-65067766D01*
X137627168Y-65776905D01*
X137945923Y-65936672D01*
X139280195Y-64602400D01*
X139639405Y-64602400D01*
X140973677Y-65936672D01*
X141292432Y-65776905D01*
X141602395Y-64986183D01*
X141587727Y-64218617D01*
X151033205Y-64218617D01*
X151049433Y-65067766D01*
X151343168Y-65776905D01*
X151661923Y-65936672D01*
X152996195Y-64602400D01*
X153355405Y-64602400D01*
X154689677Y-65936672D01*
X155008432Y-65776905D01*
X155318395Y-64986183D01*
X155302167Y-64137034D01*
X155008432Y-63427895D01*
X154689677Y-63268128D01*
X153355405Y-64602400D01*
X152996195Y-64602400D01*
X151661923Y-63268128D01*
X151343168Y-63427895D01*
X151033205Y-64218617D01*
X141587727Y-64218617D01*
X141586167Y-64137034D01*
X141292432Y-63427895D01*
X140973677Y-63268128D01*
X139639405Y-64602400D01*
X139280195Y-64602400D01*
X137945923Y-63268128D01*
X137627168Y-63427895D01*
X137317205Y-64218617D01*
X127763800Y-64218617D01*
X127763800Y-63088523D01*
X138125528Y-63088523D01*
X139459800Y-64422795D01*
X140794072Y-63088523D01*
X140634305Y-62769768D01*
X139843583Y-62459805D01*
X138994434Y-62476033D01*
X138285295Y-62769768D01*
X138125528Y-63088523D01*
X127763800Y-63088523D01*
X127763800Y-60316150D01*
X139991800Y-60316150D01*
X139991800Y-60781710D01*
X140088473Y-61015099D01*
X140267102Y-61193727D01*
X140500491Y-61290400D01*
X140841050Y-61290400D01*
X140999800Y-61131650D01*
X140999800Y-60157400D01*
X140150550Y-60157400D01*
X139991800Y-60316150D01*
X127763800Y-60316150D01*
X127763800Y-58411150D01*
X136181800Y-58411150D01*
X136181800Y-58876710D01*
X136278473Y-59110099D01*
X136457102Y-59288727D01*
X136690491Y-59385400D01*
X137031050Y-59385400D01*
X137189800Y-59226650D01*
X137189800Y-58252400D01*
X136340550Y-58252400D01*
X136181800Y-58411150D01*
X127763800Y-58411150D01*
X127763800Y-57374090D01*
X136181800Y-57374090D01*
X136181800Y-57839650D01*
X136340550Y-57998400D01*
X137189800Y-57998400D01*
X137189800Y-57024150D01*
X137031050Y-56865400D01*
X136690491Y-56865400D01*
X136457102Y-56962073D01*
X136278473Y-57140701D01*
X136181800Y-57374090D01*
X127763800Y-57374090D01*
X127763800Y-55236150D01*
X136181800Y-55236150D01*
X136181800Y-55701710D01*
X136278473Y-55935099D01*
X136457102Y-56113727D01*
X136690491Y-56210400D01*
X137031050Y-56210400D01*
X137189800Y-56051650D01*
X137189800Y-55077400D01*
X136340550Y-55077400D01*
X136181800Y-55236150D01*
X127763800Y-55236150D01*
X127763800Y-54199090D01*
X136181800Y-54199090D01*
X136181800Y-54664650D01*
X136340550Y-54823400D01*
X137189800Y-54823400D01*
X137189800Y-53849150D01*
X137031050Y-53690400D01*
X136690491Y-53690400D01*
X136457102Y-53787073D01*
X136278473Y-53965701D01*
X136181800Y-54199090D01*
X127763800Y-54199090D01*
X127763800Y-47098124D01*
X128152527Y-48038915D01*
X129033647Y-48921574D01*
X130185474Y-49399854D01*
X131432654Y-49400943D01*
X132585315Y-48924673D01*
X133467974Y-48043553D01*
X133946254Y-46891726D01*
X133946518Y-46588572D01*
X136919338Y-46588572D01*
X137324509Y-47569161D01*
X138074093Y-48320055D01*
X139053973Y-48726936D01*
X139904300Y-48727678D01*
X139904300Y-53695679D01*
X139816800Y-53677960D01*
X138816800Y-53677960D01*
X138581483Y-53722238D01*
X138365359Y-53861310D01*
X138318831Y-53929406D01*
X138176498Y-53787073D01*
X137943109Y-53690400D01*
X137602550Y-53690400D01*
X137443800Y-53849150D01*
X137443800Y-54823400D01*
X137463800Y-54823400D01*
X137463800Y-55077400D01*
X137443800Y-55077400D01*
X137443800Y-56051650D01*
X137602550Y-56210400D01*
X137943109Y-56210400D01*
X138176498Y-56113727D01*
X138317736Y-55972490D01*
X138352710Y-56026841D01*
X138564910Y-56171831D01*
X138816800Y-56222840D01*
X139816800Y-56222840D01*
X139904300Y-56206376D01*
X139904300Y-56870679D01*
X139816800Y-56852960D01*
X138816800Y-56852960D01*
X138581483Y-56897238D01*
X138365359Y-57036310D01*
X138318831Y-57104406D01*
X138176498Y-56962073D01*
X137943109Y-56865400D01*
X137602550Y-56865400D01*
X137443800Y-57024150D01*
X137443800Y-57998400D01*
X137463800Y-57998400D01*
X137463800Y-58252400D01*
X137443800Y-58252400D01*
X137443800Y-59226650D01*
X137602550Y-59385400D01*
X137943109Y-59385400D01*
X138176498Y-59288727D01*
X138317736Y-59147490D01*
X138352710Y-59201841D01*
X138564910Y-59346831D01*
X138816800Y-59397840D01*
X139816800Y-59397840D01*
X139991800Y-59364911D01*
X139991800Y-59744650D01*
X140150550Y-59903400D01*
X140999800Y-59903400D01*
X140999800Y-59883400D01*
X141253800Y-59883400D01*
X141253800Y-59903400D01*
X141273800Y-59903400D01*
X141273800Y-60157400D01*
X141253800Y-60157400D01*
X141253800Y-61131650D01*
X141412550Y-61290400D01*
X141753109Y-61290400D01*
X141789637Y-61275269D01*
X141630471Y-61658584D01*
X141629990Y-62209798D01*
X141840486Y-62719237D01*
X142229913Y-63109344D01*
X142738984Y-63320729D01*
X143290198Y-63321210D01*
X143799637Y-63110714D01*
X144189744Y-62721287D01*
X144285775Y-62490019D01*
X144380486Y-62719237D01*
X144769913Y-63109344D01*
X145278984Y-63320729D01*
X145830198Y-63321210D01*
X146339637Y-63110714D01*
X146571863Y-62878893D01*
X146801913Y-63109344D01*
X147310984Y-63320729D01*
X147862198Y-63321210D01*
X148371637Y-63110714D01*
X148575376Y-62907330D01*
X149335475Y-62907330D01*
X149403535Y-63148331D01*
X149922834Y-63333167D01*
X150473338Y-63305205D01*
X150852065Y-63148331D01*
X150868955Y-63088523D01*
X151841528Y-63088523D01*
X153175800Y-64422795D01*
X154510072Y-63088523D01*
X154429515Y-62927800D01*
X159108200Y-62927800D01*
X159108200Y-66102800D01*
X159160343Y-66364938D01*
X159308832Y-66587168D01*
X159531062Y-66735657D01*
X159793200Y-66787800D01*
X160055338Y-66735657D01*
X160277568Y-66587168D01*
X160426057Y-66364938D01*
X160478200Y-66102800D01*
X160478200Y-62927800D01*
X160426057Y-62665662D01*
X160277568Y-62443432D01*
X160055338Y-62294943D01*
X159793200Y-62242800D01*
X159531062Y-62294943D01*
X159308832Y-62443432D01*
X159160343Y-62665662D01*
X159108200Y-62927800D01*
X154429515Y-62927800D01*
X154350305Y-62769768D01*
X153559583Y-62459805D01*
X152710434Y-62476033D01*
X152001295Y-62769768D01*
X151841528Y-63088523D01*
X150868955Y-63088523D01*
X150920125Y-62907330D01*
X150127800Y-62115005D01*
X149335475Y-62907330D01*
X148575376Y-62907330D01*
X148761744Y-62721287D01*
X148851179Y-62505904D01*
X148914869Y-62659665D01*
X149155870Y-62727725D01*
X149948195Y-61935400D01*
X150307405Y-61935400D01*
X151099730Y-62727725D01*
X151340731Y-62659665D01*
X151525567Y-62140366D01*
X151497605Y-61589862D01*
X151340731Y-61211135D01*
X151099730Y-61143075D01*
X150307405Y-61935400D01*
X149948195Y-61935400D01*
X149155870Y-61143075D01*
X148914869Y-61211135D01*
X148856031Y-61376440D01*
X148763114Y-61151563D01*
X148575349Y-60963470D01*
X149335475Y-60963470D01*
X150127800Y-61755795D01*
X150920125Y-60963470D01*
X150852065Y-60722469D01*
X150332766Y-60537633D01*
X149782262Y-60565595D01*
X149403535Y-60722469D01*
X149335475Y-60963470D01*
X148575349Y-60963470D01*
X148373687Y-60761456D01*
X147924359Y-60574879D01*
X148051398Y-60447840D01*
X149541800Y-60447840D01*
X149777117Y-60403562D01*
X149993241Y-60264490D01*
X150138231Y-60052290D01*
X150189240Y-59800400D01*
X150189240Y-59779998D01*
X151466398Y-58502840D01*
X151466800Y-58502840D01*
X151702117Y-58458562D01*
X151918241Y-58319490D01*
X152063231Y-58107290D01*
X152114240Y-57855400D01*
X152114240Y-57355400D01*
X152069962Y-57120083D01*
X151930890Y-56903959D01*
X151861089Y-56856266D01*
X151918241Y-56819490D01*
X152063231Y-56607290D01*
X152114240Y-56355400D01*
X152114240Y-55855400D01*
X152069962Y-55620083D01*
X151930890Y-55403959D01*
X151718690Y-55258969D01*
X151466800Y-55207960D01*
X151194162Y-55207960D01*
X151034201Y-55047999D01*
X150787639Y-54883252D01*
X150496800Y-54825400D01*
X145936800Y-54825400D01*
X145645961Y-54883252D01*
X145399399Y-55047999D01*
X145125271Y-55322127D01*
X145116587Y-55320400D01*
X144931800Y-55320400D01*
X144931800Y-55253398D01*
X144780927Y-55253398D01*
X144945243Y-55128161D01*
X144874041Y-54824684D01*
X144692124Y-54571555D01*
X144427186Y-54407311D01*
X144343116Y-54395344D01*
X144221800Y-54533657D01*
X144221800Y-54610348D01*
X144201879Y-54580534D01*
X143986960Y-54436931D01*
X143950484Y-54395344D01*
X143904548Y-54401883D01*
X143646800Y-54350613D01*
X143389052Y-54401883D01*
X143348606Y-54396125D01*
X143483241Y-54309490D01*
X143628231Y-54097290D01*
X143679240Y-53845400D01*
X143679240Y-53331150D01*
X144396800Y-53331150D01*
X144396800Y-53971710D01*
X144493473Y-54205099D01*
X144672102Y-54383727D01*
X144905491Y-54480400D01*
X145246050Y-54480400D01*
X145404800Y-54321650D01*
X145404800Y-53172400D01*
X145658800Y-53172400D01*
X145658800Y-54321650D01*
X145817550Y-54480400D01*
X146158109Y-54480400D01*
X146391498Y-54383727D01*
X146570127Y-54205099D01*
X146666800Y-53971710D01*
X146666800Y-53331150D01*
X146508050Y-53172400D01*
X145658800Y-53172400D01*
X145404800Y-53172400D01*
X144555550Y-53172400D01*
X144396800Y-53331150D01*
X143679240Y-53331150D01*
X143679240Y-52245400D01*
X143655474Y-52119090D01*
X144396800Y-52119090D01*
X144396800Y-52759650D01*
X144555550Y-52918400D01*
X145404800Y-52918400D01*
X145404800Y-51769150D01*
X145658800Y-51769150D01*
X145658800Y-52918400D01*
X146508050Y-52918400D01*
X146666800Y-52759650D01*
X146666800Y-52119090D01*
X146570127Y-51885701D01*
X146391498Y-51707073D01*
X146158109Y-51610400D01*
X145817550Y-51610400D01*
X145658800Y-51769150D01*
X145404800Y-51769150D01*
X145246050Y-51610400D01*
X144905491Y-51610400D01*
X144672102Y-51707073D01*
X144493473Y-51885701D01*
X144396800Y-52119090D01*
X143655474Y-52119090D01*
X143634962Y-52010083D01*
X143495890Y-51793959D01*
X143283690Y-51648969D01*
X143031800Y-51597960D01*
X142031800Y-51597960D01*
X141809300Y-51639826D01*
X141809300Y-48163521D01*
X148778284Y-48163521D01*
X149002954Y-48537568D01*
X149986188Y-48936280D01*
X151047157Y-48928375D01*
X151990646Y-48537568D01*
X152215316Y-48163521D01*
X150496800Y-46445005D01*
X148778284Y-48163521D01*
X141809300Y-48163521D01*
X141809300Y-47610197D01*
X141846455Y-47573107D01*
X142253336Y-46593227D01*
X142254067Y-45754788D01*
X147825920Y-45754788D01*
X147833825Y-46815757D01*
X148224632Y-47759246D01*
X148598679Y-47983916D01*
X150317195Y-46265400D01*
X150676405Y-46265400D01*
X152394921Y-47983916D01*
X152768968Y-47759246D01*
X153167680Y-46776012D01*
X153159775Y-45715043D01*
X152768968Y-44771554D01*
X152394921Y-44546884D01*
X150676405Y-46265400D01*
X150317195Y-46265400D01*
X148598679Y-44546884D01*
X148224632Y-44771554D01*
X147825920Y-45754788D01*
X142254067Y-45754788D01*
X142254262Y-45532228D01*
X141849091Y-44551639D01*
X141665053Y-44367279D01*
X148778284Y-44367279D01*
X150496800Y-46085795D01*
X152215316Y-44367279D01*
X151990646Y-43993232D01*
X151007412Y-43594520D01*
X149946443Y-43602425D01*
X149002954Y-43993232D01*
X148778284Y-44367279D01*
X141665053Y-44367279D01*
X141099507Y-43800745D01*
X140119627Y-43393864D01*
X139058628Y-43392938D01*
X138078039Y-43798109D01*
X137327145Y-44547693D01*
X136920264Y-45527573D01*
X136919338Y-46588572D01*
X133946518Y-46588572D01*
X133947343Y-45644546D01*
X133471073Y-44491885D01*
X132589953Y-43609226D01*
X131646331Y-43217400D01*
X157284076Y-43217400D01*
X156343285Y-43606127D01*
M02*
