<?xml version="1.0" encoding="UTF-8" standalone="no"?>
<svg
   xmlns:dc="http://purl.org/dc/elements/1.1/"
   xmlns:cc="http://creativecommons.org/ns#"
   xmlns:rdf="http://www.w3.org/1999/02/22-rdf-syntax-ns#"
   xmlns:svg="http://www.w3.org/2000/svg"
   xmlns="http://www.w3.org/2000/svg"
   xmlns:sodipodi="http://sodipodi.sourceforge.net/DTD/sodipodi-0.dtd"
   xmlns:inkscape="http://www.inkscape.org/namespaces/inkscape"
   width="8.000in"
   height="24.000in"
   version="1.1"
   viewBox="0 0 203.199 609.599"
   id="svg2"
   inkscape:version="0.91 r13725"
   sodipodi:docname="gimbal_cut.svg">
  <metadata
     id="metadata74">
    <rdf:RDF>
      <cc:Work
         rdf:about="">
        <dc:format>image/svg+xml</dc:format>
        <dc:type
           rdf:resource="http://purl.org/dc/dcmitype/StillImage" />
        <dc:title></dc:title>
      </cc:Work>
    </rdf:RDF>
  </metadata>
  <defs
     id="defs72" />
  <sodipodi:namedview
     pagecolor="#ffffff"
     bordercolor="#666666"
     borderopacity="1"
     objecttolerance="10"
     gridtolerance="10"
     guidetolerance="10"
     inkscape:pageopacity="0"
     inkscape:pageshadow="2"
     inkscape:window-width="681"
     inkscape:window-height="747"
     id="namedview70"
     showgrid="false"
     inkscape:zoom="0.43703704"
     inkscape:cx="135.51509"
     inkscape:cy="892.17625"
     inkscape:window-x="0"
     inkscape:window-y="19"
     inkscape:window-maximized="0"
     inkscape:current-layer="svg2" />
  <path
     fill="transparent"
     d="m 46.17347,245.84706 0,77.81001 121.81,0 0,-77.81001 -50.405,0 0,-14.311 -5,0 0,-3.4 5,0 0,-17.6 -32.5,0 0,17.6 5,0 0,3.4 -5,0 0,14.311 z"
     id="path4"
     inkscape:connector-curvature="0"
     style="fill-opacity:0;stroke:#ff0000;stroke-width:0.001in" />
  <rect
     fill="transparent"
     x="103.35847"
     y="246.03607"
     width="7.4390001"
     height="73.199997"
     id="rect6"
     style="fill-opacity:0;stroke:#ff0000;stroke-width:0.001in" />
  <circle
     fill="transparent"
     cx="107.07847"
     cy="282.63605"
     r="28.198999"
     id="circle8"
     style="fill-opacity:0;stroke:#ff0000;stroke-width:0.001in" />
  <rect
     fill="transparent"
     x="103.35847"
     y="320.23605"
     width="7.4390001"
     height="3.3989999"
     id="rect10"
     style="fill-opacity:0;stroke:#ff0000;stroke-width:0.001in" />
  <circle
     fill="transparent"
     cx="140.04668"
     cy="224.38548"
     r="2.4189999"
     id="circle12"
     style="fill-opacity:0;stroke:#ff0000;stroke-width:0.001in" />
  <path
     fill="transparent"
     d="m 135.12667,214.38549 0,10 a 4.92,4.92 0 0 0 9.84,0 l 0,-10 -1.2,0 0,-3.401 -7.44,0 0,3.401 -1.2,0 z"
     id="path14"
     inkscape:connector-curvature="0"
     style="fill-opacity:0;stroke:#ff0000;stroke-width:0.001in" />
  <path
     fill="transparent"
     d="m 129.36158,231.69145 22.5,0 0,-18.901 5,0 0,3.401 1.2,0 0,17.9 -34.9,0 0,-17.9 1.2,0 0,-3.401 5,0 z"
     id="path16"
     inkscape:connector-curvature="0"
     style="fill-opacity:0;stroke:#ff0000;stroke-width:0.001in" />
  <path
     fill="transparent"
     d="m 103.42549,398.81464 -44.692,44.692 a 67.805,67.805 0 0 1 -23.113,-44.692 l 0,-14.82 8.134,0 0,3.399 8.133,0 0,-3.399 8.133,0 0,8.899 a 43.405,43.405 0 0 0 8.814,26.22 l 30.405,-30.406 a 5.919,5.919 0 0 1 8.373,0 l 30.405,30.406 a 43.405,43.405 0 0 0 8.813,-26.22 l 0,-8.899 8.134,0 0,3.399 8.133,0 0,-3.399 8.134,0 0,14.82 a 67.805,67.805 0 0 1 -23.113,44.692 z"
     id="path18"
     inkscape:connector-curvature="0"
     style="fill-opacity:0;stroke:#ff0000;stroke-width:0.001in" />
  <circle
     fill="transparent"
     cx="103.42549"
     cy="392.89365"
     r="2.4189999"
     id="circle20"
     style="fill-opacity:0;stroke:#ff0000;stroke-width:0.001in" />
  <path
     fill="transparent"
     d="m 144.41849,436.29064 2.404,-2.404 -5.751,-5.751 -2.404,2.404 z"
     id="path22"
     inkscape:connector-curvature="0"
     style="fill-opacity:0;stroke:#ff0000;stroke-width:0.001in" />
  <path
     fill="transparent"
     d="m 62.43349,436.29064 -2.404,-2.404 5.751,-5.751 2.404,2.404 z"
     id="path24"
     inkscape:connector-curvature="0"
     style="fill-opacity:0;stroke:#ff0000;stroke-width:0.001in" />
  <path
     fill="transparent"
     d="m 11.91854,218.4494 0,23.699 3.4,0 0,14 -3.4,0 0,28.701 8.134,0 0,3.4 8.133,0 0,-3.4 8.134,0 0,-66.4 -8.134,0 0,-3.401 -8.133,0 0,3.401 z"
     id="path26"
     inkscape:connector-curvature="0"
     style="fill-opacity:0;stroke:#ff0000;stroke-width:0.001in" />
  <path
     fill="transparent"
     d="m 175.7543,216.16629 0,23.699 3.401,0 0,14 -3.401,0 0,28.701 8.134,0 0,3.4 8.133,0 0,-3.4 8.134,0 0,-66.4 -8.134,0 0,-3.401 -8.133,0 0,3.401 z"
     id="path28"
     inkscape:connector-curvature="0"
     style="fill-opacity:0;stroke:#ff0000;stroke-width:0.001in" />
  <path
     fill="transparent"
     d="m 11.461918,295.61828 0,23.699 3.4,0 0,14 -3.4,0 0,28.7 8.134,0 0,3.4 8.133,0 0,-3.4 8.134,0 0,-66.399 -8.134,0 0,-3.4 -8.133,0 0,3.4 z"
     id="path30"
     inkscape:connector-curvature="0"
     style="fill-opacity:0;stroke:#ff0000;stroke-width:0.001in" />
  <path
     fill="transparent"
     d="m 173.01456,317.53616 0,23.699 3.401,0 0,14 -3.401,0 0,28.7 8.134,0 0,3.4 8.133,0 0,-3.4 8.134,0 0,-66.399 -8.134,0 0,-3.4 -8.133,0 0,3.4 z"
     id="path32"
     inkscape:connector-curvature="0"
     style="fill-opacity:0;stroke:#ff0000;stroke-width:0.001in" />
  <path
     fill="transparent"
     d="m 183.79104,295.39012 0,-3.401 14,0 0,3.401 3.5,0 0,13.4 -32.5,0 0,-13.4 5,0 0,11 22.5,0 0,-11 z"
     id="path34"
     inkscape:connector-curvature="0"
     style="fill-opacity:0;stroke:#ff0000;stroke-width:0.001in" />
  <path
     fill="transparent"
     d="m 66.895693,215.25272 0,-3.4 14,0 0,3.4 1.2,0 0,14.399 -16.4,0 0,-14.399 z"
     id="path36"
     inkscape:connector-curvature="0"
     style="fill-opacity:0;stroke:#ff0000;stroke-width:0.001in" />
  <circle
     fill="transparent"
     cx="73.895691"
     cy="220.75272"
     r="2.4189999"
     id="circle38"
     style="fill-opacity:0;stroke:#ff0000;stroke-width:0.001in" />
  <path
     fill="transparent"
     d="m 103.42549,435.43464 35.662,35.661 a 82.305,82.305 0 0 0 46.46,-66.781 l 0.184,0 0,-3.667 3.4,0 0,-3.667 -3.4,0 0,-3.666 10,0 0,5.5 a 92.3055,92.3055 0 0 1 -184.611,0 l 0,-5.5 10,0 0,3.666 -3.4,0 0,3.667 3.4,0 0,3.667 a 82.305,82.305 0 0 0 46.644,66.781 z"
     id="path40"
     inkscape:connector-curvature="0"
     style="fill-opacity:0;stroke:#ff0000;stroke-width:0.001in" />
  <rect
     fill="transparent"
     x="113.08549"
     y="455.29465"
     width="3.3989999"
     height="20"
     id="rect42"
     style="fill-opacity:0;stroke:#ff0000;stroke-width:0.001in" />
  <rect
     fill="transparent"
     x="90.365494"
     y="455.29465"
     width="3.3989999"
     height="20"
     id="rect44"
     style="fill-opacity:0;stroke:#ff0000;stroke-width:0.001in" />
  <path
     fill="transparent"
     d="m 108.63111,368.63154 0,6.8 19.32,0 0,-6.8 3.4,0 0,-20 -3.4,0 0,-3.4 -19.32,0 0,3.4 -3.4,0 0,20 z"
     id="path46"
     inkscape:connector-curvature="0"
     style="fill-opacity:0;stroke:#ff0000;stroke-width:0.001in" />
  <path
     fill="transparent"
     d="m 142.51225,366.80505 0,6.8 19.32,0 0,-6.8 3.4,0 0,-20 -3.4,0 0,-3.4 -19.32,0 0,3.4 -3.4,0 0,20 z"
     id="path48"
     inkscape:connector-curvature="0"
     style="fill-opacity:0;stroke:#ff0000;stroke-width:0.001in" />
  <path
     fill="transparent"
     d="m 68.631114,368.63154 0,3.666 19.32,0 0,-3.666 3.4,0 0,-3.667 -3.4,0 0,-3.667 -19.32,0 0,3.667 -3.4,0 0,3.667 z"
     id="path50"
     inkscape:connector-curvature="0"
     style="fill-opacity:0;stroke:#ff0000;stroke-width:0.001in" />
  <path
     fill="transparent"
     d="m 145.06921,334.38485 0,3.666 19.32,0 0,-3.666 3.4,0 0,-3.667 -3.4,0 0,-3.667 -19.32,0 0,3.667 -3.4,0 0,3.667 z"
     id="path52"
     inkscape:connector-curvature="0"
     style="fill-opacity:0;stroke:#ff0000;stroke-width:0.001in" />
  <circle
     fill="transparent"
     cx="154.7292"
     cy="332.55087"
     r="2.4189999"
     id="circle54"
     style="fill-opacity:0;stroke:#ff0000;stroke-width:0.001in" />
  <path
     fill="transparent"
     d="m 101.14238,509.31563 -44.692003,44.693 a 67.805,67.805 0 0 1 -23.113,-44.693 l 0,-14.819 8.134,0 0,3.399 8.133,0 0,-3.399 8.133,0 0,8.899 a 43.405,43.405 0 0 0 8.814,26.22 l 30.405,-30.406 a 5.919,5.919 0 0 1 8.373003,0 l 30.405,30.406 a 43.405,43.405 0 0 0 8.813,-26.22 l 0,-8.899 8.134,0 0,3.399 8.133,0 0,-3.399 8.134,0 0,14.819 a 67.805,67.805 0 0 1 -23.113,44.693 z"
     id="path56"
     inkscape:connector-curvature="0"
     style="fill-opacity:0;stroke:#ff0000;stroke-width:0.001in" />
  <circle
     fill="transparent"
     cx="101.14236"
     cy="503.39563"
     r="2.4189999"
     id="circle58"
     style="fill-opacity:0;stroke:#ff0000;stroke-width:0.001in" />
  <path
     fill="transparent"
     d="m 142.13538,546.79263 2.404,-2.404 -5.751,-5.751 -2.404,2.404 z"
     id="path60"
     inkscape:connector-curvature="0"
     style="fill-opacity:0;stroke:#ff0000;stroke-width:0.001in" />
  <path
     fill="transparent"
     d="m 60.150377,546.79263 -2.404,-2.404 5.751,-5.751 2.404,2.404 z"
     id="path62"
     inkscape:connector-curvature="0"
     style="fill-opacity:0;stroke:#ff0000;stroke-width:0.001in" />
  <path
     fill="transparent"
     d="m 101.14238,545.93563 35.662,35.662 a 82.305,82.305 0 0 0 46.46,-66.782 l 0.184,0 0,-3.666 3.4,0 0,-3.667 -3.4,0 0,-3.667 10,0 0,5.5 a 92.305501,92.305501 0 0 1 -184.6110028,0 l 0,-5.5 9.9999998,0 0,3.667 -3.4,0 0,3.667 3.4,0 0,3.666 a 82.305,82.305 0 0 0 46.644,66.782 z"
     id="path64"
     inkscape:connector-curvature="0"
     style="fill-opacity:0;stroke:#ff0000;stroke-width:0.001in" />
  <rect
     fill="transparent"
     x="110.80238"
     y="565.79559"
     width="3.3989999"
     height="20"
     id="rect66"
     style="fill-opacity:0;stroke:#ff0000;stroke-width:0.001in" />
  <rect
     fill="transparent"
     x="88.082375"
     y="565.79559"
     width="3.3989999"
     height="20"
     id="rect68"
     style="fill-opacity:0;stroke:#ff0000;stroke-width:0.001in" />
</svg>
