G04 #@! TF.FileFunction,Copper,L1,Top,Signal*
%FSLAX46Y46*%
G04 Gerber Fmt 4.6, Leading zero omitted, Abs format (unit mm)*
G04 Created by KiCad (PCBNEW (2015-07-31 BZR 6030)-product) date Sat Sep 12 09:45:30 2015*
%MOMM*%
G01*
G04 APERTURE LIST*
%ADD10C,0.100000*%
%ADD11C,4.000000*%
%ADD12R,1.000000X1.250000*%
%ADD13R,0.750000X0.800000*%
%ADD14R,1.250000X1.000000*%
%ADD15R,0.400000X1.350000*%
%ADD16O,1.250000X0.950000*%
%ADD17O,1.000000X1.550000*%
%ADD18R,0.900000X0.500000*%
%ADD19R,2.032000X1.727200*%
%ADD20O,2.032000X1.727200*%
%ADD21R,0.900000X1.700000*%
%ADD22R,1.300000X0.700000*%
%ADD23R,0.700000X0.250000*%
%ADD24R,0.830000X1.190000*%
%ADD25R,1.397000X1.397000*%
%ADD26C,1.397000*%
%ADD27R,0.620000X1.220000*%
%ADD28R,0.660400X0.406400*%
%ADD29C,0.700000*%
%ADD30C,0.635000*%
%ADD31C,0.250000*%
%ADD32C,0.254000*%
G04 APERTURE END LIST*
D10*
D11*
X169077600Y-118454000D03*
X175427600Y-89244000D03*
X131028400Y-88786800D03*
D12*
X136835600Y-102096400D03*
X138835600Y-102096400D03*
D13*
X151805600Y-114046400D03*
X151805600Y-115546400D03*
X156885600Y-114046400D03*
X156885600Y-115546400D03*
X158155600Y-107926400D03*
X158155600Y-106426400D03*
D14*
X141645600Y-109446400D03*
X141645600Y-107446400D03*
D13*
X158155600Y-104116400D03*
X158155600Y-102616400D03*
D14*
X132755600Y-109446400D03*
X132755600Y-107446400D03*
D15*
X146725600Y-118606400D03*
X147375600Y-118606400D03*
X148025600Y-118606400D03*
X148675600Y-118606400D03*
X149325600Y-118606400D03*
D16*
X145525600Y-118606400D03*
X150525600Y-118606400D03*
D17*
X144525600Y-121306400D03*
X151525600Y-121306400D03*
D18*
X144185600Y-112776400D03*
X144185600Y-114276400D03*
D19*
X175300600Y-106389000D03*
D20*
X175300600Y-108929000D03*
X175300600Y-111469000D03*
X175300600Y-114009000D03*
D21*
X155795600Y-109716400D03*
X152895600Y-109716400D03*
X150715600Y-109716400D03*
X147815600Y-109716400D03*
D22*
X158155600Y-111936400D03*
X158155600Y-110036400D03*
D23*
X153205600Y-104491400D03*
X153205600Y-104041400D03*
X153205600Y-103591400D03*
X153205600Y-103141400D03*
X153205600Y-102691400D03*
X153205600Y-102241400D03*
X150405600Y-102241400D03*
X150405600Y-102691400D03*
X150405600Y-103141400D03*
X150405600Y-103591400D03*
X150405600Y-104041400D03*
X150405600Y-104491400D03*
D24*
X151390600Y-102771400D03*
X151390600Y-103961400D03*
X152220600Y-102771400D03*
X152220600Y-103961400D03*
D25*
X142255200Y-98083200D03*
D26*
X144795200Y-98083200D03*
X147335200Y-98083200D03*
X149875200Y-98083200D03*
X152415200Y-98083200D03*
X154955200Y-98083200D03*
X157495200Y-98083200D03*
X160035200Y-98083200D03*
X162575200Y-98083200D03*
X165115200Y-98083200D03*
X165115200Y-90463200D03*
X162575200Y-90463200D03*
X160035200Y-90463200D03*
X157495200Y-90463200D03*
X154955200Y-90463200D03*
X152415200Y-90463200D03*
X149875200Y-90463200D03*
X147335200Y-90463200D03*
X144795200Y-90463200D03*
X142255200Y-90463200D03*
D27*
X136885600Y-109756400D03*
X138785600Y-109756400D03*
X136885600Y-107136400D03*
X138785600Y-107136400D03*
X137835600Y-107136400D03*
D28*
X170474600Y-104458600D03*
X170474600Y-105779400D03*
X170474600Y-105119000D03*
X172506600Y-105779400D03*
X172506600Y-104458600D03*
X165394600Y-108268600D03*
X165394600Y-109589400D03*
X165394600Y-108929000D03*
X167426600Y-109589400D03*
X167426600Y-108268600D03*
D11*
X131739600Y-119876400D03*
D29*
X156846800Y-104126600D03*
X168950600Y-108292200D03*
X172760600Y-103849000D03*
X145455600Y-110986400D03*
X159425600Y-113526400D03*
X131485600Y-107176400D03*
X151805600Y-103366400D03*
X159425600Y-105906400D03*
X141645600Y-104636400D03*
X137835600Y-105906400D03*
X167680600Y-106389000D03*
X163870600Y-110199000D03*
X140375600Y-114500718D03*
X140375600Y-105906400D03*
X155615600Y-107176400D03*
X150535600Y-105906400D03*
X155615600Y-104636400D03*
X147995600Y-103366400D03*
X149316400Y-100521600D03*
X148198800Y-104585600D03*
D30*
X156857000Y-104116400D02*
X156897600Y-104116400D01*
X156846800Y-104126600D02*
X156857000Y-104116400D01*
D31*
X167426600Y-108268600D02*
X168927000Y-108268600D01*
X168927000Y-108268600D02*
X168950600Y-108292200D01*
X158155600Y-104116400D02*
X156897600Y-104116400D01*
X156897600Y-104116400D02*
X156365600Y-104116400D01*
X155390600Y-103141400D02*
X155615600Y-103366400D01*
X153205600Y-103141400D02*
X155390600Y-103141400D01*
X156365600Y-104116400D02*
X155615600Y-103366400D01*
X172506600Y-104458600D02*
X172506600Y-104103000D01*
X172506600Y-104103000D02*
X172760600Y-103849000D01*
X144185600Y-112776400D02*
X144185600Y-112256400D01*
X144185600Y-112256400D02*
X145455600Y-110986400D01*
X159425600Y-113526400D02*
X158155600Y-112256400D01*
X158155600Y-112256400D02*
X158155600Y-111936400D01*
X157835600Y-112256400D02*
X158155600Y-111936400D01*
X132755600Y-107446400D02*
X131755600Y-107446400D01*
X131755600Y-107446400D02*
X131485600Y-107176400D01*
D30*
X151805600Y-103366400D02*
X152220600Y-102951400D01*
X152220600Y-102951400D02*
X152220600Y-102771400D01*
X158155600Y-106426400D02*
X158905600Y-106426400D01*
X158905600Y-106426400D02*
X159425600Y-105906400D01*
D31*
X138835600Y-102096400D02*
X138835600Y-104906400D01*
X137835600Y-105906400D02*
X137835600Y-107136400D01*
X138835600Y-104906400D02*
X137835600Y-105906400D01*
X170474600Y-105779400D02*
X168290200Y-105779400D01*
X168290200Y-105779400D02*
X167680600Y-106389000D01*
X165394600Y-109589400D02*
X164480200Y-109589400D01*
X164480200Y-109589400D02*
X163870600Y-110199000D01*
X153205600Y-102691400D02*
X152300600Y-102691400D01*
X152300600Y-102691400D02*
X152220600Y-102771400D01*
X150405600Y-104041400D02*
X151310600Y-104041400D01*
X151310600Y-104041400D02*
X151390600Y-103961400D01*
X153205600Y-102691400D02*
X158080600Y-102691400D01*
X158080600Y-102691400D02*
X158155600Y-102616400D01*
D30*
X141645600Y-107446400D02*
X141645600Y-104636400D01*
X141645600Y-104636400D02*
X141645600Y-104906400D01*
X141645600Y-104906400D02*
X139105600Y-102366400D01*
D31*
X151805600Y-115546400D02*
X156885600Y-115546400D01*
X138835600Y-102096400D02*
X139105600Y-102096400D01*
X139105600Y-102096400D02*
X138835600Y-102096400D01*
X137835600Y-107136400D02*
X137835600Y-107176400D01*
X137835600Y-107176400D02*
X137835600Y-107136400D01*
X133025600Y-107446400D02*
X132755600Y-107446400D01*
X151805600Y-115546400D02*
X151055600Y-115546400D01*
X149325600Y-117276400D02*
X149325600Y-118606400D01*
X151055600Y-115546400D02*
X149325600Y-117276400D01*
X149325600Y-118606400D02*
X150525600Y-118606400D01*
X139105600Y-102366400D02*
X138835600Y-102096400D01*
X138835600Y-102096400D02*
X138835600Y-102366400D01*
X138835600Y-102366400D02*
X139105600Y-102096400D01*
D30*
X135295600Y-105906400D02*
X136835600Y-104366400D01*
X136835600Y-104366400D02*
X136835600Y-102096400D01*
D31*
X146725600Y-118606400D02*
X146725600Y-117336400D01*
D30*
X144935600Y-114276400D02*
X146725600Y-116066400D01*
X146725600Y-116066400D02*
X146725600Y-117336400D01*
X144935600Y-114276400D02*
X144185600Y-114276400D01*
X138785600Y-107136400D02*
X139145600Y-107136400D01*
X140375600Y-105906400D02*
X139145600Y-107136400D01*
X136885600Y-107136400D02*
X136525600Y-107136400D01*
X131189918Y-114500718D02*
X140375600Y-114500718D01*
X140375600Y-114500718D02*
X143961282Y-114500718D01*
X128945600Y-112256400D02*
X131189918Y-114500718D01*
X128945600Y-107176400D02*
X128945600Y-112256400D01*
X130215600Y-105906400D02*
X128945600Y-107176400D01*
X135295600Y-105906400D02*
X130215600Y-105906400D01*
X136525600Y-107136400D02*
X135295600Y-105906400D01*
X143961282Y-114500718D02*
X144185600Y-114276400D01*
D31*
X136885600Y-102146400D02*
X136835600Y-102096400D01*
X136835600Y-102096400D02*
X136565600Y-102366400D01*
X153205600Y-104491400D02*
X154345600Y-105631400D01*
X154345600Y-111506400D02*
X154345600Y-105906400D01*
X154345600Y-111506400D02*
X151805600Y-114046400D01*
X154345600Y-105631400D02*
X154345600Y-105906400D01*
X150715600Y-109716400D02*
X150715600Y-112956400D01*
X150715600Y-112956400D02*
X151805600Y-114046400D01*
X153205600Y-104041400D02*
X153750600Y-104041400D01*
X157635600Y-107926400D02*
X158155600Y-107926400D01*
X153750600Y-104041400D02*
X157635600Y-107926400D01*
X158155600Y-110036400D02*
X158155600Y-107926400D01*
D30*
X141645600Y-109446400D02*
X143490400Y-109446400D01*
X143490400Y-99318400D02*
X142255200Y-98083200D01*
X143490400Y-109446400D02*
X143490400Y-99318400D01*
X132755600Y-109446400D02*
X132755600Y-110986400D01*
X138913102Y-112063902D02*
X138913102Y-109756400D01*
X139105600Y-112256400D02*
X138913102Y-112063902D01*
X134025600Y-112256400D02*
X139105600Y-112256400D01*
X132755600Y-110986400D02*
X134025600Y-112256400D01*
X138913102Y-109756400D02*
X138785600Y-109756400D01*
X138785600Y-109756400D02*
X141335600Y-109756400D01*
X141335600Y-109756400D02*
X141645600Y-109446400D01*
X141645600Y-109446400D02*
X141915600Y-109716400D01*
D31*
X147375600Y-118606400D02*
X147375600Y-112876400D01*
X147815600Y-112436400D02*
X147815600Y-109716400D01*
X147375600Y-112876400D02*
X147815600Y-112436400D01*
X147815600Y-109716400D02*
X147995600Y-109716400D01*
X147995600Y-109716400D02*
X147815600Y-109716400D01*
X148025600Y-118606400D02*
X148025600Y-113496400D01*
X152895600Y-108266400D02*
X152895600Y-109716400D01*
X151805600Y-107176400D02*
X152895600Y-108266400D01*
X149265600Y-107176400D02*
X151805600Y-107176400D01*
X149265600Y-112256400D02*
X149265600Y-107176400D01*
X148025600Y-113496400D02*
X149265600Y-112256400D01*
X152895600Y-109716400D02*
X153075600Y-109716400D01*
X153075600Y-109716400D02*
X152895600Y-109716400D01*
X167426600Y-109589400D02*
X174640200Y-109589400D01*
X174640200Y-109589400D02*
X175300600Y-108929000D01*
X162575200Y-98083200D02*
X162575200Y-107887600D01*
X163616600Y-108929000D02*
X165394600Y-108929000D01*
X162575200Y-107887600D02*
X163616600Y-108929000D01*
X150405600Y-104491400D02*
X150405600Y-105776400D01*
X155795600Y-107356400D02*
X155795600Y-109716400D01*
X155615600Y-107176400D02*
X155795600Y-107356400D01*
X150405600Y-105776400D02*
X150535600Y-105906400D01*
X155795600Y-112956400D02*
X155795600Y-109716400D01*
X156885600Y-114046400D02*
X155795600Y-112956400D01*
X172506600Y-105779400D02*
X174691000Y-105779400D01*
X174691000Y-105779400D02*
X175300600Y-106389000D01*
X154570600Y-103591400D02*
X153205600Y-103591400D01*
X155615600Y-104636400D02*
X154570600Y-103591400D01*
X148220600Y-103141400D02*
X147995600Y-103366400D01*
X150405600Y-103141400D02*
X148220600Y-103141400D01*
X150405600Y-102241400D02*
X147988200Y-102241400D01*
X147335200Y-101588400D02*
X147335200Y-98083200D01*
X147988200Y-102241400D02*
X147335200Y-101588400D01*
X150405600Y-103591400D02*
X149193000Y-103591400D01*
X149875200Y-99962800D02*
X149875200Y-98083200D01*
X149316400Y-100521600D02*
X149875200Y-99962800D01*
X149193000Y-103591400D02*
X148198800Y-104585600D01*
X162575200Y-90463200D02*
X162575200Y-89345600D01*
X169255400Y-105119000D02*
X170474600Y-105119000D01*
X168925200Y-104788800D02*
X169255400Y-105119000D01*
X168925200Y-87669200D02*
X168925200Y-104788800D01*
X168264800Y-87008800D02*
X168925200Y-87669200D01*
X164912000Y-87008800D02*
X168264800Y-87008800D01*
X162575200Y-89345600D02*
X164912000Y-87008800D01*
D32*
G36*
X127853226Y-86119294D02*
X178398698Y-85917112D01*
X178196896Y-122645000D01*
X175115855Y-122645000D01*
X175115855Y-115507600D01*
X175485345Y-115507600D01*
X176058834Y-115393526D01*
X176545015Y-115068670D01*
X176869871Y-114582489D01*
X176983945Y-114009000D01*
X176869871Y-113435511D01*
X176545015Y-112949330D01*
X176230234Y-112739000D01*
X176545015Y-112528670D01*
X176869871Y-112042489D01*
X176983945Y-111469000D01*
X176869871Y-110895511D01*
X176545015Y-110409330D01*
X176230234Y-110199000D01*
X176545015Y-109988670D01*
X176869871Y-109502489D01*
X176983945Y-108929000D01*
X176869871Y-108355511D01*
X176545015Y-107869330D01*
X176530687Y-107859757D01*
X176551917Y-107855762D01*
X176768041Y-107716690D01*
X176913031Y-107504490D01*
X176964040Y-107252600D01*
X176964040Y-105525400D01*
X176919762Y-105290083D01*
X176780690Y-105073959D01*
X176568490Y-104928969D01*
X176316600Y-104877960D01*
X175949434Y-104877960D01*
X175949434Y-91879457D01*
X176918258Y-91479147D01*
X177660142Y-90738557D01*
X178062142Y-89770433D01*
X178063057Y-88722166D01*
X177662747Y-87753342D01*
X176922157Y-87011458D01*
X175954033Y-86609458D01*
X174905766Y-86608543D01*
X173936942Y-87008853D01*
X173195058Y-87749443D01*
X172793058Y-88717567D01*
X172792143Y-89765834D01*
X173192453Y-90734658D01*
X173933043Y-91476542D01*
X174901167Y-91878542D01*
X175949434Y-91879457D01*
X175949434Y-104877960D01*
X174284600Y-104877960D01*
X174049283Y-104922238D01*
X173898289Y-105019400D01*
X173361002Y-105019400D01*
X173433231Y-104913690D01*
X173484240Y-104661800D01*
X173484240Y-104518408D01*
X173595155Y-104407686D01*
X173745428Y-104045788D01*
X173745770Y-103653931D01*
X173596129Y-103291771D01*
X173319286Y-103014445D01*
X172957388Y-102864172D01*
X172565531Y-102863830D01*
X172203371Y-103013471D01*
X171926045Y-103290314D01*
X171775772Y-103652212D01*
X171775679Y-103758673D01*
X171724959Y-103791310D01*
X171579969Y-104003510D01*
X171528960Y-104255400D01*
X171528960Y-104661800D01*
X171573238Y-104897117D01*
X171712310Y-105113241D01*
X171720406Y-105118773D01*
X171579969Y-105324310D01*
X171528960Y-105576200D01*
X171528960Y-105982600D01*
X171573238Y-106217917D01*
X171712310Y-106434041D01*
X171924510Y-106579031D01*
X172176400Y-106630040D01*
X172836800Y-106630040D01*
X173072117Y-106585762D01*
X173144166Y-106539400D01*
X173637160Y-106539400D01*
X173637160Y-107252600D01*
X173681438Y-107487917D01*
X173820510Y-107704041D01*
X174032710Y-107849031D01*
X174074039Y-107857400D01*
X174056185Y-107869330D01*
X173731329Y-108355511D01*
X173637067Y-108829400D01*
X170018090Y-108829400D01*
X170018090Y-106617600D01*
X170188850Y-106617600D01*
X170347600Y-106458850D01*
X170347600Y-105969640D01*
X170601600Y-105969640D01*
X170601600Y-106458850D01*
X170760350Y-106617600D01*
X170931110Y-106617600D01*
X171164499Y-106520927D01*
X171343127Y-106342298D01*
X171439800Y-106108909D01*
X171439800Y-106039750D01*
X171281050Y-105881000D01*
X171109057Y-105881000D01*
X171256241Y-105786290D01*
X171401231Y-105574090D01*
X171405413Y-105553437D01*
X171439800Y-105519050D01*
X171439800Y-105449891D01*
X171430788Y-105428134D01*
X171452240Y-105322200D01*
X171452240Y-104915800D01*
X171427466Y-104784138D01*
X171452240Y-104661800D01*
X171452240Y-104255400D01*
X171407962Y-104020083D01*
X171268890Y-103803959D01*
X171056690Y-103658969D01*
X170804800Y-103607960D01*
X170144400Y-103607960D01*
X169909083Y-103652238D01*
X169692959Y-103791310D01*
X169685200Y-103802666D01*
X169685200Y-87669200D01*
X169627348Y-87378361D01*
X169462601Y-87131799D01*
X168802201Y-86471399D01*
X168555639Y-86306652D01*
X168264800Y-86248800D01*
X164912000Y-86248800D01*
X164621161Y-86306652D01*
X164621160Y-86306652D01*
X164374599Y-86471399D01*
X162037799Y-88808199D01*
X161873052Y-89054761D01*
X161817170Y-89335698D01*
X161445373Y-89706847D01*
X161305106Y-90044646D01*
X161166346Y-89708820D01*
X160791553Y-89333373D01*
X160301613Y-89129932D01*
X159771114Y-89129469D01*
X159280820Y-89332054D01*
X158905373Y-89706847D01*
X158765106Y-90044646D01*
X158626346Y-89708820D01*
X158251553Y-89333373D01*
X157761613Y-89129932D01*
X157231114Y-89129469D01*
X156740820Y-89332054D01*
X156365373Y-89706847D01*
X156225106Y-90044646D01*
X156086346Y-89708820D01*
X155711553Y-89333373D01*
X155221613Y-89129932D01*
X154691114Y-89129469D01*
X154200820Y-89332054D01*
X153825373Y-89706847D01*
X153685106Y-90044646D01*
X153546346Y-89708820D01*
X153171553Y-89333373D01*
X152681613Y-89129932D01*
X152151114Y-89129469D01*
X151660820Y-89332054D01*
X151285373Y-89706847D01*
X151145106Y-90044646D01*
X151006346Y-89708820D01*
X150631553Y-89333373D01*
X150141613Y-89129932D01*
X149611114Y-89129469D01*
X149120820Y-89332054D01*
X148745373Y-89706847D01*
X148605106Y-90044646D01*
X148466346Y-89708820D01*
X148091553Y-89333373D01*
X147601613Y-89129932D01*
X147071114Y-89129469D01*
X146580820Y-89332054D01*
X146205373Y-89706847D01*
X146065106Y-90044646D01*
X145926346Y-89708820D01*
X145551553Y-89333373D01*
X145061613Y-89129932D01*
X144531114Y-89129469D01*
X144040820Y-89332054D01*
X143665373Y-89706847D01*
X143531886Y-90028318D01*
X143425000Y-89770271D01*
X143189388Y-89708617D01*
X142434805Y-90463200D01*
X143189388Y-91217783D01*
X143425000Y-91156129D01*
X143523283Y-90876888D01*
X143664054Y-91217580D01*
X144038847Y-91593027D01*
X144528787Y-91796468D01*
X145059286Y-91796931D01*
X145549580Y-91594346D01*
X145925027Y-91219553D01*
X146065294Y-90881754D01*
X146204054Y-91217580D01*
X146578847Y-91593027D01*
X147068787Y-91796468D01*
X147599286Y-91796931D01*
X148089580Y-91594346D01*
X148465027Y-91219553D01*
X148605294Y-90881754D01*
X148744054Y-91217580D01*
X149118847Y-91593027D01*
X149608787Y-91796468D01*
X150139286Y-91796931D01*
X150629580Y-91594346D01*
X151005027Y-91219553D01*
X151145294Y-90881754D01*
X151284054Y-91217580D01*
X151658847Y-91593027D01*
X152148787Y-91796468D01*
X152679286Y-91796931D01*
X153169580Y-91594346D01*
X153545027Y-91219553D01*
X153685294Y-90881754D01*
X153824054Y-91217580D01*
X154198847Y-91593027D01*
X154688787Y-91796468D01*
X155219286Y-91796931D01*
X155709580Y-91594346D01*
X156085027Y-91219553D01*
X156225294Y-90881754D01*
X156364054Y-91217580D01*
X156738847Y-91593027D01*
X157228787Y-91796468D01*
X157759286Y-91796931D01*
X158249580Y-91594346D01*
X158625027Y-91219553D01*
X158765294Y-90881754D01*
X158904054Y-91217580D01*
X159278847Y-91593027D01*
X159768787Y-91796468D01*
X160299286Y-91796931D01*
X160789580Y-91594346D01*
X161165027Y-91219553D01*
X161305294Y-90881754D01*
X161444054Y-91217580D01*
X161818847Y-91593027D01*
X162308787Y-91796468D01*
X162839286Y-91796931D01*
X163329580Y-91594346D01*
X163705027Y-91219553D01*
X163845294Y-90881754D01*
X163984054Y-91217580D01*
X164358847Y-91593027D01*
X164848787Y-91796468D01*
X165379286Y-91796931D01*
X165869580Y-91594346D01*
X166245027Y-91219553D01*
X166448468Y-90729613D01*
X166448931Y-90199114D01*
X166246346Y-89708820D01*
X165871553Y-89333373D01*
X165381613Y-89129932D01*
X164851114Y-89129469D01*
X164360820Y-89332054D01*
X163985373Y-89706847D01*
X163845106Y-90044646D01*
X163706346Y-89708820D01*
X163496747Y-89498855D01*
X165226802Y-87768800D01*
X167949998Y-87768800D01*
X168165200Y-87984002D01*
X168165200Y-104788800D01*
X168223052Y-105079640D01*
X168387799Y-105326201D01*
X168717999Y-105656401D01*
X168964561Y-105821148D01*
X169255400Y-105879000D01*
X169509400Y-105879000D01*
X169509400Y-105906402D01*
X169642748Y-105906402D01*
X169509400Y-106039750D01*
X169509400Y-106108909D01*
X169606073Y-106342298D01*
X169784701Y-106520927D01*
X170018090Y-106617600D01*
X170018090Y-108829400D01*
X169794077Y-108829400D01*
X169935428Y-108488988D01*
X169935770Y-108097131D01*
X169786129Y-107734971D01*
X169509286Y-107457645D01*
X169147388Y-107307372D01*
X168755531Y-107307030D01*
X168393371Y-107456671D01*
X168341351Y-107508600D01*
X168066692Y-107508600D01*
X168008690Y-107468969D01*
X167756800Y-107417960D01*
X167096400Y-107417960D01*
X166861083Y-107462238D01*
X166644959Y-107601310D01*
X166499969Y-107813510D01*
X166448960Y-108065400D01*
X166448960Y-108471800D01*
X166493238Y-108707117D01*
X166632310Y-108923241D01*
X166640406Y-108928773D01*
X166499969Y-109134310D01*
X166448960Y-109386200D01*
X166448960Y-109792600D01*
X166493238Y-110027917D01*
X166632310Y-110244041D01*
X166844510Y-110389031D01*
X167096400Y-110440040D01*
X167756800Y-110440040D01*
X167992117Y-110395762D01*
X168064166Y-110349400D01*
X174145877Y-110349400D01*
X174056185Y-110409330D01*
X173731329Y-110895511D01*
X173617255Y-111469000D01*
X173731329Y-112042489D01*
X174056185Y-112528670D01*
X174370966Y-112739000D01*
X174056185Y-112949330D01*
X173731329Y-113435511D01*
X173617255Y-114009000D01*
X173731329Y-114582489D01*
X174056185Y-115068670D01*
X174542366Y-115393526D01*
X175115855Y-115507600D01*
X175115855Y-122645000D01*
X169599434Y-122645000D01*
X169599434Y-121089457D01*
X170568258Y-120689147D01*
X171310142Y-119948557D01*
X171712142Y-118980433D01*
X171713057Y-117932166D01*
X171312747Y-116963342D01*
X170572157Y-116221458D01*
X169604033Y-115819458D01*
X168555766Y-115818543D01*
X167586942Y-116218853D01*
X166845058Y-116959443D01*
X166443058Y-117927567D01*
X166442143Y-118975834D01*
X166842453Y-119944658D01*
X167583043Y-120686542D01*
X168551167Y-121088542D01*
X169599434Y-121089457D01*
X169599434Y-122645000D01*
X157171350Y-122645000D01*
X157171350Y-116581400D01*
X157386910Y-116581400D01*
X157620299Y-116484727D01*
X157798927Y-116306098D01*
X157895600Y-116072709D01*
X157895600Y-115832150D01*
X157736850Y-115673400D01*
X157012600Y-115673400D01*
X157012600Y-116422650D01*
X157171350Y-116581400D01*
X157171350Y-122645000D01*
X156384290Y-122645000D01*
X156384290Y-116581400D01*
X156599850Y-116581400D01*
X156758600Y-116422650D01*
X156758600Y-115673400D01*
X156034350Y-115673400D01*
X155875600Y-115832150D01*
X155875600Y-116072709D01*
X155972273Y-116306098D01*
X156150901Y-116484727D01*
X156384290Y-116581400D01*
X156384290Y-122645000D01*
X151889629Y-122645000D01*
X152238363Y-122473768D01*
X152525602Y-122133078D01*
X152660600Y-121708400D01*
X152660600Y-121433400D01*
X151652600Y-121433400D01*
X151652600Y-121179400D01*
X152660600Y-121179400D01*
X152660600Y-120904400D01*
X152525602Y-120479722D01*
X152238363Y-120139032D01*
X152091350Y-120066848D01*
X152091350Y-116581400D01*
X152306910Y-116581400D01*
X152540299Y-116484727D01*
X152718927Y-116306098D01*
X152815600Y-116072709D01*
X152815600Y-115832150D01*
X152656850Y-115673400D01*
X151932600Y-115673400D01*
X151932600Y-116422650D01*
X152091350Y-116581400D01*
X152091350Y-120066848D01*
X151827474Y-119937281D01*
X151652600Y-120063446D01*
X151652600Y-121179400D01*
X151652600Y-121433400D01*
X151652600Y-121453400D01*
X151398600Y-121453400D01*
X151398600Y-121433400D01*
X150390600Y-121433400D01*
X150390600Y-121179400D01*
X151398600Y-121179400D01*
X151398600Y-120063446D01*
X151223726Y-119937281D01*
X150826731Y-120132209D01*
X150826731Y-119707629D01*
X151236649Y-119565968D01*
X151561152Y-119278221D01*
X151744868Y-118904338D01*
X151618334Y-118733400D01*
X150652600Y-118733400D01*
X150652600Y-118479400D01*
X151618334Y-118479400D01*
X151744868Y-118308462D01*
X151561152Y-117934579D01*
X151304290Y-117706812D01*
X151304290Y-116581400D01*
X151519850Y-116581400D01*
X151678600Y-116422650D01*
X151678600Y-115673400D01*
X150954350Y-115673400D01*
X150795600Y-115832150D01*
X150795600Y-116072709D01*
X150892273Y-116306098D01*
X151070901Y-116484727D01*
X151304290Y-116581400D01*
X151304290Y-117706812D01*
X151236649Y-117646832D01*
X150826731Y-117505171D01*
X150652600Y-117653837D01*
X150652600Y-118479400D01*
X150652600Y-118733400D01*
X150652600Y-119558963D01*
X150826731Y-119707629D01*
X150826731Y-120132209D01*
X150812837Y-120139032D01*
X150525598Y-120479722D01*
X150390600Y-120904400D01*
X150390600Y-121179400D01*
X150390600Y-121433400D01*
X150390600Y-121708400D01*
X150525598Y-122133078D01*
X150812837Y-122473768D01*
X151161571Y-122645000D01*
X146525600Y-122645000D01*
X146525600Y-119928840D01*
X146925600Y-119928840D01*
X147055189Y-119904456D01*
X147175600Y-119928840D01*
X147575600Y-119928840D01*
X147705189Y-119904456D01*
X147825600Y-119928840D01*
X148225600Y-119928840D01*
X148355189Y-119904456D01*
X148475600Y-119928840D01*
X148875600Y-119928840D01*
X148981305Y-119908950D01*
X148999290Y-119916400D01*
X149066850Y-119916400D01*
X149095854Y-119887396D01*
X149110917Y-119884562D01*
X149327041Y-119745490D01*
X149425600Y-119601244D01*
X149425600Y-119757650D01*
X149584350Y-119916400D01*
X149651910Y-119916400D01*
X149885299Y-119819727D01*
X150055715Y-119649310D01*
X150224469Y-119707629D01*
X150398600Y-119558963D01*
X150398600Y-118733400D01*
X150378600Y-118733400D01*
X150378600Y-118479400D01*
X150398600Y-118479400D01*
X150398600Y-117653837D01*
X150224469Y-117505171D01*
X150055715Y-117563490D01*
X149885299Y-117393073D01*
X149651910Y-117296400D01*
X149584350Y-117296400D01*
X149425600Y-117455150D01*
X149425600Y-117613467D01*
X149339690Y-117479959D01*
X149127490Y-117334969D01*
X149099815Y-117329365D01*
X149066850Y-117296400D01*
X148999290Y-117296400D01*
X148978847Y-117304868D01*
X148875600Y-117283960D01*
X148785600Y-117283960D01*
X148785600Y-113811202D01*
X149803001Y-112793801D01*
X149955600Y-112565420D01*
X149955600Y-112956400D01*
X150013452Y-113247239D01*
X150178199Y-113493801D01*
X150783160Y-114098762D01*
X150783160Y-114446400D01*
X150827438Y-114681717D01*
X150893929Y-114785046D01*
X150892273Y-114786702D01*
X150795600Y-115020091D01*
X150795600Y-115260650D01*
X150954350Y-115419400D01*
X151678600Y-115419400D01*
X151678600Y-115399400D01*
X151932600Y-115399400D01*
X151932600Y-115419400D01*
X152656850Y-115419400D01*
X152815600Y-115260650D01*
X152815600Y-115020091D01*
X152718927Y-114786702D01*
X152717557Y-114785332D01*
X152777031Y-114698290D01*
X152828040Y-114446400D01*
X152828040Y-114098762D01*
X154883001Y-112043801D01*
X155035600Y-111815421D01*
X155035600Y-112956400D01*
X155093452Y-113247239D01*
X155258199Y-113493801D01*
X155863160Y-114098762D01*
X155863160Y-114446400D01*
X155907438Y-114681717D01*
X155973929Y-114785046D01*
X155972273Y-114786702D01*
X155875600Y-115020091D01*
X155875600Y-115260650D01*
X156034350Y-115419400D01*
X156758600Y-115419400D01*
X156758600Y-115399400D01*
X157012600Y-115399400D01*
X157012600Y-115419400D01*
X157736850Y-115419400D01*
X157895600Y-115260650D01*
X157895600Y-115020091D01*
X157798927Y-114786702D01*
X157797557Y-114785332D01*
X157857031Y-114698290D01*
X157908040Y-114446400D01*
X157908040Y-113646400D01*
X157863762Y-113411083D01*
X157724690Y-113194959D01*
X157512490Y-113049969D01*
X157260600Y-112998960D01*
X156912962Y-112998960D01*
X156555600Y-112641598D01*
X156555600Y-111121505D01*
X156697041Y-111030490D01*
X156842031Y-110818290D01*
X156892516Y-110568987D01*
X156902438Y-110621717D01*
X157041510Y-110837841D01*
X157253710Y-110982831D01*
X157266797Y-110985481D01*
X157054159Y-111122310D01*
X156909169Y-111334510D01*
X156858160Y-111586400D01*
X156858160Y-112286400D01*
X156902438Y-112521717D01*
X157041510Y-112737841D01*
X157253710Y-112882831D01*
X157505600Y-112933840D01*
X157507783Y-112933840D01*
X157544761Y-112958548D01*
X157835600Y-113016400D01*
X157839936Y-113015538D01*
X158440522Y-113616124D01*
X158440430Y-113721469D01*
X158590071Y-114083629D01*
X158866914Y-114360955D01*
X159228812Y-114511228D01*
X159620669Y-114511570D01*
X159982829Y-114361929D01*
X160260155Y-114085086D01*
X160410428Y-113723188D01*
X160410770Y-113331331D01*
X160261129Y-112969171D01*
X159984286Y-112691845D01*
X159622388Y-112541572D01*
X159515481Y-112541479D01*
X159420599Y-112446597D01*
X159453040Y-112286400D01*
X159453040Y-111586400D01*
X159408762Y-111351083D01*
X159269690Y-111134959D01*
X159057490Y-110989969D01*
X159044403Y-110987319D01*
X159257041Y-110850490D01*
X159402031Y-110638290D01*
X159453040Y-110386400D01*
X159453040Y-109686400D01*
X159408762Y-109451083D01*
X159269690Y-109234959D01*
X159057490Y-109089969D01*
X158915600Y-109061236D01*
X158915600Y-108833244D01*
X158982041Y-108790490D01*
X159127031Y-108578290D01*
X159178040Y-108326400D01*
X159178040Y-107526400D01*
X159133762Y-107291083D01*
X159067271Y-107187754D01*
X159068927Y-107186098D01*
X159165600Y-106952709D01*
X159165600Y-106712150D01*
X159006850Y-106553400D01*
X158282600Y-106553400D01*
X158282600Y-106299400D01*
X159006850Y-106299400D01*
X159165600Y-106140650D01*
X159165600Y-105900091D01*
X159068927Y-105666702D01*
X158890299Y-105488073D01*
X158656910Y-105391400D01*
X158441350Y-105391400D01*
X158282600Y-105550150D01*
X158282600Y-106299400D01*
X158282600Y-106553400D01*
X158282600Y-106573400D01*
X158028600Y-106573400D01*
X158028600Y-106553400D01*
X158008600Y-106553400D01*
X158008600Y-106299400D01*
X158028600Y-106299400D01*
X158028600Y-105550150D01*
X157869850Y-105391400D01*
X157654290Y-105391400D01*
X157420901Y-105488073D01*
X157242273Y-105666702D01*
X157145600Y-105900091D01*
X157145600Y-106140650D01*
X157304348Y-106299398D01*
X157145600Y-106299398D01*
X157145600Y-106361598D01*
X156214416Y-105430414D01*
X156450155Y-105195086D01*
X156509176Y-105052948D01*
X156650012Y-105111428D01*
X157041869Y-105111770D01*
X157344281Y-104986816D01*
X157528710Y-105112831D01*
X157780600Y-105163840D01*
X158530600Y-105163840D01*
X158765917Y-105119562D01*
X158982041Y-104980490D01*
X159127031Y-104768290D01*
X159178040Y-104516400D01*
X159178040Y-103716400D01*
X159133762Y-103481083D01*
X159067271Y-103377754D01*
X159068927Y-103376098D01*
X159165600Y-103142709D01*
X159165600Y-102902150D01*
X159006850Y-102743400D01*
X158282600Y-102743400D01*
X158282600Y-102489400D01*
X159006850Y-102489400D01*
X159165600Y-102330650D01*
X159165600Y-102090091D01*
X159068927Y-101856702D01*
X158890299Y-101678073D01*
X158656910Y-101581400D01*
X158441350Y-101581400D01*
X158282600Y-101740150D01*
X158282600Y-102489400D01*
X158282600Y-102743400D01*
X158282600Y-102763400D01*
X158028600Y-102763400D01*
X158028600Y-102743400D01*
X157304350Y-102743400D01*
X157304350Y-102489400D01*
X158028600Y-102489400D01*
X158028600Y-101740150D01*
X157869850Y-101581400D01*
X157654290Y-101581400D01*
X157420901Y-101678073D01*
X157242273Y-101856702D01*
X157145600Y-102090091D01*
X157145600Y-102330650D01*
X157304350Y-102489400D01*
X157304350Y-102743400D01*
X157145600Y-102902150D01*
X157145600Y-103142709D01*
X157166322Y-103192735D01*
X157043588Y-103141772D01*
X156651731Y-103141430D01*
X156519902Y-103195900D01*
X155928001Y-102603999D01*
X155681439Y-102439252D01*
X155390600Y-102381400D01*
X154200002Y-102381400D01*
X154203040Y-102366400D01*
X154203040Y-102116400D01*
X154158762Y-101881083D01*
X154019690Y-101664959D01*
X153807490Y-101519969D01*
X153555600Y-101468960D01*
X152855600Y-101468960D01*
X152620283Y-101513238D01*
X152576518Y-101541400D01*
X152506350Y-101541400D01*
X152347600Y-101700150D01*
X152347600Y-101735087D01*
X152312980Y-101785754D01*
X152165298Y-101638073D01*
X151936930Y-101543480D01*
X151934850Y-101541400D01*
X151676350Y-101541400D01*
X151674270Y-101543480D01*
X151445902Y-101638073D01*
X151297733Y-101786241D01*
X151263600Y-101733197D01*
X151263600Y-101700150D01*
X151104850Y-101541400D01*
X151038855Y-101541400D01*
X151007490Y-101519969D01*
X150755600Y-101468960D01*
X150055600Y-101468960D01*
X149989487Y-101481400D01*
X149572869Y-101481400D01*
X149873629Y-101357129D01*
X150150955Y-101080286D01*
X150301228Y-100718388D01*
X150301321Y-100611481D01*
X150412601Y-100500201D01*
X150577348Y-100253639D01*
X150635200Y-99962800D01*
X150635200Y-99208736D01*
X151005027Y-98839553D01*
X151145294Y-98501754D01*
X151284054Y-98837580D01*
X151658847Y-99213027D01*
X152148787Y-99416468D01*
X152679286Y-99416931D01*
X153169580Y-99214346D01*
X153545027Y-98839553D01*
X153685294Y-98501754D01*
X153824054Y-98837580D01*
X154198847Y-99213027D01*
X154688787Y-99416468D01*
X155219286Y-99416931D01*
X155709580Y-99214346D01*
X156085027Y-98839553D01*
X156225294Y-98501754D01*
X156364054Y-98837580D01*
X156738847Y-99213027D01*
X157228787Y-99416468D01*
X157759286Y-99416931D01*
X158249580Y-99214346D01*
X158625027Y-98839553D01*
X158765294Y-98501754D01*
X158904054Y-98837580D01*
X159278847Y-99213027D01*
X159768787Y-99416468D01*
X160299286Y-99416931D01*
X160789580Y-99214346D01*
X161165027Y-98839553D01*
X161305294Y-98501754D01*
X161444054Y-98837580D01*
X161815200Y-99209374D01*
X161815200Y-107887600D01*
X161873052Y-108178439D01*
X162037799Y-108425001D01*
X163079199Y-109466401D01*
X163325761Y-109631148D01*
X163616600Y-109689000D01*
X164429400Y-109689000D01*
X164429400Y-109716402D01*
X164562748Y-109716402D01*
X164429400Y-109849750D01*
X164429400Y-109918909D01*
X164526073Y-110152298D01*
X164704701Y-110330927D01*
X164938090Y-110427600D01*
X165108850Y-110427600D01*
X165267600Y-110268850D01*
X165267600Y-109779640D01*
X165521600Y-109779640D01*
X165521600Y-110268850D01*
X165680350Y-110427600D01*
X165851110Y-110427600D01*
X166084499Y-110330927D01*
X166263127Y-110152298D01*
X166359800Y-109918909D01*
X166359800Y-109849750D01*
X166201050Y-109691000D01*
X166029057Y-109691000D01*
X166176241Y-109596290D01*
X166321231Y-109384090D01*
X166325413Y-109363437D01*
X166359800Y-109329050D01*
X166359800Y-109259891D01*
X166350788Y-109238134D01*
X166372240Y-109132200D01*
X166372240Y-108725800D01*
X166347466Y-108594138D01*
X166372240Y-108471800D01*
X166372240Y-108065400D01*
X166327962Y-107830083D01*
X166188890Y-107613959D01*
X165976690Y-107468969D01*
X165724800Y-107417960D01*
X165064400Y-107417960D01*
X164829083Y-107462238D01*
X164612959Y-107601310D01*
X164467969Y-107813510D01*
X164416960Y-108065400D01*
X164416960Y-108169000D01*
X163931402Y-108169000D01*
X163335200Y-107572798D01*
X163335200Y-99208736D01*
X163705027Y-98839553D01*
X163845294Y-98501754D01*
X163984054Y-98837580D01*
X164358847Y-99213027D01*
X164848787Y-99416468D01*
X165379286Y-99416931D01*
X165869580Y-99214346D01*
X166245027Y-98839553D01*
X166448468Y-98349613D01*
X166448931Y-97819114D01*
X166246346Y-97328820D01*
X165871553Y-96953373D01*
X165381613Y-96749932D01*
X164851114Y-96749469D01*
X164360820Y-96952054D01*
X163985373Y-97326847D01*
X163845106Y-97664646D01*
X163706346Y-97328820D01*
X163331553Y-96953373D01*
X162841613Y-96749932D01*
X162311114Y-96749469D01*
X161820820Y-96952054D01*
X161445373Y-97326847D01*
X161305106Y-97664646D01*
X161166346Y-97328820D01*
X160791553Y-96953373D01*
X160301613Y-96749932D01*
X159771114Y-96749469D01*
X159280820Y-96952054D01*
X158905373Y-97326847D01*
X158765106Y-97664646D01*
X158626346Y-97328820D01*
X158251553Y-96953373D01*
X157761613Y-96749932D01*
X157231114Y-96749469D01*
X156740820Y-96952054D01*
X156365373Y-97326847D01*
X156225106Y-97664646D01*
X156086346Y-97328820D01*
X155711553Y-96953373D01*
X155221613Y-96749932D01*
X154691114Y-96749469D01*
X154200820Y-96952054D01*
X153825373Y-97326847D01*
X153685106Y-97664646D01*
X153546346Y-97328820D01*
X153171553Y-96953373D01*
X152681613Y-96749932D01*
X152151114Y-96749469D01*
X151660820Y-96952054D01*
X151285373Y-97326847D01*
X151145106Y-97664646D01*
X151006346Y-97328820D01*
X150631553Y-96953373D01*
X150141613Y-96749932D01*
X149611114Y-96749469D01*
X149120820Y-96952054D01*
X148745373Y-97326847D01*
X148605106Y-97664646D01*
X148466346Y-97328820D01*
X148091553Y-96953373D01*
X147601613Y-96749932D01*
X147071114Y-96749469D01*
X146580820Y-96952054D01*
X146205373Y-97326847D01*
X146065106Y-97664646D01*
X145926346Y-97328820D01*
X145551553Y-96953373D01*
X145061613Y-96749932D01*
X144531114Y-96749469D01*
X144040820Y-96952054D01*
X143665373Y-97326847D01*
X143601140Y-97481537D01*
X143601140Y-97384700D01*
X143556862Y-97149383D01*
X143417790Y-96933259D01*
X143205590Y-96788269D01*
X142953700Y-96737260D01*
X142062680Y-96737260D01*
X142062680Y-91809127D01*
X142592399Y-91780348D01*
X142948129Y-91633000D01*
X143009783Y-91397388D01*
X142255200Y-90642805D01*
X142255200Y-90283595D01*
X143009783Y-89529012D01*
X142948129Y-89293400D01*
X142447720Y-89117273D01*
X141918001Y-89146052D01*
X141562271Y-89293400D01*
X141500617Y-89529012D01*
X142255200Y-90283595D01*
X142255200Y-90642805D01*
X141500617Y-91397388D01*
X141562271Y-91633000D01*
X142062680Y-91809127D01*
X142062680Y-96737260D01*
X141556700Y-96737260D01*
X141321383Y-96781538D01*
X141321012Y-96781776D01*
X141321012Y-91217783D01*
X142075595Y-90463200D01*
X141321012Y-89708617D01*
X141085400Y-89770271D01*
X140909273Y-90270680D01*
X140938052Y-90800399D01*
X141085400Y-91156129D01*
X141321012Y-91217783D01*
X141321012Y-96781776D01*
X141105259Y-96920610D01*
X140960269Y-97132810D01*
X140909260Y-97384700D01*
X140909260Y-98781700D01*
X140953538Y-99017017D01*
X141092610Y-99233141D01*
X141304810Y-99378131D01*
X141556700Y-99429140D01*
X142254102Y-99429140D01*
X142537900Y-99712938D01*
X142537900Y-106369800D01*
X142396910Y-106311400D01*
X141931350Y-106311400D01*
X141772600Y-106470150D01*
X141772600Y-107319400D01*
X141792600Y-107319400D01*
X141792600Y-107573400D01*
X141772600Y-107573400D01*
X141772600Y-107593400D01*
X141518600Y-107593400D01*
X141518600Y-107573400D01*
X140544350Y-107573400D01*
X140385600Y-107732150D01*
X140385600Y-108072709D01*
X140482273Y-108306098D01*
X140623510Y-108447336D01*
X140569159Y-108482310D01*
X140424169Y-108694510D01*
X140402017Y-108803900D01*
X139629792Y-108803900D01*
X139559690Y-108694959D01*
X139347490Y-108549969D01*
X139095600Y-108498960D01*
X138475600Y-108498960D01*
X138240283Y-108543238D01*
X138024159Y-108682310D01*
X137879169Y-108894510D01*
X137835873Y-109108311D01*
X137798762Y-108911083D01*
X137659690Y-108694959D01*
X137447490Y-108549969D01*
X137195600Y-108498960D01*
X136575600Y-108498960D01*
X136340283Y-108543238D01*
X136124159Y-108682310D01*
X135979169Y-108894510D01*
X135928160Y-109146400D01*
X135928160Y-110366400D01*
X135972438Y-110601717D01*
X136111510Y-110817841D01*
X136323710Y-110962831D01*
X136575600Y-111013840D01*
X137195600Y-111013840D01*
X137430917Y-110969562D01*
X137647041Y-110830490D01*
X137792031Y-110618290D01*
X137835327Y-110404489D01*
X137872438Y-110601717D01*
X137960602Y-110738728D01*
X137960602Y-111303900D01*
X134420138Y-111303900D01*
X133708100Y-110591862D01*
X133708100Y-110490244D01*
X133832041Y-110410490D01*
X133977031Y-110198290D01*
X134028040Y-109946400D01*
X134028040Y-108946400D01*
X133983762Y-108711083D01*
X133844690Y-108494959D01*
X133776594Y-108448431D01*
X133918927Y-108306098D01*
X134015600Y-108072709D01*
X134015600Y-107732150D01*
X133856850Y-107573400D01*
X132882600Y-107573400D01*
X132882600Y-107593400D01*
X132628600Y-107593400D01*
X132628600Y-107573400D01*
X131654350Y-107573400D01*
X131495600Y-107732150D01*
X131495600Y-108072709D01*
X131592273Y-108306098D01*
X131733510Y-108447336D01*
X131679159Y-108482310D01*
X131534169Y-108694510D01*
X131483160Y-108946400D01*
X131483160Y-109946400D01*
X131527438Y-110181717D01*
X131666510Y-110397841D01*
X131803100Y-110491169D01*
X131803100Y-110986400D01*
X131875605Y-111350906D01*
X132082081Y-111659919D01*
X133352081Y-112929919D01*
X133661094Y-113136395D01*
X134025600Y-113208900D01*
X139105600Y-113208900D01*
X139470106Y-113136395D01*
X139779119Y-112929919D01*
X139985595Y-112620906D01*
X140058100Y-112256400D01*
X139985595Y-111891894D01*
X139865602Y-111712312D01*
X139865602Y-110708900D01*
X141335600Y-110708900D01*
X141700106Y-110636395D01*
X141712053Y-110628412D01*
X141915600Y-110668900D01*
X142280106Y-110596395D01*
X142289155Y-110590349D01*
X142505917Y-110549562D01*
X142722041Y-110410490D01*
X142729960Y-110398900D01*
X143490400Y-110398900D01*
X143854906Y-110326395D01*
X144163919Y-110119919D01*
X144370395Y-109810906D01*
X144442900Y-109446400D01*
X144442900Y-99380805D01*
X144528787Y-99416468D01*
X145059286Y-99416931D01*
X145549580Y-99214346D01*
X145925027Y-98839553D01*
X146065294Y-98501754D01*
X146204054Y-98837580D01*
X146575200Y-99209374D01*
X146575200Y-101588400D01*
X146618334Y-101805247D01*
X146633052Y-101879240D01*
X146797799Y-102125801D01*
X147320517Y-102648519D01*
X147161045Y-102807714D01*
X147010772Y-103169612D01*
X147010430Y-103561469D01*
X147160071Y-103923629D01*
X147334554Y-104098417D01*
X147213972Y-104388812D01*
X147213630Y-104780669D01*
X147363271Y-105142829D01*
X147640114Y-105420155D01*
X148002012Y-105570428D01*
X148393869Y-105570770D01*
X148756029Y-105421129D01*
X149033355Y-105144286D01*
X149183628Y-104782388D01*
X149183721Y-104675481D01*
X149408160Y-104451042D01*
X149408160Y-104616400D01*
X149452438Y-104851717D01*
X149591510Y-105067841D01*
X149645600Y-105104799D01*
X149645600Y-105481241D01*
X149550772Y-105709612D01*
X149550430Y-106101469D01*
X149680556Y-106416400D01*
X149265600Y-106416400D01*
X148974761Y-106474252D01*
X148728199Y-106638999D01*
X148563452Y-106885561D01*
X148505600Y-107176400D01*
X148505600Y-108267561D01*
X148265600Y-108218960D01*
X147365600Y-108218960D01*
X147130283Y-108263238D01*
X146914159Y-108402310D01*
X146769169Y-108614510D01*
X146718160Y-108866400D01*
X146718160Y-110566400D01*
X146762438Y-110801717D01*
X146901510Y-111017841D01*
X147055600Y-111123126D01*
X147055600Y-112121598D01*
X146838199Y-112338999D01*
X146673452Y-112585561D01*
X146615600Y-112876400D01*
X146615600Y-114609362D01*
X145609119Y-113602881D01*
X145300106Y-113396405D01*
X145169128Y-113370352D01*
X145232031Y-113278290D01*
X145283040Y-113026400D01*
X145283040Y-112526400D01*
X145238762Y-112291083D01*
X145233655Y-112283147D01*
X145545324Y-111971478D01*
X145650669Y-111971570D01*
X146012829Y-111821929D01*
X146290155Y-111545086D01*
X146440428Y-111183188D01*
X146440770Y-110791331D01*
X146291129Y-110429171D01*
X146014286Y-110151845D01*
X145652388Y-110001572D01*
X145260531Y-110001230D01*
X144898371Y-110150871D01*
X144621045Y-110427714D01*
X144470772Y-110789612D01*
X144470679Y-110896519D01*
X143648199Y-111718999D01*
X143513378Y-111920774D01*
X143500283Y-111923238D01*
X143284159Y-112062310D01*
X143139169Y-112274510D01*
X143088160Y-112526400D01*
X143088160Y-113026400D01*
X143132438Y-113261717D01*
X143271510Y-113477841D01*
X143341311Y-113525534D01*
X143306059Y-113548218D01*
X140650243Y-113548218D01*
X140572388Y-113515890D01*
X140180531Y-113515548D01*
X140101463Y-113548218D01*
X131584456Y-113548218D01*
X129898100Y-111861862D01*
X129898100Y-107570938D01*
X130610138Y-106858900D01*
X131495600Y-106858900D01*
X131495600Y-107160650D01*
X131654350Y-107319400D01*
X132628600Y-107319400D01*
X132628600Y-107299400D01*
X132882600Y-107299400D01*
X132882600Y-107319400D01*
X133856850Y-107319400D01*
X134015600Y-107160650D01*
X134015600Y-106858900D01*
X134901062Y-106858900D01*
X135852081Y-107809919D01*
X135952771Y-107877198D01*
X135972438Y-107981717D01*
X136111510Y-108197841D01*
X136323710Y-108342831D01*
X136575600Y-108393840D01*
X137195600Y-108393840D01*
X137356316Y-108363599D01*
X137399291Y-108381400D01*
X137549850Y-108381400D01*
X137708600Y-108222650D01*
X137708600Y-108120395D01*
X137792031Y-107998290D01*
X137835327Y-107784489D01*
X137872438Y-107981717D01*
X137962600Y-108121833D01*
X137962600Y-108222650D01*
X138121350Y-108381400D01*
X138271909Y-108381400D01*
X138318621Y-108362051D01*
X138475600Y-108393840D01*
X139095600Y-108393840D01*
X139330917Y-108349562D01*
X139547041Y-108210490D01*
X139692031Y-107998290D01*
X139716259Y-107878648D01*
X139819119Y-107809919D01*
X140426994Y-107202044D01*
X140544350Y-107319400D01*
X141518600Y-107319400D01*
X141518600Y-106470150D01*
X141359850Y-106311400D01*
X141273971Y-106311400D01*
X141360428Y-106103188D01*
X141360770Y-105711331D01*
X141211129Y-105349171D01*
X140934286Y-105071845D01*
X140572388Y-104921572D01*
X140180531Y-104921230D01*
X139818371Y-105070871D01*
X139541045Y-105347714D01*
X139508237Y-105426725D01*
X139121350Y-105813612D01*
X139121350Y-103356400D01*
X139461909Y-103356400D01*
X139695298Y-103259727D01*
X139873927Y-103081099D01*
X139970600Y-102847710D01*
X139970600Y-102382150D01*
X139811850Y-102223400D01*
X138962600Y-102223400D01*
X138962600Y-101969400D01*
X139811850Y-101969400D01*
X139970600Y-101810650D01*
X139970600Y-101345090D01*
X139873927Y-101111701D01*
X139695298Y-100933073D01*
X139461909Y-100836400D01*
X139121350Y-100836400D01*
X138962600Y-100995150D01*
X138962600Y-101969400D01*
X138962600Y-102223400D01*
X138962600Y-103197650D01*
X139121350Y-103356400D01*
X139121350Y-105813612D01*
X139056002Y-105878960D01*
X138475600Y-105878960D01*
X138314884Y-105909201D01*
X138271909Y-105891400D01*
X138121350Y-105891400D01*
X137962600Y-106050150D01*
X137962600Y-106152405D01*
X137879169Y-106274510D01*
X137835873Y-106488311D01*
X137798762Y-106291083D01*
X137708600Y-106150967D01*
X137708600Y-106050150D01*
X137549850Y-105891400D01*
X137399291Y-105891400D01*
X137352579Y-105910749D01*
X137195600Y-105878960D01*
X136670078Y-105878960D01*
X137509119Y-105039919D01*
X137715595Y-104730906D01*
X137788100Y-104366400D01*
X137788100Y-103183940D01*
X137833569Y-103117394D01*
X137975902Y-103259727D01*
X138209291Y-103356400D01*
X138549850Y-103356400D01*
X138708600Y-103197650D01*
X138708600Y-102223400D01*
X138688600Y-102223400D01*
X138688600Y-101969400D01*
X138708600Y-101969400D01*
X138708600Y-100995150D01*
X138549850Y-100836400D01*
X138209291Y-100836400D01*
X137975902Y-100933073D01*
X137834664Y-101074310D01*
X137799690Y-101019959D01*
X137587490Y-100874969D01*
X137335600Y-100823960D01*
X136335600Y-100823960D01*
X136100283Y-100868238D01*
X135884159Y-101007310D01*
X135739169Y-101219510D01*
X135688160Y-101471400D01*
X135688160Y-102721400D01*
X135732438Y-102956717D01*
X135871510Y-103172841D01*
X135883100Y-103180760D01*
X135883100Y-103971862D01*
X134901062Y-104953900D01*
X131550234Y-104953900D01*
X131550234Y-91422257D01*
X132519058Y-91021947D01*
X133260942Y-90281357D01*
X133662942Y-89313233D01*
X133663857Y-88264966D01*
X133263547Y-87296142D01*
X132522957Y-86554258D01*
X131554833Y-86152258D01*
X130506566Y-86151343D01*
X129537742Y-86551653D01*
X128795858Y-87292243D01*
X128393858Y-88260367D01*
X128392943Y-89308634D01*
X128793253Y-90277458D01*
X129533843Y-91019342D01*
X130501967Y-91421342D01*
X131550234Y-91422257D01*
X131550234Y-104953900D01*
X130215600Y-104953900D01*
X129851094Y-105026405D01*
X129542081Y-105232881D01*
X128272081Y-106502881D01*
X128065605Y-106811894D01*
X127993100Y-107176400D01*
X127993100Y-112256400D01*
X128065605Y-112620906D01*
X128272081Y-112929919D01*
X130516399Y-115174237D01*
X130825412Y-115380713D01*
X131189918Y-115453218D01*
X140100957Y-115453218D01*
X140178812Y-115485546D01*
X140570669Y-115485888D01*
X140649737Y-115453218D01*
X143961282Y-115453218D01*
X144325788Y-115380713D01*
X144545841Y-115233679D01*
X145773100Y-116460938D01*
X145773100Y-117336400D01*
X145809583Y-117519811D01*
X145652600Y-117653837D01*
X145652600Y-118479400D01*
X145672600Y-118479400D01*
X145672600Y-118733400D01*
X145652600Y-118733400D01*
X145652600Y-119558963D01*
X145826731Y-119707629D01*
X146005526Y-119645840D01*
X146061510Y-119732841D01*
X146273710Y-119877831D01*
X146525600Y-119928840D01*
X146525600Y-122645000D01*
X144889629Y-122645000D01*
X145238363Y-122473768D01*
X145525602Y-122133078D01*
X145660600Y-121708400D01*
X145660600Y-121433400D01*
X144652600Y-121433400D01*
X144652600Y-121179400D01*
X145660600Y-121179400D01*
X145660600Y-120904400D01*
X145525602Y-120479722D01*
X145238363Y-120139032D01*
X145224469Y-120132210D01*
X145224469Y-119707629D01*
X145398600Y-119558963D01*
X145398600Y-118733400D01*
X144432866Y-118733400D01*
X144432866Y-118479400D01*
X145398600Y-118479400D01*
X145398600Y-117653837D01*
X145224469Y-117505171D01*
X144814551Y-117646832D01*
X144490048Y-117934579D01*
X144306332Y-118308462D01*
X144432866Y-118479400D01*
X144432866Y-118733400D01*
X144306332Y-118904338D01*
X144490048Y-119278221D01*
X144814551Y-119565968D01*
X145224469Y-119707629D01*
X145224469Y-120132210D01*
X144827474Y-119937281D01*
X144652600Y-120063446D01*
X144652600Y-121179400D01*
X144652600Y-121433400D01*
X144652600Y-121453400D01*
X144398600Y-121453400D01*
X144398600Y-121433400D01*
X143390600Y-121433400D01*
X143390600Y-121179400D01*
X144398600Y-121179400D01*
X144398600Y-120063446D01*
X144223726Y-119937281D01*
X143812837Y-120139032D01*
X143525598Y-120479722D01*
X143390600Y-120904400D01*
X143390600Y-121179400D01*
X143390600Y-121433400D01*
X143390600Y-121708400D01*
X143525598Y-122133078D01*
X143812837Y-122473768D01*
X144161571Y-122645000D01*
X132261434Y-122645000D01*
X132261434Y-122511857D01*
X133230258Y-122111547D01*
X133972142Y-121370957D01*
X134374142Y-120402833D01*
X134375057Y-119354566D01*
X133974747Y-118385742D01*
X133234157Y-117643858D01*
X132266033Y-117241858D01*
X131217766Y-117240943D01*
X130248942Y-117641253D01*
X129507058Y-118381843D01*
X129105058Y-119349967D01*
X129104143Y-120398234D01*
X129504453Y-121367058D01*
X130245043Y-122108942D01*
X131213167Y-122510942D01*
X132261434Y-122511857D01*
X132261434Y-122645000D01*
X127802776Y-122645000D01*
X127853226Y-86119294D01*
X127853226Y-86119294D01*
G37*
X127853226Y-86119294D02*
X178398698Y-85917112D01*
X178196896Y-122645000D01*
X175115855Y-122645000D01*
X175115855Y-115507600D01*
X175485345Y-115507600D01*
X176058834Y-115393526D01*
X176545015Y-115068670D01*
X176869871Y-114582489D01*
X176983945Y-114009000D01*
X176869871Y-113435511D01*
X176545015Y-112949330D01*
X176230234Y-112739000D01*
X176545015Y-112528670D01*
X176869871Y-112042489D01*
X176983945Y-111469000D01*
X176869871Y-110895511D01*
X176545015Y-110409330D01*
X176230234Y-110199000D01*
X176545015Y-109988670D01*
X176869871Y-109502489D01*
X176983945Y-108929000D01*
X176869871Y-108355511D01*
X176545015Y-107869330D01*
X176530687Y-107859757D01*
X176551917Y-107855762D01*
X176768041Y-107716690D01*
X176913031Y-107504490D01*
X176964040Y-107252600D01*
X176964040Y-105525400D01*
X176919762Y-105290083D01*
X176780690Y-105073959D01*
X176568490Y-104928969D01*
X176316600Y-104877960D01*
X175949434Y-104877960D01*
X175949434Y-91879457D01*
X176918258Y-91479147D01*
X177660142Y-90738557D01*
X178062142Y-89770433D01*
X178063057Y-88722166D01*
X177662747Y-87753342D01*
X176922157Y-87011458D01*
X175954033Y-86609458D01*
X174905766Y-86608543D01*
X173936942Y-87008853D01*
X173195058Y-87749443D01*
X172793058Y-88717567D01*
X172792143Y-89765834D01*
X173192453Y-90734658D01*
X173933043Y-91476542D01*
X174901167Y-91878542D01*
X175949434Y-91879457D01*
X175949434Y-104877960D01*
X174284600Y-104877960D01*
X174049283Y-104922238D01*
X173898289Y-105019400D01*
X173361002Y-105019400D01*
X173433231Y-104913690D01*
X173484240Y-104661800D01*
X173484240Y-104518408D01*
X173595155Y-104407686D01*
X173745428Y-104045788D01*
X173745770Y-103653931D01*
X173596129Y-103291771D01*
X173319286Y-103014445D01*
X172957388Y-102864172D01*
X172565531Y-102863830D01*
X172203371Y-103013471D01*
X171926045Y-103290314D01*
X171775772Y-103652212D01*
X171775679Y-103758673D01*
X171724959Y-103791310D01*
X171579969Y-104003510D01*
X171528960Y-104255400D01*
X171528960Y-104661800D01*
X171573238Y-104897117D01*
X171712310Y-105113241D01*
X171720406Y-105118773D01*
X171579969Y-105324310D01*
X171528960Y-105576200D01*
X171528960Y-105982600D01*
X171573238Y-106217917D01*
X171712310Y-106434041D01*
X171924510Y-106579031D01*
X172176400Y-106630040D01*
X172836800Y-106630040D01*
X173072117Y-106585762D01*
X173144166Y-106539400D01*
X173637160Y-106539400D01*
X173637160Y-107252600D01*
X173681438Y-107487917D01*
X173820510Y-107704041D01*
X174032710Y-107849031D01*
X174074039Y-107857400D01*
X174056185Y-107869330D01*
X173731329Y-108355511D01*
X173637067Y-108829400D01*
X170018090Y-108829400D01*
X170018090Y-106617600D01*
X170188850Y-106617600D01*
X170347600Y-106458850D01*
X170347600Y-105969640D01*
X170601600Y-105969640D01*
X170601600Y-106458850D01*
X170760350Y-106617600D01*
X170931110Y-106617600D01*
X171164499Y-106520927D01*
X171343127Y-106342298D01*
X171439800Y-106108909D01*
X171439800Y-106039750D01*
X171281050Y-105881000D01*
X171109057Y-105881000D01*
X171256241Y-105786290D01*
X171401231Y-105574090D01*
X171405413Y-105553437D01*
X171439800Y-105519050D01*
X171439800Y-105449891D01*
X171430788Y-105428134D01*
X171452240Y-105322200D01*
X171452240Y-104915800D01*
X171427466Y-104784138D01*
X171452240Y-104661800D01*
X171452240Y-104255400D01*
X171407962Y-104020083D01*
X171268890Y-103803959D01*
X171056690Y-103658969D01*
X170804800Y-103607960D01*
X170144400Y-103607960D01*
X169909083Y-103652238D01*
X169692959Y-103791310D01*
X169685200Y-103802666D01*
X169685200Y-87669200D01*
X169627348Y-87378361D01*
X169462601Y-87131799D01*
X168802201Y-86471399D01*
X168555639Y-86306652D01*
X168264800Y-86248800D01*
X164912000Y-86248800D01*
X164621161Y-86306652D01*
X164621160Y-86306652D01*
X164374599Y-86471399D01*
X162037799Y-88808199D01*
X161873052Y-89054761D01*
X161817170Y-89335698D01*
X161445373Y-89706847D01*
X161305106Y-90044646D01*
X161166346Y-89708820D01*
X160791553Y-89333373D01*
X160301613Y-89129932D01*
X159771114Y-89129469D01*
X159280820Y-89332054D01*
X158905373Y-89706847D01*
X158765106Y-90044646D01*
X158626346Y-89708820D01*
X158251553Y-89333373D01*
X157761613Y-89129932D01*
X157231114Y-89129469D01*
X156740820Y-89332054D01*
X156365373Y-89706847D01*
X156225106Y-90044646D01*
X156086346Y-89708820D01*
X155711553Y-89333373D01*
X155221613Y-89129932D01*
X154691114Y-89129469D01*
X154200820Y-89332054D01*
X153825373Y-89706847D01*
X153685106Y-90044646D01*
X153546346Y-89708820D01*
X153171553Y-89333373D01*
X152681613Y-89129932D01*
X152151114Y-89129469D01*
X151660820Y-89332054D01*
X151285373Y-89706847D01*
X151145106Y-90044646D01*
X151006346Y-89708820D01*
X150631553Y-89333373D01*
X150141613Y-89129932D01*
X149611114Y-89129469D01*
X149120820Y-89332054D01*
X148745373Y-89706847D01*
X148605106Y-90044646D01*
X148466346Y-89708820D01*
X148091553Y-89333373D01*
X147601613Y-89129932D01*
X147071114Y-89129469D01*
X146580820Y-89332054D01*
X146205373Y-89706847D01*
X146065106Y-90044646D01*
X145926346Y-89708820D01*
X145551553Y-89333373D01*
X145061613Y-89129932D01*
X144531114Y-89129469D01*
X144040820Y-89332054D01*
X143665373Y-89706847D01*
X143531886Y-90028318D01*
X143425000Y-89770271D01*
X143189388Y-89708617D01*
X142434805Y-90463200D01*
X143189388Y-91217783D01*
X143425000Y-91156129D01*
X143523283Y-90876888D01*
X143664054Y-91217580D01*
X144038847Y-91593027D01*
X144528787Y-91796468D01*
X145059286Y-91796931D01*
X145549580Y-91594346D01*
X145925027Y-91219553D01*
X146065294Y-90881754D01*
X146204054Y-91217580D01*
X146578847Y-91593027D01*
X147068787Y-91796468D01*
X147599286Y-91796931D01*
X148089580Y-91594346D01*
X148465027Y-91219553D01*
X148605294Y-90881754D01*
X148744054Y-91217580D01*
X149118847Y-91593027D01*
X149608787Y-91796468D01*
X150139286Y-91796931D01*
X150629580Y-91594346D01*
X151005027Y-91219553D01*
X151145294Y-90881754D01*
X151284054Y-91217580D01*
X151658847Y-91593027D01*
X152148787Y-91796468D01*
X152679286Y-91796931D01*
X153169580Y-91594346D01*
X153545027Y-91219553D01*
X153685294Y-90881754D01*
X153824054Y-91217580D01*
X154198847Y-91593027D01*
X154688787Y-91796468D01*
X155219286Y-91796931D01*
X155709580Y-91594346D01*
X156085027Y-91219553D01*
X156225294Y-90881754D01*
X156364054Y-91217580D01*
X156738847Y-91593027D01*
X157228787Y-91796468D01*
X157759286Y-91796931D01*
X158249580Y-91594346D01*
X158625027Y-91219553D01*
X158765294Y-90881754D01*
X158904054Y-91217580D01*
X159278847Y-91593027D01*
X159768787Y-91796468D01*
X160299286Y-91796931D01*
X160789580Y-91594346D01*
X161165027Y-91219553D01*
X161305294Y-90881754D01*
X161444054Y-91217580D01*
X161818847Y-91593027D01*
X162308787Y-91796468D01*
X162839286Y-91796931D01*
X163329580Y-91594346D01*
X163705027Y-91219553D01*
X163845294Y-90881754D01*
X163984054Y-91217580D01*
X164358847Y-91593027D01*
X164848787Y-91796468D01*
X165379286Y-91796931D01*
X165869580Y-91594346D01*
X166245027Y-91219553D01*
X166448468Y-90729613D01*
X166448931Y-90199114D01*
X166246346Y-89708820D01*
X165871553Y-89333373D01*
X165381613Y-89129932D01*
X164851114Y-89129469D01*
X164360820Y-89332054D01*
X163985373Y-89706847D01*
X163845106Y-90044646D01*
X163706346Y-89708820D01*
X163496747Y-89498855D01*
X165226802Y-87768800D01*
X167949998Y-87768800D01*
X168165200Y-87984002D01*
X168165200Y-104788800D01*
X168223052Y-105079640D01*
X168387799Y-105326201D01*
X168717999Y-105656401D01*
X168964561Y-105821148D01*
X169255400Y-105879000D01*
X169509400Y-105879000D01*
X169509400Y-105906402D01*
X169642748Y-105906402D01*
X169509400Y-106039750D01*
X169509400Y-106108909D01*
X169606073Y-106342298D01*
X169784701Y-106520927D01*
X170018090Y-106617600D01*
X170018090Y-108829400D01*
X169794077Y-108829400D01*
X169935428Y-108488988D01*
X169935770Y-108097131D01*
X169786129Y-107734971D01*
X169509286Y-107457645D01*
X169147388Y-107307372D01*
X168755531Y-107307030D01*
X168393371Y-107456671D01*
X168341351Y-107508600D01*
X168066692Y-107508600D01*
X168008690Y-107468969D01*
X167756800Y-107417960D01*
X167096400Y-107417960D01*
X166861083Y-107462238D01*
X166644959Y-107601310D01*
X166499969Y-107813510D01*
X166448960Y-108065400D01*
X166448960Y-108471800D01*
X166493238Y-108707117D01*
X166632310Y-108923241D01*
X166640406Y-108928773D01*
X166499969Y-109134310D01*
X166448960Y-109386200D01*
X166448960Y-109792600D01*
X166493238Y-110027917D01*
X166632310Y-110244041D01*
X166844510Y-110389031D01*
X167096400Y-110440040D01*
X167756800Y-110440040D01*
X167992117Y-110395762D01*
X168064166Y-110349400D01*
X174145877Y-110349400D01*
X174056185Y-110409330D01*
X173731329Y-110895511D01*
X173617255Y-111469000D01*
X173731329Y-112042489D01*
X174056185Y-112528670D01*
X174370966Y-112739000D01*
X174056185Y-112949330D01*
X173731329Y-113435511D01*
X173617255Y-114009000D01*
X173731329Y-114582489D01*
X174056185Y-115068670D01*
X174542366Y-115393526D01*
X175115855Y-115507600D01*
X175115855Y-122645000D01*
X169599434Y-122645000D01*
X169599434Y-121089457D01*
X170568258Y-120689147D01*
X171310142Y-119948557D01*
X171712142Y-118980433D01*
X171713057Y-117932166D01*
X171312747Y-116963342D01*
X170572157Y-116221458D01*
X169604033Y-115819458D01*
X168555766Y-115818543D01*
X167586942Y-116218853D01*
X166845058Y-116959443D01*
X166443058Y-117927567D01*
X166442143Y-118975834D01*
X166842453Y-119944658D01*
X167583043Y-120686542D01*
X168551167Y-121088542D01*
X169599434Y-121089457D01*
X169599434Y-122645000D01*
X157171350Y-122645000D01*
X157171350Y-116581400D01*
X157386910Y-116581400D01*
X157620299Y-116484727D01*
X157798927Y-116306098D01*
X157895600Y-116072709D01*
X157895600Y-115832150D01*
X157736850Y-115673400D01*
X157012600Y-115673400D01*
X157012600Y-116422650D01*
X157171350Y-116581400D01*
X157171350Y-122645000D01*
X156384290Y-122645000D01*
X156384290Y-116581400D01*
X156599850Y-116581400D01*
X156758600Y-116422650D01*
X156758600Y-115673400D01*
X156034350Y-115673400D01*
X155875600Y-115832150D01*
X155875600Y-116072709D01*
X155972273Y-116306098D01*
X156150901Y-116484727D01*
X156384290Y-116581400D01*
X156384290Y-122645000D01*
X151889629Y-122645000D01*
X152238363Y-122473768D01*
X152525602Y-122133078D01*
X152660600Y-121708400D01*
X152660600Y-121433400D01*
X151652600Y-121433400D01*
X151652600Y-121179400D01*
X152660600Y-121179400D01*
X152660600Y-120904400D01*
X152525602Y-120479722D01*
X152238363Y-120139032D01*
X152091350Y-120066848D01*
X152091350Y-116581400D01*
X152306910Y-116581400D01*
X152540299Y-116484727D01*
X152718927Y-116306098D01*
X152815600Y-116072709D01*
X152815600Y-115832150D01*
X152656850Y-115673400D01*
X151932600Y-115673400D01*
X151932600Y-116422650D01*
X152091350Y-116581400D01*
X152091350Y-120066848D01*
X151827474Y-119937281D01*
X151652600Y-120063446D01*
X151652600Y-121179400D01*
X151652600Y-121433400D01*
X151652600Y-121453400D01*
X151398600Y-121453400D01*
X151398600Y-121433400D01*
X150390600Y-121433400D01*
X150390600Y-121179400D01*
X151398600Y-121179400D01*
X151398600Y-120063446D01*
X151223726Y-119937281D01*
X150826731Y-120132209D01*
X150826731Y-119707629D01*
X151236649Y-119565968D01*
X151561152Y-119278221D01*
X151744868Y-118904338D01*
X151618334Y-118733400D01*
X150652600Y-118733400D01*
X150652600Y-118479400D01*
X151618334Y-118479400D01*
X151744868Y-118308462D01*
X151561152Y-117934579D01*
X151304290Y-117706812D01*
X151304290Y-116581400D01*
X151519850Y-116581400D01*
X151678600Y-116422650D01*
X151678600Y-115673400D01*
X150954350Y-115673400D01*
X150795600Y-115832150D01*
X150795600Y-116072709D01*
X150892273Y-116306098D01*
X151070901Y-116484727D01*
X151304290Y-116581400D01*
X151304290Y-117706812D01*
X151236649Y-117646832D01*
X150826731Y-117505171D01*
X150652600Y-117653837D01*
X150652600Y-118479400D01*
X150652600Y-118733400D01*
X150652600Y-119558963D01*
X150826731Y-119707629D01*
X150826731Y-120132209D01*
X150812837Y-120139032D01*
X150525598Y-120479722D01*
X150390600Y-120904400D01*
X150390600Y-121179400D01*
X150390600Y-121433400D01*
X150390600Y-121708400D01*
X150525598Y-122133078D01*
X150812837Y-122473768D01*
X151161571Y-122645000D01*
X146525600Y-122645000D01*
X146525600Y-119928840D01*
X146925600Y-119928840D01*
X147055189Y-119904456D01*
X147175600Y-119928840D01*
X147575600Y-119928840D01*
X147705189Y-119904456D01*
X147825600Y-119928840D01*
X148225600Y-119928840D01*
X148355189Y-119904456D01*
X148475600Y-119928840D01*
X148875600Y-119928840D01*
X148981305Y-119908950D01*
X148999290Y-119916400D01*
X149066850Y-119916400D01*
X149095854Y-119887396D01*
X149110917Y-119884562D01*
X149327041Y-119745490D01*
X149425600Y-119601244D01*
X149425600Y-119757650D01*
X149584350Y-119916400D01*
X149651910Y-119916400D01*
X149885299Y-119819727D01*
X150055715Y-119649310D01*
X150224469Y-119707629D01*
X150398600Y-119558963D01*
X150398600Y-118733400D01*
X150378600Y-118733400D01*
X150378600Y-118479400D01*
X150398600Y-118479400D01*
X150398600Y-117653837D01*
X150224469Y-117505171D01*
X150055715Y-117563490D01*
X149885299Y-117393073D01*
X149651910Y-117296400D01*
X149584350Y-117296400D01*
X149425600Y-117455150D01*
X149425600Y-117613467D01*
X149339690Y-117479959D01*
X149127490Y-117334969D01*
X149099815Y-117329365D01*
X149066850Y-117296400D01*
X148999290Y-117296400D01*
X148978847Y-117304868D01*
X148875600Y-117283960D01*
X148785600Y-117283960D01*
X148785600Y-113811202D01*
X149803001Y-112793801D01*
X149955600Y-112565420D01*
X149955600Y-112956400D01*
X150013452Y-113247239D01*
X150178199Y-113493801D01*
X150783160Y-114098762D01*
X150783160Y-114446400D01*
X150827438Y-114681717D01*
X150893929Y-114785046D01*
X150892273Y-114786702D01*
X150795600Y-115020091D01*
X150795600Y-115260650D01*
X150954350Y-115419400D01*
X151678600Y-115419400D01*
X151678600Y-115399400D01*
X151932600Y-115399400D01*
X151932600Y-115419400D01*
X152656850Y-115419400D01*
X152815600Y-115260650D01*
X152815600Y-115020091D01*
X152718927Y-114786702D01*
X152717557Y-114785332D01*
X152777031Y-114698290D01*
X152828040Y-114446400D01*
X152828040Y-114098762D01*
X154883001Y-112043801D01*
X155035600Y-111815421D01*
X155035600Y-112956400D01*
X155093452Y-113247239D01*
X155258199Y-113493801D01*
X155863160Y-114098762D01*
X155863160Y-114446400D01*
X155907438Y-114681717D01*
X155973929Y-114785046D01*
X155972273Y-114786702D01*
X155875600Y-115020091D01*
X155875600Y-115260650D01*
X156034350Y-115419400D01*
X156758600Y-115419400D01*
X156758600Y-115399400D01*
X157012600Y-115399400D01*
X157012600Y-115419400D01*
X157736850Y-115419400D01*
X157895600Y-115260650D01*
X157895600Y-115020091D01*
X157798927Y-114786702D01*
X157797557Y-114785332D01*
X157857031Y-114698290D01*
X157908040Y-114446400D01*
X157908040Y-113646400D01*
X157863762Y-113411083D01*
X157724690Y-113194959D01*
X157512490Y-113049969D01*
X157260600Y-112998960D01*
X156912962Y-112998960D01*
X156555600Y-112641598D01*
X156555600Y-111121505D01*
X156697041Y-111030490D01*
X156842031Y-110818290D01*
X156892516Y-110568987D01*
X156902438Y-110621717D01*
X157041510Y-110837841D01*
X157253710Y-110982831D01*
X157266797Y-110985481D01*
X157054159Y-111122310D01*
X156909169Y-111334510D01*
X156858160Y-111586400D01*
X156858160Y-112286400D01*
X156902438Y-112521717D01*
X157041510Y-112737841D01*
X157253710Y-112882831D01*
X157505600Y-112933840D01*
X157507783Y-112933840D01*
X157544761Y-112958548D01*
X157835600Y-113016400D01*
X157839936Y-113015538D01*
X158440522Y-113616124D01*
X158440430Y-113721469D01*
X158590071Y-114083629D01*
X158866914Y-114360955D01*
X159228812Y-114511228D01*
X159620669Y-114511570D01*
X159982829Y-114361929D01*
X160260155Y-114085086D01*
X160410428Y-113723188D01*
X160410770Y-113331331D01*
X160261129Y-112969171D01*
X159984286Y-112691845D01*
X159622388Y-112541572D01*
X159515481Y-112541479D01*
X159420599Y-112446597D01*
X159453040Y-112286400D01*
X159453040Y-111586400D01*
X159408762Y-111351083D01*
X159269690Y-111134959D01*
X159057490Y-110989969D01*
X159044403Y-110987319D01*
X159257041Y-110850490D01*
X159402031Y-110638290D01*
X159453040Y-110386400D01*
X159453040Y-109686400D01*
X159408762Y-109451083D01*
X159269690Y-109234959D01*
X159057490Y-109089969D01*
X158915600Y-109061236D01*
X158915600Y-108833244D01*
X158982041Y-108790490D01*
X159127031Y-108578290D01*
X159178040Y-108326400D01*
X159178040Y-107526400D01*
X159133762Y-107291083D01*
X159067271Y-107187754D01*
X159068927Y-107186098D01*
X159165600Y-106952709D01*
X159165600Y-106712150D01*
X159006850Y-106553400D01*
X158282600Y-106553400D01*
X158282600Y-106299400D01*
X159006850Y-106299400D01*
X159165600Y-106140650D01*
X159165600Y-105900091D01*
X159068927Y-105666702D01*
X158890299Y-105488073D01*
X158656910Y-105391400D01*
X158441350Y-105391400D01*
X158282600Y-105550150D01*
X158282600Y-106299400D01*
X158282600Y-106553400D01*
X158282600Y-106573400D01*
X158028600Y-106573400D01*
X158028600Y-106553400D01*
X158008600Y-106553400D01*
X158008600Y-106299400D01*
X158028600Y-106299400D01*
X158028600Y-105550150D01*
X157869850Y-105391400D01*
X157654290Y-105391400D01*
X157420901Y-105488073D01*
X157242273Y-105666702D01*
X157145600Y-105900091D01*
X157145600Y-106140650D01*
X157304348Y-106299398D01*
X157145600Y-106299398D01*
X157145600Y-106361598D01*
X156214416Y-105430414D01*
X156450155Y-105195086D01*
X156509176Y-105052948D01*
X156650012Y-105111428D01*
X157041869Y-105111770D01*
X157344281Y-104986816D01*
X157528710Y-105112831D01*
X157780600Y-105163840D01*
X158530600Y-105163840D01*
X158765917Y-105119562D01*
X158982041Y-104980490D01*
X159127031Y-104768290D01*
X159178040Y-104516400D01*
X159178040Y-103716400D01*
X159133762Y-103481083D01*
X159067271Y-103377754D01*
X159068927Y-103376098D01*
X159165600Y-103142709D01*
X159165600Y-102902150D01*
X159006850Y-102743400D01*
X158282600Y-102743400D01*
X158282600Y-102489400D01*
X159006850Y-102489400D01*
X159165600Y-102330650D01*
X159165600Y-102090091D01*
X159068927Y-101856702D01*
X158890299Y-101678073D01*
X158656910Y-101581400D01*
X158441350Y-101581400D01*
X158282600Y-101740150D01*
X158282600Y-102489400D01*
X158282600Y-102743400D01*
X158282600Y-102763400D01*
X158028600Y-102763400D01*
X158028600Y-102743400D01*
X157304350Y-102743400D01*
X157304350Y-102489400D01*
X158028600Y-102489400D01*
X158028600Y-101740150D01*
X157869850Y-101581400D01*
X157654290Y-101581400D01*
X157420901Y-101678073D01*
X157242273Y-101856702D01*
X157145600Y-102090091D01*
X157145600Y-102330650D01*
X157304350Y-102489400D01*
X157304350Y-102743400D01*
X157145600Y-102902150D01*
X157145600Y-103142709D01*
X157166322Y-103192735D01*
X157043588Y-103141772D01*
X156651731Y-103141430D01*
X156519902Y-103195900D01*
X155928001Y-102603999D01*
X155681439Y-102439252D01*
X155390600Y-102381400D01*
X154200002Y-102381400D01*
X154203040Y-102366400D01*
X154203040Y-102116400D01*
X154158762Y-101881083D01*
X154019690Y-101664959D01*
X153807490Y-101519969D01*
X153555600Y-101468960D01*
X152855600Y-101468960D01*
X152620283Y-101513238D01*
X152576518Y-101541400D01*
X152506350Y-101541400D01*
X152347600Y-101700150D01*
X152347600Y-101735087D01*
X152312980Y-101785754D01*
X152165298Y-101638073D01*
X151936930Y-101543480D01*
X151934850Y-101541400D01*
X151676350Y-101541400D01*
X151674270Y-101543480D01*
X151445902Y-101638073D01*
X151297733Y-101786241D01*
X151263600Y-101733197D01*
X151263600Y-101700150D01*
X151104850Y-101541400D01*
X151038855Y-101541400D01*
X151007490Y-101519969D01*
X150755600Y-101468960D01*
X150055600Y-101468960D01*
X149989487Y-101481400D01*
X149572869Y-101481400D01*
X149873629Y-101357129D01*
X150150955Y-101080286D01*
X150301228Y-100718388D01*
X150301321Y-100611481D01*
X150412601Y-100500201D01*
X150577348Y-100253639D01*
X150635200Y-99962800D01*
X150635200Y-99208736D01*
X151005027Y-98839553D01*
X151145294Y-98501754D01*
X151284054Y-98837580D01*
X151658847Y-99213027D01*
X152148787Y-99416468D01*
X152679286Y-99416931D01*
X153169580Y-99214346D01*
X153545027Y-98839553D01*
X153685294Y-98501754D01*
X153824054Y-98837580D01*
X154198847Y-99213027D01*
X154688787Y-99416468D01*
X155219286Y-99416931D01*
X155709580Y-99214346D01*
X156085027Y-98839553D01*
X156225294Y-98501754D01*
X156364054Y-98837580D01*
X156738847Y-99213027D01*
X157228787Y-99416468D01*
X157759286Y-99416931D01*
X158249580Y-99214346D01*
X158625027Y-98839553D01*
X158765294Y-98501754D01*
X158904054Y-98837580D01*
X159278847Y-99213027D01*
X159768787Y-99416468D01*
X160299286Y-99416931D01*
X160789580Y-99214346D01*
X161165027Y-98839553D01*
X161305294Y-98501754D01*
X161444054Y-98837580D01*
X161815200Y-99209374D01*
X161815200Y-107887600D01*
X161873052Y-108178439D01*
X162037799Y-108425001D01*
X163079199Y-109466401D01*
X163325761Y-109631148D01*
X163616600Y-109689000D01*
X164429400Y-109689000D01*
X164429400Y-109716402D01*
X164562748Y-109716402D01*
X164429400Y-109849750D01*
X164429400Y-109918909D01*
X164526073Y-110152298D01*
X164704701Y-110330927D01*
X164938090Y-110427600D01*
X165108850Y-110427600D01*
X165267600Y-110268850D01*
X165267600Y-109779640D01*
X165521600Y-109779640D01*
X165521600Y-110268850D01*
X165680350Y-110427600D01*
X165851110Y-110427600D01*
X166084499Y-110330927D01*
X166263127Y-110152298D01*
X166359800Y-109918909D01*
X166359800Y-109849750D01*
X166201050Y-109691000D01*
X166029057Y-109691000D01*
X166176241Y-109596290D01*
X166321231Y-109384090D01*
X166325413Y-109363437D01*
X166359800Y-109329050D01*
X166359800Y-109259891D01*
X166350788Y-109238134D01*
X166372240Y-109132200D01*
X166372240Y-108725800D01*
X166347466Y-108594138D01*
X166372240Y-108471800D01*
X166372240Y-108065400D01*
X166327962Y-107830083D01*
X166188890Y-107613959D01*
X165976690Y-107468969D01*
X165724800Y-107417960D01*
X165064400Y-107417960D01*
X164829083Y-107462238D01*
X164612959Y-107601310D01*
X164467969Y-107813510D01*
X164416960Y-108065400D01*
X164416960Y-108169000D01*
X163931402Y-108169000D01*
X163335200Y-107572798D01*
X163335200Y-99208736D01*
X163705027Y-98839553D01*
X163845294Y-98501754D01*
X163984054Y-98837580D01*
X164358847Y-99213027D01*
X164848787Y-99416468D01*
X165379286Y-99416931D01*
X165869580Y-99214346D01*
X166245027Y-98839553D01*
X166448468Y-98349613D01*
X166448931Y-97819114D01*
X166246346Y-97328820D01*
X165871553Y-96953373D01*
X165381613Y-96749932D01*
X164851114Y-96749469D01*
X164360820Y-96952054D01*
X163985373Y-97326847D01*
X163845106Y-97664646D01*
X163706346Y-97328820D01*
X163331553Y-96953373D01*
X162841613Y-96749932D01*
X162311114Y-96749469D01*
X161820820Y-96952054D01*
X161445373Y-97326847D01*
X161305106Y-97664646D01*
X161166346Y-97328820D01*
X160791553Y-96953373D01*
X160301613Y-96749932D01*
X159771114Y-96749469D01*
X159280820Y-96952054D01*
X158905373Y-97326847D01*
X158765106Y-97664646D01*
X158626346Y-97328820D01*
X158251553Y-96953373D01*
X157761613Y-96749932D01*
X157231114Y-96749469D01*
X156740820Y-96952054D01*
X156365373Y-97326847D01*
X156225106Y-97664646D01*
X156086346Y-97328820D01*
X155711553Y-96953373D01*
X155221613Y-96749932D01*
X154691114Y-96749469D01*
X154200820Y-96952054D01*
X153825373Y-97326847D01*
X153685106Y-97664646D01*
X153546346Y-97328820D01*
X153171553Y-96953373D01*
X152681613Y-96749932D01*
X152151114Y-96749469D01*
X151660820Y-96952054D01*
X151285373Y-97326847D01*
X151145106Y-97664646D01*
X151006346Y-97328820D01*
X150631553Y-96953373D01*
X150141613Y-96749932D01*
X149611114Y-96749469D01*
X149120820Y-96952054D01*
X148745373Y-97326847D01*
X148605106Y-97664646D01*
X148466346Y-97328820D01*
X148091553Y-96953373D01*
X147601613Y-96749932D01*
X147071114Y-96749469D01*
X146580820Y-96952054D01*
X146205373Y-97326847D01*
X146065106Y-97664646D01*
X145926346Y-97328820D01*
X145551553Y-96953373D01*
X145061613Y-96749932D01*
X144531114Y-96749469D01*
X144040820Y-96952054D01*
X143665373Y-97326847D01*
X143601140Y-97481537D01*
X143601140Y-97384700D01*
X143556862Y-97149383D01*
X143417790Y-96933259D01*
X143205590Y-96788269D01*
X142953700Y-96737260D01*
X142062680Y-96737260D01*
X142062680Y-91809127D01*
X142592399Y-91780348D01*
X142948129Y-91633000D01*
X143009783Y-91397388D01*
X142255200Y-90642805D01*
X142255200Y-90283595D01*
X143009783Y-89529012D01*
X142948129Y-89293400D01*
X142447720Y-89117273D01*
X141918001Y-89146052D01*
X141562271Y-89293400D01*
X141500617Y-89529012D01*
X142255200Y-90283595D01*
X142255200Y-90642805D01*
X141500617Y-91397388D01*
X141562271Y-91633000D01*
X142062680Y-91809127D01*
X142062680Y-96737260D01*
X141556700Y-96737260D01*
X141321383Y-96781538D01*
X141321012Y-96781776D01*
X141321012Y-91217783D01*
X142075595Y-90463200D01*
X141321012Y-89708617D01*
X141085400Y-89770271D01*
X140909273Y-90270680D01*
X140938052Y-90800399D01*
X141085400Y-91156129D01*
X141321012Y-91217783D01*
X141321012Y-96781776D01*
X141105259Y-96920610D01*
X140960269Y-97132810D01*
X140909260Y-97384700D01*
X140909260Y-98781700D01*
X140953538Y-99017017D01*
X141092610Y-99233141D01*
X141304810Y-99378131D01*
X141556700Y-99429140D01*
X142254102Y-99429140D01*
X142537900Y-99712938D01*
X142537900Y-106369800D01*
X142396910Y-106311400D01*
X141931350Y-106311400D01*
X141772600Y-106470150D01*
X141772600Y-107319400D01*
X141792600Y-107319400D01*
X141792600Y-107573400D01*
X141772600Y-107573400D01*
X141772600Y-107593400D01*
X141518600Y-107593400D01*
X141518600Y-107573400D01*
X140544350Y-107573400D01*
X140385600Y-107732150D01*
X140385600Y-108072709D01*
X140482273Y-108306098D01*
X140623510Y-108447336D01*
X140569159Y-108482310D01*
X140424169Y-108694510D01*
X140402017Y-108803900D01*
X139629792Y-108803900D01*
X139559690Y-108694959D01*
X139347490Y-108549969D01*
X139095600Y-108498960D01*
X138475600Y-108498960D01*
X138240283Y-108543238D01*
X138024159Y-108682310D01*
X137879169Y-108894510D01*
X137835873Y-109108311D01*
X137798762Y-108911083D01*
X137659690Y-108694959D01*
X137447490Y-108549969D01*
X137195600Y-108498960D01*
X136575600Y-108498960D01*
X136340283Y-108543238D01*
X136124159Y-108682310D01*
X135979169Y-108894510D01*
X135928160Y-109146400D01*
X135928160Y-110366400D01*
X135972438Y-110601717D01*
X136111510Y-110817841D01*
X136323710Y-110962831D01*
X136575600Y-111013840D01*
X137195600Y-111013840D01*
X137430917Y-110969562D01*
X137647041Y-110830490D01*
X137792031Y-110618290D01*
X137835327Y-110404489D01*
X137872438Y-110601717D01*
X137960602Y-110738728D01*
X137960602Y-111303900D01*
X134420138Y-111303900D01*
X133708100Y-110591862D01*
X133708100Y-110490244D01*
X133832041Y-110410490D01*
X133977031Y-110198290D01*
X134028040Y-109946400D01*
X134028040Y-108946400D01*
X133983762Y-108711083D01*
X133844690Y-108494959D01*
X133776594Y-108448431D01*
X133918927Y-108306098D01*
X134015600Y-108072709D01*
X134015600Y-107732150D01*
X133856850Y-107573400D01*
X132882600Y-107573400D01*
X132882600Y-107593400D01*
X132628600Y-107593400D01*
X132628600Y-107573400D01*
X131654350Y-107573400D01*
X131495600Y-107732150D01*
X131495600Y-108072709D01*
X131592273Y-108306098D01*
X131733510Y-108447336D01*
X131679159Y-108482310D01*
X131534169Y-108694510D01*
X131483160Y-108946400D01*
X131483160Y-109946400D01*
X131527438Y-110181717D01*
X131666510Y-110397841D01*
X131803100Y-110491169D01*
X131803100Y-110986400D01*
X131875605Y-111350906D01*
X132082081Y-111659919D01*
X133352081Y-112929919D01*
X133661094Y-113136395D01*
X134025600Y-113208900D01*
X139105600Y-113208900D01*
X139470106Y-113136395D01*
X139779119Y-112929919D01*
X139985595Y-112620906D01*
X140058100Y-112256400D01*
X139985595Y-111891894D01*
X139865602Y-111712312D01*
X139865602Y-110708900D01*
X141335600Y-110708900D01*
X141700106Y-110636395D01*
X141712053Y-110628412D01*
X141915600Y-110668900D01*
X142280106Y-110596395D01*
X142289155Y-110590349D01*
X142505917Y-110549562D01*
X142722041Y-110410490D01*
X142729960Y-110398900D01*
X143490400Y-110398900D01*
X143854906Y-110326395D01*
X144163919Y-110119919D01*
X144370395Y-109810906D01*
X144442900Y-109446400D01*
X144442900Y-99380805D01*
X144528787Y-99416468D01*
X145059286Y-99416931D01*
X145549580Y-99214346D01*
X145925027Y-98839553D01*
X146065294Y-98501754D01*
X146204054Y-98837580D01*
X146575200Y-99209374D01*
X146575200Y-101588400D01*
X146618334Y-101805247D01*
X146633052Y-101879240D01*
X146797799Y-102125801D01*
X147320517Y-102648519D01*
X147161045Y-102807714D01*
X147010772Y-103169612D01*
X147010430Y-103561469D01*
X147160071Y-103923629D01*
X147334554Y-104098417D01*
X147213972Y-104388812D01*
X147213630Y-104780669D01*
X147363271Y-105142829D01*
X147640114Y-105420155D01*
X148002012Y-105570428D01*
X148393869Y-105570770D01*
X148756029Y-105421129D01*
X149033355Y-105144286D01*
X149183628Y-104782388D01*
X149183721Y-104675481D01*
X149408160Y-104451042D01*
X149408160Y-104616400D01*
X149452438Y-104851717D01*
X149591510Y-105067841D01*
X149645600Y-105104799D01*
X149645600Y-105481241D01*
X149550772Y-105709612D01*
X149550430Y-106101469D01*
X149680556Y-106416400D01*
X149265600Y-106416400D01*
X148974761Y-106474252D01*
X148728199Y-106638999D01*
X148563452Y-106885561D01*
X148505600Y-107176400D01*
X148505600Y-108267561D01*
X148265600Y-108218960D01*
X147365600Y-108218960D01*
X147130283Y-108263238D01*
X146914159Y-108402310D01*
X146769169Y-108614510D01*
X146718160Y-108866400D01*
X146718160Y-110566400D01*
X146762438Y-110801717D01*
X146901510Y-111017841D01*
X147055600Y-111123126D01*
X147055600Y-112121598D01*
X146838199Y-112338999D01*
X146673452Y-112585561D01*
X146615600Y-112876400D01*
X146615600Y-114609362D01*
X145609119Y-113602881D01*
X145300106Y-113396405D01*
X145169128Y-113370352D01*
X145232031Y-113278290D01*
X145283040Y-113026400D01*
X145283040Y-112526400D01*
X145238762Y-112291083D01*
X145233655Y-112283147D01*
X145545324Y-111971478D01*
X145650669Y-111971570D01*
X146012829Y-111821929D01*
X146290155Y-111545086D01*
X146440428Y-111183188D01*
X146440770Y-110791331D01*
X146291129Y-110429171D01*
X146014286Y-110151845D01*
X145652388Y-110001572D01*
X145260531Y-110001230D01*
X144898371Y-110150871D01*
X144621045Y-110427714D01*
X144470772Y-110789612D01*
X144470679Y-110896519D01*
X143648199Y-111718999D01*
X143513378Y-111920774D01*
X143500283Y-111923238D01*
X143284159Y-112062310D01*
X143139169Y-112274510D01*
X143088160Y-112526400D01*
X143088160Y-113026400D01*
X143132438Y-113261717D01*
X143271510Y-113477841D01*
X143341311Y-113525534D01*
X143306059Y-113548218D01*
X140650243Y-113548218D01*
X140572388Y-113515890D01*
X140180531Y-113515548D01*
X140101463Y-113548218D01*
X131584456Y-113548218D01*
X129898100Y-111861862D01*
X129898100Y-107570938D01*
X130610138Y-106858900D01*
X131495600Y-106858900D01*
X131495600Y-107160650D01*
X131654350Y-107319400D01*
X132628600Y-107319400D01*
X132628600Y-107299400D01*
X132882600Y-107299400D01*
X132882600Y-107319400D01*
X133856850Y-107319400D01*
X134015600Y-107160650D01*
X134015600Y-106858900D01*
X134901062Y-106858900D01*
X135852081Y-107809919D01*
X135952771Y-107877198D01*
X135972438Y-107981717D01*
X136111510Y-108197841D01*
X136323710Y-108342831D01*
X136575600Y-108393840D01*
X137195600Y-108393840D01*
X137356316Y-108363599D01*
X137399291Y-108381400D01*
X137549850Y-108381400D01*
X137708600Y-108222650D01*
X137708600Y-108120395D01*
X137792031Y-107998290D01*
X137835327Y-107784489D01*
X137872438Y-107981717D01*
X137962600Y-108121833D01*
X137962600Y-108222650D01*
X138121350Y-108381400D01*
X138271909Y-108381400D01*
X138318621Y-108362051D01*
X138475600Y-108393840D01*
X139095600Y-108393840D01*
X139330917Y-108349562D01*
X139547041Y-108210490D01*
X139692031Y-107998290D01*
X139716259Y-107878648D01*
X139819119Y-107809919D01*
X140426994Y-107202044D01*
X140544350Y-107319400D01*
X141518600Y-107319400D01*
X141518600Y-106470150D01*
X141359850Y-106311400D01*
X141273971Y-106311400D01*
X141360428Y-106103188D01*
X141360770Y-105711331D01*
X141211129Y-105349171D01*
X140934286Y-105071845D01*
X140572388Y-104921572D01*
X140180531Y-104921230D01*
X139818371Y-105070871D01*
X139541045Y-105347714D01*
X139508237Y-105426725D01*
X139121350Y-105813612D01*
X139121350Y-103356400D01*
X139461909Y-103356400D01*
X139695298Y-103259727D01*
X139873927Y-103081099D01*
X139970600Y-102847710D01*
X139970600Y-102382150D01*
X139811850Y-102223400D01*
X138962600Y-102223400D01*
X138962600Y-101969400D01*
X139811850Y-101969400D01*
X139970600Y-101810650D01*
X139970600Y-101345090D01*
X139873927Y-101111701D01*
X139695298Y-100933073D01*
X139461909Y-100836400D01*
X139121350Y-100836400D01*
X138962600Y-100995150D01*
X138962600Y-101969400D01*
X138962600Y-102223400D01*
X138962600Y-103197650D01*
X139121350Y-103356400D01*
X139121350Y-105813612D01*
X139056002Y-105878960D01*
X138475600Y-105878960D01*
X138314884Y-105909201D01*
X138271909Y-105891400D01*
X138121350Y-105891400D01*
X137962600Y-106050150D01*
X137962600Y-106152405D01*
X137879169Y-106274510D01*
X137835873Y-106488311D01*
X137798762Y-106291083D01*
X137708600Y-106150967D01*
X137708600Y-106050150D01*
X137549850Y-105891400D01*
X137399291Y-105891400D01*
X137352579Y-105910749D01*
X137195600Y-105878960D01*
X136670078Y-105878960D01*
X137509119Y-105039919D01*
X137715595Y-104730906D01*
X137788100Y-104366400D01*
X137788100Y-103183940D01*
X137833569Y-103117394D01*
X137975902Y-103259727D01*
X138209291Y-103356400D01*
X138549850Y-103356400D01*
X138708600Y-103197650D01*
X138708600Y-102223400D01*
X138688600Y-102223400D01*
X138688600Y-101969400D01*
X138708600Y-101969400D01*
X138708600Y-100995150D01*
X138549850Y-100836400D01*
X138209291Y-100836400D01*
X137975902Y-100933073D01*
X137834664Y-101074310D01*
X137799690Y-101019959D01*
X137587490Y-100874969D01*
X137335600Y-100823960D01*
X136335600Y-100823960D01*
X136100283Y-100868238D01*
X135884159Y-101007310D01*
X135739169Y-101219510D01*
X135688160Y-101471400D01*
X135688160Y-102721400D01*
X135732438Y-102956717D01*
X135871510Y-103172841D01*
X135883100Y-103180760D01*
X135883100Y-103971862D01*
X134901062Y-104953900D01*
X131550234Y-104953900D01*
X131550234Y-91422257D01*
X132519058Y-91021947D01*
X133260942Y-90281357D01*
X133662942Y-89313233D01*
X133663857Y-88264966D01*
X133263547Y-87296142D01*
X132522957Y-86554258D01*
X131554833Y-86152258D01*
X130506566Y-86151343D01*
X129537742Y-86551653D01*
X128795858Y-87292243D01*
X128393858Y-88260367D01*
X128392943Y-89308634D01*
X128793253Y-90277458D01*
X129533843Y-91019342D01*
X130501967Y-91421342D01*
X131550234Y-91422257D01*
X131550234Y-104953900D01*
X130215600Y-104953900D01*
X129851094Y-105026405D01*
X129542081Y-105232881D01*
X128272081Y-106502881D01*
X128065605Y-106811894D01*
X127993100Y-107176400D01*
X127993100Y-112256400D01*
X128065605Y-112620906D01*
X128272081Y-112929919D01*
X130516399Y-115174237D01*
X130825412Y-115380713D01*
X131189918Y-115453218D01*
X140100957Y-115453218D01*
X140178812Y-115485546D01*
X140570669Y-115485888D01*
X140649737Y-115453218D01*
X143961282Y-115453218D01*
X144325788Y-115380713D01*
X144545841Y-115233679D01*
X145773100Y-116460938D01*
X145773100Y-117336400D01*
X145809583Y-117519811D01*
X145652600Y-117653837D01*
X145652600Y-118479400D01*
X145672600Y-118479400D01*
X145672600Y-118733400D01*
X145652600Y-118733400D01*
X145652600Y-119558963D01*
X145826731Y-119707629D01*
X146005526Y-119645840D01*
X146061510Y-119732841D01*
X146273710Y-119877831D01*
X146525600Y-119928840D01*
X146525600Y-122645000D01*
X144889629Y-122645000D01*
X145238363Y-122473768D01*
X145525602Y-122133078D01*
X145660600Y-121708400D01*
X145660600Y-121433400D01*
X144652600Y-121433400D01*
X144652600Y-121179400D01*
X145660600Y-121179400D01*
X145660600Y-120904400D01*
X145525602Y-120479722D01*
X145238363Y-120139032D01*
X145224469Y-120132210D01*
X145224469Y-119707629D01*
X145398600Y-119558963D01*
X145398600Y-118733400D01*
X144432866Y-118733400D01*
X144432866Y-118479400D01*
X145398600Y-118479400D01*
X145398600Y-117653837D01*
X145224469Y-117505171D01*
X144814551Y-117646832D01*
X144490048Y-117934579D01*
X144306332Y-118308462D01*
X144432866Y-118479400D01*
X144432866Y-118733400D01*
X144306332Y-118904338D01*
X144490048Y-119278221D01*
X144814551Y-119565968D01*
X145224469Y-119707629D01*
X145224469Y-120132210D01*
X144827474Y-119937281D01*
X144652600Y-120063446D01*
X144652600Y-121179400D01*
X144652600Y-121433400D01*
X144652600Y-121453400D01*
X144398600Y-121453400D01*
X144398600Y-121433400D01*
X143390600Y-121433400D01*
X143390600Y-121179400D01*
X144398600Y-121179400D01*
X144398600Y-120063446D01*
X144223726Y-119937281D01*
X143812837Y-120139032D01*
X143525598Y-120479722D01*
X143390600Y-120904400D01*
X143390600Y-121179400D01*
X143390600Y-121433400D01*
X143390600Y-121708400D01*
X143525598Y-122133078D01*
X143812837Y-122473768D01*
X144161571Y-122645000D01*
X132261434Y-122645000D01*
X132261434Y-122511857D01*
X133230258Y-122111547D01*
X133972142Y-121370957D01*
X134374142Y-120402833D01*
X134375057Y-119354566D01*
X133974747Y-118385742D01*
X133234157Y-117643858D01*
X132266033Y-117241858D01*
X131217766Y-117240943D01*
X130248942Y-117641253D01*
X129507058Y-118381843D01*
X129105058Y-119349967D01*
X129104143Y-120398234D01*
X129504453Y-121367058D01*
X130245043Y-122108942D01*
X131213167Y-122510942D01*
X132261434Y-122511857D01*
X132261434Y-122645000D01*
X127802776Y-122645000D01*
X127853226Y-86119294D01*
M02*
