G04 #@! TF.FileFunction,Copper,L2,Bot,Signal*
%FSLAX46Y46*%
G04 Gerber Fmt 4.6, Leading zero omitted, Abs format (unit mm)*
G04 Created by KiCad (PCBNEW (2015-07-31 BZR 6030)-product) date Sat Sep 12 09:45:30 2015*
%MOMM*%
G01*
G04 APERTURE LIST*
%ADD10C,0.100000*%
%ADD11C,4.000000*%
%ADD12O,1.250000X0.950000*%
%ADD13O,1.000000X1.550000*%
%ADD14R,2.032000X1.727200*%
%ADD15O,2.032000X1.727200*%
%ADD16R,1.397000X1.397000*%
%ADD17C,1.397000*%
%ADD18C,0.700000*%
%ADD19C,0.635000*%
%ADD20C,0.250000*%
%ADD21C,0.254000*%
G04 APERTURE END LIST*
D10*
D11*
X169077600Y-118454000D03*
X175427600Y-89244000D03*
X131028400Y-88786800D03*
D12*
X145525600Y-118606400D03*
X150525600Y-118606400D03*
D13*
X144525600Y-121306400D03*
X151525600Y-121306400D03*
D14*
X175300600Y-106389000D03*
D15*
X175300600Y-108929000D03*
X175300600Y-111469000D03*
X175300600Y-114009000D03*
D16*
X142255200Y-98083200D03*
D17*
X144795200Y-98083200D03*
X147335200Y-98083200D03*
X149875200Y-98083200D03*
X152415200Y-98083200D03*
X154955200Y-98083200D03*
X157495200Y-98083200D03*
X160035200Y-98083200D03*
X162575200Y-98083200D03*
X165115200Y-98083200D03*
X165115200Y-90463200D03*
X162575200Y-90463200D03*
X160035200Y-90463200D03*
X157495200Y-90463200D03*
X154955200Y-90463200D03*
X152415200Y-90463200D03*
X149875200Y-90463200D03*
X147335200Y-90463200D03*
X144795200Y-90463200D03*
X142255200Y-90463200D03*
D11*
X131739600Y-119876400D03*
D18*
X156846800Y-104126600D03*
X168950600Y-108292200D03*
X172760600Y-103849000D03*
X145455600Y-110986400D03*
X159425600Y-113526400D03*
X131485600Y-107176400D03*
X151805600Y-103366400D03*
X159425600Y-105906400D03*
X141645600Y-104636400D03*
X137835600Y-105906400D03*
X167680600Y-106389000D03*
X163870600Y-110199000D03*
X140375600Y-114500718D03*
X140375600Y-105906400D03*
X155615600Y-107176400D03*
X150535600Y-105906400D03*
X155615600Y-104636400D03*
X147995600Y-103366400D03*
X149316400Y-100521600D03*
X148198800Y-104585600D03*
D19*
X156885600Y-113526400D02*
X156885600Y-104165400D01*
X156885600Y-104165400D02*
X156846800Y-104126600D01*
X159425600Y-113526400D02*
X164353200Y-113526400D01*
X164353200Y-113526400D02*
X168950600Y-108929000D01*
X172760600Y-103849000D02*
X168950600Y-107659000D01*
X168950600Y-107659000D02*
X168950600Y-108292200D01*
X168950600Y-108292200D02*
X168950600Y-108929000D01*
X145455600Y-110986400D02*
X147995600Y-113526400D01*
X147995600Y-113526400D02*
X156885600Y-113526400D01*
X156885600Y-113526400D02*
X159425600Y-113526400D01*
X140375600Y-105906400D02*
X140375600Y-114500718D01*
D20*
X151805600Y-107176400D02*
X155615600Y-107176400D01*
X150535600Y-105906400D02*
X151805600Y-107176400D01*
X149265600Y-104636400D02*
X155615600Y-104636400D01*
X147995600Y-103366400D02*
X149265600Y-104636400D01*
X147741600Y-100521600D02*
X149316400Y-100521600D01*
X146522400Y-101740800D02*
X147741600Y-100521600D01*
X146522400Y-102909200D02*
X146522400Y-101740800D01*
X148198800Y-104585600D02*
X146522400Y-102909200D01*
D21*
G36*
X127853226Y-86119293D02*
X178348073Y-85917112D01*
X178196722Y-122645000D01*
X175115855Y-122645000D01*
X175115855Y-115507600D01*
X175485345Y-115507600D01*
X176058834Y-115393526D01*
X176545015Y-115068670D01*
X176869871Y-114582489D01*
X176983945Y-114009000D01*
X176869871Y-113435511D01*
X176545015Y-112949330D01*
X176230234Y-112739000D01*
X176545015Y-112528670D01*
X176869871Y-112042489D01*
X176983945Y-111469000D01*
X176869871Y-110895511D01*
X176545015Y-110409330D01*
X176230234Y-110199000D01*
X176545015Y-109988670D01*
X176869871Y-109502489D01*
X176983945Y-108929000D01*
X176869871Y-108355511D01*
X176545015Y-107869330D01*
X176530687Y-107859757D01*
X176551917Y-107855762D01*
X176768041Y-107716690D01*
X176913031Y-107504490D01*
X176964040Y-107252600D01*
X176964040Y-105525400D01*
X176919762Y-105290083D01*
X176780690Y-105073959D01*
X176568490Y-104928969D01*
X176316600Y-104877960D01*
X175949434Y-104877960D01*
X175949434Y-91879457D01*
X176918258Y-91479147D01*
X177660142Y-90738557D01*
X178062142Y-89770433D01*
X178063057Y-88722166D01*
X177662747Y-87753342D01*
X176922157Y-87011458D01*
X175954033Y-86609458D01*
X174905766Y-86608543D01*
X173936942Y-87008853D01*
X173195058Y-87749443D01*
X172793058Y-88717567D01*
X172792143Y-89765834D01*
X173192453Y-90734658D01*
X173933043Y-91476542D01*
X174901167Y-91878542D01*
X175949434Y-91879457D01*
X175949434Y-104877960D01*
X174284600Y-104877960D01*
X174049283Y-104922238D01*
X173833159Y-105061310D01*
X173688169Y-105273510D01*
X173637160Y-105525400D01*
X173637160Y-107252600D01*
X173681438Y-107487917D01*
X173820510Y-107704041D01*
X174032710Y-107849031D01*
X174074039Y-107857400D01*
X174056185Y-107869330D01*
X173731329Y-108355511D01*
X173617255Y-108929000D01*
X173731329Y-109502489D01*
X174056185Y-109988670D01*
X174370966Y-110199000D01*
X174056185Y-110409330D01*
X173731329Y-110895511D01*
X173617255Y-111469000D01*
X173731329Y-112042489D01*
X174056185Y-112528670D01*
X174370966Y-112739000D01*
X174056185Y-112949330D01*
X173731329Y-113435511D01*
X173617255Y-114009000D01*
X173731329Y-114582489D01*
X174056185Y-115068670D01*
X174542366Y-115393526D01*
X175115855Y-115507600D01*
X175115855Y-122645000D01*
X169599434Y-122645000D01*
X169599434Y-121089457D01*
X170568258Y-120689147D01*
X171310142Y-119948557D01*
X171712142Y-118980433D01*
X171713057Y-117932166D01*
X171312747Y-116963342D01*
X170572157Y-116221458D01*
X169604033Y-115819458D01*
X168555766Y-115818543D01*
X167586942Y-116218853D01*
X166845058Y-116959443D01*
X166443058Y-117927567D01*
X166442143Y-118975834D01*
X166842453Y-119944658D01*
X167583043Y-120686542D01*
X168551167Y-121088542D01*
X169599434Y-121089457D01*
X169599434Y-122645000D01*
X159620669Y-122645000D01*
X159620669Y-114511570D01*
X159699737Y-114478900D01*
X164353200Y-114478900D01*
X164717706Y-114406395D01*
X165026719Y-114199919D01*
X169624119Y-109602520D01*
X169785155Y-109361512D01*
X169830595Y-109293506D01*
X169903100Y-108929000D01*
X169903100Y-108566843D01*
X169935428Y-108488988D01*
X169935770Y-108097131D01*
X169913472Y-108043166D01*
X173239916Y-104716722D01*
X173317829Y-104684529D01*
X173595155Y-104407686D01*
X173745428Y-104045788D01*
X173745770Y-103653931D01*
X173596129Y-103291771D01*
X173319286Y-103014445D01*
X172957388Y-102864172D01*
X172565531Y-102863830D01*
X172203371Y-103013471D01*
X171926045Y-103290314D01*
X171893237Y-103369325D01*
X168277081Y-106985481D01*
X168070605Y-107294494D01*
X167998100Y-107659000D01*
X167998100Y-108017557D01*
X167965772Y-108095412D01*
X167965430Y-108487269D01*
X167988780Y-108543781D01*
X163958662Y-112573900D01*
X159700243Y-112573900D01*
X159622388Y-112541572D01*
X159230531Y-112541230D01*
X159151463Y-112573900D01*
X157838100Y-112573900D01*
X157838100Y-104165400D01*
X157831794Y-104133695D01*
X157831970Y-103931531D01*
X157682329Y-103569371D01*
X157405486Y-103292045D01*
X157043588Y-103141772D01*
X156651731Y-103141430D01*
X156289571Y-103291071D01*
X156012245Y-103567914D01*
X155953224Y-103710052D01*
X155812388Y-103651572D01*
X155420531Y-103651230D01*
X155058371Y-103800871D01*
X154982710Y-103876400D01*
X149580402Y-103876400D01*
X148980678Y-103276676D01*
X148980770Y-103171331D01*
X148831129Y-102809171D01*
X148554286Y-102531845D01*
X148192388Y-102381572D01*
X147800531Y-102381230D01*
X147438371Y-102530871D01*
X147328526Y-102640524D01*
X147282400Y-102594398D01*
X147282400Y-102055602D01*
X148056402Y-101281600D01*
X148683289Y-101281600D01*
X148757714Y-101356155D01*
X149119612Y-101506428D01*
X149511469Y-101506770D01*
X149873629Y-101357129D01*
X150150955Y-101080286D01*
X150301228Y-100718388D01*
X150301570Y-100326531D01*
X150151929Y-99964371D01*
X149875086Y-99687045D01*
X149513188Y-99536772D01*
X149121331Y-99536430D01*
X148759171Y-99686071D01*
X148683510Y-99761600D01*
X147741600Y-99761600D01*
X147450761Y-99819452D01*
X147450760Y-99819452D01*
X147204199Y-99984199D01*
X145984999Y-101203399D01*
X145820252Y-101449961D01*
X145762400Y-101740800D01*
X145762400Y-102909200D01*
X145820252Y-103200039D01*
X145984999Y-103446601D01*
X147213722Y-104675324D01*
X147213630Y-104780669D01*
X147363271Y-105142829D01*
X147640114Y-105420155D01*
X148002012Y-105570428D01*
X148393869Y-105570770D01*
X148756029Y-105421129D01*
X148893288Y-105284109D01*
X148974761Y-105338548D01*
X149265600Y-105396400D01*
X149680829Y-105396400D01*
X149550772Y-105709612D01*
X149550430Y-106101469D01*
X149700071Y-106463629D01*
X149976914Y-106740955D01*
X150338812Y-106891228D01*
X150445719Y-106891321D01*
X151268199Y-107713801D01*
X151514761Y-107878548D01*
X151805600Y-107936400D01*
X154982489Y-107936400D01*
X155056914Y-108010955D01*
X155418812Y-108161228D01*
X155810669Y-108161570D01*
X155933100Y-108110983D01*
X155933100Y-112573900D01*
X148390138Y-112573900D01*
X146323321Y-110507082D01*
X146291129Y-110429171D01*
X146014286Y-110151845D01*
X145652388Y-110001572D01*
X145260531Y-110001230D01*
X144898371Y-110150871D01*
X144621045Y-110427714D01*
X144470772Y-110789612D01*
X144470430Y-111181469D01*
X144620071Y-111543629D01*
X144896914Y-111820955D01*
X144975924Y-111853763D01*
X147322081Y-114199919D01*
X147631094Y-114406395D01*
X147995600Y-114478900D01*
X159150957Y-114478900D01*
X159228812Y-114511228D01*
X159620669Y-114511570D01*
X159620669Y-122645000D01*
X151889629Y-122645000D01*
X152238363Y-122473768D01*
X152525602Y-122133078D01*
X152660600Y-121708400D01*
X152660600Y-121433400D01*
X151652600Y-121433400D01*
X151652600Y-121179400D01*
X152660600Y-121179400D01*
X152660600Y-120904400D01*
X152525602Y-120479722D01*
X152238363Y-120139032D01*
X151827474Y-119937281D01*
X151652600Y-120063446D01*
X151652600Y-121179400D01*
X151652600Y-121433400D01*
X151652600Y-121453400D01*
X151398600Y-121453400D01*
X151398600Y-121433400D01*
X150390600Y-121433400D01*
X150390600Y-121179400D01*
X151398600Y-121179400D01*
X151398600Y-120063446D01*
X151223726Y-119937281D01*
X150826731Y-120132209D01*
X150826731Y-119707629D01*
X151236649Y-119565968D01*
X151561152Y-119278221D01*
X151744868Y-118904338D01*
X151618334Y-118733400D01*
X150652600Y-118733400D01*
X150652600Y-118479400D01*
X151618334Y-118479400D01*
X151744868Y-118308462D01*
X151561152Y-117934579D01*
X151236649Y-117646832D01*
X150826731Y-117505171D01*
X150652600Y-117653837D01*
X150652600Y-118479400D01*
X150652600Y-118733400D01*
X150652600Y-119558963D01*
X150826731Y-119707629D01*
X150826731Y-120132209D01*
X150812837Y-120139032D01*
X150525598Y-120479722D01*
X150390600Y-120904400D01*
X150390600Y-121179400D01*
X150390600Y-121433400D01*
X150390600Y-121708400D01*
X150525598Y-122133078D01*
X150812837Y-122473768D01*
X151161571Y-122645000D01*
X150224469Y-122645000D01*
X150224469Y-119707629D01*
X150398600Y-119558963D01*
X150398600Y-118733400D01*
X149432866Y-118733400D01*
X149432866Y-118479400D01*
X150398600Y-118479400D01*
X150398600Y-117653837D01*
X150224469Y-117505171D01*
X149814551Y-117646832D01*
X149490048Y-117934579D01*
X149306332Y-118308462D01*
X149432866Y-118479400D01*
X149432866Y-118733400D01*
X149306332Y-118904338D01*
X149490048Y-119278221D01*
X149814551Y-119565968D01*
X150224469Y-119707629D01*
X150224469Y-122645000D01*
X145826731Y-122645000D01*
X145826731Y-119707629D01*
X146236649Y-119565968D01*
X146561152Y-119278221D01*
X146744868Y-118904338D01*
X146618334Y-118733400D01*
X145652600Y-118733400D01*
X145652600Y-118479400D01*
X146618334Y-118479400D01*
X146744868Y-118308462D01*
X146561152Y-117934579D01*
X146236649Y-117646832D01*
X145826731Y-117505171D01*
X145652600Y-117653837D01*
X145652600Y-118479400D01*
X145652600Y-118733400D01*
X145652600Y-119558963D01*
X145826731Y-119707629D01*
X145826731Y-122645000D01*
X144889629Y-122645000D01*
X145238363Y-122473768D01*
X145525602Y-122133078D01*
X145660600Y-121708400D01*
X145660600Y-121433400D01*
X144652600Y-121433400D01*
X144652600Y-121179400D01*
X145660600Y-121179400D01*
X145660600Y-120904400D01*
X145525602Y-120479722D01*
X145238363Y-120139032D01*
X145224469Y-120132210D01*
X145224469Y-119707629D01*
X145398600Y-119558963D01*
X145398600Y-118733400D01*
X144432866Y-118733400D01*
X144432866Y-118479400D01*
X145398600Y-118479400D01*
X145398600Y-117653837D01*
X145224469Y-117505171D01*
X144814551Y-117646832D01*
X144490048Y-117934579D01*
X144306332Y-118308462D01*
X144432866Y-118479400D01*
X144432866Y-118733400D01*
X144306332Y-118904338D01*
X144490048Y-119278221D01*
X144814551Y-119565968D01*
X145224469Y-119707629D01*
X145224469Y-120132210D01*
X144827474Y-119937281D01*
X144652600Y-120063446D01*
X144652600Y-121179400D01*
X144652600Y-121433400D01*
X144652600Y-121453400D01*
X144398600Y-121453400D01*
X144398600Y-121433400D01*
X143390600Y-121433400D01*
X143390600Y-121179400D01*
X144398600Y-121179400D01*
X144398600Y-120063446D01*
X144223726Y-119937281D01*
X143812837Y-120139032D01*
X143525598Y-120479722D01*
X143390600Y-120904400D01*
X143390600Y-121179400D01*
X143390600Y-121433400D01*
X143390600Y-121708400D01*
X143525598Y-122133078D01*
X143812837Y-122473768D01*
X144161571Y-122645000D01*
X141556700Y-122645000D01*
X141556700Y-99429140D01*
X142953700Y-99429140D01*
X143189017Y-99384862D01*
X143405141Y-99245790D01*
X143550131Y-99033590D01*
X143601140Y-98781700D01*
X143601140Y-98685316D01*
X143664054Y-98837580D01*
X144038847Y-99213027D01*
X144528787Y-99416468D01*
X145059286Y-99416931D01*
X145549580Y-99214346D01*
X145925027Y-98839553D01*
X146065294Y-98501754D01*
X146204054Y-98837580D01*
X146578847Y-99213027D01*
X147068787Y-99416468D01*
X147599286Y-99416931D01*
X148089580Y-99214346D01*
X148465027Y-98839553D01*
X148605294Y-98501754D01*
X148744054Y-98837580D01*
X149118847Y-99213027D01*
X149608787Y-99416468D01*
X150139286Y-99416931D01*
X150629580Y-99214346D01*
X151005027Y-98839553D01*
X151145294Y-98501754D01*
X151284054Y-98837580D01*
X151658847Y-99213027D01*
X152148787Y-99416468D01*
X152679286Y-99416931D01*
X153169580Y-99214346D01*
X153545027Y-98839553D01*
X153685294Y-98501754D01*
X153824054Y-98837580D01*
X154198847Y-99213027D01*
X154688787Y-99416468D01*
X155219286Y-99416931D01*
X155709580Y-99214346D01*
X156085027Y-98839553D01*
X156225294Y-98501754D01*
X156364054Y-98837580D01*
X156738847Y-99213027D01*
X157228787Y-99416468D01*
X157759286Y-99416931D01*
X158249580Y-99214346D01*
X158625027Y-98839553D01*
X158765294Y-98501754D01*
X158904054Y-98837580D01*
X159278847Y-99213027D01*
X159768787Y-99416468D01*
X160299286Y-99416931D01*
X160789580Y-99214346D01*
X161165027Y-98839553D01*
X161305294Y-98501754D01*
X161444054Y-98837580D01*
X161818847Y-99213027D01*
X162308787Y-99416468D01*
X162839286Y-99416931D01*
X163329580Y-99214346D01*
X163705027Y-98839553D01*
X163845294Y-98501754D01*
X163984054Y-98837580D01*
X164358847Y-99213027D01*
X164848787Y-99416468D01*
X165379286Y-99416931D01*
X165869580Y-99214346D01*
X166245027Y-98839553D01*
X166448468Y-98349613D01*
X166448931Y-97819114D01*
X166246346Y-97328820D01*
X165871553Y-96953373D01*
X165381613Y-96749932D01*
X164851114Y-96749469D01*
X164360820Y-96952054D01*
X163985373Y-97326847D01*
X163845106Y-97664646D01*
X163706346Y-97328820D01*
X163331553Y-96953373D01*
X162841613Y-96749932D01*
X162311114Y-96749469D01*
X161820820Y-96952054D01*
X161445373Y-97326847D01*
X161305106Y-97664646D01*
X161166346Y-97328820D01*
X160791553Y-96953373D01*
X160301613Y-96749932D01*
X159771114Y-96749469D01*
X159280820Y-96952054D01*
X158905373Y-97326847D01*
X158765106Y-97664646D01*
X158626346Y-97328820D01*
X158251553Y-96953373D01*
X157761613Y-96749932D01*
X157231114Y-96749469D01*
X156740820Y-96952054D01*
X156365373Y-97326847D01*
X156225106Y-97664646D01*
X156086346Y-97328820D01*
X155711553Y-96953373D01*
X155221613Y-96749932D01*
X154691114Y-96749469D01*
X154200820Y-96952054D01*
X153825373Y-97326847D01*
X153685106Y-97664646D01*
X153546346Y-97328820D01*
X153171553Y-96953373D01*
X152681613Y-96749932D01*
X152151114Y-96749469D01*
X151660820Y-96952054D01*
X151285373Y-97326847D01*
X151145106Y-97664646D01*
X151006346Y-97328820D01*
X150631553Y-96953373D01*
X150141613Y-96749932D01*
X149611114Y-96749469D01*
X149120820Y-96952054D01*
X148745373Y-97326847D01*
X148605106Y-97664646D01*
X148466346Y-97328820D01*
X148091553Y-96953373D01*
X147601613Y-96749932D01*
X147071114Y-96749469D01*
X146580820Y-96952054D01*
X146205373Y-97326847D01*
X146065106Y-97664646D01*
X145926346Y-97328820D01*
X145551553Y-96953373D01*
X145061613Y-96749932D01*
X145059286Y-96749930D01*
X145059286Y-91796931D01*
X145549580Y-91594346D01*
X145925027Y-91219553D01*
X146065294Y-90881754D01*
X146204054Y-91217580D01*
X146578847Y-91593027D01*
X147068787Y-91796468D01*
X147599286Y-91796931D01*
X148089580Y-91594346D01*
X148465027Y-91219553D01*
X148605294Y-90881754D01*
X148744054Y-91217580D01*
X149118847Y-91593027D01*
X149608787Y-91796468D01*
X150139286Y-91796931D01*
X150629580Y-91594346D01*
X151005027Y-91219553D01*
X151145294Y-90881754D01*
X151284054Y-91217580D01*
X151658847Y-91593027D01*
X152148787Y-91796468D01*
X152679286Y-91796931D01*
X153169580Y-91594346D01*
X153545027Y-91219553D01*
X153685294Y-90881754D01*
X153824054Y-91217580D01*
X154198847Y-91593027D01*
X154688787Y-91796468D01*
X155219286Y-91796931D01*
X155709580Y-91594346D01*
X156085027Y-91219553D01*
X156225294Y-90881754D01*
X156364054Y-91217580D01*
X156738847Y-91593027D01*
X157228787Y-91796468D01*
X157759286Y-91796931D01*
X158249580Y-91594346D01*
X158625027Y-91219553D01*
X158765294Y-90881754D01*
X158904054Y-91217580D01*
X159278847Y-91593027D01*
X159768787Y-91796468D01*
X160299286Y-91796931D01*
X160789580Y-91594346D01*
X161165027Y-91219553D01*
X161305294Y-90881754D01*
X161444054Y-91217580D01*
X161818847Y-91593027D01*
X162308787Y-91796468D01*
X162839286Y-91796931D01*
X163329580Y-91594346D01*
X163705027Y-91219553D01*
X163845294Y-90881754D01*
X163984054Y-91217580D01*
X164358847Y-91593027D01*
X164848787Y-91796468D01*
X165379286Y-91796931D01*
X165869580Y-91594346D01*
X166245027Y-91219553D01*
X166448468Y-90729613D01*
X166448931Y-90199114D01*
X166246346Y-89708820D01*
X165871553Y-89333373D01*
X165381613Y-89129932D01*
X164851114Y-89129469D01*
X164360820Y-89332054D01*
X163985373Y-89706847D01*
X163845106Y-90044646D01*
X163706346Y-89708820D01*
X163331553Y-89333373D01*
X162841613Y-89129932D01*
X162311114Y-89129469D01*
X161820820Y-89332054D01*
X161445373Y-89706847D01*
X161305106Y-90044646D01*
X161166346Y-89708820D01*
X160791553Y-89333373D01*
X160301613Y-89129932D01*
X159771114Y-89129469D01*
X159280820Y-89332054D01*
X158905373Y-89706847D01*
X158765106Y-90044646D01*
X158626346Y-89708820D01*
X158251553Y-89333373D01*
X157761613Y-89129932D01*
X157231114Y-89129469D01*
X156740820Y-89332054D01*
X156365373Y-89706847D01*
X156225106Y-90044646D01*
X156086346Y-89708820D01*
X155711553Y-89333373D01*
X155221613Y-89129932D01*
X154691114Y-89129469D01*
X154200820Y-89332054D01*
X153825373Y-89706847D01*
X153685106Y-90044646D01*
X153546346Y-89708820D01*
X153171553Y-89333373D01*
X152681613Y-89129932D01*
X152151114Y-89129469D01*
X151660820Y-89332054D01*
X151285373Y-89706847D01*
X151145106Y-90044646D01*
X151006346Y-89708820D01*
X150631553Y-89333373D01*
X150141613Y-89129932D01*
X149611114Y-89129469D01*
X149120820Y-89332054D01*
X148745373Y-89706847D01*
X148605106Y-90044646D01*
X148466346Y-89708820D01*
X148091553Y-89333373D01*
X147601613Y-89129932D01*
X147071114Y-89129469D01*
X146580820Y-89332054D01*
X146205373Y-89706847D01*
X146065106Y-90044646D01*
X145926346Y-89708820D01*
X145551553Y-89333373D01*
X145061613Y-89129932D01*
X144531114Y-89129469D01*
X144040820Y-89332054D01*
X143665373Y-89706847D01*
X143531886Y-90028318D01*
X143425000Y-89770271D01*
X143189388Y-89708617D01*
X142434805Y-90463200D01*
X143189388Y-91217783D01*
X143425000Y-91156129D01*
X143523283Y-90876888D01*
X143664054Y-91217580D01*
X144038847Y-91593027D01*
X144528787Y-91796468D01*
X145059286Y-91796931D01*
X145059286Y-96749930D01*
X144531114Y-96749469D01*
X144040820Y-96952054D01*
X143665373Y-97326847D01*
X143601140Y-97481537D01*
X143601140Y-97384700D01*
X143556862Y-97149383D01*
X143417790Y-96933259D01*
X143205590Y-96788269D01*
X142953700Y-96737260D01*
X142062680Y-96737260D01*
X142062680Y-91809127D01*
X142592399Y-91780348D01*
X142948129Y-91633000D01*
X143009783Y-91397388D01*
X142255200Y-90642805D01*
X142255200Y-90283595D01*
X143009783Y-89529012D01*
X142948129Y-89293400D01*
X142447720Y-89117273D01*
X141918001Y-89146052D01*
X141562271Y-89293400D01*
X141500617Y-89529012D01*
X142255200Y-90283595D01*
X142255200Y-90642805D01*
X141500617Y-91397388D01*
X141562271Y-91633000D01*
X142062680Y-91809127D01*
X142062680Y-96737260D01*
X141556700Y-96737260D01*
X141321383Y-96781538D01*
X141321012Y-96781776D01*
X141321012Y-91217783D01*
X142075595Y-90463200D01*
X141321012Y-89708617D01*
X141085400Y-89770271D01*
X140909273Y-90270680D01*
X140938052Y-90800399D01*
X141085400Y-91156129D01*
X141321012Y-91217783D01*
X141321012Y-96781776D01*
X141105259Y-96920610D01*
X140960269Y-97132810D01*
X140909260Y-97384700D01*
X140909260Y-98781700D01*
X140953538Y-99017017D01*
X141092610Y-99233141D01*
X141304810Y-99378131D01*
X141556700Y-99429140D01*
X141556700Y-122645000D01*
X140570669Y-122645000D01*
X140570669Y-115485888D01*
X140932829Y-115336247D01*
X141210155Y-115059404D01*
X141360428Y-114697506D01*
X141360770Y-114305649D01*
X141328100Y-114226581D01*
X141328100Y-106181043D01*
X141360428Y-106103188D01*
X141360770Y-105711331D01*
X141211129Y-105349171D01*
X140934286Y-105071845D01*
X140572388Y-104921572D01*
X140180531Y-104921230D01*
X139818371Y-105070871D01*
X139541045Y-105347714D01*
X139390772Y-105709612D01*
X139390430Y-106101469D01*
X139423100Y-106180537D01*
X139423100Y-114226075D01*
X139390772Y-114303930D01*
X139390430Y-114695787D01*
X139540071Y-115057947D01*
X139816914Y-115335273D01*
X140178812Y-115485546D01*
X140570669Y-115485888D01*
X140570669Y-122645000D01*
X132261434Y-122645000D01*
X132261434Y-122511857D01*
X133230258Y-122111547D01*
X133972142Y-121370957D01*
X134374142Y-120402833D01*
X134375057Y-119354566D01*
X133974747Y-118385742D01*
X133234157Y-117643858D01*
X132266033Y-117241858D01*
X131550234Y-117241234D01*
X131550234Y-91422257D01*
X132519058Y-91021947D01*
X133260942Y-90281357D01*
X133662942Y-89313233D01*
X133663857Y-88264966D01*
X133263547Y-87296142D01*
X132522957Y-86554258D01*
X131554833Y-86152258D01*
X130506566Y-86151343D01*
X129537742Y-86551653D01*
X128795858Y-87292243D01*
X128393858Y-88260367D01*
X128392943Y-89308634D01*
X128793253Y-90277458D01*
X129533843Y-91019342D01*
X130501967Y-91421342D01*
X131550234Y-91422257D01*
X131550234Y-117241234D01*
X131217766Y-117240943D01*
X130248942Y-117641253D01*
X129507058Y-118381843D01*
X129105058Y-119349967D01*
X129104143Y-120398234D01*
X129504453Y-121367058D01*
X130245043Y-122108942D01*
X131213167Y-122510942D01*
X132261434Y-122511857D01*
X132261434Y-122645000D01*
X127802776Y-122645000D01*
X127853226Y-86119293D01*
X127853226Y-86119293D01*
G37*
X127853226Y-86119293D02*
X178348073Y-85917112D01*
X178196722Y-122645000D01*
X175115855Y-122645000D01*
X175115855Y-115507600D01*
X175485345Y-115507600D01*
X176058834Y-115393526D01*
X176545015Y-115068670D01*
X176869871Y-114582489D01*
X176983945Y-114009000D01*
X176869871Y-113435511D01*
X176545015Y-112949330D01*
X176230234Y-112739000D01*
X176545015Y-112528670D01*
X176869871Y-112042489D01*
X176983945Y-111469000D01*
X176869871Y-110895511D01*
X176545015Y-110409330D01*
X176230234Y-110199000D01*
X176545015Y-109988670D01*
X176869871Y-109502489D01*
X176983945Y-108929000D01*
X176869871Y-108355511D01*
X176545015Y-107869330D01*
X176530687Y-107859757D01*
X176551917Y-107855762D01*
X176768041Y-107716690D01*
X176913031Y-107504490D01*
X176964040Y-107252600D01*
X176964040Y-105525400D01*
X176919762Y-105290083D01*
X176780690Y-105073959D01*
X176568490Y-104928969D01*
X176316600Y-104877960D01*
X175949434Y-104877960D01*
X175949434Y-91879457D01*
X176918258Y-91479147D01*
X177660142Y-90738557D01*
X178062142Y-89770433D01*
X178063057Y-88722166D01*
X177662747Y-87753342D01*
X176922157Y-87011458D01*
X175954033Y-86609458D01*
X174905766Y-86608543D01*
X173936942Y-87008853D01*
X173195058Y-87749443D01*
X172793058Y-88717567D01*
X172792143Y-89765834D01*
X173192453Y-90734658D01*
X173933043Y-91476542D01*
X174901167Y-91878542D01*
X175949434Y-91879457D01*
X175949434Y-104877960D01*
X174284600Y-104877960D01*
X174049283Y-104922238D01*
X173833159Y-105061310D01*
X173688169Y-105273510D01*
X173637160Y-105525400D01*
X173637160Y-107252600D01*
X173681438Y-107487917D01*
X173820510Y-107704041D01*
X174032710Y-107849031D01*
X174074039Y-107857400D01*
X174056185Y-107869330D01*
X173731329Y-108355511D01*
X173617255Y-108929000D01*
X173731329Y-109502489D01*
X174056185Y-109988670D01*
X174370966Y-110199000D01*
X174056185Y-110409330D01*
X173731329Y-110895511D01*
X173617255Y-111469000D01*
X173731329Y-112042489D01*
X174056185Y-112528670D01*
X174370966Y-112739000D01*
X174056185Y-112949330D01*
X173731329Y-113435511D01*
X173617255Y-114009000D01*
X173731329Y-114582489D01*
X174056185Y-115068670D01*
X174542366Y-115393526D01*
X175115855Y-115507600D01*
X175115855Y-122645000D01*
X169599434Y-122645000D01*
X169599434Y-121089457D01*
X170568258Y-120689147D01*
X171310142Y-119948557D01*
X171712142Y-118980433D01*
X171713057Y-117932166D01*
X171312747Y-116963342D01*
X170572157Y-116221458D01*
X169604033Y-115819458D01*
X168555766Y-115818543D01*
X167586942Y-116218853D01*
X166845058Y-116959443D01*
X166443058Y-117927567D01*
X166442143Y-118975834D01*
X166842453Y-119944658D01*
X167583043Y-120686542D01*
X168551167Y-121088542D01*
X169599434Y-121089457D01*
X169599434Y-122645000D01*
X159620669Y-122645000D01*
X159620669Y-114511570D01*
X159699737Y-114478900D01*
X164353200Y-114478900D01*
X164717706Y-114406395D01*
X165026719Y-114199919D01*
X169624119Y-109602520D01*
X169785155Y-109361512D01*
X169830595Y-109293506D01*
X169903100Y-108929000D01*
X169903100Y-108566843D01*
X169935428Y-108488988D01*
X169935770Y-108097131D01*
X169913472Y-108043166D01*
X173239916Y-104716722D01*
X173317829Y-104684529D01*
X173595155Y-104407686D01*
X173745428Y-104045788D01*
X173745770Y-103653931D01*
X173596129Y-103291771D01*
X173319286Y-103014445D01*
X172957388Y-102864172D01*
X172565531Y-102863830D01*
X172203371Y-103013471D01*
X171926045Y-103290314D01*
X171893237Y-103369325D01*
X168277081Y-106985481D01*
X168070605Y-107294494D01*
X167998100Y-107659000D01*
X167998100Y-108017557D01*
X167965772Y-108095412D01*
X167965430Y-108487269D01*
X167988780Y-108543781D01*
X163958662Y-112573900D01*
X159700243Y-112573900D01*
X159622388Y-112541572D01*
X159230531Y-112541230D01*
X159151463Y-112573900D01*
X157838100Y-112573900D01*
X157838100Y-104165400D01*
X157831794Y-104133695D01*
X157831970Y-103931531D01*
X157682329Y-103569371D01*
X157405486Y-103292045D01*
X157043588Y-103141772D01*
X156651731Y-103141430D01*
X156289571Y-103291071D01*
X156012245Y-103567914D01*
X155953224Y-103710052D01*
X155812388Y-103651572D01*
X155420531Y-103651230D01*
X155058371Y-103800871D01*
X154982710Y-103876400D01*
X149580402Y-103876400D01*
X148980678Y-103276676D01*
X148980770Y-103171331D01*
X148831129Y-102809171D01*
X148554286Y-102531845D01*
X148192388Y-102381572D01*
X147800531Y-102381230D01*
X147438371Y-102530871D01*
X147328526Y-102640524D01*
X147282400Y-102594398D01*
X147282400Y-102055602D01*
X148056402Y-101281600D01*
X148683289Y-101281600D01*
X148757714Y-101356155D01*
X149119612Y-101506428D01*
X149511469Y-101506770D01*
X149873629Y-101357129D01*
X150150955Y-101080286D01*
X150301228Y-100718388D01*
X150301570Y-100326531D01*
X150151929Y-99964371D01*
X149875086Y-99687045D01*
X149513188Y-99536772D01*
X149121331Y-99536430D01*
X148759171Y-99686071D01*
X148683510Y-99761600D01*
X147741600Y-99761600D01*
X147450761Y-99819452D01*
X147450760Y-99819452D01*
X147204199Y-99984199D01*
X145984999Y-101203399D01*
X145820252Y-101449961D01*
X145762400Y-101740800D01*
X145762400Y-102909200D01*
X145820252Y-103200039D01*
X145984999Y-103446601D01*
X147213722Y-104675324D01*
X147213630Y-104780669D01*
X147363271Y-105142829D01*
X147640114Y-105420155D01*
X148002012Y-105570428D01*
X148393869Y-105570770D01*
X148756029Y-105421129D01*
X148893288Y-105284109D01*
X148974761Y-105338548D01*
X149265600Y-105396400D01*
X149680829Y-105396400D01*
X149550772Y-105709612D01*
X149550430Y-106101469D01*
X149700071Y-106463629D01*
X149976914Y-106740955D01*
X150338812Y-106891228D01*
X150445719Y-106891321D01*
X151268199Y-107713801D01*
X151514761Y-107878548D01*
X151805600Y-107936400D01*
X154982489Y-107936400D01*
X155056914Y-108010955D01*
X155418812Y-108161228D01*
X155810669Y-108161570D01*
X155933100Y-108110983D01*
X155933100Y-112573900D01*
X148390138Y-112573900D01*
X146323321Y-110507082D01*
X146291129Y-110429171D01*
X146014286Y-110151845D01*
X145652388Y-110001572D01*
X145260531Y-110001230D01*
X144898371Y-110150871D01*
X144621045Y-110427714D01*
X144470772Y-110789612D01*
X144470430Y-111181469D01*
X144620071Y-111543629D01*
X144896914Y-111820955D01*
X144975924Y-111853763D01*
X147322081Y-114199919D01*
X147631094Y-114406395D01*
X147995600Y-114478900D01*
X159150957Y-114478900D01*
X159228812Y-114511228D01*
X159620669Y-114511570D01*
X159620669Y-122645000D01*
X151889629Y-122645000D01*
X152238363Y-122473768D01*
X152525602Y-122133078D01*
X152660600Y-121708400D01*
X152660600Y-121433400D01*
X151652600Y-121433400D01*
X151652600Y-121179400D01*
X152660600Y-121179400D01*
X152660600Y-120904400D01*
X152525602Y-120479722D01*
X152238363Y-120139032D01*
X151827474Y-119937281D01*
X151652600Y-120063446D01*
X151652600Y-121179400D01*
X151652600Y-121433400D01*
X151652600Y-121453400D01*
X151398600Y-121453400D01*
X151398600Y-121433400D01*
X150390600Y-121433400D01*
X150390600Y-121179400D01*
X151398600Y-121179400D01*
X151398600Y-120063446D01*
X151223726Y-119937281D01*
X150826731Y-120132209D01*
X150826731Y-119707629D01*
X151236649Y-119565968D01*
X151561152Y-119278221D01*
X151744868Y-118904338D01*
X151618334Y-118733400D01*
X150652600Y-118733400D01*
X150652600Y-118479400D01*
X151618334Y-118479400D01*
X151744868Y-118308462D01*
X151561152Y-117934579D01*
X151236649Y-117646832D01*
X150826731Y-117505171D01*
X150652600Y-117653837D01*
X150652600Y-118479400D01*
X150652600Y-118733400D01*
X150652600Y-119558963D01*
X150826731Y-119707629D01*
X150826731Y-120132209D01*
X150812837Y-120139032D01*
X150525598Y-120479722D01*
X150390600Y-120904400D01*
X150390600Y-121179400D01*
X150390600Y-121433400D01*
X150390600Y-121708400D01*
X150525598Y-122133078D01*
X150812837Y-122473768D01*
X151161571Y-122645000D01*
X150224469Y-122645000D01*
X150224469Y-119707629D01*
X150398600Y-119558963D01*
X150398600Y-118733400D01*
X149432866Y-118733400D01*
X149432866Y-118479400D01*
X150398600Y-118479400D01*
X150398600Y-117653837D01*
X150224469Y-117505171D01*
X149814551Y-117646832D01*
X149490048Y-117934579D01*
X149306332Y-118308462D01*
X149432866Y-118479400D01*
X149432866Y-118733400D01*
X149306332Y-118904338D01*
X149490048Y-119278221D01*
X149814551Y-119565968D01*
X150224469Y-119707629D01*
X150224469Y-122645000D01*
X145826731Y-122645000D01*
X145826731Y-119707629D01*
X146236649Y-119565968D01*
X146561152Y-119278221D01*
X146744868Y-118904338D01*
X146618334Y-118733400D01*
X145652600Y-118733400D01*
X145652600Y-118479400D01*
X146618334Y-118479400D01*
X146744868Y-118308462D01*
X146561152Y-117934579D01*
X146236649Y-117646832D01*
X145826731Y-117505171D01*
X145652600Y-117653837D01*
X145652600Y-118479400D01*
X145652600Y-118733400D01*
X145652600Y-119558963D01*
X145826731Y-119707629D01*
X145826731Y-122645000D01*
X144889629Y-122645000D01*
X145238363Y-122473768D01*
X145525602Y-122133078D01*
X145660600Y-121708400D01*
X145660600Y-121433400D01*
X144652600Y-121433400D01*
X144652600Y-121179400D01*
X145660600Y-121179400D01*
X145660600Y-120904400D01*
X145525602Y-120479722D01*
X145238363Y-120139032D01*
X145224469Y-120132210D01*
X145224469Y-119707629D01*
X145398600Y-119558963D01*
X145398600Y-118733400D01*
X144432866Y-118733400D01*
X144432866Y-118479400D01*
X145398600Y-118479400D01*
X145398600Y-117653837D01*
X145224469Y-117505171D01*
X144814551Y-117646832D01*
X144490048Y-117934579D01*
X144306332Y-118308462D01*
X144432866Y-118479400D01*
X144432866Y-118733400D01*
X144306332Y-118904338D01*
X144490048Y-119278221D01*
X144814551Y-119565968D01*
X145224469Y-119707629D01*
X145224469Y-120132210D01*
X144827474Y-119937281D01*
X144652600Y-120063446D01*
X144652600Y-121179400D01*
X144652600Y-121433400D01*
X144652600Y-121453400D01*
X144398600Y-121453400D01*
X144398600Y-121433400D01*
X143390600Y-121433400D01*
X143390600Y-121179400D01*
X144398600Y-121179400D01*
X144398600Y-120063446D01*
X144223726Y-119937281D01*
X143812837Y-120139032D01*
X143525598Y-120479722D01*
X143390600Y-120904400D01*
X143390600Y-121179400D01*
X143390600Y-121433400D01*
X143390600Y-121708400D01*
X143525598Y-122133078D01*
X143812837Y-122473768D01*
X144161571Y-122645000D01*
X141556700Y-122645000D01*
X141556700Y-99429140D01*
X142953700Y-99429140D01*
X143189017Y-99384862D01*
X143405141Y-99245790D01*
X143550131Y-99033590D01*
X143601140Y-98781700D01*
X143601140Y-98685316D01*
X143664054Y-98837580D01*
X144038847Y-99213027D01*
X144528787Y-99416468D01*
X145059286Y-99416931D01*
X145549580Y-99214346D01*
X145925027Y-98839553D01*
X146065294Y-98501754D01*
X146204054Y-98837580D01*
X146578847Y-99213027D01*
X147068787Y-99416468D01*
X147599286Y-99416931D01*
X148089580Y-99214346D01*
X148465027Y-98839553D01*
X148605294Y-98501754D01*
X148744054Y-98837580D01*
X149118847Y-99213027D01*
X149608787Y-99416468D01*
X150139286Y-99416931D01*
X150629580Y-99214346D01*
X151005027Y-98839553D01*
X151145294Y-98501754D01*
X151284054Y-98837580D01*
X151658847Y-99213027D01*
X152148787Y-99416468D01*
X152679286Y-99416931D01*
X153169580Y-99214346D01*
X153545027Y-98839553D01*
X153685294Y-98501754D01*
X153824054Y-98837580D01*
X154198847Y-99213027D01*
X154688787Y-99416468D01*
X155219286Y-99416931D01*
X155709580Y-99214346D01*
X156085027Y-98839553D01*
X156225294Y-98501754D01*
X156364054Y-98837580D01*
X156738847Y-99213027D01*
X157228787Y-99416468D01*
X157759286Y-99416931D01*
X158249580Y-99214346D01*
X158625027Y-98839553D01*
X158765294Y-98501754D01*
X158904054Y-98837580D01*
X159278847Y-99213027D01*
X159768787Y-99416468D01*
X160299286Y-99416931D01*
X160789580Y-99214346D01*
X161165027Y-98839553D01*
X161305294Y-98501754D01*
X161444054Y-98837580D01*
X161818847Y-99213027D01*
X162308787Y-99416468D01*
X162839286Y-99416931D01*
X163329580Y-99214346D01*
X163705027Y-98839553D01*
X163845294Y-98501754D01*
X163984054Y-98837580D01*
X164358847Y-99213027D01*
X164848787Y-99416468D01*
X165379286Y-99416931D01*
X165869580Y-99214346D01*
X166245027Y-98839553D01*
X166448468Y-98349613D01*
X166448931Y-97819114D01*
X166246346Y-97328820D01*
X165871553Y-96953373D01*
X165381613Y-96749932D01*
X164851114Y-96749469D01*
X164360820Y-96952054D01*
X163985373Y-97326847D01*
X163845106Y-97664646D01*
X163706346Y-97328820D01*
X163331553Y-96953373D01*
X162841613Y-96749932D01*
X162311114Y-96749469D01*
X161820820Y-96952054D01*
X161445373Y-97326847D01*
X161305106Y-97664646D01*
X161166346Y-97328820D01*
X160791553Y-96953373D01*
X160301613Y-96749932D01*
X159771114Y-96749469D01*
X159280820Y-96952054D01*
X158905373Y-97326847D01*
X158765106Y-97664646D01*
X158626346Y-97328820D01*
X158251553Y-96953373D01*
X157761613Y-96749932D01*
X157231114Y-96749469D01*
X156740820Y-96952054D01*
X156365373Y-97326847D01*
X156225106Y-97664646D01*
X156086346Y-97328820D01*
X155711553Y-96953373D01*
X155221613Y-96749932D01*
X154691114Y-96749469D01*
X154200820Y-96952054D01*
X153825373Y-97326847D01*
X153685106Y-97664646D01*
X153546346Y-97328820D01*
X153171553Y-96953373D01*
X152681613Y-96749932D01*
X152151114Y-96749469D01*
X151660820Y-96952054D01*
X151285373Y-97326847D01*
X151145106Y-97664646D01*
X151006346Y-97328820D01*
X150631553Y-96953373D01*
X150141613Y-96749932D01*
X149611114Y-96749469D01*
X149120820Y-96952054D01*
X148745373Y-97326847D01*
X148605106Y-97664646D01*
X148466346Y-97328820D01*
X148091553Y-96953373D01*
X147601613Y-96749932D01*
X147071114Y-96749469D01*
X146580820Y-96952054D01*
X146205373Y-97326847D01*
X146065106Y-97664646D01*
X145926346Y-97328820D01*
X145551553Y-96953373D01*
X145061613Y-96749932D01*
X145059286Y-96749930D01*
X145059286Y-91796931D01*
X145549580Y-91594346D01*
X145925027Y-91219553D01*
X146065294Y-90881754D01*
X146204054Y-91217580D01*
X146578847Y-91593027D01*
X147068787Y-91796468D01*
X147599286Y-91796931D01*
X148089580Y-91594346D01*
X148465027Y-91219553D01*
X148605294Y-90881754D01*
X148744054Y-91217580D01*
X149118847Y-91593027D01*
X149608787Y-91796468D01*
X150139286Y-91796931D01*
X150629580Y-91594346D01*
X151005027Y-91219553D01*
X151145294Y-90881754D01*
X151284054Y-91217580D01*
X151658847Y-91593027D01*
X152148787Y-91796468D01*
X152679286Y-91796931D01*
X153169580Y-91594346D01*
X153545027Y-91219553D01*
X153685294Y-90881754D01*
X153824054Y-91217580D01*
X154198847Y-91593027D01*
X154688787Y-91796468D01*
X155219286Y-91796931D01*
X155709580Y-91594346D01*
X156085027Y-91219553D01*
X156225294Y-90881754D01*
X156364054Y-91217580D01*
X156738847Y-91593027D01*
X157228787Y-91796468D01*
X157759286Y-91796931D01*
X158249580Y-91594346D01*
X158625027Y-91219553D01*
X158765294Y-90881754D01*
X158904054Y-91217580D01*
X159278847Y-91593027D01*
X159768787Y-91796468D01*
X160299286Y-91796931D01*
X160789580Y-91594346D01*
X161165027Y-91219553D01*
X161305294Y-90881754D01*
X161444054Y-91217580D01*
X161818847Y-91593027D01*
X162308787Y-91796468D01*
X162839286Y-91796931D01*
X163329580Y-91594346D01*
X163705027Y-91219553D01*
X163845294Y-90881754D01*
X163984054Y-91217580D01*
X164358847Y-91593027D01*
X164848787Y-91796468D01*
X165379286Y-91796931D01*
X165869580Y-91594346D01*
X166245027Y-91219553D01*
X166448468Y-90729613D01*
X166448931Y-90199114D01*
X166246346Y-89708820D01*
X165871553Y-89333373D01*
X165381613Y-89129932D01*
X164851114Y-89129469D01*
X164360820Y-89332054D01*
X163985373Y-89706847D01*
X163845106Y-90044646D01*
X163706346Y-89708820D01*
X163331553Y-89333373D01*
X162841613Y-89129932D01*
X162311114Y-89129469D01*
X161820820Y-89332054D01*
X161445373Y-89706847D01*
X161305106Y-90044646D01*
X161166346Y-89708820D01*
X160791553Y-89333373D01*
X160301613Y-89129932D01*
X159771114Y-89129469D01*
X159280820Y-89332054D01*
X158905373Y-89706847D01*
X158765106Y-90044646D01*
X158626346Y-89708820D01*
X158251553Y-89333373D01*
X157761613Y-89129932D01*
X157231114Y-89129469D01*
X156740820Y-89332054D01*
X156365373Y-89706847D01*
X156225106Y-90044646D01*
X156086346Y-89708820D01*
X155711553Y-89333373D01*
X155221613Y-89129932D01*
X154691114Y-89129469D01*
X154200820Y-89332054D01*
X153825373Y-89706847D01*
X153685106Y-90044646D01*
X153546346Y-89708820D01*
X153171553Y-89333373D01*
X152681613Y-89129932D01*
X152151114Y-89129469D01*
X151660820Y-89332054D01*
X151285373Y-89706847D01*
X151145106Y-90044646D01*
X151006346Y-89708820D01*
X150631553Y-89333373D01*
X150141613Y-89129932D01*
X149611114Y-89129469D01*
X149120820Y-89332054D01*
X148745373Y-89706847D01*
X148605106Y-90044646D01*
X148466346Y-89708820D01*
X148091553Y-89333373D01*
X147601613Y-89129932D01*
X147071114Y-89129469D01*
X146580820Y-89332054D01*
X146205373Y-89706847D01*
X146065106Y-90044646D01*
X145926346Y-89708820D01*
X145551553Y-89333373D01*
X145061613Y-89129932D01*
X144531114Y-89129469D01*
X144040820Y-89332054D01*
X143665373Y-89706847D01*
X143531886Y-90028318D01*
X143425000Y-89770271D01*
X143189388Y-89708617D01*
X142434805Y-90463200D01*
X143189388Y-91217783D01*
X143425000Y-91156129D01*
X143523283Y-90876888D01*
X143664054Y-91217580D01*
X144038847Y-91593027D01*
X144528787Y-91796468D01*
X145059286Y-91796931D01*
X145059286Y-96749930D01*
X144531114Y-96749469D01*
X144040820Y-96952054D01*
X143665373Y-97326847D01*
X143601140Y-97481537D01*
X143601140Y-97384700D01*
X143556862Y-97149383D01*
X143417790Y-96933259D01*
X143205590Y-96788269D01*
X142953700Y-96737260D01*
X142062680Y-96737260D01*
X142062680Y-91809127D01*
X142592399Y-91780348D01*
X142948129Y-91633000D01*
X143009783Y-91397388D01*
X142255200Y-90642805D01*
X142255200Y-90283595D01*
X143009783Y-89529012D01*
X142948129Y-89293400D01*
X142447720Y-89117273D01*
X141918001Y-89146052D01*
X141562271Y-89293400D01*
X141500617Y-89529012D01*
X142255200Y-90283595D01*
X142255200Y-90642805D01*
X141500617Y-91397388D01*
X141562271Y-91633000D01*
X142062680Y-91809127D01*
X142062680Y-96737260D01*
X141556700Y-96737260D01*
X141321383Y-96781538D01*
X141321012Y-96781776D01*
X141321012Y-91217783D01*
X142075595Y-90463200D01*
X141321012Y-89708617D01*
X141085400Y-89770271D01*
X140909273Y-90270680D01*
X140938052Y-90800399D01*
X141085400Y-91156129D01*
X141321012Y-91217783D01*
X141321012Y-96781776D01*
X141105259Y-96920610D01*
X140960269Y-97132810D01*
X140909260Y-97384700D01*
X140909260Y-98781700D01*
X140953538Y-99017017D01*
X141092610Y-99233141D01*
X141304810Y-99378131D01*
X141556700Y-99429140D01*
X141556700Y-122645000D01*
X140570669Y-122645000D01*
X140570669Y-115485888D01*
X140932829Y-115336247D01*
X141210155Y-115059404D01*
X141360428Y-114697506D01*
X141360770Y-114305649D01*
X141328100Y-114226581D01*
X141328100Y-106181043D01*
X141360428Y-106103188D01*
X141360770Y-105711331D01*
X141211129Y-105349171D01*
X140934286Y-105071845D01*
X140572388Y-104921572D01*
X140180531Y-104921230D01*
X139818371Y-105070871D01*
X139541045Y-105347714D01*
X139390772Y-105709612D01*
X139390430Y-106101469D01*
X139423100Y-106180537D01*
X139423100Y-114226075D01*
X139390772Y-114303930D01*
X139390430Y-114695787D01*
X139540071Y-115057947D01*
X139816914Y-115335273D01*
X140178812Y-115485546D01*
X140570669Y-115485888D01*
X140570669Y-122645000D01*
X132261434Y-122645000D01*
X132261434Y-122511857D01*
X133230258Y-122111547D01*
X133972142Y-121370957D01*
X134374142Y-120402833D01*
X134375057Y-119354566D01*
X133974747Y-118385742D01*
X133234157Y-117643858D01*
X132266033Y-117241858D01*
X131550234Y-117241234D01*
X131550234Y-91422257D01*
X132519058Y-91021947D01*
X133260942Y-90281357D01*
X133662942Y-89313233D01*
X133663857Y-88264966D01*
X133263547Y-87296142D01*
X132522957Y-86554258D01*
X131554833Y-86152258D01*
X130506566Y-86151343D01*
X129537742Y-86551653D01*
X128795858Y-87292243D01*
X128393858Y-88260367D01*
X128392943Y-89308634D01*
X128793253Y-90277458D01*
X129533843Y-91019342D01*
X130501967Y-91421342D01*
X131550234Y-91422257D01*
X131550234Y-117241234D01*
X131217766Y-117240943D01*
X130248942Y-117641253D01*
X129507058Y-118381843D01*
X129105058Y-119349967D01*
X129104143Y-120398234D01*
X129504453Y-121367058D01*
X130245043Y-122108942D01*
X131213167Y-122510942D01*
X132261434Y-122511857D01*
X132261434Y-122645000D01*
X127802776Y-122645000D01*
X127853226Y-86119293D01*
M02*
