%FSLAX45Y45*%
G04 Gerber Fmt 4.5, Leading zero omitted, Abs format (unit mm)*
G04 Created by KiCad (PCBNEW (2015-07-31 BZR 6030)-product) date Sat Sep 12 09:45:32 2015*
%MOMM*%
G01*
G04 APERTURE LIST*
%ADD10C,0.127000*%
%ADD11C,0.100000*%
%ADD12C,0.200000*%
%ADD13C,0.300000*%
G04 APERTURE END LIST*
D10*
D11*
X12502060Y-12543720D02*
X12502060Y-8317160D01*
X12669700Y-12543720D02*
X12502060Y-12543720D01*
X18100220Y-12543720D02*
X12669700Y-12543720D01*
X18100220Y-8317160D02*
X18100220Y-12543720D01*
X12507140Y-8317160D02*
X18100220Y-8317160D01*
D12*
X13133560Y-10702640D02*
X13163560Y-10732640D01*
X13163560Y-10702640D02*
X13133560Y-10732640D01*
X13768560Y-10575640D02*
X13798560Y-10605640D01*
X13798560Y-10575640D02*
X13768560Y-10605640D01*
X14022560Y-10575640D02*
X14052560Y-10605640D01*
X14052560Y-10575640D02*
X14022560Y-10605640D01*
X14022560Y-11435072D02*
X14052560Y-11465072D01*
X14052560Y-11435072D02*
X14022560Y-11465072D01*
X14149560Y-10448640D02*
X14179560Y-10478640D01*
X14179560Y-10448640D02*
X14149560Y-10478640D01*
X14530560Y-11083640D02*
X14560560Y-11113640D01*
X14560560Y-11083640D02*
X14530560Y-11113640D01*
X14784560Y-10321640D02*
X14814560Y-10351640D01*
X14814560Y-10321640D02*
X14784560Y-10351640D01*
X14804880Y-10443560D02*
X14834880Y-10473560D01*
X14834880Y-10443560D02*
X14804880Y-10473560D01*
X14916640Y-10037160D02*
X14946640Y-10067160D01*
X14946640Y-10037160D02*
X14916640Y-10067160D01*
X15038560Y-10575640D02*
X15068560Y-10605640D01*
X15068560Y-10575640D02*
X15038560Y-10605640D01*
X15165560Y-10321640D02*
X15195560Y-10351640D01*
X15195560Y-10321640D02*
X15165560Y-10351640D01*
X15546560Y-10448640D02*
X15576560Y-10478640D01*
X15576560Y-10448640D02*
X15546560Y-10478640D01*
X15546560Y-10702640D02*
X15576560Y-10732640D01*
X15576560Y-10702640D02*
X15546560Y-10732640D01*
X15669680Y-10397660D02*
X15699680Y-10427660D01*
X15699680Y-10397660D02*
X15669680Y-10427660D01*
X15927560Y-10575640D02*
X15957560Y-10605640D01*
X15957560Y-10575640D02*
X15927560Y-10605640D01*
X15927560Y-11337640D02*
X15957560Y-11367640D01*
X15957560Y-11337640D02*
X15927560Y-11367640D01*
X16372060Y-11004900D02*
X16402060Y-11034900D01*
X16402060Y-11004900D02*
X16372060Y-11034900D01*
X16753060Y-10623900D02*
X16783060Y-10653900D01*
X16783060Y-10623900D02*
X16753060Y-10653900D01*
X16880060Y-10814220D02*
X16910060Y-10844220D01*
X16910060Y-10814220D02*
X16880060Y-10844220D01*
X17261060Y-10369900D02*
X17291060Y-10399900D01*
X17291060Y-10369900D02*
X17261060Y-10399900D01*
X14477560Y-12130640D02*
G75*
G03X14477560Y-12130640I-25000J0D01*
G01*
X14467560Y-12163140D02*
X14467560Y-12098140D01*
X14437560Y-12163140D02*
X14437560Y-12098140D01*
X14467560Y-12098140D02*
G75*
G03X14437560Y-12098140I-15000J0D01*
G01*
X14437560Y-12163140D02*
G75*
G03X14467560Y-12163140I15000J0D01*
G01*
X15177560Y-12130640D02*
G75*
G03X15177560Y-12130640I-25000J0D01*
G01*
X15167560Y-12163140D02*
X15167560Y-12098140D01*
X15137560Y-12163140D02*
X15137560Y-12098140D01*
X15167560Y-12098140D02*
G75*
G03X15137560Y-12098140I-15000J0D01*
G01*
X15137560Y-12163140D02*
G75*
G03X15167560Y-12163140I15000J0D01*
G01*
X14552560Y-11833140D02*
X14552560Y-11888140D01*
X14525060Y-11860640D02*
X14580060Y-11860640D01*
X14537560Y-11878140D02*
X14567560Y-11878140D01*
X14537560Y-11843140D02*
X14567560Y-11843140D01*
X14567560Y-11878140D02*
G75*
G03X14567560Y-11843140I0J17500D01*
G01*
X14537560Y-11843140D02*
G75*
G03X14537560Y-11878140I0J-17500D01*
G01*
X15052560Y-11833140D02*
X15052560Y-11888140D01*
X15025060Y-11860640D02*
X15080060Y-11860640D01*
X15037560Y-11878140D02*
X15067560Y-11878140D01*
X15037560Y-11843140D02*
X15067560Y-11843140D01*
X15067560Y-11878140D02*
G75*
G03X15067560Y-11843140I0J17500D01*
G01*
X15037560Y-11843140D02*
G75*
G03X15037560Y-11878140I0J-17500D01*
G01*
X14254257Y-9075057D02*
X14254257Y-9017583D01*
X14196783Y-9017583D01*
X14196783Y-9075057D01*
X14254257Y-9075057D01*
X14254257Y-9837057D02*
X14254257Y-9779583D01*
X14196783Y-9779583D01*
X14196783Y-9837057D01*
X14254257Y-9837057D01*
X14508257Y-9075057D02*
X14508257Y-9017583D01*
X14450783Y-9017583D01*
X14450783Y-9075057D01*
X14508257Y-9075057D01*
X14508257Y-9837057D02*
X14508257Y-9779583D01*
X14450783Y-9779583D01*
X14450783Y-9837057D01*
X14508257Y-9837057D01*
X14762257Y-9075057D02*
X14762257Y-9017583D01*
X14704783Y-9017583D01*
X14704783Y-9075057D01*
X14762257Y-9075057D01*
X14762257Y-9837057D02*
X14762257Y-9779583D01*
X14704783Y-9779583D01*
X14704783Y-9837057D01*
X14762257Y-9837057D01*
X15016257Y-9075057D02*
X15016257Y-9017583D01*
X14958783Y-9017583D01*
X14958783Y-9075057D01*
X15016257Y-9075057D01*
X15016257Y-9837057D02*
X15016257Y-9779583D01*
X14958783Y-9779583D01*
X14958783Y-9837057D01*
X15016257Y-9837057D01*
X15270257Y-9075057D02*
X15270257Y-9017583D01*
X15212783Y-9017583D01*
X15212783Y-9075057D01*
X15270257Y-9075057D01*
X15270257Y-9837057D02*
X15270257Y-9779583D01*
X15212783Y-9779583D01*
X15212783Y-9837057D01*
X15270257Y-9837057D01*
X15524257Y-9075057D02*
X15524257Y-9017583D01*
X15466783Y-9017583D01*
X15466783Y-9075057D01*
X15524257Y-9075057D01*
X15524257Y-9837057D02*
X15524257Y-9779583D01*
X15466783Y-9779583D01*
X15466783Y-9837057D01*
X15524257Y-9837057D01*
X15778257Y-9075057D02*
X15778257Y-9017583D01*
X15720783Y-9017583D01*
X15720783Y-9075057D01*
X15778257Y-9075057D01*
X15778257Y-9837057D02*
X15778257Y-9779583D01*
X15720783Y-9779583D01*
X15720783Y-9837057D01*
X15778257Y-9837057D01*
X16032257Y-9075057D02*
X16032257Y-9017583D01*
X15974783Y-9017583D01*
X15974783Y-9075057D01*
X16032257Y-9075057D01*
X16032257Y-9837057D02*
X16032257Y-9779583D01*
X15974783Y-9779583D01*
X15974783Y-9837057D01*
X16032257Y-9837057D01*
X16286257Y-9075057D02*
X16286257Y-9017583D01*
X16228783Y-9017583D01*
X16228783Y-9075057D01*
X16286257Y-9075057D01*
X16286257Y-9837057D02*
X16286257Y-9779583D01*
X16228783Y-9779583D01*
X16228783Y-9837057D01*
X16286257Y-9837057D01*
X16540257Y-9075057D02*
X16540257Y-9017583D01*
X16482783Y-9017583D01*
X16482783Y-9075057D01*
X16540257Y-9075057D01*
X16540257Y-9837057D02*
X16540257Y-9779583D01*
X16482783Y-9779583D01*
X16482783Y-9837057D01*
X16540257Y-9837057D01*
X17530060Y-10689700D02*
X17580860Y-10638900D01*
X17530060Y-10588100D01*
X17479260Y-10638900D01*
X17530060Y-10689700D01*
X17530060Y-10943700D02*
X17580860Y-10892900D01*
X17530060Y-10842100D01*
X17479260Y-10892900D01*
X17530060Y-10943700D01*
X17530060Y-11197700D02*
X17580860Y-11146900D01*
X17530060Y-11096100D01*
X17479260Y-11146900D01*
X17530060Y-11197700D01*
X17530060Y-11451700D02*
X17580860Y-11400900D01*
X17530060Y-11350100D01*
X17479260Y-11400900D01*
X17530060Y-11451700D01*
X12952840Y-8728680D02*
X13252840Y-9028680D01*
X13252840Y-8728680D02*
X12952840Y-9028680D01*
X13252840Y-8878680D02*
G75*
G03X13252840Y-8878680I-150000J0D01*
G01*
X13023960Y-11837640D02*
X13323960Y-12137640D01*
X13323960Y-11837640D02*
X13023960Y-12137640D01*
X13323960Y-11987640D02*
G75*
G03X13323960Y-11987640I-150000J0D01*
G01*
X16757760Y-11695400D02*
X17057760Y-11995400D01*
X17057760Y-11695400D02*
X16757760Y-11995400D01*
X17057760Y-11845400D02*
G75*
G03X17057760Y-11845400I-150000J0D01*
G01*
X17392760Y-8774400D02*
X17692760Y-9074400D01*
X17692760Y-8774400D02*
X17392760Y-9074400D01*
X17692760Y-8924400D02*
G75*
G03X17692760Y-8924400I-150000J0D01*
G01*
D13*
X12768488Y-13014434D02*
X12768488Y-12714434D01*
X12839917Y-12714434D01*
X12882774Y-12728720D01*
X12911346Y-12757291D01*
X12925631Y-12785863D01*
X12939917Y-12843006D01*
X12939917Y-12885863D01*
X12925631Y-12943006D01*
X12911346Y-12971577D01*
X12882774Y-13000149D01*
X12839917Y-13014434D01*
X12768488Y-13014434D01*
X13068488Y-13014434D02*
X13068488Y-12814434D01*
X13068488Y-12871577D02*
X13082774Y-12843006D01*
X13097060Y-12828720D01*
X13125631Y-12814434D01*
X13154203Y-12814434D01*
X13254203Y-13014434D02*
X13254203Y-12814434D01*
X13254203Y-12714434D02*
X13239917Y-12728720D01*
X13254203Y-12743006D01*
X13268488Y-12728720D01*
X13254203Y-12714434D01*
X13254203Y-12743006D01*
X13439917Y-13014434D02*
X13411346Y-13000149D01*
X13397060Y-12971577D01*
X13397060Y-12714434D01*
X13597060Y-13014434D02*
X13568488Y-13000149D01*
X13554203Y-12971577D01*
X13554203Y-12714434D01*
X13939917Y-13014434D02*
X13939917Y-12714434D01*
X14039917Y-12928720D01*
X14139917Y-12714434D01*
X14139917Y-13014434D01*
X14411346Y-13014434D02*
X14411346Y-12857291D01*
X14397060Y-12828720D01*
X14368488Y-12814434D01*
X14311346Y-12814434D01*
X14282774Y-12828720D01*
X14411346Y-13000149D02*
X14382774Y-13014434D01*
X14311346Y-13014434D01*
X14282774Y-13000149D01*
X14268488Y-12971577D01*
X14268488Y-12943006D01*
X14282774Y-12914434D01*
X14311346Y-12900149D01*
X14382774Y-12900149D01*
X14411346Y-12885863D01*
X14554203Y-12814434D02*
X14554203Y-13114434D01*
X14554203Y-12828720D02*
X14582774Y-12814434D01*
X14639917Y-12814434D01*
X14668488Y-12828720D01*
X14682774Y-12843006D01*
X14697060Y-12871577D01*
X14697060Y-12957291D01*
X14682774Y-12985863D01*
X14668488Y-13000149D01*
X14639917Y-13014434D01*
X14582774Y-13014434D01*
X14554203Y-13000149D01*
X14825631Y-12985863D02*
X14839917Y-13000149D01*
X14825631Y-13014434D01*
X14811346Y-13000149D01*
X14825631Y-12985863D01*
X14825631Y-13014434D01*
X14825631Y-12828720D02*
X14839917Y-12843006D01*
X14825631Y-12857291D01*
X14811346Y-12843006D01*
X14825631Y-12828720D01*
X14825631Y-12857291D01*
X12467060Y-13493720D02*
X12497060Y-13523720D01*
X12497060Y-13493720D02*
X12467060Y-13523720D01*
X12825631Y-13344434D02*
X12854203Y-13344434D01*
X12882774Y-13358720D01*
X12897060Y-13373006D01*
X12911346Y-13401577D01*
X12925631Y-13458720D01*
X12925631Y-13530149D01*
X12911346Y-13587291D01*
X12897060Y-13615863D01*
X12882774Y-13630149D01*
X12854203Y-13644434D01*
X12825631Y-13644434D01*
X12797060Y-13630149D01*
X12782774Y-13615863D01*
X12768488Y-13587291D01*
X12754203Y-13530149D01*
X12754203Y-13458720D01*
X12768488Y-13401577D01*
X12782774Y-13373006D01*
X12797060Y-13358720D01*
X12825631Y-13344434D01*
X13054203Y-13615863D02*
X13068488Y-13630149D01*
X13054203Y-13644434D01*
X13039917Y-13630149D01*
X13054203Y-13615863D01*
X13054203Y-13644434D01*
X13168488Y-13344434D02*
X13354203Y-13344434D01*
X13254203Y-13458720D01*
X13297060Y-13458720D01*
X13325631Y-13473006D01*
X13339917Y-13487291D01*
X13354203Y-13515863D01*
X13354203Y-13587291D01*
X13339917Y-13615863D01*
X13325631Y-13630149D01*
X13297060Y-13644434D01*
X13211346Y-13644434D01*
X13182774Y-13630149D01*
X13168488Y-13615863D01*
X13539917Y-13344434D02*
X13568488Y-13344434D01*
X13597060Y-13358720D01*
X13611346Y-13373006D01*
X13625631Y-13401577D01*
X13639917Y-13458720D01*
X13639917Y-13530149D01*
X13625631Y-13587291D01*
X13611346Y-13615863D01*
X13597060Y-13630149D01*
X13568488Y-13644434D01*
X13539917Y-13644434D01*
X13511346Y-13630149D01*
X13497060Y-13615863D01*
X13482774Y-13587291D01*
X13468488Y-13530149D01*
X13468488Y-13458720D01*
X13482774Y-13401577D01*
X13497060Y-13373006D01*
X13511346Y-13358720D01*
X13539917Y-13344434D01*
X13768488Y-13644434D02*
X13768488Y-13444434D01*
X13768488Y-13473006D02*
X13782774Y-13458720D01*
X13811346Y-13444434D01*
X13854203Y-13444434D01*
X13882774Y-13458720D01*
X13897060Y-13487291D01*
X13897060Y-13644434D01*
X13897060Y-13487291D02*
X13911346Y-13458720D01*
X13939917Y-13444434D01*
X13982774Y-13444434D01*
X14011346Y-13458720D01*
X14025631Y-13487291D01*
X14025631Y-13644434D01*
X14168488Y-13644434D02*
X14168488Y-13444434D01*
X14168488Y-13473006D02*
X14182774Y-13458720D01*
X14211346Y-13444434D01*
X14254203Y-13444434D01*
X14282774Y-13458720D01*
X14297060Y-13487291D01*
X14297060Y-13644434D01*
X14297060Y-13487291D02*
X14311346Y-13458720D01*
X14339917Y-13444434D01*
X14382774Y-13444434D01*
X14411346Y-13458720D01*
X14425631Y-13487291D01*
X14425631Y-13644434D01*
X15011346Y-13330149D02*
X14754203Y-13715863D01*
X15397060Y-13344434D02*
X15425631Y-13344434D01*
X15454203Y-13358720D01*
X15468488Y-13373006D01*
X15482774Y-13401577D01*
X15497060Y-13458720D01*
X15497060Y-13530149D01*
X15482774Y-13587291D01*
X15468488Y-13615863D01*
X15454203Y-13630149D01*
X15425631Y-13644434D01*
X15397060Y-13644434D01*
X15368488Y-13630149D01*
X15354203Y-13615863D01*
X15339917Y-13587291D01*
X15325631Y-13530149D01*
X15325631Y-13458720D01*
X15339917Y-13401577D01*
X15354203Y-13373006D01*
X15368488Y-13358720D01*
X15397060Y-13344434D01*
X15625631Y-13615863D02*
X15639917Y-13630149D01*
X15625631Y-13644434D01*
X15611346Y-13630149D01*
X15625631Y-13615863D01*
X15625631Y-13644434D01*
X15825631Y-13344434D02*
X15854203Y-13344434D01*
X15882774Y-13358720D01*
X15897060Y-13373006D01*
X15911345Y-13401577D01*
X15925631Y-13458720D01*
X15925631Y-13530149D01*
X15911345Y-13587291D01*
X15897060Y-13615863D01*
X15882774Y-13630149D01*
X15854203Y-13644434D01*
X15825631Y-13644434D01*
X15797060Y-13630149D01*
X15782774Y-13615863D01*
X15768488Y-13587291D01*
X15754203Y-13530149D01*
X15754203Y-13458720D01*
X15768488Y-13401577D01*
X15782774Y-13373006D01*
X15797060Y-13358720D01*
X15825631Y-13344434D01*
X16211345Y-13644434D02*
X16039917Y-13644434D01*
X16125631Y-13644434D02*
X16125631Y-13344434D01*
X16097060Y-13387291D01*
X16068488Y-13415863D01*
X16039917Y-13430149D01*
X16325631Y-13373006D02*
X16339917Y-13358720D01*
X16368488Y-13344434D01*
X16439917Y-13344434D01*
X16468488Y-13358720D01*
X16482774Y-13373006D01*
X16497060Y-13401577D01*
X16497060Y-13430149D01*
X16482774Y-13473006D01*
X16311345Y-13644434D01*
X16497060Y-13644434D01*
X16611346Y-13344434D02*
X16611346Y-13401577D01*
X16725631Y-13344434D02*
X16725631Y-13401577D01*
X17168488Y-13758720D02*
X17154203Y-13744434D01*
X17125631Y-13701577D01*
X17111346Y-13673006D01*
X17097060Y-13630149D01*
X17082774Y-13558720D01*
X17082774Y-13501577D01*
X17097060Y-13430149D01*
X17111346Y-13387291D01*
X17125631Y-13358720D01*
X17154203Y-13315863D01*
X17168488Y-13301577D01*
X17268488Y-13373006D02*
X17282774Y-13358720D01*
X17311346Y-13344434D01*
X17382774Y-13344434D01*
X17411346Y-13358720D01*
X17425631Y-13373006D01*
X17439917Y-13401577D01*
X17439917Y-13430149D01*
X17425631Y-13473006D01*
X17254203Y-13644434D01*
X17439917Y-13644434D01*
X17625631Y-13344434D02*
X17654203Y-13344434D01*
X17682774Y-13358720D01*
X17697060Y-13373006D01*
X17711346Y-13401577D01*
X17725631Y-13458720D01*
X17725631Y-13530149D01*
X17711346Y-13587291D01*
X17697060Y-13615863D01*
X17682774Y-13630149D01*
X17654203Y-13644434D01*
X17625631Y-13644434D01*
X17597060Y-13630149D01*
X17582774Y-13615863D01*
X17568488Y-13587291D01*
X17554203Y-13530149D01*
X17554203Y-13458720D01*
X17568488Y-13401577D01*
X17582774Y-13373006D01*
X17597060Y-13358720D01*
X17625631Y-13344434D01*
X18082774Y-13644434D02*
X18082774Y-13344434D01*
X18211346Y-13644434D02*
X18211346Y-13487291D01*
X18197060Y-13458720D01*
X18168488Y-13444434D01*
X18125631Y-13444434D01*
X18097060Y-13458720D01*
X18082774Y-13473006D01*
X18397060Y-13644434D02*
X18368488Y-13630149D01*
X18354203Y-13615863D01*
X18339917Y-13587291D01*
X18339917Y-13501577D01*
X18354203Y-13473006D01*
X18368488Y-13458720D01*
X18397060Y-13444434D01*
X18439917Y-13444434D01*
X18468488Y-13458720D01*
X18482774Y-13473006D01*
X18497060Y-13501577D01*
X18497060Y-13587291D01*
X18482774Y-13615863D01*
X18468488Y-13630149D01*
X18439917Y-13644434D01*
X18397060Y-13644434D01*
X18668488Y-13644434D02*
X18639917Y-13630149D01*
X18625631Y-13601577D01*
X18625631Y-13344434D01*
X18897060Y-13630149D02*
X18868489Y-13644434D01*
X18811346Y-13644434D01*
X18782774Y-13630149D01*
X18768489Y-13601577D01*
X18768489Y-13487291D01*
X18782774Y-13458720D01*
X18811346Y-13444434D01*
X18868489Y-13444434D01*
X18897060Y-13458720D01*
X18911346Y-13487291D01*
X18911346Y-13515863D01*
X18768489Y-13544434D01*
X19025631Y-13630149D02*
X19054203Y-13644434D01*
X19111346Y-13644434D01*
X19139917Y-13630149D01*
X19154203Y-13601577D01*
X19154203Y-13587291D01*
X19139917Y-13558720D01*
X19111346Y-13544434D01*
X19068489Y-13544434D01*
X19039917Y-13530149D01*
X19025631Y-13501577D01*
X19025631Y-13487291D01*
X19039917Y-13458720D01*
X19068489Y-13444434D01*
X19111346Y-13444434D01*
X19139917Y-13458720D01*
X19254203Y-13758720D02*
X19268489Y-13744434D01*
X19297060Y-13701577D01*
X19311346Y-13673006D01*
X19325631Y-13630149D01*
X19339917Y-13558720D01*
X19339917Y-13501577D01*
X19325631Y-13430149D01*
X19311346Y-13387291D01*
X19297060Y-13358720D01*
X19268489Y-13315863D01*
X19254203Y-13301577D01*
X12497060Y-13904720D02*
G75*
G03X12497060Y-13904720I-25000J0D01*
G01*
X12825631Y-13740434D02*
X12854203Y-13740434D01*
X12882774Y-13754720D01*
X12897060Y-13769006D01*
X12911346Y-13797577D01*
X12925631Y-13854720D01*
X12925631Y-13926149D01*
X12911346Y-13983291D01*
X12897060Y-14011863D01*
X12882774Y-14026149D01*
X12854203Y-14040434D01*
X12825631Y-14040434D01*
X12797060Y-14026149D01*
X12782774Y-14011863D01*
X12768488Y-13983291D01*
X12754203Y-13926149D01*
X12754203Y-13854720D01*
X12768488Y-13797577D01*
X12782774Y-13769006D01*
X12797060Y-13754720D01*
X12825631Y-13740434D01*
X13054203Y-14011863D02*
X13068488Y-14026149D01*
X13054203Y-14040434D01*
X13039917Y-14026149D01*
X13054203Y-14011863D01*
X13054203Y-14040434D01*
X13339917Y-13740434D02*
X13197060Y-13740434D01*
X13182774Y-13883291D01*
X13197060Y-13869006D01*
X13225631Y-13854720D01*
X13297060Y-13854720D01*
X13325631Y-13869006D01*
X13339917Y-13883291D01*
X13354203Y-13911863D01*
X13354203Y-13983291D01*
X13339917Y-14011863D01*
X13325631Y-14026149D01*
X13297060Y-14040434D01*
X13225631Y-14040434D01*
X13197060Y-14026149D01*
X13182774Y-14011863D01*
X13539917Y-13740434D02*
X13568488Y-13740434D01*
X13597060Y-13754720D01*
X13611346Y-13769006D01*
X13625631Y-13797577D01*
X13639917Y-13854720D01*
X13639917Y-13926149D01*
X13625631Y-13983291D01*
X13611346Y-14011863D01*
X13597060Y-14026149D01*
X13568488Y-14040434D01*
X13539917Y-14040434D01*
X13511346Y-14026149D01*
X13497060Y-14011863D01*
X13482774Y-13983291D01*
X13468488Y-13926149D01*
X13468488Y-13854720D01*
X13482774Y-13797577D01*
X13497060Y-13769006D01*
X13511346Y-13754720D01*
X13539917Y-13740434D01*
X13768488Y-14040434D02*
X13768488Y-13840434D01*
X13768488Y-13869006D02*
X13782774Y-13854720D01*
X13811346Y-13840434D01*
X13854203Y-13840434D01*
X13882774Y-13854720D01*
X13897060Y-13883291D01*
X13897060Y-14040434D01*
X13897060Y-13883291D02*
X13911346Y-13854720D01*
X13939917Y-13840434D01*
X13982774Y-13840434D01*
X14011346Y-13854720D01*
X14025631Y-13883291D01*
X14025631Y-14040434D01*
X14168488Y-14040434D02*
X14168488Y-13840434D01*
X14168488Y-13869006D02*
X14182774Y-13854720D01*
X14211346Y-13840434D01*
X14254203Y-13840434D01*
X14282774Y-13854720D01*
X14297060Y-13883291D01*
X14297060Y-14040434D01*
X14297060Y-13883291D02*
X14311346Y-13854720D01*
X14339917Y-13840434D01*
X14382774Y-13840434D01*
X14411346Y-13854720D01*
X14425631Y-13883291D01*
X14425631Y-14040434D01*
X15011346Y-13726149D02*
X14754203Y-14111863D01*
X15397060Y-13740434D02*
X15425631Y-13740434D01*
X15454203Y-13754720D01*
X15468488Y-13769006D01*
X15482774Y-13797577D01*
X15497060Y-13854720D01*
X15497060Y-13926149D01*
X15482774Y-13983291D01*
X15468488Y-14011863D01*
X15454203Y-14026149D01*
X15425631Y-14040434D01*
X15397060Y-14040434D01*
X15368488Y-14026149D01*
X15354203Y-14011863D01*
X15339917Y-13983291D01*
X15325631Y-13926149D01*
X15325631Y-13854720D01*
X15339917Y-13797577D01*
X15354203Y-13769006D01*
X15368488Y-13754720D01*
X15397060Y-13740434D01*
X15625631Y-14011863D02*
X15639917Y-14026149D01*
X15625631Y-14040434D01*
X15611346Y-14026149D01*
X15625631Y-14011863D01*
X15625631Y-14040434D01*
X15825631Y-13740434D02*
X15854203Y-13740434D01*
X15882774Y-13754720D01*
X15897060Y-13769006D01*
X15911345Y-13797577D01*
X15925631Y-13854720D01*
X15925631Y-13926149D01*
X15911345Y-13983291D01*
X15897060Y-14011863D01*
X15882774Y-14026149D01*
X15854203Y-14040434D01*
X15825631Y-14040434D01*
X15797060Y-14026149D01*
X15782774Y-14011863D01*
X15768488Y-13983291D01*
X15754203Y-13926149D01*
X15754203Y-13854720D01*
X15768488Y-13797577D01*
X15782774Y-13769006D01*
X15797060Y-13754720D01*
X15825631Y-13740434D01*
X16039917Y-13769006D02*
X16054203Y-13754720D01*
X16082774Y-13740434D01*
X16154203Y-13740434D01*
X16182774Y-13754720D01*
X16197060Y-13769006D01*
X16211345Y-13797577D01*
X16211345Y-13826149D01*
X16197060Y-13869006D01*
X16025631Y-14040434D01*
X16211345Y-14040434D01*
X16397060Y-13740434D02*
X16425631Y-13740434D01*
X16454203Y-13754720D01*
X16468488Y-13769006D01*
X16482774Y-13797577D01*
X16497060Y-13854720D01*
X16497060Y-13926149D01*
X16482774Y-13983291D01*
X16468488Y-14011863D01*
X16454203Y-14026149D01*
X16425631Y-14040434D01*
X16397060Y-14040434D01*
X16368488Y-14026149D01*
X16354203Y-14011863D01*
X16339917Y-13983291D01*
X16325631Y-13926149D01*
X16325631Y-13854720D01*
X16339917Y-13797577D01*
X16354203Y-13769006D01*
X16368488Y-13754720D01*
X16397060Y-13740434D01*
X16611346Y-13740434D02*
X16611346Y-13797577D01*
X16725631Y-13740434D02*
X16725631Y-13797577D01*
X17168488Y-14154720D02*
X17154203Y-14140434D01*
X17125631Y-14097577D01*
X17111346Y-14069006D01*
X17097060Y-14026149D01*
X17082774Y-13954720D01*
X17082774Y-13897577D01*
X17097060Y-13826149D01*
X17111346Y-13783291D01*
X17125631Y-13754720D01*
X17154203Y-13711863D01*
X17168488Y-13697577D01*
X17339917Y-13740434D02*
X17368488Y-13740434D01*
X17397060Y-13754720D01*
X17411346Y-13769006D01*
X17425631Y-13797577D01*
X17439917Y-13854720D01*
X17439917Y-13926149D01*
X17425631Y-13983291D01*
X17411346Y-14011863D01*
X17397060Y-14026149D01*
X17368488Y-14040434D01*
X17339917Y-14040434D01*
X17311346Y-14026149D01*
X17297060Y-14011863D01*
X17282774Y-13983291D01*
X17268488Y-13926149D01*
X17268488Y-13854720D01*
X17282774Y-13797577D01*
X17297060Y-13769006D01*
X17311346Y-13754720D01*
X17339917Y-13740434D01*
X17797060Y-14040434D02*
X17797060Y-13740434D01*
X17925631Y-14040434D02*
X17925631Y-13883291D01*
X17911346Y-13854720D01*
X17882774Y-13840434D01*
X17839917Y-13840434D01*
X17811346Y-13854720D01*
X17797060Y-13869006D01*
X18111346Y-14040434D02*
X18082774Y-14026149D01*
X18068488Y-14011863D01*
X18054203Y-13983291D01*
X18054203Y-13897577D01*
X18068488Y-13869006D01*
X18082774Y-13854720D01*
X18111346Y-13840434D01*
X18154203Y-13840434D01*
X18182774Y-13854720D01*
X18197060Y-13869006D01*
X18211346Y-13897577D01*
X18211346Y-13983291D01*
X18197060Y-14011863D01*
X18182774Y-14026149D01*
X18154203Y-14040434D01*
X18111346Y-14040434D01*
X18382774Y-14040434D02*
X18354203Y-14026149D01*
X18339917Y-13997577D01*
X18339917Y-13740434D01*
X18611346Y-14026149D02*
X18582774Y-14040434D01*
X18525631Y-14040434D01*
X18497060Y-14026149D01*
X18482774Y-13997577D01*
X18482774Y-13883291D01*
X18497060Y-13854720D01*
X18525631Y-13840434D01*
X18582774Y-13840434D01*
X18611346Y-13854720D01*
X18625631Y-13883291D01*
X18625631Y-13911863D01*
X18482774Y-13940434D01*
X18739917Y-14026149D02*
X18768489Y-14040434D01*
X18825631Y-14040434D01*
X18854203Y-14026149D01*
X18868489Y-13997577D01*
X18868489Y-13983291D01*
X18854203Y-13954720D01*
X18825631Y-13940434D01*
X18782774Y-13940434D01*
X18754203Y-13926149D01*
X18739917Y-13897577D01*
X18739917Y-13883291D01*
X18754203Y-13854720D01*
X18782774Y-13840434D01*
X18825631Y-13840434D01*
X18854203Y-13854720D01*
X19225631Y-13926149D02*
X19454203Y-13926149D01*
X19339917Y-14040434D02*
X19339917Y-13811863D01*
X19811346Y-13769006D02*
X19825631Y-13754720D01*
X19854203Y-13740434D01*
X19925631Y-13740434D01*
X19954203Y-13754720D01*
X19968488Y-13769006D01*
X19982774Y-13797577D01*
X19982774Y-13826149D01*
X19968488Y-13869006D01*
X19797060Y-14040434D01*
X19982774Y-14040434D01*
X20325631Y-14026149D02*
X20354203Y-14040434D01*
X20411346Y-14040434D01*
X20439917Y-14026149D01*
X20454203Y-13997577D01*
X20454203Y-13983291D01*
X20439917Y-13954720D01*
X20411346Y-13940434D01*
X20368488Y-13940434D01*
X20339917Y-13926149D01*
X20325631Y-13897577D01*
X20325631Y-13883291D01*
X20339917Y-13854720D01*
X20368488Y-13840434D01*
X20411346Y-13840434D01*
X20439917Y-13854720D01*
X20625631Y-14040434D02*
X20597060Y-14026149D01*
X20582774Y-13997577D01*
X20582774Y-13740434D01*
X20782774Y-14040434D02*
X20754203Y-14026149D01*
X20739917Y-14011863D01*
X20725631Y-13983291D01*
X20725631Y-13897577D01*
X20739917Y-13869006D01*
X20754203Y-13854720D01*
X20782774Y-13840434D01*
X20825631Y-13840434D01*
X20854203Y-13854720D01*
X20868488Y-13869006D01*
X20882774Y-13897577D01*
X20882774Y-13983291D01*
X20868488Y-14011863D01*
X20854203Y-14026149D01*
X20825631Y-14040434D01*
X20782774Y-14040434D01*
X20968488Y-13840434D02*
X21082774Y-13840434D01*
X21011346Y-13740434D02*
X21011346Y-13997577D01*
X21025631Y-14026149D01*
X21054203Y-14040434D01*
X21082774Y-14040434D01*
X21168489Y-14026149D02*
X21197060Y-14040434D01*
X21254203Y-14040434D01*
X21282774Y-14026149D01*
X21297060Y-13997577D01*
X21297060Y-13983291D01*
X21282774Y-13954720D01*
X21254203Y-13940434D01*
X21211346Y-13940434D01*
X21182774Y-13926149D01*
X21168489Y-13897577D01*
X21168489Y-13883291D01*
X21182774Y-13854720D01*
X21211346Y-13840434D01*
X21254203Y-13840434D01*
X21282774Y-13854720D01*
X21397060Y-14154720D02*
X21411346Y-14140434D01*
X21439917Y-14097577D01*
X21454203Y-14069006D01*
X21468488Y-14026149D01*
X21482774Y-13954720D01*
X21482774Y-13897577D01*
X21468488Y-13826149D01*
X21454203Y-13783291D01*
X21439917Y-13754720D01*
X21411346Y-13711863D01*
X21397060Y-13697577D01*
X12469560Y-14273220D02*
X12469560Y-14328220D01*
X12442060Y-14300720D02*
X12497060Y-14300720D01*
X12825631Y-14136434D02*
X12854203Y-14136434D01*
X12882774Y-14150720D01*
X12897060Y-14165006D01*
X12911346Y-14193577D01*
X12925631Y-14250720D01*
X12925631Y-14322149D01*
X12911346Y-14379291D01*
X12897060Y-14407863D01*
X12882774Y-14422149D01*
X12854203Y-14436434D01*
X12825631Y-14436434D01*
X12797060Y-14422149D01*
X12782774Y-14407863D01*
X12768488Y-14379291D01*
X12754203Y-14322149D01*
X12754203Y-14250720D01*
X12768488Y-14193577D01*
X12782774Y-14165006D01*
X12797060Y-14150720D01*
X12825631Y-14136434D01*
X13054203Y-14407863D02*
X13068488Y-14422149D01*
X13054203Y-14436434D01*
X13039917Y-14422149D01*
X13054203Y-14407863D01*
X13054203Y-14436434D01*
X13339917Y-14136434D02*
X13197060Y-14136434D01*
X13182774Y-14279291D01*
X13197060Y-14265006D01*
X13225631Y-14250720D01*
X13297060Y-14250720D01*
X13325631Y-14265006D01*
X13339917Y-14279291D01*
X13354203Y-14307863D01*
X13354203Y-14379291D01*
X13339917Y-14407863D01*
X13325631Y-14422149D01*
X13297060Y-14436434D01*
X13225631Y-14436434D01*
X13197060Y-14422149D01*
X13182774Y-14407863D01*
X13625631Y-14136434D02*
X13482774Y-14136434D01*
X13468488Y-14279291D01*
X13482774Y-14265006D01*
X13511346Y-14250720D01*
X13582774Y-14250720D01*
X13611346Y-14265006D01*
X13625631Y-14279291D01*
X13639917Y-14307863D01*
X13639917Y-14379291D01*
X13625631Y-14407863D01*
X13611346Y-14422149D01*
X13582774Y-14436434D01*
X13511346Y-14436434D01*
X13482774Y-14422149D01*
X13468488Y-14407863D01*
X13768488Y-14436434D02*
X13768488Y-14236434D01*
X13768488Y-14265006D02*
X13782774Y-14250720D01*
X13811346Y-14236434D01*
X13854203Y-14236434D01*
X13882774Y-14250720D01*
X13897060Y-14279291D01*
X13897060Y-14436434D01*
X13897060Y-14279291D02*
X13911346Y-14250720D01*
X13939917Y-14236434D01*
X13982774Y-14236434D01*
X14011346Y-14250720D01*
X14025631Y-14279291D01*
X14025631Y-14436434D01*
X14168488Y-14436434D02*
X14168488Y-14236434D01*
X14168488Y-14265006D02*
X14182774Y-14250720D01*
X14211346Y-14236434D01*
X14254203Y-14236434D01*
X14282774Y-14250720D01*
X14297060Y-14279291D01*
X14297060Y-14436434D01*
X14297060Y-14279291D02*
X14311346Y-14250720D01*
X14339917Y-14236434D01*
X14382774Y-14236434D01*
X14411346Y-14250720D01*
X14425631Y-14279291D01*
X14425631Y-14436434D01*
X15011346Y-14122149D02*
X14754203Y-14507863D01*
X15397060Y-14136434D02*
X15425631Y-14136434D01*
X15454203Y-14150720D01*
X15468488Y-14165006D01*
X15482774Y-14193577D01*
X15497060Y-14250720D01*
X15497060Y-14322149D01*
X15482774Y-14379291D01*
X15468488Y-14407863D01*
X15454203Y-14422149D01*
X15425631Y-14436434D01*
X15397060Y-14436434D01*
X15368488Y-14422149D01*
X15354203Y-14407863D01*
X15339917Y-14379291D01*
X15325631Y-14322149D01*
X15325631Y-14250720D01*
X15339917Y-14193577D01*
X15354203Y-14165006D01*
X15368488Y-14150720D01*
X15397060Y-14136434D01*
X15625631Y-14407863D02*
X15639917Y-14422149D01*
X15625631Y-14436434D01*
X15611346Y-14422149D01*
X15625631Y-14407863D01*
X15625631Y-14436434D01*
X15825631Y-14136434D02*
X15854203Y-14136434D01*
X15882774Y-14150720D01*
X15897060Y-14165006D01*
X15911345Y-14193577D01*
X15925631Y-14250720D01*
X15925631Y-14322149D01*
X15911345Y-14379291D01*
X15897060Y-14407863D01*
X15882774Y-14422149D01*
X15854203Y-14436434D01*
X15825631Y-14436434D01*
X15797060Y-14422149D01*
X15782774Y-14407863D01*
X15768488Y-14379291D01*
X15754203Y-14322149D01*
X15754203Y-14250720D01*
X15768488Y-14193577D01*
X15782774Y-14165006D01*
X15797060Y-14150720D01*
X15825631Y-14136434D01*
X16039917Y-14165006D02*
X16054203Y-14150720D01*
X16082774Y-14136434D01*
X16154203Y-14136434D01*
X16182774Y-14150720D01*
X16197060Y-14165006D01*
X16211345Y-14193577D01*
X16211345Y-14222149D01*
X16197060Y-14265006D01*
X16025631Y-14436434D01*
X16211345Y-14436434D01*
X16325631Y-14165006D02*
X16339917Y-14150720D01*
X16368488Y-14136434D01*
X16439917Y-14136434D01*
X16468488Y-14150720D01*
X16482774Y-14165006D01*
X16497060Y-14193577D01*
X16497060Y-14222149D01*
X16482774Y-14265006D01*
X16311345Y-14436434D01*
X16497060Y-14436434D01*
X16611346Y-14136434D02*
X16611346Y-14193577D01*
X16725631Y-14136434D02*
X16725631Y-14193577D01*
X17168488Y-14550720D02*
X17154203Y-14536434D01*
X17125631Y-14493577D01*
X17111346Y-14465006D01*
X17097060Y-14422149D01*
X17082774Y-14350720D01*
X17082774Y-14293577D01*
X17097060Y-14222149D01*
X17111346Y-14179291D01*
X17125631Y-14150720D01*
X17154203Y-14107863D01*
X17168488Y-14093577D01*
X17339917Y-14136434D02*
X17368488Y-14136434D01*
X17397060Y-14150720D01*
X17411346Y-14165006D01*
X17425631Y-14193577D01*
X17439917Y-14250720D01*
X17439917Y-14322149D01*
X17425631Y-14379291D01*
X17411346Y-14407863D01*
X17397060Y-14422149D01*
X17368488Y-14436434D01*
X17339917Y-14436434D01*
X17311346Y-14422149D01*
X17297060Y-14407863D01*
X17282774Y-14379291D01*
X17268488Y-14322149D01*
X17268488Y-14250720D01*
X17282774Y-14193577D01*
X17297060Y-14165006D01*
X17311346Y-14150720D01*
X17339917Y-14136434D01*
X17797060Y-14436434D02*
X17797060Y-14136434D01*
X17925631Y-14436434D02*
X17925631Y-14279291D01*
X17911346Y-14250720D01*
X17882774Y-14236434D01*
X17839917Y-14236434D01*
X17811346Y-14250720D01*
X17797060Y-14265006D01*
X18111346Y-14436434D02*
X18082774Y-14422149D01*
X18068488Y-14407863D01*
X18054203Y-14379291D01*
X18054203Y-14293577D01*
X18068488Y-14265006D01*
X18082774Y-14250720D01*
X18111346Y-14236434D01*
X18154203Y-14236434D01*
X18182774Y-14250720D01*
X18197060Y-14265006D01*
X18211346Y-14293577D01*
X18211346Y-14379291D01*
X18197060Y-14407863D01*
X18182774Y-14422149D01*
X18154203Y-14436434D01*
X18111346Y-14436434D01*
X18382774Y-14436434D02*
X18354203Y-14422149D01*
X18339917Y-14393577D01*
X18339917Y-14136434D01*
X18611346Y-14422149D02*
X18582774Y-14436434D01*
X18525631Y-14436434D01*
X18497060Y-14422149D01*
X18482774Y-14393577D01*
X18482774Y-14279291D01*
X18497060Y-14250720D01*
X18525631Y-14236434D01*
X18582774Y-14236434D01*
X18611346Y-14250720D01*
X18625631Y-14279291D01*
X18625631Y-14307863D01*
X18482774Y-14336434D01*
X18739917Y-14422149D02*
X18768489Y-14436434D01*
X18825631Y-14436434D01*
X18854203Y-14422149D01*
X18868489Y-14393577D01*
X18868489Y-14379291D01*
X18854203Y-14350720D01*
X18825631Y-14336434D01*
X18782774Y-14336434D01*
X18754203Y-14322149D01*
X18739917Y-14293577D01*
X18739917Y-14279291D01*
X18754203Y-14250720D01*
X18782774Y-14236434D01*
X18825631Y-14236434D01*
X18854203Y-14250720D01*
X19225631Y-14322149D02*
X19454203Y-14322149D01*
X19339917Y-14436434D02*
X19339917Y-14207863D01*
X19811346Y-14165006D02*
X19825631Y-14150720D01*
X19854203Y-14136434D01*
X19925631Y-14136434D01*
X19954203Y-14150720D01*
X19968488Y-14165006D01*
X19982774Y-14193577D01*
X19982774Y-14222149D01*
X19968488Y-14265006D01*
X19797060Y-14436434D01*
X19982774Y-14436434D01*
X20325631Y-14422149D02*
X20354203Y-14436434D01*
X20411346Y-14436434D01*
X20439917Y-14422149D01*
X20454203Y-14393577D01*
X20454203Y-14379291D01*
X20439917Y-14350720D01*
X20411346Y-14336434D01*
X20368488Y-14336434D01*
X20339917Y-14322149D01*
X20325631Y-14293577D01*
X20325631Y-14279291D01*
X20339917Y-14250720D01*
X20368488Y-14236434D01*
X20411346Y-14236434D01*
X20439917Y-14250720D01*
X20625631Y-14436434D02*
X20597060Y-14422149D01*
X20582774Y-14393577D01*
X20582774Y-14136434D01*
X20782774Y-14436434D02*
X20754203Y-14422149D01*
X20739917Y-14407863D01*
X20725631Y-14379291D01*
X20725631Y-14293577D01*
X20739917Y-14265006D01*
X20754203Y-14250720D01*
X20782774Y-14236434D01*
X20825631Y-14236434D01*
X20854203Y-14250720D01*
X20868488Y-14265006D01*
X20882774Y-14293577D01*
X20882774Y-14379291D01*
X20868488Y-14407863D01*
X20854203Y-14422149D01*
X20825631Y-14436434D01*
X20782774Y-14436434D01*
X20968488Y-14236434D02*
X21082774Y-14236434D01*
X21011346Y-14136434D02*
X21011346Y-14393577D01*
X21025631Y-14422149D01*
X21054203Y-14436434D01*
X21082774Y-14436434D01*
X21168489Y-14422149D02*
X21197060Y-14436434D01*
X21254203Y-14436434D01*
X21282774Y-14422149D01*
X21297060Y-14393577D01*
X21297060Y-14379291D01*
X21282774Y-14350720D01*
X21254203Y-14336434D01*
X21211346Y-14336434D01*
X21182774Y-14322149D01*
X21168489Y-14293577D01*
X21168489Y-14279291D01*
X21182774Y-14250720D01*
X21211346Y-14236434D01*
X21254203Y-14236434D01*
X21282774Y-14250720D01*
X21397060Y-14550720D02*
X21411346Y-14536434D01*
X21439917Y-14493577D01*
X21454203Y-14465006D01*
X21468488Y-14422149D01*
X21482774Y-14350720D01*
X21482774Y-14293577D01*
X21468488Y-14222149D01*
X21454203Y-14179291D01*
X21439917Y-14150720D01*
X21411346Y-14107863D01*
X21397060Y-14093577D01*
X12485157Y-14725457D02*
X12485157Y-14667983D01*
X12427683Y-14667983D01*
X12427683Y-14725457D01*
X12485157Y-14725457D01*
X12825631Y-14532434D02*
X12854203Y-14532434D01*
X12882774Y-14546720D01*
X12897060Y-14561006D01*
X12911346Y-14589577D01*
X12925631Y-14646720D01*
X12925631Y-14718149D01*
X12911346Y-14775291D01*
X12897060Y-14803863D01*
X12882774Y-14818149D01*
X12854203Y-14832434D01*
X12825631Y-14832434D01*
X12797060Y-14818149D01*
X12782774Y-14803863D01*
X12768488Y-14775291D01*
X12754203Y-14718149D01*
X12754203Y-14646720D01*
X12768488Y-14589577D01*
X12782774Y-14561006D01*
X12797060Y-14546720D01*
X12825631Y-14532434D01*
X13054203Y-14803863D02*
X13068488Y-14818149D01*
X13054203Y-14832434D01*
X13039917Y-14818149D01*
X13054203Y-14803863D01*
X13054203Y-14832434D01*
X13239917Y-14661006D02*
X13211346Y-14646720D01*
X13197060Y-14632434D01*
X13182774Y-14603863D01*
X13182774Y-14589577D01*
X13197060Y-14561006D01*
X13211346Y-14546720D01*
X13239917Y-14532434D01*
X13297060Y-14532434D01*
X13325631Y-14546720D01*
X13339917Y-14561006D01*
X13354203Y-14589577D01*
X13354203Y-14603863D01*
X13339917Y-14632434D01*
X13325631Y-14646720D01*
X13297060Y-14661006D01*
X13239917Y-14661006D01*
X13211346Y-14675291D01*
X13197060Y-14689577D01*
X13182774Y-14718149D01*
X13182774Y-14775291D01*
X13197060Y-14803863D01*
X13211346Y-14818149D01*
X13239917Y-14832434D01*
X13297060Y-14832434D01*
X13325631Y-14818149D01*
X13339917Y-14803863D01*
X13354203Y-14775291D01*
X13354203Y-14718149D01*
X13339917Y-14689577D01*
X13325631Y-14675291D01*
X13297060Y-14661006D01*
X13639917Y-14832434D02*
X13468488Y-14832434D01*
X13554203Y-14832434D02*
X13554203Y-14532434D01*
X13525631Y-14575291D01*
X13497060Y-14603863D01*
X13468488Y-14618149D01*
X13768488Y-14832434D02*
X13768488Y-14632434D01*
X13768488Y-14661006D02*
X13782774Y-14646720D01*
X13811346Y-14632434D01*
X13854203Y-14632434D01*
X13882774Y-14646720D01*
X13897060Y-14675291D01*
X13897060Y-14832434D01*
X13897060Y-14675291D02*
X13911346Y-14646720D01*
X13939917Y-14632434D01*
X13982774Y-14632434D01*
X14011346Y-14646720D01*
X14025631Y-14675291D01*
X14025631Y-14832434D01*
X14168488Y-14832434D02*
X14168488Y-14632434D01*
X14168488Y-14661006D02*
X14182774Y-14646720D01*
X14211346Y-14632434D01*
X14254203Y-14632434D01*
X14282774Y-14646720D01*
X14297060Y-14675291D01*
X14297060Y-14832434D01*
X14297060Y-14675291D02*
X14311346Y-14646720D01*
X14339917Y-14632434D01*
X14382774Y-14632434D01*
X14411346Y-14646720D01*
X14425631Y-14675291D01*
X14425631Y-14832434D01*
X15011346Y-14518149D02*
X14754203Y-14903863D01*
X15397060Y-14532434D02*
X15425631Y-14532434D01*
X15454203Y-14546720D01*
X15468488Y-14561006D01*
X15482774Y-14589577D01*
X15497060Y-14646720D01*
X15497060Y-14718149D01*
X15482774Y-14775291D01*
X15468488Y-14803863D01*
X15454203Y-14818149D01*
X15425631Y-14832434D01*
X15397060Y-14832434D01*
X15368488Y-14818149D01*
X15354203Y-14803863D01*
X15339917Y-14775291D01*
X15325631Y-14718149D01*
X15325631Y-14646720D01*
X15339917Y-14589577D01*
X15354203Y-14561006D01*
X15368488Y-14546720D01*
X15397060Y-14532434D01*
X15625631Y-14803863D02*
X15639917Y-14818149D01*
X15625631Y-14832434D01*
X15611346Y-14818149D01*
X15625631Y-14803863D01*
X15625631Y-14832434D01*
X15825631Y-14532434D02*
X15854203Y-14532434D01*
X15882774Y-14546720D01*
X15897060Y-14561006D01*
X15911345Y-14589577D01*
X15925631Y-14646720D01*
X15925631Y-14718149D01*
X15911345Y-14775291D01*
X15897060Y-14803863D01*
X15882774Y-14818149D01*
X15854203Y-14832434D01*
X15825631Y-14832434D01*
X15797060Y-14818149D01*
X15782774Y-14803863D01*
X15768488Y-14775291D01*
X15754203Y-14718149D01*
X15754203Y-14646720D01*
X15768488Y-14589577D01*
X15782774Y-14561006D01*
X15797060Y-14546720D01*
X15825631Y-14532434D01*
X16025631Y-14532434D02*
X16211345Y-14532434D01*
X16111345Y-14646720D01*
X16154203Y-14646720D01*
X16182774Y-14661006D01*
X16197060Y-14675291D01*
X16211345Y-14703863D01*
X16211345Y-14775291D01*
X16197060Y-14803863D01*
X16182774Y-14818149D01*
X16154203Y-14832434D01*
X16068488Y-14832434D01*
X16039917Y-14818149D01*
X16025631Y-14803863D01*
X16325631Y-14561006D02*
X16339917Y-14546720D01*
X16368488Y-14532434D01*
X16439917Y-14532434D01*
X16468488Y-14546720D01*
X16482774Y-14561006D01*
X16497060Y-14589577D01*
X16497060Y-14618149D01*
X16482774Y-14661006D01*
X16311345Y-14832434D01*
X16497060Y-14832434D01*
X16611346Y-14532434D02*
X16611346Y-14589577D01*
X16725631Y-14532434D02*
X16725631Y-14589577D01*
X17168488Y-14946720D02*
X17154203Y-14932434D01*
X17125631Y-14889577D01*
X17111346Y-14861006D01*
X17097060Y-14818149D01*
X17082774Y-14746720D01*
X17082774Y-14689577D01*
X17097060Y-14618149D01*
X17111346Y-14575291D01*
X17125631Y-14546720D01*
X17154203Y-14503863D01*
X17168488Y-14489577D01*
X17268488Y-14561006D02*
X17282774Y-14546720D01*
X17311346Y-14532434D01*
X17382774Y-14532434D01*
X17411346Y-14546720D01*
X17425631Y-14561006D01*
X17439917Y-14589577D01*
X17439917Y-14618149D01*
X17425631Y-14661006D01*
X17254203Y-14832434D01*
X17439917Y-14832434D01*
X17625631Y-14532434D02*
X17654203Y-14532434D01*
X17682774Y-14546720D01*
X17697060Y-14561006D01*
X17711346Y-14589577D01*
X17725631Y-14646720D01*
X17725631Y-14718149D01*
X17711346Y-14775291D01*
X17697060Y-14803863D01*
X17682774Y-14818149D01*
X17654203Y-14832434D01*
X17625631Y-14832434D01*
X17597060Y-14818149D01*
X17582774Y-14803863D01*
X17568488Y-14775291D01*
X17554203Y-14718149D01*
X17554203Y-14646720D01*
X17568488Y-14589577D01*
X17582774Y-14561006D01*
X17597060Y-14546720D01*
X17625631Y-14532434D01*
X18082774Y-14832434D02*
X18082774Y-14532434D01*
X18211346Y-14832434D02*
X18211346Y-14675291D01*
X18197060Y-14646720D01*
X18168488Y-14632434D01*
X18125631Y-14632434D01*
X18097060Y-14646720D01*
X18082774Y-14661006D01*
X18397060Y-14832434D02*
X18368488Y-14818149D01*
X18354203Y-14803863D01*
X18339917Y-14775291D01*
X18339917Y-14689577D01*
X18354203Y-14661006D01*
X18368488Y-14646720D01*
X18397060Y-14632434D01*
X18439917Y-14632434D01*
X18468488Y-14646720D01*
X18482774Y-14661006D01*
X18497060Y-14689577D01*
X18497060Y-14775291D01*
X18482774Y-14803863D01*
X18468488Y-14818149D01*
X18439917Y-14832434D01*
X18397060Y-14832434D01*
X18668488Y-14832434D02*
X18639917Y-14818149D01*
X18625631Y-14789577D01*
X18625631Y-14532434D01*
X18897060Y-14818149D02*
X18868489Y-14832434D01*
X18811346Y-14832434D01*
X18782774Y-14818149D01*
X18768489Y-14789577D01*
X18768489Y-14675291D01*
X18782774Y-14646720D01*
X18811346Y-14632434D01*
X18868489Y-14632434D01*
X18897060Y-14646720D01*
X18911346Y-14675291D01*
X18911346Y-14703863D01*
X18768489Y-14732434D01*
X19025631Y-14818149D02*
X19054203Y-14832434D01*
X19111346Y-14832434D01*
X19139917Y-14818149D01*
X19154203Y-14789577D01*
X19154203Y-14775291D01*
X19139917Y-14746720D01*
X19111346Y-14732434D01*
X19068489Y-14732434D01*
X19039917Y-14718149D01*
X19025631Y-14689577D01*
X19025631Y-14675291D01*
X19039917Y-14646720D01*
X19068489Y-14632434D01*
X19111346Y-14632434D01*
X19139917Y-14646720D01*
X19254203Y-14946720D02*
X19268489Y-14932434D01*
X19297060Y-14889577D01*
X19311346Y-14861006D01*
X19325631Y-14818149D01*
X19339917Y-14746720D01*
X19339917Y-14689577D01*
X19325631Y-14618149D01*
X19311346Y-14575291D01*
X19297060Y-14546720D01*
X19268489Y-14503863D01*
X19254203Y-14489577D01*
X12446260Y-15143520D02*
X12497060Y-15092720D01*
X12446260Y-15041920D01*
X12395460Y-15092720D01*
X12446260Y-15143520D01*
X12925631Y-15228434D02*
X12754203Y-15228434D01*
X12839917Y-15228434D02*
X12839917Y-14928434D01*
X12811346Y-14971291D01*
X12782774Y-14999863D01*
X12754203Y-15014149D01*
X13054203Y-15199863D02*
X13068488Y-15214149D01*
X13054203Y-15228434D01*
X13039917Y-15214149D01*
X13054203Y-15199863D01*
X13054203Y-15228434D01*
X13254203Y-14928434D02*
X13282774Y-14928434D01*
X13311346Y-14942720D01*
X13325631Y-14957006D01*
X13339917Y-14985577D01*
X13354203Y-15042720D01*
X13354203Y-15114149D01*
X13339917Y-15171291D01*
X13325631Y-15199863D01*
X13311346Y-15214149D01*
X13282774Y-15228434D01*
X13254203Y-15228434D01*
X13225631Y-15214149D01*
X13211346Y-15199863D01*
X13197060Y-15171291D01*
X13182774Y-15114149D01*
X13182774Y-15042720D01*
X13197060Y-14985577D01*
X13211346Y-14957006D01*
X13225631Y-14942720D01*
X13254203Y-14928434D01*
X13468488Y-14957006D02*
X13482774Y-14942720D01*
X13511346Y-14928434D01*
X13582774Y-14928434D01*
X13611346Y-14942720D01*
X13625631Y-14957006D01*
X13639917Y-14985577D01*
X13639917Y-15014149D01*
X13625631Y-15057006D01*
X13454203Y-15228434D01*
X13639917Y-15228434D01*
X13768488Y-15228434D02*
X13768488Y-15028434D01*
X13768488Y-15057006D02*
X13782774Y-15042720D01*
X13811346Y-15028434D01*
X13854203Y-15028434D01*
X13882774Y-15042720D01*
X13897060Y-15071291D01*
X13897060Y-15228434D01*
X13897060Y-15071291D02*
X13911346Y-15042720D01*
X13939917Y-15028434D01*
X13982774Y-15028434D01*
X14011346Y-15042720D01*
X14025631Y-15071291D01*
X14025631Y-15228434D01*
X14168488Y-15228434D02*
X14168488Y-15028434D01*
X14168488Y-15057006D02*
X14182774Y-15042720D01*
X14211346Y-15028434D01*
X14254203Y-15028434D01*
X14282774Y-15042720D01*
X14297060Y-15071291D01*
X14297060Y-15228434D01*
X14297060Y-15071291D02*
X14311346Y-15042720D01*
X14339917Y-15028434D01*
X14382774Y-15028434D01*
X14411346Y-15042720D01*
X14425631Y-15071291D01*
X14425631Y-15228434D01*
X15011346Y-14914149D02*
X14754203Y-15299863D01*
X15397060Y-14928434D02*
X15425631Y-14928434D01*
X15454203Y-14942720D01*
X15468488Y-14957006D01*
X15482774Y-14985577D01*
X15497060Y-15042720D01*
X15497060Y-15114149D01*
X15482774Y-15171291D01*
X15468488Y-15199863D01*
X15454203Y-15214149D01*
X15425631Y-15228434D01*
X15397060Y-15228434D01*
X15368488Y-15214149D01*
X15354203Y-15199863D01*
X15339917Y-15171291D01*
X15325631Y-15114149D01*
X15325631Y-15042720D01*
X15339917Y-14985577D01*
X15354203Y-14957006D01*
X15368488Y-14942720D01*
X15397060Y-14928434D01*
X15625631Y-15199863D02*
X15639917Y-15214149D01*
X15625631Y-15228434D01*
X15611346Y-15214149D01*
X15625631Y-15199863D01*
X15625631Y-15228434D01*
X15825631Y-14928434D02*
X15854203Y-14928434D01*
X15882774Y-14942720D01*
X15897060Y-14957006D01*
X15911345Y-14985577D01*
X15925631Y-15042720D01*
X15925631Y-15114149D01*
X15911345Y-15171291D01*
X15897060Y-15199863D01*
X15882774Y-15214149D01*
X15854203Y-15228434D01*
X15825631Y-15228434D01*
X15797060Y-15214149D01*
X15782774Y-15199863D01*
X15768488Y-15171291D01*
X15754203Y-15114149D01*
X15754203Y-15042720D01*
X15768488Y-14985577D01*
X15782774Y-14957006D01*
X15797060Y-14942720D01*
X15825631Y-14928434D01*
X16182774Y-15028434D02*
X16182774Y-15228434D01*
X16111345Y-14914149D02*
X16039917Y-15128434D01*
X16225631Y-15128434D01*
X16397060Y-14928434D02*
X16425631Y-14928434D01*
X16454203Y-14942720D01*
X16468488Y-14957006D01*
X16482774Y-14985577D01*
X16497060Y-15042720D01*
X16497060Y-15114149D01*
X16482774Y-15171291D01*
X16468488Y-15199863D01*
X16454203Y-15214149D01*
X16425631Y-15228434D01*
X16397060Y-15228434D01*
X16368488Y-15214149D01*
X16354203Y-15199863D01*
X16339917Y-15171291D01*
X16325631Y-15114149D01*
X16325631Y-15042720D01*
X16339917Y-14985577D01*
X16354203Y-14957006D01*
X16368488Y-14942720D01*
X16397060Y-14928434D01*
X16611346Y-14928434D02*
X16611346Y-14985577D01*
X16725631Y-14928434D02*
X16725631Y-14985577D01*
X17168488Y-15342720D02*
X17154203Y-15328434D01*
X17125631Y-15285577D01*
X17111346Y-15257006D01*
X17097060Y-15214149D01*
X17082774Y-15142720D01*
X17082774Y-15085577D01*
X17097060Y-15014149D01*
X17111346Y-14971291D01*
X17125631Y-14942720D01*
X17154203Y-14899863D01*
X17168488Y-14885577D01*
X17411346Y-15028434D02*
X17411346Y-15228434D01*
X17339917Y-14914149D02*
X17268488Y-15128434D01*
X17454203Y-15128434D01*
X17797060Y-15228434D02*
X17797060Y-14928434D01*
X17925631Y-15228434D02*
X17925631Y-15071291D01*
X17911346Y-15042720D01*
X17882774Y-15028434D01*
X17839917Y-15028434D01*
X17811346Y-15042720D01*
X17797060Y-15057006D01*
X18111346Y-15228434D02*
X18082774Y-15214149D01*
X18068488Y-15199863D01*
X18054203Y-15171291D01*
X18054203Y-15085577D01*
X18068488Y-15057006D01*
X18082774Y-15042720D01*
X18111346Y-15028434D01*
X18154203Y-15028434D01*
X18182774Y-15042720D01*
X18197060Y-15057006D01*
X18211346Y-15085577D01*
X18211346Y-15171291D01*
X18197060Y-15199863D01*
X18182774Y-15214149D01*
X18154203Y-15228434D01*
X18111346Y-15228434D01*
X18382774Y-15228434D02*
X18354203Y-15214149D01*
X18339917Y-15185577D01*
X18339917Y-14928434D01*
X18611346Y-15214149D02*
X18582774Y-15228434D01*
X18525631Y-15228434D01*
X18497060Y-15214149D01*
X18482774Y-15185577D01*
X18482774Y-15071291D01*
X18497060Y-15042720D01*
X18525631Y-15028434D01*
X18582774Y-15028434D01*
X18611346Y-15042720D01*
X18625631Y-15071291D01*
X18625631Y-15099863D01*
X18482774Y-15128434D01*
X18739917Y-15214149D02*
X18768489Y-15228434D01*
X18825631Y-15228434D01*
X18854203Y-15214149D01*
X18868489Y-15185577D01*
X18868489Y-15171291D01*
X18854203Y-15142720D01*
X18825631Y-15128434D01*
X18782774Y-15128434D01*
X18754203Y-15114149D01*
X18739917Y-15085577D01*
X18739917Y-15071291D01*
X18754203Y-15042720D01*
X18782774Y-15028434D01*
X18825631Y-15028434D01*
X18854203Y-15042720D01*
X18968488Y-15342720D02*
X18982774Y-15328434D01*
X19011346Y-15285577D01*
X19025631Y-15257006D01*
X19039917Y-15214149D01*
X19054203Y-15142720D01*
X19054203Y-15085577D01*
X19039917Y-15014149D01*
X19025631Y-14971291D01*
X19011346Y-14942720D01*
X18982774Y-14899863D01*
X18968488Y-14885577D01*
X12197060Y-15338720D02*
X12497060Y-15638720D01*
X12497060Y-15338720D02*
X12197060Y-15638720D01*
X12497060Y-15488720D02*
G75*
G03X12497060Y-15488720I-150000J0D01*
G01*
X12739917Y-15324434D02*
X12925631Y-15324434D01*
X12825631Y-15438720D01*
X12868488Y-15438720D01*
X12897060Y-15453006D01*
X12911346Y-15467291D01*
X12925631Y-15495863D01*
X12925631Y-15567291D01*
X12911346Y-15595863D01*
X12897060Y-15610149D01*
X12868488Y-15624434D01*
X12782774Y-15624434D01*
X12754203Y-15610149D01*
X12739917Y-15595863D01*
X13054203Y-15595863D02*
X13068488Y-15610149D01*
X13054203Y-15624434D01*
X13039917Y-15610149D01*
X13054203Y-15595863D01*
X13054203Y-15624434D01*
X13254203Y-15324434D02*
X13282774Y-15324434D01*
X13311346Y-15338720D01*
X13325631Y-15353006D01*
X13339917Y-15381577D01*
X13354203Y-15438720D01*
X13354203Y-15510149D01*
X13339917Y-15567291D01*
X13325631Y-15595863D01*
X13311346Y-15610149D01*
X13282774Y-15624434D01*
X13254203Y-15624434D01*
X13225631Y-15610149D01*
X13211346Y-15595863D01*
X13197060Y-15567291D01*
X13182774Y-15510149D01*
X13182774Y-15438720D01*
X13197060Y-15381577D01*
X13211346Y-15353006D01*
X13225631Y-15338720D01*
X13254203Y-15324434D01*
X13539917Y-15324434D02*
X13568488Y-15324434D01*
X13597060Y-15338720D01*
X13611346Y-15353006D01*
X13625631Y-15381577D01*
X13639917Y-15438720D01*
X13639917Y-15510149D01*
X13625631Y-15567291D01*
X13611346Y-15595863D01*
X13597060Y-15610149D01*
X13568488Y-15624434D01*
X13539917Y-15624434D01*
X13511346Y-15610149D01*
X13497060Y-15595863D01*
X13482774Y-15567291D01*
X13468488Y-15510149D01*
X13468488Y-15438720D01*
X13482774Y-15381577D01*
X13497060Y-15353006D01*
X13511346Y-15338720D01*
X13539917Y-15324434D01*
X13768488Y-15624434D02*
X13768488Y-15424434D01*
X13768488Y-15453006D02*
X13782774Y-15438720D01*
X13811346Y-15424434D01*
X13854203Y-15424434D01*
X13882774Y-15438720D01*
X13897060Y-15467291D01*
X13897060Y-15624434D01*
X13897060Y-15467291D02*
X13911346Y-15438720D01*
X13939917Y-15424434D01*
X13982774Y-15424434D01*
X14011346Y-15438720D01*
X14025631Y-15467291D01*
X14025631Y-15624434D01*
X14168488Y-15624434D02*
X14168488Y-15424434D01*
X14168488Y-15453006D02*
X14182774Y-15438720D01*
X14211346Y-15424434D01*
X14254203Y-15424434D01*
X14282774Y-15438720D01*
X14297060Y-15467291D01*
X14297060Y-15624434D01*
X14297060Y-15467291D02*
X14311346Y-15438720D01*
X14339917Y-15424434D01*
X14382774Y-15424434D01*
X14411346Y-15438720D01*
X14425631Y-15467291D01*
X14425631Y-15624434D01*
X15011346Y-15310149D02*
X14754203Y-15695863D01*
X15397060Y-15324434D02*
X15425631Y-15324434D01*
X15454203Y-15338720D01*
X15468488Y-15353006D01*
X15482774Y-15381577D01*
X15497060Y-15438720D01*
X15497060Y-15510149D01*
X15482774Y-15567291D01*
X15468488Y-15595863D01*
X15454203Y-15610149D01*
X15425631Y-15624434D01*
X15397060Y-15624434D01*
X15368488Y-15610149D01*
X15354203Y-15595863D01*
X15339917Y-15567291D01*
X15325631Y-15510149D01*
X15325631Y-15438720D01*
X15339917Y-15381577D01*
X15354203Y-15353006D01*
X15368488Y-15338720D01*
X15397060Y-15324434D01*
X15625631Y-15595863D02*
X15639917Y-15610149D01*
X15625631Y-15624434D01*
X15611346Y-15610149D01*
X15625631Y-15595863D01*
X15625631Y-15624434D01*
X15925631Y-15624434D02*
X15754203Y-15624434D01*
X15839917Y-15624434D02*
X15839917Y-15324434D01*
X15811345Y-15367291D01*
X15782774Y-15395863D01*
X15754203Y-15410149D01*
X16211345Y-15624434D02*
X16039917Y-15624434D01*
X16125631Y-15624434D02*
X16125631Y-15324434D01*
X16097060Y-15367291D01*
X16068488Y-15395863D01*
X16039917Y-15410149D01*
X16382774Y-15453006D02*
X16354203Y-15438720D01*
X16339917Y-15424434D01*
X16325631Y-15395863D01*
X16325631Y-15381577D01*
X16339917Y-15353006D01*
X16354203Y-15338720D01*
X16382774Y-15324434D01*
X16439917Y-15324434D01*
X16468488Y-15338720D01*
X16482774Y-15353006D01*
X16497060Y-15381577D01*
X16497060Y-15395863D01*
X16482774Y-15424434D01*
X16468488Y-15438720D01*
X16439917Y-15453006D01*
X16382774Y-15453006D01*
X16354203Y-15467291D01*
X16339917Y-15481577D01*
X16325631Y-15510149D01*
X16325631Y-15567291D01*
X16339917Y-15595863D01*
X16354203Y-15610149D01*
X16382774Y-15624434D01*
X16439917Y-15624434D01*
X16468488Y-15610149D01*
X16482774Y-15595863D01*
X16497060Y-15567291D01*
X16497060Y-15510149D01*
X16482774Y-15481577D01*
X16468488Y-15467291D01*
X16439917Y-15453006D01*
X16611346Y-15324434D02*
X16611346Y-15381577D01*
X16725631Y-15324434D02*
X16725631Y-15381577D01*
X17168488Y-15738720D02*
X17154203Y-15724434D01*
X17125631Y-15681577D01*
X17111346Y-15653006D01*
X17097060Y-15610149D01*
X17082774Y-15538720D01*
X17082774Y-15481577D01*
X17097060Y-15410149D01*
X17111346Y-15367291D01*
X17125631Y-15338720D01*
X17154203Y-15295863D01*
X17168488Y-15281577D01*
X17411346Y-15424434D02*
X17411346Y-15624434D01*
X17339917Y-15310149D02*
X17268488Y-15524434D01*
X17454203Y-15524434D01*
X17797060Y-15624434D02*
X17797060Y-15324434D01*
X17925631Y-15624434D02*
X17925631Y-15467291D01*
X17911346Y-15438720D01*
X17882774Y-15424434D01*
X17839917Y-15424434D01*
X17811346Y-15438720D01*
X17797060Y-15453006D01*
X18111346Y-15624434D02*
X18082774Y-15610149D01*
X18068488Y-15595863D01*
X18054203Y-15567291D01*
X18054203Y-15481577D01*
X18068488Y-15453006D01*
X18082774Y-15438720D01*
X18111346Y-15424434D01*
X18154203Y-15424434D01*
X18182774Y-15438720D01*
X18197060Y-15453006D01*
X18211346Y-15481577D01*
X18211346Y-15567291D01*
X18197060Y-15595863D01*
X18182774Y-15610149D01*
X18154203Y-15624434D01*
X18111346Y-15624434D01*
X18382774Y-15624434D02*
X18354203Y-15610149D01*
X18339917Y-15581577D01*
X18339917Y-15324434D01*
X18611346Y-15610149D02*
X18582774Y-15624434D01*
X18525631Y-15624434D01*
X18497060Y-15610149D01*
X18482774Y-15581577D01*
X18482774Y-15467291D01*
X18497060Y-15438720D01*
X18525631Y-15424434D01*
X18582774Y-15424434D01*
X18611346Y-15438720D01*
X18625631Y-15467291D01*
X18625631Y-15495863D01*
X18482774Y-15524434D01*
X18739917Y-15610149D02*
X18768489Y-15624434D01*
X18825631Y-15624434D01*
X18854203Y-15610149D01*
X18868489Y-15581577D01*
X18868489Y-15567291D01*
X18854203Y-15538720D01*
X18825631Y-15524434D01*
X18782774Y-15524434D01*
X18754203Y-15510149D01*
X18739917Y-15481577D01*
X18739917Y-15467291D01*
X18754203Y-15438720D01*
X18782774Y-15424434D01*
X18825631Y-15424434D01*
X18854203Y-15438720D01*
X18968488Y-15738720D02*
X18982774Y-15724434D01*
X19011346Y-15681577D01*
X19025631Y-15653006D01*
X19039917Y-15610149D01*
X19054203Y-15538720D01*
X19054203Y-15481577D01*
X19039917Y-15410149D01*
X19025631Y-15367291D01*
X19011346Y-15338720D01*
X18982774Y-15295863D01*
X18968488Y-15281577D01*
M02*
