M48
;DRILL file {KiCad (2015-07-31 BZR 6030)-product} date Sat Sep 12 09:45:32 2015
;FORMAT={-:-/ absolute / inch / decimal}
FMAT,2
INCH,TZ
T1C0.012
T2C0.020
T3C0.022
T4C0.032
T5C0.040
T6C0.118
%
G90
G05
M72
T1
X5.1766Y-4.2195
X5.4266Y-4.1695
X5.5266Y-4.1695
X5.5266Y-4.5079
X5.5766Y-4.1195
X5.7266Y-4.3695
X5.8266Y-4.0695
X5.8346Y-4.1175
X5.8786Y-3.9575
X5.9266Y-4.1695
X5.9766Y-4.0695
X6.1266Y-4.1195
X6.1266Y-4.2195
X6.1751Y-4.0995
X6.2766Y-4.1695
X6.2766Y-4.4695
X6.4516Y-4.3385
X6.6016Y-4.1885
X6.6516Y-4.2635
X6.8016Y-4.0885
T4
X5.6006Y-3.5615
X5.6006Y-3.8615
X5.7006Y-3.5615
X5.7006Y-3.8615
X5.8006Y-3.5615
X5.8006Y-3.8615
X5.9006Y-3.5615
X5.9006Y-3.8615
X6.0006Y-3.5615
X6.0006Y-3.8615
X6.1006Y-3.5615
X6.1006Y-3.8615
X6.2006Y-3.5615
X6.2006Y-3.8615
X6.3006Y-3.5615
X6.3006Y-3.8615
X6.4006Y-3.5615
X6.4006Y-3.8615
X6.5006Y-3.5615
X6.5006Y-3.8615
T5
X6.9016Y-4.1885
X6.9016Y-4.2885
X6.9016Y-4.3885
X6.9016Y-4.4885
T6
X5.1586Y-3.4955
X5.1866Y-4.7195
X6.6566Y-4.6635
X6.9066Y-3.5135
T2
X5.69Y-4.7886G85X5.69Y-4.763
G05
X5.9656Y-4.7886G85X5.9656Y-4.763
G05
T3
X5.7234Y-4.6695G85X5.7353Y-4.6695
G05
X5.9203Y-4.6695G85X5.9321Y-4.6695
G05
T0
M30
