%FSLAX45Y45*%
G04 Gerber Fmt 4.5, Leading zero omitted, Abs format (unit mm)*
G04 Created by KiCad (PCBNEW (2015-07-31 BZR 6030)-product) date Fri Sep 11 12:38:54 2015*
%MOMM*%
G01*
G04 APERTURE LIST*
%ADD10C,0.127000*%
%ADD11C,0.100000*%
%ADD12C,0.200000*%
%ADD13C,0.300000*%
G04 APERTURE END LIST*
D10*
D11*
X14943000Y-12371000D02*
X14943000Y-8878500D01*
X18308500Y-12371000D02*
X14943000Y-12371000D01*
X18308500Y-8878500D02*
X18308500Y-12371000D01*
X17991000Y-8878500D02*
X18308500Y-8878500D01*
X14943000Y-8878500D02*
X17991000Y-8878500D01*
D12*
X16318000Y-10666500D02*
X16358000Y-10706500D01*
X16358000Y-10666500D02*
X16318000Y-10706500D01*
X16318000Y-10756500D02*
X16358000Y-10796500D01*
X16358000Y-10756500D02*
X16318000Y-10796500D01*
X16408000Y-10666500D02*
X16448000Y-10706500D01*
X16448000Y-10666500D02*
X16408000Y-10706500D01*
X16408000Y-10756500D02*
X16448000Y-10796500D01*
X16448000Y-10756500D02*
X16408000Y-10796500D01*
X16941038Y-10058400D02*
G75*
G03X16941038Y-10058400I-50038J0D01*
G01*
X16941038Y-10312400D02*
G75*
G03X16941038Y-10312400I-50038J0D01*
G01*
X16941038Y-10515600D02*
G75*
G03X16941038Y-10515600I-50038J0D01*
G01*
X16941038Y-10769600D02*
G75*
G03X16941038Y-10769600I-50038J0D01*
G01*
X17157700Y-9638538D02*
X17157700Y-9868662D01*
X17042638Y-9753600D02*
X17272762Y-9753600D01*
X17157700Y-11010138D02*
X17157700Y-11240262D01*
X17042638Y-11125200D02*
X17272762Y-11125200D01*
X15430067Y-9365567D02*
X15430067Y-9153433D01*
X15217933Y-9153433D01*
X15217933Y-9365567D01*
X15430067Y-9365567D01*
X15430067Y-12096067D02*
X15430067Y-11883933D01*
X15217933Y-11883933D01*
X15217933Y-12096067D01*
X15430067Y-12096067D01*
X18033567Y-9365567D02*
X18033567Y-9153433D01*
X17821433Y-9153433D01*
X17821433Y-9365567D01*
X18033567Y-9365567D01*
X18033567Y-12096067D02*
X18033567Y-11883933D01*
X17821433Y-11883933D01*
X17821433Y-12096067D01*
X18033567Y-12096067D01*
X15303500Y-11264900D02*
X15455900Y-11112500D01*
X15303500Y-10960100D01*
X15151100Y-11112500D01*
X15303500Y-11264900D01*
X15324000Y-10173900D02*
X15476400Y-10021500D01*
X15324000Y-9869100D01*
X15171600Y-10021500D01*
X15324000Y-10173900D01*
D13*
X15209428Y-12841714D02*
X15209428Y-12541714D01*
X15280857Y-12541714D01*
X15323714Y-12556000D01*
X15352286Y-12584571D01*
X15366571Y-12613143D01*
X15380857Y-12670286D01*
X15380857Y-12713143D01*
X15366571Y-12770286D01*
X15352286Y-12798857D01*
X15323714Y-12827429D01*
X15280857Y-12841714D01*
X15209428Y-12841714D01*
X15509428Y-12841714D02*
X15509428Y-12641714D01*
X15509428Y-12698857D02*
X15523714Y-12670286D01*
X15538000Y-12656000D01*
X15566571Y-12641714D01*
X15595143Y-12641714D01*
X15695143Y-12841714D02*
X15695143Y-12641714D01*
X15695143Y-12541714D02*
X15680857Y-12556000D01*
X15695143Y-12570286D01*
X15709428Y-12556000D01*
X15695143Y-12541714D01*
X15695143Y-12570286D01*
X15880857Y-12841714D02*
X15852286Y-12827429D01*
X15838000Y-12798857D01*
X15838000Y-12541714D01*
X16038000Y-12841714D02*
X16009428Y-12827429D01*
X15995143Y-12798857D01*
X15995143Y-12541714D01*
X16380857Y-12841714D02*
X16380857Y-12541714D01*
X16480857Y-12756000D01*
X16580857Y-12541714D01*
X16580857Y-12841714D01*
X16852286Y-12841714D02*
X16852286Y-12684571D01*
X16838000Y-12656000D01*
X16809429Y-12641714D01*
X16752286Y-12641714D01*
X16723714Y-12656000D01*
X16852286Y-12827429D02*
X16823714Y-12841714D01*
X16752286Y-12841714D01*
X16723714Y-12827429D01*
X16709428Y-12798857D01*
X16709428Y-12770286D01*
X16723714Y-12741714D01*
X16752286Y-12727429D01*
X16823714Y-12727429D01*
X16852286Y-12713143D01*
X16995143Y-12641714D02*
X16995143Y-12941714D01*
X16995143Y-12656000D02*
X17023714Y-12641714D01*
X17080857Y-12641714D01*
X17109429Y-12656000D01*
X17123714Y-12670286D01*
X17138000Y-12698857D01*
X17138000Y-12784571D01*
X17123714Y-12813143D01*
X17109429Y-12827429D01*
X17080857Y-12841714D01*
X17023714Y-12841714D01*
X16995143Y-12827429D01*
X17266571Y-12813143D02*
X17280857Y-12827429D01*
X17266571Y-12841714D01*
X17252286Y-12827429D01*
X17266571Y-12813143D01*
X17266571Y-12841714D01*
X17266571Y-12656000D02*
X17280857Y-12670286D01*
X17266571Y-12684571D01*
X17252286Y-12670286D01*
X17266571Y-12656000D01*
X17266571Y-12684571D01*
X14898000Y-13316000D02*
X14938000Y-13356000D01*
X14938000Y-13316000D02*
X14898000Y-13356000D01*
X15266571Y-13171714D02*
X15295143Y-13171714D01*
X15323714Y-13186000D01*
X15338000Y-13200286D01*
X15352286Y-13228857D01*
X15366571Y-13286000D01*
X15366571Y-13357429D01*
X15352286Y-13414571D01*
X15338000Y-13443143D01*
X15323714Y-13457429D01*
X15295143Y-13471714D01*
X15266571Y-13471714D01*
X15238000Y-13457429D01*
X15223714Y-13443143D01*
X15209428Y-13414571D01*
X15195143Y-13357429D01*
X15195143Y-13286000D01*
X15209428Y-13228857D01*
X15223714Y-13200286D01*
X15238000Y-13186000D01*
X15266571Y-13171714D01*
X15495143Y-13443143D02*
X15509428Y-13457429D01*
X15495143Y-13471714D01*
X15480857Y-13457429D01*
X15495143Y-13443143D01*
X15495143Y-13471714D01*
X15766571Y-13271714D02*
X15766571Y-13471714D01*
X15695143Y-13157429D02*
X15623714Y-13371714D01*
X15809428Y-13371714D01*
X15980857Y-13171714D02*
X16009428Y-13171714D01*
X16038000Y-13186000D01*
X16052286Y-13200286D01*
X16066571Y-13228857D01*
X16080857Y-13286000D01*
X16080857Y-13357429D01*
X16066571Y-13414571D01*
X16052286Y-13443143D01*
X16038000Y-13457429D01*
X16009428Y-13471714D01*
X15980857Y-13471714D01*
X15952286Y-13457429D01*
X15938000Y-13443143D01*
X15923714Y-13414571D01*
X15909428Y-13357429D01*
X15909428Y-13286000D01*
X15923714Y-13228857D01*
X15938000Y-13200286D01*
X15952286Y-13186000D01*
X15980857Y-13171714D01*
X16209428Y-13471714D02*
X16209428Y-13271714D01*
X16209428Y-13300286D02*
X16223714Y-13286000D01*
X16252286Y-13271714D01*
X16295143Y-13271714D01*
X16323714Y-13286000D01*
X16338000Y-13314571D01*
X16338000Y-13471714D01*
X16338000Y-13314571D02*
X16352286Y-13286000D01*
X16380857Y-13271714D01*
X16423714Y-13271714D01*
X16452286Y-13286000D01*
X16466571Y-13314571D01*
X16466571Y-13471714D01*
X16609428Y-13471714D02*
X16609428Y-13271714D01*
X16609428Y-13300286D02*
X16623714Y-13286000D01*
X16652286Y-13271714D01*
X16695143Y-13271714D01*
X16723714Y-13286000D01*
X16738000Y-13314571D01*
X16738000Y-13471714D01*
X16738000Y-13314571D02*
X16752286Y-13286000D01*
X16780857Y-13271714D01*
X16823714Y-13271714D01*
X16852286Y-13286000D01*
X16866571Y-13314571D01*
X16866571Y-13471714D01*
X17452286Y-13157429D02*
X17195143Y-13543143D01*
X17838000Y-13171714D02*
X17866571Y-13171714D01*
X17895143Y-13186000D01*
X17909428Y-13200286D01*
X17923714Y-13228857D01*
X17938000Y-13286000D01*
X17938000Y-13357429D01*
X17923714Y-13414571D01*
X17909428Y-13443143D01*
X17895143Y-13457429D01*
X17866571Y-13471714D01*
X17838000Y-13471714D01*
X17809428Y-13457429D01*
X17795143Y-13443143D01*
X17780857Y-13414571D01*
X17766571Y-13357429D01*
X17766571Y-13286000D01*
X17780857Y-13228857D01*
X17795143Y-13200286D01*
X17809428Y-13186000D01*
X17838000Y-13171714D01*
X18066571Y-13443143D02*
X18080857Y-13457429D01*
X18066571Y-13471714D01*
X18052286Y-13457429D01*
X18066571Y-13443143D01*
X18066571Y-13471714D01*
X18266571Y-13171714D02*
X18295143Y-13171714D01*
X18323714Y-13186000D01*
X18338000Y-13200286D01*
X18352286Y-13228857D01*
X18366571Y-13286000D01*
X18366571Y-13357429D01*
X18352286Y-13414571D01*
X18338000Y-13443143D01*
X18323714Y-13457429D01*
X18295143Y-13471714D01*
X18266571Y-13471714D01*
X18238000Y-13457429D01*
X18223714Y-13443143D01*
X18209428Y-13414571D01*
X18195143Y-13357429D01*
X18195143Y-13286000D01*
X18209428Y-13228857D01*
X18223714Y-13200286D01*
X18238000Y-13186000D01*
X18266571Y-13171714D01*
X18652286Y-13471714D02*
X18480857Y-13471714D01*
X18566571Y-13471714D02*
X18566571Y-13171714D01*
X18538000Y-13214571D01*
X18509428Y-13243143D01*
X18480857Y-13257429D01*
X18909428Y-13171714D02*
X18852286Y-13171714D01*
X18823714Y-13186000D01*
X18809428Y-13200286D01*
X18780857Y-13243143D01*
X18766571Y-13300286D01*
X18766571Y-13414571D01*
X18780857Y-13443143D01*
X18795143Y-13457429D01*
X18823714Y-13471714D01*
X18880857Y-13471714D01*
X18909428Y-13457429D01*
X18923714Y-13443143D01*
X18938000Y-13414571D01*
X18938000Y-13343143D01*
X18923714Y-13314571D01*
X18909428Y-13300286D01*
X18880857Y-13286000D01*
X18823714Y-13286000D01*
X18795143Y-13300286D01*
X18780857Y-13314571D01*
X18766571Y-13343143D01*
X19052286Y-13171714D02*
X19052286Y-13228857D01*
X19166571Y-13171714D02*
X19166571Y-13228857D01*
X19609428Y-13586000D02*
X19595143Y-13571714D01*
X19566571Y-13528857D01*
X19552286Y-13500286D01*
X19538000Y-13457429D01*
X19523714Y-13386000D01*
X19523714Y-13328857D01*
X19538000Y-13257429D01*
X19552286Y-13214571D01*
X19566571Y-13186000D01*
X19595143Y-13143143D01*
X19609428Y-13128857D01*
X19852286Y-13271714D02*
X19852286Y-13471714D01*
X19780857Y-13157429D02*
X19709428Y-13371714D01*
X19895143Y-13371714D01*
X20238000Y-13471714D02*
X20238000Y-13171714D01*
X20366571Y-13471714D02*
X20366571Y-13314571D01*
X20352286Y-13286000D01*
X20323714Y-13271714D01*
X20280857Y-13271714D01*
X20252286Y-13286000D01*
X20238000Y-13300286D01*
X20552286Y-13471714D02*
X20523714Y-13457429D01*
X20509428Y-13443143D01*
X20495143Y-13414571D01*
X20495143Y-13328857D01*
X20509428Y-13300286D01*
X20523714Y-13286000D01*
X20552286Y-13271714D01*
X20595143Y-13271714D01*
X20623714Y-13286000D01*
X20638000Y-13300286D01*
X20652286Y-13328857D01*
X20652286Y-13414571D01*
X20638000Y-13443143D01*
X20623714Y-13457429D01*
X20595143Y-13471714D01*
X20552286Y-13471714D01*
X20823714Y-13471714D02*
X20795143Y-13457429D01*
X20780857Y-13428857D01*
X20780857Y-13171714D01*
X21052286Y-13457429D02*
X21023714Y-13471714D01*
X20966571Y-13471714D01*
X20938000Y-13457429D01*
X20923714Y-13428857D01*
X20923714Y-13314571D01*
X20938000Y-13286000D01*
X20966571Y-13271714D01*
X21023714Y-13271714D01*
X21052286Y-13286000D01*
X21066571Y-13314571D01*
X21066571Y-13343143D01*
X20923714Y-13371714D01*
X21180857Y-13457429D02*
X21209429Y-13471714D01*
X21266571Y-13471714D01*
X21295143Y-13457429D01*
X21309429Y-13428857D01*
X21309429Y-13414571D01*
X21295143Y-13386000D01*
X21266571Y-13371714D01*
X21223714Y-13371714D01*
X21195143Y-13357429D01*
X21180857Y-13328857D01*
X21180857Y-13314571D01*
X21195143Y-13286000D01*
X21223714Y-13271714D01*
X21266571Y-13271714D01*
X21295143Y-13286000D01*
X21409428Y-13586000D02*
X21423714Y-13571714D01*
X21452286Y-13528857D01*
X21466571Y-13500286D01*
X21480857Y-13457429D01*
X21495143Y-13386000D01*
X21495143Y-13328857D01*
X21480857Y-13257429D01*
X21466571Y-13214571D01*
X21452286Y-13186000D01*
X21423714Y-13143143D01*
X21409428Y-13128857D01*
X14938000Y-13732000D02*
G75*
G03X14938000Y-13732000I-50038J0D01*
G01*
X15366571Y-13867714D02*
X15195143Y-13867714D01*
X15280857Y-13867714D02*
X15280857Y-13567714D01*
X15252286Y-13610571D01*
X15223714Y-13639143D01*
X15195143Y-13653429D01*
X15495143Y-13839143D02*
X15509428Y-13853429D01*
X15495143Y-13867714D01*
X15480857Y-13853429D01*
X15495143Y-13839143D01*
X15495143Y-13867714D01*
X15695143Y-13567714D02*
X15723714Y-13567714D01*
X15752286Y-13582000D01*
X15766571Y-13596286D01*
X15780857Y-13624857D01*
X15795143Y-13682000D01*
X15795143Y-13753429D01*
X15780857Y-13810571D01*
X15766571Y-13839143D01*
X15752286Y-13853429D01*
X15723714Y-13867714D01*
X15695143Y-13867714D01*
X15666571Y-13853429D01*
X15652286Y-13839143D01*
X15638000Y-13810571D01*
X15623714Y-13753429D01*
X15623714Y-13682000D01*
X15638000Y-13624857D01*
X15652286Y-13596286D01*
X15666571Y-13582000D01*
X15695143Y-13567714D01*
X15980857Y-13567714D02*
X16009428Y-13567714D01*
X16038000Y-13582000D01*
X16052286Y-13596286D01*
X16066571Y-13624857D01*
X16080857Y-13682000D01*
X16080857Y-13753429D01*
X16066571Y-13810571D01*
X16052286Y-13839143D01*
X16038000Y-13853429D01*
X16009428Y-13867714D01*
X15980857Y-13867714D01*
X15952286Y-13853429D01*
X15938000Y-13839143D01*
X15923714Y-13810571D01*
X15909428Y-13753429D01*
X15909428Y-13682000D01*
X15923714Y-13624857D01*
X15938000Y-13596286D01*
X15952286Y-13582000D01*
X15980857Y-13567714D01*
X16209428Y-13867714D02*
X16209428Y-13667714D01*
X16209428Y-13696286D02*
X16223714Y-13682000D01*
X16252286Y-13667714D01*
X16295143Y-13667714D01*
X16323714Y-13682000D01*
X16338000Y-13710571D01*
X16338000Y-13867714D01*
X16338000Y-13710571D02*
X16352286Y-13682000D01*
X16380857Y-13667714D01*
X16423714Y-13667714D01*
X16452286Y-13682000D01*
X16466571Y-13710571D01*
X16466571Y-13867714D01*
X16609428Y-13867714D02*
X16609428Y-13667714D01*
X16609428Y-13696286D02*
X16623714Y-13682000D01*
X16652286Y-13667714D01*
X16695143Y-13667714D01*
X16723714Y-13682000D01*
X16738000Y-13710571D01*
X16738000Y-13867714D01*
X16738000Y-13710571D02*
X16752286Y-13682000D01*
X16780857Y-13667714D01*
X16823714Y-13667714D01*
X16852286Y-13682000D01*
X16866571Y-13710571D01*
X16866571Y-13867714D01*
X17452286Y-13553429D02*
X17195143Y-13939143D01*
X17838000Y-13567714D02*
X17866571Y-13567714D01*
X17895143Y-13582000D01*
X17909428Y-13596286D01*
X17923714Y-13624857D01*
X17938000Y-13682000D01*
X17938000Y-13753429D01*
X17923714Y-13810571D01*
X17909428Y-13839143D01*
X17895143Y-13853429D01*
X17866571Y-13867714D01*
X17838000Y-13867714D01*
X17809428Y-13853429D01*
X17795143Y-13839143D01*
X17780857Y-13810571D01*
X17766571Y-13753429D01*
X17766571Y-13682000D01*
X17780857Y-13624857D01*
X17795143Y-13596286D01*
X17809428Y-13582000D01*
X17838000Y-13567714D01*
X18066571Y-13839143D02*
X18080857Y-13853429D01*
X18066571Y-13867714D01*
X18052286Y-13853429D01*
X18066571Y-13839143D01*
X18066571Y-13867714D01*
X18266571Y-13567714D02*
X18295143Y-13567714D01*
X18323714Y-13582000D01*
X18338000Y-13596286D01*
X18352286Y-13624857D01*
X18366571Y-13682000D01*
X18366571Y-13753429D01*
X18352286Y-13810571D01*
X18338000Y-13839143D01*
X18323714Y-13853429D01*
X18295143Y-13867714D01*
X18266571Y-13867714D01*
X18238000Y-13853429D01*
X18223714Y-13839143D01*
X18209428Y-13810571D01*
X18195143Y-13753429D01*
X18195143Y-13682000D01*
X18209428Y-13624857D01*
X18223714Y-13596286D01*
X18238000Y-13582000D01*
X18266571Y-13567714D01*
X18466571Y-13567714D02*
X18652286Y-13567714D01*
X18552286Y-13682000D01*
X18595143Y-13682000D01*
X18623714Y-13696286D01*
X18638000Y-13710571D01*
X18652286Y-13739143D01*
X18652286Y-13810571D01*
X18638000Y-13839143D01*
X18623714Y-13853429D01*
X18595143Y-13867714D01*
X18509428Y-13867714D01*
X18480857Y-13853429D01*
X18466571Y-13839143D01*
X18795143Y-13867714D02*
X18852286Y-13867714D01*
X18880857Y-13853429D01*
X18895143Y-13839143D01*
X18923714Y-13796286D01*
X18938000Y-13739143D01*
X18938000Y-13624857D01*
X18923714Y-13596286D01*
X18909428Y-13582000D01*
X18880857Y-13567714D01*
X18823714Y-13567714D01*
X18795143Y-13582000D01*
X18780857Y-13596286D01*
X18766571Y-13624857D01*
X18766571Y-13696286D01*
X18780857Y-13724857D01*
X18795143Y-13739143D01*
X18823714Y-13753429D01*
X18880857Y-13753429D01*
X18909428Y-13739143D01*
X18923714Y-13724857D01*
X18938000Y-13696286D01*
X19052286Y-13567714D02*
X19052286Y-13624857D01*
X19166571Y-13567714D02*
X19166571Y-13624857D01*
X19609428Y-13982000D02*
X19595143Y-13967714D01*
X19566571Y-13924857D01*
X19552286Y-13896286D01*
X19538000Y-13853429D01*
X19523714Y-13782000D01*
X19523714Y-13724857D01*
X19538000Y-13653429D01*
X19552286Y-13610571D01*
X19566571Y-13582000D01*
X19595143Y-13539143D01*
X19609428Y-13524857D01*
X19852286Y-13667714D02*
X19852286Y-13867714D01*
X19780857Y-13553429D02*
X19709428Y-13767714D01*
X19895143Y-13767714D01*
X20238000Y-13867714D02*
X20238000Y-13567714D01*
X20366571Y-13867714D02*
X20366571Y-13710571D01*
X20352286Y-13682000D01*
X20323714Y-13667714D01*
X20280857Y-13667714D01*
X20252286Y-13682000D01*
X20238000Y-13696286D01*
X20552286Y-13867714D02*
X20523714Y-13853429D01*
X20509428Y-13839143D01*
X20495143Y-13810571D01*
X20495143Y-13724857D01*
X20509428Y-13696286D01*
X20523714Y-13682000D01*
X20552286Y-13667714D01*
X20595143Y-13667714D01*
X20623714Y-13682000D01*
X20638000Y-13696286D01*
X20652286Y-13724857D01*
X20652286Y-13810571D01*
X20638000Y-13839143D01*
X20623714Y-13853429D01*
X20595143Y-13867714D01*
X20552286Y-13867714D01*
X20823714Y-13867714D02*
X20795143Y-13853429D01*
X20780857Y-13824857D01*
X20780857Y-13567714D01*
X21052286Y-13853429D02*
X21023714Y-13867714D01*
X20966571Y-13867714D01*
X20938000Y-13853429D01*
X20923714Y-13824857D01*
X20923714Y-13710571D01*
X20938000Y-13682000D01*
X20966571Y-13667714D01*
X21023714Y-13667714D01*
X21052286Y-13682000D01*
X21066571Y-13710571D01*
X21066571Y-13739143D01*
X20923714Y-13767714D01*
X21180857Y-13853429D02*
X21209429Y-13867714D01*
X21266571Y-13867714D01*
X21295143Y-13853429D01*
X21309429Y-13824857D01*
X21309429Y-13810571D01*
X21295143Y-13782000D01*
X21266571Y-13767714D01*
X21223714Y-13767714D01*
X21195143Y-13753429D01*
X21180857Y-13724857D01*
X21180857Y-13710571D01*
X21195143Y-13682000D01*
X21223714Y-13667714D01*
X21266571Y-13667714D01*
X21295143Y-13682000D01*
X21409428Y-13982000D02*
X21423714Y-13967714D01*
X21452286Y-13924857D01*
X21466571Y-13896286D01*
X21480857Y-13853429D01*
X21495143Y-13782000D01*
X21495143Y-13724857D01*
X21480857Y-13653429D01*
X21466571Y-13610571D01*
X21452286Y-13582000D01*
X21423714Y-13539143D01*
X21409428Y-13524857D01*
X14822938Y-14012938D02*
X14822938Y-14243062D01*
X14707876Y-14128000D02*
X14938000Y-14128000D01*
X15195143Y-13992286D02*
X15209428Y-13978000D01*
X15238000Y-13963714D01*
X15309428Y-13963714D01*
X15338000Y-13978000D01*
X15352286Y-13992286D01*
X15366571Y-14020857D01*
X15366571Y-14049429D01*
X15352286Y-14092286D01*
X15180857Y-14263714D01*
X15366571Y-14263714D01*
X15495143Y-14235143D02*
X15509428Y-14249429D01*
X15495143Y-14263714D01*
X15480857Y-14249429D01*
X15495143Y-14235143D01*
X15495143Y-14263714D01*
X15609428Y-13963714D02*
X15795143Y-13963714D01*
X15695143Y-14078000D01*
X15738000Y-14078000D01*
X15766571Y-14092286D01*
X15780857Y-14106571D01*
X15795143Y-14135143D01*
X15795143Y-14206571D01*
X15780857Y-14235143D01*
X15766571Y-14249429D01*
X15738000Y-14263714D01*
X15652286Y-14263714D01*
X15623714Y-14249429D01*
X15609428Y-14235143D01*
X15980857Y-13963714D02*
X16009428Y-13963714D01*
X16038000Y-13978000D01*
X16052286Y-13992286D01*
X16066571Y-14020857D01*
X16080857Y-14078000D01*
X16080857Y-14149429D01*
X16066571Y-14206571D01*
X16052286Y-14235143D01*
X16038000Y-14249429D01*
X16009428Y-14263714D01*
X15980857Y-14263714D01*
X15952286Y-14249429D01*
X15938000Y-14235143D01*
X15923714Y-14206571D01*
X15909428Y-14149429D01*
X15909428Y-14078000D01*
X15923714Y-14020857D01*
X15938000Y-13992286D01*
X15952286Y-13978000D01*
X15980857Y-13963714D01*
X16209428Y-14263714D02*
X16209428Y-14063714D01*
X16209428Y-14092286D02*
X16223714Y-14078000D01*
X16252286Y-14063714D01*
X16295143Y-14063714D01*
X16323714Y-14078000D01*
X16338000Y-14106571D01*
X16338000Y-14263714D01*
X16338000Y-14106571D02*
X16352286Y-14078000D01*
X16380857Y-14063714D01*
X16423714Y-14063714D01*
X16452286Y-14078000D01*
X16466571Y-14106571D01*
X16466571Y-14263714D01*
X16609428Y-14263714D02*
X16609428Y-14063714D01*
X16609428Y-14092286D02*
X16623714Y-14078000D01*
X16652286Y-14063714D01*
X16695143Y-14063714D01*
X16723714Y-14078000D01*
X16738000Y-14106571D01*
X16738000Y-14263714D01*
X16738000Y-14106571D02*
X16752286Y-14078000D01*
X16780857Y-14063714D01*
X16823714Y-14063714D01*
X16852286Y-14078000D01*
X16866571Y-14106571D01*
X16866571Y-14263714D01*
X17452286Y-13949429D02*
X17195143Y-14335143D01*
X17838000Y-13963714D02*
X17866571Y-13963714D01*
X17895143Y-13978000D01*
X17909428Y-13992286D01*
X17923714Y-14020857D01*
X17938000Y-14078000D01*
X17938000Y-14149429D01*
X17923714Y-14206571D01*
X17909428Y-14235143D01*
X17895143Y-14249429D01*
X17866571Y-14263714D01*
X17838000Y-14263714D01*
X17809428Y-14249429D01*
X17795143Y-14235143D01*
X17780857Y-14206571D01*
X17766571Y-14149429D01*
X17766571Y-14078000D01*
X17780857Y-14020857D01*
X17795143Y-13992286D01*
X17809428Y-13978000D01*
X17838000Y-13963714D01*
X18066571Y-14235143D02*
X18080857Y-14249429D01*
X18066571Y-14263714D01*
X18052286Y-14249429D01*
X18066571Y-14235143D01*
X18066571Y-14263714D01*
X18266571Y-13963714D02*
X18295143Y-13963714D01*
X18323714Y-13978000D01*
X18338000Y-13992286D01*
X18352286Y-14020857D01*
X18366571Y-14078000D01*
X18366571Y-14149429D01*
X18352286Y-14206571D01*
X18338000Y-14235143D01*
X18323714Y-14249429D01*
X18295143Y-14263714D01*
X18266571Y-14263714D01*
X18238000Y-14249429D01*
X18223714Y-14235143D01*
X18209428Y-14206571D01*
X18195143Y-14149429D01*
X18195143Y-14078000D01*
X18209428Y-14020857D01*
X18223714Y-13992286D01*
X18238000Y-13978000D01*
X18266571Y-13963714D01*
X18509428Y-14263714D02*
X18566571Y-14263714D01*
X18595143Y-14249429D01*
X18609428Y-14235143D01*
X18638000Y-14192286D01*
X18652286Y-14135143D01*
X18652286Y-14020857D01*
X18638000Y-13992286D01*
X18623714Y-13978000D01*
X18595143Y-13963714D01*
X18538000Y-13963714D01*
X18509428Y-13978000D01*
X18495143Y-13992286D01*
X18480857Y-14020857D01*
X18480857Y-14092286D01*
X18495143Y-14120857D01*
X18509428Y-14135143D01*
X18538000Y-14149429D01*
X18595143Y-14149429D01*
X18623714Y-14135143D01*
X18638000Y-14120857D01*
X18652286Y-14092286D01*
X18938000Y-14263714D02*
X18766571Y-14263714D01*
X18852286Y-14263714D02*
X18852286Y-13963714D01*
X18823714Y-14006571D01*
X18795143Y-14035143D01*
X18766571Y-14049429D01*
X19052286Y-13963714D02*
X19052286Y-14020857D01*
X19166571Y-13963714D02*
X19166571Y-14020857D01*
X19609428Y-14378000D02*
X19595143Y-14363714D01*
X19566571Y-14320857D01*
X19552286Y-14292286D01*
X19538000Y-14249429D01*
X19523714Y-14178000D01*
X19523714Y-14120857D01*
X19538000Y-14049429D01*
X19552286Y-14006571D01*
X19566571Y-13978000D01*
X19595143Y-13935143D01*
X19609428Y-13920857D01*
X19709428Y-13992286D02*
X19723714Y-13978000D01*
X19752286Y-13963714D01*
X19823714Y-13963714D01*
X19852286Y-13978000D01*
X19866571Y-13992286D01*
X19880857Y-14020857D01*
X19880857Y-14049429D01*
X19866571Y-14092286D01*
X19695143Y-14263714D01*
X19880857Y-14263714D01*
X20238000Y-14263714D02*
X20238000Y-13963714D01*
X20366571Y-14263714D02*
X20366571Y-14106571D01*
X20352286Y-14078000D01*
X20323714Y-14063714D01*
X20280857Y-14063714D01*
X20252286Y-14078000D01*
X20238000Y-14092286D01*
X20552286Y-14263714D02*
X20523714Y-14249429D01*
X20509428Y-14235143D01*
X20495143Y-14206571D01*
X20495143Y-14120857D01*
X20509428Y-14092286D01*
X20523714Y-14078000D01*
X20552286Y-14063714D01*
X20595143Y-14063714D01*
X20623714Y-14078000D01*
X20638000Y-14092286D01*
X20652286Y-14120857D01*
X20652286Y-14206571D01*
X20638000Y-14235143D01*
X20623714Y-14249429D01*
X20595143Y-14263714D01*
X20552286Y-14263714D01*
X20823714Y-14263714D02*
X20795143Y-14249429D01*
X20780857Y-14220857D01*
X20780857Y-13963714D01*
X21052286Y-14249429D02*
X21023714Y-14263714D01*
X20966571Y-14263714D01*
X20938000Y-14249429D01*
X20923714Y-14220857D01*
X20923714Y-14106571D01*
X20938000Y-14078000D01*
X20966571Y-14063714D01*
X21023714Y-14063714D01*
X21052286Y-14078000D01*
X21066571Y-14106571D01*
X21066571Y-14135143D01*
X20923714Y-14163714D01*
X21180857Y-14249429D02*
X21209429Y-14263714D01*
X21266571Y-14263714D01*
X21295143Y-14249429D01*
X21309429Y-14220857D01*
X21309429Y-14206571D01*
X21295143Y-14178000D01*
X21266571Y-14163714D01*
X21223714Y-14163714D01*
X21195143Y-14149429D01*
X21180857Y-14120857D01*
X21180857Y-14106571D01*
X21195143Y-14078000D01*
X21223714Y-14063714D01*
X21266571Y-14063714D01*
X21295143Y-14078000D01*
X21409428Y-14378000D02*
X21423714Y-14363714D01*
X21452286Y-14320857D01*
X21466571Y-14292286D01*
X21480857Y-14249429D01*
X21495143Y-14178000D01*
X21495143Y-14120857D01*
X21480857Y-14049429D01*
X21466571Y-14006571D01*
X21452286Y-13978000D01*
X21423714Y-13935143D01*
X21409428Y-13920857D01*
X14894067Y-14630067D02*
X14894067Y-14417933D01*
X14681933Y-14417933D01*
X14681933Y-14630067D01*
X14894067Y-14630067D01*
X15180857Y-14359714D02*
X15366571Y-14359714D01*
X15266571Y-14474000D01*
X15309428Y-14474000D01*
X15338000Y-14488286D01*
X15352286Y-14502571D01*
X15366571Y-14531143D01*
X15366571Y-14602571D01*
X15352286Y-14631143D01*
X15338000Y-14645429D01*
X15309428Y-14659714D01*
X15223714Y-14659714D01*
X15195143Y-14645429D01*
X15180857Y-14631143D01*
X15495143Y-14631143D02*
X15509428Y-14645429D01*
X15495143Y-14659714D01*
X15480857Y-14645429D01*
X15495143Y-14631143D01*
X15495143Y-14659714D01*
X15695143Y-14359714D02*
X15723714Y-14359714D01*
X15752286Y-14374000D01*
X15766571Y-14388286D01*
X15780857Y-14416857D01*
X15795143Y-14474000D01*
X15795143Y-14545429D01*
X15780857Y-14602571D01*
X15766571Y-14631143D01*
X15752286Y-14645429D01*
X15723714Y-14659714D01*
X15695143Y-14659714D01*
X15666571Y-14645429D01*
X15652286Y-14631143D01*
X15638000Y-14602571D01*
X15623714Y-14545429D01*
X15623714Y-14474000D01*
X15638000Y-14416857D01*
X15652286Y-14388286D01*
X15666571Y-14374000D01*
X15695143Y-14359714D01*
X15980857Y-14359714D02*
X16009428Y-14359714D01*
X16038000Y-14374000D01*
X16052286Y-14388286D01*
X16066571Y-14416857D01*
X16080857Y-14474000D01*
X16080857Y-14545429D01*
X16066571Y-14602571D01*
X16052286Y-14631143D01*
X16038000Y-14645429D01*
X16009428Y-14659714D01*
X15980857Y-14659714D01*
X15952286Y-14645429D01*
X15938000Y-14631143D01*
X15923714Y-14602571D01*
X15909428Y-14545429D01*
X15909428Y-14474000D01*
X15923714Y-14416857D01*
X15938000Y-14388286D01*
X15952286Y-14374000D01*
X15980857Y-14359714D01*
X16209428Y-14659714D02*
X16209428Y-14459714D01*
X16209428Y-14488286D02*
X16223714Y-14474000D01*
X16252286Y-14459714D01*
X16295143Y-14459714D01*
X16323714Y-14474000D01*
X16338000Y-14502571D01*
X16338000Y-14659714D01*
X16338000Y-14502571D02*
X16352286Y-14474000D01*
X16380857Y-14459714D01*
X16423714Y-14459714D01*
X16452286Y-14474000D01*
X16466571Y-14502571D01*
X16466571Y-14659714D01*
X16609428Y-14659714D02*
X16609428Y-14459714D01*
X16609428Y-14488286D02*
X16623714Y-14474000D01*
X16652286Y-14459714D01*
X16695143Y-14459714D01*
X16723714Y-14474000D01*
X16738000Y-14502571D01*
X16738000Y-14659714D01*
X16738000Y-14502571D02*
X16752286Y-14474000D01*
X16780857Y-14459714D01*
X16823714Y-14459714D01*
X16852286Y-14474000D01*
X16866571Y-14502571D01*
X16866571Y-14659714D01*
X17452286Y-14345429D02*
X17195143Y-14731143D01*
X17838000Y-14359714D02*
X17866571Y-14359714D01*
X17895143Y-14374000D01*
X17909428Y-14388286D01*
X17923714Y-14416857D01*
X17938000Y-14474000D01*
X17938000Y-14545429D01*
X17923714Y-14602571D01*
X17909428Y-14631143D01*
X17895143Y-14645429D01*
X17866571Y-14659714D01*
X17838000Y-14659714D01*
X17809428Y-14645429D01*
X17795143Y-14631143D01*
X17780857Y-14602571D01*
X17766571Y-14545429D01*
X17766571Y-14474000D01*
X17780857Y-14416857D01*
X17795143Y-14388286D01*
X17809428Y-14374000D01*
X17838000Y-14359714D01*
X18066571Y-14631143D02*
X18080857Y-14645429D01*
X18066571Y-14659714D01*
X18052286Y-14645429D01*
X18066571Y-14631143D01*
X18066571Y-14659714D01*
X18366571Y-14659714D02*
X18195143Y-14659714D01*
X18280857Y-14659714D02*
X18280857Y-14359714D01*
X18252286Y-14402571D01*
X18223714Y-14431143D01*
X18195143Y-14445429D01*
X18652286Y-14659714D02*
X18480857Y-14659714D01*
X18566571Y-14659714D02*
X18566571Y-14359714D01*
X18538000Y-14402571D01*
X18509428Y-14431143D01*
X18480857Y-14445429D01*
X18823714Y-14488286D02*
X18795143Y-14474000D01*
X18780857Y-14459714D01*
X18766571Y-14431143D01*
X18766571Y-14416857D01*
X18780857Y-14388286D01*
X18795143Y-14374000D01*
X18823714Y-14359714D01*
X18880857Y-14359714D01*
X18909428Y-14374000D01*
X18923714Y-14388286D01*
X18938000Y-14416857D01*
X18938000Y-14431143D01*
X18923714Y-14459714D01*
X18909428Y-14474000D01*
X18880857Y-14488286D01*
X18823714Y-14488286D01*
X18795143Y-14502571D01*
X18780857Y-14516857D01*
X18766571Y-14545429D01*
X18766571Y-14602571D01*
X18780857Y-14631143D01*
X18795143Y-14645429D01*
X18823714Y-14659714D01*
X18880857Y-14659714D01*
X18909428Y-14645429D01*
X18923714Y-14631143D01*
X18938000Y-14602571D01*
X18938000Y-14545429D01*
X18923714Y-14516857D01*
X18909428Y-14502571D01*
X18880857Y-14488286D01*
X19052286Y-14359714D02*
X19052286Y-14416857D01*
X19166571Y-14359714D02*
X19166571Y-14416857D01*
X19609428Y-14774000D02*
X19595143Y-14759714D01*
X19566571Y-14716857D01*
X19552286Y-14688286D01*
X19538000Y-14645429D01*
X19523714Y-14574000D01*
X19523714Y-14516857D01*
X19538000Y-14445429D01*
X19552286Y-14402571D01*
X19566571Y-14374000D01*
X19595143Y-14331143D01*
X19609428Y-14316857D01*
X19852286Y-14459714D02*
X19852286Y-14659714D01*
X19780857Y-14345429D02*
X19709428Y-14559714D01*
X19895143Y-14559714D01*
X20238000Y-14659714D02*
X20238000Y-14359714D01*
X20366571Y-14659714D02*
X20366571Y-14502571D01*
X20352286Y-14474000D01*
X20323714Y-14459714D01*
X20280857Y-14459714D01*
X20252286Y-14474000D01*
X20238000Y-14488286D01*
X20552286Y-14659714D02*
X20523714Y-14645429D01*
X20509428Y-14631143D01*
X20495143Y-14602571D01*
X20495143Y-14516857D01*
X20509428Y-14488286D01*
X20523714Y-14474000D01*
X20552286Y-14459714D01*
X20595143Y-14459714D01*
X20623714Y-14474000D01*
X20638000Y-14488286D01*
X20652286Y-14516857D01*
X20652286Y-14602571D01*
X20638000Y-14631143D01*
X20623714Y-14645429D01*
X20595143Y-14659714D01*
X20552286Y-14659714D01*
X20823714Y-14659714D02*
X20795143Y-14645429D01*
X20780857Y-14616857D01*
X20780857Y-14359714D01*
X21052286Y-14645429D02*
X21023714Y-14659714D01*
X20966571Y-14659714D01*
X20938000Y-14645429D01*
X20923714Y-14616857D01*
X20923714Y-14502571D01*
X20938000Y-14474000D01*
X20966571Y-14459714D01*
X21023714Y-14459714D01*
X21052286Y-14474000D01*
X21066571Y-14502571D01*
X21066571Y-14531143D01*
X20923714Y-14559714D01*
X21180857Y-14645429D02*
X21209429Y-14659714D01*
X21266571Y-14659714D01*
X21295143Y-14645429D01*
X21309429Y-14616857D01*
X21309429Y-14602571D01*
X21295143Y-14574000D01*
X21266571Y-14559714D01*
X21223714Y-14559714D01*
X21195143Y-14545429D01*
X21180857Y-14516857D01*
X21180857Y-14502571D01*
X21195143Y-14474000D01*
X21223714Y-14459714D01*
X21266571Y-14459714D01*
X21295143Y-14474000D01*
X21409428Y-14774000D02*
X21423714Y-14759714D01*
X21452286Y-14716857D01*
X21466571Y-14688286D01*
X21480857Y-14645429D01*
X21495143Y-14574000D01*
X21495143Y-14516857D01*
X21480857Y-14445429D01*
X21466571Y-14402571D01*
X21452286Y-14374000D01*
X21423714Y-14331143D01*
X21409428Y-14316857D01*
X14785600Y-15106400D02*
X14938000Y-14954000D01*
X14785600Y-14801600D01*
X14633200Y-14954000D01*
X14785600Y-15106400D01*
X15180857Y-14789714D02*
X15366571Y-14789714D01*
X15266571Y-14904000D01*
X15309428Y-14904000D01*
X15338000Y-14918286D01*
X15352286Y-14932571D01*
X15366571Y-14961143D01*
X15366571Y-15032571D01*
X15352286Y-15061143D01*
X15338000Y-15075429D01*
X15309428Y-15089714D01*
X15223714Y-15089714D01*
X15195143Y-15075429D01*
X15180857Y-15061143D01*
X15495143Y-15061143D02*
X15509428Y-15075429D01*
X15495143Y-15089714D01*
X15480857Y-15075429D01*
X15495143Y-15061143D01*
X15495143Y-15089714D01*
X15695143Y-14789714D02*
X15723714Y-14789714D01*
X15752286Y-14804000D01*
X15766571Y-14818286D01*
X15780857Y-14846857D01*
X15795143Y-14904000D01*
X15795143Y-14975429D01*
X15780857Y-15032571D01*
X15766571Y-15061143D01*
X15752286Y-15075429D01*
X15723714Y-15089714D01*
X15695143Y-15089714D01*
X15666571Y-15075429D01*
X15652286Y-15061143D01*
X15638000Y-15032571D01*
X15623714Y-14975429D01*
X15623714Y-14904000D01*
X15638000Y-14846857D01*
X15652286Y-14818286D01*
X15666571Y-14804000D01*
X15695143Y-14789714D01*
X16066571Y-14789714D02*
X15923714Y-14789714D01*
X15909428Y-14932571D01*
X15923714Y-14918286D01*
X15952286Y-14904000D01*
X16023714Y-14904000D01*
X16052286Y-14918286D01*
X16066571Y-14932571D01*
X16080857Y-14961143D01*
X16080857Y-15032571D01*
X16066571Y-15061143D01*
X16052286Y-15075429D01*
X16023714Y-15089714D01*
X15952286Y-15089714D01*
X15923714Y-15075429D01*
X15909428Y-15061143D01*
X16209428Y-15089714D02*
X16209428Y-14889714D01*
X16209428Y-14918286D02*
X16223714Y-14904000D01*
X16252286Y-14889714D01*
X16295143Y-14889714D01*
X16323714Y-14904000D01*
X16338000Y-14932571D01*
X16338000Y-15089714D01*
X16338000Y-14932571D02*
X16352286Y-14904000D01*
X16380857Y-14889714D01*
X16423714Y-14889714D01*
X16452286Y-14904000D01*
X16466571Y-14932571D01*
X16466571Y-15089714D01*
X16609428Y-15089714D02*
X16609428Y-14889714D01*
X16609428Y-14918286D02*
X16623714Y-14904000D01*
X16652286Y-14889714D01*
X16695143Y-14889714D01*
X16723714Y-14904000D01*
X16738000Y-14932571D01*
X16738000Y-15089714D01*
X16738000Y-14932571D02*
X16752286Y-14904000D01*
X16780857Y-14889714D01*
X16823714Y-14889714D01*
X16852286Y-14904000D01*
X16866571Y-14932571D01*
X16866571Y-15089714D01*
X17452286Y-14775429D02*
X17195143Y-15161143D01*
X17838000Y-14789714D02*
X17866571Y-14789714D01*
X17895143Y-14804000D01*
X17909428Y-14818286D01*
X17923714Y-14846857D01*
X17938000Y-14904000D01*
X17938000Y-14975429D01*
X17923714Y-15032571D01*
X17909428Y-15061143D01*
X17895143Y-15075429D01*
X17866571Y-15089714D01*
X17838000Y-15089714D01*
X17809428Y-15075429D01*
X17795143Y-15061143D01*
X17780857Y-15032571D01*
X17766571Y-14975429D01*
X17766571Y-14904000D01*
X17780857Y-14846857D01*
X17795143Y-14818286D01*
X17809428Y-14804000D01*
X17838000Y-14789714D01*
X18066571Y-15061143D02*
X18080857Y-15075429D01*
X18066571Y-15089714D01*
X18052286Y-15075429D01*
X18066571Y-15061143D01*
X18066571Y-15089714D01*
X18366571Y-15089714D02*
X18195143Y-15089714D01*
X18280857Y-15089714D02*
X18280857Y-14789714D01*
X18252286Y-14832571D01*
X18223714Y-14861143D01*
X18195143Y-14875429D01*
X18480857Y-14818286D02*
X18495143Y-14804000D01*
X18523714Y-14789714D01*
X18595143Y-14789714D01*
X18623714Y-14804000D01*
X18638000Y-14818286D01*
X18652286Y-14846857D01*
X18652286Y-14875429D01*
X18638000Y-14918286D01*
X18466571Y-15089714D01*
X18652286Y-15089714D01*
X18838000Y-14789714D02*
X18866571Y-14789714D01*
X18895143Y-14804000D01*
X18909428Y-14818286D01*
X18923714Y-14846857D01*
X18938000Y-14904000D01*
X18938000Y-14975429D01*
X18923714Y-15032571D01*
X18909428Y-15061143D01*
X18895143Y-15075429D01*
X18866571Y-15089714D01*
X18838000Y-15089714D01*
X18809428Y-15075429D01*
X18795143Y-15061143D01*
X18780857Y-15032571D01*
X18766571Y-14975429D01*
X18766571Y-14904000D01*
X18780857Y-14846857D01*
X18795143Y-14818286D01*
X18809428Y-14804000D01*
X18838000Y-14789714D01*
X19052286Y-14789714D02*
X19052286Y-14846857D01*
X19166571Y-14789714D02*
X19166571Y-14846857D01*
X19609428Y-15204000D02*
X19595143Y-15189714D01*
X19566571Y-15146857D01*
X19552286Y-15118286D01*
X19538000Y-15075429D01*
X19523714Y-15004000D01*
X19523714Y-14946857D01*
X19538000Y-14875429D01*
X19552286Y-14832571D01*
X19566571Y-14804000D01*
X19595143Y-14761143D01*
X19609428Y-14746857D01*
X19709428Y-14818286D02*
X19723714Y-14804000D01*
X19752286Y-14789714D01*
X19823714Y-14789714D01*
X19852286Y-14804000D01*
X19866571Y-14818286D01*
X19880857Y-14846857D01*
X19880857Y-14875429D01*
X19866571Y-14918286D01*
X19695143Y-15089714D01*
X19880857Y-15089714D01*
X20238000Y-15089714D02*
X20238000Y-14789714D01*
X20366571Y-15089714D02*
X20366571Y-14932571D01*
X20352286Y-14904000D01*
X20323714Y-14889714D01*
X20280857Y-14889714D01*
X20252286Y-14904000D01*
X20238000Y-14918286D01*
X20552286Y-15089714D02*
X20523714Y-15075429D01*
X20509428Y-15061143D01*
X20495143Y-15032571D01*
X20495143Y-14946857D01*
X20509428Y-14918286D01*
X20523714Y-14904000D01*
X20552286Y-14889714D01*
X20595143Y-14889714D01*
X20623714Y-14904000D01*
X20638000Y-14918286D01*
X20652286Y-14946857D01*
X20652286Y-15032571D01*
X20638000Y-15061143D01*
X20623714Y-15075429D01*
X20595143Y-15089714D01*
X20552286Y-15089714D01*
X20823714Y-15089714D02*
X20795143Y-15075429D01*
X20780857Y-15046857D01*
X20780857Y-14789714D01*
X21052286Y-15075429D02*
X21023714Y-15089714D01*
X20966571Y-15089714D01*
X20938000Y-15075429D01*
X20923714Y-15046857D01*
X20923714Y-14932571D01*
X20938000Y-14904000D01*
X20966571Y-14889714D01*
X21023714Y-14889714D01*
X21052286Y-14904000D01*
X21066571Y-14932571D01*
X21066571Y-14961143D01*
X20923714Y-14989714D01*
X21180857Y-15075429D02*
X21209429Y-15089714D01*
X21266571Y-15089714D01*
X21295143Y-15075429D01*
X21309429Y-15046857D01*
X21309429Y-15032571D01*
X21295143Y-15004000D01*
X21266571Y-14989714D01*
X21223714Y-14989714D01*
X21195143Y-14975429D01*
X21180857Y-14946857D01*
X21180857Y-14932571D01*
X21195143Y-14904000D01*
X21223714Y-14889714D01*
X21266571Y-14889714D01*
X21295143Y-14904000D01*
X21409428Y-15204000D02*
X21423714Y-15189714D01*
X21452286Y-15146857D01*
X21466571Y-15118286D01*
X21480857Y-15075429D01*
X21495143Y-15004000D01*
X21495143Y-14946857D01*
X21480857Y-14875429D01*
X21466571Y-14832571D01*
X21452286Y-14804000D01*
X21423714Y-14761143D01*
X21409428Y-14746857D01*
M02*
