G04 #@! TF.FileFunction,Legend,Top*
%FSLAX46Y46*%
G04 Gerber Fmt 4.6, Leading zero omitted, Abs format (unit mm)*
G04 Created by KiCad (PCBNEW (2015-07-31 BZR 6030)-product) date Tue Aug 25 10:18:09 2015*
%MOMM*%
G01*
G04 APERTURE LIST*
%ADD10C,0.100000*%
%ADD11C,0.150000*%
G04 APERTURE END LIST*
D10*
D11*
X155526000Y-119900000D02*
G75*
G03X155526000Y-119900000I-2286000J0D01*
G01*
X181561000Y-119900000D02*
G75*
G03X181561000Y-119900000I-2286000J0D01*
G01*
X181561000Y-92595000D02*
G75*
G03X181561000Y-92595000I-2286000J0D01*
G01*
X162775000Y-112895000D02*
X162775000Y-111895000D01*
X161075000Y-111895000D02*
X161075000Y-112895000D01*
X165950000Y-112895000D02*
X165950000Y-111895000D01*
X164250000Y-111895000D02*
X164250000Y-112895000D01*
X158995000Y-105680000D02*
X158995000Y-107680000D01*
X161045000Y-107680000D02*
X161045000Y-105680000D01*
X167855000Y-109085000D02*
X167855000Y-108085000D01*
X166155000Y-108085000D02*
X166155000Y-109085000D01*
X167767000Y-96647000D02*
X181864000Y-96647000D01*
X181864000Y-111633000D02*
X167767000Y-111633000D01*
X167767000Y-96647000D02*
X167767000Y-111633000D01*
X181864000Y-96647000D02*
X181864000Y-111633000D01*
X163100000Y-104870000D02*
X163100000Y-100870000D01*
X163100000Y-104870000D02*
X167100000Y-104870000D01*
X167100000Y-104870000D02*
X167100000Y-100870000D01*
X167100000Y-100870000D02*
X163100000Y-100870000D01*
X163330000Y-99020000D02*
X164330000Y-99020000D01*
X164330000Y-100370000D02*
X163330000Y-100370000D01*
X165455000Y-108940000D02*
X164955000Y-108940000D01*
X162205000Y-105690000D02*
X162705000Y-105690000D01*
X162205000Y-108940000D02*
X162705000Y-108940000D01*
X165455000Y-105690000D02*
X165455000Y-106190000D01*
X162205000Y-105690000D02*
X162205000Y-106190000D01*
X162205000Y-108940000D02*
X162205000Y-108440000D01*
X165455000Y-108940000D02*
X165455000Y-108440000D01*
X155526000Y-100215000D02*
G75*
G03X155526000Y-100215000I-2286000J0D01*
G01*
X155321000Y-111125000D02*
G75*
G03X155321000Y-111125000I-2286000J0D01*
G01*
X155526000Y-92595000D02*
G75*
G03X155526000Y-92595000I-2286000J0D01*
G01*
X151906667Y-117304381D02*
X151573333Y-116828190D01*
X151335238Y-117304381D02*
X151335238Y-116304381D01*
X151716191Y-116304381D01*
X151811429Y-116352000D01*
X151859048Y-116399619D01*
X151906667Y-116494857D01*
X151906667Y-116637714D01*
X151859048Y-116732952D01*
X151811429Y-116780571D01*
X151716191Y-116828190D01*
X151335238Y-116828190D01*
X152335238Y-116780571D02*
X152668572Y-116780571D01*
X152811429Y-117304381D02*
X152335238Y-117304381D01*
X152335238Y-116304381D01*
X152811429Y-116304381D01*
X153573334Y-116780571D02*
X153240000Y-116780571D01*
X153240000Y-117304381D02*
X153240000Y-116304381D01*
X153716191Y-116304381D01*
X154240000Y-116304381D02*
X154240000Y-116542476D01*
X154001905Y-116447238D02*
X154240000Y-116542476D01*
X154478096Y-116447238D01*
X154097143Y-116732952D02*
X154240000Y-116542476D01*
X154382858Y-116732952D01*
X155001905Y-116304381D02*
X155001905Y-116542476D01*
X154763810Y-116447238D02*
X155001905Y-116542476D01*
X155240001Y-116447238D01*
X154859048Y-116732952D02*
X155001905Y-116542476D01*
X155144763Y-116732952D01*
X177941667Y-117304381D02*
X177608333Y-116828190D01*
X177370238Y-117304381D02*
X177370238Y-116304381D01*
X177751191Y-116304381D01*
X177846429Y-116352000D01*
X177894048Y-116399619D01*
X177941667Y-116494857D01*
X177941667Y-116637714D01*
X177894048Y-116732952D01*
X177846429Y-116780571D01*
X177751191Y-116828190D01*
X177370238Y-116828190D01*
X178370238Y-116780571D02*
X178703572Y-116780571D01*
X178846429Y-117304381D02*
X178370238Y-117304381D01*
X178370238Y-116304381D01*
X178846429Y-116304381D01*
X179608334Y-116780571D02*
X179275000Y-116780571D01*
X179275000Y-117304381D02*
X179275000Y-116304381D01*
X179751191Y-116304381D01*
X180275000Y-116304381D02*
X180275000Y-116542476D01*
X180036905Y-116447238D02*
X180275000Y-116542476D01*
X180513096Y-116447238D01*
X180132143Y-116732952D02*
X180275000Y-116542476D01*
X180417858Y-116732952D01*
X181036905Y-116304381D02*
X181036905Y-116542476D01*
X180798810Y-116447238D02*
X181036905Y-116542476D01*
X181275001Y-116447238D01*
X180894048Y-116732952D02*
X181036905Y-116542476D01*
X181179763Y-116732952D01*
X177941667Y-89999381D02*
X177608333Y-89523190D01*
X177370238Y-89999381D02*
X177370238Y-88999381D01*
X177751191Y-88999381D01*
X177846429Y-89047000D01*
X177894048Y-89094619D01*
X177941667Y-89189857D01*
X177941667Y-89332714D01*
X177894048Y-89427952D01*
X177846429Y-89475571D01*
X177751191Y-89523190D01*
X177370238Y-89523190D01*
X178370238Y-89475571D02*
X178703572Y-89475571D01*
X178846429Y-89999381D02*
X178370238Y-89999381D01*
X178370238Y-88999381D01*
X178846429Y-88999381D01*
X179608334Y-89475571D02*
X179275000Y-89475571D01*
X179275000Y-89999381D02*
X179275000Y-88999381D01*
X179751191Y-88999381D01*
X180275000Y-88999381D02*
X180275000Y-89237476D01*
X180036905Y-89142238D02*
X180275000Y-89237476D01*
X180513096Y-89142238D01*
X180132143Y-89427952D02*
X180275000Y-89237476D01*
X180417858Y-89427952D01*
X181036905Y-88999381D02*
X181036905Y-89237476D01*
X180798810Y-89142238D02*
X181036905Y-89237476D01*
X181275001Y-89142238D01*
X180894048Y-89427952D02*
X181036905Y-89237476D01*
X181179763Y-89427952D01*
X160377143Y-112561666D02*
X160424762Y-112609285D01*
X160472381Y-112752142D01*
X160472381Y-112847380D01*
X160424762Y-112990238D01*
X160329524Y-113085476D01*
X160234286Y-113133095D01*
X160043810Y-113180714D01*
X159900952Y-113180714D01*
X159710476Y-113133095D01*
X159615238Y-113085476D01*
X159520000Y-112990238D01*
X159472381Y-112847380D01*
X159472381Y-112752142D01*
X159520000Y-112609285D01*
X159567619Y-112561666D01*
X160472381Y-111609285D02*
X160472381Y-112180714D01*
X160472381Y-111895000D02*
X159472381Y-111895000D01*
X159615238Y-111990238D01*
X159710476Y-112085476D01*
X159758095Y-112180714D01*
X167557143Y-112561666D02*
X167604762Y-112609285D01*
X167652381Y-112752142D01*
X167652381Y-112847380D01*
X167604762Y-112990238D01*
X167509524Y-113085476D01*
X167414286Y-113133095D01*
X167223810Y-113180714D01*
X167080952Y-113180714D01*
X166890476Y-113133095D01*
X166795238Y-113085476D01*
X166700000Y-112990238D01*
X166652381Y-112847380D01*
X166652381Y-112752142D01*
X166700000Y-112609285D01*
X166747619Y-112561666D01*
X166747619Y-112180714D02*
X166700000Y-112133095D01*
X166652381Y-112037857D01*
X166652381Y-111799761D01*
X166700000Y-111704523D01*
X166747619Y-111656904D01*
X166842857Y-111609285D01*
X166938095Y-111609285D01*
X167080952Y-111656904D01*
X167652381Y-112228333D01*
X167652381Y-111609285D01*
X158077143Y-106846666D02*
X158124762Y-106894285D01*
X158172381Y-107037142D01*
X158172381Y-107132380D01*
X158124762Y-107275238D01*
X158029524Y-107370476D01*
X157934286Y-107418095D01*
X157743810Y-107465714D01*
X157600952Y-107465714D01*
X157410476Y-107418095D01*
X157315238Y-107370476D01*
X157220000Y-107275238D01*
X157172381Y-107132380D01*
X157172381Y-107037142D01*
X157220000Y-106894285D01*
X157267619Y-106846666D01*
X157172381Y-106513333D02*
X157172381Y-105894285D01*
X157553333Y-106227619D01*
X157553333Y-106084761D01*
X157600952Y-105989523D01*
X157648571Y-105941904D01*
X157743810Y-105894285D01*
X157981905Y-105894285D01*
X158077143Y-105941904D01*
X158124762Y-105989523D01*
X158172381Y-106084761D01*
X158172381Y-106370476D01*
X158124762Y-106465714D01*
X158077143Y-106513333D01*
X169472143Y-110541666D02*
X169519762Y-110589285D01*
X169567381Y-110732142D01*
X169567381Y-110827380D01*
X169519762Y-110970238D01*
X169424524Y-111065476D01*
X169329286Y-111113095D01*
X169138810Y-111160714D01*
X168995952Y-111160714D01*
X168805476Y-111113095D01*
X168710238Y-111065476D01*
X168615000Y-110970238D01*
X168567381Y-110827380D01*
X168567381Y-110732142D01*
X168615000Y-110589285D01*
X168662619Y-110541666D01*
X168900714Y-109684523D02*
X169567381Y-109684523D01*
X168519762Y-109922619D02*
X169234048Y-110160714D01*
X169234048Y-109541666D01*
X176196667Y-106132381D02*
X176196667Y-106846667D01*
X176149047Y-106989524D01*
X176053809Y-107084762D01*
X175910952Y-107132381D01*
X175815714Y-107132381D01*
X177196667Y-107132381D02*
X176625238Y-107132381D01*
X176910952Y-107132381D02*
X176910952Y-106132381D01*
X176815714Y-106275238D01*
X176720476Y-106370476D01*
X176625238Y-106418095D01*
X166408334Y-100032381D02*
X165932143Y-100032381D01*
X165932143Y-99032381D01*
X167265477Y-100032381D02*
X166694048Y-100032381D01*
X166979762Y-100032381D02*
X166979762Y-99032381D01*
X166884524Y-99175238D01*
X166789286Y-99270476D01*
X166694048Y-99318095D01*
X161328334Y-100032381D02*
X160995000Y-99556190D01*
X160756905Y-100032381D02*
X160756905Y-99032381D01*
X161137858Y-99032381D01*
X161233096Y-99080000D01*
X161280715Y-99127619D01*
X161328334Y-99222857D01*
X161328334Y-99365714D01*
X161280715Y-99460952D01*
X161233096Y-99508571D01*
X161137858Y-99556190D01*
X160756905Y-99556190D01*
X162280715Y-100032381D02*
X161709286Y-100032381D01*
X161995000Y-100032381D02*
X161995000Y-99032381D01*
X161899762Y-99175238D01*
X161804524Y-99270476D01*
X161709286Y-99318095D01*
X160733095Y-102842381D02*
X160733095Y-103651905D01*
X160780714Y-103747143D01*
X160828333Y-103794762D01*
X160923571Y-103842381D01*
X161114048Y-103842381D01*
X161209286Y-103794762D01*
X161256905Y-103747143D01*
X161304524Y-103651905D01*
X161304524Y-102842381D01*
X162304524Y-103842381D02*
X161733095Y-103842381D01*
X162018809Y-103842381D02*
X162018809Y-102842381D01*
X161923571Y-102985238D01*
X161828333Y-103080476D01*
X161733095Y-103128095D01*
X152501905Y-97619381D02*
X152501905Y-96619381D01*
X152882858Y-96619381D01*
X152978096Y-96667000D01*
X153025715Y-96714619D01*
X153073334Y-96809857D01*
X153073334Y-96952714D01*
X153025715Y-97047952D01*
X152978096Y-97095571D01*
X152882858Y-97143190D01*
X152501905Y-97143190D01*
X154025715Y-97619381D02*
X153454286Y-97619381D01*
X153740000Y-97619381D02*
X153740000Y-96619381D01*
X153644762Y-96762238D01*
X153549524Y-96857476D01*
X153454286Y-96905095D01*
X152296905Y-108529381D02*
X152296905Y-107529381D01*
X152677858Y-107529381D01*
X152773096Y-107577000D01*
X152820715Y-107624619D01*
X152868334Y-107719857D01*
X152868334Y-107862714D01*
X152820715Y-107957952D01*
X152773096Y-108005571D01*
X152677858Y-108053190D01*
X152296905Y-108053190D01*
X153249286Y-107624619D02*
X153296905Y-107577000D01*
X153392143Y-107529381D01*
X153630239Y-107529381D01*
X153725477Y-107577000D01*
X153773096Y-107624619D01*
X153820715Y-107719857D01*
X153820715Y-107815095D01*
X153773096Y-107957952D01*
X153201667Y-108529381D01*
X153820715Y-108529381D01*
X151906667Y-89999381D02*
X151573333Y-89523190D01*
X151335238Y-89999381D02*
X151335238Y-88999381D01*
X151716191Y-88999381D01*
X151811429Y-89047000D01*
X151859048Y-89094619D01*
X151906667Y-89189857D01*
X151906667Y-89332714D01*
X151859048Y-89427952D01*
X151811429Y-89475571D01*
X151716191Y-89523190D01*
X151335238Y-89523190D01*
X152335238Y-89475571D02*
X152668572Y-89475571D01*
X152811429Y-89999381D02*
X152335238Y-89999381D01*
X152335238Y-88999381D01*
X152811429Y-88999381D01*
X153573334Y-89475571D02*
X153240000Y-89475571D01*
X153240000Y-89999381D02*
X153240000Y-88999381D01*
X153716191Y-88999381D01*
X154240000Y-88999381D02*
X154240000Y-89237476D01*
X154001905Y-89142238D02*
X154240000Y-89237476D01*
X154478096Y-89142238D01*
X154097143Y-89427952D02*
X154240000Y-89237476D01*
X154382858Y-89427952D01*
X155001905Y-88999381D02*
X155001905Y-89237476D01*
X154763810Y-89142238D02*
X155001905Y-89237476D01*
X155240001Y-89142238D01*
X154859048Y-89427952D02*
X155001905Y-89237476D01*
X155144763Y-89427952D01*
M02*
