G04 #@! TF.FileFunction,Copper,L2,Bot,Signal*
%FSLAX46Y46*%
G04 Gerber Fmt 4.6, Leading zero omitted, Abs format (unit mm)*
G04 Created by KiCad (PCBNEW (2015-07-31 BZR 6030)-product) date Mon Sep  7 21:49:01 2015*
%MOMM*%
G01*
G04 APERTURE LIST*
%ADD10C,0.100000*%
%ADD11C,5.000000*%
%ADD12C,1.501140*%
%ADD13C,2.999740*%
%ADD14C,4.064000*%
%ADD15C,0.600000*%
%ADD16C,0.250000*%
%ADD17C,0.254000*%
G04 APERTURE END LIST*
D10*
D11*
X153240000Y-119900000D03*
X179275000Y-119900000D03*
X179275000Y-92595000D03*
D12*
X168910000Y-100584000D03*
X168910000Y-103124000D03*
X168910000Y-105156000D03*
X168910000Y-107696000D03*
D13*
X171577000Y-97536000D03*
X171577000Y-111252000D03*
D14*
X153240000Y-100215000D03*
X153035000Y-111125000D03*
D11*
X153240000Y-92595000D03*
D15*
X164280000Y-107765000D03*
X163380000Y-107765000D03*
X163380000Y-106865000D03*
X164280000Y-106865000D03*
D16*
X164035000Y-107835000D02*
X164210000Y-107835000D01*
X164210000Y-107835000D02*
X164280000Y-107765000D01*
X163400000Y-107835000D02*
X163400000Y-107785000D01*
X163400000Y-107785000D02*
X163380000Y-107765000D01*
X163400000Y-106885000D02*
X163400000Y-107200000D01*
X163380000Y-106865000D02*
X163400000Y-106885000D01*
X164035000Y-107200000D02*
X164035000Y-107110000D01*
X164035000Y-107110000D02*
X164280000Y-106865000D01*
D17*
G36*
X177501485Y-89935727D02*
X176618826Y-90816847D01*
X176140546Y-91968674D01*
X176139457Y-93215854D01*
X176615727Y-94368515D01*
X177496847Y-95251174D01*
X178648674Y-95729454D01*
X179895854Y-95730543D01*
X181048515Y-95254273D01*
X181931174Y-94373153D01*
X182323000Y-93429531D01*
X182323000Y-119067276D01*
X181934273Y-118126485D01*
X181053153Y-117243826D01*
X179901326Y-116765546D01*
X178654146Y-116764457D01*
X177501485Y-117240727D01*
X176618826Y-118121847D01*
X176140546Y-119273674D01*
X176139457Y-120520854D01*
X176615727Y-121673515D01*
X177496847Y-122556174D01*
X178440469Y-122948000D01*
X154072724Y-122948000D01*
X155013515Y-122559273D01*
X155896174Y-121678153D01*
X156374454Y-120526326D01*
X156375543Y-119279146D01*
X155899273Y-118126485D01*
X155018153Y-117243826D01*
X153866326Y-116765546D01*
X152619146Y-116764457D01*
X151466485Y-117240727D01*
X150583826Y-118121847D01*
X150192000Y-119065469D01*
X150192000Y-111653172D01*
X150367538Y-111653172D01*
X150772709Y-112633761D01*
X151522293Y-113384655D01*
X152502173Y-113791536D01*
X153563172Y-113792462D01*
X154543761Y-113387291D01*
X155166261Y-112765877D01*
X170242728Y-112765877D01*
X170402495Y-113084632D01*
X171193217Y-113394595D01*
X172042366Y-113378367D01*
X172751505Y-113084632D01*
X172911272Y-112765877D01*
X171577000Y-111431605D01*
X170242728Y-112765877D01*
X155166261Y-112765877D01*
X155294655Y-112637707D01*
X155701536Y-111657827D01*
X155702225Y-110868217D01*
X169434405Y-110868217D01*
X169450633Y-111717366D01*
X169744368Y-112426505D01*
X170063123Y-112586272D01*
X171397395Y-111252000D01*
X171756605Y-111252000D01*
X173090877Y-112586272D01*
X173409632Y-112426505D01*
X173719595Y-111635783D01*
X173703367Y-110786634D01*
X173409632Y-110077495D01*
X173090877Y-109917728D01*
X171756605Y-111252000D01*
X171397395Y-111252000D01*
X170063123Y-109917728D01*
X169744368Y-110077495D01*
X169434405Y-110868217D01*
X155702225Y-110868217D01*
X155702462Y-110596828D01*
X155347653Y-109738123D01*
X170242728Y-109738123D01*
X171577000Y-111072395D01*
X172911272Y-109738123D01*
X172751505Y-109419368D01*
X171960783Y-109109405D01*
X171111634Y-109125633D01*
X170402495Y-109419368D01*
X170242728Y-109738123D01*
X155347653Y-109738123D01*
X155297291Y-109616239D01*
X154547707Y-108865345D01*
X153567827Y-108458464D01*
X152506828Y-108457538D01*
X151526239Y-108862709D01*
X150775345Y-109612293D01*
X150368464Y-110592173D01*
X150367538Y-111653172D01*
X150192000Y-111653172D01*
X150192000Y-103398398D01*
X167524190Y-103398398D01*
X167734686Y-103907837D01*
X167966507Y-104140063D01*
X167736056Y-104370113D01*
X167524671Y-104879184D01*
X167524190Y-105430398D01*
X167734686Y-105939837D01*
X168124113Y-106329944D01*
X168355381Y-106425975D01*
X168126163Y-106520686D01*
X167736056Y-106910113D01*
X167524671Y-107419184D01*
X167524190Y-107970398D01*
X167734686Y-108479837D01*
X168124113Y-108869944D01*
X168633184Y-109081329D01*
X169184398Y-109081810D01*
X169693837Y-108871314D01*
X170083944Y-108481887D01*
X170295329Y-107972816D01*
X170295810Y-107421602D01*
X170085314Y-106912163D01*
X169695887Y-106522056D01*
X169464619Y-106426025D01*
X169693837Y-106331314D01*
X170083944Y-105941887D01*
X170295329Y-105432816D01*
X170295810Y-104881602D01*
X170085314Y-104372163D01*
X169853493Y-104139937D01*
X170083944Y-103909887D01*
X170295329Y-103400816D01*
X170295810Y-102849602D01*
X170085314Y-102340163D01*
X169695887Y-101950056D01*
X169480504Y-101860621D01*
X169634265Y-101796931D01*
X169702325Y-101555930D01*
X168910000Y-100763605D01*
X168117675Y-101555930D01*
X168185735Y-101796931D01*
X168351040Y-101855769D01*
X168126163Y-101948686D01*
X167736056Y-102338113D01*
X167524671Y-102847184D01*
X167524190Y-103398398D01*
X150192000Y-103398398D01*
X150192000Y-102113121D01*
X151521484Y-102113121D01*
X151746154Y-102487168D01*
X152729388Y-102885880D01*
X153790357Y-102877975D01*
X154733846Y-102487168D01*
X154958516Y-102113121D01*
X153240000Y-100394605D01*
X151521484Y-102113121D01*
X150192000Y-102113121D01*
X150192000Y-99704388D01*
X150569120Y-99704388D01*
X150577025Y-100765357D01*
X150967832Y-101708846D01*
X151341879Y-101933516D01*
X153060395Y-100215000D01*
X153419605Y-100215000D01*
X155138121Y-101933516D01*
X155512168Y-101708846D01*
X155910880Y-100725612D01*
X155908298Y-100379034D01*
X167512233Y-100379034D01*
X167540195Y-100929538D01*
X167697069Y-101308265D01*
X167938070Y-101376325D01*
X168730395Y-100584000D01*
X169089605Y-100584000D01*
X169881930Y-101376325D01*
X170122931Y-101308265D01*
X170307767Y-100788966D01*
X170279805Y-100238462D01*
X170122931Y-99859735D01*
X169881930Y-99791675D01*
X169089605Y-100584000D01*
X168730395Y-100584000D01*
X167938070Y-99791675D01*
X167697069Y-99859735D01*
X167512233Y-100379034D01*
X155908298Y-100379034D01*
X155902975Y-99664643D01*
X155881199Y-99612070D01*
X168117675Y-99612070D01*
X168910000Y-100404395D01*
X169702325Y-99612070D01*
X169634265Y-99371069D01*
X169114966Y-99186233D01*
X168564462Y-99214195D01*
X168185735Y-99371069D01*
X168117675Y-99612070D01*
X155881199Y-99612070D01*
X155648331Y-99049877D01*
X170242728Y-99049877D01*
X170402495Y-99368632D01*
X171193217Y-99678595D01*
X172042366Y-99662367D01*
X172751505Y-99368632D01*
X172911272Y-99049877D01*
X171577000Y-97715605D01*
X170242728Y-99049877D01*
X155648331Y-99049877D01*
X155512168Y-98721154D01*
X155138121Y-98496484D01*
X153419605Y-100215000D01*
X153060395Y-100215000D01*
X151341879Y-98496484D01*
X150967832Y-98721154D01*
X150569120Y-99704388D01*
X150192000Y-99704388D01*
X150192000Y-98316879D01*
X151521484Y-98316879D01*
X153240000Y-100035395D01*
X154958516Y-98316879D01*
X154733846Y-97942832D01*
X153750612Y-97544120D01*
X152689643Y-97552025D01*
X151746154Y-97942832D01*
X151521484Y-98316879D01*
X150192000Y-98316879D01*
X150192000Y-97152217D01*
X169434405Y-97152217D01*
X169450633Y-98001366D01*
X169744368Y-98710505D01*
X170063123Y-98870272D01*
X171397395Y-97536000D01*
X171756605Y-97536000D01*
X173090877Y-98870272D01*
X173409632Y-98710505D01*
X173719595Y-97919783D01*
X173703367Y-97070634D01*
X173409632Y-96361495D01*
X173090877Y-96201728D01*
X171756605Y-97536000D01*
X171397395Y-97536000D01*
X170063123Y-96201728D01*
X169744368Y-96361495D01*
X169434405Y-97152217D01*
X150192000Y-97152217D01*
X150192000Y-96022123D01*
X170242728Y-96022123D01*
X171577000Y-97356395D01*
X172911272Y-96022123D01*
X172751505Y-95703368D01*
X171960783Y-95393405D01*
X171111634Y-95409633D01*
X170402495Y-95703368D01*
X170242728Y-96022123D01*
X150192000Y-96022123D01*
X150192000Y-93427724D01*
X150580727Y-94368515D01*
X151461847Y-95251174D01*
X152613674Y-95729454D01*
X153860854Y-95730543D01*
X155013515Y-95254273D01*
X155896174Y-94373153D01*
X156374454Y-93221326D01*
X156375543Y-91974146D01*
X155899273Y-90821485D01*
X155018153Y-89938826D01*
X154074531Y-89547000D01*
X178442276Y-89547000D01*
X177501485Y-89935727D01*
X177501485Y-89935727D01*
G37*
X177501485Y-89935727D02*
X176618826Y-90816847D01*
X176140546Y-91968674D01*
X176139457Y-93215854D01*
X176615727Y-94368515D01*
X177496847Y-95251174D01*
X178648674Y-95729454D01*
X179895854Y-95730543D01*
X181048515Y-95254273D01*
X181931174Y-94373153D01*
X182323000Y-93429531D01*
X182323000Y-119067276D01*
X181934273Y-118126485D01*
X181053153Y-117243826D01*
X179901326Y-116765546D01*
X178654146Y-116764457D01*
X177501485Y-117240727D01*
X176618826Y-118121847D01*
X176140546Y-119273674D01*
X176139457Y-120520854D01*
X176615727Y-121673515D01*
X177496847Y-122556174D01*
X178440469Y-122948000D01*
X154072724Y-122948000D01*
X155013515Y-122559273D01*
X155896174Y-121678153D01*
X156374454Y-120526326D01*
X156375543Y-119279146D01*
X155899273Y-118126485D01*
X155018153Y-117243826D01*
X153866326Y-116765546D01*
X152619146Y-116764457D01*
X151466485Y-117240727D01*
X150583826Y-118121847D01*
X150192000Y-119065469D01*
X150192000Y-111653172D01*
X150367538Y-111653172D01*
X150772709Y-112633761D01*
X151522293Y-113384655D01*
X152502173Y-113791536D01*
X153563172Y-113792462D01*
X154543761Y-113387291D01*
X155166261Y-112765877D01*
X170242728Y-112765877D01*
X170402495Y-113084632D01*
X171193217Y-113394595D01*
X172042366Y-113378367D01*
X172751505Y-113084632D01*
X172911272Y-112765877D01*
X171577000Y-111431605D01*
X170242728Y-112765877D01*
X155166261Y-112765877D01*
X155294655Y-112637707D01*
X155701536Y-111657827D01*
X155702225Y-110868217D01*
X169434405Y-110868217D01*
X169450633Y-111717366D01*
X169744368Y-112426505D01*
X170063123Y-112586272D01*
X171397395Y-111252000D01*
X171756605Y-111252000D01*
X173090877Y-112586272D01*
X173409632Y-112426505D01*
X173719595Y-111635783D01*
X173703367Y-110786634D01*
X173409632Y-110077495D01*
X173090877Y-109917728D01*
X171756605Y-111252000D01*
X171397395Y-111252000D01*
X170063123Y-109917728D01*
X169744368Y-110077495D01*
X169434405Y-110868217D01*
X155702225Y-110868217D01*
X155702462Y-110596828D01*
X155347653Y-109738123D01*
X170242728Y-109738123D01*
X171577000Y-111072395D01*
X172911272Y-109738123D01*
X172751505Y-109419368D01*
X171960783Y-109109405D01*
X171111634Y-109125633D01*
X170402495Y-109419368D01*
X170242728Y-109738123D01*
X155347653Y-109738123D01*
X155297291Y-109616239D01*
X154547707Y-108865345D01*
X153567827Y-108458464D01*
X152506828Y-108457538D01*
X151526239Y-108862709D01*
X150775345Y-109612293D01*
X150368464Y-110592173D01*
X150367538Y-111653172D01*
X150192000Y-111653172D01*
X150192000Y-103398398D01*
X167524190Y-103398398D01*
X167734686Y-103907837D01*
X167966507Y-104140063D01*
X167736056Y-104370113D01*
X167524671Y-104879184D01*
X167524190Y-105430398D01*
X167734686Y-105939837D01*
X168124113Y-106329944D01*
X168355381Y-106425975D01*
X168126163Y-106520686D01*
X167736056Y-106910113D01*
X167524671Y-107419184D01*
X167524190Y-107970398D01*
X167734686Y-108479837D01*
X168124113Y-108869944D01*
X168633184Y-109081329D01*
X169184398Y-109081810D01*
X169693837Y-108871314D01*
X170083944Y-108481887D01*
X170295329Y-107972816D01*
X170295810Y-107421602D01*
X170085314Y-106912163D01*
X169695887Y-106522056D01*
X169464619Y-106426025D01*
X169693837Y-106331314D01*
X170083944Y-105941887D01*
X170295329Y-105432816D01*
X170295810Y-104881602D01*
X170085314Y-104372163D01*
X169853493Y-104139937D01*
X170083944Y-103909887D01*
X170295329Y-103400816D01*
X170295810Y-102849602D01*
X170085314Y-102340163D01*
X169695887Y-101950056D01*
X169480504Y-101860621D01*
X169634265Y-101796931D01*
X169702325Y-101555930D01*
X168910000Y-100763605D01*
X168117675Y-101555930D01*
X168185735Y-101796931D01*
X168351040Y-101855769D01*
X168126163Y-101948686D01*
X167736056Y-102338113D01*
X167524671Y-102847184D01*
X167524190Y-103398398D01*
X150192000Y-103398398D01*
X150192000Y-102113121D01*
X151521484Y-102113121D01*
X151746154Y-102487168D01*
X152729388Y-102885880D01*
X153790357Y-102877975D01*
X154733846Y-102487168D01*
X154958516Y-102113121D01*
X153240000Y-100394605D01*
X151521484Y-102113121D01*
X150192000Y-102113121D01*
X150192000Y-99704388D01*
X150569120Y-99704388D01*
X150577025Y-100765357D01*
X150967832Y-101708846D01*
X151341879Y-101933516D01*
X153060395Y-100215000D01*
X153419605Y-100215000D01*
X155138121Y-101933516D01*
X155512168Y-101708846D01*
X155910880Y-100725612D01*
X155908298Y-100379034D01*
X167512233Y-100379034D01*
X167540195Y-100929538D01*
X167697069Y-101308265D01*
X167938070Y-101376325D01*
X168730395Y-100584000D01*
X169089605Y-100584000D01*
X169881930Y-101376325D01*
X170122931Y-101308265D01*
X170307767Y-100788966D01*
X170279805Y-100238462D01*
X170122931Y-99859735D01*
X169881930Y-99791675D01*
X169089605Y-100584000D01*
X168730395Y-100584000D01*
X167938070Y-99791675D01*
X167697069Y-99859735D01*
X167512233Y-100379034D01*
X155908298Y-100379034D01*
X155902975Y-99664643D01*
X155881199Y-99612070D01*
X168117675Y-99612070D01*
X168910000Y-100404395D01*
X169702325Y-99612070D01*
X169634265Y-99371069D01*
X169114966Y-99186233D01*
X168564462Y-99214195D01*
X168185735Y-99371069D01*
X168117675Y-99612070D01*
X155881199Y-99612070D01*
X155648331Y-99049877D01*
X170242728Y-99049877D01*
X170402495Y-99368632D01*
X171193217Y-99678595D01*
X172042366Y-99662367D01*
X172751505Y-99368632D01*
X172911272Y-99049877D01*
X171577000Y-97715605D01*
X170242728Y-99049877D01*
X155648331Y-99049877D01*
X155512168Y-98721154D01*
X155138121Y-98496484D01*
X153419605Y-100215000D01*
X153060395Y-100215000D01*
X151341879Y-98496484D01*
X150967832Y-98721154D01*
X150569120Y-99704388D01*
X150192000Y-99704388D01*
X150192000Y-98316879D01*
X151521484Y-98316879D01*
X153240000Y-100035395D01*
X154958516Y-98316879D01*
X154733846Y-97942832D01*
X153750612Y-97544120D01*
X152689643Y-97552025D01*
X151746154Y-97942832D01*
X151521484Y-98316879D01*
X150192000Y-98316879D01*
X150192000Y-97152217D01*
X169434405Y-97152217D01*
X169450633Y-98001366D01*
X169744368Y-98710505D01*
X170063123Y-98870272D01*
X171397395Y-97536000D01*
X171756605Y-97536000D01*
X173090877Y-98870272D01*
X173409632Y-98710505D01*
X173719595Y-97919783D01*
X173703367Y-97070634D01*
X173409632Y-96361495D01*
X173090877Y-96201728D01*
X171756605Y-97536000D01*
X171397395Y-97536000D01*
X170063123Y-96201728D01*
X169744368Y-96361495D01*
X169434405Y-97152217D01*
X150192000Y-97152217D01*
X150192000Y-96022123D01*
X170242728Y-96022123D01*
X171577000Y-97356395D01*
X172911272Y-96022123D01*
X172751505Y-95703368D01*
X171960783Y-95393405D01*
X171111634Y-95409633D01*
X170402495Y-95703368D01*
X170242728Y-96022123D01*
X150192000Y-96022123D01*
X150192000Y-93427724D01*
X150580727Y-94368515D01*
X151461847Y-95251174D01*
X152613674Y-95729454D01*
X153860854Y-95730543D01*
X155013515Y-95254273D01*
X155896174Y-94373153D01*
X156374454Y-93221326D01*
X156375543Y-91974146D01*
X155899273Y-90821485D01*
X155018153Y-89938826D01*
X154074531Y-89547000D01*
X178442276Y-89547000D01*
X177501485Y-89935727D01*
M02*
