G04 #@! TF.FileFunction,Copper,L1,Top,Signal*
%FSLAX46Y46*%
G04 Gerber Fmt 4.6, Leading zero omitted, Abs format (unit mm)*
G04 Created by KiCad (PCBNEW (2015-07-31 BZR 6030)-product) date Mon Sep  7 21:49:01 2015*
%MOMM*%
G01*
G04 APERTURE LIST*
%ADD10C,0.100000*%
%ADD11C,5.000000*%
%ADD12R,1.250000X1.000000*%
%ADD13R,1.600000X1.000000*%
%ADD14C,1.501140*%
%ADD15C,2.999740*%
%ADD16R,0.980000X3.400000*%
%ADD17R,0.500000X0.900000*%
%ADD18O,0.300000X0.750000*%
%ADD19O,0.750000X0.300000*%
%ADD20R,0.900000X0.900000*%
%ADD21C,4.064000*%
%ADD22C,0.600000*%
%ADD23C,0.250000*%
%ADD24C,0.635000*%
%ADD25C,0.254000*%
G04 APERTURE END LIST*
D10*
D11*
X153240000Y-119900000D03*
X179275000Y-119900000D03*
X179275000Y-92595000D03*
D12*
X161925000Y-111395000D03*
X161925000Y-113395000D03*
X165100000Y-111395000D03*
X165100000Y-113395000D03*
D13*
X160020000Y-108180000D03*
X160020000Y-105180000D03*
D12*
X167005000Y-107585000D03*
X167005000Y-109585000D03*
D14*
X168910000Y-100584000D03*
X168910000Y-103124000D03*
X168910000Y-105156000D03*
X168910000Y-107696000D03*
D15*
X171577000Y-97536000D03*
X171577000Y-111252000D03*
D16*
X163745000Y-102870000D03*
X166285000Y-102870000D03*
D17*
X164580000Y-99695000D03*
X163080000Y-99695000D03*
D18*
X164580000Y-105840000D03*
X164080000Y-105840000D03*
X163580000Y-105840000D03*
X163080000Y-105840000D03*
D19*
X162355000Y-106565000D03*
X162355000Y-107065000D03*
X162355000Y-107565000D03*
X162355000Y-108065000D03*
D18*
X163080000Y-108790000D03*
X163580000Y-108790000D03*
X164080000Y-108790000D03*
X164580000Y-108790000D03*
D19*
X165305000Y-108065000D03*
X165305000Y-107565000D03*
X165305000Y-107065000D03*
X165305000Y-106565000D03*
D20*
X163380000Y-107765000D03*
X164280000Y-107765000D03*
X163380000Y-106865000D03*
X164280000Y-106865000D03*
D21*
X153240000Y-100215000D03*
X153035000Y-111125000D03*
D11*
X153240000Y-92595000D03*
D22*
X164280000Y-107765000D03*
X163380000Y-107765000D03*
X163380000Y-106865000D03*
X164280000Y-106865000D03*
D23*
X163080000Y-106565000D02*
X163380000Y-106865000D01*
X160020000Y-105180000D02*
X160970000Y-105180000D01*
X160970000Y-105180000D02*
X162355000Y-106565000D01*
D24*
X167005000Y-109585000D02*
X167005000Y-113550000D01*
X161925000Y-113395000D02*
X165100000Y-113395000D01*
X165100000Y-113395000D02*
X165255000Y-113550000D01*
X165255000Y-113550000D02*
X167005000Y-113550000D01*
X167005000Y-113550000D02*
X169279000Y-113550000D01*
X169279000Y-113550000D02*
X171577000Y-111252000D01*
D23*
X162355000Y-106565000D02*
X163080000Y-106565000D01*
X165305000Y-107065000D02*
X164480000Y-107065000D01*
X164480000Y-107065000D02*
X164280000Y-106865000D01*
X165305000Y-106565000D02*
X164580000Y-106565000D01*
X164580000Y-106565000D02*
X164280000Y-106865000D01*
X162355000Y-108065000D02*
X163080000Y-108065000D01*
X163080000Y-108065000D02*
X163380000Y-107765000D01*
X162355000Y-107565000D02*
X163180000Y-107565000D01*
X163180000Y-107565000D02*
X163380000Y-107765000D01*
X163080000Y-108790000D02*
X160630000Y-108790000D01*
X160630000Y-108790000D02*
X160020000Y-108180000D01*
X165305000Y-107565000D02*
X166985000Y-107565000D01*
X166985000Y-107565000D02*
X167005000Y-107585000D01*
D24*
X164580000Y-99695000D02*
X166285000Y-101400000D01*
X166285000Y-101400000D02*
X166285000Y-102870000D01*
X166285000Y-102870000D02*
X167005000Y-103590000D01*
X167005000Y-103590000D02*
X167005000Y-107585000D01*
X167005000Y-107585000D02*
X168799000Y-107585000D01*
X168799000Y-107585000D02*
X168910000Y-107696000D01*
D23*
X164580000Y-105840000D02*
X163580000Y-105840000D01*
X163580000Y-105840000D02*
X163785000Y-106045000D01*
X163785000Y-106045000D02*
X164465000Y-106045000D01*
X164465000Y-106045000D02*
X164580000Y-105840000D01*
X164580000Y-105840000D02*
X163745000Y-105005000D01*
X163745000Y-105005000D02*
X163745000Y-102870000D01*
X163580000Y-105840000D02*
X163625000Y-105840000D01*
X163625000Y-105840000D02*
X163745000Y-105720000D01*
X163745000Y-105720000D02*
X163745000Y-102870000D01*
D24*
X164080000Y-105840000D02*
X164080000Y-103205000D01*
X164080000Y-103205000D02*
X163745000Y-102870000D01*
D23*
X163080000Y-105840000D02*
X163080000Y-105295000D01*
X162560000Y-100215000D02*
X163080000Y-99695000D01*
X162560000Y-104775000D02*
X162560000Y-100215000D01*
X163080000Y-105295000D02*
X162560000Y-104775000D01*
X163580000Y-108790000D02*
X164080000Y-108790000D01*
X165305000Y-108065000D02*
X165305000Y-109105000D01*
X165305000Y-109105000D02*
X165100000Y-109310000D01*
X163580000Y-108790000D02*
X164465000Y-109675000D01*
D24*
X164080000Y-108790000D02*
X164465000Y-109175000D01*
X164465000Y-109175000D02*
X164465000Y-109675000D01*
X164465000Y-109675000D02*
X164465000Y-109855000D01*
X164580000Y-108790000D02*
X165100000Y-109310000D01*
X165100000Y-109310000D02*
X165100000Y-109855000D01*
X165100000Y-111395000D02*
X165100000Y-109855000D01*
X164465000Y-109855000D02*
X161925000Y-109855000D01*
X165100000Y-109855000D02*
X164465000Y-109855000D01*
X161925000Y-111395000D02*
X161925000Y-109855000D01*
X153035000Y-111125000D02*
X154305000Y-109855000D01*
X154305000Y-109855000D02*
X161925000Y-109855000D01*
D25*
G36*
X177501485Y-89935727D02*
X176618826Y-90816847D01*
X176140546Y-91968674D01*
X176139457Y-93215854D01*
X176615727Y-94368515D01*
X177496847Y-95251174D01*
X178648674Y-95729454D01*
X179895854Y-95730543D01*
X181048515Y-95254273D01*
X181931174Y-94373153D01*
X182323000Y-93429531D01*
X182323000Y-119067276D01*
X181934273Y-118126485D01*
X181053153Y-117243826D01*
X179901326Y-116765546D01*
X178654146Y-116764457D01*
X177501485Y-117240727D01*
X176618826Y-118121847D01*
X176140546Y-119273674D01*
X176139457Y-120520854D01*
X176615727Y-121673515D01*
X177496847Y-122556174D01*
X178440469Y-122948000D01*
X154072724Y-122948000D01*
X155013515Y-122559273D01*
X155896174Y-121678153D01*
X156374454Y-120526326D01*
X156375543Y-119279146D01*
X155899273Y-118126485D01*
X155018153Y-117243826D01*
X153866326Y-116765546D01*
X152619146Y-116764457D01*
X151466485Y-117240727D01*
X150583826Y-118121847D01*
X150192000Y-119065469D01*
X150192000Y-111653172D01*
X150367538Y-111653172D01*
X150772709Y-112633761D01*
X151522293Y-113384655D01*
X152502173Y-113791536D01*
X153563172Y-113792462D01*
X153833535Y-113680750D01*
X160665000Y-113680750D01*
X160665000Y-114021309D01*
X160761673Y-114254698D01*
X160940301Y-114433327D01*
X161173690Y-114530000D01*
X161639250Y-114530000D01*
X161798000Y-114371250D01*
X161798000Y-113522000D01*
X162052000Y-113522000D01*
X162052000Y-114371250D01*
X162210750Y-114530000D01*
X162676310Y-114530000D01*
X162909699Y-114433327D01*
X163088327Y-114254698D01*
X163185000Y-114021309D01*
X163185000Y-113680750D01*
X163840000Y-113680750D01*
X163840000Y-114021309D01*
X163936673Y-114254698D01*
X164115301Y-114433327D01*
X164348690Y-114530000D01*
X164814250Y-114530000D01*
X164973000Y-114371250D01*
X164973000Y-113522000D01*
X165227000Y-113522000D01*
X165227000Y-114371250D01*
X165385750Y-114530000D01*
X165851310Y-114530000D01*
X166084699Y-114433327D01*
X166263327Y-114254698D01*
X166360000Y-114021309D01*
X166360000Y-113680750D01*
X166201250Y-113522000D01*
X165227000Y-113522000D01*
X164973000Y-113522000D01*
X163998750Y-113522000D01*
X163840000Y-113680750D01*
X163185000Y-113680750D01*
X163026250Y-113522000D01*
X162052000Y-113522000D01*
X161798000Y-113522000D01*
X160823750Y-113522000D01*
X160665000Y-113680750D01*
X153833535Y-113680750D01*
X154543761Y-113387291D01*
X155294655Y-112637707D01*
X155701536Y-111657827D01*
X155702278Y-110807500D01*
X160670279Y-110807500D01*
X160652560Y-110895000D01*
X160652560Y-111895000D01*
X160696838Y-112130317D01*
X160835910Y-112346441D01*
X160904006Y-112392969D01*
X160761673Y-112535302D01*
X160665000Y-112768691D01*
X160665000Y-113109250D01*
X160823750Y-113268000D01*
X161798000Y-113268000D01*
X161798000Y-113248000D01*
X162052000Y-113248000D01*
X162052000Y-113268000D01*
X163026250Y-113268000D01*
X163185000Y-113109250D01*
X163185000Y-112768691D01*
X163088327Y-112535302D01*
X162947090Y-112394064D01*
X163001441Y-112359090D01*
X163146431Y-112146890D01*
X163197440Y-111895000D01*
X163197440Y-110895000D01*
X163180976Y-110807500D01*
X163845279Y-110807500D01*
X163827560Y-110895000D01*
X163827560Y-111895000D01*
X163871838Y-112130317D01*
X164010910Y-112346441D01*
X164079006Y-112392969D01*
X163936673Y-112535302D01*
X163840000Y-112768691D01*
X163840000Y-113109250D01*
X163998750Y-113268000D01*
X164973000Y-113268000D01*
X164973000Y-113248000D01*
X165227000Y-113248000D01*
X165227000Y-113268000D01*
X166201250Y-113268000D01*
X166360000Y-113109250D01*
X166360000Y-112768691D01*
X166358835Y-112765877D01*
X170242728Y-112765877D01*
X170402495Y-113084632D01*
X171193217Y-113394595D01*
X172042366Y-113378367D01*
X172751505Y-113084632D01*
X172911272Y-112765877D01*
X171577000Y-111431605D01*
X170242728Y-112765877D01*
X166358835Y-112765877D01*
X166263327Y-112535302D01*
X166122090Y-112394064D01*
X166176441Y-112359090D01*
X166321431Y-112146890D01*
X166372440Y-111895000D01*
X166372440Y-110895000D01*
X166367401Y-110868217D01*
X169434405Y-110868217D01*
X169450633Y-111717366D01*
X169744368Y-112426505D01*
X170063123Y-112586272D01*
X171397395Y-111252000D01*
X171756605Y-111252000D01*
X173090877Y-112586272D01*
X173409632Y-112426505D01*
X173719595Y-111635783D01*
X173703367Y-110786634D01*
X173409632Y-110077495D01*
X173090877Y-109917728D01*
X171756605Y-111252000D01*
X171397395Y-111252000D01*
X170063123Y-109917728D01*
X169744368Y-110077495D01*
X169434405Y-110868217D01*
X166367401Y-110868217D01*
X166339511Y-110720000D01*
X166719250Y-110720000D01*
X166878000Y-110561250D01*
X166878000Y-109712000D01*
X167132000Y-109712000D01*
X167132000Y-110561250D01*
X167290750Y-110720000D01*
X167756310Y-110720000D01*
X167989699Y-110623327D01*
X168168327Y-110444698D01*
X168265000Y-110211309D01*
X168265000Y-109870750D01*
X168132373Y-109738123D01*
X170242728Y-109738123D01*
X171577000Y-111072395D01*
X172911272Y-109738123D01*
X172751505Y-109419368D01*
X171960783Y-109109405D01*
X171111634Y-109125633D01*
X170402495Y-109419368D01*
X170242728Y-109738123D01*
X168132373Y-109738123D01*
X168106250Y-109712000D01*
X167132000Y-109712000D01*
X166878000Y-109712000D01*
X166858000Y-109712000D01*
X166858000Y-109458000D01*
X166878000Y-109458000D01*
X166878000Y-109438000D01*
X167132000Y-109438000D01*
X167132000Y-109458000D01*
X168106250Y-109458000D01*
X168265000Y-109299250D01*
X168265000Y-108958691D01*
X168249869Y-108922163D01*
X168633184Y-109081329D01*
X169184398Y-109081810D01*
X169693837Y-108871314D01*
X170083944Y-108481887D01*
X170295329Y-107972816D01*
X170295810Y-107421602D01*
X170085314Y-106912163D01*
X169695887Y-106522056D01*
X169464619Y-106426025D01*
X169693837Y-106331314D01*
X170083944Y-105941887D01*
X170295329Y-105432816D01*
X170295810Y-104881602D01*
X170085314Y-104372163D01*
X169853493Y-104139937D01*
X170083944Y-103909887D01*
X170295329Y-103400816D01*
X170295810Y-102849602D01*
X170085314Y-102340163D01*
X169695887Y-101950056D01*
X169480504Y-101860621D01*
X169634265Y-101796931D01*
X169702325Y-101555930D01*
X168910000Y-100763605D01*
X168117675Y-101555930D01*
X168185735Y-101796931D01*
X168351040Y-101855769D01*
X168126163Y-101948686D01*
X167736056Y-102338113D01*
X167549479Y-102787441D01*
X167422440Y-102660402D01*
X167422440Y-101170000D01*
X167378162Y-100934683D01*
X167239090Y-100718559D01*
X167026890Y-100573569D01*
X166775000Y-100522560D01*
X166754598Y-100522560D01*
X166611072Y-100379034D01*
X167512233Y-100379034D01*
X167540195Y-100929538D01*
X167697069Y-101308265D01*
X167938070Y-101376325D01*
X168730395Y-100584000D01*
X169089605Y-100584000D01*
X169881930Y-101376325D01*
X170122931Y-101308265D01*
X170307767Y-100788966D01*
X170279805Y-100238462D01*
X170122931Y-99859735D01*
X169881930Y-99791675D01*
X169089605Y-100584000D01*
X168730395Y-100584000D01*
X167938070Y-99791675D01*
X167697069Y-99859735D01*
X167512233Y-100379034D01*
X166611072Y-100379034D01*
X165844108Y-99612070D01*
X168117675Y-99612070D01*
X168910000Y-100404395D01*
X169702325Y-99612070D01*
X169634265Y-99371069D01*
X169114966Y-99186233D01*
X168564462Y-99214195D01*
X168185735Y-99371069D01*
X168117675Y-99612070D01*
X165844108Y-99612070D01*
X165477440Y-99245402D01*
X165477440Y-99245000D01*
X165440726Y-99049877D01*
X170242728Y-99049877D01*
X170402495Y-99368632D01*
X171193217Y-99678595D01*
X172042366Y-99662367D01*
X172751505Y-99368632D01*
X172911272Y-99049877D01*
X171577000Y-97715605D01*
X170242728Y-99049877D01*
X165440726Y-99049877D01*
X165433162Y-99009683D01*
X165294090Y-98793559D01*
X165081890Y-98648569D01*
X164830000Y-98597560D01*
X164330000Y-98597560D01*
X164094683Y-98641838D01*
X163878559Y-98780910D01*
X163830866Y-98850711D01*
X163794090Y-98793559D01*
X163581890Y-98648569D01*
X163330000Y-98597560D01*
X162830000Y-98597560D01*
X162594683Y-98641838D01*
X162378559Y-98780910D01*
X162233569Y-98993110D01*
X162182560Y-99245000D01*
X162182560Y-99517638D01*
X162022599Y-99677599D01*
X161857852Y-99924161D01*
X161800000Y-100215000D01*
X161800000Y-104775000D01*
X161857852Y-105065839D01*
X162022599Y-105312401D01*
X162296727Y-105586529D01*
X162295000Y-105595213D01*
X162295000Y-105780000D01*
X162227998Y-105780000D01*
X162227998Y-105930873D01*
X162102761Y-105766557D01*
X161799284Y-105837759D01*
X161546155Y-106019676D01*
X161381911Y-106284614D01*
X161369944Y-106368684D01*
X161508257Y-106490000D01*
X161584948Y-106490000D01*
X161555134Y-106509921D01*
X161411531Y-106724840D01*
X161369944Y-106761316D01*
X161376483Y-106807252D01*
X161325213Y-107065000D01*
X161376483Y-107322748D01*
X161370725Y-107363194D01*
X161284090Y-107228559D01*
X161071890Y-107083569D01*
X160820000Y-107032560D01*
X159220000Y-107032560D01*
X158984683Y-107076838D01*
X158768559Y-107215910D01*
X158623569Y-107428110D01*
X158572560Y-107680000D01*
X158572560Y-108680000D01*
X158614426Y-108902500D01*
X154584797Y-108902500D01*
X154547707Y-108865345D01*
X153567827Y-108458464D01*
X152506828Y-108457538D01*
X151526239Y-108862709D01*
X150775345Y-109612293D01*
X150368464Y-110592173D01*
X150367538Y-111653172D01*
X150192000Y-111653172D01*
X150192000Y-105465750D01*
X158585000Y-105465750D01*
X158585000Y-105806309D01*
X158681673Y-106039698D01*
X158860301Y-106218327D01*
X159093690Y-106315000D01*
X159734250Y-106315000D01*
X159893000Y-106156250D01*
X159893000Y-105307000D01*
X160147000Y-105307000D01*
X160147000Y-106156250D01*
X160305750Y-106315000D01*
X160946310Y-106315000D01*
X161179699Y-106218327D01*
X161358327Y-106039698D01*
X161455000Y-105806309D01*
X161455000Y-105465750D01*
X161296250Y-105307000D01*
X160147000Y-105307000D01*
X159893000Y-105307000D01*
X158743750Y-105307000D01*
X158585000Y-105465750D01*
X150192000Y-105465750D01*
X150192000Y-104553691D01*
X158585000Y-104553691D01*
X158585000Y-104894250D01*
X158743750Y-105053000D01*
X159893000Y-105053000D01*
X159893000Y-104203750D01*
X160147000Y-104203750D01*
X160147000Y-105053000D01*
X161296250Y-105053000D01*
X161455000Y-104894250D01*
X161455000Y-104553691D01*
X161358327Y-104320302D01*
X161179699Y-104141673D01*
X160946310Y-104045000D01*
X160305750Y-104045000D01*
X160147000Y-104203750D01*
X159893000Y-104203750D01*
X159734250Y-104045000D01*
X159093690Y-104045000D01*
X158860301Y-104141673D01*
X158681673Y-104320302D01*
X158585000Y-104553691D01*
X150192000Y-104553691D01*
X150192000Y-102113121D01*
X151521484Y-102113121D01*
X151746154Y-102487168D01*
X152729388Y-102885880D01*
X153790357Y-102877975D01*
X154733846Y-102487168D01*
X154958516Y-102113121D01*
X153240000Y-100394605D01*
X151521484Y-102113121D01*
X150192000Y-102113121D01*
X150192000Y-99704388D01*
X150569120Y-99704388D01*
X150577025Y-100765357D01*
X150967832Y-101708846D01*
X151341879Y-101933516D01*
X153060395Y-100215000D01*
X153419605Y-100215000D01*
X155138121Y-101933516D01*
X155512168Y-101708846D01*
X155910880Y-100725612D01*
X155902975Y-99664643D01*
X155512168Y-98721154D01*
X155138121Y-98496484D01*
X153419605Y-100215000D01*
X153060395Y-100215000D01*
X151341879Y-98496484D01*
X150967832Y-98721154D01*
X150569120Y-99704388D01*
X150192000Y-99704388D01*
X150192000Y-98316879D01*
X151521484Y-98316879D01*
X153240000Y-100035395D01*
X154958516Y-98316879D01*
X154733846Y-97942832D01*
X153750612Y-97544120D01*
X152689643Y-97552025D01*
X151746154Y-97942832D01*
X151521484Y-98316879D01*
X150192000Y-98316879D01*
X150192000Y-97152217D01*
X169434405Y-97152217D01*
X169450633Y-98001366D01*
X169744368Y-98710505D01*
X170063123Y-98870272D01*
X171397395Y-97536000D01*
X171756605Y-97536000D01*
X173090877Y-98870272D01*
X173409632Y-98710505D01*
X173719595Y-97919783D01*
X173703367Y-97070634D01*
X173409632Y-96361495D01*
X173090877Y-96201728D01*
X171756605Y-97536000D01*
X171397395Y-97536000D01*
X170063123Y-96201728D01*
X169744368Y-96361495D01*
X169434405Y-97152217D01*
X150192000Y-97152217D01*
X150192000Y-96022123D01*
X170242728Y-96022123D01*
X171577000Y-97356395D01*
X172911272Y-96022123D01*
X172751505Y-95703368D01*
X171960783Y-95393405D01*
X171111634Y-95409633D01*
X170402495Y-95703368D01*
X170242728Y-96022123D01*
X150192000Y-96022123D01*
X150192000Y-93427724D01*
X150580727Y-94368515D01*
X151461847Y-95251174D01*
X152613674Y-95729454D01*
X153860854Y-95730543D01*
X155013515Y-95254273D01*
X155896174Y-94373153D01*
X156374454Y-93221326D01*
X156375543Y-91974146D01*
X155899273Y-90821485D01*
X155018153Y-89938826D01*
X154074531Y-89547000D01*
X178442276Y-89547000D01*
X177501485Y-89935727D01*
X177501485Y-89935727D01*
G37*
X177501485Y-89935727D02*
X176618826Y-90816847D01*
X176140546Y-91968674D01*
X176139457Y-93215854D01*
X176615727Y-94368515D01*
X177496847Y-95251174D01*
X178648674Y-95729454D01*
X179895854Y-95730543D01*
X181048515Y-95254273D01*
X181931174Y-94373153D01*
X182323000Y-93429531D01*
X182323000Y-119067276D01*
X181934273Y-118126485D01*
X181053153Y-117243826D01*
X179901326Y-116765546D01*
X178654146Y-116764457D01*
X177501485Y-117240727D01*
X176618826Y-118121847D01*
X176140546Y-119273674D01*
X176139457Y-120520854D01*
X176615727Y-121673515D01*
X177496847Y-122556174D01*
X178440469Y-122948000D01*
X154072724Y-122948000D01*
X155013515Y-122559273D01*
X155896174Y-121678153D01*
X156374454Y-120526326D01*
X156375543Y-119279146D01*
X155899273Y-118126485D01*
X155018153Y-117243826D01*
X153866326Y-116765546D01*
X152619146Y-116764457D01*
X151466485Y-117240727D01*
X150583826Y-118121847D01*
X150192000Y-119065469D01*
X150192000Y-111653172D01*
X150367538Y-111653172D01*
X150772709Y-112633761D01*
X151522293Y-113384655D01*
X152502173Y-113791536D01*
X153563172Y-113792462D01*
X153833535Y-113680750D01*
X160665000Y-113680750D01*
X160665000Y-114021309D01*
X160761673Y-114254698D01*
X160940301Y-114433327D01*
X161173690Y-114530000D01*
X161639250Y-114530000D01*
X161798000Y-114371250D01*
X161798000Y-113522000D01*
X162052000Y-113522000D01*
X162052000Y-114371250D01*
X162210750Y-114530000D01*
X162676310Y-114530000D01*
X162909699Y-114433327D01*
X163088327Y-114254698D01*
X163185000Y-114021309D01*
X163185000Y-113680750D01*
X163840000Y-113680750D01*
X163840000Y-114021309D01*
X163936673Y-114254698D01*
X164115301Y-114433327D01*
X164348690Y-114530000D01*
X164814250Y-114530000D01*
X164973000Y-114371250D01*
X164973000Y-113522000D01*
X165227000Y-113522000D01*
X165227000Y-114371250D01*
X165385750Y-114530000D01*
X165851310Y-114530000D01*
X166084699Y-114433327D01*
X166263327Y-114254698D01*
X166360000Y-114021309D01*
X166360000Y-113680750D01*
X166201250Y-113522000D01*
X165227000Y-113522000D01*
X164973000Y-113522000D01*
X163998750Y-113522000D01*
X163840000Y-113680750D01*
X163185000Y-113680750D01*
X163026250Y-113522000D01*
X162052000Y-113522000D01*
X161798000Y-113522000D01*
X160823750Y-113522000D01*
X160665000Y-113680750D01*
X153833535Y-113680750D01*
X154543761Y-113387291D01*
X155294655Y-112637707D01*
X155701536Y-111657827D01*
X155702278Y-110807500D01*
X160670279Y-110807500D01*
X160652560Y-110895000D01*
X160652560Y-111895000D01*
X160696838Y-112130317D01*
X160835910Y-112346441D01*
X160904006Y-112392969D01*
X160761673Y-112535302D01*
X160665000Y-112768691D01*
X160665000Y-113109250D01*
X160823750Y-113268000D01*
X161798000Y-113268000D01*
X161798000Y-113248000D01*
X162052000Y-113248000D01*
X162052000Y-113268000D01*
X163026250Y-113268000D01*
X163185000Y-113109250D01*
X163185000Y-112768691D01*
X163088327Y-112535302D01*
X162947090Y-112394064D01*
X163001441Y-112359090D01*
X163146431Y-112146890D01*
X163197440Y-111895000D01*
X163197440Y-110895000D01*
X163180976Y-110807500D01*
X163845279Y-110807500D01*
X163827560Y-110895000D01*
X163827560Y-111895000D01*
X163871838Y-112130317D01*
X164010910Y-112346441D01*
X164079006Y-112392969D01*
X163936673Y-112535302D01*
X163840000Y-112768691D01*
X163840000Y-113109250D01*
X163998750Y-113268000D01*
X164973000Y-113268000D01*
X164973000Y-113248000D01*
X165227000Y-113248000D01*
X165227000Y-113268000D01*
X166201250Y-113268000D01*
X166360000Y-113109250D01*
X166360000Y-112768691D01*
X166358835Y-112765877D01*
X170242728Y-112765877D01*
X170402495Y-113084632D01*
X171193217Y-113394595D01*
X172042366Y-113378367D01*
X172751505Y-113084632D01*
X172911272Y-112765877D01*
X171577000Y-111431605D01*
X170242728Y-112765877D01*
X166358835Y-112765877D01*
X166263327Y-112535302D01*
X166122090Y-112394064D01*
X166176441Y-112359090D01*
X166321431Y-112146890D01*
X166372440Y-111895000D01*
X166372440Y-110895000D01*
X166367401Y-110868217D01*
X169434405Y-110868217D01*
X169450633Y-111717366D01*
X169744368Y-112426505D01*
X170063123Y-112586272D01*
X171397395Y-111252000D01*
X171756605Y-111252000D01*
X173090877Y-112586272D01*
X173409632Y-112426505D01*
X173719595Y-111635783D01*
X173703367Y-110786634D01*
X173409632Y-110077495D01*
X173090877Y-109917728D01*
X171756605Y-111252000D01*
X171397395Y-111252000D01*
X170063123Y-109917728D01*
X169744368Y-110077495D01*
X169434405Y-110868217D01*
X166367401Y-110868217D01*
X166339511Y-110720000D01*
X166719250Y-110720000D01*
X166878000Y-110561250D01*
X166878000Y-109712000D01*
X167132000Y-109712000D01*
X167132000Y-110561250D01*
X167290750Y-110720000D01*
X167756310Y-110720000D01*
X167989699Y-110623327D01*
X168168327Y-110444698D01*
X168265000Y-110211309D01*
X168265000Y-109870750D01*
X168132373Y-109738123D01*
X170242728Y-109738123D01*
X171577000Y-111072395D01*
X172911272Y-109738123D01*
X172751505Y-109419368D01*
X171960783Y-109109405D01*
X171111634Y-109125633D01*
X170402495Y-109419368D01*
X170242728Y-109738123D01*
X168132373Y-109738123D01*
X168106250Y-109712000D01*
X167132000Y-109712000D01*
X166878000Y-109712000D01*
X166858000Y-109712000D01*
X166858000Y-109458000D01*
X166878000Y-109458000D01*
X166878000Y-109438000D01*
X167132000Y-109438000D01*
X167132000Y-109458000D01*
X168106250Y-109458000D01*
X168265000Y-109299250D01*
X168265000Y-108958691D01*
X168249869Y-108922163D01*
X168633184Y-109081329D01*
X169184398Y-109081810D01*
X169693837Y-108871314D01*
X170083944Y-108481887D01*
X170295329Y-107972816D01*
X170295810Y-107421602D01*
X170085314Y-106912163D01*
X169695887Y-106522056D01*
X169464619Y-106426025D01*
X169693837Y-106331314D01*
X170083944Y-105941887D01*
X170295329Y-105432816D01*
X170295810Y-104881602D01*
X170085314Y-104372163D01*
X169853493Y-104139937D01*
X170083944Y-103909887D01*
X170295329Y-103400816D01*
X170295810Y-102849602D01*
X170085314Y-102340163D01*
X169695887Y-101950056D01*
X169480504Y-101860621D01*
X169634265Y-101796931D01*
X169702325Y-101555930D01*
X168910000Y-100763605D01*
X168117675Y-101555930D01*
X168185735Y-101796931D01*
X168351040Y-101855769D01*
X168126163Y-101948686D01*
X167736056Y-102338113D01*
X167549479Y-102787441D01*
X167422440Y-102660402D01*
X167422440Y-101170000D01*
X167378162Y-100934683D01*
X167239090Y-100718559D01*
X167026890Y-100573569D01*
X166775000Y-100522560D01*
X166754598Y-100522560D01*
X166611072Y-100379034D01*
X167512233Y-100379034D01*
X167540195Y-100929538D01*
X167697069Y-101308265D01*
X167938070Y-101376325D01*
X168730395Y-100584000D01*
X169089605Y-100584000D01*
X169881930Y-101376325D01*
X170122931Y-101308265D01*
X170307767Y-100788966D01*
X170279805Y-100238462D01*
X170122931Y-99859735D01*
X169881930Y-99791675D01*
X169089605Y-100584000D01*
X168730395Y-100584000D01*
X167938070Y-99791675D01*
X167697069Y-99859735D01*
X167512233Y-100379034D01*
X166611072Y-100379034D01*
X165844108Y-99612070D01*
X168117675Y-99612070D01*
X168910000Y-100404395D01*
X169702325Y-99612070D01*
X169634265Y-99371069D01*
X169114966Y-99186233D01*
X168564462Y-99214195D01*
X168185735Y-99371069D01*
X168117675Y-99612070D01*
X165844108Y-99612070D01*
X165477440Y-99245402D01*
X165477440Y-99245000D01*
X165440726Y-99049877D01*
X170242728Y-99049877D01*
X170402495Y-99368632D01*
X171193217Y-99678595D01*
X172042366Y-99662367D01*
X172751505Y-99368632D01*
X172911272Y-99049877D01*
X171577000Y-97715605D01*
X170242728Y-99049877D01*
X165440726Y-99049877D01*
X165433162Y-99009683D01*
X165294090Y-98793559D01*
X165081890Y-98648569D01*
X164830000Y-98597560D01*
X164330000Y-98597560D01*
X164094683Y-98641838D01*
X163878559Y-98780910D01*
X163830866Y-98850711D01*
X163794090Y-98793559D01*
X163581890Y-98648569D01*
X163330000Y-98597560D01*
X162830000Y-98597560D01*
X162594683Y-98641838D01*
X162378559Y-98780910D01*
X162233569Y-98993110D01*
X162182560Y-99245000D01*
X162182560Y-99517638D01*
X162022599Y-99677599D01*
X161857852Y-99924161D01*
X161800000Y-100215000D01*
X161800000Y-104775000D01*
X161857852Y-105065839D01*
X162022599Y-105312401D01*
X162296727Y-105586529D01*
X162295000Y-105595213D01*
X162295000Y-105780000D01*
X162227998Y-105780000D01*
X162227998Y-105930873D01*
X162102761Y-105766557D01*
X161799284Y-105837759D01*
X161546155Y-106019676D01*
X161381911Y-106284614D01*
X161369944Y-106368684D01*
X161508257Y-106490000D01*
X161584948Y-106490000D01*
X161555134Y-106509921D01*
X161411531Y-106724840D01*
X161369944Y-106761316D01*
X161376483Y-106807252D01*
X161325213Y-107065000D01*
X161376483Y-107322748D01*
X161370725Y-107363194D01*
X161284090Y-107228559D01*
X161071890Y-107083569D01*
X160820000Y-107032560D01*
X159220000Y-107032560D01*
X158984683Y-107076838D01*
X158768559Y-107215910D01*
X158623569Y-107428110D01*
X158572560Y-107680000D01*
X158572560Y-108680000D01*
X158614426Y-108902500D01*
X154584797Y-108902500D01*
X154547707Y-108865345D01*
X153567827Y-108458464D01*
X152506828Y-108457538D01*
X151526239Y-108862709D01*
X150775345Y-109612293D01*
X150368464Y-110592173D01*
X150367538Y-111653172D01*
X150192000Y-111653172D01*
X150192000Y-105465750D01*
X158585000Y-105465750D01*
X158585000Y-105806309D01*
X158681673Y-106039698D01*
X158860301Y-106218327D01*
X159093690Y-106315000D01*
X159734250Y-106315000D01*
X159893000Y-106156250D01*
X159893000Y-105307000D01*
X160147000Y-105307000D01*
X160147000Y-106156250D01*
X160305750Y-106315000D01*
X160946310Y-106315000D01*
X161179699Y-106218327D01*
X161358327Y-106039698D01*
X161455000Y-105806309D01*
X161455000Y-105465750D01*
X161296250Y-105307000D01*
X160147000Y-105307000D01*
X159893000Y-105307000D01*
X158743750Y-105307000D01*
X158585000Y-105465750D01*
X150192000Y-105465750D01*
X150192000Y-104553691D01*
X158585000Y-104553691D01*
X158585000Y-104894250D01*
X158743750Y-105053000D01*
X159893000Y-105053000D01*
X159893000Y-104203750D01*
X160147000Y-104203750D01*
X160147000Y-105053000D01*
X161296250Y-105053000D01*
X161455000Y-104894250D01*
X161455000Y-104553691D01*
X161358327Y-104320302D01*
X161179699Y-104141673D01*
X160946310Y-104045000D01*
X160305750Y-104045000D01*
X160147000Y-104203750D01*
X159893000Y-104203750D01*
X159734250Y-104045000D01*
X159093690Y-104045000D01*
X158860301Y-104141673D01*
X158681673Y-104320302D01*
X158585000Y-104553691D01*
X150192000Y-104553691D01*
X150192000Y-102113121D01*
X151521484Y-102113121D01*
X151746154Y-102487168D01*
X152729388Y-102885880D01*
X153790357Y-102877975D01*
X154733846Y-102487168D01*
X154958516Y-102113121D01*
X153240000Y-100394605D01*
X151521484Y-102113121D01*
X150192000Y-102113121D01*
X150192000Y-99704388D01*
X150569120Y-99704388D01*
X150577025Y-100765357D01*
X150967832Y-101708846D01*
X151341879Y-101933516D01*
X153060395Y-100215000D01*
X153419605Y-100215000D01*
X155138121Y-101933516D01*
X155512168Y-101708846D01*
X155910880Y-100725612D01*
X155902975Y-99664643D01*
X155512168Y-98721154D01*
X155138121Y-98496484D01*
X153419605Y-100215000D01*
X153060395Y-100215000D01*
X151341879Y-98496484D01*
X150967832Y-98721154D01*
X150569120Y-99704388D01*
X150192000Y-99704388D01*
X150192000Y-98316879D01*
X151521484Y-98316879D01*
X153240000Y-100035395D01*
X154958516Y-98316879D01*
X154733846Y-97942832D01*
X153750612Y-97544120D01*
X152689643Y-97552025D01*
X151746154Y-97942832D01*
X151521484Y-98316879D01*
X150192000Y-98316879D01*
X150192000Y-97152217D01*
X169434405Y-97152217D01*
X169450633Y-98001366D01*
X169744368Y-98710505D01*
X170063123Y-98870272D01*
X171397395Y-97536000D01*
X171756605Y-97536000D01*
X173090877Y-98870272D01*
X173409632Y-98710505D01*
X173719595Y-97919783D01*
X173703367Y-97070634D01*
X173409632Y-96361495D01*
X173090877Y-96201728D01*
X171756605Y-97536000D01*
X171397395Y-97536000D01*
X170063123Y-96201728D01*
X169744368Y-96361495D01*
X169434405Y-97152217D01*
X150192000Y-97152217D01*
X150192000Y-96022123D01*
X170242728Y-96022123D01*
X171577000Y-97356395D01*
X172911272Y-96022123D01*
X172751505Y-95703368D01*
X171960783Y-95393405D01*
X171111634Y-95409633D01*
X170402495Y-95703368D01*
X170242728Y-96022123D01*
X150192000Y-96022123D01*
X150192000Y-93427724D01*
X150580727Y-94368515D01*
X151461847Y-95251174D01*
X152613674Y-95729454D01*
X153860854Y-95730543D01*
X155013515Y-95254273D01*
X155896174Y-94373153D01*
X156374454Y-93221326D01*
X156375543Y-91974146D01*
X155899273Y-90821485D01*
X155018153Y-89938826D01*
X154074531Y-89547000D01*
X178442276Y-89547000D01*
X177501485Y-89935727D01*
M02*
