<?xml version="1.0" standalone="no"?>
 <!DOCTYPE svg PUBLIC "-//W3C//DTD SVG 1.1//EN" 
 "http://www.w3.org/Graphics/SVG/1.1/DTD/svg11.dtd"> 
<svg xmlns="http://www.w3.org/2000/svg" version="1.1" 
    width="29.7002cm" height="21.0007cm" viewBox="0 0 116930 82680 ">
<title>SVG Picture created as voltage_regulator-brd.svg date 2015/09/07 21:49:16 </title>
  <desc>Picture generated by PCBNEW </desc>
<g style="fill:#000000; fill-opacity:1;stroke:#000000; stroke-opacity:1;
stroke-linecap:round; stroke-linejoin:round; "
 transform="translate(0 0) scale(1 1)">
</g>
<g style="fill:#000000; fill-opacity:0.0; 
stroke:#000000; stroke-width:-0.000393701; stroke-opacity:1; 
stroke-linecap:round; stroke-linejoin:round;">
</g>
<g style="fill:#000000; fill-opacity:0.0; 
stroke:#000000; stroke-width:39.3701; stroke-opacity:1; 
stroke-linecap:round; stroke-linejoin:round;">
</g>
<g style="fill:#000000; fill-opacity:0.0; 
stroke:#000000; stroke-width:59.0551; stroke-opacity:1; 
stroke-linecap:round; stroke-linejoin:round;">
<rect x="69685.9" y="65357.2" width="42519.7" height="12598.4" rx="0" />
</g>
<g style="fill:#000000; fill-opacity:0.0; 
stroke:#000000; stroke-width:39.3701; stroke-opacity:1; 
stroke-linecap:round; stroke-linejoin:round;">
</g>
<g style="fill:#000000; fill-opacity:0.0; 
stroke:#000000; stroke-width:59.0551; stroke-opacity:1; 
stroke-linecap:round; stroke-linejoin:round;">
<rect x="3937.01" y="3937.01" width="109056" height="74806" rx="0" />
</g>
<g style="fill:#000000; fill-opacity:0.0; 
stroke:#000000; stroke-width:39.3701; stroke-opacity:1; 
stroke-linecap:round; stroke-linejoin:round;">
</g>
<g style="fill:#000000; fill-opacity:0.0; 
stroke:#000000; stroke-width:59.0551; stroke-opacity:1; 
stroke-linecap:round; stroke-linejoin:round;">
<rect x="4724.41" y="4724.41" width="107481" height="73231.2" rx="0" />
</g>
<g style="fill:#000000; fill-opacity:0.0; 
stroke:#000000; stroke-width:39.3701; stroke-opacity:1; 
stroke-linecap:round; stroke-linejoin:round;">
</g>
<g style="fill:#000000; fill-opacity:0.0; 
stroke:#000000; stroke-width:59.0551; stroke-opacity:1; 
stroke-linecap:round; stroke-linejoin:round;">
<path d="M23622 4724
L23622 3937
" />
</g>
<g style="fill:#000000; fill-opacity:0.0; 
stroke:#000000; stroke-width:39.3701; stroke-opacity:1; 
stroke-linecap:round; stroke-linejoin:round;">
</g>
<g style="fill:#000000; fill-opacity:0.0; 
stroke:#000000; stroke-width:59.0551; stroke-opacity:1; 
stroke-linecap:round; stroke-linejoin:round;">
<path d="M43307 4724
L43307 3937
" />
</g>
<g style="fill:#000000; fill-opacity:0.0; 
stroke:#000000; stroke-width:39.3701; stroke-opacity:1; 
stroke-linecap:round; stroke-linejoin:round;">
</g>
<g style="fill:#000000; fill-opacity:0.0; 
stroke:#000000; stroke-width:59.0551; stroke-opacity:1; 
stroke-linecap:round; stroke-linejoin:round;">
<path d="M62992 4724
L62992 3937
" />
</g>
<g style="fill:#000000; fill-opacity:0.0; 
stroke:#000000; stroke-width:39.3701; stroke-opacity:1; 
stroke-linecap:round; stroke-linejoin:round;">
</g>
<g style="fill:#000000; fill-opacity:0.0; 
stroke:#000000; stroke-width:59.0551; stroke-opacity:1; 
stroke-linecap:round; stroke-linejoin:round;">
<path d="M82677 4724
L82677 3937
" />
</g>
<g style="fill:#000000; fill-opacity:0.0; 
stroke:#000000; stroke-width:39.3701; stroke-opacity:1; 
stroke-linecap:round; stroke-linejoin:round;">
</g>
<g style="fill:#000000; fill-opacity:0.0; 
stroke:#000000; stroke-width:59.0551; stroke-opacity:1; 
stroke-linecap:round; stroke-linejoin:round;">
<path d="M102362 4724
L102362 3937
" />
</g>
<g style="fill:#000000; fill-opacity:0.0; 
stroke:#000000; stroke-width:39.3701; stroke-opacity:1; 
stroke-linecap:round; stroke-linejoin:round;">
</g>
<g style="fill:#000000; fill-opacity:0.0; 
stroke:#000000; stroke-width:59.0551; stroke-opacity:1; 
stroke-linecap:round; stroke-linejoin:round;">
<path d="M14169 4562
L13877 4562
" />
<path d="M14023 4562
L14023 4050
L13974 4123
L13925 4172
L13877 4196
" />
</g>
<g style="fill:#000000; fill-opacity:0.0; 
stroke:#000000; stroke-width:39.3701; stroke-opacity:1; 
stroke-linecap:round; stroke-linejoin:round;">
</g>
<g style="fill:#000000; fill-opacity:0.0; 
stroke:#000000; stroke-width:59.0551; stroke-opacity:1; 
stroke-linecap:round; stroke-linejoin:round;">
<path d="M33562 4099
L33586 4074
L33635 4050
L33757 4050
L33805 4074
L33830 4099
L33854 4147
L33854 4196
L33830 4269
L33537 4562
L33854 4562
" />
</g>
<g style="fill:#000000; fill-opacity:0.0; 
stroke:#000000; stroke-width:39.3701; stroke-opacity:1; 
stroke-linecap:round; stroke-linejoin:round;">
</g>
<g style="fill:#000000; fill-opacity:0.0; 
stroke:#000000; stroke-width:59.0551; stroke-opacity:1; 
stroke-linecap:round; stroke-linejoin:round;">
<path d="M53222 4050
L53539 4050
L53368 4245
L53442 4245
L53490 4269
L53515 4294
L53539 4342
L53539 4464
L53515 4513
L53490 4537
L53442 4562
L53295 4562
L53247 4537
L53222 4513
" />
</g>
<g style="fill:#000000; fill-opacity:0.0; 
stroke:#000000; stroke-width:39.3701; stroke-opacity:1; 
stroke-linecap:round; stroke-linejoin:round;">
</g>
<g style="fill:#000000; fill-opacity:0.0; 
stroke:#000000; stroke-width:59.0551; stroke-opacity:1; 
stroke-linecap:round; stroke-linejoin:round;">
<path d="M73175 4221
L73175 4562
" />
<path d="M73053 4026
L72932 4391
L73248 4391
" />
</g>
<g style="fill:#000000; fill-opacity:0.0; 
stroke:#000000; stroke-width:39.3701; stroke-opacity:1; 
stroke-linecap:round; stroke-linejoin:round;">
</g>
<g style="fill:#000000; fill-opacity:0.0; 
stroke:#000000; stroke-width:59.0551; stroke-opacity:1; 
stroke-linecap:round; stroke-linejoin:round;">
<path d="M92885 4050
L92641 4050
L92617 4294
L92641 4269
L92690 4245
L92812 4245
L92860 4269
L92885 4294
L92909 4342
L92909 4464
L92885 4513
L92860 4537
L92812 4562
L92690 4562
L92641 4537
L92617 4513
" />
</g>
<g style="fill:#000000; fill-opacity:0.0; 
stroke:#000000; stroke-width:39.3701; stroke-opacity:1; 
stroke-linecap:round; stroke-linejoin:round;">
</g>
<g style="fill:#000000; fill-opacity:0.0; 
stroke:#000000; stroke-width:59.0551; stroke-opacity:1; 
stroke-linecap:round; stroke-linejoin:round;">
<path d="M112545 4050
L112448 4050
L112399 4074
L112375 4099
L112326 4172
L112302 4269
L112302 4464
L112326 4513
L112350 4537
L112399 4562
L112497 4562
L112545 4537
L112570 4513
L112594 4464
L112594 4342
L112570 4294
L112545 4269
L112497 4245
L112399 4245
L112350 4269
L112326 4294
L112302 4342
" />
</g>
<g style="fill:#000000; fill-opacity:0.0; 
stroke:#000000; stroke-width:39.3701; stroke-opacity:1; 
stroke-linecap:round; stroke-linejoin:round;">
</g>
<g style="fill:#000000; fill-opacity:0.0; 
stroke:#000000; stroke-width:59.0551; stroke-opacity:1; 
stroke-linecap:round; stroke-linejoin:round;">
<path d="M23622 77955
L23622 78742
" />
</g>
<g style="fill:#000000; fill-opacity:0.0; 
stroke:#000000; stroke-width:39.3701; stroke-opacity:1; 
stroke-linecap:round; stroke-linejoin:round;">
</g>
<g style="fill:#000000; fill-opacity:0.0; 
stroke:#000000; stroke-width:59.0551; stroke-opacity:1; 
stroke-linecap:round; stroke-linejoin:round;">
<path d="M43307 77955
L43307 78742
" />
</g>
<g style="fill:#000000; fill-opacity:0.0; 
stroke:#000000; stroke-width:39.3701; stroke-opacity:1; 
stroke-linecap:round; stroke-linejoin:round;">
</g>
<g style="fill:#000000; fill-opacity:0.0; 
stroke:#000000; stroke-width:59.0551; stroke-opacity:1; 
stroke-linecap:round; stroke-linejoin:round;">
<path d="M62992 77955
L62992 78742
" />
</g>
<g style="fill:#000000; fill-opacity:0.0; 
stroke:#000000; stroke-width:39.3701; stroke-opacity:1; 
stroke-linecap:round; stroke-linejoin:round;">
</g>
<g style="fill:#000000; fill-opacity:0.0; 
stroke:#000000; stroke-width:59.0551; stroke-opacity:1; 
stroke-linecap:round; stroke-linejoin:round;">
<path d="M82677 77955
L82677 78742
" />
</g>
<g style="fill:#000000; fill-opacity:0.0; 
stroke:#000000; stroke-width:39.3701; stroke-opacity:1; 
stroke-linecap:round; stroke-linejoin:round;">
</g>
<g style="fill:#000000; fill-opacity:0.0; 
stroke:#000000; stroke-width:59.0551; stroke-opacity:1; 
stroke-linecap:round; stroke-linejoin:round;">
<path d="M102362 77955
L102362 78742
" />
</g>
<g style="fill:#000000; fill-opacity:0.0; 
stroke:#000000; stroke-width:39.3701; stroke-opacity:1; 
stroke-linecap:round; stroke-linejoin:round;">
</g>
<g style="fill:#000000; fill-opacity:0.0; 
stroke:#000000; stroke-width:59.0551; stroke-opacity:1; 
stroke-linecap:round; stroke-linejoin:round;">
<path d="M14169 78580
L13877 78580
" />
<path d="M14023 78580
L14023 78069
L13974 78142
L13925 78190
L13877 78215
" />
</g>
<g style="fill:#000000; fill-opacity:0.0; 
stroke:#000000; stroke-width:39.3701; stroke-opacity:1; 
stroke-linecap:round; stroke-linejoin:round;">
</g>
<g style="fill:#000000; fill-opacity:0.0; 
stroke:#000000; stroke-width:59.0551; stroke-opacity:1; 
stroke-linecap:round; stroke-linejoin:round;">
<path d="M33562 78117
L33586 78093
L33635 78069
L33757 78069
L33805 78093
L33830 78117
L33854 78166
L33854 78215
L33830 78288
L33537 78580
L33854 78580
" />
</g>
<g style="fill:#000000; fill-opacity:0.0; 
stroke:#000000; stroke-width:39.3701; stroke-opacity:1; 
stroke-linecap:round; stroke-linejoin:round;">
</g>
<g style="fill:#000000; fill-opacity:0.0; 
stroke:#000000; stroke-width:59.0551; stroke-opacity:1; 
stroke-linecap:round; stroke-linejoin:round;">
<path d="M53222 78069
L53539 78069
L53368 78263
L53442 78263
L53490 78288
L53515 78312
L53539 78361
L53539 78483
L53515 78532
L53490 78556
L53442 78580
L53295 78580
L53247 78556
L53222 78532
" />
</g>
<g style="fill:#000000; fill-opacity:0.0; 
stroke:#000000; stroke-width:39.3701; stroke-opacity:1; 
stroke-linecap:round; stroke-linejoin:round;">
</g>
<g style="fill:#000000; fill-opacity:0.0; 
stroke:#000000; stroke-width:59.0551; stroke-opacity:1; 
stroke-linecap:round; stroke-linejoin:round;">
<path d="M73175 78239
L73175 78580
" />
<path d="M73053 78044
L72932 78410
L73248 78410
" />
</g>
<g style="fill:#000000; fill-opacity:0.0; 
stroke:#000000; stroke-width:39.3701; stroke-opacity:1; 
stroke-linecap:round; stroke-linejoin:round;">
</g>
<g style="fill:#000000; fill-opacity:0.0; 
stroke:#000000; stroke-width:59.0551; stroke-opacity:1; 
stroke-linecap:round; stroke-linejoin:round;">
<path d="M92885 78069
L92641 78069
L92617 78312
L92641 78288
L92690 78263
L92812 78263
L92860 78288
L92885 78312
L92909 78361
L92909 78483
L92885 78532
L92860 78556
L92812 78580
L92690 78580
L92641 78556
L92617 78532
" />
</g>
<g style="fill:#000000; fill-opacity:0.0; 
stroke:#000000; stroke-width:39.3701; stroke-opacity:1; 
stroke-linecap:round; stroke-linejoin:round;">
</g>
<g style="fill:#000000; fill-opacity:0.0; 
stroke:#000000; stroke-width:59.0551; stroke-opacity:1; 
stroke-linecap:round; stroke-linejoin:round;">
<path d="M112545 78069
L112448 78069
L112399 78093
L112375 78117
L112326 78190
L112302 78288
L112302 78483
L112326 78532
L112350 78556
L112399 78580
L112497 78580
L112545 78556
L112570 78532
L112594 78483
L112594 78361
L112570 78312
L112545 78288
L112497 78263
L112399 78263
L112350 78288
L112326 78312
L112302 78361
" />
</g>
<g style="fill:#000000; fill-opacity:0.0; 
stroke:#000000; stroke-width:39.3701; stroke-opacity:1; 
stroke-linecap:round; stroke-linejoin:round;">
</g>
<g style="fill:#000000; fill-opacity:0.0; 
stroke:#000000; stroke-width:59.0551; stroke-opacity:1; 
stroke-linecap:round; stroke-linejoin:round;">
<path d="M3937 23622
L4724 23622
" />
</g>
<g style="fill:#000000; fill-opacity:0.0; 
stroke:#000000; stroke-width:39.3701; stroke-opacity:1; 
stroke-linecap:round; stroke-linejoin:round;">
</g>
<g style="fill:#000000; fill-opacity:0.0; 
stroke:#000000; stroke-width:59.0551; stroke-opacity:1; 
stroke-linecap:round; stroke-linejoin:round;">
<path d="M3937 43307
L4724 43307
" />
</g>
<g style="fill:#000000; fill-opacity:0.0; 
stroke:#000000; stroke-width:39.3701; stroke-opacity:1; 
stroke-linecap:round; stroke-linejoin:round;">
</g>
<g style="fill:#000000; fill-opacity:0.0; 
stroke:#000000; stroke-width:59.0551; stroke-opacity:1; 
stroke-linecap:round; stroke-linejoin:round;">
<path d="M3937 62992
L4724 62992
" />
</g>
<g style="fill:#000000; fill-opacity:0.0; 
stroke:#000000; stroke-width:39.3701; stroke-opacity:1; 
stroke-linecap:round; stroke-linejoin:round;">
</g>
<g style="fill:#000000; fill-opacity:0.0; 
stroke:#000000; stroke-width:59.0551; stroke-opacity:1; 
stroke-linecap:round; stroke-linejoin:round;">
<path d="M4208 13864
L4452 13864
" />
<path d="M4160 14011
L4330 13499
L4501 14011
" />
</g>
<g style="fill:#000000; fill-opacity:0.0; 
stroke:#000000; stroke-width:39.3701; stroke-opacity:1; 
stroke-linecap:round; stroke-linejoin:round;">
</g>
<g style="fill:#000000; fill-opacity:0.0; 
stroke:#000000; stroke-width:59.0551; stroke-opacity:1; 
stroke-linecap:round; stroke-linejoin:round;">
<path d="M4367 33428
L4440 33452
L4464 33476
L4489 33525
L4489 33598
L4464 33647
L4440 33671
L4391 33696
L4196 33696
L4196 33184
L4367 33184
L4416 33208
L4440 33233
L4464 33281
L4464 33330
L4440 33379
L4416 33403
L4367 33428
L4196 33428
" />
</g>
<g style="fill:#000000; fill-opacity:0.0; 
stroke:#000000; stroke-width:39.3701; stroke-opacity:1; 
stroke-linecap:round; stroke-linejoin:round;">
</g>
<g style="fill:#000000; fill-opacity:0.0; 
stroke:#000000; stroke-width:59.0551; stroke-opacity:1; 
stroke-linecap:round; stroke-linejoin:round;">
<path d="M4489 53332
L4464 53356
L4391 53381
L4342 53381
L4269 53356
L4221 53308
L4196 53259
L4172 53161
L4172 53088
L4196 52991
L4221 52942
L4269 52893
L4342 52869
L4391 52869
L4464 52893
L4489 52918
" />
</g>
<g style="fill:#000000; fill-opacity:0.0; 
stroke:#000000; stroke-width:39.3701; stroke-opacity:1; 
stroke-linecap:round; stroke-linejoin:round;">
</g>
<g style="fill:#000000; fill-opacity:0.0; 
stroke:#000000; stroke-width:59.0551; stroke-opacity:1; 
stroke-linecap:round; stroke-linejoin:round;">
<path d="M4196 73066
L4196 72554
L4318 72554
L4391 72578
L4440 72627
L4464 72676
L4489 72773
L4489 72846
L4464 72944
L4440 72993
L4391 73041
L4318 73066
L4196 73066
" />
</g>
<g style="fill:#000000; fill-opacity:0.0; 
stroke:#000000; stroke-width:39.3701; stroke-opacity:1; 
stroke-linecap:round; stroke-linejoin:round;">
</g>
<g style="fill:#000000; fill-opacity:0.0; 
stroke:#000000; stroke-width:59.0551; stroke-opacity:1; 
stroke-linecap:round; stroke-linejoin:round;">
<path d="M112992 23622
L112205 23622
" />
</g>
<g style="fill:#000000; fill-opacity:0.0; 
stroke:#000000; stroke-width:39.3701; stroke-opacity:1; 
stroke-linecap:round; stroke-linejoin:round;">
</g>
<g style="fill:#000000; fill-opacity:0.0; 
stroke:#000000; stroke-width:59.0551; stroke-opacity:1; 
stroke-linecap:round; stroke-linejoin:round;">
<path d="M112992 43307
L112205 43307
" />
</g>
<g style="fill:#000000; fill-opacity:0.0; 
stroke:#000000; stroke-width:39.3701; stroke-opacity:1; 
stroke-linecap:round; stroke-linejoin:round;">
</g>
<g style="fill:#000000; fill-opacity:0.0; 
stroke:#000000; stroke-width:59.0551; stroke-opacity:1; 
stroke-linecap:round; stroke-linejoin:round;">
<path d="M112992 62992
L112205 62992
" />
</g>
<g style="fill:#000000; fill-opacity:0.0; 
stroke:#000000; stroke-width:39.3701; stroke-opacity:1; 
stroke-linecap:round; stroke-linejoin:round;">
</g>
<g style="fill:#000000; fill-opacity:0.0; 
stroke:#000000; stroke-width:59.0551; stroke-opacity:1; 
stroke-linecap:round; stroke-linejoin:round;">
<path d="M112477 13864
L112721 13864
" />
<path d="M112428 14011
L112599 13499
L112769 14011
" />
</g>
<g style="fill:#000000; fill-opacity:0.0; 
stroke:#000000; stroke-width:39.3701; stroke-opacity:1; 
stroke-linecap:round; stroke-linejoin:round;">
</g>
<g style="fill:#000000; fill-opacity:0.0; 
stroke:#000000; stroke-width:59.0551; stroke-opacity:1; 
stroke-linecap:round; stroke-linejoin:round;">
<path d="M112635 33428
L112708 33452
L112733 33476
L112757 33525
L112757 33598
L112733 33647
L112708 33671
L112660 33696
L112465 33696
L112465 33184
L112635 33184
L112684 33208
L112708 33233
L112733 33281
L112733 33330
L112708 33379
L112684 33403
L112635 33428
L112465 33428
" />
</g>
<g style="fill:#000000; fill-opacity:0.0; 
stroke:#000000; stroke-width:39.3701; stroke-opacity:1; 
stroke-linecap:round; stroke-linejoin:round;">
</g>
<g style="fill:#000000; fill-opacity:0.0; 
stroke:#000000; stroke-width:59.0551; stroke-opacity:1; 
stroke-linecap:round; stroke-linejoin:round;">
<path d="M112757 53332
L112733 53356
L112660 53381
L112611 53381
L112538 53356
L112489 53308
L112465 53259
L112440 53161
L112440 53088
L112465 52991
L112489 52942
L112538 52893
L112611 52869
L112660 52869
L112733 52893
L112757 52918
" />
</g>
<g style="fill:#000000; fill-opacity:0.0; 
stroke:#000000; stroke-width:39.3701; stroke-opacity:1; 
stroke-linecap:round; stroke-linejoin:round;">
</g>
<g style="fill:#000000; fill-opacity:0.0; 
stroke:#000000; stroke-width:59.0551; stroke-opacity:1; 
stroke-linecap:round; stroke-linejoin:round;">
<path d="M112465 73066
L112465 72554
L112587 72554
L112660 72578
L112708 72627
L112733 72676
L112757 72773
L112757 72846
L112733 72944
L112708 72993
L112660 73041
L112587 73066
L112465 73066
" />
</g>
<g style="fill:#000000; fill-opacity:0.0; 
stroke:#000000; stroke-width:39.3701; stroke-opacity:1; 
stroke-linecap:round; stroke-linejoin:round;">
</g>
<g style="fill:#000000; fill-opacity:0.0; 
stroke:#000000; stroke-width:59.0551; stroke-opacity:1; 
stroke-linecap:round; stroke-linejoin:round;">
<path d="M78881 76293
L78881 75703
L79022 75703
L79106 75731
L79162 75787
L79190 75843
L79219 75956
L79219 76040
L79190 76153
L79162 76209
L79106 76265
L79022 76293
L78881 76293
" />
<path d="M79725 76293
L79725 75984
L79697 75928
L79640 75899
L79528 75899
L79472 75928
" />
<path d="M79725 76265
L79669 76293
L79528 76293
L79472 76265
L79444 76209
L79444 76153
L79472 76096
L79528 76068
L79669 76068
L79725 76040
" />
<path d="M79922 75899
L80147 75899
" />
<path d="M80006 75703
L80006 76209
L80034 76265
L80090 76293
L80147 76293
" />
<path d="M80568 76265
L80512 76293
L80400 76293
L80343 76265
L80315 76209
L80315 75984
L80343 75928
L80400 75899
L80512 75899
L80568 75928
L80597 75984
L80597 76040
L80315 76096
" />
<path d="M80850 76237
L80878 76265
L80850 76293
L80822 76265
L80850 76237
L80850 76293
" />
<path d="M80850 75928
L80878 75956
L80850 75984
L80822 75956
L80850 75928
L80850 75984
" />
</g>
<g style="fill:#000000; fill-opacity:0.0; 
stroke:#000000; stroke-width:39.3701; stroke-opacity:1; 
stroke-linecap:round; stroke-linejoin:round;">
</g>
<g style="fill:#000000; fill-opacity:0.0; 
stroke:#000000; stroke-width:59.0551; stroke-opacity:1; 
stroke-linecap:round; stroke-linejoin:round;">
<path d="M69685 76577
L112205 76577
" />
</g>
<g style="fill:#000000; fill-opacity:0.0; 
stroke:#000000; stroke-width:39.3701; stroke-opacity:1; 
stroke-linecap:round; stroke-linejoin:round;">
</g>
<g style="fill:#000000; fill-opacity:0.0; 
stroke:#000000; stroke-width:59.0551; stroke-opacity:1; 
stroke-linecap:round; stroke-linejoin:round;">
<path d="M70220 77395
L70220 76805
" />
<path d="M70557 77395
L70304 77058
" />
<path d="M70557 76805
L70220 77142
" />
<path d="M70810 77395
L70810 77002
" />
<path d="M70810 76805
L70782 76833
L70810 76861
L70838 76833
L70810 76805
L70810 76861
" />
<path d="M71429 77339
L71401 77367
L71316 77395
L71260 77395
L71176 77367
L71120 77311
L71091 77255
L71063 77142
L71063 77058
L71091 76946
L71120 76889
L71176 76833
L71260 76805
L71316 76805
L71401 76833
L71429 76861
" />
<path d="M71935 77395
L71935 77086
L71907 77030
L71851 77002
L71738 77002
L71682 77030
" />
<path d="M71935 77367
L71879 77395
L71738 77395
L71682 77367
L71654 77311
L71654 77255
L71682 77199
L71738 77171
L71879 77171
L71935 77142
" />
<path d="M72469 77395
L72469 76805
" />
<path d="M72469 77367
L72413 77395
L72301 77395
L72244 77367
L72216 77339
L72188 77283
L72188 77114
L72216 77058
L72244 77030
L72301 77002
L72413 77002
L72469 77030
" />
<path d="M73201 77086
L73397 77086
" />
<path d="M73482 77395
L73201 77395
L73201 76805
L73482 76805
" />
<path d="M73735 77339
L73763 77367
L73735 77395
L73707 77367
L73735 77339
L73735 77395
" />
<path d="M74016 77395
L74016 76805
L74157 76805
L74241 76833
L74297 76889
L74325 76946
L74354 77058
L74354 77142
L74325 77255
L74297 77311
L74241 77367
L74157 77395
L74016 77395
" />
<path d="M74607 77339
L74635 77367
L74607 77395
L74579 77367
L74607 77339
L74607 77395
" />
<path d="M74860 77227
L75141 77227
" />
<path d="M74804 77395
L75000 76805
L75197 77395
" />
<path d="M75394 77339
L75422 77367
L75394 77395
L75366 77367
L75394 77339
L75394 77395
" />
<path d="M76575 77002
L76575 77592
" />
<path d="M76575 77030
L76631 77002
L76744 77002
L76800 77030
L76828 77058
L76856 77114
L76856 77283
L76828 77339
L76800 77367
L76744 77395
L76631 77395
L76575 77367
" />
<path d="M77363 77367
L77306 77395
L77194 77395
L77138 77367
L77109 77339
L77081 77283
L77081 77114
L77109 77058
L77138 77030
L77194 77002
L77306 77002
L77363 77030
" />
<path d="M77616 77395
L77616 76805
" />
<path d="M77616 77030
L77672 77002
L77784 77002
L77841 77030
L77869 77058
L77897 77114
L77897 77283
L77869 77339
L77841 77367
L77784 77395
L77672 77395
L77616 77367
" />
<path d="M78150 77002
L78150 77395
" />
<path d="M78150 77058
L78178 77030
L78234 77002
L78319 77002
L78375 77030
L78403 77086
L78403 77395
" />
<path d="M78909 77367
L78853 77395
L78741 77395
L78684 77367
L78656 77311
L78656 77086
L78684 77030
L78741 77002
L78853 77002
L78909 77030
L78937 77086
L78937 77142
L78656 77199
" />
<path d="M79134 77002
L79247 77395
L79359 77114
L79472 77395
L79584 77002
" />
<path d="M80428 77620
L80400 77592
L80343 77508
L80315 77452
L80287 77367
L80259 77227
L80259 77114
L80287 76974
L80315 76889
L80343 76833
L80400 76749
L80428 76721
" />
<path d="M80625 76861
L80653 76833
L80709 76805
L80850 76805
L80906 76833
L80934 76861
L80962 76917
L80962 76974
L80934 77058
L80597 77395
L80962 77395
" />
<path d="M81328 76805
L81384 76805
L81440 76833
L81468 76861
L81496 76917
L81525 77030
L81525 77171
L81496 77283
L81468 77339
L81440 77367
L81384 77395
L81328 77395
L81271 77367
L81243 77339
L81215 77283
L81187 77171
L81187 77030
L81215 76917
L81243 76861
L81271 76833
L81328 76805
" />
<path d="M82087 77395
L81750 77395
" />
<path d="M81918 77395
L81918 76805
L81862 76889
L81806 76946
L81750 76974
" />
<path d="M82621 76805
L82340 76805
L82312 77086
L82340 77058
L82396 77030
L82537 77030
L82593 77058
L82621 77086
L82649 77142
L82649 77283
L82621 77339
L82593 77367
L82537 77395
L82396 77395
L82340 77367
L82312 77339
" />
<path d="M82903 77171
L83352 77171
" />
<path d="M83746 76805
L83802 76805
L83859 76833
L83887 76861
L83915 76917
L83943 77030
L83943 77171
L83915 77283
L83887 77339
L83859 77367
L83802 77395
L83746 77395
L83690 77367
L83662 77339
L83634 77283
L83606 77171
L83606 77030
L83634 76917
L83662 76861
L83690 76833
L83746 76805
" />
<path d="M84140 76805
L84534 76805
L84280 77395
" />
<path d="M84759 77171
L85208 77171
" />
<path d="M85433 76805
L85799 76805
L85602 77030
L85687 77030
L85743 77058
L85771 77086
L85799 77142
L85799 77283
L85771 77339
L85743 77367
L85687 77395
L85518 77395
L85462 77367
L85433 77339
" />
<path d="M86361 77395
L86024 77395
" />
<path d="M86193 77395
L86193 76805
L86136 76889
L86080 76946
L86024 76974
" />
<path d="M87261 77086
L87346 77114
L87374 77142
L87402 77199
L87402 77283
L87374 77339
L87346 77367
L87289 77395
L87064 77395
L87064 76805
L87261 76805
L87318 76833
L87346 76861
L87374 76917
L87374 76974
L87346 77030
L87318 77058
L87261 77086
L87064 77086
" />
<path d="M87599 76805
L87992 76805
L87599 77395
L87992 77395
" />
<path d="M88555 77395
L88358 77114
" />
<path d="M88217 77395
L88217 76805
L88442 76805
L88499 76833
L88527 76861
L88555 76917
L88555 77002
L88527 77058
L88499 77086
L88442 77114
L88217 77114
" />
<path d="M89511 76805
L89399 76805
L89342 76833
L89314 76861
L89258 76946
L89230 77058
L89230 77283
L89258 77339
L89286 77367
L89342 77395
L89455 77395
L89511 77367
L89539 77339
L89567 77283
L89567 77142
L89539 77086
L89511 77058
L89455 77030
L89342 77030
L89286 77058
L89258 77086
L89230 77142
" />
<path d="M89933 76805
L89989 76805
L90045 76833
L90073 76861
L90102 76917
L90130 77030
L90130 77171
L90102 77283
L90073 77339
L90045 77367
L89989 77395
L89933 77395
L89877 77367
L89849 77339
L89820 77283
L89792 77171
L89792 77030
L89820 76917
L89849 76861
L89877 76833
L89933 76805
" />
<path d="M90327 76805
L90692 76805
L90495 77030
L90580 77030
L90636 77058
L90664 77086
L90692 77142
L90692 77283
L90664 77339
L90636 77367
L90580 77395
L90411 77395
L90355 77367
L90327 77339
" />
<path d="M91058 76805
L91114 76805
L91170 76833
L91198 76861
L91226 76917
L91255 77030
L91255 77171
L91226 77283
L91198 77339
L91170 77367
L91114 77395
L91058 77395
L91001 77367
L90973 77339
L90945 77283
L90917 77171
L90917 77030
L90945 76917
L90973 76861
L91001 76833
L91058 76805
" />
<path d="M91451 77620
L91480 77592
L91536 77508
L91564 77452
L91592 77367
L91620 77227
L91620 77114
L91592 76974
L91564 76889
L91536 76833
L91480 76749
L91451 76721
" />
<path d="M91901 77171
L92351 77171
" />
<path d="M92633 77002
L92633 77592
" />
<path d="M92633 77030
L92689 77002
L92801 77002
L92858 77030
L92886 77058
L92914 77114
L92914 77283
L92886 77339
L92858 77367
L92801 77395
L92689 77395
L92633 77367
" />
<path d="M93167 77395
L93167 77002
" />
<path d="M93167 77114
L93195 77058
L93223 77030
L93279 77002
L93336 77002
" />
<path d="M93617 77395
L93561 77367
L93532 77339
L93504 77283
L93504 77114
L93532 77058
L93561 77030
L93617 77002
L93701 77002
L93757 77030
L93786 77058
L93814 77114
L93814 77283
L93786 77339
L93757 77367
L93701 77395
L93617 77395
" />
<path d="M94320 77395
L94320 76805
" />
<path d="M94320 77367
L94264 77395
L94151 77395
L94095 77367
L94067 77339
L94039 77283
L94039 77114
L94067 77058
L94095 77030
L94151 77002
L94264 77002
L94320 77030
" />
<path d="M94854 77002
L94854 77395
" />
<path d="M94601 77002
L94601 77311
L94629 77367
L94685 77395
L94770 77395
L94826 77367
L94854 77339
" />
<path d="M95388 77367
L95332 77395
L95220 77395
L95163 77367
L95135 77339
L95107 77283
L95107 77114
L95135 77058
L95163 77030
L95220 77002
L95332 77002
L95388 77030
" />
<path d="M95557 77002
L95782 77002
" />
<path d="M95642 76805
L95642 77311
L95670 77367
L95726 77395
L95782 77395
" />
</g>
<g style="fill:#000000; fill-opacity:0.0; 
stroke:#000000; stroke-width:39.3701; stroke-opacity:1; 
stroke-linecap:round; stroke-linejoin:round;">
</g>
<g style="fill:#000000; fill-opacity:0.0; 
stroke:#000000; stroke-width:59.0551; stroke-opacity:1; 
stroke-linecap:round; stroke-linejoin:round;">
<path d="M69685 75396
L112205 75396
" />
</g>
<g style="fill:#000000; fill-opacity:0.0; 
stroke:#000000; stroke-width:39.3701; stroke-opacity:1; 
stroke-linecap:round; stroke-linejoin:round;">
</g>
<g style="fill:#000000; fill-opacity:0.0; 
stroke:#000000; stroke-width:118.11; stroke-opacity:1; 
stroke-linecap:round; stroke-linejoin:round;">
<path d="M104022 76293
L103825 76012
" />
<path d="M103684 76293
L103684 75703
L103909 75703
L103965 75731
L103994 75759
L104022 75815
L104022 75899
L103994 75956
L103965 75984
L103909 76012
L103684 76012
" />
<path d="M104500 76265
L104444 76293
L104331 76293
L104275 76265
L104247 76209
L104247 75984
L104275 75928
L104331 75899
L104444 75899
L104500 75928
L104528 75984
L104528 76040
L104247 76096
" />
<path d="M104725 75899
L104865 76293
L105006 75899
" />
<path d="M105231 76237
L105259 76265
L105231 76293
L105203 76265
L105231 76237
L105231 76293
" />
<path d="M105231 75928
L105259 75956
L105231 75984
L105203 75956
L105231 75928
L105231 75984
" />
</g>
<g style="fill:#000000; fill-opacity:0.0; 
stroke:#000000; stroke-width:39.3701; stroke-opacity:1; 
stroke-linecap:round; stroke-linejoin:round;">
</g>
<g style="fill:#000000; fill-opacity:0.0; 
stroke:#000000; stroke-width:59.0551; stroke-opacity:1; 
stroke-linecap:round; stroke-linejoin:round;">
<path d="M70192 76265
L70276 76293
L70417 76293
L70473 76265
L70501 76237
L70529 76181
L70529 76124
L70501 76068
L70473 76040
L70417 76012
L70304 75984
L70248 75956
L70220 75928
L70192 75871
L70192 75815
L70220 75759
L70248 75731
L70304 75703
L70445 75703
L70529 75731
" />
<path d="M70782 76293
L70782 75899
" />
<path d="M70782 75703
L70754 75731
L70782 75759
L70810 75731
L70782 75703
L70782 75759
" />
<path d="M71007 75899
L71316 75899
L71007 76293
L71316 76293
" />
<path d="M71766 76265
L71710 76293
L71598 76293
L71541 76265
L71513 76209
L71513 75984
L71541 75928
L71598 75899
L71710 75899
L71766 75928
L71795 75984
L71795 76040
L71513 76096
" />
<path d="M72048 76237
L72076 76265
L72048 76293
L72019 76265
L72048 76237
L72048 76293
" />
<path d="M72048 75928
L72076 75956
L72048 75984
L72019 75956
L72048 75928
L72048 75984
" />
<path d="M72751 76124
L73032 76124
" />
<path d="M72694 76293
L72891 75703
L73088 76293
" />
<path d="M73538 75899
L73538 76293
" />
<path d="M73397 75674
L73257 76096
L73622 76096
" />
</g>
<g style="fill:#000000; fill-opacity:0.0; 
stroke:#000000; stroke-width:39.3701; stroke-opacity:1; 
stroke-linecap:round; stroke-linejoin:round;">
</g>
<g style="fill:#000000; fill-opacity:0.0; 
stroke:#000000; stroke-width:59.0551; stroke-opacity:1; 
stroke-linecap:round; stroke-linejoin:round;">
<path d="M103684 77395
L103684 76805
" />
<path d="M104219 77395
L104219 76805
" />
<path d="M104219 77367
L104162 77395
L104050 77395
L103994 77367
L103965 77339
L103937 77283
L103937 77114
L103965 77058
L103994 77030
L104050 77002
L104162 77002
L104219 77030
" />
<path d="M104500 77339
L104528 77367
L104500 77395
L104472 77367
L104500 77339
L104500 77395
" />
<path d="M104500 77030
L104528 77058
L104500 77086
L104472 77058
L104500 77030
L104500 77086
" />
<path d="M105540 77395
L105203 77395
" />
<path d="M105372 77395
L105372 76805
L105315 76889
L105259 76946
L105203 76974
" />
<path d="M106215 76777
L105709 77536
" />
<path d="M106721 77395
L106384 77395
" />
<path d="M106553 77395
L106553 76805
L106496 76889
L106440 76946
L106384 76974
" />
</g>
<g style="fill:#000000; fill-opacity:0.0; 
stroke:#000000; stroke-width:39.3701; stroke-opacity:1; 
stroke-linecap:round; stroke-linejoin:round;">
</g>
<g style="fill:#000000; fill-opacity:0.0; 
stroke:#000000; stroke-width:59.0551; stroke-opacity:1; 
stroke-linecap:round; stroke-linejoin:round;">
<path d="M69685 73821
L112205 73821
" />
</g>
<g style="fill:#000000; fill-opacity:0.0; 
stroke:#000000; stroke-width:39.3701; stroke-opacity:1; 
stroke-linecap:round; stroke-linejoin:round;">
</g>
<g style="fill:#000000; fill-opacity:0.0; 
stroke:#000000; stroke-width:157.48; stroke-opacity:1; 
stroke-linecap:round; stroke-linejoin:round;">
<path d="M70257 74099
L70707 74099
" />
<path d="M70384 74886
L70482 74099
" />
<path d="M70871 74886
L70937 74361
" />
<path d="M70970 74099
L70927 74136
L70960 74174
L71002 74136
L70970 74099
L70960 74174
" />
<path d="M71199 74361
L71499 74361
" />
<path d="M71345 74099
L71260 74774
L71288 74849
L71359 74886
L71434 74886
" />
<path d="M71809 74886
L71738 74849
L71710 74774
L71795 74099
" />
<path d="M72413 74849
L72334 74886
L72184 74886
L72113 74849
L72085 74774
L72123 74474
L72169 74399
L72249 74361
L72399 74361
L72469 74399
L72498 74474
L72488 74549
L72104 74624
" />
<path d="M72793 74811
L72826 74849
L72783 74886
L72751 74849
L72793 74811
L72783 74886
" />
<path d="M72844 74399
L72877 74436
L72835 74474
L72802 74436
L72844 74399
L72835 74474
" />
</g>
<g style="fill:#000000; fill-opacity:0.0; 
stroke:#000000; stroke-width:39.3701; stroke-opacity:1; 
stroke-linecap:round; stroke-linejoin:round;">
</g>
<g style="fill:#000000; fill-opacity:0.0; 
stroke:#000000; stroke-width:59.0551; stroke-opacity:1; 
stroke-linecap:round; stroke-linejoin:round;">
<path d="M70417 73070
L70220 73070
" />
<path d="M70220 73380
L70220 72789
L70501 72789
" />
<path d="M70726 73380
L70726 72986
" />
<path d="M70726 72789
L70698 72817
L70726 72845
L70754 72817
L70726 72789
L70726 72845
" />
<path d="M71091 73380
L71035 73352
L71007 73295
L71007 72789
" />
<path d="M71541 73352
L71485 73380
L71373 73380
L71316 73352
L71288 73295
L71288 73070
L71316 73014
L71373 72986
L71485 72986
L71541 73014
L71570 73070
L71570 73127
L71288 73183
" />
<path d="M71823 73323
L71851 73352
L71823 73380
L71795 73352
L71823 73323
L71823 73380
" />
<path d="M71823 73014
L71851 73042
L71823 73070
L71795 73042
L71823 73014
L71823 73070
" />
<path d="M72498 72986
L72638 73380
L72779 72986
" />
<path d="M73088 73380
L73032 73352
L73004 73323
L72976 73267
L72976 73099
L73004 73042
L73032 73014
L73088 72986
L73172 72986
L73229 73014
L73257 73042
L73285 73099
L73285 73267
L73257 73323
L73229 73352
L73172 73380
L73088 73380
" />
<path d="M73622 73380
L73566 73352
L73538 73295
L73538 72789
" />
<path d="M73763 72986
L73988 72986
" />
<path d="M73847 72789
L73847 73295
L73876 73352
L73932 73380
L73988 73380
" />
<path d="M74438 73380
L74438 73070
L74410 73014
L74354 72986
L74241 72986
L74185 73014
" />
<path d="M74438 73352
L74382 73380
L74241 73380
L74185 73352
L74157 73295
L74157 73239
L74185 73183
L74241 73155
L74382 73155
L74438 73127
" />
<path d="M74972 72986
L74972 73464
L74944 73520
L74916 73548
L74860 73577
L74775 73577
L74719 73548
" />
<path d="M74972 73352
L74916 73380
L74804 73380
L74747 73352
L74719 73323
L74691 73267
L74691 73099
L74719 73042
L74747 73014
L74804 72986
L74916 72986
L74972 73014
" />
<path d="M75478 73352
L75422 73380
L75310 73380
L75253 73352
L75225 73295
L75225 73070
L75253 73014
L75310 72986
L75422 72986
L75478 73014
L75507 73070
L75507 73127
L75225 73183
" />
<path d="M75619 73436
L76069 73436
" />
<path d="M76210 73380
L76210 72986
" />
<path d="M76210 73099
L76238 73042
L76266 73014
L76322 72986
L76378 72986
" />
<path d="M76800 73352
L76744 73380
L76631 73380
L76575 73352
L76547 73295
L76547 73070
L76575 73014
L76631 72986
L76744 72986
L76800 73014
L76828 73070
L76828 73127
L76547 73183
" />
<path d="M77334 72986
L77334 73464
L77306 73520
L77278 73548
L77222 73577
L77138 73577
L77081 73548
" />
<path d="M77334 73352
L77278 73380
L77166 73380
L77109 73352
L77081 73323
L77053 73267
L77053 73099
L77081 73042
L77109 73014
L77166 72986
L77278 72986
L77334 73014
" />
<path d="M77869 72986
L77869 73380
" />
<path d="M77616 72986
L77616 73295
L77644 73352
L77700 73380
L77784 73380
L77841 73352
L77869 73323
" />
<path d="M78234 73380
L78178 73352
L78150 73295
L78150 72789
" />
<path d="M78712 73380
L78712 73070
L78684 73014
L78628 72986
L78516 72986
L78459 73014
" />
<path d="M78712 73352
L78656 73380
L78516 73380
L78459 73352
L78431 73295
L78431 73239
L78459 73183
L78516 73155
L78656 73155
L78712 73127
" />
<path d="M78909 72986
L79134 72986
" />
<path d="M78994 72789
L78994 73295
L79022 73352
L79078 73380
L79134 73380
" />
<path d="M79415 73380
L79359 73352
L79331 73323
L79303 73267
L79303 73099
L79331 73042
L79359 73014
L79415 72986
L79500 72986
L79556 73014
L79584 73042
L79612 73099
L79612 73267
L79584 73323
L79556 73352
L79500 73380
L79415 73380
" />
<path d="M79865 73380
L79865 72986
" />
<path d="M79865 73099
L79894 73042
L79922 73014
L79978 72986
L80034 72986
" />
<path d="M80231 73323
L80259 73352
L80231 73380
L80203 73352
L80231 73323
L80231 73380
" />
<path d="M80512 73380
L80512 72789
" />
<path d="M80568 73155
L80737 73380
" />
<path d="M80737 72986
L80512 73211
" />
<path d="M80990 73380
L80990 72986
" />
<path d="M80990 72789
L80962 72817
L80990 72845
L81018 72817
L80990 72789
L80990 72845
" />
<path d="M81525 73352
L81468 73380
L81356 73380
L81300 73352
L81271 73323
L81243 73267
L81243 73099
L81271 73042
L81300 73014
L81356 72986
L81468 72986
L81525 73014
" />
<path d="M82031 73380
L82031 73070
L82003 73014
L81946 72986
L81834 72986
L81778 73014
" />
<path d="M82031 73352
L81974 73380
L81834 73380
L81778 73352
L81750 73295
L81750 73239
L81778 73183
L81834 73155
L81974 73155
L82031 73127
" />
<path d="M82565 73380
L82565 72789
" />
<path d="M82565 73352
L82509 73380
L82396 73380
L82340 73352
L82312 73323
L82284 73267
L82284 73099
L82312 73042
L82340 73014
L82396 72986
L82509 72986
L82565 73014
" />
<path d="M82706 73436
L83156 73436
" />
<path d="M83296 72986
L83296 73577
" />
<path d="M83296 73014
L83352 72986
L83465 72986
L83521 73014
L83549 73042
L83577 73099
L83577 73267
L83549 73323
L83521 73352
L83465 73380
L83352 73380
L83296 73352
" />
<path d="M84084 73352
L84027 73380
L83915 73380
L83859 73352
L83831 73323
L83802 73267
L83802 73099
L83831 73042
L83859 73014
L83915 72986
L84027 72986
L84084 73014
" />
<path d="M84337 73380
L84337 72789
" />
<path d="M84337 73014
L84393 72986
L84505 72986
L84562 73014
L84590 73042
L84618 73099
L84618 73267
L84590 73323
L84562 73352
L84505 73380
L84393 73380
L84337 73352
" />
</g>
<g style="fill:#000000; fill-opacity:0.0; 
stroke:#000000; stroke-width:39.3701; stroke-opacity:1; 
stroke-linecap:round; stroke-linejoin:round;">
</g>
<g style="fill:#000000; fill-opacity:0.0; 
stroke:#000000; stroke-width:59.0551; stroke-opacity:1; 
stroke-linecap:round; stroke-linejoin:round;">
<path d="M69685 71459
L112205 71459
" />
</g>
<g style="fill:#000000; fill-opacity:0.0; 
stroke:#000000; stroke-width:39.3701; stroke-opacity:1; 
stroke-linecap:round; stroke-linejoin:round;">
</g>
<g style="fill:#000000; fill-opacity:0.0; 
stroke:#000000; stroke-width:59.0551; stroke-opacity:1; 
stroke-linecap:round; stroke-linejoin:round;">
<path d="M70192 72289
L70276 72317
L70417 72317
L70473 72289
L70501 72260
L70529 72204
L70529 72148
L70501 72092
L70473 72064
L70417 72036
L70304 72007
L70248 71979
L70220 71951
L70192 71895
L70192 71839
L70220 71782
L70248 71754
L70304 71726
L70445 71726
L70529 71754
" />
<path d="M70782 72317
L70782 71726
" />
<path d="M71035 72317
L71035 72007
L71007 71951
L70951 71923
L70867 71923
L70810 71951
L70782 71979
" />
<path d="M71541 72289
L71485 72317
L71373 72317
L71316 72289
L71288 72232
L71288 72007
L71316 71951
L71373 71923
L71485 71923
L71541 71951
L71570 72007
L71570 72064
L71288 72120
" />
<path d="M72048 72289
L71991 72317
L71879 72317
L71823 72289
L71795 72232
L71795 72007
L71823 71951
L71879 71923
L71991 71923
L72048 71951
L72076 72007
L72076 72064
L71795 72120
" />
<path d="M72244 71923
L72469 71923
" />
<path d="M72329 71726
L72329 72232
L72357 72289
L72413 72317
L72469 72317
" />
<path d="M72666 72260
L72694 72289
L72666 72317
L72638 72289
L72666 72260
L72666 72317
" />
<path d="M72666 71951
L72694 71979
L72666 72007
L72638 71979
L72666 71951
L72666 72007
" />
</g>
<g style="fill:#000000; fill-opacity:0.0; 
stroke:#000000; stroke-width:39.3701; stroke-opacity:1; 
stroke-linecap:round; stroke-linejoin:round;">
</g>
<g style="fill:#000000; fill-opacity:0.0; 
stroke:#000000; stroke-width:59.0551; stroke-opacity:1; 
stroke-linecap:round; stroke-linejoin:round;">
<path d="M77559 75396
L77559 76577
" />
</g>
<g style="fill:#000000; fill-opacity:0.0; 
stroke:#000000; stroke-width:39.3701; stroke-opacity:1; 
stroke-linecap:round; stroke-linejoin:round;">
</g>
<g style="fill:#000000; fill-opacity:0.0; 
stroke:#000000; stroke-width:59.0551; stroke-opacity:1; 
stroke-linecap:round; stroke-linejoin:round;">
<path d="M102756 75396
L102756 77955
" />
</g>
<g style="fill:#840000; fill-opacity:0.0; 
stroke:#840000; stroke-width:59.0551; stroke-opacity:1; 
stroke-linecap:round; stroke-linejoin:round;">
</g>
<g style="fill:#840000; fill-opacity:1.0; 
stroke:#840000; stroke-width:0; stroke-opacity:1; 
stroke-linecap:round; stroke-linejoin:round;">
<circle cx="60330.7" cy="47204.7" r="984.252" /> 
</g>
<g style="fill:#840000; fill-opacity:1.0; 
stroke:#840000; stroke-width:39.3701; stroke-opacity:1; 
stroke-linecap:round; stroke-linejoin:round;">
</g>
<g style="fill:#840000; fill-opacity:1.0; 
stroke:#840000; stroke-width:0; stroke-opacity:1; 
stroke-linecap:round; stroke-linejoin:round;">
<circle cx="70580.7" cy="47204.7" r="984.252" /> 
</g>
<g style="fill:#840000; fill-opacity:1.0; 
stroke:#840000; stroke-width:39.3701; stroke-opacity:1; 
stroke-linecap:round; stroke-linejoin:round;">
</g>
<g style="fill:#840000; fill-opacity:1.0; 
stroke:#840000; stroke-width:0; stroke-opacity:1; 
stroke-linecap:round; stroke-linejoin:round;">
<circle cx="70580.7" cy="36454.7" r="984.252" /> 
</g>
<g style="fill:#840000; fill-opacity:1.0; 
stroke:#840000; stroke-width:39.3701; stroke-opacity:1; 
stroke-linecap:round; stroke-linejoin:round;">
</g>
<g style="fill:#840000; fill-opacity:1.0; 
stroke:#840000; stroke-width:0; stroke-opacity:1; 
stroke-linecap:round; stroke-linejoin:round;">
<circle cx="66500" cy="39600" r="295.5" /> 
</g>
<g style="fill:#840000; fill-opacity:1.0; 
stroke:#840000; stroke-width:39.3701; stroke-opacity:1; 
stroke-linecap:round; stroke-linejoin:round;">
</g>
<g style="fill:#840000; fill-opacity:1.0; 
stroke:#840000; stroke-width:0; stroke-opacity:1; 
stroke-linecap:round; stroke-linejoin:round;">
<circle cx="66500" cy="40600" r="295.5" /> 
</g>
<g style="fill:#840000; fill-opacity:1.0; 
stroke:#840000; stroke-width:39.3701; stroke-opacity:1; 
stroke-linecap:round; stroke-linejoin:round;">
</g>
<g style="fill:#840000; fill-opacity:1.0; 
stroke:#840000; stroke-width:0; stroke-opacity:1; 
stroke-linecap:round; stroke-linejoin:round;">
<circle cx="66500" cy="41400" r="295.5" /> 
</g>
<g style="fill:#840000; fill-opacity:1.0; 
stroke:#840000; stroke-width:39.3701; stroke-opacity:1; 
stroke-linecap:round; stroke-linejoin:round;">
</g>
<g style="fill:#840000; fill-opacity:1.0; 
stroke:#840000; stroke-width:0; stroke-opacity:1; 
stroke-linecap:round; stroke-linejoin:round;">
<circle cx="66500" cy="42400" r="295.5" /> 
</g>
<g style="fill:#840000; fill-opacity:1.0; 
stroke:#840000; stroke-width:39.3701; stroke-opacity:1; 
stroke-linecap:round; stroke-linejoin:round;">
</g>
<g style="fill:#840000; fill-opacity:1.0; 
stroke:#840000; stroke-width:0; stroke-opacity:1; 
stroke-linecap:round; stroke-linejoin:round;">
<circle cx="67550" cy="38400" r="590.5" /> 
</g>
<g style="fill:#840000; fill-opacity:1.0; 
stroke:#840000; stroke-width:39.3701; stroke-opacity:1; 
stroke-linecap:round; stroke-linejoin:round;">
</g>
<g style="fill:#840000; fill-opacity:1.0; 
stroke:#840000; stroke-width:0; stroke-opacity:1; 
stroke-linecap:round; stroke-linejoin:round;">
<circle cx="67550" cy="43800" r="590.5" /> 
</g>
<g style="fill:#840000; fill-opacity:1.0; 
stroke:#840000; stroke-width:39.3701; stroke-opacity:1; 
stroke-linecap:round; stroke-linejoin:round;">
</g>
<g style="fill:#840000; fill-opacity:1.0; 
stroke:#840000; stroke-width:0; stroke-opacity:1; 
stroke-linecap:round; stroke-linejoin:round;">
<circle cx="60330.7" cy="39454.7" r="800" /> 
</g>
<g style="fill:#840000; fill-opacity:1.0; 
stroke:#840000; stroke-width:39.3701; stroke-opacity:1; 
stroke-linecap:round; stroke-linejoin:round;">
</g>
<g style="fill:#840000; fill-opacity:1.0; 
stroke:#840000; stroke-width:0; stroke-opacity:1; 
stroke-linecap:round; stroke-linejoin:round;">
<circle cx="60250" cy="43750" r="800" /> 
</g>
<g style="fill:#840000; fill-opacity:1.0; 
stroke:#840000; stroke-width:39.3701; stroke-opacity:1; 
stroke-linecap:round; stroke-linejoin:round;">
</g>
<g style="fill:#840000; fill-opacity:1.0; 
stroke:#840000; stroke-width:0; stroke-opacity:1; 
stroke-linecap:round; stroke-linejoin:round;">
<circle cx="60330.7" cy="36454.7" r="984.252" /> 
</g>
<g style="fill:#840000; fill-opacity:1.0; 
stroke:#840000; stroke-width:39.3701; stroke-opacity:1; 
stroke-linecap:round; stroke-linejoin:round;">
</g>
<g style="fill:#C2C2C2; fill-opacity:1.0; 
stroke:#C2C2C2; stroke-width:39.3701; stroke-opacity:1; 
stroke-linecap:round; stroke-linejoin:round;">
</g>
<g style="fill:#C2C2C2; fill-opacity:1.0; 
stroke:#C2C2C2; stroke-width:0; stroke-opacity:1; 
stroke-linecap:round; stroke-linejoin:round;">
<circle cx="64677.2" cy="42427.2" r="118.11" /> 
</g>
<g style="fill:#C2C2C2; fill-opacity:1.0; 
stroke:#C2C2C2; stroke-width:39.3701; stroke-opacity:1; 
stroke-linecap:round; stroke-linejoin:round;">
</g>
<g style="fill:#C2C2C2; fill-opacity:1.0; 
stroke:#C2C2C2; stroke-width:0; stroke-opacity:1; 
stroke-linecap:round; stroke-linejoin:round;">
<circle cx="64322.8" cy="42427.2" r="118.11" /> 
</g>
<g style="fill:#C2C2C2; fill-opacity:1.0; 
stroke:#C2C2C2; stroke-width:39.3701; stroke-opacity:1; 
stroke-linecap:round; stroke-linejoin:round;">
</g>
<g style="fill:#C2C2C2; fill-opacity:1.0; 
stroke:#C2C2C2; stroke-width:0; stroke-opacity:1; 
stroke-linecap:round; stroke-linejoin:round;">
<circle cx="64322.8" cy="42072.8" r="118.11" /> 
</g>
<g style="fill:#C2C2C2; fill-opacity:1.0; 
stroke:#C2C2C2; stroke-width:39.3701; stroke-opacity:1; 
stroke-linecap:round; stroke-linejoin:round;">
</g>
<g style="fill:#C2C2C2; fill-opacity:1.0; 
stroke:#C2C2C2; stroke-width:0; stroke-opacity:1; 
stroke-linecap:round; stroke-linejoin:round;">
<circle cx="64677.2" cy="42072.8" r="118.11" /> 
</g>
<g style="fill:#C2C2C2; fill-opacity:1.0; 
stroke:#C2C2C2; stroke-width:39.3701; stroke-opacity:1; 
stroke-linecap:round; stroke-linejoin:round;">
</g>
<g style="fill:#008400; fill-opacity:1.0; 
stroke:#008400; stroke-width:39.3701; stroke-opacity:1; 
stroke-linecap:round; stroke-linejoin:round;">
</g>
<g style="fill:#008400; fill-opacity:1.0; 
stroke:#008400; stroke-width:98.4252; stroke-opacity:1; 
stroke-linecap:round; stroke-linejoin:round;">
</g>
<g style="fill:#008400; fill-opacity:0.0; 
stroke:#008400; stroke-width:98.4252; stroke-opacity:1; 
stroke-linecap:round; stroke-linejoin:round;">
<path d="M64580 42454
L64649 42454
" />
<path d="M64649 42454
L64677 42427
" />
<path d="M64330 42454
L64330 42435
" />
<path d="M64330 42435
L64322 42427
" />
<path d="M64330 42080
L64330 42204
" />
<path d="M64322 42072
L64330 42080
" />
<path d="M64580 42204
L64580 42169
" />
<path d="M64580 42169
L64677 42072
" />
</g>
<g style="fill:#008400; fill-opacity:1.0; 
stroke:#008400; stroke-width:100; stroke-opacity:1; 
stroke-linecap:round; stroke-linejoin:round;">
<polyline style="fill-rule:evenodd;"
points="69882,35407
69534,35754
69346,36208
69346,36699
69533,37152
69880,37500
70334,37688
70825,37689
71278,37501
71626,37154
71780,36783
71780,46876
71627,46506
71280,46158
70827,45970
70336,45970
69882,46157
69534,46504
69346,46958
69346,47449
69533,47902
69880,48250
70252,48404
60658,48404
61028,48251
61376,47904
61564,47451
61565,46960
61377,46506
61030,46158
60577,45970
60086,45970
59632,46157
59284,46504
59130,46876
59130,43957
59199,43957
59359,44344
59654,44639
60040,44799
60457,44800
60844,44640
61089,44396
67024,44396
67087,44521
67398,44643
67733,44637
68012,44521
68075,44396
67550,43870
67024,44396
61089,44396
61139,44345
61299,43959
61300,43648
66706,43648
66712,43983
66828,44262
66953,44325
67479,43800
67620,43800
68146,44325
68271,44262
68393,43951
68387,43616
68271,43337
68146,43274
67620,43800
67479,43800
66953,43274
66828,43337
66706,43648
61300,43648
61300,43542
61160,43203
67024,43203
67550,43729
68075,43203
68012,43078
67701,42956
67366,42962
67087,43078
67024,43203
61160,43203
61140,43155
60845,42860
60459,42700
60042,42699
59655,42859
59360,43154
59200,43540
59199,43957
59130,43957
59130,40708
65954,40708
66037,40908
66128,41000
66037,41090
65954,41291
65954,41508
66037,41708
66190,41862
66281,41899
66191,41937
66037,42090
65954,42291
65954,42508
66037,42708
66190,42862
66391,42945
66608,42945
66808,42862
66962,42709
67045,42508
67045,42291
66962,42091
66809,41937
66718,41900
66808,41862
66962,41709
67045,41508
67045,41291
66962,41091
66871,40999
66962,40909
67045,40708
67045,40491
66962,40291
66809,40137
66724,40102
66785,40077
66811,39982
66500,39670
66188,39982
66214,40077
66279,40100
66191,40137
66037,40290
65954,40491
65954,40708
59130,40708
59130,40202
59654,40202
59742,40349
60129,40506
60547,40503
60918,40349
61007,40202
60330,39525
59654,40202
59130,40202
59130,39253
59279,39253
59282,39671
59436,40042
59583,40131
60259,39454
60401,39454
61078,40131
61225,40042
61382,39655
61381,39519
65949,39519
65960,39736
66022,39885
66117,39911
66429,39600
66570,39600
66882,39911
66977,39885
67050,39680
67039,39463
66977,39314
66882,39288
66570,39600
66429,39600
66117,39288
66022,39314
65949,39519
61381,39519
61379,39238
61370,39217
66188,39217
66500,39529
66811,39217
66785,39122
66580,39049
66363,39060
66214,39122
66188,39217
61370,39217
61278,38996
67024,38996
67087,39121
67398,39243
67733,39237
68012,39121
68075,38996
67550,38470
67024,38996
61278,38996
61225,38866
61078,38778
60401,39454
60259,39454
59583,38778
59436,38866
59279,39253
59130,39253
59130,38707
59654,38707
60330,39384
61007,38707
60918,38560
60531,38403
60114,38406
59742,38560
59654,38707
59130,38707
59130,38248
66706,38248
66712,38583
66828,38862
66953,38925
67479,38400
67620,38400
68146,38925
68271,38862
68393,38551
68387,38216
68271,37937
68146,37874
67620,38400
67479,38400
66953,37874
66828,37937
66706,38248
59130,38248
59130,37803
67024,37803
67550,38329
68075,37803
68012,37678
67701,37556
67366,37562
67087,37678
67024,37803
59130,37803
59130,36782
59283,37152
59630,37500
60084,37688
60575,37689
61028,37501
61376,37154
61564,36701
61565,36210
61377,35756
61030,35408
60659,35254
70252,35254
69882,35407
" /> 
</g>
<g style="fill:#FFFFFF; fill-opacity:1.0; 
stroke:#FFFFFF; stroke-width:100; stroke-opacity:1; 
stroke-linecap:round; stroke-linejoin:round;">
</g>
<g style="fill:#FFFFFF; fill-opacity:1.0; 
stroke:#FFFFFF; stroke-width:0; stroke-opacity:1; 
stroke-linecap:round; stroke-linejoin:round;">
<circle cx="64677.2" cy="42427.2" r="78.7402" /> 
</g>
<g style="fill:#FFFFFF; fill-opacity:1.0; 
stroke:#FFFFFF; stroke-width:39.3701; stroke-opacity:1; 
stroke-linecap:round; stroke-linejoin:round;">
</g>
<g style="fill:#FFFFFF; fill-opacity:1.0; 
stroke:#FFFFFF; stroke-width:0; stroke-opacity:1; 
stroke-linecap:round; stroke-linejoin:round;">
<circle cx="64322.8" cy="42427.2" r="78.7402" /> 
</g>
<g style="fill:#FFFFFF; fill-opacity:1.0; 
stroke:#FFFFFF; stroke-width:39.3701; stroke-opacity:1; 
stroke-linecap:round; stroke-linejoin:round;">
</g>
<g style="fill:#FFFFFF; fill-opacity:1.0; 
stroke:#FFFFFF; stroke-width:0; stroke-opacity:1; 
stroke-linecap:round; stroke-linejoin:round;">
<circle cx="64322.8" cy="42072.8" r="78.7402" /> 
</g>
<g style="fill:#FFFFFF; fill-opacity:1.0; 
stroke:#FFFFFF; stroke-width:39.3701; stroke-opacity:1; 
stroke-linecap:round; stroke-linejoin:round;">
</g>
<g style="fill:#FFFFFF; fill-opacity:1.0; 
stroke:#FFFFFF; stroke-width:0; stroke-opacity:1; 
stroke-linecap:round; stroke-linejoin:round;">
<circle cx="64677.2" cy="42072.8" r="78.7402" /> 
</g>
<g style="fill:#FFFFFF; fill-opacity:1.0; 
stroke:#FFFFFF; stroke-width:39.3701; stroke-opacity:1; 
stroke-linecap:round; stroke-linejoin:round;">
</g>
<g style="fill:#FFFFFF; fill-opacity:1.0; 
stroke:#FFFFFF; stroke-width:0; stroke-opacity:1; 
stroke-linecap:round; stroke-linejoin:round;">
<circle cx="60330.7" cy="47204.7" r="590.551" /> 
</g>
<g style="fill:#FFFFFF; fill-opacity:1.0; 
stroke:#FFFFFF; stroke-width:39.3701; stroke-opacity:1; 
stroke-linecap:round; stroke-linejoin:round;">
</g>
<g style="fill:#FFFFFF; fill-opacity:1.0; 
stroke:#FFFFFF; stroke-width:0; stroke-opacity:1; 
stroke-linecap:round; stroke-linejoin:round;">
<circle cx="70580.7" cy="47204.7" r="590.551" /> 
</g>
<g style="fill:#FFFFFF; fill-opacity:1.0; 
stroke:#FFFFFF; stroke-width:39.3701; stroke-opacity:1; 
stroke-linecap:round; stroke-linejoin:round;">
</g>
<g style="fill:#FFFFFF; fill-opacity:1.0; 
stroke:#FFFFFF; stroke-width:0; stroke-opacity:1; 
stroke-linecap:round; stroke-linejoin:round;">
<circle cx="70580.7" cy="36454.7" r="590.551" /> 
</g>
<g style="fill:#FFFFFF; fill-opacity:1.0; 
stroke:#FFFFFF; stroke-width:39.3701; stroke-opacity:1; 
stroke-linecap:round; stroke-linejoin:round;">
</g>
<g style="fill:#FFFFFF; fill-opacity:1.0; 
stroke:#FFFFFF; stroke-width:0; stroke-opacity:1; 
stroke-linecap:round; stroke-linejoin:round;">
<circle cx="66500" cy="39600" r="197" /> 
</g>
<g style="fill:#FFFFFF; fill-opacity:1.0; 
stroke:#FFFFFF; stroke-width:39.3701; stroke-opacity:1; 
stroke-linecap:round; stroke-linejoin:round;">
</g>
<g style="fill:#FFFFFF; fill-opacity:1.0; 
stroke:#FFFFFF; stroke-width:0; stroke-opacity:1; 
stroke-linecap:round; stroke-linejoin:round;">
<circle cx="66500" cy="40600" r="197" /> 
</g>
<g style="fill:#FFFFFF; fill-opacity:1.0; 
stroke:#FFFFFF; stroke-width:39.3701; stroke-opacity:1; 
stroke-linecap:round; stroke-linejoin:round;">
</g>
<g style="fill:#FFFFFF; fill-opacity:1.0; 
stroke:#FFFFFF; stroke-width:0; stroke-opacity:1; 
stroke-linecap:round; stroke-linejoin:round;">
<circle cx="66500" cy="41400" r="197" /> 
</g>
<g style="fill:#FFFFFF; fill-opacity:1.0; 
stroke:#FFFFFF; stroke-width:39.3701; stroke-opacity:1; 
stroke-linecap:round; stroke-linejoin:round;">
</g>
<g style="fill:#FFFFFF; fill-opacity:1.0; 
stroke:#FFFFFF; stroke-width:0; stroke-opacity:1; 
stroke-linecap:round; stroke-linejoin:round;">
<circle cx="66500" cy="42400" r="197" /> 
</g>
<g style="fill:#FFFFFF; fill-opacity:1.0; 
stroke:#FFFFFF; stroke-width:39.3701; stroke-opacity:1; 
stroke-linecap:round; stroke-linejoin:round;">
</g>
<g style="fill:#FFFFFF; fill-opacity:1.0; 
stroke:#FFFFFF; stroke-width:0; stroke-opacity:1; 
stroke-linecap:round; stroke-linejoin:round;">
<circle cx="67550" cy="38400" r="453" /> 
</g>
<g style="fill:#FFFFFF; fill-opacity:1.0; 
stroke:#FFFFFF; stroke-width:39.3701; stroke-opacity:1; 
stroke-linecap:round; stroke-linejoin:round;">
</g>
<g style="fill:#FFFFFF; fill-opacity:1.0; 
stroke:#FFFFFF; stroke-width:0; stroke-opacity:1; 
stroke-linecap:round; stroke-linejoin:round;">
<circle cx="67550" cy="43800" r="453" /> 
</g>
<g style="fill:#FFFFFF; fill-opacity:1.0; 
stroke:#FFFFFF; stroke-width:39.3701; stroke-opacity:1; 
stroke-linecap:round; stroke-linejoin:round;">
</g>
<g style="fill:#FFFFFF; fill-opacity:1.0; 
stroke:#FFFFFF; stroke-width:0; stroke-opacity:1; 
stroke-linecap:round; stroke-linejoin:round;">
<circle cx="60330.7" cy="39454.7" r="600" /> 
</g>
<g style="fill:#FFFFFF; fill-opacity:1.0; 
stroke:#FFFFFF; stroke-width:39.3701; stroke-opacity:1; 
stroke-linecap:round; stroke-linejoin:round;">
</g>
<g style="fill:#FFFFFF; fill-opacity:1.0; 
stroke:#FFFFFF; stroke-width:0; stroke-opacity:1; 
stroke-linecap:round; stroke-linejoin:round;">
<circle cx="60250" cy="43750" r="600" /> 
</g>
<g style="fill:#FFFFFF; fill-opacity:1.0; 
stroke:#FFFFFF; stroke-width:39.3701; stroke-opacity:1; 
stroke-linecap:round; stroke-linejoin:round;">
</g>
<g style="fill:#FFFFFF; fill-opacity:1.0; 
stroke:#FFFFFF; stroke-width:0; stroke-opacity:1; 
stroke-linecap:round; stroke-linejoin:round;">
<circle cx="60330.7" cy="36454.7" r="590.551" /> 
</g>
<g style="fill:#FFFFFF; fill-opacity:1.0; 
stroke:#FFFFFF; stroke-width:39.3701; stroke-opacity:1; 
stroke-linecap:round; stroke-linejoin:round;">
</g>
<g style="fill:#000000; fill-opacity:1.0; 
stroke:#000000; stroke-width:39.3701; stroke-opacity:1; 
stroke-linecap:round; stroke-linejoin:round;">
</g>
<g style="fill:#840000; fill-opacity:1.0; 
stroke:#840000; stroke-width:39.3701; stroke-opacity:1; 
stroke-linecap:round; stroke-linejoin:round;">
</g>
<g style="fill:#840000; fill-opacity:1.0; 
stroke:#840000; stroke-width:0; stroke-opacity:1; 
stroke-linecap:round; stroke-linejoin:round;">
<circle cx="60330.7" cy="47204.7" r="984.252" /> 
</g>
<g style="fill:#840000; fill-opacity:1.0; 
stroke:#840000; stroke-width:39.3701; stroke-opacity:1; 
stroke-linecap:round; stroke-linejoin:round;">
</g>
<g style="fill:#840000; fill-opacity:1.0; 
stroke:#840000; stroke-width:0; stroke-opacity:1; 
stroke-linecap:round; stroke-linejoin:round;">
<circle cx="70580.7" cy="47204.7" r="984.252" /> 
</g>
<g style="fill:#840000; fill-opacity:1.0; 
stroke:#840000; stroke-width:39.3701; stroke-opacity:1; 
stroke-linecap:round; stroke-linejoin:round;">
</g>
<g style="fill:#840000; fill-opacity:1.0; 
stroke:#840000; stroke-width:0; stroke-opacity:1; 
stroke-linecap:round; stroke-linejoin:round;">
<circle cx="70580.7" cy="36454.7" r="984.252" /> 
</g>
<g style="fill:#840000; fill-opacity:1.0; 
stroke:#840000; stroke-width:39.3701; stroke-opacity:1; 
stroke-linecap:round; stroke-linejoin:round;">
</g>
<g style="fill:#840000; fill-opacity:1.0; 
stroke:#840000; stroke-width:0; stroke-opacity:1; 
stroke-linecap:round; stroke-linejoin:round;">
<polyline style="fill-rule:evenodd;"
points="63503,43659
63996,43659
63996,44053
63503,44053
63503,43659
" /> 
<polyline style="fill-rule:evenodd;"
points="63503,44446
63996,44446
63996,44840
63503,44840
63503,44446
" /> 
<polyline style="fill-rule:evenodd;"
points="64753,43659
65246,43659
65246,44053
64753,44053
64753,43659
" /> 
<polyline style="fill-rule:evenodd;"
points="64753,44446
65246,44446
65246,44840
64753,44840
64753,44446
" /> 
<polyline style="fill-rule:evenodd;"
points="63314,42787
62685,42787
62685,42393
63314,42393
63314,42787
" /> 
<polyline style="fill-rule:evenodd;"
points="63314,41606
62685,41606
62685,41212
63314,41212
63314,41606
" /> 
<polyline style="fill-rule:evenodd;"
points="65503,42159
65996,42159
65996,42553
65503,42553
65503,42159
" /> 
<polyline style="fill-rule:evenodd;"
points="65503,42946
65996,42946
65996,43340
65503,43340
65503,42946
" /> 
<circle cx="66500" cy="39600" r="295.5" /> 
</g>
<g style="fill:#840000; fill-opacity:1.0; 
stroke:#840000; stroke-width:39.3701; stroke-opacity:1; 
stroke-linecap:round; stroke-linejoin:round;">
</g>
<g style="fill:#840000; fill-opacity:1.0; 
stroke:#840000; stroke-width:0; stroke-opacity:1; 
stroke-linecap:round; stroke-linejoin:round;">
<circle cx="66500" cy="40600" r="295.5" /> 
</g>
<g style="fill:#840000; fill-opacity:1.0; 
stroke:#840000; stroke-width:39.3701; stroke-opacity:1; 
stroke-linecap:round; stroke-linejoin:round;">
</g>
<g style="fill:#840000; fill-opacity:1.0; 
stroke:#840000; stroke-width:0; stroke-opacity:1; 
stroke-linecap:round; stroke-linejoin:round;">
<circle cx="66500" cy="41400" r="295.5" /> 
</g>
<g style="fill:#840000; fill-opacity:1.0; 
stroke:#840000; stroke-width:39.3701; stroke-opacity:1; 
stroke-linecap:round; stroke-linejoin:round;">
</g>
<g style="fill:#840000; fill-opacity:1.0; 
stroke:#840000; stroke-width:0; stroke-opacity:1; 
stroke-linecap:round; stroke-linejoin:round;">
<circle cx="66500" cy="42400" r="295.5" /> 
</g>
<g style="fill:#840000; fill-opacity:1.0; 
stroke:#840000; stroke-width:39.3701; stroke-opacity:1; 
stroke-linecap:round; stroke-linejoin:round;">
</g>
<g style="fill:#840000; fill-opacity:1.0; 
stroke:#840000; stroke-width:0; stroke-opacity:1; 
stroke-linecap:round; stroke-linejoin:round;">
<circle cx="67550" cy="38400" r="590.5" /> 
</g>
<g style="fill:#840000; fill-opacity:1.0; 
stroke:#840000; stroke-width:39.3701; stroke-opacity:1; 
stroke-linecap:round; stroke-linejoin:round;">
</g>
<g style="fill:#840000; fill-opacity:1.0; 
stroke:#840000; stroke-width:0; stroke-opacity:1; 
stroke-linecap:round; stroke-linejoin:round;">
<circle cx="67550" cy="43800" r="590.5" /> 
</g>
<g style="fill:#840000; fill-opacity:1.0; 
stroke:#840000; stroke-width:39.3701; stroke-opacity:1; 
stroke-linecap:round; stroke-linejoin:round;">
</g>
<g style="fill:#840000; fill-opacity:1.0; 
stroke:#840000; stroke-width:0; stroke-opacity:1; 
stroke-linecap:round; stroke-linejoin:round;">
<polyline style="fill-rule:evenodd;"
points="64273,41169
64273,39830
64659,39830
64659,41169
64273,41169
" /> 
<polyline style="fill-rule:evenodd;"
points="65273,41169
65273,39830
65659,39830
65659,41169
65273,41169
" /> 
<polyline style="fill-rule:evenodd;"
points="64893,39072
64893,39427
64696,39427
64696,39072
64893,39072
" /> 
<polyline style="fill-rule:evenodd;"
points="64303,39072
64303,39427
64106,39427
64106,39072
64303,39072
" /> 
</g>
<g style="fill:#840000; fill-opacity:1.0; 
stroke:#840000; stroke-width:118.11; stroke-opacity:1; 
stroke-linecap:round; stroke-linejoin:round;">
</g>
<g style="fill:#840000; fill-opacity:0.0; 
stroke:#840000; stroke-width:118.11; stroke-opacity:1; 
stroke-linecap:round; stroke-linejoin:round;">
<path d="M64795 41580
L64795 41757
" />
<path d="M64598 41580
L64598 41757
" />
<path d="M64401 41580
L64401 41757
" />
<path d="M64204 41580
L64204 41757
" />
<path d="M63830 41954
L64007 41954
" />
<path d="M63830 42151
L64007 42151
" />
<path d="M63830 42348
L64007 42348
" />
<path d="M63830 42545
L64007 42545
" />
<path d="M64204 42742
L64204 42919
" />
<path d="M64401 42742
L64401 42919
" />
<path d="M64598 42742
L64598 42919
" />
<path d="M64795 42742
L64795 42919
" />
<path d="M64992 42545
L65169 42545
" />
<path d="M64992 42348
L65169 42348
" />
<path d="M64992 42151
L65169 42151
" />
<path d="M64992 41954
L65169 41954
" />
</g>
<g style="fill:#840000; fill-opacity:0.0; 
stroke:#840000; stroke-width:0; stroke-opacity:1; 
stroke-linecap:round; stroke-linejoin:round;">
</g>
<g style="fill:#840000; fill-opacity:1.0; 
stroke:#840000; stroke-width:0; stroke-opacity:1; 
stroke-linecap:round; stroke-linejoin:round;">
<polyline style="fill-rule:evenodd;"
points="64145,42250
64500,42250
64500,42604
64145,42604
64145,42250
" /> 
<polyline style="fill-rule:evenodd;"
points="64500,42250
64854,42250
64854,42604
64500,42604
64500,42250
" /> 
<polyline style="fill-rule:evenodd;"
points="64145,41895
64500,41895
64500,42250
64145,42250
64145,41895
" /> 
<polyline style="fill-rule:evenodd;"
points="64500,41895
64854,41895
64854,42250
64500,42250
64500,41895
" /> 
<circle cx="60330.7" cy="39454.7" r="800" /> 
</g>
<g style="fill:#840000; fill-opacity:1.0; 
stroke:#840000; stroke-width:39.3701; stroke-opacity:1; 
stroke-linecap:round; stroke-linejoin:round;">
</g>
<g style="fill:#840000; fill-opacity:1.0; 
stroke:#840000; stroke-width:0; stroke-opacity:1; 
stroke-linecap:round; stroke-linejoin:round;">
<circle cx="60250" cy="43750" r="800" /> 
</g>
<g style="fill:#840000; fill-opacity:1.0; 
stroke:#840000; stroke-width:39.3701; stroke-opacity:1; 
stroke-linecap:round; stroke-linejoin:round;">
</g>
<g style="fill:#840000; fill-opacity:1.0; 
stroke:#840000; stroke-width:0; stroke-opacity:1; 
stroke-linecap:round; stroke-linejoin:round;">
<circle cx="60330.7" cy="36454.7" r="984.252" /> 
</g>
<g style="fill:#840000; fill-opacity:1.0; 
stroke:#840000; stroke-width:39.3701; stroke-opacity:1; 
stroke-linecap:round; stroke-linejoin:round;">
</g>
<g style="fill:#C2C2C2; fill-opacity:1.0; 
stroke:#C2C2C2; stroke-width:39.3701; stroke-opacity:1; 
stroke-linecap:round; stroke-linejoin:round;">
</g>
<g style="fill:#C2C2C2; fill-opacity:1.0; 
stroke:#C2C2C2; stroke-width:0; stroke-opacity:1; 
stroke-linecap:round; stroke-linejoin:round;">
<circle cx="64677.2" cy="42427.2" r="118.11" /> 
</g>
<g style="fill:#C2C2C2; fill-opacity:1.0; 
stroke:#C2C2C2; stroke-width:39.3701; stroke-opacity:1; 
stroke-linecap:round; stroke-linejoin:round;">
</g>
<g style="fill:#C2C2C2; fill-opacity:1.0; 
stroke:#C2C2C2; stroke-width:0; stroke-opacity:1; 
stroke-linecap:round; stroke-linejoin:round;">
<circle cx="64322.8" cy="42427.2" r="118.11" /> 
</g>
<g style="fill:#C2C2C2; fill-opacity:1.0; 
stroke:#C2C2C2; stroke-width:39.3701; stroke-opacity:1; 
stroke-linecap:round; stroke-linejoin:round;">
</g>
<g style="fill:#C2C2C2; fill-opacity:1.0; 
stroke:#C2C2C2; stroke-width:0; stroke-opacity:1; 
stroke-linecap:round; stroke-linejoin:round;">
<circle cx="64322.8" cy="42072.8" r="118.11" /> 
</g>
<g style="fill:#C2C2C2; fill-opacity:1.0; 
stroke:#C2C2C2; stroke-width:39.3701; stroke-opacity:1; 
stroke-linecap:round; stroke-linejoin:round;">
</g>
<g style="fill:#C2C2C2; fill-opacity:1.0; 
stroke:#C2C2C2; stroke-width:0; stroke-opacity:1; 
stroke-linecap:round; stroke-linejoin:round;">
<circle cx="64677.2" cy="42072.8" r="118.11" /> 
</g>
<g style="fill:#C2C2C2; fill-opacity:1.0; 
stroke:#C2C2C2; stroke-width:39.3701; stroke-opacity:1; 
stroke-linecap:round; stroke-linejoin:round;">
</g>
<g style="fill:#840000; fill-opacity:1.0; 
stroke:#840000; stroke-width:39.3701; stroke-opacity:1; 
stroke-linecap:round; stroke-linejoin:round;">
</g>
<g style="fill:#840000; fill-opacity:1.0; 
stroke:#840000; stroke-width:98.4252; stroke-opacity:1; 
stroke-linecap:round; stroke-linejoin:round;">
</g>
<g style="fill:#840000; fill-opacity:0.0; 
stroke:#840000; stroke-width:98.4252; stroke-opacity:1; 
stroke-linecap:round; stroke-linejoin:round;">
<path d="M64204 41954
L64322 42072
" />
<path d="M63000 41409
L63374 41409
" />
<path d="M63374 41409
L63919 41954
" />
</g>
<g style="fill:#840000; fill-opacity:0.0; 
stroke:#840000; stroke-width:250; stroke-opacity:1; 
stroke-linecap:round; stroke-linejoin:round;">
<path d="M65750 43143
L65750 44704
" />
<path d="M63750 44643
L65000 44643
" />
<path d="M65000 44643
L65061 44704
" />
<path d="M65061 44704
L65750 44704
" />
<path d="M65750 44704
L66645 44704
" />
<path d="M66645 44704
L67550 43800
" />
</g>
<g style="fill:#840000; fill-opacity:0.0; 
stroke:#840000; stroke-width:98.4252; stroke-opacity:1; 
stroke-linecap:round; stroke-linejoin:round;">
<path d="M63919 41954
L64204 41954
" />
<path d="M65080 42151
L64755 42151
" />
<path d="M64755 42151
L64677 42072
" />
<path d="M65080 41954
L64795 41954
" />
<path d="M64795 41954
L64677 42072
" />
<path d="M63919 42545
L64204 42545
" />
<path d="M64204 42545
L64322 42427
" />
<path d="M63919 42348
L64244 42348
" />
<path d="M64244 42348
L64322 42427
" />
<path d="M64204 42830
L63240 42830
" />
<path d="M63240 42830
L63000 42590
" />
<path d="M65080 42348
L65742 42348
" />
<path d="M65742 42348
L65750 42356
" />
</g>
<g style="fill:#840000; fill-opacity:0.0; 
stroke:#840000; stroke-width:250; stroke-opacity:1; 
stroke-linecap:round; stroke-linejoin:round;">
<path d="M64795 39250
L65466 39921
" />
<path d="M65466 39921
L65466 40500
" />
<path d="M65466 40500
L65750 40783
" />
<path d="M65750 40783
L65750 42356
" />
<path d="M65750 42356
L66456 42356
" />
<path d="M66456 42356
L66500 42400
" />
</g>
<g style="fill:#840000; fill-opacity:0.0; 
stroke:#840000; stroke-width:98.4252; stroke-opacity:1; 
stroke-linecap:round; stroke-linejoin:round;">
<path d="M64795 41669
L64401 41669
" />
<path d="M64401 41669
L64482 41750
" />
<path d="M64482 41750
L64750 41750
" />
<path d="M64750 41750
L64795 41669
" />
<path d="M64795 41669
L64466 41340
" />
<path d="M64466 41340
L64466 40500
" />
<path d="M64401 41669
L64419 41669
" />
<path d="M64419 41669
L64466 41622
" />
<path d="M64466 41622
L64466 40500
" />
</g>
<g style="fill:#840000; fill-opacity:0.0; 
stroke:#840000; stroke-width:250; stroke-opacity:1; 
stroke-linecap:round; stroke-linejoin:round;">
<path d="M64598 41669
L64598 40631
" />
<path d="M64598 40631
L64466 40500
" />
</g>
<g style="fill:#840000; fill-opacity:0.0; 
stroke:#840000; stroke-width:98.4252; stroke-opacity:1; 
stroke-linecap:round; stroke-linejoin:round;">
<path d="M64204 41669
L64204 41454
" />
<path d="M64000 39454
L64204 39250
" />
<path d="M64000 41250
L64000 39454
" />
<path d="M64204 41454
L64000 41250
" />
<path d="M64401 42830
L64598 42830
" />
<path d="M65080 42545
L65080 42954
" />
<path d="M65080 42954
L65000 43035
" />
<path d="M64401 42830
L64750 43179
" />
</g>
<g style="fill:#840000; fill-opacity:0.0; 
stroke:#840000; stroke-width:250; stroke-opacity:1; 
stroke-linecap:round; stroke-linejoin:round;">
<path d="M64598 42830
L64750 42982
" />
<path d="M64750 42982
L64750 43179
" />
<path d="M64750 43179
L64750 43250
" />
<path d="M64795 42830
L65000 43035
" />
<path d="M65000 43035
L65000 43250
" />
<path d="M65000 43856
L65000 43250
" />
<path d="M64750 43250
L63750 43250
" />
<path d="M65000 43250
L64750 43250
" />
<path d="M63750 43856
L63750 43250
" />
<path d="M60250 43750
L60750 43250
" />
<path d="M60750 43250
L63750 43250
" />
</g>
<g style="fill:#840000; fill-opacity:1.0; 
stroke:#840000; stroke-width:100; stroke-opacity:1; 
stroke-linecap:round; stroke-linejoin:round;">
<polyline style="fill-rule:evenodd;"
points="69882,35407
69534,35754
69346,36208
69346,36699
69533,37152
69880,37500
70334,37688
70825,37689
71278,37501
71626,37154
71780,36783
71780,46876
71627,46506
71280,46158
70827,45970
70336,45970
69882,46157
69534,46504
69346,46958
69346,47449
69533,47902
69880,48250
70252,48404
60658,48404
61028,48251
61376,47904
61564,47451
61565,46960
61377,46506
61030,46158
60577,45970
60086,45970
59632,46157
59284,46504
59130,46876
59130,43957
59199,43957
59359,44344
59654,44639
60040,44799
60457,44800
60564,44756
63253,44756
63253,44890
63291,44982
63362,45052
63454,45090
63637,45090
63700,45028
63700,44693
63800,44693
63800,45028
63862,45090
64045,45090
64137,45052
64208,44982
64246,44890
64246,44756
64503,44756
64503,44890
64541,44982
64612,45052
64704,45090
64887,45090
64950,45028
64950,44693
65050,44693
65050,45028
65112,45090
65295,45090
65387,45052
65458,44982
65496,44890
65496,44756
65433,44693
65050,44693
64950,44693
64566,44693
64503,44756
64246,44756
64183,44693
63800,44693
63700,44693
63316,44693
63253,44756
60564,44756
60844,44640
61139,44345
61299,43959
61300,43625
63256,43625
63249,43659
63249,44053
63266,44145
63321,44230
63348,44249
63291,44305
63253,44397
63253,44531
63316,44593
63700,44593
63700,44585
63800,44585
63800,44593
64183,44593
64246,44531
64246,44397
64208,44305
64152,44249
64173,44235
64230,44152
64250,44053
64250,43659
64244,43625
64506,43625
64499,43659
64499,44053
64516,44145
64571,44230
64598,44249
64541,44305
64503,44397
64503,44531
64566,44593
64950,44593
64950,44585
65050,44585
65050,44593
65433,44593
65496,44531
65496,44397
65495,44396
67024,44396
67087,44521
67398,44643
67733,44637
68012,44521
68075,44396
67550,43870
67024,44396
65495,44396
65458,44305
65402,44249
65423,44235
65480,44152
65500,44053
65500,43659
65498,43648
66706,43648
66712,43983
66828,44262
66953,44325
67479,43800
67620,43800
68146,44325
68271,44262
68393,43951
68387,43616
68271,43337
68146,43274
67620,43800
67479,43800
66953,43274
66828,43337
66706,43648
65498,43648
65487,43590
65637,43590
65700,43528
65700,43193
65800,43193
65800,43528
65862,43590
66045,43590
66137,43552
66208,43482
66246,43390
66246,43256
66193,43203
67024,43203
67550,43729
68075,43203
68012,43078
67701,42956
67366,42962
67087,43078
67024,43203
66193,43203
66183,43193
65800,43193
65700,43193
65692,43193
65692,43093
65700,43093
65700,43085
65800,43085
65800,43093
66183,43093
66246,43031
66246,42897
66240,42882
66391,42945
66608,42945
66808,42862
66962,42709
67045,42508
67045,42291
66962,42091
66809,41937
66718,41900
66808,41862
66962,41709
67045,41508
67045,41291
66962,41091
66871,40999
66962,40909
67045,40708
67045,40491
66962,40291
66809,40137
66724,40102
66785,40077
66811,39982
66500,39670
66188,39982
66214,40077
66279,40100
66191,40137
66037,40290
65964,40467
65914,40417
65914,39830
65896,39738
65842,39652
65758,39595
65659,39575
65651,39575
65594,39519
65949,39519
65960,39736
66022,39885
66117,39911
66429,39600
66570,39600
66882,39911
66977,39885
67050,39680
67039,39463
66977,39314
66882,39288
66570,39600
66429,39600
66117,39288
66022,39314
65949,39519
65594,39519
65292,39217
66188,39217
66500,39529
66811,39217
66785,39122
66580,39049
66363,39060
66214,39122
66188,39217
65292,39217
65148,39072
65148,39072
65134,38996
67024,38996
67087,39121
67398,39243
67733,39237
68012,39121
68075,38996
67550,38470
67024,38996
65134,38996
65131,38980
65076,38895
64992,38838
64893,38817
64696,38817
64604,38835
64519,38890
64500,38917
64485,38895
64402,38838
64303,38817
64106,38817
64013,38835
63928,38890
63871,38973
63851,39072
63851,39180
63788,39243
63723,39340
63700,39454
63700,41250
63723,41364
63788,41461
63896,41569
63895,41572
63895,41645
63869,41645
63869,41705
63819,41640
63700,41668
63600,41740
63536,41844
63531,41877
63585,41925
63616,41925
63604,41933
63547,42017
63531,42032
63534,42050
63513,42151
63534,42253
63531,42268
63497,42215
63414,42158
63314,42138
62685,42138
62592,42156
62507,42210
62450,42294
62430,42393
62430,42787
62446,42875
60860,42875
60845,42860
60459,42700
60042,42699
59655,42859
59360,43154
59200,43540
59199,43957
59130,43957
59130,41521
62435,41521
62435,41656
62473,41747
62543,41818
62635,41856
62887,41856
62950,41793
62950,41459
63050,41459
63050,41793
63112,41856
63364,41856
63456,41818
63526,41747
63564,41656
63564,41521
63502,41459
63050,41459
62950,41459
62497,41459
62435,41521
59130,41521
59130,41162
62435,41162
62435,41296
62497,41359
62950,41359
62950,41025
63050,41025
63050,41359
63502,41359
63564,41296
63564,41162
63526,41070
63456,41000
63364,40962
63112,40962
63050,41025
62950,41025
62887,40962
62635,40962
62543,41000
62473,41070
62435,41162
59130,41162
59130,40202
59654,40202
59742,40349
60129,40506
60547,40503
60918,40349
61007,40202
60330,39525
59654,40202
59130,40202
59130,39253
59279,39253
59282,39671
59436,40042
59583,40131
60259,39454
60401,39454
61078,40131
61225,40042
61382,39655
61379,39238
61225,38866
61078,38778
60401,39454
60259,39454
59583,38778
59436,38866
59279,39253
59130,39253
59130,38707
59654,38707
60330,39384
61007,38707
60918,38560
60531,38403
60114,38406
59742,38560
59654,38707
59130,38707
59130,38248
66706,38248
66712,38583
66828,38862
66953,38925
67479,38400
67620,38400
68146,38925
68271,38862
68393,38551
68387,38216
68271,37937
68146,37874
67620,38400
67479,38400
66953,37874
66828,37937
66706,38248
59130,38248
59130,37803
67024,37803
67550,38329
68075,37803
68012,37678
67701,37556
67366,37562
67087,37678
67024,37803
59130,37803
59130,36782
59283,37152
59630,37500
60084,37688
60575,37689
61028,37501
61376,37154
61564,36701
61565,36210
61377,35756
61030,35408
60659,35254
70252,35254
69882,35407
" /> 
</g>
<g style="fill:#FFFFFF; fill-opacity:1.0; 
stroke:#FFFFFF; stroke-width:100; stroke-opacity:1; 
stroke-linecap:round; stroke-linejoin:round;">
</g>
<g style="fill:#FFFFFF; fill-opacity:1.0; 
stroke:#FFFFFF; stroke-width:0; stroke-opacity:1; 
stroke-linecap:round; stroke-linejoin:round;">
<circle cx="64677.2" cy="42427.2" r="78.7402" /> 
</g>
<g style="fill:#FFFFFF; fill-opacity:1.0; 
stroke:#FFFFFF; stroke-width:39.3701; stroke-opacity:1; 
stroke-linecap:round; stroke-linejoin:round;">
</g>
<g style="fill:#FFFFFF; fill-opacity:1.0; 
stroke:#FFFFFF; stroke-width:0; stroke-opacity:1; 
stroke-linecap:round; stroke-linejoin:round;">
<circle cx="64322.8" cy="42427.2" r="78.7402" /> 
</g>
<g style="fill:#FFFFFF; fill-opacity:1.0; 
stroke:#FFFFFF; stroke-width:39.3701; stroke-opacity:1; 
stroke-linecap:round; stroke-linejoin:round;">
</g>
<g style="fill:#FFFFFF; fill-opacity:1.0; 
stroke:#FFFFFF; stroke-width:0; stroke-opacity:1; 
stroke-linecap:round; stroke-linejoin:round;">
<circle cx="64322.8" cy="42072.8" r="78.7402" /> 
</g>
<g style="fill:#FFFFFF; fill-opacity:1.0; 
stroke:#FFFFFF; stroke-width:39.3701; stroke-opacity:1; 
stroke-linecap:round; stroke-linejoin:round;">
</g>
<g style="fill:#FFFFFF; fill-opacity:1.0; 
stroke:#FFFFFF; stroke-width:0; stroke-opacity:1; 
stroke-linecap:round; stroke-linejoin:round;">
<circle cx="64677.2" cy="42072.8" r="78.7402" /> 
</g>
<g style="fill:#FFFFFF; fill-opacity:1.0; 
stroke:#FFFFFF; stroke-width:39.3701; stroke-opacity:1; 
stroke-linecap:round; stroke-linejoin:round;">
</g>
<g style="fill:#FFFFFF; fill-opacity:1.0; 
stroke:#FFFFFF; stroke-width:0; stroke-opacity:1; 
stroke-linecap:round; stroke-linejoin:round;">
<circle cx="60330.7" cy="47204.7" r="590.551" /> 
</g>
<g style="fill:#FFFFFF; fill-opacity:1.0; 
stroke:#FFFFFF; stroke-width:39.3701; stroke-opacity:1; 
stroke-linecap:round; stroke-linejoin:round;">
</g>
<g style="fill:#FFFFFF; fill-opacity:1.0; 
stroke:#FFFFFF; stroke-width:0; stroke-opacity:1; 
stroke-linecap:round; stroke-linejoin:round;">
<circle cx="70580.7" cy="47204.7" r="590.551" /> 
</g>
<g style="fill:#FFFFFF; fill-opacity:1.0; 
stroke:#FFFFFF; stroke-width:39.3701; stroke-opacity:1; 
stroke-linecap:round; stroke-linejoin:round;">
</g>
<g style="fill:#FFFFFF; fill-opacity:1.0; 
stroke:#FFFFFF; stroke-width:0; stroke-opacity:1; 
stroke-linecap:round; stroke-linejoin:round;">
<circle cx="70580.7" cy="36454.7" r="590.551" /> 
</g>
<g style="fill:#FFFFFF; fill-opacity:1.0; 
stroke:#FFFFFF; stroke-width:39.3701; stroke-opacity:1; 
stroke-linecap:round; stroke-linejoin:round;">
</g>
<g style="fill:#FFFFFF; fill-opacity:1.0; 
stroke:#FFFFFF; stroke-width:0; stroke-opacity:1; 
stroke-linecap:round; stroke-linejoin:round;">
<circle cx="66500" cy="39600" r="197" /> 
</g>
<g style="fill:#FFFFFF; fill-opacity:1.0; 
stroke:#FFFFFF; stroke-width:39.3701; stroke-opacity:1; 
stroke-linecap:round; stroke-linejoin:round;">
</g>
<g style="fill:#FFFFFF; fill-opacity:1.0; 
stroke:#FFFFFF; stroke-width:0; stroke-opacity:1; 
stroke-linecap:round; stroke-linejoin:round;">
<circle cx="66500" cy="40600" r="197" /> 
</g>
<g style="fill:#FFFFFF; fill-opacity:1.0; 
stroke:#FFFFFF; stroke-width:39.3701; stroke-opacity:1; 
stroke-linecap:round; stroke-linejoin:round;">
</g>
<g style="fill:#FFFFFF; fill-opacity:1.0; 
stroke:#FFFFFF; stroke-width:0; stroke-opacity:1; 
stroke-linecap:round; stroke-linejoin:round;">
<circle cx="66500" cy="41400" r="197" /> 
</g>
<g style="fill:#FFFFFF; fill-opacity:1.0; 
stroke:#FFFFFF; stroke-width:39.3701; stroke-opacity:1; 
stroke-linecap:round; stroke-linejoin:round;">
</g>
<g style="fill:#FFFFFF; fill-opacity:1.0; 
stroke:#FFFFFF; stroke-width:0; stroke-opacity:1; 
stroke-linecap:round; stroke-linejoin:round;">
<circle cx="66500" cy="42400" r="197" /> 
</g>
<g style="fill:#FFFFFF; fill-opacity:1.0; 
stroke:#FFFFFF; stroke-width:39.3701; stroke-opacity:1; 
stroke-linecap:round; stroke-linejoin:round;">
</g>
<g style="fill:#FFFFFF; fill-opacity:1.0; 
stroke:#FFFFFF; stroke-width:0; stroke-opacity:1; 
stroke-linecap:round; stroke-linejoin:round;">
<circle cx="67550" cy="38400" r="453" /> 
</g>
<g style="fill:#FFFFFF; fill-opacity:1.0; 
stroke:#FFFFFF; stroke-width:39.3701; stroke-opacity:1; 
stroke-linecap:round; stroke-linejoin:round;">
</g>
<g style="fill:#FFFFFF; fill-opacity:1.0; 
stroke:#FFFFFF; stroke-width:0; stroke-opacity:1; 
stroke-linecap:round; stroke-linejoin:round;">
<circle cx="67550" cy="43800" r="453" /> 
</g>
<g style="fill:#FFFFFF; fill-opacity:1.0; 
stroke:#FFFFFF; stroke-width:39.3701; stroke-opacity:1; 
stroke-linecap:round; stroke-linejoin:round;">
</g>
<g style="fill:#FFFFFF; fill-opacity:1.0; 
stroke:#FFFFFF; stroke-width:0; stroke-opacity:1; 
stroke-linecap:round; stroke-linejoin:round;">
<circle cx="60330.7" cy="39454.7" r="600" /> 
</g>
<g style="fill:#FFFFFF; fill-opacity:1.0; 
stroke:#FFFFFF; stroke-width:39.3701; stroke-opacity:1; 
stroke-linecap:round; stroke-linejoin:round;">
</g>
<g style="fill:#FFFFFF; fill-opacity:1.0; 
stroke:#FFFFFF; stroke-width:0; stroke-opacity:1; 
stroke-linecap:round; stroke-linejoin:round;">
<circle cx="60250" cy="43750" r="600" /> 
</g>
<g style="fill:#FFFFFF; fill-opacity:1.0; 
stroke:#FFFFFF; stroke-width:39.3701; stroke-opacity:1; 
stroke-linecap:round; stroke-linejoin:round;">
</g>
<g style="fill:#FFFFFF; fill-opacity:1.0; 
stroke:#FFFFFF; stroke-width:0; stroke-opacity:1; 
stroke-linecap:round; stroke-linejoin:round;">
<circle cx="60330.7" cy="36454.7" r="590.551" /> 
</g>
<g style="fill:#FFFFFF; fill-opacity:1.0; 
stroke:#FFFFFF; stroke-width:39.3701; stroke-opacity:1; 
stroke-linecap:round; stroke-linejoin:round;">
</g>
<g style="fill:#000000; fill-opacity:1.0; 
stroke:#000000; stroke-width:39.3701; stroke-opacity:1; 
stroke-linecap:round; stroke-linejoin:round;">
</g>
<g style="fill:#008484; fill-opacity:1.0; 
stroke:#008484; stroke-width:39.3701; stroke-opacity:1; 
stroke-linecap:round; stroke-linejoin:round;">
</g>
<g style="fill:#008484; fill-opacity:0.0; 
stroke:#008484; stroke-width:59.0551; stroke-opacity:1; 
stroke-linecap:round; stroke-linejoin:round;">
<circle cx="60330.7" cy="47204.7" r="900" /> 
<circle cx="70580.7" cy="47204.7" r="900" /> 
<circle cx="70580.7" cy="36454.7" r="900" /> 
<path d="M64084 44446
L64084 44053
" />
<path d="M63415 44053
L63415 44446
" />
<path d="M65334 44446
L65334 44053
" />
<path d="M64665 44053
L64665 44446
" />
<path d="M62596 41606
L62596 42393
" />
<path d="M63403 42393
L63403 41606
" />
<path d="M66084 42946
L66084 42553
" />
<path d="M65415 42553
L65415 42946
" />
<path d="M66050 38050
L71600 38050
" />
<path d="M71600 43950
L66050 43950
" />
<path d="M66050 38050
L66050 43950
" />
<path d="M71600 38050
L71600 43950
" />
<path d="M64212 41287
L64212 39712
" />
<path d="M64212 41287
L65787 41287
" />
<path d="M65787 41287
L65787 39712
" />
<path d="M65787 39712
L64212 39712
" />
<path d="M64303 38984
L64696 38984
" />
<path d="M64696 39515
L64303 39515
" />
<path d="M65139 42889
L64942 42889
" />
<path d="M63860 41610
L64057 41610
" />
<path d="M63860 42889
L64057 42889
" />
<path d="M65139 41610
L65139 41807
" />
<path d="M63860 41610
L63860 41807
" />
<path d="M63860 42889
L63860 42692
" />
<path d="M65139 42889
L65139 42692
" />
<circle cx="60330.7" cy="39454.7" r="900" /> 
<circle cx="60250" cy="43750" r="900" /> 
<circle cx="60330.7" cy="36454.7" r="900" /> 
</g>
<g style="fill:#C2C200; fill-opacity:0.0; 
stroke:#C2C200; stroke-width:59.0551; stroke-opacity:1; 
stroke-linecap:round; stroke-linejoin:round;">
<path d="M59805 46182
L59674 45995
" />
<path d="M59580 46182
L59580 45789
L59730 45789
L59768 45807
L59787 45826
L59805 45864
L59805 45920
L59787 45957
L59768 45976
L59730 45995
L59580 45995
" />
<path d="M59974 45976
L60105 45976
" />
<path d="M60161 46182
L59974 46182
L59974 45789
L60161 45789
" />
<path d="M60461 45976
L60330 45976
" />
<path d="M60330 46182
L60330 45789
L60518 45789
" />
<path d="M60724 45789
L60724 45882
" />
<path d="M60630 45845
L60724 45882
L60818 45845
" />
<path d="M60668 45957
L60724 45882
L60780 45957
" />
<path d="M61024 45789
L61024 45882
" />
<path d="M60930 45845
L61024 45882
L61118 45845
" />
<path d="M60968 45957
L61024 45882
L61080 45957
" />
<path d="M70055 46182
L69924 45995
" />
<path d="M69830 46182
L69830 45789
L69980 45789
L70018 45807
L70037 45826
L70055 45864
L70055 45920
L70037 45957
L70018 45976
L69980 45995
L69830 45995
" />
<path d="M70224 45976
L70355 45976
" />
<path d="M70411 46182
L70224 46182
L70224 45789
L70411 45789
" />
<path d="M70711 45976
L70580 45976
" />
<path d="M70580 46182
L70580 45789
L70768 45789
" />
<path d="M70974 45789
L70974 45882
" />
<path d="M70880 45845
L70974 45882
L71068 45845
" />
<path d="M70918 45957
L70974 45882
L71030 45957
" />
<path d="M71274 45789
L71274 45882
" />
<path d="M71180 45845
L71274 45882
L71368 45845
" />
<path d="M71218 45957
L71274 45882
L71330 45957
" />
<path d="M70055 35432
L69924 35245
" />
<path d="M69830 35432
L69830 35039
L69980 35039
L70018 35057
L70037 35076
L70055 35114
L70055 35170
L70037 35207
L70018 35226
L69980 35245
L69830 35245
" />
<path d="M70224 35226
L70355 35226
" />
<path d="M70411 35432
L70224 35432
L70224 35039
L70411 35039
" />
<path d="M70711 35226
L70580 35226
" />
<path d="M70580 35432
L70580 35039
L70768 35039
" />
<path d="M70974 35039
L70974 35132
" />
<path d="M70880 35095
L70974 35132
L71068 35095
" />
<path d="M70918 35207
L70974 35132
L71030 35207
" />
<path d="M71274 35039
L71274 35132
" />
<path d="M71180 35095
L71274 35132
L71368 35095
" />
<path d="M71218 35207
L71274 35132
L71330 35207
" />
<path d="M63140 44315
L63159 44334
L63178 44390
L63178 44428
L63159 44484
L63121 44521
L63084 44540
L63009 44559
L62953 44559
L62878 44540
L62840 44521
L62803 44484
L62784 44428
L62784 44390
L62803 44334
L62821 44315
" />
<path d="M63178 43940
L63178 44165
" />
<path d="M63178 44053
L62784 44053
L62840 44090
L62878 44128
L62896 44165
" />
<path d="M65967 44315
L65986 44334
L66004 44390
L66004 44428
L65986 44484
L65948 44521
L65911 44540
L65836 44559
L65779 44559
L65704 44540
L65667 44521
L65629 44484
L65611 44428
L65611 44390
L65629 44334
L65648 44315
" />
<path d="M65648 44165
L65629 44146
L65611 44109
L65611 44015
L65629 43978
L65648 43959
L65686 43940
L65723 43940
L65779 43959
L66004 44184
L66004 43940
" />
<path d="M62235 42065
L62253 42084
L62272 42140
L62272 42178
L62253 42234
L62216 42271
L62178 42290
L62103 42309
L62047 42309
L61972 42290
L61935 42271
L61897 42234
L61878 42178
L61878 42140
L61897 42084
L61916 42065
" />
<path d="M61878 41934
L61878 41690
L62028 41821
L62028 41765
L62047 41728
L62066 41709
L62103 41690
L62197 41690
L62235 41709
L62253 41728
L62272 41765
L62272 41878
L62253 41915
L62235 41934
" />
<path d="M66721 43520
L66740 43539
L66758 43595
L66758 43632
L66740 43689
L66702 43726
L66665 43745
L66590 43764
L66533 43764
L66458 43745
L66421 43726
L66383 43689
L66365 43632
L66365 43595
L66383 43539
L66402 43520
" />
<path d="M66496 43182
L66758 43182
" />
<path d="M66346 43276
L66627 43370
L66627 43126
" />
<path d="M69368 41784
L69368 42065
L69350 42121
L69312 42159
L69256 42178
L69218 42178
" />
<path d="M69762 42178
L69537 42178
" />
<path d="M69649 42178
L69649 41784
L69612 41840
L69574 41878
L69537 41896
" />
<path d="M65515 39382
L65327 39382
L65327 38989
" />
<path d="M65852 39382
L65627 39382
" />
<path d="M65740 39382
L65740 38989
L65702 39045
L65665 39082
L65627 39101
" />
<path d="M63515 39382
L63383 39195
" />
<path d="M63290 39382
L63290 38989
L63440 38989
L63477 39007
L63496 39026
L63515 39064
L63515 39120
L63496 39157
L63477 39176
L63440 39195
L63290 39195
" />
<path d="M63890 39382
L63665 39382
" />
<path d="M63777 39382
L63777 38989
L63740 39045
L63702 39082
L63665 39101
" />
<path d="M63280 40489
L63280 40807
L63299 40845
L63318 40864
L63355 40882
L63430 40882
L63468 40864
L63486 40845
L63505 40807
L63505 40489
" />
<path d="M63899 40882
L63674 40882
" />
<path d="M63786 40882
L63786 40489
L63749 40545
L63711 40582
L63674 40601
" />
<path d="M60040 38432
L60040 38039
L60190 38039
L60227 38057
L60246 38076
L60265 38114
L60265 38170
L60246 38207
L60227 38226
L60190 38245
L60040 38245
" />
<path d="M60640 38432
L60415 38432
" />
<path d="M60527 38432
L60527 38039
L60490 38095
L60452 38132
L60415 38151
" />
<path d="M59959 42728
L59959 42334
L60109 42334
L60146 42353
L60165 42371
L60184 42409
L60184 42465
L60165 42503
L60146 42521
L60109 42540
L59959 42540
" />
<path d="M60334 42371
L60353 42353
L60390 42334
L60484 42334
L60521 42353
L60540 42371
L60559 42409
L60559 42446
L60540 42503
L60315 42728
L60559 42728
" />
<path d="M59805 35432
L59674 35245
" />
<path d="M59580 35432
L59580 35039
L59730 35039
L59768 35057
L59787 35076
L59805 35114
L59805 35170
L59787 35207
L59768 35226
L59730 35245
L59580 35245
" />
<path d="M59974 35226
L60105 35226
" />
<path d="M60161 35432
L59974 35432
L59974 35039
L60161 35039
" />
<path d="M60461 35226
L60330 35226
" />
<path d="M60330 35432
L60330 35039
L60518 35039
" />
<path d="M60724 35039
L60724 35132
" />
<path d="M60630 35095
L60724 35132
L60818 35095
" />
<path d="M60668 35207
L60724 35132
L60780 35207
" />
<path d="M61024 35039
L61024 35132
" />
<path d="M60930 35095
L61024 35132
L61118 35095
" />
<path d="M60968 35207
L61024 35132
L61080 35207
" />
</g>
<g style="fill:#000000; fill-opacity:0.0; 
stroke:#000000; stroke-width:59.0551; stroke-opacity:1; 
stroke-linecap:round; stroke-linejoin:round;">
</g>
<g style="fill:#C2C200; fill-opacity:0.0; 
stroke:#C2C200; stroke-width:59.0551; stroke-opacity:1; 
stroke-linecap:round; stroke-linejoin:round;">
</g>
<g style="fill:#C2C200; fill-opacity:0.0; 
stroke:#C2C200; stroke-width:39.3701; stroke-opacity:1; 
stroke-linecap:round; stroke-linejoin:round;">
<path d="M58830 48704
L58830 34954
" />
<path d="M72080 48704
L58830 48704
" />
<path d="M72080 34954
L72080 48704
" />
<path d="M70830 34954
L72080 34954
" />
<path d="M58830 34954
L70830 34954
" />
</g> 
</svg>
