G04 #@! TF.FileFunction,Legend,Top*
%FSLAX46Y46*%
G04 Gerber Fmt 4.6, Leading zero omitted, Abs format (unit mm)*
G04 Created by KiCad (PCBNEW (2015-07-31 BZR 6030)-product) date Fri Sep 11 12:40:14 2015*
%MOMM*%
G01*
G04 APERTURE LIST*
%ADD10C,0.100000*%
%ADD11C,0.150000*%
G04 APERTURE END LIST*
D10*
D11*
X166827200Y-83007200D02*
G75*
G03X166827200Y-83007200I-2286000J0D01*
G01*
X98145600Y-107391200D02*
G75*
G03X98145600Y-107391200I-2286000J0D01*
G01*
X99632400Y-67216400D02*
X99632400Y-68216400D01*
X101332400Y-68216400D02*
X101332400Y-67216400D01*
X104083600Y-66741600D02*
X103383600Y-66741600D01*
X103383600Y-65541600D02*
X104083600Y-65541600D01*
X114968400Y-65772400D02*
X115968400Y-65772400D01*
X115968400Y-64072400D02*
X114968400Y-64072400D01*
X120353200Y-64858000D02*
X121353200Y-64858000D01*
X121353200Y-63158000D02*
X120353200Y-63158000D01*
X112618000Y-68062400D02*
X111918000Y-68062400D01*
X111918000Y-66862400D02*
X112618000Y-66862400D01*
X132851600Y-70758800D02*
X132851600Y-70058800D01*
X134051600Y-70058800D02*
X134051600Y-70758800D01*
X112172000Y-71840800D02*
X112872000Y-71840800D01*
X112872000Y-73040800D02*
X112172000Y-73040800D01*
X115912000Y-97274000D02*
X115912000Y-96274000D01*
X114212000Y-96274000D02*
X114212000Y-97274000D01*
X144106000Y-70248400D02*
X144106000Y-69248400D01*
X142406000Y-69248400D02*
X142406000Y-70248400D01*
X143195600Y-102926400D02*
X143195600Y-103626400D01*
X141995600Y-103626400D02*
X141995600Y-102926400D01*
X118049600Y-96525600D02*
X118049600Y-97225600D01*
X116849600Y-97225600D02*
X116849600Y-96525600D01*
X92511600Y-66292000D02*
X92511600Y-74992000D01*
X98916600Y-66292000D02*
X98916600Y-74992000D01*
X98916600Y-74992000D02*
X92511600Y-74992000D01*
X93741600Y-74992000D02*
X93741600Y-66292000D01*
X92511600Y-66292000D02*
X98916600Y-66292000D01*
X131665600Y-85306800D02*
X130665600Y-85306800D01*
X130665600Y-87006800D02*
X131665600Y-87006800D01*
X163979860Y-65681860D02*
X163979860Y-65483740D01*
X163979860Y-65483740D02*
X163781740Y-65483740D01*
X163781740Y-65681860D02*
X163781740Y-65483740D01*
X163979860Y-65681860D02*
X163781740Y-65681860D01*
X164579300Y-65133220D02*
X164579300Y-64785240D01*
X164579300Y-64785240D02*
X164330380Y-64785240D01*
X164330380Y-65133220D02*
X164330380Y-64785240D01*
X164579300Y-65133220D02*
X164330380Y-65133220D01*
X164579300Y-64785240D02*
X164579300Y-64683640D01*
X164579300Y-64683640D02*
X163382960Y-64683640D01*
X163382960Y-64785240D02*
X163382960Y-64683640D01*
X164579300Y-64785240D02*
X163382960Y-64785240D01*
X163332160Y-64785240D02*
X163332160Y-64683640D01*
X163332160Y-64683640D02*
X163182300Y-64683640D01*
X163182300Y-64785240D02*
X163182300Y-64683640D01*
X163332160Y-64785240D02*
X163182300Y-64785240D01*
X164579300Y-66481960D02*
X164579300Y-66380360D01*
X164579300Y-66380360D02*
X163382960Y-66380360D01*
X163382960Y-66481960D02*
X163382960Y-66380360D01*
X164579300Y-66481960D02*
X163382960Y-66481960D01*
X163332160Y-66481960D02*
X163332160Y-66380360D01*
X163332160Y-66380360D02*
X163182300Y-66380360D01*
X163182300Y-66481960D02*
X163182300Y-66380360D01*
X163332160Y-66481960D02*
X163182300Y-66481960D01*
X164579300Y-65133220D02*
X164579300Y-64983360D01*
X164579300Y-64983360D02*
X164330380Y-64983360D01*
X164330380Y-65133220D02*
X164330380Y-64983360D01*
X164579300Y-65133220D02*
X164330380Y-65133220D01*
X164630100Y-64033400D02*
X164630100Y-67132200D01*
X164630100Y-67132200D02*
X163131500Y-67132200D01*
X163131500Y-67132200D02*
X163131500Y-64033400D01*
X163131500Y-64033400D02*
X164630100Y-64033400D01*
X164380154Y-66130062D02*
G75*
G03X164378640Y-65034160I-499354J547262D01*
G01*
X163382402Y-66130933D02*
G75*
G03X164378640Y-66131440I498398J548133D01*
G01*
X163381446Y-65035538D02*
G75*
G03X163382960Y-66131440I499354J-547262D01*
G01*
X164379198Y-65034667D02*
G75*
G03X163382960Y-65034160I-498398J-548133D01*
G01*
X109206400Y-67556000D02*
X109206400Y-66556000D01*
X107506400Y-66556000D02*
X107506400Y-67556000D01*
X141376400Y-75590400D02*
X141376400Y-88290400D01*
X141376400Y-88290400D02*
X138836400Y-88290400D01*
X138836400Y-88290400D02*
X138836400Y-75590400D01*
X141656400Y-72770400D02*
X141656400Y-74320400D01*
X141376400Y-75590400D02*
X138836400Y-75590400D01*
X138556400Y-74320400D02*
X138556400Y-72770400D01*
X138556400Y-72770400D02*
X141656400Y-72770400D01*
X136144000Y-57505600D02*
X128524000Y-57505600D01*
X136144000Y-60045600D02*
X128524000Y-60045600D01*
X138964000Y-60325600D02*
X137414000Y-60325600D01*
X128524000Y-57505600D02*
X128524000Y-60045600D01*
X136144000Y-60045600D02*
X136144000Y-57505600D01*
X137414000Y-57225600D02*
X138964000Y-57225600D01*
X138964000Y-57225600D02*
X138964000Y-60325600D01*
X106730800Y-103276400D02*
X114350800Y-103276400D01*
X106730800Y-100736400D02*
X114350800Y-100736400D01*
X103910800Y-100456400D02*
X105460800Y-100456400D01*
X114350800Y-103276400D02*
X114350800Y-100736400D01*
X106730800Y-100736400D02*
X106730800Y-103276400D01*
X105460800Y-103556400D02*
X103910800Y-103556400D01*
X103910800Y-103556400D02*
X103910800Y-100456400D01*
X95605600Y-87630000D02*
X95605600Y-95250000D01*
X98145600Y-87630000D02*
X98145600Y-95250000D01*
X98425600Y-84810000D02*
X98425600Y-86360000D01*
X95605600Y-95250000D02*
X98145600Y-95250000D01*
X98145600Y-87630000D02*
X95605600Y-87630000D01*
X95325600Y-86360000D02*
X95325600Y-84810000D01*
X95325600Y-84810000D02*
X98425600Y-84810000D01*
X131410000Y-72045800D02*
X130210000Y-72045800D01*
X130210000Y-70295800D02*
X131410000Y-70295800D01*
X138692000Y-61758200D02*
X139692000Y-61758200D01*
X139692000Y-63108200D02*
X138692000Y-63108200D01*
X125464600Y-87874400D02*
X125464600Y-86674400D01*
X127214600Y-86674400D02*
X127214600Y-87874400D01*
X121626600Y-101304800D02*
X121626600Y-102504800D01*
X119876600Y-102504800D02*
X119876600Y-101304800D01*
X118680200Y-101304800D02*
X118680200Y-102504800D01*
X116930200Y-102504800D02*
X116930200Y-101304800D01*
X156878400Y-87310600D02*
X157878400Y-87310600D01*
X157878400Y-88660600D02*
X156878400Y-88660600D01*
X156878400Y-84516600D02*
X157878400Y-84516600D01*
X157878400Y-85866600D02*
X156878400Y-85866600D01*
X156878400Y-81976600D02*
X157878400Y-81976600D01*
X157878400Y-83326600D02*
X156878400Y-83326600D01*
X156726000Y-79335000D02*
X157726000Y-79335000D01*
X157726000Y-80685000D02*
X156726000Y-80685000D01*
X164755800Y-60715600D02*
X164755800Y-61915600D01*
X163005800Y-61915600D02*
X163005800Y-60715600D01*
X103519000Y-80559200D02*
X103519000Y-79359200D01*
X105269000Y-79359200D02*
X105269000Y-80559200D01*
X104295600Y-67438800D02*
G75*
G03X104295600Y-67438800I-100000J0D01*
G01*
X104745600Y-67688800D02*
X104245600Y-67688800D01*
X104745600Y-70588800D02*
X104745600Y-67688800D01*
X104245600Y-70588800D02*
X104745600Y-70588800D01*
X104245600Y-67688800D02*
X104245600Y-70588800D01*
X126993400Y-78682600D02*
X126993400Y-77607600D01*
X116643400Y-78682600D02*
X116643400Y-77607600D01*
X116643400Y-68332600D02*
X116643400Y-69407600D01*
X126993400Y-68332600D02*
X126993400Y-69407600D01*
X126993400Y-78682600D02*
X125918400Y-78682600D01*
X126993400Y-68332600D02*
X125918400Y-68332600D01*
X116643400Y-68332600D02*
X117718400Y-68332600D01*
X116643400Y-78682600D02*
X117718400Y-78682600D01*
X126993400Y-77607600D02*
X128018400Y-77607600D01*
X145704560Y-56566440D02*
X145704560Y-53016440D01*
X145704560Y-53016440D02*
X159104560Y-53016440D01*
X159104560Y-53016440D02*
X159104560Y-56566440D01*
X159104560Y-73116440D02*
X159104560Y-70866440D01*
X157054560Y-73116440D02*
X159104560Y-73116440D01*
X145704560Y-70866440D02*
X145704560Y-73116440D01*
X145704560Y-73116440D02*
X147754560Y-73116440D01*
X139673600Y-91110800D02*
X139673600Y-91710800D01*
X139673600Y-107110800D02*
X139673600Y-106510800D01*
X123673600Y-107110800D02*
X123673600Y-106510800D01*
X123673600Y-91110800D02*
X123673600Y-91710800D01*
X139673600Y-91110800D02*
X123673600Y-91110800D01*
X123673600Y-107110800D02*
X139673600Y-107110800D01*
X126565205Y-92511880D02*
G75*
G03X126565205Y-92511880I-339905J0D01*
G01*
X110769600Y-68651600D02*
X113969600Y-68651600D01*
X113969600Y-68651600D02*
X113969600Y-71251600D01*
X113969600Y-71251600D02*
X110769600Y-71251600D01*
X110769600Y-71251600D02*
X110769600Y-68651600D01*
X98755200Y-55372000D02*
G75*
G03X98755200Y-55372000I-2286000J0D01*
G01*
X163207867Y-80411581D02*
X162874533Y-79935390D01*
X162636438Y-80411581D02*
X162636438Y-79411581D01*
X163017391Y-79411581D01*
X163112629Y-79459200D01*
X163160248Y-79506819D01*
X163207867Y-79602057D01*
X163207867Y-79744914D01*
X163160248Y-79840152D01*
X163112629Y-79887771D01*
X163017391Y-79935390D01*
X162636438Y-79935390D01*
X163636438Y-79887771D02*
X163969772Y-79887771D01*
X164112629Y-80411581D02*
X163636438Y-80411581D01*
X163636438Y-79411581D01*
X164112629Y-79411581D01*
X164874534Y-79887771D02*
X164541200Y-79887771D01*
X164541200Y-80411581D02*
X164541200Y-79411581D01*
X165017391Y-79411581D01*
X165541200Y-79411581D02*
X165541200Y-79649676D01*
X165303105Y-79554438D02*
X165541200Y-79649676D01*
X165779296Y-79554438D01*
X165398343Y-79840152D02*
X165541200Y-79649676D01*
X165684058Y-79840152D01*
X166303105Y-79411581D02*
X166303105Y-79649676D01*
X166065010Y-79554438D02*
X166303105Y-79649676D01*
X166541201Y-79554438D01*
X166160248Y-79840152D02*
X166303105Y-79649676D01*
X166445963Y-79840152D01*
X94526267Y-104795581D02*
X94192933Y-104319390D01*
X93954838Y-104795581D02*
X93954838Y-103795581D01*
X94335791Y-103795581D01*
X94431029Y-103843200D01*
X94478648Y-103890819D01*
X94526267Y-103986057D01*
X94526267Y-104128914D01*
X94478648Y-104224152D01*
X94431029Y-104271771D01*
X94335791Y-104319390D01*
X93954838Y-104319390D01*
X94954838Y-104271771D02*
X95288172Y-104271771D01*
X95431029Y-104795581D02*
X94954838Y-104795581D01*
X94954838Y-103795581D01*
X95431029Y-103795581D01*
X96192934Y-104271771D02*
X95859600Y-104271771D01*
X95859600Y-104795581D02*
X95859600Y-103795581D01*
X96335791Y-103795581D01*
X96859600Y-103795581D02*
X96859600Y-104033676D01*
X96621505Y-103938438D02*
X96859600Y-104033676D01*
X97097696Y-103938438D01*
X96716743Y-104224152D02*
X96859600Y-104033676D01*
X97002458Y-104224152D01*
X97621505Y-103795581D02*
X97621505Y-104033676D01*
X97383410Y-103938438D02*
X97621505Y-104033676D01*
X97859601Y-103938438D01*
X97478648Y-104224152D02*
X97621505Y-104033676D01*
X97764363Y-104224152D01*
X156287886Y-98539371D02*
X156430743Y-98586990D01*
X156478362Y-98634610D01*
X156525981Y-98729848D01*
X156525981Y-98872705D01*
X156478362Y-98967943D01*
X156430743Y-99015562D01*
X156335505Y-99063181D01*
X155954552Y-99063181D01*
X155954552Y-98063181D01*
X156287886Y-98063181D01*
X156383124Y-98110800D01*
X156430743Y-98158419D01*
X156478362Y-98253657D01*
X156478362Y-98348895D01*
X156430743Y-98444133D01*
X156383124Y-98491752D01*
X156287886Y-98539371D01*
X155954552Y-98539371D01*
X156811695Y-98063181D02*
X157383124Y-98063181D01*
X157097409Y-99063181D02*
X157097409Y-98063181D01*
X158240267Y-99063181D02*
X157668838Y-99063181D01*
X157954552Y-99063181D02*
X157954552Y-98063181D01*
X157859314Y-98206038D01*
X157764076Y-98301276D01*
X157668838Y-98348895D01*
X98739543Y-67883066D02*
X98787162Y-67930685D01*
X98834781Y-68073542D01*
X98834781Y-68168780D01*
X98787162Y-68311638D01*
X98691924Y-68406876D01*
X98596686Y-68454495D01*
X98406210Y-68502114D01*
X98263352Y-68502114D01*
X98072876Y-68454495D01*
X97977638Y-68406876D01*
X97882400Y-68311638D01*
X97834781Y-68168780D01*
X97834781Y-68073542D01*
X97882400Y-67930685D01*
X97930019Y-67883066D01*
X98834781Y-66930685D02*
X98834781Y-67502114D01*
X98834781Y-67216400D02*
X97834781Y-67216400D01*
X97977638Y-67311638D01*
X98072876Y-67406876D01*
X98120495Y-67502114D01*
X103566934Y-68398743D02*
X103519315Y-68446362D01*
X103376458Y-68493981D01*
X103281220Y-68493981D01*
X103138362Y-68446362D01*
X103043124Y-68351124D01*
X102995505Y-68255886D01*
X102947886Y-68065410D01*
X102947886Y-67922552D01*
X102995505Y-67732076D01*
X103043124Y-67636838D01*
X103138362Y-67541600D01*
X103281220Y-67493981D01*
X103376458Y-67493981D01*
X103519315Y-67541600D01*
X103566934Y-67589219D01*
X103947886Y-67589219D02*
X103995505Y-67541600D01*
X104090743Y-67493981D01*
X104328839Y-67493981D01*
X104424077Y-67541600D01*
X104471696Y-67589219D01*
X104519315Y-67684457D01*
X104519315Y-67779695D01*
X104471696Y-67922552D01*
X103900267Y-68493981D01*
X104519315Y-68493981D01*
X115250934Y-63501543D02*
X115203315Y-63549162D01*
X115060458Y-63596781D01*
X114965220Y-63596781D01*
X114822362Y-63549162D01*
X114727124Y-63453924D01*
X114679505Y-63358686D01*
X114631886Y-63168210D01*
X114631886Y-63025352D01*
X114679505Y-62834876D01*
X114727124Y-62739638D01*
X114822362Y-62644400D01*
X114965220Y-62596781D01*
X115060458Y-62596781D01*
X115203315Y-62644400D01*
X115250934Y-62692019D01*
X115584267Y-62596781D02*
X116203315Y-62596781D01*
X115869981Y-62977733D01*
X116012839Y-62977733D01*
X116108077Y-63025352D01*
X116155696Y-63072971D01*
X116203315Y-63168210D01*
X116203315Y-63406305D01*
X116155696Y-63501543D01*
X116108077Y-63549162D01*
X116012839Y-63596781D01*
X115727124Y-63596781D01*
X115631886Y-63549162D01*
X115584267Y-63501543D01*
X120534134Y-62739543D02*
X120486515Y-62787162D01*
X120343658Y-62834781D01*
X120248420Y-62834781D01*
X120105562Y-62787162D01*
X120010324Y-62691924D01*
X119962705Y-62596686D01*
X119915086Y-62406210D01*
X119915086Y-62263352D01*
X119962705Y-62072876D01*
X120010324Y-61977638D01*
X120105562Y-61882400D01*
X120248420Y-61834781D01*
X120343658Y-61834781D01*
X120486515Y-61882400D01*
X120534134Y-61930019D01*
X121391277Y-62168114D02*
X121391277Y-62834781D01*
X121153181Y-61787162D02*
X120915086Y-62501448D01*
X121534134Y-62501448D01*
X111999734Y-66346343D02*
X111952115Y-66393962D01*
X111809258Y-66441581D01*
X111714020Y-66441581D01*
X111571162Y-66393962D01*
X111475924Y-66298724D01*
X111428305Y-66203486D01*
X111380686Y-66013010D01*
X111380686Y-65870152D01*
X111428305Y-65679676D01*
X111475924Y-65584438D01*
X111571162Y-65489200D01*
X111714020Y-65441581D01*
X111809258Y-65441581D01*
X111952115Y-65489200D01*
X111999734Y-65536819D01*
X112904496Y-65441581D02*
X112428305Y-65441581D01*
X112380686Y-65917771D01*
X112428305Y-65870152D01*
X112523543Y-65822533D01*
X112761639Y-65822533D01*
X112856877Y-65870152D01*
X112904496Y-65917771D01*
X112952115Y-66013010D01*
X112952115Y-66251105D01*
X112904496Y-66346343D01*
X112856877Y-66393962D01*
X112761639Y-66441581D01*
X112523543Y-66441581D01*
X112428305Y-66393962D01*
X112380686Y-66346343D01*
X133910343Y-68187866D02*
X133957962Y-68235485D01*
X134005581Y-68378342D01*
X134005581Y-68473580D01*
X133957962Y-68616438D01*
X133862724Y-68711676D01*
X133767486Y-68759295D01*
X133577010Y-68806914D01*
X133434152Y-68806914D01*
X133243676Y-68759295D01*
X133148438Y-68711676D01*
X133053200Y-68616438D01*
X133005581Y-68473580D01*
X133005581Y-68378342D01*
X133053200Y-68235485D01*
X133100819Y-68187866D01*
X133005581Y-67330723D02*
X133005581Y-67521200D01*
X133053200Y-67616438D01*
X133100819Y-67664057D01*
X133243676Y-67759295D01*
X133434152Y-67806914D01*
X133815105Y-67806914D01*
X133910343Y-67759295D01*
X133957962Y-67711676D01*
X134005581Y-67616438D01*
X134005581Y-67425961D01*
X133957962Y-67330723D01*
X133910343Y-67283104D01*
X133815105Y-67235485D01*
X133577010Y-67235485D01*
X133481771Y-67283104D01*
X133434152Y-67330723D01*
X133386533Y-67425961D01*
X133386533Y-67616438D01*
X133434152Y-67711676D01*
X133481771Y-67759295D01*
X133577010Y-67806914D01*
X112253734Y-74423543D02*
X112206115Y-74471162D01*
X112063258Y-74518781D01*
X111968020Y-74518781D01*
X111825162Y-74471162D01*
X111729924Y-74375924D01*
X111682305Y-74280686D01*
X111634686Y-74090210D01*
X111634686Y-73947352D01*
X111682305Y-73756876D01*
X111729924Y-73661638D01*
X111825162Y-73566400D01*
X111968020Y-73518781D01*
X112063258Y-73518781D01*
X112206115Y-73566400D01*
X112253734Y-73614019D01*
X112587067Y-73518781D02*
X113253734Y-73518781D01*
X112825162Y-74518781D01*
X115469943Y-93841866D02*
X115517562Y-93889485D01*
X115565181Y-94032342D01*
X115565181Y-94127580D01*
X115517562Y-94270438D01*
X115422324Y-94365676D01*
X115327086Y-94413295D01*
X115136610Y-94460914D01*
X114993752Y-94460914D01*
X114803276Y-94413295D01*
X114708038Y-94365676D01*
X114612800Y-94270438D01*
X114565181Y-94127580D01*
X114565181Y-94032342D01*
X114612800Y-93889485D01*
X114660419Y-93841866D01*
X114993752Y-93270438D02*
X114946133Y-93365676D01*
X114898514Y-93413295D01*
X114803276Y-93460914D01*
X114755657Y-93460914D01*
X114660419Y-93413295D01*
X114612800Y-93365676D01*
X114565181Y-93270438D01*
X114565181Y-93079961D01*
X114612800Y-92984723D01*
X114660419Y-92937104D01*
X114755657Y-92889485D01*
X114803276Y-92889485D01*
X114898514Y-92937104D01*
X114946133Y-92984723D01*
X114993752Y-93079961D01*
X114993752Y-93270438D01*
X115041371Y-93365676D01*
X115088990Y-93413295D01*
X115184229Y-93460914D01*
X115374705Y-93460914D01*
X115469943Y-93413295D01*
X115517562Y-93365676D01*
X115565181Y-93270438D01*
X115565181Y-93079961D01*
X115517562Y-92984723D01*
X115469943Y-92937104D01*
X115374705Y-92889485D01*
X115184229Y-92889485D01*
X115088990Y-92937104D01*
X115041371Y-92984723D01*
X114993752Y-93079961D01*
X143765543Y-72912266D02*
X143813162Y-72959885D01*
X143860781Y-73102742D01*
X143860781Y-73197980D01*
X143813162Y-73340838D01*
X143717924Y-73436076D01*
X143622686Y-73483695D01*
X143432210Y-73531314D01*
X143289352Y-73531314D01*
X143098876Y-73483695D01*
X143003638Y-73436076D01*
X142908400Y-73340838D01*
X142860781Y-73197980D01*
X142860781Y-73102742D01*
X142908400Y-72959885D01*
X142956019Y-72912266D01*
X143860781Y-72436076D02*
X143860781Y-72245600D01*
X143813162Y-72150361D01*
X143765543Y-72102742D01*
X143622686Y-72007504D01*
X143432210Y-71959885D01*
X143051257Y-71959885D01*
X142956019Y-72007504D01*
X142908400Y-72055123D01*
X142860781Y-72150361D01*
X142860781Y-72340838D01*
X142908400Y-72436076D01*
X142956019Y-72483695D01*
X143051257Y-72531314D01*
X143289352Y-72531314D01*
X143384590Y-72483695D01*
X143432210Y-72436076D01*
X143479829Y-72340838D01*
X143479829Y-72150361D01*
X143432210Y-72055123D01*
X143384590Y-72007504D01*
X143289352Y-71959885D01*
X144852743Y-103919257D02*
X144900362Y-103966876D01*
X144947981Y-104109733D01*
X144947981Y-104204971D01*
X144900362Y-104347829D01*
X144805124Y-104443067D01*
X144709886Y-104490686D01*
X144519410Y-104538305D01*
X144376552Y-104538305D01*
X144186076Y-104490686D01*
X144090838Y-104443067D01*
X143995600Y-104347829D01*
X143947981Y-104204971D01*
X143947981Y-104109733D01*
X143995600Y-103966876D01*
X144043219Y-103919257D01*
X144947981Y-102966876D02*
X144947981Y-103538305D01*
X144947981Y-103252591D02*
X143947981Y-103252591D01*
X144090838Y-103347829D01*
X144186076Y-103443067D01*
X144233695Y-103538305D01*
X143947981Y-102347829D02*
X143947981Y-102252590D01*
X143995600Y-102157352D01*
X144043219Y-102109733D01*
X144138457Y-102062114D01*
X144328933Y-102014495D01*
X144567029Y-102014495D01*
X144757505Y-102062114D01*
X144852743Y-102109733D01*
X144900362Y-102157352D01*
X144947981Y-102252590D01*
X144947981Y-102347829D01*
X144900362Y-102443067D01*
X144852743Y-102490686D01*
X144757505Y-102538305D01*
X144567029Y-102585924D01*
X144328933Y-102585924D01*
X144138457Y-102538305D01*
X144043219Y-102490686D01*
X143995600Y-102443067D01*
X143947981Y-102347829D01*
X117705143Y-94521257D02*
X117752762Y-94568876D01*
X117800381Y-94711733D01*
X117800381Y-94806971D01*
X117752762Y-94949829D01*
X117657524Y-95045067D01*
X117562286Y-95092686D01*
X117371810Y-95140305D01*
X117228952Y-95140305D01*
X117038476Y-95092686D01*
X116943238Y-95045067D01*
X116848000Y-94949829D01*
X116800381Y-94806971D01*
X116800381Y-94711733D01*
X116848000Y-94568876D01*
X116895619Y-94521257D01*
X117800381Y-93568876D02*
X117800381Y-94140305D01*
X117800381Y-93854591D02*
X116800381Y-93854591D01*
X116943238Y-93949829D01*
X117038476Y-94045067D01*
X117086095Y-94140305D01*
X117800381Y-92616495D02*
X117800381Y-93187924D01*
X117800381Y-92902210D02*
X116800381Y-92902210D01*
X116943238Y-92997448D01*
X117038476Y-93092686D01*
X117086095Y-93187924D01*
X93552315Y-65124143D02*
X93504696Y-65171762D01*
X93361839Y-65219381D01*
X93266601Y-65219381D01*
X93123743Y-65171762D01*
X93028505Y-65076524D01*
X92980886Y-64981286D01*
X92933267Y-64790810D01*
X92933267Y-64647952D01*
X92980886Y-64457476D01*
X93028505Y-64362238D01*
X93123743Y-64267000D01*
X93266601Y-64219381D01*
X93361839Y-64219381D01*
X93504696Y-64267000D01*
X93552315Y-64314619D01*
X94171362Y-64219381D02*
X94361839Y-64219381D01*
X94457077Y-64267000D01*
X94552315Y-64362238D01*
X94599934Y-64552714D01*
X94599934Y-64886048D01*
X94552315Y-65076524D01*
X94457077Y-65171762D01*
X94361839Y-65219381D01*
X94171362Y-65219381D01*
X94076124Y-65171762D01*
X93980886Y-65076524D01*
X93933267Y-64886048D01*
X93933267Y-64552714D01*
X93980886Y-64362238D01*
X94076124Y-64267000D01*
X94171362Y-64219381D01*
X95028505Y-65219381D02*
X95028505Y-64219381D01*
X95599934Y-65219381D01*
X95599934Y-64219381D01*
X96599934Y-65219381D02*
X96028505Y-65219381D01*
X96314219Y-65219381D02*
X96314219Y-64219381D01*
X96218981Y-64362238D01*
X96123743Y-64457476D01*
X96028505Y-64505095D01*
X130427505Y-84509181D02*
X130427505Y-83509181D01*
X130665600Y-83509181D01*
X130808458Y-83556800D01*
X130903696Y-83652038D01*
X130951315Y-83747276D01*
X130998934Y-83937752D01*
X130998934Y-84080610D01*
X130951315Y-84271086D01*
X130903696Y-84366324D01*
X130808458Y-84461562D01*
X130665600Y-84509181D01*
X130427505Y-84509181D01*
X131951315Y-84509181D02*
X131379886Y-84509181D01*
X131665600Y-84509181D02*
X131665600Y-83509181D01*
X131570362Y-83652038D01*
X131475124Y-83747276D01*
X131379886Y-83794895D01*
X162809181Y-66066895D02*
X161809181Y-66066895D01*
X161809181Y-65828800D01*
X161856800Y-65685942D01*
X161952038Y-65590704D01*
X162047276Y-65543085D01*
X162237752Y-65495466D01*
X162380610Y-65495466D01*
X162571086Y-65543085D01*
X162666324Y-65590704D01*
X162761562Y-65685942D01*
X162809181Y-65828800D01*
X162809181Y-66066895D01*
X161904419Y-65114514D02*
X161856800Y-65066895D01*
X161809181Y-64971657D01*
X161809181Y-64733561D01*
X161856800Y-64638323D01*
X161904419Y-64590704D01*
X161999657Y-64543085D01*
X162094895Y-64543085D01*
X162237752Y-64590704D01*
X162809181Y-65162133D01*
X162809181Y-64543085D01*
X108386571Y-64688933D02*
X108386571Y-65022267D01*
X108910381Y-65022267D02*
X107910381Y-65022267D01*
X107910381Y-64546076D01*
X108386571Y-63831790D02*
X108434190Y-63688933D01*
X108481810Y-63641314D01*
X108577048Y-63593695D01*
X108719905Y-63593695D01*
X108815143Y-63641314D01*
X108862762Y-63688933D01*
X108910381Y-63784171D01*
X108910381Y-64165124D01*
X107910381Y-64165124D01*
X107910381Y-63831790D01*
X107958000Y-63736552D01*
X108005619Y-63688933D01*
X108100857Y-63641314D01*
X108196095Y-63641314D01*
X108291333Y-63688933D01*
X108338952Y-63736552D01*
X108386571Y-63831790D01*
X108386571Y-64165124D01*
X108910381Y-62641314D02*
X108910381Y-63212743D01*
X108910381Y-62927029D02*
X107910381Y-62927029D01*
X108053238Y-63022267D01*
X108148476Y-63117505D01*
X108196095Y-63212743D01*
X139368305Y-69672781D02*
X139368305Y-68672781D01*
X139749258Y-68672781D01*
X139844496Y-68720400D01*
X139892115Y-68768019D01*
X139939734Y-68863257D01*
X139939734Y-69006114D01*
X139892115Y-69101352D01*
X139844496Y-69148971D01*
X139749258Y-69196590D01*
X139368305Y-69196590D01*
X140892115Y-69672781D02*
X140320686Y-69672781D01*
X140606400Y-69672781D02*
X140606400Y-68672781D01*
X140511162Y-68815638D01*
X140415924Y-68910876D01*
X140320686Y-68958495D01*
X142966381Y-59513695D02*
X141966381Y-59513695D01*
X141966381Y-59132742D01*
X142014000Y-59037504D01*
X142061619Y-58989885D01*
X142156857Y-58942266D01*
X142299714Y-58942266D01*
X142394952Y-58989885D01*
X142442571Y-59037504D01*
X142490190Y-59132742D01*
X142490190Y-59513695D01*
X142061619Y-58561314D02*
X142014000Y-58513695D01*
X141966381Y-58418457D01*
X141966381Y-58180361D01*
X142014000Y-58085123D01*
X142061619Y-58037504D01*
X142156857Y-57989885D01*
X142252095Y-57989885D01*
X142394952Y-58037504D01*
X142966381Y-58608933D01*
X142966381Y-57989885D01*
X100813181Y-102744495D02*
X99813181Y-102744495D01*
X99813181Y-102363542D01*
X99860800Y-102268304D01*
X99908419Y-102220685D01*
X100003657Y-102173066D01*
X100146514Y-102173066D01*
X100241752Y-102220685D01*
X100289371Y-102268304D01*
X100336990Y-102363542D01*
X100336990Y-102744495D01*
X99813181Y-101839733D02*
X99813181Y-101220685D01*
X100194133Y-101554019D01*
X100194133Y-101411161D01*
X100241752Y-101315923D01*
X100289371Y-101268304D01*
X100384610Y-101220685D01*
X100622705Y-101220685D01*
X100717943Y-101268304D01*
X100765562Y-101315923D01*
X100813181Y-101411161D01*
X100813181Y-101696876D01*
X100765562Y-101792114D01*
X100717943Y-101839733D01*
X96137505Y-81712381D02*
X96137505Y-80712381D01*
X96518458Y-80712381D01*
X96613696Y-80760000D01*
X96661315Y-80807619D01*
X96708934Y-80902857D01*
X96708934Y-81045714D01*
X96661315Y-81140952D01*
X96613696Y-81188571D01*
X96518458Y-81236190D01*
X96137505Y-81236190D01*
X97566077Y-81045714D02*
X97566077Y-81712381D01*
X97327981Y-80664762D02*
X97089886Y-81379048D01*
X97708934Y-81379048D01*
X130643334Y-69523181D02*
X130310000Y-69046990D01*
X130071905Y-69523181D02*
X130071905Y-68523181D01*
X130452858Y-68523181D01*
X130548096Y-68570800D01*
X130595715Y-68618419D01*
X130643334Y-68713657D01*
X130643334Y-68856514D01*
X130595715Y-68951752D01*
X130548096Y-68999371D01*
X130452858Y-69046990D01*
X130071905Y-69046990D01*
X131595715Y-69523181D02*
X131024286Y-69523181D01*
X131310000Y-69523181D02*
X131310000Y-68523181D01*
X131214762Y-68666038D01*
X131119524Y-68761276D01*
X131024286Y-68808895D01*
X139025334Y-64785581D02*
X138692000Y-64309390D01*
X138453905Y-64785581D02*
X138453905Y-63785581D01*
X138834858Y-63785581D01*
X138930096Y-63833200D01*
X138977715Y-63880819D01*
X139025334Y-63976057D01*
X139025334Y-64118914D01*
X138977715Y-64214152D01*
X138930096Y-64261771D01*
X138834858Y-64309390D01*
X138453905Y-64309390D01*
X139406286Y-63880819D02*
X139453905Y-63833200D01*
X139549143Y-63785581D01*
X139787239Y-63785581D01*
X139882477Y-63833200D01*
X139930096Y-63880819D01*
X139977715Y-63976057D01*
X139977715Y-64071295D01*
X139930096Y-64214152D01*
X139358667Y-64785581D01*
X139977715Y-64785581D01*
X128891981Y-87441066D02*
X128415790Y-87774400D01*
X128891981Y-88012495D02*
X127891981Y-88012495D01*
X127891981Y-87631542D01*
X127939600Y-87536304D01*
X127987219Y-87488685D01*
X128082457Y-87441066D01*
X128225314Y-87441066D01*
X128320552Y-87488685D01*
X128368171Y-87536304D01*
X128415790Y-87631542D01*
X128415790Y-88012495D01*
X127891981Y-87107733D02*
X127891981Y-86488685D01*
X128272933Y-86822019D01*
X128272933Y-86679161D01*
X128320552Y-86583923D01*
X128368171Y-86536304D01*
X128463410Y-86488685D01*
X128701505Y-86488685D01*
X128796743Y-86536304D01*
X128844362Y-86583923D01*
X128891981Y-86679161D01*
X128891981Y-86964876D01*
X128844362Y-87060114D01*
X128796743Y-87107733D01*
X121102381Y-104713066D02*
X120626190Y-105046400D01*
X121102381Y-105284495D02*
X120102381Y-105284495D01*
X120102381Y-104903542D01*
X120150000Y-104808304D01*
X120197619Y-104760685D01*
X120292857Y-104713066D01*
X120435714Y-104713066D01*
X120530952Y-104760685D01*
X120578571Y-104808304D01*
X120626190Y-104903542D01*
X120626190Y-105284495D01*
X120435714Y-103855923D02*
X121102381Y-103855923D01*
X120054762Y-104094019D02*
X120769048Y-104332114D01*
X120769048Y-103713066D01*
X118409981Y-104662266D02*
X117933790Y-104995600D01*
X118409981Y-105233695D02*
X117409981Y-105233695D01*
X117409981Y-104852742D01*
X117457600Y-104757504D01*
X117505219Y-104709885D01*
X117600457Y-104662266D01*
X117743314Y-104662266D01*
X117838552Y-104709885D01*
X117886171Y-104757504D01*
X117933790Y-104852742D01*
X117933790Y-105233695D01*
X117409981Y-103757504D02*
X117409981Y-104233695D01*
X117886171Y-104281314D01*
X117838552Y-104233695D01*
X117790933Y-104138457D01*
X117790933Y-103900361D01*
X117838552Y-103805123D01*
X117886171Y-103757504D01*
X117981410Y-103709885D01*
X118219505Y-103709885D01*
X118314743Y-103757504D01*
X118362362Y-103805123D01*
X118409981Y-103900361D01*
X118409981Y-104138457D01*
X118362362Y-104233695D01*
X118314743Y-104281314D01*
X159599334Y-88437981D02*
X159266000Y-87961790D01*
X159027905Y-88437981D02*
X159027905Y-87437981D01*
X159408858Y-87437981D01*
X159504096Y-87485600D01*
X159551715Y-87533219D01*
X159599334Y-87628457D01*
X159599334Y-87771314D01*
X159551715Y-87866552D01*
X159504096Y-87914171D01*
X159408858Y-87961790D01*
X159027905Y-87961790D01*
X160456477Y-87437981D02*
X160266000Y-87437981D01*
X160170762Y-87485600D01*
X160123143Y-87533219D01*
X160027905Y-87676076D01*
X159980286Y-87866552D01*
X159980286Y-88247505D01*
X160027905Y-88342743D01*
X160075524Y-88390362D01*
X160170762Y-88437981D01*
X160361239Y-88437981D01*
X160456477Y-88390362D01*
X160504096Y-88342743D01*
X160551715Y-88247505D01*
X160551715Y-88009410D01*
X160504096Y-87914171D01*
X160456477Y-87866552D01*
X160361239Y-87818933D01*
X160170762Y-87818933D01*
X160075524Y-87866552D01*
X160027905Y-87914171D01*
X159980286Y-88009410D01*
X159650134Y-85491581D02*
X159316800Y-85015390D01*
X159078705Y-85491581D02*
X159078705Y-84491581D01*
X159459658Y-84491581D01*
X159554896Y-84539200D01*
X159602515Y-84586819D01*
X159650134Y-84682057D01*
X159650134Y-84824914D01*
X159602515Y-84920152D01*
X159554896Y-84967771D01*
X159459658Y-85015390D01*
X159078705Y-85015390D01*
X159983467Y-84491581D02*
X160650134Y-84491581D01*
X160221562Y-85491581D01*
X159599334Y-83053181D02*
X159266000Y-82576990D01*
X159027905Y-83053181D02*
X159027905Y-82053181D01*
X159408858Y-82053181D01*
X159504096Y-82100800D01*
X159551715Y-82148419D01*
X159599334Y-82243657D01*
X159599334Y-82386514D01*
X159551715Y-82481752D01*
X159504096Y-82529371D01*
X159408858Y-82576990D01*
X159027905Y-82576990D01*
X160170762Y-82481752D02*
X160075524Y-82434133D01*
X160027905Y-82386514D01*
X159980286Y-82291276D01*
X159980286Y-82243657D01*
X160027905Y-82148419D01*
X160075524Y-82100800D01*
X160170762Y-82053181D01*
X160361239Y-82053181D01*
X160456477Y-82100800D01*
X160504096Y-82148419D01*
X160551715Y-82243657D01*
X160551715Y-82291276D01*
X160504096Y-82386514D01*
X160456477Y-82434133D01*
X160361239Y-82481752D01*
X160170762Y-82481752D01*
X160075524Y-82529371D01*
X160027905Y-82576990D01*
X159980286Y-82672229D01*
X159980286Y-82862705D01*
X160027905Y-82957943D01*
X160075524Y-83005562D01*
X160170762Y-83053181D01*
X160361239Y-83053181D01*
X160456477Y-83005562D01*
X160504096Y-82957943D01*
X160551715Y-82862705D01*
X160551715Y-82672229D01*
X160504096Y-82576990D01*
X160456477Y-82529371D01*
X160361239Y-82481752D01*
X159294534Y-80716381D02*
X158961200Y-80240190D01*
X158723105Y-80716381D02*
X158723105Y-79716381D01*
X159104058Y-79716381D01*
X159199296Y-79764000D01*
X159246915Y-79811619D01*
X159294534Y-79906857D01*
X159294534Y-80049714D01*
X159246915Y-80144952D01*
X159199296Y-80192571D01*
X159104058Y-80240190D01*
X158723105Y-80240190D01*
X159770724Y-80716381D02*
X159961200Y-80716381D01*
X160056439Y-80668762D01*
X160104058Y-80621143D01*
X160199296Y-80478286D01*
X160246915Y-80287810D01*
X160246915Y-79906857D01*
X160199296Y-79811619D01*
X160151677Y-79764000D01*
X160056439Y-79716381D01*
X159865962Y-79716381D01*
X159770724Y-79764000D01*
X159723105Y-79811619D01*
X159675486Y-79906857D01*
X159675486Y-80144952D01*
X159723105Y-80240190D01*
X159770724Y-80287810D01*
X159865962Y-80335429D01*
X160056439Y-80335429D01*
X160151677Y-80287810D01*
X160199296Y-80240190D01*
X160246915Y-80144952D01*
X162233181Y-61958457D02*
X161756990Y-62291791D01*
X162233181Y-62529886D02*
X161233181Y-62529886D01*
X161233181Y-62148933D01*
X161280800Y-62053695D01*
X161328419Y-62006076D01*
X161423657Y-61958457D01*
X161566514Y-61958457D01*
X161661752Y-62006076D01*
X161709371Y-62053695D01*
X161756990Y-62148933D01*
X161756990Y-62529886D01*
X162233181Y-61006076D02*
X162233181Y-61577505D01*
X162233181Y-61291791D02*
X161233181Y-61291791D01*
X161376038Y-61387029D01*
X161471276Y-61482267D01*
X161518895Y-61577505D01*
X161233181Y-60387029D02*
X161233181Y-60291790D01*
X161280800Y-60196552D01*
X161328419Y-60148933D01*
X161423657Y-60101314D01*
X161614133Y-60053695D01*
X161852229Y-60053695D01*
X162042705Y-60101314D01*
X162137943Y-60148933D01*
X162185562Y-60196552D01*
X162233181Y-60291790D01*
X162233181Y-60387029D01*
X162185562Y-60482267D01*
X162137943Y-60529886D01*
X162042705Y-60577505D01*
X161852229Y-60625124D01*
X161614133Y-60625124D01*
X161423657Y-60577505D01*
X161328419Y-60529886D01*
X161280800Y-60482267D01*
X161233181Y-60387029D01*
X106946381Y-80602057D02*
X106470190Y-80935391D01*
X106946381Y-81173486D02*
X105946381Y-81173486D01*
X105946381Y-80792533D01*
X105994000Y-80697295D01*
X106041619Y-80649676D01*
X106136857Y-80602057D01*
X106279714Y-80602057D01*
X106374952Y-80649676D01*
X106422571Y-80697295D01*
X106470190Y-80792533D01*
X106470190Y-81173486D01*
X106946381Y-79649676D02*
X106946381Y-80221105D01*
X106946381Y-79935391D02*
X105946381Y-79935391D01*
X106089238Y-80030629D01*
X106184476Y-80125867D01*
X106232095Y-80221105D01*
X106946381Y-78697295D02*
X106946381Y-79268724D01*
X106946381Y-78983010D02*
X105946381Y-78983010D01*
X106089238Y-79078248D01*
X106184476Y-79173486D01*
X106232095Y-79268724D01*
X150815562Y-85407333D02*
X150863181Y-85264476D01*
X150863181Y-85026380D01*
X150815562Y-84931142D01*
X150767943Y-84883523D01*
X150672705Y-84835904D01*
X150577467Y-84835904D01*
X150482229Y-84883523D01*
X150434610Y-84931142D01*
X150386990Y-85026380D01*
X150339371Y-85216857D01*
X150291752Y-85312095D01*
X150244133Y-85359714D01*
X150148895Y-85407333D01*
X150053657Y-85407333D01*
X149958419Y-85359714D01*
X149910800Y-85312095D01*
X149863181Y-85216857D01*
X149863181Y-84978761D01*
X149910800Y-84835904D01*
X149863181Y-84502571D02*
X150863181Y-84264476D01*
X150148895Y-84073999D01*
X150863181Y-83883523D01*
X149863181Y-83645428D01*
X150863181Y-82740666D02*
X150863181Y-83312095D01*
X150863181Y-83026381D02*
X149863181Y-83026381D01*
X150006038Y-83121619D01*
X150101276Y-83216857D01*
X150148895Y-83312095D01*
X109565962Y-87591733D02*
X109613581Y-87448876D01*
X109613581Y-87210780D01*
X109565962Y-87115542D01*
X109518343Y-87067923D01*
X109423105Y-87020304D01*
X109327867Y-87020304D01*
X109232629Y-87067923D01*
X109185010Y-87115542D01*
X109137390Y-87210780D01*
X109089771Y-87401257D01*
X109042152Y-87496495D01*
X108994533Y-87544114D01*
X108899295Y-87591733D01*
X108804057Y-87591733D01*
X108708819Y-87544114D01*
X108661200Y-87496495D01*
X108613581Y-87401257D01*
X108613581Y-87163161D01*
X108661200Y-87020304D01*
X108613581Y-86686971D02*
X109613581Y-86448876D01*
X108899295Y-86258399D01*
X109613581Y-86067923D01*
X108613581Y-85829828D01*
X108708819Y-85496495D02*
X108661200Y-85448876D01*
X108613581Y-85353638D01*
X108613581Y-85115542D01*
X108661200Y-85020304D01*
X108708819Y-84972685D01*
X108804057Y-84925066D01*
X108899295Y-84925066D01*
X109042152Y-84972685D01*
X109613581Y-85544114D01*
X109613581Y-84925066D01*
X103733695Y-65691181D02*
X103733695Y-66500705D01*
X103781314Y-66595943D01*
X103828933Y-66643562D01*
X103924171Y-66691181D01*
X104114648Y-66691181D01*
X104209886Y-66643562D01*
X104257505Y-66595943D01*
X104305124Y-66500705D01*
X104305124Y-65691181D01*
X105305124Y-66691181D02*
X104733695Y-66691181D01*
X105019409Y-66691181D02*
X105019409Y-65691181D01*
X104924171Y-65834038D01*
X104828933Y-65929276D01*
X104733695Y-65976895D01*
X121056495Y-80159981D02*
X121056495Y-80969505D01*
X121104114Y-81064743D01*
X121151733Y-81112362D01*
X121246971Y-81159981D01*
X121437448Y-81159981D01*
X121532686Y-81112362D01*
X121580305Y-81064743D01*
X121627924Y-80969505D01*
X121627924Y-80159981D01*
X122056495Y-80255219D02*
X122104114Y-80207600D01*
X122199352Y-80159981D01*
X122437448Y-80159981D01*
X122532686Y-80207600D01*
X122580305Y-80255219D01*
X122627924Y-80350457D01*
X122627924Y-80445695D01*
X122580305Y-80588552D01*
X122008876Y-81159981D01*
X122627924Y-81159981D01*
X151638095Y-63714381D02*
X151638095Y-64523905D01*
X151685714Y-64619143D01*
X151733333Y-64666762D01*
X151828571Y-64714381D01*
X152019048Y-64714381D01*
X152114286Y-64666762D01*
X152161905Y-64619143D01*
X152209524Y-64523905D01*
X152209524Y-63714381D01*
X152590476Y-63714381D02*
X153209524Y-63714381D01*
X152876190Y-64095333D01*
X153019048Y-64095333D01*
X153114286Y-64142952D01*
X153161905Y-64190571D01*
X153209524Y-64285810D01*
X153209524Y-64523905D01*
X153161905Y-64619143D01*
X153114286Y-64666762D01*
X153019048Y-64714381D01*
X152733333Y-64714381D01*
X152638095Y-64666762D01*
X152590476Y-64619143D01*
X130883755Y-92243661D02*
X130883755Y-93053185D01*
X130931374Y-93148423D01*
X130978993Y-93196042D01*
X131074231Y-93243661D01*
X131264708Y-93243661D01*
X131359946Y-93196042D01*
X131407565Y-93148423D01*
X131455184Y-93053185D01*
X131455184Y-92243661D01*
X132359946Y-92576994D02*
X132359946Y-93243661D01*
X132121850Y-92196042D02*
X131883755Y-92910328D01*
X132502803Y-92910328D01*
X108613676Y-69454781D02*
X109280343Y-70454781D01*
X109280343Y-69454781D02*
X108613676Y-70454781D01*
X110185105Y-70454781D02*
X109613676Y-70454781D01*
X109899390Y-70454781D02*
X109899390Y-69454781D01*
X109804152Y-69597638D01*
X109708914Y-69692876D01*
X109613676Y-69740495D01*
X95135867Y-52776381D02*
X94802533Y-52300190D01*
X94564438Y-52776381D02*
X94564438Y-51776381D01*
X94945391Y-51776381D01*
X95040629Y-51824000D01*
X95088248Y-51871619D01*
X95135867Y-51966857D01*
X95135867Y-52109714D01*
X95088248Y-52204952D01*
X95040629Y-52252571D01*
X94945391Y-52300190D01*
X94564438Y-52300190D01*
X95564438Y-52252571D02*
X95897772Y-52252571D01*
X96040629Y-52776381D02*
X95564438Y-52776381D01*
X95564438Y-51776381D01*
X96040629Y-51776381D01*
X96802534Y-52252571D02*
X96469200Y-52252571D01*
X96469200Y-52776381D02*
X96469200Y-51776381D01*
X96945391Y-51776381D01*
X97469200Y-51776381D02*
X97469200Y-52014476D01*
X97231105Y-51919238D02*
X97469200Y-52014476D01*
X97707296Y-51919238D01*
X97326343Y-52204952D02*
X97469200Y-52014476D01*
X97612058Y-52204952D01*
X98231105Y-51776381D02*
X98231105Y-52014476D01*
X97993010Y-51919238D02*
X98231105Y-52014476D01*
X98469201Y-51919238D01*
X98088248Y-52204952D02*
X98231105Y-52014476D01*
X98373963Y-52204952D01*
M02*
