M48
;DRILL file {KiCad (2015-07-31 BZR 6030)-product} date Mon Sep  7 21:48:33 2015
;FORMAT={-:-/ absolute / inch / decimal}
FMAT,2
INCH,TZ
T1C0.016
T2C0.020
T3C0.022
T4C0.031
T5C0.040
T6C0.118
%
G90
G05
M72
T1
X4.0707Y-2.722
X4.11Y-3.106
X4.2266Y-2.748
X4.266Y-2.828
X4.28Y-3.368
X4.32Y-2.916
X4.3807Y-2.7225
X4.444Y-3.008
X4.4595Y-2.852
X4.4673Y-2.7855
X4.5066Y-2.556
X4.558Y-3.308
X4.62Y-2.82
X4.642Y-3.928
X4.644Y-3.538
X4.648Y-3.5
X4.684Y-3.444
X4.688Y-2.85
X4.69Y-3.066
X4.722Y-2.518
X4.726Y-3.444
X4.758Y-3.934
X4.766Y-3.322
X4.778Y-2.758
X4.784Y-3.248
X4.786Y-2.576
X4.792Y-3.182
X4.792Y-3.292
X4.808Y-2.312
X4.83Y-2.962
X4.832Y-3.218
X4.858Y-2.792
X4.864Y-3.056
X4.908Y-2.77
X4.974Y-3.82
X5.014Y-2.128
X5.062Y-4.006
X5.108Y-3.682
X5.138Y-2.732
X5.142Y-3.002
X5.194Y-3.596
X5.354Y-2.8
X5.39Y-2.818
X5.42Y-2.744
X5.73Y-3.892
X5.7332Y-3.902
X5.744Y-4.246
X5.834Y-2.386
X5.944Y-2.344
X6.042Y-2.72
X6.064Y-2.766
X6.096Y-2.366
X6.17Y-2.614
X6.208Y-2.438
X6.574Y-2.46
T4
X5.7524Y-3.16
X5.7524Y-3.26
X5.7524Y-3.36
X5.7524Y-3.46
X6.0516Y-3.16
X6.0516Y-3.26
X6.0516Y-3.36
X6.0516Y-3.46
T5
X3.814Y-3.4
X3.814Y-3.5
X3.814Y-3.6
X3.814Y-3.7
X4.152Y-4.016
X4.252Y-4.016
X4.352Y-4.016
X4.452Y-4.016
X5.11Y-2.314
X5.21Y-2.314
X5.31Y-2.314
X5.41Y-2.314
X5.516Y-2.926
X5.516Y-3.026
X5.516Y-3.126
X5.516Y-3.226
X5.516Y-3.326
X5.516Y-3.426
T6
X3.774Y-4.228
X3.798Y-2.18
X6.478Y-3.268
T2
X3.7349Y-2.6434G85X3.7605Y-2.6434
G05
X3.7349Y-2.919G85X3.7605Y-2.919
G05
T3
X3.854Y-2.6769G85X3.854Y-2.6887
G05
X3.854Y-2.8737G85X3.854Y-2.8855
G05
T0
M30
