G04 #@! TF.FileFunction,Copper,L1,Top,Signal*
%FSLAX46Y46*%
G04 Gerber Fmt 4.6, Leading zero omitted, Abs format (unit mm)*
G04 Created by KiCad (PCBNEW (2015-07-31 BZR 6030)-product) date Fri Sep 11 12:40:14 2015*
%MOMM*%
G01*
G04 APERTURE LIST*
%ADD10C,0.100000*%
%ADD11C,5.000000*%
%ADD12R,2.500000X5.100000*%
%ADD13C,17.800000*%
%ADD14R,1.250000X1.000000*%
%ADD15R,0.800000X0.750000*%
%ADD16R,1.000000X1.250000*%
%ADD17R,0.750000X0.800000*%
%ADD18R,1.350000X0.400000*%
%ADD19O,0.950000X1.250000*%
%ADD20O,1.550000X1.000000*%
%ADD21R,1.800860X1.597660*%
%ADD22R,2.032000X1.727200*%
%ADD23O,2.032000X1.727200*%
%ADD24R,1.727200X2.032000*%
%ADD25O,1.727200X2.032000*%
%ADD26R,0.700000X1.300000*%
%ADD27R,0.500000X0.900000*%
%ADD28R,1.300000X0.700000*%
%ADD29C,1.600000*%
%ADD30R,1.000000X3.100000*%
%ADD31R,1.060000X0.650000*%
%ADD32R,1.000000X0.250000*%
%ADD33R,0.250000X1.000000*%
%ADD34R,0.800000X1.300000*%
%ADD35R,1.300000X0.800000*%
%ADD36R,2.000000X1.000000*%
%ADD37C,1.200000*%
%ADD38R,1.400000X1.200000*%
%ADD39C,0.600000*%
%ADD40C,0.800000*%
%ADD41C,0.400000*%
%ADD42C,0.250000*%
%ADD43C,0.254000*%
G04 APERTURE END LIST*
D10*
D11*
X164541200Y-83007200D03*
X95859600Y-107391200D03*
D12*
X168413600Y-99110800D03*
D13*
X157073600Y-99110800D03*
D12*
X145623600Y-99110800D03*
D14*
X100482400Y-68716400D03*
X100482400Y-66716400D03*
D15*
X104483600Y-66141600D03*
X102983600Y-66141600D03*
D16*
X116468400Y-64922400D03*
X114468400Y-64922400D03*
X121853200Y-64008000D03*
X119853200Y-64008000D03*
D15*
X113018000Y-67462400D03*
X111518000Y-67462400D03*
D17*
X133451600Y-71158800D03*
X133451600Y-69658800D03*
D15*
X111772000Y-72440800D03*
X113272000Y-72440800D03*
D14*
X115062000Y-95774000D03*
X115062000Y-97774000D03*
X143256000Y-68748400D03*
X143256000Y-70748400D03*
D17*
X142595600Y-102526400D03*
X142595600Y-104026400D03*
X117449600Y-96125600D03*
X117449600Y-97625600D03*
D18*
X97891600Y-69342000D03*
X97891600Y-69992000D03*
X97891600Y-70642000D03*
X97891600Y-71292000D03*
X97891600Y-71942000D03*
D19*
X97891600Y-68142000D03*
X97891600Y-73142000D03*
D20*
X95191600Y-67142000D03*
X95191600Y-74142000D03*
D16*
X130165600Y-86156800D03*
X132165600Y-86156800D03*
D21*
X163880800Y-67002660D03*
X163880800Y-64162940D03*
D14*
X108356400Y-66056000D03*
X108356400Y-68056000D03*
D22*
X140106400Y-74320400D03*
D23*
X140106400Y-76860400D03*
X140106400Y-79400400D03*
X140106400Y-81940400D03*
X140106400Y-84480400D03*
X140106400Y-87020400D03*
D24*
X137414000Y-58775600D03*
D25*
X134874000Y-58775600D03*
X132334000Y-58775600D03*
X129794000Y-58775600D03*
D24*
X105460800Y-102006400D03*
D25*
X108000800Y-102006400D03*
X110540800Y-102006400D03*
X113080800Y-102006400D03*
D22*
X96875600Y-86360000D03*
D23*
X96875600Y-88900000D03*
X96875600Y-91440000D03*
X96875600Y-93980000D03*
D26*
X129860000Y-71170800D03*
X131760000Y-71170800D03*
D27*
X139942000Y-62433200D03*
X138442000Y-62433200D03*
D28*
X126339600Y-86324400D03*
X126339600Y-88224400D03*
X120751600Y-102854800D03*
X120751600Y-100954800D03*
X117805200Y-102854800D03*
X117805200Y-100954800D03*
D27*
X158128400Y-87985600D03*
X156628400Y-87985600D03*
X158128400Y-85191600D03*
X156628400Y-85191600D03*
X158128400Y-82651600D03*
X156628400Y-82651600D03*
X157976000Y-80010000D03*
X156476000Y-80010000D03*
D28*
X163880800Y-62265600D03*
X163880800Y-60365600D03*
X104394000Y-79009200D03*
X104394000Y-80909200D03*
D29*
X153710800Y-80264000D03*
X146110800Y-80264000D03*
X153710800Y-82804000D03*
X146110800Y-82804000D03*
X153710800Y-85344000D03*
X146110800Y-85344000D03*
X153710800Y-87884000D03*
X146110800Y-87884000D03*
D30*
X110661200Y-81808400D03*
X106661200Y-81808400D03*
X110661200Y-90708400D03*
X106661200Y-90708400D03*
D31*
X103395600Y-68188800D03*
X103395600Y-69138800D03*
X103395600Y-70088800D03*
X105595600Y-70088800D03*
X105595600Y-68188800D03*
D32*
X127518400Y-77257600D03*
X127518400Y-76757600D03*
X127518400Y-76257600D03*
X127518400Y-75757600D03*
X127518400Y-75257600D03*
X127518400Y-74757600D03*
X127518400Y-74257600D03*
X127518400Y-73757600D03*
X127518400Y-73257600D03*
X127518400Y-72757600D03*
X127518400Y-72257600D03*
X127518400Y-71757600D03*
X127518400Y-71257600D03*
X127518400Y-70757600D03*
X127518400Y-70257600D03*
X127518400Y-69757600D03*
D33*
X125568400Y-67807600D03*
X125068400Y-67807600D03*
X124568400Y-67807600D03*
X124068400Y-67807600D03*
X123568400Y-67807600D03*
X123068400Y-67807600D03*
X122568400Y-67807600D03*
X122068400Y-67807600D03*
X121568400Y-67807600D03*
X121068400Y-67807600D03*
X120568400Y-67807600D03*
X120068400Y-67807600D03*
X119568400Y-67807600D03*
X119068400Y-67807600D03*
X118568400Y-67807600D03*
X118068400Y-67807600D03*
D32*
X116118400Y-69757600D03*
X116118400Y-70257600D03*
X116118400Y-70757600D03*
X116118400Y-71257600D03*
X116118400Y-71757600D03*
X116118400Y-72257600D03*
X116118400Y-72757600D03*
X116118400Y-73257600D03*
X116118400Y-73757600D03*
X116118400Y-74257600D03*
X116118400Y-74757600D03*
X116118400Y-75257600D03*
X116118400Y-75757600D03*
X116118400Y-76257600D03*
X116118400Y-76757600D03*
X116118400Y-77257600D03*
D33*
X118068400Y-79207600D03*
X118568400Y-79207600D03*
X119068400Y-79207600D03*
X119568400Y-79207600D03*
X120068400Y-79207600D03*
X120568400Y-79207600D03*
X121068400Y-79207600D03*
X121568400Y-79207600D03*
X122068400Y-79207600D03*
X122568400Y-79207600D03*
X123068400Y-79207600D03*
X123568400Y-79207600D03*
X124068400Y-79207600D03*
X124568400Y-79207600D03*
X125068400Y-79207600D03*
X125568400Y-79207600D03*
D34*
X156504560Y-73116440D03*
X155504560Y-73116440D03*
X154204560Y-73116440D03*
X153004560Y-73116440D03*
X151804560Y-73116440D03*
X150604560Y-73116440D03*
X149304560Y-73116440D03*
D35*
X159104560Y-70316440D03*
X159104560Y-69116440D03*
X159104560Y-67916440D03*
X159104560Y-66716440D03*
X159104560Y-65516440D03*
X159104560Y-64316440D03*
X159104560Y-63116440D03*
X159104560Y-61916440D03*
X159104560Y-59516440D03*
X159104560Y-60716440D03*
X159104560Y-58316440D03*
X159104560Y-57116440D03*
X145704560Y-57116440D03*
X145704560Y-58316440D03*
X145704560Y-60716440D03*
X145704560Y-59516440D03*
X145704560Y-61916440D03*
X145704560Y-63116440D03*
X145704560Y-64316440D03*
X145704560Y-65516440D03*
X145704560Y-66716440D03*
X145704560Y-67916440D03*
X145704560Y-69116440D03*
X145704560Y-70316440D03*
D34*
X148304560Y-73116440D03*
D36*
X139473600Y-95360800D03*
X139473600Y-102860800D03*
X139473600Y-99860800D03*
X139473600Y-101360800D03*
X139373600Y-98360800D03*
X139473600Y-105860800D03*
X139473600Y-96860800D03*
X139473600Y-93860800D03*
X139473600Y-104360800D03*
X139473600Y-92360800D03*
X123873600Y-92360800D03*
X123873600Y-104360800D03*
X123873600Y-93860800D03*
X123873600Y-96860800D03*
X123873600Y-105860800D03*
X123773600Y-98360800D03*
X123873600Y-101360800D03*
X123873600Y-99860800D03*
X123873600Y-102860800D03*
X123873600Y-95360800D03*
D37*
X131873600Y-98310800D03*
D38*
X111269600Y-70751600D03*
X113469600Y-70751600D03*
X111269600Y-69151600D03*
X113469600Y-69151600D03*
D11*
X96469200Y-55372000D03*
D39*
X126339600Y-97028000D03*
X145542000Y-98856800D03*
X145897600Y-107848400D03*
X145623600Y-99110800D03*
X122123200Y-58724800D03*
X127355600Y-54051200D03*
X131927600Y-91338400D03*
X128574800Y-101752400D03*
X130606800Y-76250800D03*
X121716800Y-80822800D03*
X129743200Y-93522800D03*
X108712000Y-85547200D03*
X137668000Y-69697600D03*
X114468400Y-64922400D03*
X119938800Y-63957200D03*
X119075200Y-72390000D03*
X111269600Y-69151600D03*
X113469600Y-70751600D03*
X113272000Y-72440800D03*
X103395600Y-69138800D03*
X121361200Y-70053200D03*
X112877600Y-76403200D03*
X109728000Y-74066400D03*
X166979600Y-62484000D03*
X154838400Y-60096400D03*
X104394000Y-78892400D03*
X107356398Y-69799200D03*
X121564400Y-65430400D03*
X123545600Y-77622400D03*
X130505200Y-69392800D03*
X117348000Y-71628000D03*
X108356400Y-71831200D03*
X115773200Y-84023200D03*
X122732800Y-81737200D03*
X121513600Y-82499200D03*
X121716800Y-83616800D03*
X121056400Y-84378800D03*
X118973600Y-87477600D03*
X120040400Y-87477600D03*
X118059200Y-88900000D03*
X117957600Y-89865200D03*
X120853200Y-99923600D03*
X124663200Y-70358000D03*
X123393200Y-70916800D03*
X117906800Y-99771200D03*
X122682000Y-75234800D03*
X119126000Y-77876400D03*
X157683200Y-61925200D03*
X156718000Y-66395600D03*
X148183600Y-60604400D03*
X150977600Y-59537600D03*
X136906000Y-71577200D03*
X154025600Y-70256400D03*
X153466800Y-69088000D03*
X135991600Y-71120000D03*
D40*
X123873600Y-96860800D02*
X126172400Y-96860800D01*
X126172400Y-96860800D02*
X126339600Y-97028000D01*
X168413600Y-99110800D02*
X168413600Y-104687200D01*
X145542000Y-98856800D02*
X145623600Y-98938400D01*
X147828000Y-109778800D02*
X145897600Y-107848400D01*
X163322000Y-109778800D02*
X147828000Y-109778800D01*
X168413600Y-104687200D02*
X163322000Y-109778800D01*
X145623600Y-98938400D02*
X145623600Y-99110800D01*
D41*
X142595600Y-102526400D02*
X142595600Y-100634800D01*
X144119600Y-99110800D02*
X145623600Y-99110800D01*
X142595600Y-100634800D02*
X144119600Y-99110800D01*
D40*
X140106400Y-87020400D02*
X143662400Y-83464400D01*
X143662400Y-77571600D02*
X146870800Y-74363200D01*
X143662400Y-83464400D02*
X143662400Y-77571600D01*
X159104560Y-67916440D02*
X160677240Y-67916440D01*
D41*
X155803600Y-75082400D02*
X155092400Y-74371200D01*
X160680400Y-75082400D02*
X155803600Y-75082400D01*
X162560000Y-73202800D02*
X160680400Y-75082400D01*
D40*
X162560000Y-69799200D02*
X162560000Y-73202800D01*
X160677240Y-67916440D02*
X162560000Y-69799200D01*
X145704560Y-57116440D02*
X142639320Y-54051200D01*
X122174000Y-58724800D02*
X122224800Y-58775600D01*
X122123200Y-58724800D02*
X122174000Y-58724800D01*
X142639320Y-54051200D02*
X127355600Y-54051200D01*
X139473600Y-93860800D02*
X134450000Y-93860800D01*
X134450000Y-93860800D02*
X131927600Y-91338400D01*
D41*
X139473600Y-104360800D02*
X142664000Y-104360800D01*
X142664000Y-104360800D02*
X151823600Y-104360800D01*
X151823600Y-104360800D02*
X157073600Y-99110800D01*
X128574800Y-101752400D02*
X131183200Y-104360800D01*
X131183200Y-104360800D02*
X139473600Y-104360800D01*
X127466400Y-102860800D02*
X123873600Y-102860800D01*
X128574800Y-101752400D02*
X127466400Y-102860800D01*
X155504560Y-73116440D02*
X155504560Y-73959040D01*
X155092400Y-74371200D02*
X149304560Y-74371200D01*
X155504560Y-73959040D02*
X155092400Y-74371200D01*
D40*
X119853200Y-64008000D02*
X119853200Y-60994800D01*
X122072400Y-58775600D02*
X122224800Y-58775600D01*
X122224800Y-58775600D02*
X129794000Y-58775600D01*
X119853200Y-60994800D02*
X122072400Y-58775600D01*
D42*
X121068400Y-79207600D02*
X121068400Y-80174400D01*
X130556000Y-76301600D02*
X130556000Y-76403200D01*
X130606800Y-76250800D02*
X130556000Y-76301600D01*
X121068400Y-80174400D02*
X121716800Y-80822800D01*
D41*
X132165600Y-86156800D02*
X132165600Y-77809600D01*
D42*
X130613600Y-76257600D02*
X127518400Y-76257600D01*
X132165600Y-77809600D02*
X130613600Y-76257600D01*
D40*
X140106400Y-87020400D02*
X133029200Y-87020400D01*
X133029200Y-87020400D02*
X132165600Y-86156800D01*
X123873600Y-95360800D02*
X127905200Y-95360800D01*
X127905200Y-95360800D02*
X129743200Y-93522800D01*
D41*
X149304560Y-73116440D02*
X149304560Y-74371200D01*
X149304560Y-74371200D02*
X149304560Y-74418640D01*
X149304560Y-74418640D02*
X146926240Y-74418640D01*
X146926240Y-74418640D02*
X146870800Y-74363200D01*
X146870800Y-74363200D02*
X143256000Y-70748400D01*
D40*
X143256000Y-70748400D02*
X144678400Y-70748400D01*
X144678400Y-70748400D02*
X145272600Y-70748400D01*
X145272600Y-70748400D02*
X145704560Y-70316440D01*
X110661200Y-90708400D02*
X110661200Y-91980000D01*
X110661200Y-91980000D02*
X108661200Y-93980000D01*
X108661200Y-93980000D02*
X96875600Y-93980000D01*
X110661200Y-83598000D02*
X110661200Y-81808400D01*
X108712000Y-85547200D02*
X110661200Y-83598000D01*
X137629200Y-69658800D02*
X133451600Y-69658800D01*
X137668000Y-69697600D02*
X137629200Y-69658800D01*
X112522000Y-64922400D02*
X111518000Y-65926400D01*
X111518000Y-67462400D02*
X111518000Y-65926400D01*
X114468400Y-64922400D02*
X112522000Y-64922400D01*
X119938800Y-63957200D02*
X119904000Y-63957200D01*
X119904000Y-63957200D02*
X119853200Y-64008000D01*
X115062000Y-97774000D02*
X117301200Y-97774000D01*
X117301200Y-97774000D02*
X117449600Y-97625600D01*
X113080800Y-102006400D02*
X113080800Y-101994400D01*
X113080800Y-101994400D02*
X117449600Y-97625600D01*
D42*
X116118400Y-72757600D02*
X118707600Y-72757600D01*
X118707600Y-72757600D02*
X119075200Y-72390000D01*
X116118400Y-70757600D02*
X117442800Y-70757600D01*
X117442800Y-70757600D02*
X119075200Y-72390000D01*
D40*
X110661200Y-90708400D02*
X110661200Y-95319600D01*
X113115600Y-97774000D02*
X117301200Y-97774000D01*
X110661200Y-95319600D02*
X113115600Y-97774000D01*
X117301200Y-97774000D02*
X118583200Y-97774000D01*
X120996400Y-95360800D02*
X123873600Y-95360800D01*
X118583200Y-97774000D02*
X120996400Y-95360800D01*
D42*
X127518400Y-71757600D02*
X123065600Y-71757600D01*
X123065600Y-71757600D02*
X121361200Y-70053200D01*
X118068400Y-67807600D02*
X118068400Y-68690800D01*
X119430800Y-70053200D02*
X121361200Y-70053200D01*
X118068400Y-68690800D02*
X119430800Y-70053200D01*
D41*
X100482400Y-66716400D02*
X99317200Y-66716400D01*
X99317200Y-66716400D02*
X97891600Y-68142000D01*
D42*
X111269600Y-67710800D02*
X111269600Y-69151600D01*
X97891600Y-71942000D02*
X97891600Y-73142000D01*
X120568400Y-67807600D02*
X120568400Y-69260400D01*
X120568400Y-69260400D02*
X121361200Y-70053200D01*
D41*
X110661200Y-81808400D02*
X110661200Y-90708400D01*
D42*
X111269600Y-67710800D02*
X111518000Y-67462400D01*
D41*
X100482400Y-66716400D02*
X101057200Y-66141600D01*
X101057200Y-66141600D02*
X102983600Y-66141600D01*
D42*
X103395600Y-70088800D02*
X104495600Y-70088800D01*
X103395600Y-68188800D02*
X104002800Y-68188800D01*
X113023200Y-76257600D02*
X116118400Y-76257600D01*
X112877600Y-76403200D02*
X113023200Y-76257600D01*
X106019600Y-74066400D02*
X109728000Y-74066400D01*
X104546400Y-72593200D02*
X106019600Y-74066400D01*
X104546400Y-71983600D02*
X104546400Y-72593200D01*
X104495600Y-71932800D02*
X104546400Y-71983600D01*
X104495600Y-68681600D02*
X104495600Y-70088800D01*
X104495600Y-70088800D02*
X104495600Y-71932800D01*
X104002800Y-68188800D02*
X104495600Y-68681600D01*
D41*
X100482400Y-68716400D02*
X101010000Y-68188800D01*
X101010000Y-68188800D02*
X103395600Y-68188800D01*
X97891600Y-69342000D02*
X99856800Y-69342000D01*
X99856800Y-69342000D02*
X100482400Y-68716400D01*
D42*
X145704560Y-69116440D02*
X150745960Y-69116440D01*
X166979600Y-63903860D02*
X163880800Y-67002660D01*
X166979600Y-62484000D02*
X166979600Y-63903860D01*
X153416000Y-61518800D02*
X154838400Y-60096400D01*
X153416000Y-66446400D02*
X153416000Y-61518800D01*
X150745960Y-69116440D02*
X153416000Y-66446400D01*
X157976000Y-80010000D02*
X163880800Y-74105200D01*
X163880800Y-74105200D02*
X163880800Y-67002660D01*
X158128400Y-82651600D02*
X157976000Y-82499200D01*
X157976000Y-82499200D02*
X157976000Y-80010000D01*
X158128400Y-85191600D02*
X158128400Y-82651600D01*
X158128400Y-87985600D02*
X158128400Y-85191600D01*
D40*
X137414000Y-58775600D02*
X137414000Y-61405200D01*
X137414000Y-61405200D02*
X138442000Y-62433200D01*
X138442000Y-62433200D02*
X138442000Y-66236400D01*
X138442000Y-66236400D02*
X140954000Y-68748400D01*
X137414000Y-58775600D02*
X137414000Y-57404000D01*
X108356400Y-57708800D02*
X108356400Y-66056000D01*
X110591600Y-55473600D02*
X108356400Y-57708800D01*
X135483600Y-55473600D02*
X110591600Y-55473600D01*
X137414000Y-57404000D02*
X135483600Y-55473600D01*
D42*
X127518400Y-76757600D02*
X122022800Y-76757600D01*
X122022800Y-76757600D02*
X120568400Y-78212000D01*
D40*
X140106400Y-74320400D02*
X140106400Y-69596000D01*
X140106400Y-69596000D02*
X140954000Y-68748400D01*
X105595600Y-68188800D02*
X105745998Y-68188800D01*
X105745998Y-68188800D02*
X107356398Y-69799200D01*
X104394000Y-78892400D02*
X104394000Y-79009200D01*
X96875600Y-86360000D02*
X96875600Y-82296000D01*
X100162400Y-79009200D02*
X104394000Y-79009200D01*
X96875600Y-82296000D02*
X100162400Y-79009200D01*
X96875600Y-86360000D02*
X95605600Y-86360000D01*
X95250000Y-102006400D02*
X105460800Y-102006400D01*
X93878400Y-100634800D02*
X95250000Y-102006400D01*
X93878400Y-88087200D02*
X93878400Y-100634800D01*
X95605600Y-86360000D02*
X93878400Y-88087200D01*
X140954000Y-68748400D02*
X143256000Y-68748400D01*
D42*
X129860000Y-71170800D02*
X129743200Y-71170800D01*
X129743200Y-71170800D02*
X128656400Y-72257600D01*
X128656400Y-72257600D02*
X127518400Y-72257600D01*
D41*
X143256000Y-68748400D02*
X143624040Y-69116440D01*
X143624040Y-69116440D02*
X145704560Y-69116440D01*
X108356400Y-66056000D02*
X108356400Y-64820800D01*
X114639600Y-63093600D02*
X116468400Y-64922400D01*
X110083600Y-63093600D02*
X114639600Y-63093600D01*
X108356400Y-64820800D02*
X110083600Y-63093600D01*
D42*
X120568400Y-79207600D02*
X120568400Y-78212000D01*
X120568400Y-78212000D02*
X120568400Y-74249600D01*
X120568400Y-74249600D02*
X120568400Y-74257600D01*
X127518400Y-72257600D02*
X121493600Y-72257600D01*
X121493600Y-72257600D02*
X121056400Y-72694800D01*
D41*
X116468400Y-64922400D02*
X116468400Y-68106800D01*
X116468400Y-68106800D02*
X121056400Y-72694800D01*
D42*
X120560400Y-74257600D02*
X120568400Y-74257600D01*
X120568400Y-74257600D02*
X116118400Y-74257600D01*
X121056400Y-73761600D02*
X120560400Y-74257600D01*
X121056400Y-72694800D02*
X121056400Y-73761600D01*
D41*
X116468400Y-64922400D02*
X116976400Y-65430400D01*
X116976400Y-65430400D02*
X120599200Y-65430400D01*
D42*
X120599200Y-65430400D02*
X121068400Y-65899600D01*
X121068400Y-65899600D02*
X121068400Y-67807600D01*
D41*
X108356400Y-66056000D02*
X106499600Y-66056000D01*
X106499600Y-66056000D02*
X105448800Y-67106800D01*
X104483600Y-66141600D02*
X105448800Y-67106800D01*
X105448800Y-67106800D02*
X105595600Y-67253600D01*
X105595600Y-67253600D02*
X105595600Y-68188800D01*
D42*
X121568400Y-79207600D02*
X121568400Y-78329600D01*
X121568400Y-65426400D02*
X121568400Y-64820800D01*
X121564400Y-65430400D02*
X121568400Y-65426400D01*
X122275600Y-77622400D02*
X123545600Y-77622400D01*
X121568400Y-78329600D02*
X122275600Y-77622400D01*
X121853200Y-64008000D02*
X121568400Y-64292800D01*
X121568400Y-64292800D02*
X121568400Y-64820800D01*
X121568400Y-64820800D02*
X121568400Y-67807600D01*
X113018000Y-67462400D02*
X114249200Y-67462400D01*
X114912798Y-73307598D02*
X116118400Y-73307598D01*
X114808000Y-73202800D02*
X114912798Y-73307598D01*
X114808000Y-68021200D02*
X114808000Y-73202800D01*
X114249200Y-67462400D02*
X114808000Y-68021200D01*
X116118400Y-73307598D02*
X116118400Y-73257600D01*
X113018000Y-67462400D02*
X113469600Y-67914000D01*
X113469600Y-67914000D02*
X113469600Y-69151600D01*
D40*
X131760000Y-71170800D02*
X133439600Y-71170800D01*
X133439600Y-71170800D02*
X133451600Y-71158800D01*
D42*
X116118400Y-72257600D02*
X116718400Y-72257600D01*
X130505200Y-69392800D02*
X131760000Y-70647600D01*
X116718400Y-72257600D02*
X117348000Y-71628000D01*
X131760000Y-70647600D02*
X131760000Y-71170800D01*
X131760000Y-71170800D02*
X131772000Y-71182800D01*
X113546000Y-73757600D02*
X113088800Y-73757600D01*
X116118400Y-73757600D02*
X113546000Y-73757600D01*
X113038000Y-73706800D02*
X111772000Y-72440800D01*
X113088800Y-73757600D02*
X113038000Y-73706800D01*
X111269600Y-70751600D02*
X111269600Y-71938400D01*
X111269600Y-71938400D02*
X111772000Y-72440800D01*
D40*
X117449600Y-96125600D02*
X117449600Y-93268800D01*
X117449600Y-93268800D02*
X118357600Y-92360800D01*
X108356400Y-68056000D02*
X108356400Y-71831200D01*
X115773200Y-84023200D02*
X115773200Y-90119200D01*
X115773200Y-90119200D02*
X118014800Y-92360800D01*
X118014800Y-92360800D02*
X118357600Y-92360800D01*
X118357600Y-92360800D02*
X123873600Y-92360800D01*
D41*
X115062000Y-95774000D02*
X115413600Y-96125600D01*
X115413600Y-96125600D02*
X117449600Y-96125600D01*
D42*
X97891600Y-69992000D02*
X99862400Y-69992000D01*
X104628000Y-74757600D02*
X116118400Y-74757600D01*
X99862400Y-69992000D02*
X104628000Y-74757600D01*
X97891600Y-70642000D02*
X99852000Y-70642000D01*
X104467600Y-75257600D02*
X116118400Y-75257600D01*
X99852000Y-70642000D02*
X104467600Y-75257600D01*
X97891600Y-71292000D02*
X99587600Y-71292000D01*
X104053200Y-75757600D02*
X116118400Y-75757600D01*
X99587600Y-71292000D02*
X104053200Y-75757600D01*
D41*
X130165600Y-86156800D02*
X126507200Y-86156800D01*
X126507200Y-86156800D02*
X126339600Y-86324400D01*
D42*
X163880800Y-62265600D02*
X163880800Y-64162940D01*
X119568400Y-79917602D02*
X119568400Y-79207600D01*
X121387998Y-81737200D02*
X119568400Y-79917602D01*
X122732800Y-81737200D02*
X121387998Y-81737200D01*
X119068400Y-79207600D02*
X119068400Y-80054000D01*
X119068400Y-80054000D02*
X121513600Y-82499200D01*
X118568400Y-79207600D02*
X118568400Y-80468400D01*
X118568400Y-80468400D02*
X121716800Y-83616800D01*
X118068400Y-79207600D02*
X118068400Y-81390800D01*
X118068400Y-81390800D02*
X121056400Y-84378800D01*
X125568400Y-67807600D02*
X125568400Y-67014400D01*
X128981200Y-64668400D02*
X134874000Y-58775600D01*
X127914400Y-64668400D02*
X128981200Y-64668400D01*
X125568400Y-67014400D02*
X127914400Y-64668400D01*
X132334000Y-58775600D02*
X132334000Y-60350400D01*
X125068400Y-65990400D02*
X125068400Y-67807600D01*
X127304800Y-63754000D02*
X125068400Y-65990400D01*
X128930400Y-63754000D02*
X127304800Y-63754000D01*
X132334000Y-60350400D02*
X128930400Y-63754000D01*
X124068400Y-79207600D02*
X124068400Y-82382800D01*
X124068400Y-82382800D02*
X118973600Y-87477600D01*
X124618398Y-82899602D02*
X124618398Y-79207600D01*
X120040400Y-87477600D02*
X124618398Y-82899602D01*
X124618398Y-79207600D02*
X124568400Y-79207600D01*
X124618398Y-79207600D02*
X124568400Y-79207600D01*
X125068400Y-79207600D02*
X125068400Y-83414800D01*
X119583200Y-88900000D02*
X118059200Y-88900000D01*
X125068400Y-83414800D02*
X119583200Y-88900000D01*
X125568400Y-83981600D02*
X125568400Y-79207600D01*
X119684800Y-89865200D02*
X125568400Y-83981600D01*
X117957600Y-89865200D02*
X119684800Y-89865200D01*
X139942000Y-62433200D02*
X140458760Y-61916440D01*
X140458760Y-61916440D02*
X145704560Y-61916440D01*
X123773600Y-98360800D02*
X128867600Y-98360800D01*
X130708400Y-92593200D02*
X126339600Y-88224400D01*
X130708400Y-96520000D02*
X130708400Y-92593200D01*
X128867600Y-98360800D02*
X130708400Y-96520000D01*
X123873600Y-104360800D02*
X122257600Y-104360800D01*
X122257600Y-104360800D02*
X120751600Y-102854800D01*
X127518400Y-69757600D02*
X125263600Y-69757600D01*
X120751600Y-100025200D02*
X120751600Y-100954800D01*
X120853200Y-99923600D02*
X120751600Y-100025200D01*
X125263600Y-69757600D02*
X124663200Y-70358000D01*
X123873600Y-105860800D02*
X120811200Y-105860800D01*
X120811200Y-105860800D02*
X117805200Y-102854800D01*
X117805200Y-100954800D02*
X117805200Y-99872800D01*
X125779600Y-70257600D02*
X127518400Y-70257600D01*
X124968000Y-71069200D02*
X125779600Y-70257600D01*
X123545600Y-71069200D02*
X124968000Y-71069200D01*
X123393200Y-70916800D02*
X123545600Y-71069200D01*
X117805200Y-99872800D02*
X117906800Y-99771200D01*
X153710800Y-87884000D02*
X153812400Y-87985600D01*
X153812400Y-87985600D02*
X156628400Y-87985600D01*
X153710800Y-85344000D02*
X153863200Y-85191600D01*
X153863200Y-85191600D02*
X156628400Y-85191600D01*
X153710800Y-82804000D02*
X153863200Y-82651600D01*
X153863200Y-82651600D02*
X156628400Y-82651600D01*
X153710800Y-80264000D02*
X153964800Y-80010000D01*
X153964800Y-80010000D02*
X156476000Y-80010000D01*
X159104560Y-60716440D02*
X163529960Y-60716440D01*
X163529960Y-60716440D02*
X163880800Y-60365600D01*
X106661200Y-81808400D02*
X110593200Y-77876400D01*
X122682000Y-75234800D02*
X127495600Y-75234800D01*
X110593200Y-77876400D02*
X119126000Y-77876400D01*
X127495600Y-75234800D02*
X127518400Y-75257600D01*
X106661200Y-90708400D02*
X106661200Y-81808400D01*
X106661200Y-81808400D02*
X105762000Y-80909200D01*
X105762000Y-80909200D02*
X104394000Y-80909200D01*
X157683200Y-61925200D02*
X157691960Y-61916440D01*
X157691960Y-61916440D02*
X159104560Y-61916440D01*
X157450360Y-59516440D02*
X159104560Y-59516440D01*
X156718000Y-60248800D02*
X157450360Y-59516440D01*
X156718000Y-66395600D02*
X156718000Y-60248800D01*
X148183600Y-60604400D02*
X145816600Y-60604400D01*
X145816600Y-60604400D02*
X145704560Y-60716440D01*
D41*
X145704560Y-59516440D02*
X145725720Y-59537600D01*
D42*
X145725720Y-59537600D02*
X150977600Y-59537600D01*
X159104560Y-70316440D02*
X154085640Y-70316440D01*
X134725600Y-73757600D02*
X127518400Y-73757600D01*
X136906000Y-71577200D02*
X134725600Y-73757600D01*
X154085640Y-70316440D02*
X154025600Y-70256400D01*
X127518400Y-73257600D02*
X133854000Y-73257600D01*
X153495240Y-69116440D02*
X159104560Y-69116440D01*
X153466800Y-69088000D02*
X153495240Y-69116440D01*
X133854000Y-73257600D02*
X135991600Y-71120000D01*
D43*
G36*
X94695685Y-52712727D02*
X93813026Y-53593847D01*
X93334746Y-54745674D01*
X93333657Y-55992854D01*
X93809927Y-57145515D01*
X94691047Y-58028174D01*
X95842874Y-58506454D01*
X97090054Y-58507543D01*
X98242715Y-58031273D01*
X99125374Y-57150153D01*
X99603654Y-55998326D01*
X99604743Y-54751146D01*
X99128473Y-53598485D01*
X98247353Y-52715826D01*
X97120220Y-52247800D01*
X171475400Y-52247800D01*
X171475400Y-109905800D01*
X164658712Y-109905800D01*
X169145453Y-105419058D01*
X169145456Y-105419056D01*
X169369815Y-105083277D01*
X169404410Y-104909359D01*
X169448601Y-104687200D01*
X169448600Y-104687195D01*
X169448600Y-102308240D01*
X169663600Y-102308240D01*
X169898917Y-102263962D01*
X170115041Y-102124890D01*
X170260031Y-101912690D01*
X170311040Y-101660800D01*
X170311040Y-96560800D01*
X170266762Y-96325483D01*
X170127690Y-96109359D01*
X169915490Y-95964369D01*
X169663600Y-95913360D01*
X167163600Y-95913360D01*
X166928283Y-95957638D01*
X166712159Y-96096710D01*
X166567169Y-96308910D01*
X166516160Y-96560800D01*
X166516160Y-97102890D01*
X165295734Y-93923321D01*
X165012680Y-93499701D01*
X163924905Y-92439100D01*
X157253205Y-99110800D01*
X163924905Y-105782500D01*
X165012680Y-104721899D01*
X166516160Y-101345265D01*
X166516160Y-101660800D01*
X166560438Y-101896117D01*
X166699510Y-102112241D01*
X166911710Y-102257231D01*
X167163600Y-102308240D01*
X167378600Y-102308240D01*
X167378600Y-104258489D01*
X162893288Y-108743800D01*
X148256711Y-108743800D01*
X146629456Y-107116544D01*
X146293677Y-106892185D01*
X145897600Y-106813399D01*
X145501523Y-106892185D01*
X145165744Y-107116544D01*
X144941385Y-107452323D01*
X144862599Y-107848400D01*
X144941385Y-108244477D01*
X145165744Y-108580256D01*
X146491289Y-109905800D01*
X97778041Y-109905800D01*
X98515774Y-109169353D01*
X98994054Y-108017526D01*
X98995143Y-106770346D01*
X98518873Y-105617685D01*
X97637753Y-104735026D01*
X96485926Y-104256746D01*
X95238746Y-104255657D01*
X94086085Y-104731927D01*
X93203426Y-105613047D01*
X92725146Y-106764874D01*
X92724057Y-108012054D01*
X93200327Y-109164715D01*
X93940120Y-109905800D01*
X92075000Y-109905800D01*
X92075000Y-88087200D01*
X92843399Y-88087200D01*
X92843400Y-88087205D01*
X92843400Y-100634795D01*
X92843399Y-100634800D01*
X92922185Y-101030877D01*
X93146544Y-101366656D01*
X94518142Y-102738253D01*
X94518144Y-102738256D01*
X94719429Y-102872749D01*
X94853922Y-102962615D01*
X95250000Y-103041400D01*
X103953335Y-103041400D01*
X103994038Y-103257717D01*
X104133110Y-103473841D01*
X104345310Y-103618831D01*
X104597200Y-103669840D01*
X106324400Y-103669840D01*
X106559717Y-103625562D01*
X106775841Y-103486490D01*
X106920831Y-103274290D01*
X106929200Y-103232961D01*
X106941130Y-103250815D01*
X107427311Y-103575671D01*
X108000800Y-103689745D01*
X108574289Y-103575671D01*
X109060470Y-103250815D01*
X109270800Y-102936034D01*
X109481130Y-103250815D01*
X109967311Y-103575671D01*
X110540800Y-103689745D01*
X111114289Y-103575671D01*
X111600470Y-103250815D01*
X111807261Y-102941331D01*
X112178764Y-103357132D01*
X112706009Y-103611109D01*
X112721774Y-103613758D01*
X112953800Y-103492617D01*
X112953800Y-102133400D01*
X113207800Y-102133400D01*
X113207800Y-103492617D01*
X113439826Y-103613758D01*
X113455591Y-103611109D01*
X113982836Y-103357132D01*
X114372754Y-102920720D01*
X114565984Y-102368313D01*
X114421724Y-102133400D01*
X113207800Y-102133400D01*
X112953800Y-102133400D01*
X112933800Y-102133400D01*
X112933800Y-101879400D01*
X112953800Y-101879400D01*
X112953800Y-100520183D01*
X113207800Y-100520183D01*
X113207800Y-101879400D01*
X114421724Y-101879400D01*
X114565984Y-101644487D01*
X114372754Y-101092080D01*
X113982836Y-100655668D01*
X113877237Y-100604800D01*
X116507760Y-100604800D01*
X116507760Y-101304800D01*
X116552038Y-101540117D01*
X116691110Y-101756241D01*
X116903310Y-101901231D01*
X116916397Y-101903881D01*
X116703759Y-102040710D01*
X116558769Y-102252910D01*
X116507760Y-102504800D01*
X116507760Y-103204800D01*
X116552038Y-103440117D01*
X116691110Y-103656241D01*
X116903310Y-103801231D01*
X117155200Y-103852240D01*
X117727838Y-103852240D01*
X120273799Y-106398201D01*
X120520361Y-106562948D01*
X120811200Y-106620800D01*
X122286321Y-106620800D01*
X122409510Y-106812241D01*
X122621710Y-106957231D01*
X122873600Y-107008240D01*
X124873600Y-107008240D01*
X125108917Y-106963962D01*
X125325041Y-106824890D01*
X125470031Y-106612690D01*
X125521040Y-106360800D01*
X125521040Y-105360800D01*
X137826160Y-105360800D01*
X137826160Y-106360800D01*
X137870438Y-106596117D01*
X138009510Y-106812241D01*
X138221710Y-106957231D01*
X138473600Y-107008240D01*
X140473600Y-107008240D01*
X140708917Y-106963962D01*
X140925041Y-106824890D01*
X141070031Y-106612690D01*
X141121040Y-106360800D01*
X141121040Y-105962105D01*
X150401900Y-105962105D01*
X151462501Y-107049880D01*
X154927775Y-108592828D01*
X158719731Y-108692223D01*
X162261079Y-107332934D01*
X162684699Y-107049880D01*
X163745300Y-105962105D01*
X157073600Y-99290405D01*
X150401900Y-105962105D01*
X141121040Y-105962105D01*
X141121040Y-105360800D01*
X141076762Y-105125483D01*
X141061262Y-105101395D01*
X141108600Y-104987110D01*
X141108600Y-104646550D01*
X140949850Y-104487800D01*
X139600600Y-104487800D01*
X139600600Y-104507800D01*
X139346600Y-104507800D01*
X139346600Y-104487800D01*
X137997350Y-104487800D01*
X137838600Y-104646550D01*
X137838600Y-104987110D01*
X137884567Y-105098083D01*
X137877169Y-105108910D01*
X137826160Y-105360800D01*
X125521040Y-105360800D01*
X125476762Y-105125483D01*
X125469258Y-105113821D01*
X125470031Y-105112690D01*
X125521040Y-104860800D01*
X125521040Y-104312150D01*
X141585600Y-104312150D01*
X141585600Y-104552709D01*
X141682273Y-104786098D01*
X141860901Y-104964727D01*
X142094290Y-105061400D01*
X142309850Y-105061400D01*
X142468600Y-104902650D01*
X142468600Y-104153400D01*
X142722600Y-104153400D01*
X142722600Y-104902650D01*
X142881350Y-105061400D01*
X143096910Y-105061400D01*
X143330299Y-104964727D01*
X143508927Y-104786098D01*
X143605600Y-104552709D01*
X143605600Y-104312150D01*
X143446850Y-104153400D01*
X142722600Y-104153400D01*
X142468600Y-104153400D01*
X141744350Y-104153400D01*
X141585600Y-104312150D01*
X125521040Y-104312150D01*
X125521040Y-103860800D01*
X125476762Y-103625483D01*
X125461262Y-103601395D01*
X125508600Y-103487110D01*
X125508600Y-103146550D01*
X125349850Y-102987800D01*
X124000600Y-102987800D01*
X124000600Y-103007800D01*
X123746600Y-103007800D01*
X123746600Y-102987800D01*
X122397350Y-102987800D01*
X122238600Y-103146550D01*
X122238600Y-103266998D01*
X122049040Y-103077438D01*
X122049040Y-102504800D01*
X122004762Y-102269483D01*
X121865690Y-102053359D01*
X121653490Y-101908369D01*
X121640403Y-101905719D01*
X121853041Y-101768890D01*
X121998031Y-101556690D01*
X122049040Y-101304800D01*
X122049040Y-100604800D01*
X122004762Y-100369483D01*
X121865690Y-100153359D01*
X121788047Y-100100308D01*
X121788362Y-99738433D01*
X121646317Y-99394657D01*
X121383527Y-99131408D01*
X121039999Y-98988762D01*
X120668033Y-98988438D01*
X120324257Y-99130483D01*
X120061008Y-99393273D01*
X119918362Y-99736801D01*
X119918140Y-99991880D01*
X119866283Y-100001638D01*
X119650159Y-100140710D01*
X119505169Y-100352910D01*
X119454160Y-100604800D01*
X119454160Y-101304800D01*
X119498438Y-101540117D01*
X119637510Y-101756241D01*
X119849710Y-101901231D01*
X119862797Y-101903881D01*
X119650159Y-102040710D01*
X119505169Y-102252910D01*
X119454160Y-102504800D01*
X119454160Y-103204800D01*
X119498438Y-103440117D01*
X119558215Y-103533013D01*
X119102640Y-103077438D01*
X119102640Y-102504800D01*
X119058362Y-102269483D01*
X118919290Y-102053359D01*
X118707090Y-101908369D01*
X118694003Y-101905719D01*
X118906641Y-101768890D01*
X119051631Y-101556690D01*
X119102640Y-101304800D01*
X119102640Y-100604800D01*
X119058362Y-100369483D01*
X118919290Y-100153359D01*
X118795608Y-100068851D01*
X118841638Y-99957999D01*
X118841962Y-99586033D01*
X118699917Y-99242257D01*
X118437127Y-98979008D01*
X118093599Y-98836362D01*
X117721633Y-98836038D01*
X117377857Y-98978083D01*
X117114608Y-99240873D01*
X116971962Y-99584401D01*
X116971638Y-99956367D01*
X116985261Y-99989336D01*
X116919883Y-100001638D01*
X116703759Y-100140710D01*
X116558769Y-100352910D01*
X116507760Y-100604800D01*
X113877237Y-100604800D01*
X113455591Y-100401691D01*
X113439826Y-100399042D01*
X113207800Y-100520183D01*
X112953800Y-100520183D01*
X112721774Y-100399042D01*
X112706009Y-100401691D01*
X112178764Y-100655668D01*
X111807261Y-101071469D01*
X111600470Y-100761985D01*
X111114289Y-100437129D01*
X110540800Y-100323055D01*
X109967311Y-100437129D01*
X109481130Y-100761985D01*
X109270800Y-101076766D01*
X109060470Y-100761985D01*
X108574289Y-100437129D01*
X108000800Y-100323055D01*
X107427311Y-100437129D01*
X106941130Y-100761985D01*
X106931557Y-100776313D01*
X106927562Y-100755083D01*
X106788490Y-100538959D01*
X106576290Y-100393969D01*
X106324400Y-100342960D01*
X104597200Y-100342960D01*
X104361883Y-100387238D01*
X104145759Y-100526310D01*
X104000769Y-100738510D01*
X103953608Y-100971400D01*
X95678711Y-100971400D01*
X94913400Y-100206088D01*
X94913400Y-98059750D01*
X113802000Y-98059750D01*
X113802000Y-98400309D01*
X113898673Y-98633698D01*
X114077301Y-98812327D01*
X114310690Y-98909000D01*
X114776250Y-98909000D01*
X114935000Y-98750250D01*
X114935000Y-97901000D01*
X115189000Y-97901000D01*
X115189000Y-98750250D01*
X115347750Y-98909000D01*
X115813310Y-98909000D01*
X116046699Y-98812327D01*
X116225327Y-98633698D01*
X116322000Y-98400309D01*
X116322000Y-98059750D01*
X116173600Y-97911350D01*
X116439600Y-97911350D01*
X116439600Y-98151909D01*
X116536273Y-98385298D01*
X116714901Y-98563927D01*
X116948290Y-98660600D01*
X117163850Y-98660600D01*
X117322600Y-98501850D01*
X117322600Y-97752600D01*
X117576600Y-97752600D01*
X117576600Y-98501850D01*
X117735350Y-98660600D01*
X117950910Y-98660600D01*
X118184299Y-98563927D01*
X118362927Y-98385298D01*
X118459600Y-98151909D01*
X118459600Y-97911350D01*
X118409050Y-97860800D01*
X122126160Y-97860800D01*
X122126160Y-98860800D01*
X122170438Y-99096117D01*
X122253591Y-99225341D01*
X122226160Y-99360800D01*
X122226160Y-100360800D01*
X122270438Y-100596117D01*
X122277942Y-100607779D01*
X122277169Y-100608910D01*
X122226160Y-100860800D01*
X122226160Y-101860800D01*
X122270438Y-102096117D01*
X122285938Y-102120205D01*
X122238600Y-102234490D01*
X122238600Y-102575050D01*
X122397350Y-102733800D01*
X123746600Y-102733800D01*
X123746600Y-102713800D01*
X124000600Y-102713800D01*
X124000600Y-102733800D01*
X125349850Y-102733800D01*
X125508600Y-102575050D01*
X125508600Y-102234490D01*
X125462633Y-102123517D01*
X125470031Y-102112690D01*
X125521040Y-101860800D01*
X125521040Y-100860800D01*
X125476762Y-100625483D01*
X125469258Y-100613821D01*
X125470031Y-100612690D01*
X125521040Y-100360800D01*
X125521040Y-99360800D01*
X125476762Y-99125483D01*
X125473749Y-99120800D01*
X128867600Y-99120800D01*
X129158439Y-99062948D01*
X129405001Y-98898201D01*
X129747823Y-98555379D01*
X130638386Y-98555379D01*
X130826008Y-99009457D01*
X131173115Y-99357171D01*
X131626866Y-99545585D01*
X132118179Y-99546014D01*
X132572257Y-99358392D01*
X132919971Y-99011285D01*
X133108385Y-98557534D01*
X133108814Y-98066221D01*
X133023936Y-97860800D01*
X137726160Y-97860800D01*
X137726160Y-98860800D01*
X137770438Y-99096117D01*
X137853591Y-99225341D01*
X137826160Y-99360800D01*
X137826160Y-100360800D01*
X137870438Y-100596117D01*
X137877942Y-100607779D01*
X137877169Y-100608910D01*
X137826160Y-100860800D01*
X137826160Y-101860800D01*
X137870438Y-102096117D01*
X137877942Y-102107779D01*
X137877169Y-102108910D01*
X137826160Y-102360800D01*
X137826160Y-103360800D01*
X137870438Y-103596117D01*
X137885938Y-103620205D01*
X137838600Y-103734490D01*
X137838600Y-104075050D01*
X137997350Y-104233800D01*
X139346600Y-104233800D01*
X139346600Y-104213800D01*
X139600600Y-104213800D01*
X139600600Y-104233800D01*
X140949850Y-104233800D01*
X141108600Y-104075050D01*
X141108600Y-103734490D01*
X141062633Y-103623517D01*
X141070031Y-103612690D01*
X141121040Y-103360800D01*
X141121040Y-102360800D01*
X141076935Y-102126400D01*
X141573160Y-102126400D01*
X141573160Y-102926400D01*
X141617438Y-103161717D01*
X141683929Y-103265046D01*
X141682273Y-103266702D01*
X141585600Y-103500091D01*
X141585600Y-103740650D01*
X141744350Y-103899400D01*
X142468600Y-103899400D01*
X142468600Y-103879400D01*
X142722600Y-103879400D01*
X142722600Y-103899400D01*
X143446850Y-103899400D01*
X143605600Y-103740650D01*
X143605600Y-103500091D01*
X143508927Y-103266702D01*
X143507557Y-103265332D01*
X143567031Y-103178290D01*
X143618040Y-102926400D01*
X143618040Y-102126400D01*
X143573762Y-101891083D01*
X143434690Y-101674959D01*
X143430600Y-101672164D01*
X143430600Y-100980668D01*
X143726160Y-100685108D01*
X143726160Y-101660800D01*
X143770438Y-101896117D01*
X143909510Y-102112241D01*
X144121710Y-102257231D01*
X144373600Y-102308240D01*
X146873600Y-102308240D01*
X147108917Y-102263962D01*
X147325041Y-102124890D01*
X147470031Y-101912690D01*
X147521040Y-101660800D01*
X147521040Y-100832128D01*
X148851466Y-104298279D01*
X149134520Y-104721899D01*
X150222295Y-105782500D01*
X156893995Y-99110800D01*
X150222295Y-92439100D01*
X149134520Y-93499701D01*
X147591572Y-96964975D01*
X147521040Y-99655797D01*
X147521040Y-96560800D01*
X147476762Y-96325483D01*
X147337690Y-96109359D01*
X147125490Y-95964369D01*
X146873600Y-95913360D01*
X144373600Y-95913360D01*
X144138283Y-95957638D01*
X143922159Y-96096710D01*
X143777169Y-96308910D01*
X143726160Y-96560800D01*
X143726160Y-98388739D01*
X143618428Y-98460723D01*
X143529166Y-98520366D01*
X142005166Y-100044366D01*
X141824161Y-100315259D01*
X141760600Y-100634800D01*
X141760600Y-101674837D01*
X141624169Y-101874510D01*
X141573160Y-102126400D01*
X141076935Y-102126400D01*
X141076762Y-102125483D01*
X141069258Y-102113821D01*
X141070031Y-102112690D01*
X141121040Y-101860800D01*
X141121040Y-100860800D01*
X141076762Y-100625483D01*
X141069258Y-100613821D01*
X141070031Y-100612690D01*
X141121040Y-100360800D01*
X141121040Y-99360800D01*
X141076762Y-99125483D01*
X140993609Y-98996259D01*
X141021040Y-98860800D01*
X141021040Y-97860800D01*
X140995014Y-97722482D01*
X141070031Y-97612690D01*
X141121040Y-97360800D01*
X141121040Y-96360800D01*
X141076762Y-96125483D01*
X141069258Y-96113821D01*
X141070031Y-96112690D01*
X141121040Y-95860800D01*
X141121040Y-94860800D01*
X141076762Y-94625483D01*
X141061262Y-94601395D01*
X141108600Y-94487110D01*
X141108600Y-94146550D01*
X140949850Y-93987800D01*
X139600600Y-93987800D01*
X139600600Y-94007800D01*
X139346600Y-94007800D01*
X139346600Y-93987800D01*
X137997350Y-93987800D01*
X137838600Y-94146550D01*
X137838600Y-94487110D01*
X137884567Y-94598083D01*
X137877169Y-94608910D01*
X137826160Y-94860800D01*
X137826160Y-95860800D01*
X137870438Y-96096117D01*
X137877942Y-96107779D01*
X137877169Y-96108910D01*
X137826160Y-96360800D01*
X137826160Y-97360800D01*
X137852186Y-97499118D01*
X137777169Y-97608910D01*
X137726160Y-97860800D01*
X133023936Y-97860800D01*
X132921192Y-97612143D01*
X132574085Y-97264429D01*
X132120334Y-97076015D01*
X131629021Y-97075586D01*
X131174943Y-97263208D01*
X130827229Y-97610315D01*
X130638815Y-98064066D01*
X130638386Y-98555379D01*
X129747823Y-98555379D01*
X131245801Y-97057401D01*
X131410548Y-96810840D01*
X131468400Y-96520000D01*
X131468400Y-92593200D01*
X131426928Y-92384709D01*
X131410548Y-92302360D01*
X131245801Y-92055799D01*
X131050802Y-91860800D01*
X137826160Y-91860800D01*
X137826160Y-92860800D01*
X137870438Y-93096117D01*
X137885938Y-93120205D01*
X137838600Y-93234490D01*
X137838600Y-93575050D01*
X137997350Y-93733800D01*
X139346600Y-93733800D01*
X139346600Y-93713800D01*
X139600600Y-93713800D01*
X139600600Y-93733800D01*
X140949850Y-93733800D01*
X141108600Y-93575050D01*
X141108600Y-93234490D01*
X141062633Y-93123517D01*
X141070031Y-93112690D01*
X141121040Y-92860800D01*
X141121040Y-92259495D01*
X150401900Y-92259495D01*
X157073600Y-98931195D01*
X163745300Y-92259495D01*
X162684699Y-91171720D01*
X159219425Y-89628772D01*
X155427469Y-89529377D01*
X151886121Y-90888666D01*
X151462501Y-91171720D01*
X150401900Y-92259495D01*
X141121040Y-92259495D01*
X141121040Y-91860800D01*
X141076762Y-91625483D01*
X140937690Y-91409359D01*
X140725490Y-91264369D01*
X140473600Y-91213360D01*
X138473600Y-91213360D01*
X138238283Y-91257638D01*
X138022159Y-91396710D01*
X137877169Y-91608910D01*
X137826160Y-91860800D01*
X131050802Y-91860800D01*
X127637040Y-88447038D01*
X127637040Y-87874400D01*
X127592762Y-87639083D01*
X127453690Y-87422959D01*
X127241490Y-87277969D01*
X127228403Y-87275319D01*
X127441041Y-87138490D01*
X127541270Y-86991800D01*
X129057674Y-86991800D01*
X129062438Y-87017117D01*
X129201510Y-87233241D01*
X129413710Y-87378231D01*
X129665600Y-87429240D01*
X130665600Y-87429240D01*
X130900917Y-87384962D01*
X131117041Y-87245890D01*
X131163569Y-87177794D01*
X131305902Y-87320127D01*
X131539291Y-87416800D01*
X131879850Y-87416800D01*
X132038600Y-87258050D01*
X132038600Y-86283800D01*
X132292600Y-86283800D01*
X132292600Y-87258050D01*
X132451350Y-87416800D01*
X132791909Y-87416800D01*
X132882137Y-87379426D01*
X138499042Y-87379426D01*
X138501691Y-87395191D01*
X138755668Y-87922436D01*
X139192080Y-88312354D01*
X139744487Y-88505584D01*
X139979400Y-88361324D01*
X139979400Y-87147400D01*
X140233400Y-87147400D01*
X140233400Y-88361324D01*
X140468313Y-88505584D01*
X141020720Y-88312354D01*
X141457132Y-87922436D01*
X141711109Y-87395191D01*
X141713758Y-87379426D01*
X141592617Y-87147400D01*
X140233400Y-87147400D01*
X139979400Y-87147400D01*
X138620183Y-87147400D01*
X138499042Y-87379426D01*
X132882137Y-87379426D01*
X133025298Y-87320127D01*
X133203927Y-87141499D01*
X133300600Y-86908110D01*
X133300600Y-86442550D01*
X133141850Y-86283800D01*
X132292600Y-86283800D01*
X132038600Y-86283800D01*
X132018600Y-86283800D01*
X132018600Y-86029800D01*
X132038600Y-86029800D01*
X132038600Y-85055550D01*
X132292600Y-85055550D01*
X132292600Y-86029800D01*
X133141850Y-86029800D01*
X133300600Y-85871050D01*
X133300600Y-85405490D01*
X133203927Y-85172101D01*
X133025298Y-84993473D01*
X132791909Y-84896800D01*
X132451350Y-84896800D01*
X132292600Y-85055550D01*
X132038600Y-85055550D01*
X131879850Y-84896800D01*
X131539291Y-84896800D01*
X131305902Y-84993473D01*
X131164664Y-85134710D01*
X131129690Y-85080359D01*
X130917490Y-84935369D01*
X130665600Y-84884360D01*
X129665600Y-84884360D01*
X129430283Y-84928638D01*
X129214159Y-85067710D01*
X129069169Y-85279910D01*
X129060686Y-85321800D01*
X126507200Y-85321800D01*
X126481259Y-85326960D01*
X125689600Y-85326960D01*
X125454283Y-85371238D01*
X125238159Y-85510310D01*
X125093169Y-85722510D01*
X125042160Y-85974400D01*
X125042160Y-86674400D01*
X125086438Y-86909717D01*
X125225510Y-87125841D01*
X125437710Y-87270831D01*
X125450797Y-87273481D01*
X125238159Y-87410310D01*
X125093169Y-87622510D01*
X125042160Y-87874400D01*
X125042160Y-88574400D01*
X125086438Y-88809717D01*
X125225510Y-89025841D01*
X125437710Y-89170831D01*
X125689600Y-89221840D01*
X126262238Y-89221840D01*
X129948400Y-92908002D01*
X129948400Y-96205198D01*
X128552798Y-97600800D01*
X127177733Y-97600800D01*
X127295815Y-97424078D01*
X127374601Y-97028000D01*
X127295815Y-96631923D01*
X127071456Y-96296145D01*
X126904256Y-96128944D01*
X126568477Y-95904585D01*
X126172400Y-95825799D01*
X126172395Y-95825800D01*
X125508600Y-95825800D01*
X125508600Y-95646550D01*
X125349850Y-95487800D01*
X124000600Y-95487800D01*
X124000600Y-95507800D01*
X123746600Y-95507800D01*
X123746600Y-95487800D01*
X122397350Y-95487800D01*
X122238600Y-95646550D01*
X122238600Y-95987110D01*
X122284567Y-96098083D01*
X122277169Y-96108910D01*
X122226160Y-96360800D01*
X122226160Y-97360800D01*
X122252186Y-97499118D01*
X122177169Y-97608910D01*
X122126160Y-97860800D01*
X118409050Y-97860800D01*
X118300850Y-97752600D01*
X117576600Y-97752600D01*
X117322600Y-97752600D01*
X116598350Y-97752600D01*
X116439600Y-97911350D01*
X116173600Y-97911350D01*
X116163250Y-97901000D01*
X115189000Y-97901000D01*
X114935000Y-97901000D01*
X113960750Y-97901000D01*
X113802000Y-98059750D01*
X94913400Y-98059750D01*
X94913400Y-94339026D01*
X95268242Y-94339026D01*
X95270891Y-94354791D01*
X95524868Y-94882036D01*
X95961280Y-95271954D01*
X96513687Y-95465184D01*
X96748600Y-95320924D01*
X96748600Y-94107000D01*
X97002600Y-94107000D01*
X97002600Y-95320924D01*
X97237513Y-95465184D01*
X97789920Y-95271954D01*
X98226332Y-94882036D01*
X98480309Y-94354791D01*
X98482958Y-94339026D01*
X98361817Y-94107000D01*
X97002600Y-94107000D01*
X96748600Y-94107000D01*
X95389383Y-94107000D01*
X95268242Y-94339026D01*
X94913400Y-94339026D01*
X94913400Y-88515912D01*
X95609016Y-87820295D01*
X95649039Y-87828400D01*
X95631185Y-87840330D01*
X95306329Y-88326511D01*
X95192255Y-88900000D01*
X95306329Y-89473489D01*
X95631185Y-89959670D01*
X95945966Y-90170000D01*
X95631185Y-90380330D01*
X95306329Y-90866511D01*
X95192255Y-91440000D01*
X95306329Y-92013489D01*
X95631185Y-92499670D01*
X95940669Y-92706461D01*
X95524868Y-93077964D01*
X95270891Y-93605209D01*
X95268242Y-93620974D01*
X95389383Y-93853000D01*
X96748600Y-93853000D01*
X96748600Y-93833000D01*
X97002600Y-93833000D01*
X97002600Y-93853000D01*
X98361817Y-93853000D01*
X98482958Y-93620974D01*
X98480309Y-93605209D01*
X98226332Y-93077964D01*
X97810531Y-92706461D01*
X98120015Y-92499670D01*
X98444871Y-92013489D01*
X98558945Y-91440000D01*
X98444871Y-90866511D01*
X98120015Y-90380330D01*
X97805234Y-90170000D01*
X98120015Y-89959670D01*
X98444871Y-89473489D01*
X98558945Y-88900000D01*
X98444871Y-88326511D01*
X98120015Y-87840330D01*
X98105687Y-87830757D01*
X98126917Y-87826762D01*
X98343041Y-87687690D01*
X98488031Y-87475490D01*
X98539040Y-87223600D01*
X98539040Y-85496400D01*
X98494762Y-85261083D01*
X98355690Y-85044959D01*
X98143490Y-84899969D01*
X97910600Y-84852808D01*
X97910600Y-82724712D01*
X100591111Y-80044200D01*
X103371675Y-80044200D01*
X103292559Y-80095110D01*
X103147569Y-80307310D01*
X103096560Y-80559200D01*
X103096560Y-81259200D01*
X103140838Y-81494517D01*
X103279910Y-81710641D01*
X103492110Y-81855631D01*
X103744000Y-81906640D01*
X105044000Y-81906640D01*
X105279317Y-81862362D01*
X105495441Y-81723290D01*
X105497814Y-81719816D01*
X105513760Y-81735762D01*
X105513760Y-83358400D01*
X105558038Y-83593717D01*
X105697110Y-83809841D01*
X105901200Y-83949290D01*
X105901200Y-88571121D01*
X105709759Y-88694310D01*
X105564769Y-88906510D01*
X105513760Y-89158400D01*
X105513760Y-92258400D01*
X105558038Y-92493717D01*
X105697110Y-92709841D01*
X105909310Y-92854831D01*
X106161200Y-92905840D01*
X107161200Y-92905840D01*
X107396517Y-92861562D01*
X107612641Y-92722490D01*
X107757631Y-92510290D01*
X107808640Y-92258400D01*
X107808640Y-90994150D01*
X109526200Y-90994150D01*
X109526200Y-92384709D01*
X109622873Y-92618098D01*
X109801501Y-92796727D01*
X110034890Y-92893400D01*
X110375450Y-92893400D01*
X110534200Y-92734650D01*
X110534200Y-90835400D01*
X110788200Y-90835400D01*
X110788200Y-92734650D01*
X110946950Y-92893400D01*
X111287510Y-92893400D01*
X111520899Y-92796727D01*
X111699527Y-92618098D01*
X111796200Y-92384709D01*
X111796200Y-90994150D01*
X111637450Y-90835400D01*
X110788200Y-90835400D01*
X110534200Y-90835400D01*
X109684950Y-90835400D01*
X109526200Y-90994150D01*
X107808640Y-90994150D01*
X107808640Y-89158400D01*
X107784874Y-89032091D01*
X109526200Y-89032091D01*
X109526200Y-90422650D01*
X109684950Y-90581400D01*
X110534200Y-90581400D01*
X110534200Y-88682150D01*
X110788200Y-88682150D01*
X110788200Y-90581400D01*
X111637450Y-90581400D01*
X111796200Y-90422650D01*
X111796200Y-89032091D01*
X111699527Y-88798702D01*
X111520899Y-88620073D01*
X111287510Y-88523400D01*
X110946950Y-88523400D01*
X110788200Y-88682150D01*
X110534200Y-88682150D01*
X110375450Y-88523400D01*
X110034890Y-88523400D01*
X109801501Y-88620073D01*
X109622873Y-88798702D01*
X109526200Y-89032091D01*
X107784874Y-89032091D01*
X107764362Y-88923083D01*
X107625290Y-88706959D01*
X107421200Y-88567510D01*
X107421200Y-83945679D01*
X107612641Y-83822490D01*
X107757631Y-83610290D01*
X107808640Y-83358400D01*
X107808640Y-82094150D01*
X109526200Y-82094150D01*
X109526200Y-83484709D01*
X109622873Y-83718098D01*
X109801501Y-83896727D01*
X110034890Y-83993400D01*
X110375450Y-83993400D01*
X110534200Y-83834650D01*
X110534200Y-81935400D01*
X110788200Y-81935400D01*
X110788200Y-83834650D01*
X110946950Y-83993400D01*
X111287510Y-83993400D01*
X111520899Y-83896727D01*
X111699527Y-83718098D01*
X111796200Y-83484709D01*
X111796200Y-82094150D01*
X111637450Y-81935400D01*
X110788200Y-81935400D01*
X110534200Y-81935400D01*
X109684950Y-81935400D01*
X109526200Y-82094150D01*
X107808640Y-82094150D01*
X107808640Y-81735762D01*
X109606732Y-79937670D01*
X109526200Y-80132091D01*
X109526200Y-81522650D01*
X109684950Y-81681400D01*
X110534200Y-81681400D01*
X110534200Y-79782150D01*
X110788200Y-79782150D01*
X110788200Y-81681400D01*
X111637450Y-81681400D01*
X111796200Y-81522650D01*
X111796200Y-80132091D01*
X111699527Y-79898702D01*
X111520899Y-79720073D01*
X111287510Y-79623400D01*
X110946950Y-79623400D01*
X110788200Y-79782150D01*
X110534200Y-79782150D01*
X110375450Y-79623400D01*
X110034890Y-79623400D01*
X109840471Y-79703931D01*
X110908002Y-78636400D01*
X117310378Y-78636400D01*
X117295960Y-78707600D01*
X117295960Y-79707600D01*
X117308400Y-79773713D01*
X117308400Y-81390800D01*
X117366252Y-81681639D01*
X117530999Y-81928201D01*
X120121278Y-84518480D01*
X120121238Y-84563967D01*
X120263283Y-84907743D01*
X120365879Y-85010519D01*
X118833920Y-86542478D01*
X118788433Y-86542438D01*
X118444657Y-86684483D01*
X118181408Y-86947273D01*
X118038762Y-87290801D01*
X118038438Y-87662767D01*
X118163355Y-87965090D01*
X117874033Y-87964838D01*
X117530257Y-88106883D01*
X117267008Y-88369673D01*
X117124362Y-88713201D01*
X117124038Y-89085167D01*
X117209166Y-89291192D01*
X117165408Y-89334873D01*
X117022762Y-89678401D01*
X117022565Y-89904853D01*
X116808200Y-89690488D01*
X116808200Y-84023200D01*
X116729415Y-83627123D01*
X116505056Y-83291344D01*
X116169277Y-83066985D01*
X115773200Y-82988200D01*
X115377123Y-83066985D01*
X115041344Y-83291344D01*
X114816985Y-83627123D01*
X114738200Y-84023200D01*
X114738200Y-90119195D01*
X114738199Y-90119200D01*
X114816985Y-90515277D01*
X115041344Y-90851056D01*
X116722488Y-92532200D01*
X116717744Y-92536944D01*
X116493385Y-92872723D01*
X116414599Y-93268800D01*
X116414600Y-93268805D01*
X116414600Y-95290600D01*
X116334440Y-95290600D01*
X116334440Y-95274000D01*
X116290162Y-95038683D01*
X116151090Y-94822559D01*
X115938890Y-94677569D01*
X115687000Y-94626560D01*
X114437000Y-94626560D01*
X114201683Y-94670838D01*
X113985559Y-94809910D01*
X113840569Y-95022110D01*
X113789560Y-95274000D01*
X113789560Y-96274000D01*
X113833838Y-96509317D01*
X113972910Y-96725441D01*
X114041006Y-96771969D01*
X113898673Y-96914302D01*
X113802000Y-97147691D01*
X113802000Y-97488250D01*
X113960750Y-97647000D01*
X114935000Y-97647000D01*
X114935000Y-97627000D01*
X115189000Y-97627000D01*
X115189000Y-97647000D01*
X116163250Y-97647000D01*
X116322000Y-97488250D01*
X116322000Y-97147691D01*
X116244504Y-96960600D01*
X116497048Y-96960600D01*
X116439600Y-97099291D01*
X116439600Y-97339850D01*
X116598350Y-97498600D01*
X117322600Y-97498600D01*
X117322600Y-97478600D01*
X117576600Y-97478600D01*
X117576600Y-97498600D01*
X118300850Y-97498600D01*
X118459600Y-97339850D01*
X118459600Y-97099291D01*
X118362927Y-96865902D01*
X118361557Y-96864532D01*
X118421031Y-96777490D01*
X118472040Y-96525600D01*
X118472040Y-96188743D01*
X118484600Y-96125600D01*
X118484600Y-93697512D01*
X118786311Y-93395800D01*
X122226160Y-93395800D01*
X122226160Y-94360800D01*
X122270438Y-94596117D01*
X122285938Y-94620205D01*
X122238600Y-94734490D01*
X122238600Y-95075050D01*
X122397350Y-95233800D01*
X123746600Y-95233800D01*
X123746600Y-95213800D01*
X124000600Y-95213800D01*
X124000600Y-95233800D01*
X125349850Y-95233800D01*
X125508600Y-95075050D01*
X125508600Y-94734490D01*
X125462633Y-94623517D01*
X125470031Y-94612690D01*
X125521040Y-94360800D01*
X125521040Y-93360800D01*
X125476762Y-93125483D01*
X125469258Y-93113821D01*
X125470031Y-93112690D01*
X125521040Y-92860800D01*
X125521040Y-91860800D01*
X125476762Y-91625483D01*
X125337690Y-91409359D01*
X125125490Y-91264369D01*
X124873600Y-91213360D01*
X122873600Y-91213360D01*
X122638283Y-91257638D01*
X122532356Y-91325800D01*
X118443511Y-91325800D01*
X117917877Y-90800166D01*
X118142767Y-90800362D01*
X118486543Y-90658317D01*
X118519718Y-90625200D01*
X119684800Y-90625200D01*
X119975639Y-90567348D01*
X120222201Y-90402601D01*
X126105801Y-84519001D01*
X126270548Y-84272439D01*
X126328400Y-83981600D01*
X126328400Y-79769031D01*
X126340840Y-79707600D01*
X126340840Y-78707600D01*
X126296562Y-78472283D01*
X126157490Y-78256159D01*
X125945290Y-78111169D01*
X125693400Y-78060160D01*
X125443400Y-78060160D01*
X125313811Y-78084544D01*
X125193400Y-78060160D01*
X124943400Y-78060160D01*
X124813811Y-78084544D01*
X124693400Y-78060160D01*
X124443400Y-78060160D01*
X124370536Y-78073870D01*
X124480438Y-77809199D01*
X124480692Y-77517600D01*
X126396362Y-77517600D01*
X126415238Y-77617917D01*
X126554310Y-77834041D01*
X126766510Y-77979031D01*
X127018400Y-78030040D01*
X128018400Y-78030040D01*
X128253717Y-77985762D01*
X128469841Y-77846690D01*
X128614831Y-77634490D01*
X128665840Y-77382600D01*
X128665840Y-77132600D01*
X128641456Y-77003011D01*
X128665840Y-76882600D01*
X128665840Y-76632600D01*
X128645950Y-76526895D01*
X128653400Y-76508910D01*
X128653400Y-76478850D01*
X128633088Y-76458538D01*
X128621562Y-76397283D01*
X128531210Y-76256873D01*
X128614831Y-76134490D01*
X128629958Y-76059792D01*
X128653400Y-76036350D01*
X128653400Y-76006290D01*
X128644932Y-75985847D01*
X128665840Y-75882600D01*
X128665840Y-75632600D01*
X128641456Y-75503011D01*
X128665840Y-75382600D01*
X128665840Y-75132600D01*
X128641456Y-75003011D01*
X128665840Y-74882600D01*
X128665840Y-74632600D01*
X128644201Y-74517600D01*
X134725600Y-74517600D01*
X135016439Y-74459748D01*
X135263001Y-74295001D01*
X137045680Y-72512322D01*
X137091167Y-72512362D01*
X137434943Y-72370317D01*
X137698192Y-72107527D01*
X137840838Y-71763999D01*
X137841162Y-71392033D01*
X137699117Y-71048257D01*
X137436327Y-70785008D01*
X137092799Y-70642362D01*
X136805812Y-70642112D01*
X136784717Y-70591057D01*
X136521927Y-70327808D01*
X136178399Y-70185162D01*
X135806433Y-70184838D01*
X135462657Y-70326883D01*
X135199408Y-70589673D01*
X135056762Y-70933201D01*
X135056721Y-70980077D01*
X134473035Y-71563763D01*
X134474040Y-71558800D01*
X134474040Y-71221947D01*
X134486601Y-71158800D01*
X134474040Y-71095653D01*
X134474040Y-70758800D01*
X134429762Y-70523483D01*
X134363271Y-70420154D01*
X134364927Y-70418498D01*
X134461600Y-70185109D01*
X134461600Y-69944550D01*
X134302850Y-69785800D01*
X133578600Y-69785800D01*
X133578600Y-69805800D01*
X133324600Y-69805800D01*
X133324600Y-69785800D01*
X132600350Y-69785800D01*
X132441600Y-69944550D01*
X132441600Y-69978832D01*
X132361890Y-69924369D01*
X132110000Y-69873360D01*
X132060562Y-69873360D01*
X131440322Y-69253120D01*
X131440362Y-69207633D01*
X131409315Y-69132491D01*
X132441600Y-69132491D01*
X132441600Y-69373050D01*
X132600350Y-69531800D01*
X133324600Y-69531800D01*
X133324600Y-68782550D01*
X133578600Y-68782550D01*
X133578600Y-69531800D01*
X134302850Y-69531800D01*
X134461600Y-69373050D01*
X134461600Y-69132491D01*
X134364927Y-68899102D01*
X134186299Y-68720473D01*
X133952910Y-68623800D01*
X133737350Y-68623800D01*
X133578600Y-68782550D01*
X133324600Y-68782550D01*
X133165850Y-68623800D01*
X132950290Y-68623800D01*
X132716901Y-68720473D01*
X132538273Y-68899102D01*
X132441600Y-69132491D01*
X131409315Y-69132491D01*
X131298317Y-68863857D01*
X131035527Y-68600608D01*
X130691999Y-68457962D01*
X130320033Y-68457638D01*
X129976257Y-68599683D01*
X129713008Y-68862473D01*
X129570362Y-69206001D01*
X129570038Y-69577967D01*
X129692092Y-69873360D01*
X129510000Y-69873360D01*
X129274683Y-69917638D01*
X129058559Y-70056710D01*
X128913569Y-70268910D01*
X128862560Y-70520800D01*
X128862560Y-70976638D01*
X128665840Y-71173358D01*
X128665840Y-71132600D01*
X128641456Y-71003011D01*
X128665840Y-70882600D01*
X128665840Y-70632600D01*
X128641456Y-70503011D01*
X128665840Y-70382600D01*
X128665840Y-70132600D01*
X128641456Y-70003011D01*
X128665840Y-69882600D01*
X128665840Y-69632600D01*
X128621562Y-69397283D01*
X128482490Y-69181159D01*
X128270290Y-69036169D01*
X128018400Y-68985160D01*
X127018400Y-68985160D01*
X126952287Y-68997600D01*
X125263600Y-68997600D01*
X124972761Y-69055452D01*
X124726199Y-69220199D01*
X124523520Y-69422878D01*
X124478033Y-69422838D01*
X124134257Y-69564883D01*
X123871008Y-69827673D01*
X123773566Y-70062338D01*
X123579999Y-69981962D01*
X123208033Y-69981638D01*
X122864257Y-70123683D01*
X122601008Y-70386473D01*
X122458362Y-70730001D01*
X122458038Y-71101967D01*
X122600083Y-71445743D01*
X122651850Y-71497600D01*
X121493600Y-71497600D01*
X121202760Y-71555452D01*
X121139913Y-71597445D01*
X118497508Y-68955040D01*
X118693400Y-68955040D01*
X118822989Y-68930656D01*
X118943400Y-68955040D01*
X119193400Y-68955040D01*
X119322989Y-68930656D01*
X119443400Y-68955040D01*
X119693400Y-68955040D01*
X119822989Y-68930656D01*
X119943400Y-68955040D01*
X120193400Y-68955040D01*
X120299105Y-68935150D01*
X120317090Y-68942600D01*
X120347150Y-68942600D01*
X120367462Y-68922288D01*
X120428717Y-68910762D01*
X120569127Y-68820410D01*
X120691510Y-68904031D01*
X120766208Y-68919158D01*
X120789650Y-68942600D01*
X120819710Y-68942600D01*
X120840153Y-68934132D01*
X120943400Y-68955040D01*
X121193400Y-68955040D01*
X121322989Y-68930656D01*
X121443400Y-68955040D01*
X121693400Y-68955040D01*
X121822989Y-68930656D01*
X121943400Y-68955040D01*
X122193400Y-68955040D01*
X122322989Y-68930656D01*
X122443400Y-68955040D01*
X122693400Y-68955040D01*
X122822989Y-68930656D01*
X122943400Y-68955040D01*
X123193400Y-68955040D01*
X123322989Y-68930656D01*
X123443400Y-68955040D01*
X123693400Y-68955040D01*
X123822989Y-68930656D01*
X123943400Y-68955040D01*
X124193400Y-68955040D01*
X124322989Y-68930656D01*
X124443400Y-68955040D01*
X124693400Y-68955040D01*
X124822989Y-68930656D01*
X124943400Y-68955040D01*
X125193400Y-68955040D01*
X125322989Y-68930656D01*
X125443400Y-68955040D01*
X125693400Y-68955040D01*
X125928717Y-68910762D01*
X126144841Y-68771690D01*
X126289831Y-68559490D01*
X126340840Y-68307600D01*
X126340840Y-67316762D01*
X128229202Y-65428400D01*
X128981200Y-65428400D01*
X129272039Y-65370548D01*
X129518601Y-65205801D01*
X134366421Y-60357981D01*
X134874000Y-60458945D01*
X135447489Y-60344871D01*
X135933670Y-60020015D01*
X135943243Y-60005687D01*
X135947238Y-60026917D01*
X136086310Y-60243041D01*
X136298510Y-60388031D01*
X136379000Y-60404331D01*
X136379000Y-61405195D01*
X136378999Y-61405200D01*
X136457785Y-61801277D01*
X136682144Y-62137056D01*
X137407000Y-62861911D01*
X137407000Y-66236395D01*
X137406999Y-66236400D01*
X137485785Y-66632477D01*
X137710144Y-66968256D01*
X139490288Y-68748400D01*
X139374544Y-68864144D01*
X139150185Y-69199923D01*
X139071399Y-69596000D01*
X139071400Y-69596005D01*
X139071400Y-72812935D01*
X138855083Y-72853638D01*
X138638959Y-72992710D01*
X138493969Y-73204910D01*
X138442960Y-73456800D01*
X138442960Y-75184000D01*
X138487238Y-75419317D01*
X138626310Y-75635441D01*
X138838510Y-75780431D01*
X138879839Y-75788800D01*
X138861985Y-75800730D01*
X138537129Y-76286911D01*
X138423055Y-76860400D01*
X138537129Y-77433889D01*
X138861985Y-77920070D01*
X139176766Y-78130400D01*
X138861985Y-78340730D01*
X138537129Y-78826911D01*
X138423055Y-79400400D01*
X138537129Y-79973889D01*
X138861985Y-80460070D01*
X139176766Y-80670400D01*
X138861985Y-80880730D01*
X138537129Y-81366911D01*
X138423055Y-81940400D01*
X138537129Y-82513889D01*
X138861985Y-83000070D01*
X139176766Y-83210400D01*
X138861985Y-83420730D01*
X138537129Y-83906911D01*
X138423055Y-84480400D01*
X138537129Y-85053889D01*
X138861985Y-85540070D01*
X139171469Y-85746861D01*
X138755668Y-86118364D01*
X138501691Y-86645609D01*
X138499042Y-86661374D01*
X138620183Y-86893400D01*
X139979400Y-86893400D01*
X139979400Y-86873400D01*
X140233400Y-86873400D01*
X140233400Y-86893400D01*
X141592617Y-86893400D01*
X141713758Y-86661374D01*
X141711109Y-86645609D01*
X141457132Y-86118364D01*
X141041331Y-85746861D01*
X141350815Y-85540070D01*
X141675671Y-85053889D01*
X141789745Y-84480400D01*
X141675671Y-83906911D01*
X141350815Y-83420730D01*
X141036034Y-83210400D01*
X141350815Y-83000070D01*
X141675671Y-82513889D01*
X141789745Y-81940400D01*
X141675671Y-81366911D01*
X141350815Y-80880730D01*
X141036034Y-80670400D01*
X141218938Y-80548187D01*
X144675552Y-80548187D01*
X144893557Y-81075800D01*
X145296877Y-81479824D01*
X145427015Y-81533862D01*
X145299000Y-81586757D01*
X144894976Y-81990077D01*
X144676050Y-82517309D01*
X144675552Y-83088187D01*
X144893557Y-83615800D01*
X145296877Y-84019824D01*
X145427015Y-84073862D01*
X145299000Y-84126757D01*
X144894976Y-84530077D01*
X144676050Y-85057309D01*
X144675552Y-85628187D01*
X144893557Y-86155800D01*
X145296877Y-86559824D01*
X145427015Y-86613862D01*
X145299000Y-86666757D01*
X144894976Y-87070077D01*
X144676050Y-87597309D01*
X144675552Y-88168187D01*
X144893557Y-88695800D01*
X145296877Y-89099824D01*
X145824109Y-89318750D01*
X146394987Y-89319248D01*
X146922600Y-89101243D01*
X147326624Y-88697923D01*
X147545550Y-88170691D01*
X147546048Y-87599813D01*
X147328043Y-87072200D01*
X146924723Y-86668176D01*
X146794585Y-86614138D01*
X146922600Y-86561243D01*
X147326624Y-86157923D01*
X147545550Y-85630691D01*
X147546048Y-85059813D01*
X147328043Y-84532200D01*
X146924723Y-84128176D01*
X146794585Y-84074138D01*
X146922600Y-84021243D01*
X147326624Y-83617923D01*
X147545550Y-83090691D01*
X147546048Y-82519813D01*
X147328043Y-81992200D01*
X146924723Y-81588176D01*
X146794585Y-81534138D01*
X146922600Y-81481243D01*
X147326624Y-81077923D01*
X147545550Y-80550691D01*
X147545552Y-80548187D01*
X152275552Y-80548187D01*
X152493557Y-81075800D01*
X152896877Y-81479824D01*
X153027015Y-81533862D01*
X152899000Y-81586757D01*
X152494976Y-81990077D01*
X152276050Y-82517309D01*
X152275552Y-83088187D01*
X152493557Y-83615800D01*
X152896877Y-84019824D01*
X153027015Y-84073862D01*
X152899000Y-84126757D01*
X152494976Y-84530077D01*
X152276050Y-85057309D01*
X152275552Y-85628187D01*
X152493557Y-86155800D01*
X152896877Y-86559824D01*
X153027015Y-86613862D01*
X152899000Y-86666757D01*
X152494976Y-87070077D01*
X152276050Y-87597309D01*
X152275552Y-88168187D01*
X152493557Y-88695800D01*
X152896877Y-89099824D01*
X153424109Y-89318750D01*
X153994987Y-89319248D01*
X154522600Y-89101243D01*
X154878864Y-88745600D01*
X155823295Y-88745600D01*
X155914310Y-88887041D01*
X156126510Y-89032031D01*
X156378400Y-89083040D01*
X156878400Y-89083040D01*
X157113717Y-89038762D01*
X157329841Y-88899690D01*
X157377534Y-88829889D01*
X157414310Y-88887041D01*
X157626510Y-89032031D01*
X157878400Y-89083040D01*
X158378400Y-89083040D01*
X158613717Y-89038762D01*
X158829841Y-88899690D01*
X158974831Y-88687490D01*
X159025840Y-88435600D01*
X159025840Y-87535600D01*
X158981562Y-87300283D01*
X158888400Y-87155505D01*
X158888400Y-86019986D01*
X158974831Y-85893490D01*
X159025840Y-85641600D01*
X159025840Y-84741600D01*
X158981562Y-84506283D01*
X158888400Y-84361505D01*
X158888400Y-83628054D01*
X161405657Y-83628054D01*
X161881927Y-84780715D01*
X162763047Y-85663374D01*
X163914874Y-86141654D01*
X165162054Y-86142743D01*
X166314715Y-85666473D01*
X167197374Y-84785353D01*
X167675654Y-83633526D01*
X167676743Y-82386346D01*
X167200473Y-81233685D01*
X166319353Y-80351026D01*
X165167526Y-79872746D01*
X163920346Y-79871657D01*
X162767685Y-80347927D01*
X161885026Y-81229047D01*
X161406746Y-82380874D01*
X161405657Y-83628054D01*
X158888400Y-83628054D01*
X158888400Y-83479986D01*
X158974831Y-83353490D01*
X159025840Y-83101600D01*
X159025840Y-82201600D01*
X158981562Y-81966283D01*
X158842490Y-81750159D01*
X158736000Y-81677398D01*
X158736000Y-80838386D01*
X158822431Y-80711890D01*
X158873440Y-80460000D01*
X158873440Y-80187362D01*
X164418201Y-74642601D01*
X164582948Y-74396040D01*
X164640800Y-74105200D01*
X164640800Y-68448930D01*
X164781230Y-68448930D01*
X165016547Y-68404652D01*
X165232671Y-68265580D01*
X165377661Y-68053380D01*
X165428670Y-67801490D01*
X165428670Y-66529592D01*
X167517001Y-64441261D01*
X167681748Y-64194699D01*
X167739600Y-63903860D01*
X167739600Y-63046463D01*
X167771792Y-63014327D01*
X167914438Y-62670799D01*
X167914762Y-62298833D01*
X167772717Y-61955057D01*
X167509927Y-61691808D01*
X167166399Y-61549162D01*
X166794433Y-61548838D01*
X166450657Y-61690883D01*
X166187408Y-61953673D01*
X166044762Y-62297201D01*
X166044438Y-62669167D01*
X166186483Y-63012943D01*
X166219600Y-63046118D01*
X166219600Y-63589058D01*
X165428670Y-64379988D01*
X165428670Y-63364110D01*
X165384392Y-63128793D01*
X165245320Y-62912669D01*
X165133548Y-62836298D01*
X165178240Y-62615600D01*
X165178240Y-61915600D01*
X165133962Y-61680283D01*
X164994890Y-61464159D01*
X164782690Y-61319169D01*
X164769603Y-61316519D01*
X164982241Y-61179690D01*
X165127231Y-60967490D01*
X165178240Y-60715600D01*
X165178240Y-60015600D01*
X165133962Y-59780283D01*
X164994890Y-59564159D01*
X164782690Y-59419169D01*
X164530800Y-59368160D01*
X163230800Y-59368160D01*
X162995483Y-59412438D01*
X162779359Y-59551510D01*
X162634369Y-59763710D01*
X162595340Y-59956440D01*
X160393900Y-59956440D01*
X160402000Y-59916440D01*
X160402000Y-59116440D01*
X160362986Y-58909098D01*
X160402000Y-58716440D01*
X160402000Y-57916440D01*
X160362986Y-57709098D01*
X160402000Y-57516440D01*
X160402000Y-56716440D01*
X160357722Y-56481123D01*
X160218650Y-56264999D01*
X160006450Y-56120009D01*
X159754560Y-56069000D01*
X158454560Y-56069000D01*
X158219243Y-56113278D01*
X158003119Y-56252350D01*
X157858129Y-56464550D01*
X157807120Y-56716440D01*
X157807120Y-57516440D01*
X157846134Y-57723782D01*
X157807120Y-57916440D01*
X157807120Y-58716440D01*
X157814647Y-58756440D01*
X157450360Y-58756440D01*
X157207774Y-58804694D01*
X157159520Y-58814292D01*
X156912959Y-58979039D01*
X156180599Y-59711399D01*
X156015852Y-59957961D01*
X155958000Y-60248800D01*
X155958000Y-65833137D01*
X155925808Y-65865273D01*
X155783162Y-66208801D01*
X155782838Y-66580767D01*
X155924883Y-66924543D01*
X156187673Y-67187792D01*
X156531201Y-67330438D01*
X156903167Y-67330762D01*
X157246943Y-67188717D01*
X157510192Y-66925927D01*
X157652838Y-66582399D01*
X157653162Y-66210433D01*
X157511117Y-65866657D01*
X157478000Y-65833482D01*
X157478000Y-62852397D01*
X157496401Y-62860038D01*
X157807120Y-62860309D01*
X157807120Y-63516440D01*
X157846134Y-63723782D01*
X157807120Y-63916440D01*
X157807120Y-64716440D01*
X157846134Y-64923782D01*
X157807120Y-65116440D01*
X157807120Y-65916440D01*
X157846134Y-66123782D01*
X157807120Y-66316440D01*
X157807120Y-67116440D01*
X157846418Y-67325290D01*
X157819560Y-67390130D01*
X157819560Y-67630690D01*
X157978310Y-67789440D01*
X158977560Y-67789440D01*
X158977560Y-67769440D01*
X159231560Y-67769440D01*
X159231560Y-67789440D01*
X160230810Y-67789440D01*
X160389560Y-67630690D01*
X160389560Y-67390130D01*
X160360690Y-67320433D01*
X160402000Y-67116440D01*
X160402000Y-66316440D01*
X160362986Y-66109098D01*
X160402000Y-65916440D01*
X160402000Y-65116440D01*
X160362986Y-64909098D01*
X160402000Y-64716440D01*
X160402000Y-63916440D01*
X160362986Y-63709098D01*
X160402000Y-63516440D01*
X160402000Y-62716440D01*
X160362986Y-62509098D01*
X160402000Y-62316440D01*
X160402000Y-61516440D01*
X160394473Y-61476440D01*
X162762325Y-61476440D01*
X162634369Y-61663710D01*
X162583360Y-61915600D01*
X162583360Y-62615600D01*
X162625219Y-62838059D01*
X162528929Y-62900020D01*
X162383939Y-63112220D01*
X162332930Y-63364110D01*
X162332930Y-64961770D01*
X162377208Y-65197087D01*
X162516280Y-65413211D01*
X162728480Y-65558201D01*
X162845166Y-65581830D01*
X162745053Y-65600668D01*
X162528929Y-65739740D01*
X162383939Y-65951940D01*
X162332930Y-66203830D01*
X162332930Y-67801490D01*
X162377208Y-68036807D01*
X162516280Y-68252931D01*
X162728480Y-68397921D01*
X162980370Y-68448930D01*
X163120800Y-68448930D01*
X163120800Y-73790398D01*
X157998638Y-78912560D01*
X157726000Y-78912560D01*
X157490683Y-78956838D01*
X157274559Y-79095910D01*
X157226866Y-79165711D01*
X157190090Y-79108559D01*
X156977890Y-78963569D01*
X156726000Y-78912560D01*
X156226000Y-78912560D01*
X155990683Y-78956838D01*
X155774559Y-79095910D01*
X155669274Y-79250000D01*
X154726195Y-79250000D01*
X154524723Y-79048176D01*
X153997491Y-78829250D01*
X153426613Y-78828752D01*
X152899000Y-79046757D01*
X152494976Y-79450077D01*
X152276050Y-79977309D01*
X152275552Y-80548187D01*
X147545552Y-80548187D01*
X147546048Y-79979813D01*
X147328043Y-79452200D01*
X146924723Y-79048176D01*
X146397491Y-78829250D01*
X145826613Y-78828752D01*
X145299000Y-79046757D01*
X144894976Y-79450077D01*
X144676050Y-79977309D01*
X144675552Y-80548187D01*
X141218938Y-80548187D01*
X141350815Y-80460070D01*
X141675671Y-79973889D01*
X141789745Y-79400400D01*
X141675671Y-78826911D01*
X141350815Y-78340730D01*
X141036034Y-78130400D01*
X141350815Y-77920070D01*
X141675671Y-77433889D01*
X141789745Y-76860400D01*
X141675671Y-76286911D01*
X141350815Y-75800730D01*
X141336487Y-75791157D01*
X141357717Y-75787162D01*
X141573841Y-75648090D01*
X141718831Y-75435890D01*
X141769840Y-75184000D01*
X141769840Y-73456800D01*
X141725562Y-73221483D01*
X141586490Y-73005359D01*
X141374290Y-72860369D01*
X141141400Y-72813208D01*
X141141400Y-72466440D01*
X147257120Y-72466440D01*
X147257120Y-73766440D01*
X147301398Y-74001757D01*
X147440470Y-74217881D01*
X147652670Y-74362871D01*
X147904560Y-74413880D01*
X148704560Y-74413880D01*
X148775884Y-74400459D01*
X148778251Y-74401440D01*
X149018810Y-74401440D01*
X149177560Y-74242690D01*
X149177560Y-74198977D01*
X149300991Y-74018330D01*
X149352000Y-73766440D01*
X149352000Y-72466440D01*
X149307722Y-72231123D01*
X149177560Y-72028846D01*
X149177560Y-71990190D01*
X149431560Y-71990190D01*
X149431560Y-72989440D01*
X149451560Y-72989440D01*
X149451560Y-73243440D01*
X149431560Y-73243440D01*
X149431560Y-74242690D01*
X149590310Y-74401440D01*
X149830869Y-74401440D01*
X149941843Y-74355473D01*
X149952670Y-74362871D01*
X150204560Y-74413880D01*
X151004560Y-74413880D01*
X151211902Y-74374866D01*
X151404560Y-74413880D01*
X152204560Y-74413880D01*
X152411902Y-74374866D01*
X152604560Y-74413880D01*
X153404560Y-74413880D01*
X153611902Y-74374866D01*
X153804560Y-74413880D01*
X154604560Y-74413880D01*
X154839877Y-74369602D01*
X154863966Y-74354101D01*
X154978251Y-74401440D01*
X155218810Y-74401440D01*
X155377560Y-74242690D01*
X155377560Y-73243440D01*
X155357560Y-73243440D01*
X155357560Y-72989440D01*
X155377560Y-72989440D01*
X155377560Y-72466440D01*
X155457120Y-72466440D01*
X155457120Y-73766440D01*
X155501398Y-74001757D01*
X155631560Y-74204034D01*
X155631560Y-74242690D01*
X155790310Y-74401440D01*
X156030869Y-74401440D01*
X156034895Y-74399772D01*
X156104560Y-74413880D01*
X156904560Y-74413880D01*
X157139877Y-74369602D01*
X157356001Y-74230530D01*
X157500991Y-74018330D01*
X157552000Y-73766440D01*
X157552000Y-72466440D01*
X157507722Y-72231123D01*
X157368650Y-72014999D01*
X157156450Y-71870009D01*
X156904560Y-71819000D01*
X156104560Y-71819000D01*
X156033236Y-71832421D01*
X156030869Y-71831440D01*
X155790310Y-71831440D01*
X155631560Y-71990190D01*
X155631560Y-72033903D01*
X155508129Y-72214550D01*
X155457120Y-72466440D01*
X155377560Y-72466440D01*
X155377560Y-71990190D01*
X155218810Y-71831440D01*
X154978251Y-71831440D01*
X154867277Y-71877407D01*
X154856450Y-71870009D01*
X154604560Y-71819000D01*
X153804560Y-71819000D01*
X153597218Y-71858014D01*
X153404560Y-71819000D01*
X152604560Y-71819000D01*
X152397218Y-71858014D01*
X152204560Y-71819000D01*
X151404560Y-71819000D01*
X151197218Y-71858014D01*
X151004560Y-71819000D01*
X150204560Y-71819000D01*
X149969243Y-71863278D01*
X149945154Y-71878779D01*
X149830869Y-71831440D01*
X149590310Y-71831440D01*
X149431560Y-71990190D01*
X149177560Y-71990190D01*
X149018810Y-71831440D01*
X148778251Y-71831440D01*
X148774225Y-71833108D01*
X148704560Y-71819000D01*
X147904560Y-71819000D01*
X147669243Y-71863278D01*
X147453119Y-72002350D01*
X147308129Y-72214550D01*
X147257120Y-72466440D01*
X141141400Y-72466440D01*
X141141400Y-71034150D01*
X141996000Y-71034150D01*
X141996000Y-71374709D01*
X142092673Y-71608098D01*
X142271301Y-71786727D01*
X142504690Y-71883400D01*
X142970250Y-71883400D01*
X143129000Y-71724650D01*
X143129000Y-70875400D01*
X142154750Y-70875400D01*
X141996000Y-71034150D01*
X141141400Y-71034150D01*
X141141400Y-70024712D01*
X141382711Y-69783400D01*
X142197974Y-69783400D01*
X142092673Y-69888702D01*
X141996000Y-70122091D01*
X141996000Y-70462650D01*
X142154750Y-70621400D01*
X143129000Y-70621400D01*
X143129000Y-70601400D01*
X143383000Y-70601400D01*
X143383000Y-70621400D01*
X143403000Y-70621400D01*
X143403000Y-70875400D01*
X143383000Y-70875400D01*
X143383000Y-71724650D01*
X143541750Y-71883400D01*
X144007310Y-71883400D01*
X144240699Y-71786727D01*
X144419327Y-71608098D01*
X144516000Y-71374709D01*
X144516000Y-71075576D01*
X144516233Y-71076139D01*
X144694862Y-71254767D01*
X144928251Y-71351440D01*
X145418810Y-71351440D01*
X145577560Y-71192690D01*
X145577560Y-70443440D01*
X145831560Y-70443440D01*
X145831560Y-71192690D01*
X145990310Y-71351440D01*
X146480869Y-71351440D01*
X146714258Y-71254767D01*
X146892887Y-71076139D01*
X146989560Y-70842750D01*
X146989560Y-70602190D01*
X146830810Y-70443440D01*
X145831560Y-70443440D01*
X145577560Y-70443440D01*
X145557560Y-70443440D01*
X145557560Y-70189440D01*
X145577560Y-70189440D01*
X145577560Y-70169440D01*
X145831560Y-70169440D01*
X145831560Y-70189440D01*
X146830810Y-70189440D01*
X146989560Y-70030690D01*
X146989560Y-69876440D01*
X150745960Y-69876440D01*
X151036799Y-69818588D01*
X151283361Y-69653841D01*
X151664035Y-69273167D01*
X152531638Y-69273167D01*
X152673683Y-69616943D01*
X152936473Y-69880192D01*
X153135155Y-69962692D01*
X153090762Y-70069601D01*
X153090438Y-70441567D01*
X153232483Y-70785343D01*
X153495273Y-71048592D01*
X153838801Y-71191238D01*
X154210767Y-71191562D01*
X154489384Y-71076440D01*
X157931629Y-71076440D01*
X157990470Y-71167881D01*
X158202670Y-71312871D01*
X158454560Y-71363880D01*
X159754560Y-71363880D01*
X159989877Y-71319602D01*
X160206001Y-71180530D01*
X160350991Y-70968330D01*
X160402000Y-70716440D01*
X160402000Y-69916440D01*
X160362986Y-69709098D01*
X160402000Y-69516440D01*
X160402000Y-68716440D01*
X160362702Y-68507590D01*
X160389560Y-68442750D01*
X160389560Y-68202190D01*
X160230810Y-68043440D01*
X159231560Y-68043440D01*
X159231560Y-68063440D01*
X158977560Y-68063440D01*
X158977560Y-68043440D01*
X157978310Y-68043440D01*
X157819560Y-68202190D01*
X157819560Y-68356440D01*
X154057653Y-68356440D01*
X153997127Y-68295808D01*
X153653599Y-68153162D01*
X153281633Y-68152838D01*
X152937857Y-68294883D01*
X152674608Y-68557673D01*
X152531962Y-68901201D01*
X152531638Y-69273167D01*
X151664035Y-69273167D01*
X153953401Y-66983801D01*
X154118148Y-66737239D01*
X154176000Y-66446400D01*
X154176000Y-61833602D01*
X154978080Y-61031522D01*
X155023567Y-61031562D01*
X155367343Y-60889517D01*
X155630592Y-60626727D01*
X155773238Y-60283199D01*
X155773562Y-59911233D01*
X155631517Y-59567457D01*
X155368727Y-59304208D01*
X155025199Y-59161562D01*
X154653233Y-59161238D01*
X154309457Y-59303283D01*
X154046208Y-59566073D01*
X153903562Y-59909601D01*
X153903521Y-59956477D01*
X152878599Y-60981399D01*
X152713852Y-61227961D01*
X152656000Y-61518800D01*
X152656000Y-66131598D01*
X150431158Y-68356440D01*
X146993900Y-68356440D01*
X147002000Y-68316440D01*
X147002000Y-67516440D01*
X146962986Y-67309098D01*
X147002000Y-67116440D01*
X147002000Y-66316440D01*
X146962986Y-66109098D01*
X147002000Y-65916440D01*
X147002000Y-65116440D01*
X146962986Y-64909098D01*
X147002000Y-64716440D01*
X147002000Y-63916440D01*
X146962986Y-63709098D01*
X147002000Y-63516440D01*
X147002000Y-62716440D01*
X146962986Y-62509098D01*
X147002000Y-62316440D01*
X147002000Y-61516440D01*
X146973392Y-61364400D01*
X147621137Y-61364400D01*
X147653273Y-61396592D01*
X147996801Y-61539238D01*
X148368767Y-61539562D01*
X148712543Y-61397517D01*
X148975792Y-61134727D01*
X149118438Y-60791199D01*
X149118762Y-60419233D01*
X149068504Y-60297600D01*
X150415137Y-60297600D01*
X150447273Y-60329792D01*
X150790801Y-60472438D01*
X151162767Y-60472762D01*
X151506543Y-60330717D01*
X151769792Y-60067927D01*
X151912438Y-59724399D01*
X151912762Y-59352433D01*
X151770717Y-59008657D01*
X151507927Y-58745408D01*
X151164399Y-58602762D01*
X150792433Y-58602438D01*
X150448657Y-58744483D01*
X150415482Y-58777600D01*
X146989615Y-58777600D01*
X147002000Y-58716440D01*
X147002000Y-57916440D01*
X146962702Y-57707590D01*
X146989560Y-57642750D01*
X146989560Y-57402190D01*
X146830810Y-57243440D01*
X145831560Y-57243440D01*
X145831560Y-57263440D01*
X145577560Y-57263440D01*
X145577560Y-57243440D01*
X144578310Y-57243440D01*
X144419560Y-57402190D01*
X144419560Y-57642750D01*
X144448430Y-57712447D01*
X144407120Y-57916440D01*
X144407120Y-58716440D01*
X144446134Y-58923782D01*
X144407120Y-59116440D01*
X144407120Y-59916440D01*
X144446134Y-60123782D01*
X144407120Y-60316440D01*
X144407120Y-61116440D01*
X144414647Y-61156440D01*
X140458760Y-61156440D01*
X140167921Y-61214292D01*
X139986131Y-61335760D01*
X139692000Y-61335760D01*
X139456683Y-61380038D01*
X139240559Y-61519110D01*
X139192866Y-61588911D01*
X139156090Y-61531759D01*
X138943890Y-61386769D01*
X138837796Y-61365284D01*
X138449000Y-60976488D01*
X138449000Y-60406789D01*
X138512917Y-60394762D01*
X138729041Y-60255690D01*
X138874031Y-60043490D01*
X138925040Y-59791600D01*
X138925040Y-57759600D01*
X138880762Y-57524283D01*
X138741690Y-57308159D01*
X138529490Y-57163169D01*
X138395707Y-57136077D01*
X138370215Y-57007923D01*
X138251792Y-56830690D01*
X138145856Y-56672144D01*
X138145853Y-56672142D01*
X138063842Y-56590130D01*
X144419560Y-56590130D01*
X144419560Y-56830690D01*
X144578310Y-56989440D01*
X145577560Y-56989440D01*
X145577560Y-56240190D01*
X145831560Y-56240190D01*
X145831560Y-56989440D01*
X146830810Y-56989440D01*
X146989560Y-56830690D01*
X146989560Y-56590130D01*
X146892887Y-56356741D01*
X146714258Y-56178113D01*
X146480869Y-56081440D01*
X145990310Y-56081440D01*
X145831560Y-56240190D01*
X145577560Y-56240190D01*
X145418810Y-56081440D01*
X144928251Y-56081440D01*
X144694862Y-56178113D01*
X144516233Y-56356741D01*
X144419560Y-56590130D01*
X138063842Y-56590130D01*
X136215456Y-54741744D01*
X135879677Y-54517385D01*
X135483600Y-54438599D01*
X135483595Y-54438600D01*
X110591605Y-54438600D01*
X110591600Y-54438599D01*
X110195523Y-54517385D01*
X109859744Y-54741744D01*
X109859742Y-54741747D01*
X107624544Y-56976944D01*
X107400185Y-57312723D01*
X107321399Y-57708800D01*
X107321400Y-57708805D01*
X107321400Y-65065243D01*
X107279959Y-65091910D01*
X107191756Y-65221000D01*
X106499600Y-65221000D01*
X106180060Y-65284560D01*
X105909166Y-65465566D01*
X105531040Y-65843692D01*
X105531040Y-65766600D01*
X105486762Y-65531283D01*
X105347690Y-65315159D01*
X105135490Y-65170169D01*
X104883600Y-65119160D01*
X104083600Y-65119160D01*
X103848283Y-65163438D01*
X103744954Y-65229929D01*
X103743298Y-65228273D01*
X103509909Y-65131600D01*
X103269350Y-65131600D01*
X103110600Y-65290350D01*
X103110600Y-66014600D01*
X103130600Y-66014600D01*
X103130600Y-66268600D01*
X103110600Y-66268600D01*
X103110600Y-66992850D01*
X103269350Y-67151600D01*
X103509909Y-67151600D01*
X103743298Y-67054927D01*
X103744668Y-67053557D01*
X103831710Y-67113031D01*
X104083600Y-67164040D01*
X104325172Y-67164040D01*
X104592517Y-67431385D01*
X104494367Y-67575032D01*
X104389690Y-67412359D01*
X104177490Y-67267369D01*
X103925600Y-67216360D01*
X102865600Y-67216360D01*
X102630283Y-67260638D01*
X102485505Y-67353800D01*
X101737806Y-67353800D01*
X101742400Y-67342709D01*
X101742400Y-67002150D01*
X101583650Y-66843400D01*
X100609400Y-66843400D01*
X100609400Y-66863400D01*
X100355400Y-66863400D01*
X100355400Y-66843400D01*
X99381150Y-66843400D01*
X99222400Y-67002150D01*
X99222400Y-67342709D01*
X99319073Y-67576098D01*
X99460310Y-67717336D01*
X99405959Y-67752310D01*
X99260969Y-67964510D01*
X99209960Y-68216400D01*
X99209960Y-68507000D01*
X98970757Y-68507000D01*
X98992829Y-68443131D01*
X98844163Y-68269000D01*
X98018600Y-68269000D01*
X98018600Y-68289000D01*
X97764600Y-68289000D01*
X97764600Y-68269000D01*
X96939037Y-68269000D01*
X96790371Y-68443131D01*
X96852160Y-68621926D01*
X96765159Y-68677910D01*
X96620169Y-68890110D01*
X96569160Y-69142000D01*
X96569160Y-69542000D01*
X96593544Y-69671589D01*
X96569160Y-69792000D01*
X96569160Y-70192000D01*
X96593544Y-70321589D01*
X96569160Y-70442000D01*
X96569160Y-70842000D01*
X96593544Y-70971589D01*
X96569160Y-71092000D01*
X96569160Y-71492000D01*
X96589050Y-71597705D01*
X96581600Y-71615690D01*
X96581600Y-71683250D01*
X96610604Y-71712254D01*
X96613438Y-71727317D01*
X96752510Y-71943441D01*
X96896756Y-72042000D01*
X96740350Y-72042000D01*
X96581600Y-72200750D01*
X96581600Y-72268310D01*
X96678273Y-72501699D01*
X96848690Y-72672115D01*
X96790371Y-72840869D01*
X96939037Y-73015000D01*
X97764600Y-73015000D01*
X97764600Y-72995000D01*
X98018600Y-72995000D01*
X98018600Y-73015000D01*
X98844163Y-73015000D01*
X98992829Y-72840869D01*
X98934510Y-72672115D01*
X99104927Y-72501699D01*
X99201600Y-72268310D01*
X99201600Y-72200750D01*
X99069852Y-72069002D01*
X99201600Y-72069002D01*
X99201600Y-72052000D01*
X99272798Y-72052000D01*
X103515799Y-76295001D01*
X103762361Y-76459748D01*
X104053200Y-76517600D01*
X111942500Y-76517600D01*
X111942438Y-76588367D01*
X112084483Y-76932143D01*
X112268419Y-77116400D01*
X110593200Y-77116400D01*
X110302361Y-77174252D01*
X110055799Y-77338999D01*
X107603041Y-79791757D01*
X107413090Y-79661969D01*
X107161200Y-79610960D01*
X106161200Y-79610960D01*
X105925883Y-79655238D01*
X105709759Y-79794310D01*
X105564769Y-80006510D01*
X105535874Y-80149200D01*
X105534757Y-80149200D01*
X105508090Y-80107759D01*
X105295890Y-79962769D01*
X105282803Y-79960119D01*
X105495441Y-79823290D01*
X105640431Y-79611090D01*
X105691440Y-79359200D01*
X105691440Y-78659200D01*
X105647162Y-78423883D01*
X105508090Y-78207759D01*
X105295890Y-78062769D01*
X105044000Y-78011760D01*
X104903184Y-78011760D01*
X104790077Y-77936185D01*
X104394000Y-77857400D01*
X103997923Y-77936185D01*
X103941029Y-77974200D01*
X100162405Y-77974200D01*
X100162400Y-77974199D01*
X99766323Y-78052985D01*
X99430544Y-78277344D01*
X99430542Y-78277347D01*
X96143744Y-81564144D01*
X95919385Y-81899923D01*
X95840599Y-82296000D01*
X95840600Y-82296005D01*
X95840600Y-84852535D01*
X95624283Y-84893238D01*
X95408159Y-85032310D01*
X95263169Y-85244510D01*
X95231813Y-85399351D01*
X95209523Y-85403785D01*
X94873744Y-85628144D01*
X94873742Y-85628147D01*
X93146544Y-87355344D01*
X92922185Y-87691123D01*
X92843399Y-88087200D01*
X92075000Y-88087200D01*
X92075000Y-74443874D01*
X93822481Y-74443874D01*
X94024232Y-74854763D01*
X94364922Y-75142002D01*
X94789600Y-75277000D01*
X95064600Y-75277000D01*
X95064600Y-74269000D01*
X95318600Y-74269000D01*
X95318600Y-75277000D01*
X95593600Y-75277000D01*
X96018278Y-75142002D01*
X96358968Y-74854763D01*
X96560719Y-74443874D01*
X96434554Y-74269000D01*
X95318600Y-74269000D01*
X95064600Y-74269000D01*
X93948646Y-74269000D01*
X93822481Y-74443874D01*
X92075000Y-74443874D01*
X92075000Y-73840126D01*
X93822481Y-73840126D01*
X93948646Y-74015000D01*
X95064600Y-74015000D01*
X95064600Y-73007000D01*
X95318600Y-73007000D01*
X95318600Y-74015000D01*
X96434554Y-74015000D01*
X96560719Y-73840126D01*
X96365791Y-73443131D01*
X96790371Y-73443131D01*
X96932032Y-73853049D01*
X97219779Y-74177552D01*
X97593662Y-74361268D01*
X97764600Y-74234734D01*
X97764600Y-73269000D01*
X98018600Y-73269000D01*
X98018600Y-74234734D01*
X98189538Y-74361268D01*
X98563421Y-74177552D01*
X98851168Y-73853049D01*
X98992829Y-73443131D01*
X98844163Y-73269000D01*
X98018600Y-73269000D01*
X97764600Y-73269000D01*
X96939037Y-73269000D01*
X96790371Y-73443131D01*
X96365791Y-73443131D01*
X96358968Y-73429237D01*
X96018278Y-73141998D01*
X95593600Y-73007000D01*
X95318600Y-73007000D01*
X95064600Y-73007000D01*
X94789600Y-73007000D01*
X94364922Y-73141998D01*
X94024232Y-73429237D01*
X93822481Y-73840126D01*
X92075000Y-73840126D01*
X92075000Y-67443874D01*
X93822481Y-67443874D01*
X94024232Y-67854763D01*
X94364922Y-68142002D01*
X94789600Y-68277000D01*
X95064600Y-68277000D01*
X95064600Y-67269000D01*
X95318600Y-67269000D01*
X95318600Y-68277000D01*
X95593600Y-68277000D01*
X96018278Y-68142002D01*
X96358968Y-67854763D01*
X96365790Y-67840869D01*
X96790371Y-67840869D01*
X96939037Y-68015000D01*
X97764600Y-68015000D01*
X97764600Y-67049266D01*
X98018600Y-67049266D01*
X98018600Y-68015000D01*
X98844163Y-68015000D01*
X98992829Y-67840869D01*
X98851168Y-67430951D01*
X98563421Y-67106448D01*
X98189538Y-66922732D01*
X98018600Y-67049266D01*
X97764600Y-67049266D01*
X97593662Y-66922732D01*
X97219779Y-67106448D01*
X96932032Y-67430951D01*
X96790371Y-67840869D01*
X96365790Y-67840869D01*
X96560719Y-67443874D01*
X96434554Y-67269000D01*
X95318600Y-67269000D01*
X95064600Y-67269000D01*
X93948646Y-67269000D01*
X93822481Y-67443874D01*
X92075000Y-67443874D01*
X92075000Y-66840126D01*
X93822481Y-66840126D01*
X93948646Y-67015000D01*
X95064600Y-67015000D01*
X95064600Y-66007000D01*
X95318600Y-66007000D01*
X95318600Y-67015000D01*
X96434554Y-67015000D01*
X96560719Y-66840126D01*
X96358968Y-66429237D01*
X96018278Y-66141998D01*
X95854989Y-66090091D01*
X99222400Y-66090091D01*
X99222400Y-66430650D01*
X99381150Y-66589400D01*
X100355400Y-66589400D01*
X100355400Y-65740150D01*
X100609400Y-65740150D01*
X100609400Y-66589400D01*
X101583650Y-66589400D01*
X101742400Y-66430650D01*
X101742400Y-66427350D01*
X101948600Y-66427350D01*
X101948600Y-66642910D01*
X102045273Y-66876299D01*
X102223902Y-67054927D01*
X102457291Y-67151600D01*
X102697850Y-67151600D01*
X102856600Y-66992850D01*
X102856600Y-66268600D01*
X102107350Y-66268600D01*
X101948600Y-66427350D01*
X101742400Y-66427350D01*
X101742400Y-66090091D01*
X101645727Y-65856702D01*
X101467099Y-65678073D01*
X101375883Y-65640290D01*
X101948600Y-65640290D01*
X101948600Y-65855850D01*
X102107350Y-66014600D01*
X102856600Y-66014600D01*
X102856600Y-65290350D01*
X102697850Y-65131600D01*
X102457291Y-65131600D01*
X102223902Y-65228273D01*
X102045273Y-65406901D01*
X101948600Y-65640290D01*
X101375883Y-65640290D01*
X101233710Y-65581400D01*
X100768150Y-65581400D01*
X100609400Y-65740150D01*
X100355400Y-65740150D01*
X100196650Y-65581400D01*
X99731090Y-65581400D01*
X99497701Y-65678073D01*
X99319073Y-65856702D01*
X99222400Y-66090091D01*
X95854989Y-66090091D01*
X95593600Y-66007000D01*
X95318600Y-66007000D01*
X95064600Y-66007000D01*
X94789600Y-66007000D01*
X94364922Y-66141998D01*
X94024232Y-66429237D01*
X93822481Y-66840126D01*
X92075000Y-66840126D01*
X92075000Y-52247800D01*
X95820894Y-52247800D01*
X94695685Y-52712727D01*
X94695685Y-52712727D01*
G37*
X94695685Y-52712727D02*
X93813026Y-53593847D01*
X93334746Y-54745674D01*
X93333657Y-55992854D01*
X93809927Y-57145515D01*
X94691047Y-58028174D01*
X95842874Y-58506454D01*
X97090054Y-58507543D01*
X98242715Y-58031273D01*
X99125374Y-57150153D01*
X99603654Y-55998326D01*
X99604743Y-54751146D01*
X99128473Y-53598485D01*
X98247353Y-52715826D01*
X97120220Y-52247800D01*
X171475400Y-52247800D01*
X171475400Y-109905800D01*
X164658712Y-109905800D01*
X169145453Y-105419058D01*
X169145456Y-105419056D01*
X169369815Y-105083277D01*
X169404410Y-104909359D01*
X169448601Y-104687200D01*
X169448600Y-104687195D01*
X169448600Y-102308240D01*
X169663600Y-102308240D01*
X169898917Y-102263962D01*
X170115041Y-102124890D01*
X170260031Y-101912690D01*
X170311040Y-101660800D01*
X170311040Y-96560800D01*
X170266762Y-96325483D01*
X170127690Y-96109359D01*
X169915490Y-95964369D01*
X169663600Y-95913360D01*
X167163600Y-95913360D01*
X166928283Y-95957638D01*
X166712159Y-96096710D01*
X166567169Y-96308910D01*
X166516160Y-96560800D01*
X166516160Y-97102890D01*
X165295734Y-93923321D01*
X165012680Y-93499701D01*
X163924905Y-92439100D01*
X157253205Y-99110800D01*
X163924905Y-105782500D01*
X165012680Y-104721899D01*
X166516160Y-101345265D01*
X166516160Y-101660800D01*
X166560438Y-101896117D01*
X166699510Y-102112241D01*
X166911710Y-102257231D01*
X167163600Y-102308240D01*
X167378600Y-102308240D01*
X167378600Y-104258489D01*
X162893288Y-108743800D01*
X148256711Y-108743800D01*
X146629456Y-107116544D01*
X146293677Y-106892185D01*
X145897600Y-106813399D01*
X145501523Y-106892185D01*
X145165744Y-107116544D01*
X144941385Y-107452323D01*
X144862599Y-107848400D01*
X144941385Y-108244477D01*
X145165744Y-108580256D01*
X146491289Y-109905800D01*
X97778041Y-109905800D01*
X98515774Y-109169353D01*
X98994054Y-108017526D01*
X98995143Y-106770346D01*
X98518873Y-105617685D01*
X97637753Y-104735026D01*
X96485926Y-104256746D01*
X95238746Y-104255657D01*
X94086085Y-104731927D01*
X93203426Y-105613047D01*
X92725146Y-106764874D01*
X92724057Y-108012054D01*
X93200327Y-109164715D01*
X93940120Y-109905800D01*
X92075000Y-109905800D01*
X92075000Y-88087200D01*
X92843399Y-88087200D01*
X92843400Y-88087205D01*
X92843400Y-100634795D01*
X92843399Y-100634800D01*
X92922185Y-101030877D01*
X93146544Y-101366656D01*
X94518142Y-102738253D01*
X94518144Y-102738256D01*
X94719429Y-102872749D01*
X94853922Y-102962615D01*
X95250000Y-103041400D01*
X103953335Y-103041400D01*
X103994038Y-103257717D01*
X104133110Y-103473841D01*
X104345310Y-103618831D01*
X104597200Y-103669840D01*
X106324400Y-103669840D01*
X106559717Y-103625562D01*
X106775841Y-103486490D01*
X106920831Y-103274290D01*
X106929200Y-103232961D01*
X106941130Y-103250815D01*
X107427311Y-103575671D01*
X108000800Y-103689745D01*
X108574289Y-103575671D01*
X109060470Y-103250815D01*
X109270800Y-102936034D01*
X109481130Y-103250815D01*
X109967311Y-103575671D01*
X110540800Y-103689745D01*
X111114289Y-103575671D01*
X111600470Y-103250815D01*
X111807261Y-102941331D01*
X112178764Y-103357132D01*
X112706009Y-103611109D01*
X112721774Y-103613758D01*
X112953800Y-103492617D01*
X112953800Y-102133400D01*
X113207800Y-102133400D01*
X113207800Y-103492617D01*
X113439826Y-103613758D01*
X113455591Y-103611109D01*
X113982836Y-103357132D01*
X114372754Y-102920720D01*
X114565984Y-102368313D01*
X114421724Y-102133400D01*
X113207800Y-102133400D01*
X112953800Y-102133400D01*
X112933800Y-102133400D01*
X112933800Y-101879400D01*
X112953800Y-101879400D01*
X112953800Y-100520183D01*
X113207800Y-100520183D01*
X113207800Y-101879400D01*
X114421724Y-101879400D01*
X114565984Y-101644487D01*
X114372754Y-101092080D01*
X113982836Y-100655668D01*
X113877237Y-100604800D01*
X116507760Y-100604800D01*
X116507760Y-101304800D01*
X116552038Y-101540117D01*
X116691110Y-101756241D01*
X116903310Y-101901231D01*
X116916397Y-101903881D01*
X116703759Y-102040710D01*
X116558769Y-102252910D01*
X116507760Y-102504800D01*
X116507760Y-103204800D01*
X116552038Y-103440117D01*
X116691110Y-103656241D01*
X116903310Y-103801231D01*
X117155200Y-103852240D01*
X117727838Y-103852240D01*
X120273799Y-106398201D01*
X120520361Y-106562948D01*
X120811200Y-106620800D01*
X122286321Y-106620800D01*
X122409510Y-106812241D01*
X122621710Y-106957231D01*
X122873600Y-107008240D01*
X124873600Y-107008240D01*
X125108917Y-106963962D01*
X125325041Y-106824890D01*
X125470031Y-106612690D01*
X125521040Y-106360800D01*
X125521040Y-105360800D01*
X137826160Y-105360800D01*
X137826160Y-106360800D01*
X137870438Y-106596117D01*
X138009510Y-106812241D01*
X138221710Y-106957231D01*
X138473600Y-107008240D01*
X140473600Y-107008240D01*
X140708917Y-106963962D01*
X140925041Y-106824890D01*
X141070031Y-106612690D01*
X141121040Y-106360800D01*
X141121040Y-105962105D01*
X150401900Y-105962105D01*
X151462501Y-107049880D01*
X154927775Y-108592828D01*
X158719731Y-108692223D01*
X162261079Y-107332934D01*
X162684699Y-107049880D01*
X163745300Y-105962105D01*
X157073600Y-99290405D01*
X150401900Y-105962105D01*
X141121040Y-105962105D01*
X141121040Y-105360800D01*
X141076762Y-105125483D01*
X141061262Y-105101395D01*
X141108600Y-104987110D01*
X141108600Y-104646550D01*
X140949850Y-104487800D01*
X139600600Y-104487800D01*
X139600600Y-104507800D01*
X139346600Y-104507800D01*
X139346600Y-104487800D01*
X137997350Y-104487800D01*
X137838600Y-104646550D01*
X137838600Y-104987110D01*
X137884567Y-105098083D01*
X137877169Y-105108910D01*
X137826160Y-105360800D01*
X125521040Y-105360800D01*
X125476762Y-105125483D01*
X125469258Y-105113821D01*
X125470031Y-105112690D01*
X125521040Y-104860800D01*
X125521040Y-104312150D01*
X141585600Y-104312150D01*
X141585600Y-104552709D01*
X141682273Y-104786098D01*
X141860901Y-104964727D01*
X142094290Y-105061400D01*
X142309850Y-105061400D01*
X142468600Y-104902650D01*
X142468600Y-104153400D01*
X142722600Y-104153400D01*
X142722600Y-104902650D01*
X142881350Y-105061400D01*
X143096910Y-105061400D01*
X143330299Y-104964727D01*
X143508927Y-104786098D01*
X143605600Y-104552709D01*
X143605600Y-104312150D01*
X143446850Y-104153400D01*
X142722600Y-104153400D01*
X142468600Y-104153400D01*
X141744350Y-104153400D01*
X141585600Y-104312150D01*
X125521040Y-104312150D01*
X125521040Y-103860800D01*
X125476762Y-103625483D01*
X125461262Y-103601395D01*
X125508600Y-103487110D01*
X125508600Y-103146550D01*
X125349850Y-102987800D01*
X124000600Y-102987800D01*
X124000600Y-103007800D01*
X123746600Y-103007800D01*
X123746600Y-102987800D01*
X122397350Y-102987800D01*
X122238600Y-103146550D01*
X122238600Y-103266998D01*
X122049040Y-103077438D01*
X122049040Y-102504800D01*
X122004762Y-102269483D01*
X121865690Y-102053359D01*
X121653490Y-101908369D01*
X121640403Y-101905719D01*
X121853041Y-101768890D01*
X121998031Y-101556690D01*
X122049040Y-101304800D01*
X122049040Y-100604800D01*
X122004762Y-100369483D01*
X121865690Y-100153359D01*
X121788047Y-100100308D01*
X121788362Y-99738433D01*
X121646317Y-99394657D01*
X121383527Y-99131408D01*
X121039999Y-98988762D01*
X120668033Y-98988438D01*
X120324257Y-99130483D01*
X120061008Y-99393273D01*
X119918362Y-99736801D01*
X119918140Y-99991880D01*
X119866283Y-100001638D01*
X119650159Y-100140710D01*
X119505169Y-100352910D01*
X119454160Y-100604800D01*
X119454160Y-101304800D01*
X119498438Y-101540117D01*
X119637510Y-101756241D01*
X119849710Y-101901231D01*
X119862797Y-101903881D01*
X119650159Y-102040710D01*
X119505169Y-102252910D01*
X119454160Y-102504800D01*
X119454160Y-103204800D01*
X119498438Y-103440117D01*
X119558215Y-103533013D01*
X119102640Y-103077438D01*
X119102640Y-102504800D01*
X119058362Y-102269483D01*
X118919290Y-102053359D01*
X118707090Y-101908369D01*
X118694003Y-101905719D01*
X118906641Y-101768890D01*
X119051631Y-101556690D01*
X119102640Y-101304800D01*
X119102640Y-100604800D01*
X119058362Y-100369483D01*
X118919290Y-100153359D01*
X118795608Y-100068851D01*
X118841638Y-99957999D01*
X118841962Y-99586033D01*
X118699917Y-99242257D01*
X118437127Y-98979008D01*
X118093599Y-98836362D01*
X117721633Y-98836038D01*
X117377857Y-98978083D01*
X117114608Y-99240873D01*
X116971962Y-99584401D01*
X116971638Y-99956367D01*
X116985261Y-99989336D01*
X116919883Y-100001638D01*
X116703759Y-100140710D01*
X116558769Y-100352910D01*
X116507760Y-100604800D01*
X113877237Y-100604800D01*
X113455591Y-100401691D01*
X113439826Y-100399042D01*
X113207800Y-100520183D01*
X112953800Y-100520183D01*
X112721774Y-100399042D01*
X112706009Y-100401691D01*
X112178764Y-100655668D01*
X111807261Y-101071469D01*
X111600470Y-100761985D01*
X111114289Y-100437129D01*
X110540800Y-100323055D01*
X109967311Y-100437129D01*
X109481130Y-100761985D01*
X109270800Y-101076766D01*
X109060470Y-100761985D01*
X108574289Y-100437129D01*
X108000800Y-100323055D01*
X107427311Y-100437129D01*
X106941130Y-100761985D01*
X106931557Y-100776313D01*
X106927562Y-100755083D01*
X106788490Y-100538959D01*
X106576290Y-100393969D01*
X106324400Y-100342960D01*
X104597200Y-100342960D01*
X104361883Y-100387238D01*
X104145759Y-100526310D01*
X104000769Y-100738510D01*
X103953608Y-100971400D01*
X95678711Y-100971400D01*
X94913400Y-100206088D01*
X94913400Y-98059750D01*
X113802000Y-98059750D01*
X113802000Y-98400309D01*
X113898673Y-98633698D01*
X114077301Y-98812327D01*
X114310690Y-98909000D01*
X114776250Y-98909000D01*
X114935000Y-98750250D01*
X114935000Y-97901000D01*
X115189000Y-97901000D01*
X115189000Y-98750250D01*
X115347750Y-98909000D01*
X115813310Y-98909000D01*
X116046699Y-98812327D01*
X116225327Y-98633698D01*
X116322000Y-98400309D01*
X116322000Y-98059750D01*
X116173600Y-97911350D01*
X116439600Y-97911350D01*
X116439600Y-98151909D01*
X116536273Y-98385298D01*
X116714901Y-98563927D01*
X116948290Y-98660600D01*
X117163850Y-98660600D01*
X117322600Y-98501850D01*
X117322600Y-97752600D01*
X117576600Y-97752600D01*
X117576600Y-98501850D01*
X117735350Y-98660600D01*
X117950910Y-98660600D01*
X118184299Y-98563927D01*
X118362927Y-98385298D01*
X118459600Y-98151909D01*
X118459600Y-97911350D01*
X118409050Y-97860800D01*
X122126160Y-97860800D01*
X122126160Y-98860800D01*
X122170438Y-99096117D01*
X122253591Y-99225341D01*
X122226160Y-99360800D01*
X122226160Y-100360800D01*
X122270438Y-100596117D01*
X122277942Y-100607779D01*
X122277169Y-100608910D01*
X122226160Y-100860800D01*
X122226160Y-101860800D01*
X122270438Y-102096117D01*
X122285938Y-102120205D01*
X122238600Y-102234490D01*
X122238600Y-102575050D01*
X122397350Y-102733800D01*
X123746600Y-102733800D01*
X123746600Y-102713800D01*
X124000600Y-102713800D01*
X124000600Y-102733800D01*
X125349850Y-102733800D01*
X125508600Y-102575050D01*
X125508600Y-102234490D01*
X125462633Y-102123517D01*
X125470031Y-102112690D01*
X125521040Y-101860800D01*
X125521040Y-100860800D01*
X125476762Y-100625483D01*
X125469258Y-100613821D01*
X125470031Y-100612690D01*
X125521040Y-100360800D01*
X125521040Y-99360800D01*
X125476762Y-99125483D01*
X125473749Y-99120800D01*
X128867600Y-99120800D01*
X129158439Y-99062948D01*
X129405001Y-98898201D01*
X129747823Y-98555379D01*
X130638386Y-98555379D01*
X130826008Y-99009457D01*
X131173115Y-99357171D01*
X131626866Y-99545585D01*
X132118179Y-99546014D01*
X132572257Y-99358392D01*
X132919971Y-99011285D01*
X133108385Y-98557534D01*
X133108814Y-98066221D01*
X133023936Y-97860800D01*
X137726160Y-97860800D01*
X137726160Y-98860800D01*
X137770438Y-99096117D01*
X137853591Y-99225341D01*
X137826160Y-99360800D01*
X137826160Y-100360800D01*
X137870438Y-100596117D01*
X137877942Y-100607779D01*
X137877169Y-100608910D01*
X137826160Y-100860800D01*
X137826160Y-101860800D01*
X137870438Y-102096117D01*
X137877942Y-102107779D01*
X137877169Y-102108910D01*
X137826160Y-102360800D01*
X137826160Y-103360800D01*
X137870438Y-103596117D01*
X137885938Y-103620205D01*
X137838600Y-103734490D01*
X137838600Y-104075050D01*
X137997350Y-104233800D01*
X139346600Y-104233800D01*
X139346600Y-104213800D01*
X139600600Y-104213800D01*
X139600600Y-104233800D01*
X140949850Y-104233800D01*
X141108600Y-104075050D01*
X141108600Y-103734490D01*
X141062633Y-103623517D01*
X141070031Y-103612690D01*
X141121040Y-103360800D01*
X141121040Y-102360800D01*
X141076935Y-102126400D01*
X141573160Y-102126400D01*
X141573160Y-102926400D01*
X141617438Y-103161717D01*
X141683929Y-103265046D01*
X141682273Y-103266702D01*
X141585600Y-103500091D01*
X141585600Y-103740650D01*
X141744350Y-103899400D01*
X142468600Y-103899400D01*
X142468600Y-103879400D01*
X142722600Y-103879400D01*
X142722600Y-103899400D01*
X143446850Y-103899400D01*
X143605600Y-103740650D01*
X143605600Y-103500091D01*
X143508927Y-103266702D01*
X143507557Y-103265332D01*
X143567031Y-103178290D01*
X143618040Y-102926400D01*
X143618040Y-102126400D01*
X143573762Y-101891083D01*
X143434690Y-101674959D01*
X143430600Y-101672164D01*
X143430600Y-100980668D01*
X143726160Y-100685108D01*
X143726160Y-101660800D01*
X143770438Y-101896117D01*
X143909510Y-102112241D01*
X144121710Y-102257231D01*
X144373600Y-102308240D01*
X146873600Y-102308240D01*
X147108917Y-102263962D01*
X147325041Y-102124890D01*
X147470031Y-101912690D01*
X147521040Y-101660800D01*
X147521040Y-100832128D01*
X148851466Y-104298279D01*
X149134520Y-104721899D01*
X150222295Y-105782500D01*
X156893995Y-99110800D01*
X150222295Y-92439100D01*
X149134520Y-93499701D01*
X147591572Y-96964975D01*
X147521040Y-99655797D01*
X147521040Y-96560800D01*
X147476762Y-96325483D01*
X147337690Y-96109359D01*
X147125490Y-95964369D01*
X146873600Y-95913360D01*
X144373600Y-95913360D01*
X144138283Y-95957638D01*
X143922159Y-96096710D01*
X143777169Y-96308910D01*
X143726160Y-96560800D01*
X143726160Y-98388739D01*
X143618428Y-98460723D01*
X143529166Y-98520366D01*
X142005166Y-100044366D01*
X141824161Y-100315259D01*
X141760600Y-100634800D01*
X141760600Y-101674837D01*
X141624169Y-101874510D01*
X141573160Y-102126400D01*
X141076935Y-102126400D01*
X141076762Y-102125483D01*
X141069258Y-102113821D01*
X141070031Y-102112690D01*
X141121040Y-101860800D01*
X141121040Y-100860800D01*
X141076762Y-100625483D01*
X141069258Y-100613821D01*
X141070031Y-100612690D01*
X141121040Y-100360800D01*
X141121040Y-99360800D01*
X141076762Y-99125483D01*
X140993609Y-98996259D01*
X141021040Y-98860800D01*
X141021040Y-97860800D01*
X140995014Y-97722482D01*
X141070031Y-97612690D01*
X141121040Y-97360800D01*
X141121040Y-96360800D01*
X141076762Y-96125483D01*
X141069258Y-96113821D01*
X141070031Y-96112690D01*
X141121040Y-95860800D01*
X141121040Y-94860800D01*
X141076762Y-94625483D01*
X141061262Y-94601395D01*
X141108600Y-94487110D01*
X141108600Y-94146550D01*
X140949850Y-93987800D01*
X139600600Y-93987800D01*
X139600600Y-94007800D01*
X139346600Y-94007800D01*
X139346600Y-93987800D01*
X137997350Y-93987800D01*
X137838600Y-94146550D01*
X137838600Y-94487110D01*
X137884567Y-94598083D01*
X137877169Y-94608910D01*
X137826160Y-94860800D01*
X137826160Y-95860800D01*
X137870438Y-96096117D01*
X137877942Y-96107779D01*
X137877169Y-96108910D01*
X137826160Y-96360800D01*
X137826160Y-97360800D01*
X137852186Y-97499118D01*
X137777169Y-97608910D01*
X137726160Y-97860800D01*
X133023936Y-97860800D01*
X132921192Y-97612143D01*
X132574085Y-97264429D01*
X132120334Y-97076015D01*
X131629021Y-97075586D01*
X131174943Y-97263208D01*
X130827229Y-97610315D01*
X130638815Y-98064066D01*
X130638386Y-98555379D01*
X129747823Y-98555379D01*
X131245801Y-97057401D01*
X131410548Y-96810840D01*
X131468400Y-96520000D01*
X131468400Y-92593200D01*
X131426928Y-92384709D01*
X131410548Y-92302360D01*
X131245801Y-92055799D01*
X131050802Y-91860800D01*
X137826160Y-91860800D01*
X137826160Y-92860800D01*
X137870438Y-93096117D01*
X137885938Y-93120205D01*
X137838600Y-93234490D01*
X137838600Y-93575050D01*
X137997350Y-93733800D01*
X139346600Y-93733800D01*
X139346600Y-93713800D01*
X139600600Y-93713800D01*
X139600600Y-93733800D01*
X140949850Y-93733800D01*
X141108600Y-93575050D01*
X141108600Y-93234490D01*
X141062633Y-93123517D01*
X141070031Y-93112690D01*
X141121040Y-92860800D01*
X141121040Y-92259495D01*
X150401900Y-92259495D01*
X157073600Y-98931195D01*
X163745300Y-92259495D01*
X162684699Y-91171720D01*
X159219425Y-89628772D01*
X155427469Y-89529377D01*
X151886121Y-90888666D01*
X151462501Y-91171720D01*
X150401900Y-92259495D01*
X141121040Y-92259495D01*
X141121040Y-91860800D01*
X141076762Y-91625483D01*
X140937690Y-91409359D01*
X140725490Y-91264369D01*
X140473600Y-91213360D01*
X138473600Y-91213360D01*
X138238283Y-91257638D01*
X138022159Y-91396710D01*
X137877169Y-91608910D01*
X137826160Y-91860800D01*
X131050802Y-91860800D01*
X127637040Y-88447038D01*
X127637040Y-87874400D01*
X127592762Y-87639083D01*
X127453690Y-87422959D01*
X127241490Y-87277969D01*
X127228403Y-87275319D01*
X127441041Y-87138490D01*
X127541270Y-86991800D01*
X129057674Y-86991800D01*
X129062438Y-87017117D01*
X129201510Y-87233241D01*
X129413710Y-87378231D01*
X129665600Y-87429240D01*
X130665600Y-87429240D01*
X130900917Y-87384962D01*
X131117041Y-87245890D01*
X131163569Y-87177794D01*
X131305902Y-87320127D01*
X131539291Y-87416800D01*
X131879850Y-87416800D01*
X132038600Y-87258050D01*
X132038600Y-86283800D01*
X132292600Y-86283800D01*
X132292600Y-87258050D01*
X132451350Y-87416800D01*
X132791909Y-87416800D01*
X132882137Y-87379426D01*
X138499042Y-87379426D01*
X138501691Y-87395191D01*
X138755668Y-87922436D01*
X139192080Y-88312354D01*
X139744487Y-88505584D01*
X139979400Y-88361324D01*
X139979400Y-87147400D01*
X140233400Y-87147400D01*
X140233400Y-88361324D01*
X140468313Y-88505584D01*
X141020720Y-88312354D01*
X141457132Y-87922436D01*
X141711109Y-87395191D01*
X141713758Y-87379426D01*
X141592617Y-87147400D01*
X140233400Y-87147400D01*
X139979400Y-87147400D01*
X138620183Y-87147400D01*
X138499042Y-87379426D01*
X132882137Y-87379426D01*
X133025298Y-87320127D01*
X133203927Y-87141499D01*
X133300600Y-86908110D01*
X133300600Y-86442550D01*
X133141850Y-86283800D01*
X132292600Y-86283800D01*
X132038600Y-86283800D01*
X132018600Y-86283800D01*
X132018600Y-86029800D01*
X132038600Y-86029800D01*
X132038600Y-85055550D01*
X132292600Y-85055550D01*
X132292600Y-86029800D01*
X133141850Y-86029800D01*
X133300600Y-85871050D01*
X133300600Y-85405490D01*
X133203927Y-85172101D01*
X133025298Y-84993473D01*
X132791909Y-84896800D01*
X132451350Y-84896800D01*
X132292600Y-85055550D01*
X132038600Y-85055550D01*
X131879850Y-84896800D01*
X131539291Y-84896800D01*
X131305902Y-84993473D01*
X131164664Y-85134710D01*
X131129690Y-85080359D01*
X130917490Y-84935369D01*
X130665600Y-84884360D01*
X129665600Y-84884360D01*
X129430283Y-84928638D01*
X129214159Y-85067710D01*
X129069169Y-85279910D01*
X129060686Y-85321800D01*
X126507200Y-85321800D01*
X126481259Y-85326960D01*
X125689600Y-85326960D01*
X125454283Y-85371238D01*
X125238159Y-85510310D01*
X125093169Y-85722510D01*
X125042160Y-85974400D01*
X125042160Y-86674400D01*
X125086438Y-86909717D01*
X125225510Y-87125841D01*
X125437710Y-87270831D01*
X125450797Y-87273481D01*
X125238159Y-87410310D01*
X125093169Y-87622510D01*
X125042160Y-87874400D01*
X125042160Y-88574400D01*
X125086438Y-88809717D01*
X125225510Y-89025841D01*
X125437710Y-89170831D01*
X125689600Y-89221840D01*
X126262238Y-89221840D01*
X129948400Y-92908002D01*
X129948400Y-96205198D01*
X128552798Y-97600800D01*
X127177733Y-97600800D01*
X127295815Y-97424078D01*
X127374601Y-97028000D01*
X127295815Y-96631923D01*
X127071456Y-96296145D01*
X126904256Y-96128944D01*
X126568477Y-95904585D01*
X126172400Y-95825799D01*
X126172395Y-95825800D01*
X125508600Y-95825800D01*
X125508600Y-95646550D01*
X125349850Y-95487800D01*
X124000600Y-95487800D01*
X124000600Y-95507800D01*
X123746600Y-95507800D01*
X123746600Y-95487800D01*
X122397350Y-95487800D01*
X122238600Y-95646550D01*
X122238600Y-95987110D01*
X122284567Y-96098083D01*
X122277169Y-96108910D01*
X122226160Y-96360800D01*
X122226160Y-97360800D01*
X122252186Y-97499118D01*
X122177169Y-97608910D01*
X122126160Y-97860800D01*
X118409050Y-97860800D01*
X118300850Y-97752600D01*
X117576600Y-97752600D01*
X117322600Y-97752600D01*
X116598350Y-97752600D01*
X116439600Y-97911350D01*
X116173600Y-97911350D01*
X116163250Y-97901000D01*
X115189000Y-97901000D01*
X114935000Y-97901000D01*
X113960750Y-97901000D01*
X113802000Y-98059750D01*
X94913400Y-98059750D01*
X94913400Y-94339026D01*
X95268242Y-94339026D01*
X95270891Y-94354791D01*
X95524868Y-94882036D01*
X95961280Y-95271954D01*
X96513687Y-95465184D01*
X96748600Y-95320924D01*
X96748600Y-94107000D01*
X97002600Y-94107000D01*
X97002600Y-95320924D01*
X97237513Y-95465184D01*
X97789920Y-95271954D01*
X98226332Y-94882036D01*
X98480309Y-94354791D01*
X98482958Y-94339026D01*
X98361817Y-94107000D01*
X97002600Y-94107000D01*
X96748600Y-94107000D01*
X95389383Y-94107000D01*
X95268242Y-94339026D01*
X94913400Y-94339026D01*
X94913400Y-88515912D01*
X95609016Y-87820295D01*
X95649039Y-87828400D01*
X95631185Y-87840330D01*
X95306329Y-88326511D01*
X95192255Y-88900000D01*
X95306329Y-89473489D01*
X95631185Y-89959670D01*
X95945966Y-90170000D01*
X95631185Y-90380330D01*
X95306329Y-90866511D01*
X95192255Y-91440000D01*
X95306329Y-92013489D01*
X95631185Y-92499670D01*
X95940669Y-92706461D01*
X95524868Y-93077964D01*
X95270891Y-93605209D01*
X95268242Y-93620974D01*
X95389383Y-93853000D01*
X96748600Y-93853000D01*
X96748600Y-93833000D01*
X97002600Y-93833000D01*
X97002600Y-93853000D01*
X98361817Y-93853000D01*
X98482958Y-93620974D01*
X98480309Y-93605209D01*
X98226332Y-93077964D01*
X97810531Y-92706461D01*
X98120015Y-92499670D01*
X98444871Y-92013489D01*
X98558945Y-91440000D01*
X98444871Y-90866511D01*
X98120015Y-90380330D01*
X97805234Y-90170000D01*
X98120015Y-89959670D01*
X98444871Y-89473489D01*
X98558945Y-88900000D01*
X98444871Y-88326511D01*
X98120015Y-87840330D01*
X98105687Y-87830757D01*
X98126917Y-87826762D01*
X98343041Y-87687690D01*
X98488031Y-87475490D01*
X98539040Y-87223600D01*
X98539040Y-85496400D01*
X98494762Y-85261083D01*
X98355690Y-85044959D01*
X98143490Y-84899969D01*
X97910600Y-84852808D01*
X97910600Y-82724712D01*
X100591111Y-80044200D01*
X103371675Y-80044200D01*
X103292559Y-80095110D01*
X103147569Y-80307310D01*
X103096560Y-80559200D01*
X103096560Y-81259200D01*
X103140838Y-81494517D01*
X103279910Y-81710641D01*
X103492110Y-81855631D01*
X103744000Y-81906640D01*
X105044000Y-81906640D01*
X105279317Y-81862362D01*
X105495441Y-81723290D01*
X105497814Y-81719816D01*
X105513760Y-81735762D01*
X105513760Y-83358400D01*
X105558038Y-83593717D01*
X105697110Y-83809841D01*
X105901200Y-83949290D01*
X105901200Y-88571121D01*
X105709759Y-88694310D01*
X105564769Y-88906510D01*
X105513760Y-89158400D01*
X105513760Y-92258400D01*
X105558038Y-92493717D01*
X105697110Y-92709841D01*
X105909310Y-92854831D01*
X106161200Y-92905840D01*
X107161200Y-92905840D01*
X107396517Y-92861562D01*
X107612641Y-92722490D01*
X107757631Y-92510290D01*
X107808640Y-92258400D01*
X107808640Y-90994150D01*
X109526200Y-90994150D01*
X109526200Y-92384709D01*
X109622873Y-92618098D01*
X109801501Y-92796727D01*
X110034890Y-92893400D01*
X110375450Y-92893400D01*
X110534200Y-92734650D01*
X110534200Y-90835400D01*
X110788200Y-90835400D01*
X110788200Y-92734650D01*
X110946950Y-92893400D01*
X111287510Y-92893400D01*
X111520899Y-92796727D01*
X111699527Y-92618098D01*
X111796200Y-92384709D01*
X111796200Y-90994150D01*
X111637450Y-90835400D01*
X110788200Y-90835400D01*
X110534200Y-90835400D01*
X109684950Y-90835400D01*
X109526200Y-90994150D01*
X107808640Y-90994150D01*
X107808640Y-89158400D01*
X107784874Y-89032091D01*
X109526200Y-89032091D01*
X109526200Y-90422650D01*
X109684950Y-90581400D01*
X110534200Y-90581400D01*
X110534200Y-88682150D01*
X110788200Y-88682150D01*
X110788200Y-90581400D01*
X111637450Y-90581400D01*
X111796200Y-90422650D01*
X111796200Y-89032091D01*
X111699527Y-88798702D01*
X111520899Y-88620073D01*
X111287510Y-88523400D01*
X110946950Y-88523400D01*
X110788200Y-88682150D01*
X110534200Y-88682150D01*
X110375450Y-88523400D01*
X110034890Y-88523400D01*
X109801501Y-88620073D01*
X109622873Y-88798702D01*
X109526200Y-89032091D01*
X107784874Y-89032091D01*
X107764362Y-88923083D01*
X107625290Y-88706959D01*
X107421200Y-88567510D01*
X107421200Y-83945679D01*
X107612641Y-83822490D01*
X107757631Y-83610290D01*
X107808640Y-83358400D01*
X107808640Y-82094150D01*
X109526200Y-82094150D01*
X109526200Y-83484709D01*
X109622873Y-83718098D01*
X109801501Y-83896727D01*
X110034890Y-83993400D01*
X110375450Y-83993400D01*
X110534200Y-83834650D01*
X110534200Y-81935400D01*
X110788200Y-81935400D01*
X110788200Y-83834650D01*
X110946950Y-83993400D01*
X111287510Y-83993400D01*
X111520899Y-83896727D01*
X111699527Y-83718098D01*
X111796200Y-83484709D01*
X111796200Y-82094150D01*
X111637450Y-81935400D01*
X110788200Y-81935400D01*
X110534200Y-81935400D01*
X109684950Y-81935400D01*
X109526200Y-82094150D01*
X107808640Y-82094150D01*
X107808640Y-81735762D01*
X109606732Y-79937670D01*
X109526200Y-80132091D01*
X109526200Y-81522650D01*
X109684950Y-81681400D01*
X110534200Y-81681400D01*
X110534200Y-79782150D01*
X110788200Y-79782150D01*
X110788200Y-81681400D01*
X111637450Y-81681400D01*
X111796200Y-81522650D01*
X111796200Y-80132091D01*
X111699527Y-79898702D01*
X111520899Y-79720073D01*
X111287510Y-79623400D01*
X110946950Y-79623400D01*
X110788200Y-79782150D01*
X110534200Y-79782150D01*
X110375450Y-79623400D01*
X110034890Y-79623400D01*
X109840471Y-79703931D01*
X110908002Y-78636400D01*
X117310378Y-78636400D01*
X117295960Y-78707600D01*
X117295960Y-79707600D01*
X117308400Y-79773713D01*
X117308400Y-81390800D01*
X117366252Y-81681639D01*
X117530999Y-81928201D01*
X120121278Y-84518480D01*
X120121238Y-84563967D01*
X120263283Y-84907743D01*
X120365879Y-85010519D01*
X118833920Y-86542478D01*
X118788433Y-86542438D01*
X118444657Y-86684483D01*
X118181408Y-86947273D01*
X118038762Y-87290801D01*
X118038438Y-87662767D01*
X118163355Y-87965090D01*
X117874033Y-87964838D01*
X117530257Y-88106883D01*
X117267008Y-88369673D01*
X117124362Y-88713201D01*
X117124038Y-89085167D01*
X117209166Y-89291192D01*
X117165408Y-89334873D01*
X117022762Y-89678401D01*
X117022565Y-89904853D01*
X116808200Y-89690488D01*
X116808200Y-84023200D01*
X116729415Y-83627123D01*
X116505056Y-83291344D01*
X116169277Y-83066985D01*
X115773200Y-82988200D01*
X115377123Y-83066985D01*
X115041344Y-83291344D01*
X114816985Y-83627123D01*
X114738200Y-84023200D01*
X114738200Y-90119195D01*
X114738199Y-90119200D01*
X114816985Y-90515277D01*
X115041344Y-90851056D01*
X116722488Y-92532200D01*
X116717744Y-92536944D01*
X116493385Y-92872723D01*
X116414599Y-93268800D01*
X116414600Y-93268805D01*
X116414600Y-95290600D01*
X116334440Y-95290600D01*
X116334440Y-95274000D01*
X116290162Y-95038683D01*
X116151090Y-94822559D01*
X115938890Y-94677569D01*
X115687000Y-94626560D01*
X114437000Y-94626560D01*
X114201683Y-94670838D01*
X113985559Y-94809910D01*
X113840569Y-95022110D01*
X113789560Y-95274000D01*
X113789560Y-96274000D01*
X113833838Y-96509317D01*
X113972910Y-96725441D01*
X114041006Y-96771969D01*
X113898673Y-96914302D01*
X113802000Y-97147691D01*
X113802000Y-97488250D01*
X113960750Y-97647000D01*
X114935000Y-97647000D01*
X114935000Y-97627000D01*
X115189000Y-97627000D01*
X115189000Y-97647000D01*
X116163250Y-97647000D01*
X116322000Y-97488250D01*
X116322000Y-97147691D01*
X116244504Y-96960600D01*
X116497048Y-96960600D01*
X116439600Y-97099291D01*
X116439600Y-97339850D01*
X116598350Y-97498600D01*
X117322600Y-97498600D01*
X117322600Y-97478600D01*
X117576600Y-97478600D01*
X117576600Y-97498600D01*
X118300850Y-97498600D01*
X118459600Y-97339850D01*
X118459600Y-97099291D01*
X118362927Y-96865902D01*
X118361557Y-96864532D01*
X118421031Y-96777490D01*
X118472040Y-96525600D01*
X118472040Y-96188743D01*
X118484600Y-96125600D01*
X118484600Y-93697512D01*
X118786311Y-93395800D01*
X122226160Y-93395800D01*
X122226160Y-94360800D01*
X122270438Y-94596117D01*
X122285938Y-94620205D01*
X122238600Y-94734490D01*
X122238600Y-95075050D01*
X122397350Y-95233800D01*
X123746600Y-95233800D01*
X123746600Y-95213800D01*
X124000600Y-95213800D01*
X124000600Y-95233800D01*
X125349850Y-95233800D01*
X125508600Y-95075050D01*
X125508600Y-94734490D01*
X125462633Y-94623517D01*
X125470031Y-94612690D01*
X125521040Y-94360800D01*
X125521040Y-93360800D01*
X125476762Y-93125483D01*
X125469258Y-93113821D01*
X125470031Y-93112690D01*
X125521040Y-92860800D01*
X125521040Y-91860800D01*
X125476762Y-91625483D01*
X125337690Y-91409359D01*
X125125490Y-91264369D01*
X124873600Y-91213360D01*
X122873600Y-91213360D01*
X122638283Y-91257638D01*
X122532356Y-91325800D01*
X118443511Y-91325800D01*
X117917877Y-90800166D01*
X118142767Y-90800362D01*
X118486543Y-90658317D01*
X118519718Y-90625200D01*
X119684800Y-90625200D01*
X119975639Y-90567348D01*
X120222201Y-90402601D01*
X126105801Y-84519001D01*
X126270548Y-84272439D01*
X126328400Y-83981600D01*
X126328400Y-79769031D01*
X126340840Y-79707600D01*
X126340840Y-78707600D01*
X126296562Y-78472283D01*
X126157490Y-78256159D01*
X125945290Y-78111169D01*
X125693400Y-78060160D01*
X125443400Y-78060160D01*
X125313811Y-78084544D01*
X125193400Y-78060160D01*
X124943400Y-78060160D01*
X124813811Y-78084544D01*
X124693400Y-78060160D01*
X124443400Y-78060160D01*
X124370536Y-78073870D01*
X124480438Y-77809199D01*
X124480692Y-77517600D01*
X126396362Y-77517600D01*
X126415238Y-77617917D01*
X126554310Y-77834041D01*
X126766510Y-77979031D01*
X127018400Y-78030040D01*
X128018400Y-78030040D01*
X128253717Y-77985762D01*
X128469841Y-77846690D01*
X128614831Y-77634490D01*
X128665840Y-77382600D01*
X128665840Y-77132600D01*
X128641456Y-77003011D01*
X128665840Y-76882600D01*
X128665840Y-76632600D01*
X128645950Y-76526895D01*
X128653400Y-76508910D01*
X128653400Y-76478850D01*
X128633088Y-76458538D01*
X128621562Y-76397283D01*
X128531210Y-76256873D01*
X128614831Y-76134490D01*
X128629958Y-76059792D01*
X128653400Y-76036350D01*
X128653400Y-76006290D01*
X128644932Y-75985847D01*
X128665840Y-75882600D01*
X128665840Y-75632600D01*
X128641456Y-75503011D01*
X128665840Y-75382600D01*
X128665840Y-75132600D01*
X128641456Y-75003011D01*
X128665840Y-74882600D01*
X128665840Y-74632600D01*
X128644201Y-74517600D01*
X134725600Y-74517600D01*
X135016439Y-74459748D01*
X135263001Y-74295001D01*
X137045680Y-72512322D01*
X137091167Y-72512362D01*
X137434943Y-72370317D01*
X137698192Y-72107527D01*
X137840838Y-71763999D01*
X137841162Y-71392033D01*
X137699117Y-71048257D01*
X137436327Y-70785008D01*
X137092799Y-70642362D01*
X136805812Y-70642112D01*
X136784717Y-70591057D01*
X136521927Y-70327808D01*
X136178399Y-70185162D01*
X135806433Y-70184838D01*
X135462657Y-70326883D01*
X135199408Y-70589673D01*
X135056762Y-70933201D01*
X135056721Y-70980077D01*
X134473035Y-71563763D01*
X134474040Y-71558800D01*
X134474040Y-71221947D01*
X134486601Y-71158800D01*
X134474040Y-71095653D01*
X134474040Y-70758800D01*
X134429762Y-70523483D01*
X134363271Y-70420154D01*
X134364927Y-70418498D01*
X134461600Y-70185109D01*
X134461600Y-69944550D01*
X134302850Y-69785800D01*
X133578600Y-69785800D01*
X133578600Y-69805800D01*
X133324600Y-69805800D01*
X133324600Y-69785800D01*
X132600350Y-69785800D01*
X132441600Y-69944550D01*
X132441600Y-69978832D01*
X132361890Y-69924369D01*
X132110000Y-69873360D01*
X132060562Y-69873360D01*
X131440322Y-69253120D01*
X131440362Y-69207633D01*
X131409315Y-69132491D01*
X132441600Y-69132491D01*
X132441600Y-69373050D01*
X132600350Y-69531800D01*
X133324600Y-69531800D01*
X133324600Y-68782550D01*
X133578600Y-68782550D01*
X133578600Y-69531800D01*
X134302850Y-69531800D01*
X134461600Y-69373050D01*
X134461600Y-69132491D01*
X134364927Y-68899102D01*
X134186299Y-68720473D01*
X133952910Y-68623800D01*
X133737350Y-68623800D01*
X133578600Y-68782550D01*
X133324600Y-68782550D01*
X133165850Y-68623800D01*
X132950290Y-68623800D01*
X132716901Y-68720473D01*
X132538273Y-68899102D01*
X132441600Y-69132491D01*
X131409315Y-69132491D01*
X131298317Y-68863857D01*
X131035527Y-68600608D01*
X130691999Y-68457962D01*
X130320033Y-68457638D01*
X129976257Y-68599683D01*
X129713008Y-68862473D01*
X129570362Y-69206001D01*
X129570038Y-69577967D01*
X129692092Y-69873360D01*
X129510000Y-69873360D01*
X129274683Y-69917638D01*
X129058559Y-70056710D01*
X128913569Y-70268910D01*
X128862560Y-70520800D01*
X128862560Y-70976638D01*
X128665840Y-71173358D01*
X128665840Y-71132600D01*
X128641456Y-71003011D01*
X128665840Y-70882600D01*
X128665840Y-70632600D01*
X128641456Y-70503011D01*
X128665840Y-70382600D01*
X128665840Y-70132600D01*
X128641456Y-70003011D01*
X128665840Y-69882600D01*
X128665840Y-69632600D01*
X128621562Y-69397283D01*
X128482490Y-69181159D01*
X128270290Y-69036169D01*
X128018400Y-68985160D01*
X127018400Y-68985160D01*
X126952287Y-68997600D01*
X125263600Y-68997600D01*
X124972761Y-69055452D01*
X124726199Y-69220199D01*
X124523520Y-69422878D01*
X124478033Y-69422838D01*
X124134257Y-69564883D01*
X123871008Y-69827673D01*
X123773566Y-70062338D01*
X123579999Y-69981962D01*
X123208033Y-69981638D01*
X122864257Y-70123683D01*
X122601008Y-70386473D01*
X122458362Y-70730001D01*
X122458038Y-71101967D01*
X122600083Y-71445743D01*
X122651850Y-71497600D01*
X121493600Y-71497600D01*
X121202760Y-71555452D01*
X121139913Y-71597445D01*
X118497508Y-68955040D01*
X118693400Y-68955040D01*
X118822989Y-68930656D01*
X118943400Y-68955040D01*
X119193400Y-68955040D01*
X119322989Y-68930656D01*
X119443400Y-68955040D01*
X119693400Y-68955040D01*
X119822989Y-68930656D01*
X119943400Y-68955040D01*
X120193400Y-68955040D01*
X120299105Y-68935150D01*
X120317090Y-68942600D01*
X120347150Y-68942600D01*
X120367462Y-68922288D01*
X120428717Y-68910762D01*
X120569127Y-68820410D01*
X120691510Y-68904031D01*
X120766208Y-68919158D01*
X120789650Y-68942600D01*
X120819710Y-68942600D01*
X120840153Y-68934132D01*
X120943400Y-68955040D01*
X121193400Y-68955040D01*
X121322989Y-68930656D01*
X121443400Y-68955040D01*
X121693400Y-68955040D01*
X121822989Y-68930656D01*
X121943400Y-68955040D01*
X122193400Y-68955040D01*
X122322989Y-68930656D01*
X122443400Y-68955040D01*
X122693400Y-68955040D01*
X122822989Y-68930656D01*
X122943400Y-68955040D01*
X123193400Y-68955040D01*
X123322989Y-68930656D01*
X123443400Y-68955040D01*
X123693400Y-68955040D01*
X123822989Y-68930656D01*
X123943400Y-68955040D01*
X124193400Y-68955040D01*
X124322989Y-68930656D01*
X124443400Y-68955040D01*
X124693400Y-68955040D01*
X124822989Y-68930656D01*
X124943400Y-68955040D01*
X125193400Y-68955040D01*
X125322989Y-68930656D01*
X125443400Y-68955040D01*
X125693400Y-68955040D01*
X125928717Y-68910762D01*
X126144841Y-68771690D01*
X126289831Y-68559490D01*
X126340840Y-68307600D01*
X126340840Y-67316762D01*
X128229202Y-65428400D01*
X128981200Y-65428400D01*
X129272039Y-65370548D01*
X129518601Y-65205801D01*
X134366421Y-60357981D01*
X134874000Y-60458945D01*
X135447489Y-60344871D01*
X135933670Y-60020015D01*
X135943243Y-60005687D01*
X135947238Y-60026917D01*
X136086310Y-60243041D01*
X136298510Y-60388031D01*
X136379000Y-60404331D01*
X136379000Y-61405195D01*
X136378999Y-61405200D01*
X136457785Y-61801277D01*
X136682144Y-62137056D01*
X137407000Y-62861911D01*
X137407000Y-66236395D01*
X137406999Y-66236400D01*
X137485785Y-66632477D01*
X137710144Y-66968256D01*
X139490288Y-68748400D01*
X139374544Y-68864144D01*
X139150185Y-69199923D01*
X139071399Y-69596000D01*
X139071400Y-69596005D01*
X139071400Y-72812935D01*
X138855083Y-72853638D01*
X138638959Y-72992710D01*
X138493969Y-73204910D01*
X138442960Y-73456800D01*
X138442960Y-75184000D01*
X138487238Y-75419317D01*
X138626310Y-75635441D01*
X138838510Y-75780431D01*
X138879839Y-75788800D01*
X138861985Y-75800730D01*
X138537129Y-76286911D01*
X138423055Y-76860400D01*
X138537129Y-77433889D01*
X138861985Y-77920070D01*
X139176766Y-78130400D01*
X138861985Y-78340730D01*
X138537129Y-78826911D01*
X138423055Y-79400400D01*
X138537129Y-79973889D01*
X138861985Y-80460070D01*
X139176766Y-80670400D01*
X138861985Y-80880730D01*
X138537129Y-81366911D01*
X138423055Y-81940400D01*
X138537129Y-82513889D01*
X138861985Y-83000070D01*
X139176766Y-83210400D01*
X138861985Y-83420730D01*
X138537129Y-83906911D01*
X138423055Y-84480400D01*
X138537129Y-85053889D01*
X138861985Y-85540070D01*
X139171469Y-85746861D01*
X138755668Y-86118364D01*
X138501691Y-86645609D01*
X138499042Y-86661374D01*
X138620183Y-86893400D01*
X139979400Y-86893400D01*
X139979400Y-86873400D01*
X140233400Y-86873400D01*
X140233400Y-86893400D01*
X141592617Y-86893400D01*
X141713758Y-86661374D01*
X141711109Y-86645609D01*
X141457132Y-86118364D01*
X141041331Y-85746861D01*
X141350815Y-85540070D01*
X141675671Y-85053889D01*
X141789745Y-84480400D01*
X141675671Y-83906911D01*
X141350815Y-83420730D01*
X141036034Y-83210400D01*
X141350815Y-83000070D01*
X141675671Y-82513889D01*
X141789745Y-81940400D01*
X141675671Y-81366911D01*
X141350815Y-80880730D01*
X141036034Y-80670400D01*
X141218938Y-80548187D01*
X144675552Y-80548187D01*
X144893557Y-81075800D01*
X145296877Y-81479824D01*
X145427015Y-81533862D01*
X145299000Y-81586757D01*
X144894976Y-81990077D01*
X144676050Y-82517309D01*
X144675552Y-83088187D01*
X144893557Y-83615800D01*
X145296877Y-84019824D01*
X145427015Y-84073862D01*
X145299000Y-84126757D01*
X144894976Y-84530077D01*
X144676050Y-85057309D01*
X144675552Y-85628187D01*
X144893557Y-86155800D01*
X145296877Y-86559824D01*
X145427015Y-86613862D01*
X145299000Y-86666757D01*
X144894976Y-87070077D01*
X144676050Y-87597309D01*
X144675552Y-88168187D01*
X144893557Y-88695800D01*
X145296877Y-89099824D01*
X145824109Y-89318750D01*
X146394987Y-89319248D01*
X146922600Y-89101243D01*
X147326624Y-88697923D01*
X147545550Y-88170691D01*
X147546048Y-87599813D01*
X147328043Y-87072200D01*
X146924723Y-86668176D01*
X146794585Y-86614138D01*
X146922600Y-86561243D01*
X147326624Y-86157923D01*
X147545550Y-85630691D01*
X147546048Y-85059813D01*
X147328043Y-84532200D01*
X146924723Y-84128176D01*
X146794585Y-84074138D01*
X146922600Y-84021243D01*
X147326624Y-83617923D01*
X147545550Y-83090691D01*
X147546048Y-82519813D01*
X147328043Y-81992200D01*
X146924723Y-81588176D01*
X146794585Y-81534138D01*
X146922600Y-81481243D01*
X147326624Y-81077923D01*
X147545550Y-80550691D01*
X147545552Y-80548187D01*
X152275552Y-80548187D01*
X152493557Y-81075800D01*
X152896877Y-81479824D01*
X153027015Y-81533862D01*
X152899000Y-81586757D01*
X152494976Y-81990077D01*
X152276050Y-82517309D01*
X152275552Y-83088187D01*
X152493557Y-83615800D01*
X152896877Y-84019824D01*
X153027015Y-84073862D01*
X152899000Y-84126757D01*
X152494976Y-84530077D01*
X152276050Y-85057309D01*
X152275552Y-85628187D01*
X152493557Y-86155800D01*
X152896877Y-86559824D01*
X153027015Y-86613862D01*
X152899000Y-86666757D01*
X152494976Y-87070077D01*
X152276050Y-87597309D01*
X152275552Y-88168187D01*
X152493557Y-88695800D01*
X152896877Y-89099824D01*
X153424109Y-89318750D01*
X153994987Y-89319248D01*
X154522600Y-89101243D01*
X154878864Y-88745600D01*
X155823295Y-88745600D01*
X155914310Y-88887041D01*
X156126510Y-89032031D01*
X156378400Y-89083040D01*
X156878400Y-89083040D01*
X157113717Y-89038762D01*
X157329841Y-88899690D01*
X157377534Y-88829889D01*
X157414310Y-88887041D01*
X157626510Y-89032031D01*
X157878400Y-89083040D01*
X158378400Y-89083040D01*
X158613717Y-89038762D01*
X158829841Y-88899690D01*
X158974831Y-88687490D01*
X159025840Y-88435600D01*
X159025840Y-87535600D01*
X158981562Y-87300283D01*
X158888400Y-87155505D01*
X158888400Y-86019986D01*
X158974831Y-85893490D01*
X159025840Y-85641600D01*
X159025840Y-84741600D01*
X158981562Y-84506283D01*
X158888400Y-84361505D01*
X158888400Y-83628054D01*
X161405657Y-83628054D01*
X161881927Y-84780715D01*
X162763047Y-85663374D01*
X163914874Y-86141654D01*
X165162054Y-86142743D01*
X166314715Y-85666473D01*
X167197374Y-84785353D01*
X167675654Y-83633526D01*
X167676743Y-82386346D01*
X167200473Y-81233685D01*
X166319353Y-80351026D01*
X165167526Y-79872746D01*
X163920346Y-79871657D01*
X162767685Y-80347927D01*
X161885026Y-81229047D01*
X161406746Y-82380874D01*
X161405657Y-83628054D01*
X158888400Y-83628054D01*
X158888400Y-83479986D01*
X158974831Y-83353490D01*
X159025840Y-83101600D01*
X159025840Y-82201600D01*
X158981562Y-81966283D01*
X158842490Y-81750159D01*
X158736000Y-81677398D01*
X158736000Y-80838386D01*
X158822431Y-80711890D01*
X158873440Y-80460000D01*
X158873440Y-80187362D01*
X164418201Y-74642601D01*
X164582948Y-74396040D01*
X164640800Y-74105200D01*
X164640800Y-68448930D01*
X164781230Y-68448930D01*
X165016547Y-68404652D01*
X165232671Y-68265580D01*
X165377661Y-68053380D01*
X165428670Y-67801490D01*
X165428670Y-66529592D01*
X167517001Y-64441261D01*
X167681748Y-64194699D01*
X167739600Y-63903860D01*
X167739600Y-63046463D01*
X167771792Y-63014327D01*
X167914438Y-62670799D01*
X167914762Y-62298833D01*
X167772717Y-61955057D01*
X167509927Y-61691808D01*
X167166399Y-61549162D01*
X166794433Y-61548838D01*
X166450657Y-61690883D01*
X166187408Y-61953673D01*
X166044762Y-62297201D01*
X166044438Y-62669167D01*
X166186483Y-63012943D01*
X166219600Y-63046118D01*
X166219600Y-63589058D01*
X165428670Y-64379988D01*
X165428670Y-63364110D01*
X165384392Y-63128793D01*
X165245320Y-62912669D01*
X165133548Y-62836298D01*
X165178240Y-62615600D01*
X165178240Y-61915600D01*
X165133962Y-61680283D01*
X164994890Y-61464159D01*
X164782690Y-61319169D01*
X164769603Y-61316519D01*
X164982241Y-61179690D01*
X165127231Y-60967490D01*
X165178240Y-60715600D01*
X165178240Y-60015600D01*
X165133962Y-59780283D01*
X164994890Y-59564159D01*
X164782690Y-59419169D01*
X164530800Y-59368160D01*
X163230800Y-59368160D01*
X162995483Y-59412438D01*
X162779359Y-59551510D01*
X162634369Y-59763710D01*
X162595340Y-59956440D01*
X160393900Y-59956440D01*
X160402000Y-59916440D01*
X160402000Y-59116440D01*
X160362986Y-58909098D01*
X160402000Y-58716440D01*
X160402000Y-57916440D01*
X160362986Y-57709098D01*
X160402000Y-57516440D01*
X160402000Y-56716440D01*
X160357722Y-56481123D01*
X160218650Y-56264999D01*
X160006450Y-56120009D01*
X159754560Y-56069000D01*
X158454560Y-56069000D01*
X158219243Y-56113278D01*
X158003119Y-56252350D01*
X157858129Y-56464550D01*
X157807120Y-56716440D01*
X157807120Y-57516440D01*
X157846134Y-57723782D01*
X157807120Y-57916440D01*
X157807120Y-58716440D01*
X157814647Y-58756440D01*
X157450360Y-58756440D01*
X157207774Y-58804694D01*
X157159520Y-58814292D01*
X156912959Y-58979039D01*
X156180599Y-59711399D01*
X156015852Y-59957961D01*
X155958000Y-60248800D01*
X155958000Y-65833137D01*
X155925808Y-65865273D01*
X155783162Y-66208801D01*
X155782838Y-66580767D01*
X155924883Y-66924543D01*
X156187673Y-67187792D01*
X156531201Y-67330438D01*
X156903167Y-67330762D01*
X157246943Y-67188717D01*
X157510192Y-66925927D01*
X157652838Y-66582399D01*
X157653162Y-66210433D01*
X157511117Y-65866657D01*
X157478000Y-65833482D01*
X157478000Y-62852397D01*
X157496401Y-62860038D01*
X157807120Y-62860309D01*
X157807120Y-63516440D01*
X157846134Y-63723782D01*
X157807120Y-63916440D01*
X157807120Y-64716440D01*
X157846134Y-64923782D01*
X157807120Y-65116440D01*
X157807120Y-65916440D01*
X157846134Y-66123782D01*
X157807120Y-66316440D01*
X157807120Y-67116440D01*
X157846418Y-67325290D01*
X157819560Y-67390130D01*
X157819560Y-67630690D01*
X157978310Y-67789440D01*
X158977560Y-67789440D01*
X158977560Y-67769440D01*
X159231560Y-67769440D01*
X159231560Y-67789440D01*
X160230810Y-67789440D01*
X160389560Y-67630690D01*
X160389560Y-67390130D01*
X160360690Y-67320433D01*
X160402000Y-67116440D01*
X160402000Y-66316440D01*
X160362986Y-66109098D01*
X160402000Y-65916440D01*
X160402000Y-65116440D01*
X160362986Y-64909098D01*
X160402000Y-64716440D01*
X160402000Y-63916440D01*
X160362986Y-63709098D01*
X160402000Y-63516440D01*
X160402000Y-62716440D01*
X160362986Y-62509098D01*
X160402000Y-62316440D01*
X160402000Y-61516440D01*
X160394473Y-61476440D01*
X162762325Y-61476440D01*
X162634369Y-61663710D01*
X162583360Y-61915600D01*
X162583360Y-62615600D01*
X162625219Y-62838059D01*
X162528929Y-62900020D01*
X162383939Y-63112220D01*
X162332930Y-63364110D01*
X162332930Y-64961770D01*
X162377208Y-65197087D01*
X162516280Y-65413211D01*
X162728480Y-65558201D01*
X162845166Y-65581830D01*
X162745053Y-65600668D01*
X162528929Y-65739740D01*
X162383939Y-65951940D01*
X162332930Y-66203830D01*
X162332930Y-67801490D01*
X162377208Y-68036807D01*
X162516280Y-68252931D01*
X162728480Y-68397921D01*
X162980370Y-68448930D01*
X163120800Y-68448930D01*
X163120800Y-73790398D01*
X157998638Y-78912560D01*
X157726000Y-78912560D01*
X157490683Y-78956838D01*
X157274559Y-79095910D01*
X157226866Y-79165711D01*
X157190090Y-79108559D01*
X156977890Y-78963569D01*
X156726000Y-78912560D01*
X156226000Y-78912560D01*
X155990683Y-78956838D01*
X155774559Y-79095910D01*
X155669274Y-79250000D01*
X154726195Y-79250000D01*
X154524723Y-79048176D01*
X153997491Y-78829250D01*
X153426613Y-78828752D01*
X152899000Y-79046757D01*
X152494976Y-79450077D01*
X152276050Y-79977309D01*
X152275552Y-80548187D01*
X147545552Y-80548187D01*
X147546048Y-79979813D01*
X147328043Y-79452200D01*
X146924723Y-79048176D01*
X146397491Y-78829250D01*
X145826613Y-78828752D01*
X145299000Y-79046757D01*
X144894976Y-79450077D01*
X144676050Y-79977309D01*
X144675552Y-80548187D01*
X141218938Y-80548187D01*
X141350815Y-80460070D01*
X141675671Y-79973889D01*
X141789745Y-79400400D01*
X141675671Y-78826911D01*
X141350815Y-78340730D01*
X141036034Y-78130400D01*
X141350815Y-77920070D01*
X141675671Y-77433889D01*
X141789745Y-76860400D01*
X141675671Y-76286911D01*
X141350815Y-75800730D01*
X141336487Y-75791157D01*
X141357717Y-75787162D01*
X141573841Y-75648090D01*
X141718831Y-75435890D01*
X141769840Y-75184000D01*
X141769840Y-73456800D01*
X141725562Y-73221483D01*
X141586490Y-73005359D01*
X141374290Y-72860369D01*
X141141400Y-72813208D01*
X141141400Y-72466440D01*
X147257120Y-72466440D01*
X147257120Y-73766440D01*
X147301398Y-74001757D01*
X147440470Y-74217881D01*
X147652670Y-74362871D01*
X147904560Y-74413880D01*
X148704560Y-74413880D01*
X148775884Y-74400459D01*
X148778251Y-74401440D01*
X149018810Y-74401440D01*
X149177560Y-74242690D01*
X149177560Y-74198977D01*
X149300991Y-74018330D01*
X149352000Y-73766440D01*
X149352000Y-72466440D01*
X149307722Y-72231123D01*
X149177560Y-72028846D01*
X149177560Y-71990190D01*
X149431560Y-71990190D01*
X149431560Y-72989440D01*
X149451560Y-72989440D01*
X149451560Y-73243440D01*
X149431560Y-73243440D01*
X149431560Y-74242690D01*
X149590310Y-74401440D01*
X149830869Y-74401440D01*
X149941843Y-74355473D01*
X149952670Y-74362871D01*
X150204560Y-74413880D01*
X151004560Y-74413880D01*
X151211902Y-74374866D01*
X151404560Y-74413880D01*
X152204560Y-74413880D01*
X152411902Y-74374866D01*
X152604560Y-74413880D01*
X153404560Y-74413880D01*
X153611902Y-74374866D01*
X153804560Y-74413880D01*
X154604560Y-74413880D01*
X154839877Y-74369602D01*
X154863966Y-74354101D01*
X154978251Y-74401440D01*
X155218810Y-74401440D01*
X155377560Y-74242690D01*
X155377560Y-73243440D01*
X155357560Y-73243440D01*
X155357560Y-72989440D01*
X155377560Y-72989440D01*
X155377560Y-72466440D01*
X155457120Y-72466440D01*
X155457120Y-73766440D01*
X155501398Y-74001757D01*
X155631560Y-74204034D01*
X155631560Y-74242690D01*
X155790310Y-74401440D01*
X156030869Y-74401440D01*
X156034895Y-74399772D01*
X156104560Y-74413880D01*
X156904560Y-74413880D01*
X157139877Y-74369602D01*
X157356001Y-74230530D01*
X157500991Y-74018330D01*
X157552000Y-73766440D01*
X157552000Y-72466440D01*
X157507722Y-72231123D01*
X157368650Y-72014999D01*
X157156450Y-71870009D01*
X156904560Y-71819000D01*
X156104560Y-71819000D01*
X156033236Y-71832421D01*
X156030869Y-71831440D01*
X155790310Y-71831440D01*
X155631560Y-71990190D01*
X155631560Y-72033903D01*
X155508129Y-72214550D01*
X155457120Y-72466440D01*
X155377560Y-72466440D01*
X155377560Y-71990190D01*
X155218810Y-71831440D01*
X154978251Y-71831440D01*
X154867277Y-71877407D01*
X154856450Y-71870009D01*
X154604560Y-71819000D01*
X153804560Y-71819000D01*
X153597218Y-71858014D01*
X153404560Y-71819000D01*
X152604560Y-71819000D01*
X152397218Y-71858014D01*
X152204560Y-71819000D01*
X151404560Y-71819000D01*
X151197218Y-71858014D01*
X151004560Y-71819000D01*
X150204560Y-71819000D01*
X149969243Y-71863278D01*
X149945154Y-71878779D01*
X149830869Y-71831440D01*
X149590310Y-71831440D01*
X149431560Y-71990190D01*
X149177560Y-71990190D01*
X149018810Y-71831440D01*
X148778251Y-71831440D01*
X148774225Y-71833108D01*
X148704560Y-71819000D01*
X147904560Y-71819000D01*
X147669243Y-71863278D01*
X147453119Y-72002350D01*
X147308129Y-72214550D01*
X147257120Y-72466440D01*
X141141400Y-72466440D01*
X141141400Y-71034150D01*
X141996000Y-71034150D01*
X141996000Y-71374709D01*
X142092673Y-71608098D01*
X142271301Y-71786727D01*
X142504690Y-71883400D01*
X142970250Y-71883400D01*
X143129000Y-71724650D01*
X143129000Y-70875400D01*
X142154750Y-70875400D01*
X141996000Y-71034150D01*
X141141400Y-71034150D01*
X141141400Y-70024712D01*
X141382711Y-69783400D01*
X142197974Y-69783400D01*
X142092673Y-69888702D01*
X141996000Y-70122091D01*
X141996000Y-70462650D01*
X142154750Y-70621400D01*
X143129000Y-70621400D01*
X143129000Y-70601400D01*
X143383000Y-70601400D01*
X143383000Y-70621400D01*
X143403000Y-70621400D01*
X143403000Y-70875400D01*
X143383000Y-70875400D01*
X143383000Y-71724650D01*
X143541750Y-71883400D01*
X144007310Y-71883400D01*
X144240699Y-71786727D01*
X144419327Y-71608098D01*
X144516000Y-71374709D01*
X144516000Y-71075576D01*
X144516233Y-71076139D01*
X144694862Y-71254767D01*
X144928251Y-71351440D01*
X145418810Y-71351440D01*
X145577560Y-71192690D01*
X145577560Y-70443440D01*
X145831560Y-70443440D01*
X145831560Y-71192690D01*
X145990310Y-71351440D01*
X146480869Y-71351440D01*
X146714258Y-71254767D01*
X146892887Y-71076139D01*
X146989560Y-70842750D01*
X146989560Y-70602190D01*
X146830810Y-70443440D01*
X145831560Y-70443440D01*
X145577560Y-70443440D01*
X145557560Y-70443440D01*
X145557560Y-70189440D01*
X145577560Y-70189440D01*
X145577560Y-70169440D01*
X145831560Y-70169440D01*
X145831560Y-70189440D01*
X146830810Y-70189440D01*
X146989560Y-70030690D01*
X146989560Y-69876440D01*
X150745960Y-69876440D01*
X151036799Y-69818588D01*
X151283361Y-69653841D01*
X151664035Y-69273167D01*
X152531638Y-69273167D01*
X152673683Y-69616943D01*
X152936473Y-69880192D01*
X153135155Y-69962692D01*
X153090762Y-70069601D01*
X153090438Y-70441567D01*
X153232483Y-70785343D01*
X153495273Y-71048592D01*
X153838801Y-71191238D01*
X154210767Y-71191562D01*
X154489384Y-71076440D01*
X157931629Y-71076440D01*
X157990470Y-71167881D01*
X158202670Y-71312871D01*
X158454560Y-71363880D01*
X159754560Y-71363880D01*
X159989877Y-71319602D01*
X160206001Y-71180530D01*
X160350991Y-70968330D01*
X160402000Y-70716440D01*
X160402000Y-69916440D01*
X160362986Y-69709098D01*
X160402000Y-69516440D01*
X160402000Y-68716440D01*
X160362702Y-68507590D01*
X160389560Y-68442750D01*
X160389560Y-68202190D01*
X160230810Y-68043440D01*
X159231560Y-68043440D01*
X159231560Y-68063440D01*
X158977560Y-68063440D01*
X158977560Y-68043440D01*
X157978310Y-68043440D01*
X157819560Y-68202190D01*
X157819560Y-68356440D01*
X154057653Y-68356440D01*
X153997127Y-68295808D01*
X153653599Y-68153162D01*
X153281633Y-68152838D01*
X152937857Y-68294883D01*
X152674608Y-68557673D01*
X152531962Y-68901201D01*
X152531638Y-69273167D01*
X151664035Y-69273167D01*
X153953401Y-66983801D01*
X154118148Y-66737239D01*
X154176000Y-66446400D01*
X154176000Y-61833602D01*
X154978080Y-61031522D01*
X155023567Y-61031562D01*
X155367343Y-60889517D01*
X155630592Y-60626727D01*
X155773238Y-60283199D01*
X155773562Y-59911233D01*
X155631517Y-59567457D01*
X155368727Y-59304208D01*
X155025199Y-59161562D01*
X154653233Y-59161238D01*
X154309457Y-59303283D01*
X154046208Y-59566073D01*
X153903562Y-59909601D01*
X153903521Y-59956477D01*
X152878599Y-60981399D01*
X152713852Y-61227961D01*
X152656000Y-61518800D01*
X152656000Y-66131598D01*
X150431158Y-68356440D01*
X146993900Y-68356440D01*
X147002000Y-68316440D01*
X147002000Y-67516440D01*
X146962986Y-67309098D01*
X147002000Y-67116440D01*
X147002000Y-66316440D01*
X146962986Y-66109098D01*
X147002000Y-65916440D01*
X147002000Y-65116440D01*
X146962986Y-64909098D01*
X147002000Y-64716440D01*
X147002000Y-63916440D01*
X146962986Y-63709098D01*
X147002000Y-63516440D01*
X147002000Y-62716440D01*
X146962986Y-62509098D01*
X147002000Y-62316440D01*
X147002000Y-61516440D01*
X146973392Y-61364400D01*
X147621137Y-61364400D01*
X147653273Y-61396592D01*
X147996801Y-61539238D01*
X148368767Y-61539562D01*
X148712543Y-61397517D01*
X148975792Y-61134727D01*
X149118438Y-60791199D01*
X149118762Y-60419233D01*
X149068504Y-60297600D01*
X150415137Y-60297600D01*
X150447273Y-60329792D01*
X150790801Y-60472438D01*
X151162767Y-60472762D01*
X151506543Y-60330717D01*
X151769792Y-60067927D01*
X151912438Y-59724399D01*
X151912762Y-59352433D01*
X151770717Y-59008657D01*
X151507927Y-58745408D01*
X151164399Y-58602762D01*
X150792433Y-58602438D01*
X150448657Y-58744483D01*
X150415482Y-58777600D01*
X146989615Y-58777600D01*
X147002000Y-58716440D01*
X147002000Y-57916440D01*
X146962702Y-57707590D01*
X146989560Y-57642750D01*
X146989560Y-57402190D01*
X146830810Y-57243440D01*
X145831560Y-57243440D01*
X145831560Y-57263440D01*
X145577560Y-57263440D01*
X145577560Y-57243440D01*
X144578310Y-57243440D01*
X144419560Y-57402190D01*
X144419560Y-57642750D01*
X144448430Y-57712447D01*
X144407120Y-57916440D01*
X144407120Y-58716440D01*
X144446134Y-58923782D01*
X144407120Y-59116440D01*
X144407120Y-59916440D01*
X144446134Y-60123782D01*
X144407120Y-60316440D01*
X144407120Y-61116440D01*
X144414647Y-61156440D01*
X140458760Y-61156440D01*
X140167921Y-61214292D01*
X139986131Y-61335760D01*
X139692000Y-61335760D01*
X139456683Y-61380038D01*
X139240559Y-61519110D01*
X139192866Y-61588911D01*
X139156090Y-61531759D01*
X138943890Y-61386769D01*
X138837796Y-61365284D01*
X138449000Y-60976488D01*
X138449000Y-60406789D01*
X138512917Y-60394762D01*
X138729041Y-60255690D01*
X138874031Y-60043490D01*
X138925040Y-59791600D01*
X138925040Y-57759600D01*
X138880762Y-57524283D01*
X138741690Y-57308159D01*
X138529490Y-57163169D01*
X138395707Y-57136077D01*
X138370215Y-57007923D01*
X138251792Y-56830690D01*
X138145856Y-56672144D01*
X138145853Y-56672142D01*
X138063842Y-56590130D01*
X144419560Y-56590130D01*
X144419560Y-56830690D01*
X144578310Y-56989440D01*
X145577560Y-56989440D01*
X145577560Y-56240190D01*
X145831560Y-56240190D01*
X145831560Y-56989440D01*
X146830810Y-56989440D01*
X146989560Y-56830690D01*
X146989560Y-56590130D01*
X146892887Y-56356741D01*
X146714258Y-56178113D01*
X146480869Y-56081440D01*
X145990310Y-56081440D01*
X145831560Y-56240190D01*
X145577560Y-56240190D01*
X145418810Y-56081440D01*
X144928251Y-56081440D01*
X144694862Y-56178113D01*
X144516233Y-56356741D01*
X144419560Y-56590130D01*
X138063842Y-56590130D01*
X136215456Y-54741744D01*
X135879677Y-54517385D01*
X135483600Y-54438599D01*
X135483595Y-54438600D01*
X110591605Y-54438600D01*
X110591600Y-54438599D01*
X110195523Y-54517385D01*
X109859744Y-54741744D01*
X109859742Y-54741747D01*
X107624544Y-56976944D01*
X107400185Y-57312723D01*
X107321399Y-57708800D01*
X107321400Y-57708805D01*
X107321400Y-65065243D01*
X107279959Y-65091910D01*
X107191756Y-65221000D01*
X106499600Y-65221000D01*
X106180060Y-65284560D01*
X105909166Y-65465566D01*
X105531040Y-65843692D01*
X105531040Y-65766600D01*
X105486762Y-65531283D01*
X105347690Y-65315159D01*
X105135490Y-65170169D01*
X104883600Y-65119160D01*
X104083600Y-65119160D01*
X103848283Y-65163438D01*
X103744954Y-65229929D01*
X103743298Y-65228273D01*
X103509909Y-65131600D01*
X103269350Y-65131600D01*
X103110600Y-65290350D01*
X103110600Y-66014600D01*
X103130600Y-66014600D01*
X103130600Y-66268600D01*
X103110600Y-66268600D01*
X103110600Y-66992850D01*
X103269350Y-67151600D01*
X103509909Y-67151600D01*
X103743298Y-67054927D01*
X103744668Y-67053557D01*
X103831710Y-67113031D01*
X104083600Y-67164040D01*
X104325172Y-67164040D01*
X104592517Y-67431385D01*
X104494367Y-67575032D01*
X104389690Y-67412359D01*
X104177490Y-67267369D01*
X103925600Y-67216360D01*
X102865600Y-67216360D01*
X102630283Y-67260638D01*
X102485505Y-67353800D01*
X101737806Y-67353800D01*
X101742400Y-67342709D01*
X101742400Y-67002150D01*
X101583650Y-66843400D01*
X100609400Y-66843400D01*
X100609400Y-66863400D01*
X100355400Y-66863400D01*
X100355400Y-66843400D01*
X99381150Y-66843400D01*
X99222400Y-67002150D01*
X99222400Y-67342709D01*
X99319073Y-67576098D01*
X99460310Y-67717336D01*
X99405959Y-67752310D01*
X99260969Y-67964510D01*
X99209960Y-68216400D01*
X99209960Y-68507000D01*
X98970757Y-68507000D01*
X98992829Y-68443131D01*
X98844163Y-68269000D01*
X98018600Y-68269000D01*
X98018600Y-68289000D01*
X97764600Y-68289000D01*
X97764600Y-68269000D01*
X96939037Y-68269000D01*
X96790371Y-68443131D01*
X96852160Y-68621926D01*
X96765159Y-68677910D01*
X96620169Y-68890110D01*
X96569160Y-69142000D01*
X96569160Y-69542000D01*
X96593544Y-69671589D01*
X96569160Y-69792000D01*
X96569160Y-70192000D01*
X96593544Y-70321589D01*
X96569160Y-70442000D01*
X96569160Y-70842000D01*
X96593544Y-70971589D01*
X96569160Y-71092000D01*
X96569160Y-71492000D01*
X96589050Y-71597705D01*
X96581600Y-71615690D01*
X96581600Y-71683250D01*
X96610604Y-71712254D01*
X96613438Y-71727317D01*
X96752510Y-71943441D01*
X96896756Y-72042000D01*
X96740350Y-72042000D01*
X96581600Y-72200750D01*
X96581600Y-72268310D01*
X96678273Y-72501699D01*
X96848690Y-72672115D01*
X96790371Y-72840869D01*
X96939037Y-73015000D01*
X97764600Y-73015000D01*
X97764600Y-72995000D01*
X98018600Y-72995000D01*
X98018600Y-73015000D01*
X98844163Y-73015000D01*
X98992829Y-72840869D01*
X98934510Y-72672115D01*
X99104927Y-72501699D01*
X99201600Y-72268310D01*
X99201600Y-72200750D01*
X99069852Y-72069002D01*
X99201600Y-72069002D01*
X99201600Y-72052000D01*
X99272798Y-72052000D01*
X103515799Y-76295001D01*
X103762361Y-76459748D01*
X104053200Y-76517600D01*
X111942500Y-76517600D01*
X111942438Y-76588367D01*
X112084483Y-76932143D01*
X112268419Y-77116400D01*
X110593200Y-77116400D01*
X110302361Y-77174252D01*
X110055799Y-77338999D01*
X107603041Y-79791757D01*
X107413090Y-79661969D01*
X107161200Y-79610960D01*
X106161200Y-79610960D01*
X105925883Y-79655238D01*
X105709759Y-79794310D01*
X105564769Y-80006510D01*
X105535874Y-80149200D01*
X105534757Y-80149200D01*
X105508090Y-80107759D01*
X105295890Y-79962769D01*
X105282803Y-79960119D01*
X105495441Y-79823290D01*
X105640431Y-79611090D01*
X105691440Y-79359200D01*
X105691440Y-78659200D01*
X105647162Y-78423883D01*
X105508090Y-78207759D01*
X105295890Y-78062769D01*
X105044000Y-78011760D01*
X104903184Y-78011760D01*
X104790077Y-77936185D01*
X104394000Y-77857400D01*
X103997923Y-77936185D01*
X103941029Y-77974200D01*
X100162405Y-77974200D01*
X100162400Y-77974199D01*
X99766323Y-78052985D01*
X99430544Y-78277344D01*
X99430542Y-78277347D01*
X96143744Y-81564144D01*
X95919385Y-81899923D01*
X95840599Y-82296000D01*
X95840600Y-82296005D01*
X95840600Y-84852535D01*
X95624283Y-84893238D01*
X95408159Y-85032310D01*
X95263169Y-85244510D01*
X95231813Y-85399351D01*
X95209523Y-85403785D01*
X94873744Y-85628144D01*
X94873742Y-85628147D01*
X93146544Y-87355344D01*
X92922185Y-87691123D01*
X92843399Y-88087200D01*
X92075000Y-88087200D01*
X92075000Y-74443874D01*
X93822481Y-74443874D01*
X94024232Y-74854763D01*
X94364922Y-75142002D01*
X94789600Y-75277000D01*
X95064600Y-75277000D01*
X95064600Y-74269000D01*
X95318600Y-74269000D01*
X95318600Y-75277000D01*
X95593600Y-75277000D01*
X96018278Y-75142002D01*
X96358968Y-74854763D01*
X96560719Y-74443874D01*
X96434554Y-74269000D01*
X95318600Y-74269000D01*
X95064600Y-74269000D01*
X93948646Y-74269000D01*
X93822481Y-74443874D01*
X92075000Y-74443874D01*
X92075000Y-73840126D01*
X93822481Y-73840126D01*
X93948646Y-74015000D01*
X95064600Y-74015000D01*
X95064600Y-73007000D01*
X95318600Y-73007000D01*
X95318600Y-74015000D01*
X96434554Y-74015000D01*
X96560719Y-73840126D01*
X96365791Y-73443131D01*
X96790371Y-73443131D01*
X96932032Y-73853049D01*
X97219779Y-74177552D01*
X97593662Y-74361268D01*
X97764600Y-74234734D01*
X97764600Y-73269000D01*
X98018600Y-73269000D01*
X98018600Y-74234734D01*
X98189538Y-74361268D01*
X98563421Y-74177552D01*
X98851168Y-73853049D01*
X98992829Y-73443131D01*
X98844163Y-73269000D01*
X98018600Y-73269000D01*
X97764600Y-73269000D01*
X96939037Y-73269000D01*
X96790371Y-73443131D01*
X96365791Y-73443131D01*
X96358968Y-73429237D01*
X96018278Y-73141998D01*
X95593600Y-73007000D01*
X95318600Y-73007000D01*
X95064600Y-73007000D01*
X94789600Y-73007000D01*
X94364922Y-73141998D01*
X94024232Y-73429237D01*
X93822481Y-73840126D01*
X92075000Y-73840126D01*
X92075000Y-67443874D01*
X93822481Y-67443874D01*
X94024232Y-67854763D01*
X94364922Y-68142002D01*
X94789600Y-68277000D01*
X95064600Y-68277000D01*
X95064600Y-67269000D01*
X95318600Y-67269000D01*
X95318600Y-68277000D01*
X95593600Y-68277000D01*
X96018278Y-68142002D01*
X96358968Y-67854763D01*
X96365790Y-67840869D01*
X96790371Y-67840869D01*
X96939037Y-68015000D01*
X97764600Y-68015000D01*
X97764600Y-67049266D01*
X98018600Y-67049266D01*
X98018600Y-68015000D01*
X98844163Y-68015000D01*
X98992829Y-67840869D01*
X98851168Y-67430951D01*
X98563421Y-67106448D01*
X98189538Y-66922732D01*
X98018600Y-67049266D01*
X97764600Y-67049266D01*
X97593662Y-66922732D01*
X97219779Y-67106448D01*
X96932032Y-67430951D01*
X96790371Y-67840869D01*
X96365790Y-67840869D01*
X96560719Y-67443874D01*
X96434554Y-67269000D01*
X95318600Y-67269000D01*
X95064600Y-67269000D01*
X93948646Y-67269000D01*
X93822481Y-67443874D01*
X92075000Y-67443874D01*
X92075000Y-66840126D01*
X93822481Y-66840126D01*
X93948646Y-67015000D01*
X95064600Y-67015000D01*
X95064600Y-66007000D01*
X95318600Y-66007000D01*
X95318600Y-67015000D01*
X96434554Y-67015000D01*
X96560719Y-66840126D01*
X96358968Y-66429237D01*
X96018278Y-66141998D01*
X95854989Y-66090091D01*
X99222400Y-66090091D01*
X99222400Y-66430650D01*
X99381150Y-66589400D01*
X100355400Y-66589400D01*
X100355400Y-65740150D01*
X100609400Y-65740150D01*
X100609400Y-66589400D01*
X101583650Y-66589400D01*
X101742400Y-66430650D01*
X101742400Y-66427350D01*
X101948600Y-66427350D01*
X101948600Y-66642910D01*
X102045273Y-66876299D01*
X102223902Y-67054927D01*
X102457291Y-67151600D01*
X102697850Y-67151600D01*
X102856600Y-66992850D01*
X102856600Y-66268600D01*
X102107350Y-66268600D01*
X101948600Y-66427350D01*
X101742400Y-66427350D01*
X101742400Y-66090091D01*
X101645727Y-65856702D01*
X101467099Y-65678073D01*
X101375883Y-65640290D01*
X101948600Y-65640290D01*
X101948600Y-65855850D01*
X102107350Y-66014600D01*
X102856600Y-66014600D01*
X102856600Y-65290350D01*
X102697850Y-65131600D01*
X102457291Y-65131600D01*
X102223902Y-65228273D01*
X102045273Y-65406901D01*
X101948600Y-65640290D01*
X101375883Y-65640290D01*
X101233710Y-65581400D01*
X100768150Y-65581400D01*
X100609400Y-65740150D01*
X100355400Y-65740150D01*
X100196650Y-65581400D01*
X99731090Y-65581400D01*
X99497701Y-65678073D01*
X99319073Y-65856702D01*
X99222400Y-66090091D01*
X95854989Y-66090091D01*
X95593600Y-66007000D01*
X95318600Y-66007000D01*
X95064600Y-66007000D01*
X94789600Y-66007000D01*
X94364922Y-66141998D01*
X94024232Y-66429237D01*
X93822481Y-66840126D01*
X92075000Y-66840126D01*
X92075000Y-52247800D01*
X95820894Y-52247800D01*
X94695685Y-52712727D01*
G36*
X121191510Y-80304031D02*
X121266208Y-80319158D01*
X121289650Y-80342600D01*
X121319710Y-80342600D01*
X121340153Y-80334132D01*
X121443400Y-80355040D01*
X121693400Y-80355040D01*
X121822989Y-80330656D01*
X121943400Y-80355040D01*
X122193400Y-80355040D01*
X122322989Y-80330656D01*
X122443400Y-80355040D01*
X122693400Y-80355040D01*
X122822989Y-80330656D01*
X122943400Y-80355040D01*
X123193400Y-80355040D01*
X123308400Y-80333401D01*
X123308400Y-80990360D01*
X123263127Y-80945008D01*
X122919599Y-80802362D01*
X122547633Y-80802038D01*
X122203857Y-80944083D01*
X122170682Y-80977200D01*
X121702800Y-80977200D01*
X120994215Y-80268615D01*
X121069127Y-80220410D01*
X121191510Y-80304031D01*
X121191510Y-80304031D01*
G37*
X121191510Y-80304031D02*
X121266208Y-80319158D01*
X121289650Y-80342600D01*
X121319710Y-80342600D01*
X121340153Y-80334132D01*
X121443400Y-80355040D01*
X121693400Y-80355040D01*
X121822989Y-80330656D01*
X121943400Y-80355040D01*
X122193400Y-80355040D01*
X122322989Y-80330656D01*
X122443400Y-80355040D01*
X122693400Y-80355040D01*
X122822989Y-80330656D01*
X122943400Y-80355040D01*
X123193400Y-80355040D01*
X123308400Y-80333401D01*
X123308400Y-80990360D01*
X123263127Y-80945008D01*
X122919599Y-80802362D01*
X122547633Y-80802038D01*
X122203857Y-80944083D01*
X122170682Y-80977200D01*
X121702800Y-80977200D01*
X120994215Y-80268615D01*
X121069127Y-80220410D01*
X121191510Y-80304031D01*
G36*
X113430073Y-63937701D02*
X113333400Y-64171090D01*
X113333400Y-64636650D01*
X113492150Y-64795400D01*
X114341400Y-64795400D01*
X114341400Y-64775400D01*
X114595400Y-64775400D01*
X114595400Y-64795400D01*
X114615400Y-64795400D01*
X114615400Y-65049400D01*
X114595400Y-65049400D01*
X114595400Y-66023650D01*
X114754150Y-66182400D01*
X115094709Y-66182400D01*
X115328098Y-66085727D01*
X115469336Y-65944490D01*
X115504310Y-65998841D01*
X115633400Y-66087044D01*
X115633400Y-68106800D01*
X115696961Y-68426341D01*
X115813403Y-68600608D01*
X115877966Y-68697234D01*
X116165892Y-68985160D01*
X115618400Y-68985160D01*
X115568000Y-68994643D01*
X115568000Y-68021200D01*
X115510148Y-67730361D01*
X115345401Y-67483799D01*
X114786601Y-66924999D01*
X114540039Y-66760252D01*
X114249200Y-66702400D01*
X113924844Y-66702400D01*
X113882090Y-66635959D01*
X113669890Y-66490969D01*
X113418000Y-66439960D01*
X112618000Y-66439960D01*
X112382683Y-66484238D01*
X112279354Y-66550729D01*
X112277698Y-66549073D01*
X112044309Y-66452400D01*
X111803750Y-66452400D01*
X111645000Y-66611150D01*
X111645000Y-67335400D01*
X111665000Y-67335400D01*
X111665000Y-67589400D01*
X111645000Y-67589400D01*
X111645000Y-67609400D01*
X111391000Y-67609400D01*
X111391000Y-67589400D01*
X110641750Y-67589400D01*
X110483000Y-67748150D01*
X110483000Y-67916600D01*
X110443291Y-67916600D01*
X110209902Y-68013273D01*
X110031273Y-68191901D01*
X109934600Y-68425290D01*
X109934600Y-68865850D01*
X110093350Y-69024600D01*
X111142600Y-69024600D01*
X111142600Y-69004600D01*
X111396600Y-69004600D01*
X111396600Y-69024600D01*
X111416600Y-69024600D01*
X111416600Y-69278600D01*
X111396600Y-69278600D01*
X111396600Y-69298600D01*
X111142600Y-69298600D01*
X111142600Y-69278600D01*
X110093350Y-69278600D01*
X109934600Y-69437350D01*
X109934600Y-69877910D01*
X109963470Y-69947607D01*
X109922160Y-70151600D01*
X109922160Y-71351600D01*
X109966438Y-71586917D01*
X110105510Y-71803041D01*
X110317710Y-71948031D01*
X110519650Y-71988925D01*
X110567452Y-72229239D01*
X110724560Y-72464368D01*
X110724560Y-72815800D01*
X110768838Y-73051117D01*
X110907910Y-73267241D01*
X111120110Y-73412231D01*
X111372000Y-73463240D01*
X111719638Y-73463240D01*
X112253998Y-73997600D01*
X110663061Y-73997600D01*
X110663162Y-73881233D01*
X110521117Y-73537457D01*
X110258327Y-73274208D01*
X109914799Y-73131562D01*
X109542833Y-73131238D01*
X109199057Y-73273283D01*
X109165882Y-73306400D01*
X106334402Y-73306400D01*
X105306400Y-72278398D01*
X105306400Y-71983600D01*
X105255600Y-71728213D01*
X105255600Y-71061240D01*
X106125600Y-71061240D01*
X106360917Y-71016962D01*
X106577041Y-70877890D01*
X106722031Y-70665690D01*
X106734427Y-70604478D01*
X106960321Y-70755415D01*
X107321400Y-70827239D01*
X107321400Y-71831200D01*
X107400185Y-72227277D01*
X107624544Y-72563056D01*
X107960323Y-72787415D01*
X108356400Y-72866200D01*
X108752477Y-72787415D01*
X109088256Y-72563056D01*
X109312615Y-72227277D01*
X109391400Y-71831200D01*
X109391400Y-69046757D01*
X109432841Y-69020090D01*
X109577831Y-68807890D01*
X109628840Y-68556000D01*
X109628840Y-67556000D01*
X109584562Y-67320683D01*
X109445490Y-67104559D01*
X109375689Y-67056866D01*
X109432841Y-67020090D01*
X109473153Y-66961090D01*
X110483000Y-66961090D01*
X110483000Y-67176650D01*
X110641750Y-67335400D01*
X111391000Y-67335400D01*
X111391000Y-66611150D01*
X111232250Y-66452400D01*
X110991691Y-66452400D01*
X110758302Y-66549073D01*
X110579673Y-66727701D01*
X110483000Y-66961090D01*
X109473153Y-66961090D01*
X109577831Y-66807890D01*
X109628840Y-66556000D01*
X109628840Y-65556000D01*
X109584562Y-65320683D01*
X109512149Y-65208150D01*
X113333400Y-65208150D01*
X113333400Y-65673710D01*
X113430073Y-65907099D01*
X113608702Y-66085727D01*
X113842091Y-66182400D01*
X114182650Y-66182400D01*
X114341400Y-66023650D01*
X114341400Y-65049400D01*
X113492150Y-65049400D01*
X113333400Y-65208150D01*
X109512149Y-65208150D01*
X109445490Y-65104559D01*
X109391400Y-65067601D01*
X109391400Y-64966668D01*
X110429468Y-63928600D01*
X113439174Y-63928600D01*
X113430073Y-63937701D01*
X113430073Y-63937701D01*
G37*
X113430073Y-63937701D02*
X113333400Y-64171090D01*
X113333400Y-64636650D01*
X113492150Y-64795400D01*
X114341400Y-64795400D01*
X114341400Y-64775400D01*
X114595400Y-64775400D01*
X114595400Y-64795400D01*
X114615400Y-64795400D01*
X114615400Y-65049400D01*
X114595400Y-65049400D01*
X114595400Y-66023650D01*
X114754150Y-66182400D01*
X115094709Y-66182400D01*
X115328098Y-66085727D01*
X115469336Y-65944490D01*
X115504310Y-65998841D01*
X115633400Y-66087044D01*
X115633400Y-68106800D01*
X115696961Y-68426341D01*
X115813403Y-68600608D01*
X115877966Y-68697234D01*
X116165892Y-68985160D01*
X115618400Y-68985160D01*
X115568000Y-68994643D01*
X115568000Y-68021200D01*
X115510148Y-67730361D01*
X115345401Y-67483799D01*
X114786601Y-66924999D01*
X114540039Y-66760252D01*
X114249200Y-66702400D01*
X113924844Y-66702400D01*
X113882090Y-66635959D01*
X113669890Y-66490969D01*
X113418000Y-66439960D01*
X112618000Y-66439960D01*
X112382683Y-66484238D01*
X112279354Y-66550729D01*
X112277698Y-66549073D01*
X112044309Y-66452400D01*
X111803750Y-66452400D01*
X111645000Y-66611150D01*
X111645000Y-67335400D01*
X111665000Y-67335400D01*
X111665000Y-67589400D01*
X111645000Y-67589400D01*
X111645000Y-67609400D01*
X111391000Y-67609400D01*
X111391000Y-67589400D01*
X110641750Y-67589400D01*
X110483000Y-67748150D01*
X110483000Y-67916600D01*
X110443291Y-67916600D01*
X110209902Y-68013273D01*
X110031273Y-68191901D01*
X109934600Y-68425290D01*
X109934600Y-68865850D01*
X110093350Y-69024600D01*
X111142600Y-69024600D01*
X111142600Y-69004600D01*
X111396600Y-69004600D01*
X111396600Y-69024600D01*
X111416600Y-69024600D01*
X111416600Y-69278600D01*
X111396600Y-69278600D01*
X111396600Y-69298600D01*
X111142600Y-69298600D01*
X111142600Y-69278600D01*
X110093350Y-69278600D01*
X109934600Y-69437350D01*
X109934600Y-69877910D01*
X109963470Y-69947607D01*
X109922160Y-70151600D01*
X109922160Y-71351600D01*
X109966438Y-71586917D01*
X110105510Y-71803041D01*
X110317710Y-71948031D01*
X110519650Y-71988925D01*
X110567452Y-72229239D01*
X110724560Y-72464368D01*
X110724560Y-72815800D01*
X110768838Y-73051117D01*
X110907910Y-73267241D01*
X111120110Y-73412231D01*
X111372000Y-73463240D01*
X111719638Y-73463240D01*
X112253998Y-73997600D01*
X110663061Y-73997600D01*
X110663162Y-73881233D01*
X110521117Y-73537457D01*
X110258327Y-73274208D01*
X109914799Y-73131562D01*
X109542833Y-73131238D01*
X109199057Y-73273283D01*
X109165882Y-73306400D01*
X106334402Y-73306400D01*
X105306400Y-72278398D01*
X105306400Y-71983600D01*
X105255600Y-71728213D01*
X105255600Y-71061240D01*
X106125600Y-71061240D01*
X106360917Y-71016962D01*
X106577041Y-70877890D01*
X106722031Y-70665690D01*
X106734427Y-70604478D01*
X106960321Y-70755415D01*
X107321400Y-70827239D01*
X107321400Y-71831200D01*
X107400185Y-72227277D01*
X107624544Y-72563056D01*
X107960323Y-72787415D01*
X108356400Y-72866200D01*
X108752477Y-72787415D01*
X109088256Y-72563056D01*
X109312615Y-72227277D01*
X109391400Y-71831200D01*
X109391400Y-69046757D01*
X109432841Y-69020090D01*
X109577831Y-68807890D01*
X109628840Y-68556000D01*
X109628840Y-67556000D01*
X109584562Y-67320683D01*
X109445490Y-67104559D01*
X109375689Y-67056866D01*
X109432841Y-67020090D01*
X109473153Y-66961090D01*
X110483000Y-66961090D01*
X110483000Y-67176650D01*
X110641750Y-67335400D01*
X111391000Y-67335400D01*
X111391000Y-66611150D01*
X111232250Y-66452400D01*
X110991691Y-66452400D01*
X110758302Y-66549073D01*
X110579673Y-66727701D01*
X110483000Y-66961090D01*
X109473153Y-66961090D01*
X109577831Y-66807890D01*
X109628840Y-66556000D01*
X109628840Y-65556000D01*
X109584562Y-65320683D01*
X109512149Y-65208150D01*
X113333400Y-65208150D01*
X113333400Y-65673710D01*
X113430073Y-65907099D01*
X113608702Y-66085727D01*
X113842091Y-66182400D01*
X114182650Y-66182400D01*
X114341400Y-66023650D01*
X114341400Y-65049400D01*
X113492150Y-65049400D01*
X113333400Y-65208150D01*
X109512149Y-65208150D01*
X109445490Y-65104559D01*
X109391400Y-65067601D01*
X109391400Y-64966668D01*
X110429468Y-63928600D01*
X113439174Y-63928600D01*
X113430073Y-63937701D01*
G36*
X120296400Y-73115668D02*
X120296400Y-73446798D01*
X120245598Y-73497600D01*
X117242552Y-73497600D01*
X117265840Y-73382600D01*
X117265840Y-73132600D01*
X117245950Y-73026895D01*
X117253400Y-73008910D01*
X117253400Y-72978850D01*
X117233088Y-72958538D01*
X117221562Y-72897283D01*
X117213402Y-72884602D01*
X117253400Y-72884602D01*
X117253400Y-72796605D01*
X117255801Y-72795001D01*
X117487680Y-72563122D01*
X117533167Y-72563162D01*
X117876943Y-72421117D01*
X118140192Y-72158327D01*
X118282838Y-71814799D01*
X118283162Y-71442833D01*
X118141117Y-71099057D01*
X117878327Y-70835808D01*
X117534799Y-70693162D01*
X117253400Y-70692917D01*
X117253400Y-70630598D01*
X117215619Y-70630598D01*
X117229958Y-70559792D01*
X117253400Y-70536350D01*
X117253400Y-70506290D01*
X117244932Y-70485847D01*
X117265840Y-70382600D01*
X117265840Y-70132600D01*
X117254833Y-70074101D01*
X120296400Y-73115668D01*
X120296400Y-73115668D01*
G37*
X120296400Y-73115668D02*
X120296400Y-73446798D01*
X120245598Y-73497600D01*
X117242552Y-73497600D01*
X117265840Y-73382600D01*
X117265840Y-73132600D01*
X117245950Y-73026895D01*
X117253400Y-73008910D01*
X117253400Y-72978850D01*
X117233088Y-72958538D01*
X117221562Y-72897283D01*
X117213402Y-72884602D01*
X117253400Y-72884602D01*
X117253400Y-72796605D01*
X117255801Y-72795001D01*
X117487680Y-72563122D01*
X117533167Y-72563162D01*
X117876943Y-72421117D01*
X118140192Y-72158327D01*
X118282838Y-71814799D01*
X118283162Y-71442833D01*
X118141117Y-71099057D01*
X117878327Y-70835808D01*
X117534799Y-70693162D01*
X117253400Y-70692917D01*
X117253400Y-70630598D01*
X117215619Y-70630598D01*
X117229958Y-70559792D01*
X117253400Y-70536350D01*
X117253400Y-70506290D01*
X117244932Y-70485847D01*
X117265840Y-70382600D01*
X117265840Y-70132600D01*
X117254833Y-70074101D01*
X120296400Y-73115668D01*
G36*
X113399000Y-72313800D02*
X113419000Y-72313800D01*
X113419000Y-72567800D01*
X113399000Y-72567800D01*
X113399000Y-72587800D01*
X113145000Y-72587800D01*
X113145000Y-72567800D01*
X113125000Y-72567800D01*
X113125000Y-72313800D01*
X113145000Y-72313800D01*
X113145000Y-72293800D01*
X113399000Y-72293800D01*
X113399000Y-72313800D01*
X113399000Y-72313800D01*
G37*
X113399000Y-72313800D02*
X113419000Y-72313800D01*
X113419000Y-72567800D01*
X113399000Y-72567800D01*
X113399000Y-72587800D01*
X113145000Y-72587800D01*
X113145000Y-72567800D01*
X113125000Y-72567800D01*
X113125000Y-72313800D01*
X113145000Y-72313800D01*
X113145000Y-72293800D01*
X113399000Y-72293800D01*
X113399000Y-72313800D01*
G36*
X113596600Y-70624600D02*
X113616600Y-70624600D01*
X113616600Y-70878600D01*
X113596600Y-70878600D01*
X113596600Y-70898600D01*
X113342600Y-70898600D01*
X113342600Y-70878600D01*
X113322600Y-70878600D01*
X113322600Y-70624600D01*
X113342600Y-70624600D01*
X113342600Y-70604600D01*
X113596600Y-70604600D01*
X113596600Y-70624600D01*
X113596600Y-70624600D01*
G37*
X113596600Y-70624600D02*
X113616600Y-70624600D01*
X113616600Y-70878600D01*
X113596600Y-70878600D01*
X113596600Y-70898600D01*
X113342600Y-70898600D01*
X113342600Y-70878600D01*
X113322600Y-70878600D01*
X113322600Y-70624600D01*
X113342600Y-70624600D01*
X113342600Y-70604600D01*
X113596600Y-70604600D01*
X113596600Y-70624600D01*
G36*
X135994573Y-57448284D02*
X135953969Y-57507710D01*
X135945600Y-57549039D01*
X135933670Y-57531185D01*
X135447489Y-57206329D01*
X134874000Y-57092255D01*
X134300511Y-57206329D01*
X133814330Y-57531185D01*
X133604000Y-57845966D01*
X133393670Y-57531185D01*
X132907489Y-57206329D01*
X132334000Y-57092255D01*
X131760511Y-57206329D01*
X131274330Y-57531185D01*
X131067539Y-57840669D01*
X130696036Y-57424868D01*
X130168791Y-57170891D01*
X130153026Y-57168242D01*
X129921000Y-57289383D01*
X129921000Y-58648600D01*
X129941000Y-58648600D01*
X129941000Y-58902600D01*
X129921000Y-58902600D01*
X129921000Y-60261817D01*
X130153026Y-60382958D01*
X130168791Y-60380309D01*
X130696036Y-60126332D01*
X131067539Y-59710531D01*
X131274330Y-60020015D01*
X131463310Y-60146288D01*
X128615598Y-62994000D01*
X127304800Y-62994000D01*
X127013960Y-63051852D01*
X126767399Y-63216599D01*
X124530999Y-65452999D01*
X124366252Y-65699561D01*
X124308400Y-65990400D01*
X124308400Y-66683448D01*
X124193400Y-66660160D01*
X123943400Y-66660160D01*
X123813811Y-66684544D01*
X123693400Y-66660160D01*
X123443400Y-66660160D01*
X123313811Y-66684544D01*
X123193400Y-66660160D01*
X122943400Y-66660160D01*
X122813811Y-66684544D01*
X122693400Y-66660160D01*
X122443400Y-66660160D01*
X122328400Y-66681799D01*
X122328400Y-65988870D01*
X122356592Y-65960727D01*
X122499238Y-65617199D01*
X122499555Y-65252901D01*
X122588517Y-65236162D01*
X122804641Y-65097090D01*
X122949631Y-64884890D01*
X123000640Y-64633000D01*
X123000640Y-63383000D01*
X122956362Y-63147683D01*
X122817290Y-62931559D01*
X122605090Y-62786569D01*
X122353200Y-62735560D01*
X121353200Y-62735560D01*
X121117883Y-62779838D01*
X120901759Y-62918910D01*
X120855231Y-62987006D01*
X120712898Y-62844673D01*
X120479509Y-62748000D01*
X120138950Y-62748000D01*
X119980200Y-62906750D01*
X119980200Y-63881000D01*
X120000200Y-63881000D01*
X120000200Y-64135000D01*
X119980200Y-64135000D01*
X119980200Y-64155000D01*
X119726200Y-64155000D01*
X119726200Y-64135000D01*
X118876950Y-64135000D01*
X118718200Y-64293750D01*
X118718200Y-64595400D01*
X117615840Y-64595400D01*
X117615840Y-64297400D01*
X117571562Y-64062083D01*
X117432490Y-63845959D01*
X117220290Y-63700969D01*
X116968400Y-63649960D01*
X116376828Y-63649960D01*
X115983558Y-63256690D01*
X118718200Y-63256690D01*
X118718200Y-63722250D01*
X118876950Y-63881000D01*
X119726200Y-63881000D01*
X119726200Y-62906750D01*
X119567450Y-62748000D01*
X119226891Y-62748000D01*
X118993502Y-62844673D01*
X118814873Y-63023301D01*
X118718200Y-63256690D01*
X115983558Y-63256690D01*
X115230034Y-62503166D01*
X115156214Y-62453841D01*
X114959141Y-62322161D01*
X114639600Y-62258600D01*
X110083600Y-62258600D01*
X109764060Y-62322160D01*
X109493166Y-62503166D01*
X109391400Y-62604932D01*
X109391400Y-59137513D01*
X128308816Y-59137513D01*
X128502046Y-59689920D01*
X128891964Y-60126332D01*
X129419209Y-60380309D01*
X129434974Y-60382958D01*
X129667000Y-60261817D01*
X129667000Y-58902600D01*
X128453076Y-58902600D01*
X128308816Y-59137513D01*
X109391400Y-59137513D01*
X109391400Y-58413687D01*
X128308816Y-58413687D01*
X128453076Y-58648600D01*
X129667000Y-58648600D01*
X129667000Y-57289383D01*
X129434974Y-57168242D01*
X129419209Y-57170891D01*
X128891964Y-57424868D01*
X128502046Y-57861280D01*
X128308816Y-58413687D01*
X109391400Y-58413687D01*
X109391400Y-58137512D01*
X111020311Y-56508600D01*
X135054888Y-56508600D01*
X135994573Y-57448284D01*
X135994573Y-57448284D01*
G37*
X135994573Y-57448284D02*
X135953969Y-57507710D01*
X135945600Y-57549039D01*
X135933670Y-57531185D01*
X135447489Y-57206329D01*
X134874000Y-57092255D01*
X134300511Y-57206329D01*
X133814330Y-57531185D01*
X133604000Y-57845966D01*
X133393670Y-57531185D01*
X132907489Y-57206329D01*
X132334000Y-57092255D01*
X131760511Y-57206329D01*
X131274330Y-57531185D01*
X131067539Y-57840669D01*
X130696036Y-57424868D01*
X130168791Y-57170891D01*
X130153026Y-57168242D01*
X129921000Y-57289383D01*
X129921000Y-58648600D01*
X129941000Y-58648600D01*
X129941000Y-58902600D01*
X129921000Y-58902600D01*
X129921000Y-60261817D01*
X130153026Y-60382958D01*
X130168791Y-60380309D01*
X130696036Y-60126332D01*
X131067539Y-59710531D01*
X131274330Y-60020015D01*
X131463310Y-60146288D01*
X128615598Y-62994000D01*
X127304800Y-62994000D01*
X127013960Y-63051852D01*
X126767399Y-63216599D01*
X124530999Y-65452999D01*
X124366252Y-65699561D01*
X124308400Y-65990400D01*
X124308400Y-66683448D01*
X124193400Y-66660160D01*
X123943400Y-66660160D01*
X123813811Y-66684544D01*
X123693400Y-66660160D01*
X123443400Y-66660160D01*
X123313811Y-66684544D01*
X123193400Y-66660160D01*
X122943400Y-66660160D01*
X122813811Y-66684544D01*
X122693400Y-66660160D01*
X122443400Y-66660160D01*
X122328400Y-66681799D01*
X122328400Y-65988870D01*
X122356592Y-65960727D01*
X122499238Y-65617199D01*
X122499555Y-65252901D01*
X122588517Y-65236162D01*
X122804641Y-65097090D01*
X122949631Y-64884890D01*
X123000640Y-64633000D01*
X123000640Y-63383000D01*
X122956362Y-63147683D01*
X122817290Y-62931559D01*
X122605090Y-62786569D01*
X122353200Y-62735560D01*
X121353200Y-62735560D01*
X121117883Y-62779838D01*
X120901759Y-62918910D01*
X120855231Y-62987006D01*
X120712898Y-62844673D01*
X120479509Y-62748000D01*
X120138950Y-62748000D01*
X119980200Y-62906750D01*
X119980200Y-63881000D01*
X120000200Y-63881000D01*
X120000200Y-64135000D01*
X119980200Y-64135000D01*
X119980200Y-64155000D01*
X119726200Y-64155000D01*
X119726200Y-64135000D01*
X118876950Y-64135000D01*
X118718200Y-64293750D01*
X118718200Y-64595400D01*
X117615840Y-64595400D01*
X117615840Y-64297400D01*
X117571562Y-64062083D01*
X117432490Y-63845959D01*
X117220290Y-63700969D01*
X116968400Y-63649960D01*
X116376828Y-63649960D01*
X115983558Y-63256690D01*
X118718200Y-63256690D01*
X118718200Y-63722250D01*
X118876950Y-63881000D01*
X119726200Y-63881000D01*
X119726200Y-62906750D01*
X119567450Y-62748000D01*
X119226891Y-62748000D01*
X118993502Y-62844673D01*
X118814873Y-63023301D01*
X118718200Y-63256690D01*
X115983558Y-63256690D01*
X115230034Y-62503166D01*
X115156214Y-62453841D01*
X114959141Y-62322161D01*
X114639600Y-62258600D01*
X110083600Y-62258600D01*
X109764060Y-62322160D01*
X109493166Y-62503166D01*
X109391400Y-62604932D01*
X109391400Y-59137513D01*
X128308816Y-59137513D01*
X128502046Y-59689920D01*
X128891964Y-60126332D01*
X129419209Y-60380309D01*
X129434974Y-60382958D01*
X129667000Y-60261817D01*
X129667000Y-58902600D01*
X128453076Y-58902600D01*
X128308816Y-59137513D01*
X109391400Y-59137513D01*
X109391400Y-58413687D01*
X128308816Y-58413687D01*
X128453076Y-58648600D01*
X129667000Y-58648600D01*
X129667000Y-57289383D01*
X129434974Y-57168242D01*
X129419209Y-57170891D01*
X128891964Y-57424868D01*
X128502046Y-57861280D01*
X128308816Y-58413687D01*
X109391400Y-58413687D01*
X109391400Y-58137512D01*
X111020311Y-56508600D01*
X135054888Y-56508600D01*
X135994573Y-57448284D01*
M02*
