G04 #@! TF.FileFunction,Soldermask,Top*
%FSLAX46Y46*%
G04 Gerber Fmt 4.6, Leading zero omitted, Abs format (unit mm)*
G04 Created by KiCad (PCBNEW (2015-07-31 BZR 6030)-product) date Fri Sep 11 12:40:14 2015*
%MOMM*%
G01*
G04 APERTURE LIST*
%ADD10C,0.100000*%
%ADD11C,5.000000*%
%ADD12R,2.500000X5.100000*%
%ADD13C,17.800000*%
%ADD14R,1.250000X1.000000*%
%ADD15R,0.800000X0.750000*%
%ADD16R,1.000000X1.250000*%
%ADD17R,0.750000X0.800000*%
%ADD18R,1.350000X0.400000*%
%ADD19O,0.950000X1.250000*%
%ADD20O,1.550000X1.000000*%
%ADD21R,1.800860X1.597660*%
%ADD22R,2.032000X1.727200*%
%ADD23O,2.032000X1.727200*%
%ADD24R,1.727200X2.032000*%
%ADD25O,1.727200X2.032000*%
%ADD26R,0.700000X1.300000*%
%ADD27R,0.500000X0.900000*%
%ADD28R,1.300000X0.700000*%
%ADD29C,1.600000*%
%ADD30R,1.000000X3.100000*%
%ADD31R,1.060000X0.650000*%
%ADD32R,1.000000X0.250000*%
%ADD33R,0.250000X1.000000*%
%ADD34R,0.800000X1.300000*%
%ADD35R,1.300000X0.800000*%
%ADD36R,2.000000X1.000000*%
%ADD37C,1.200000*%
%ADD38R,1.400000X1.200000*%
G04 APERTURE END LIST*
D10*
D11*
X164541200Y-83007200D03*
X95859600Y-107391200D03*
D12*
X168413600Y-99110800D03*
D13*
X157073600Y-99110800D03*
D12*
X145623600Y-99110800D03*
D14*
X100482400Y-68716400D03*
X100482400Y-66716400D03*
D15*
X104483600Y-66141600D03*
X102983600Y-66141600D03*
D16*
X116468400Y-64922400D03*
X114468400Y-64922400D03*
X121853200Y-64008000D03*
X119853200Y-64008000D03*
D15*
X113018000Y-67462400D03*
X111518000Y-67462400D03*
D17*
X133451600Y-71158800D03*
X133451600Y-69658800D03*
D15*
X111772000Y-72440800D03*
X113272000Y-72440800D03*
D14*
X115062000Y-95774000D03*
X115062000Y-97774000D03*
X143256000Y-68748400D03*
X143256000Y-70748400D03*
D17*
X142595600Y-102526400D03*
X142595600Y-104026400D03*
X117449600Y-96125600D03*
X117449600Y-97625600D03*
D18*
X97891600Y-69342000D03*
X97891600Y-69992000D03*
X97891600Y-70642000D03*
X97891600Y-71292000D03*
X97891600Y-71942000D03*
D19*
X97891600Y-68142000D03*
X97891600Y-73142000D03*
D20*
X95191600Y-67142000D03*
X95191600Y-74142000D03*
D16*
X130165600Y-86156800D03*
X132165600Y-86156800D03*
D21*
X163880800Y-67002660D03*
X163880800Y-64162940D03*
D14*
X108356400Y-66056000D03*
X108356400Y-68056000D03*
D22*
X140106400Y-74320400D03*
D23*
X140106400Y-76860400D03*
X140106400Y-79400400D03*
X140106400Y-81940400D03*
X140106400Y-84480400D03*
X140106400Y-87020400D03*
D24*
X137414000Y-58775600D03*
D25*
X134874000Y-58775600D03*
X132334000Y-58775600D03*
X129794000Y-58775600D03*
D24*
X105460800Y-102006400D03*
D25*
X108000800Y-102006400D03*
X110540800Y-102006400D03*
X113080800Y-102006400D03*
D22*
X96875600Y-86360000D03*
D23*
X96875600Y-88900000D03*
X96875600Y-91440000D03*
X96875600Y-93980000D03*
D26*
X129860000Y-71170800D03*
X131760000Y-71170800D03*
D27*
X139942000Y-62433200D03*
X138442000Y-62433200D03*
D28*
X126339600Y-86324400D03*
X126339600Y-88224400D03*
X120751600Y-102854800D03*
X120751600Y-100954800D03*
X117805200Y-102854800D03*
X117805200Y-100954800D03*
D27*
X158128400Y-87985600D03*
X156628400Y-87985600D03*
X158128400Y-85191600D03*
X156628400Y-85191600D03*
X158128400Y-82651600D03*
X156628400Y-82651600D03*
X157976000Y-80010000D03*
X156476000Y-80010000D03*
D28*
X163880800Y-62265600D03*
X163880800Y-60365600D03*
X104394000Y-79009200D03*
X104394000Y-80909200D03*
D29*
X153710800Y-80264000D03*
X146110800Y-80264000D03*
X153710800Y-82804000D03*
X146110800Y-82804000D03*
X153710800Y-85344000D03*
X146110800Y-85344000D03*
X153710800Y-87884000D03*
X146110800Y-87884000D03*
D30*
X110661200Y-81808400D03*
X106661200Y-81808400D03*
X110661200Y-90708400D03*
X106661200Y-90708400D03*
D31*
X103395600Y-68188800D03*
X103395600Y-69138800D03*
X103395600Y-70088800D03*
X105595600Y-70088800D03*
X105595600Y-68188800D03*
D32*
X127518400Y-77257600D03*
X127518400Y-76757600D03*
X127518400Y-76257600D03*
X127518400Y-75757600D03*
X127518400Y-75257600D03*
X127518400Y-74757600D03*
X127518400Y-74257600D03*
X127518400Y-73757600D03*
X127518400Y-73257600D03*
X127518400Y-72757600D03*
X127518400Y-72257600D03*
X127518400Y-71757600D03*
X127518400Y-71257600D03*
X127518400Y-70757600D03*
X127518400Y-70257600D03*
X127518400Y-69757600D03*
D33*
X125568400Y-67807600D03*
X125068400Y-67807600D03*
X124568400Y-67807600D03*
X124068400Y-67807600D03*
X123568400Y-67807600D03*
X123068400Y-67807600D03*
X122568400Y-67807600D03*
X122068400Y-67807600D03*
X121568400Y-67807600D03*
X121068400Y-67807600D03*
X120568400Y-67807600D03*
X120068400Y-67807600D03*
X119568400Y-67807600D03*
X119068400Y-67807600D03*
X118568400Y-67807600D03*
X118068400Y-67807600D03*
D32*
X116118400Y-69757600D03*
X116118400Y-70257600D03*
X116118400Y-70757600D03*
X116118400Y-71257600D03*
X116118400Y-71757600D03*
X116118400Y-72257600D03*
X116118400Y-72757600D03*
X116118400Y-73257600D03*
X116118400Y-73757600D03*
X116118400Y-74257600D03*
X116118400Y-74757600D03*
X116118400Y-75257600D03*
X116118400Y-75757600D03*
X116118400Y-76257600D03*
X116118400Y-76757600D03*
X116118400Y-77257600D03*
D33*
X118068400Y-79207600D03*
X118568400Y-79207600D03*
X119068400Y-79207600D03*
X119568400Y-79207600D03*
X120068400Y-79207600D03*
X120568400Y-79207600D03*
X121068400Y-79207600D03*
X121568400Y-79207600D03*
X122068400Y-79207600D03*
X122568400Y-79207600D03*
X123068400Y-79207600D03*
X123568400Y-79207600D03*
X124068400Y-79207600D03*
X124568400Y-79207600D03*
X125068400Y-79207600D03*
X125568400Y-79207600D03*
D34*
X156504560Y-73116440D03*
X155504560Y-73116440D03*
X154204560Y-73116440D03*
X153004560Y-73116440D03*
X151804560Y-73116440D03*
X150604560Y-73116440D03*
X149304560Y-73116440D03*
D35*
X159104560Y-70316440D03*
X159104560Y-69116440D03*
X159104560Y-67916440D03*
X159104560Y-66716440D03*
X159104560Y-65516440D03*
X159104560Y-64316440D03*
X159104560Y-63116440D03*
X159104560Y-61916440D03*
X159104560Y-59516440D03*
X159104560Y-60716440D03*
X159104560Y-58316440D03*
X159104560Y-57116440D03*
X145704560Y-57116440D03*
X145704560Y-58316440D03*
X145704560Y-60716440D03*
X145704560Y-59516440D03*
X145704560Y-61916440D03*
X145704560Y-63116440D03*
X145704560Y-64316440D03*
X145704560Y-65516440D03*
X145704560Y-66716440D03*
X145704560Y-67916440D03*
X145704560Y-69116440D03*
X145704560Y-70316440D03*
D34*
X148304560Y-73116440D03*
D36*
X139473600Y-95360800D03*
X139473600Y-102860800D03*
X139473600Y-99860800D03*
X139473600Y-101360800D03*
X139373600Y-98360800D03*
X139473600Y-105860800D03*
X139473600Y-96860800D03*
X139473600Y-93860800D03*
X139473600Y-104360800D03*
X139473600Y-92360800D03*
X123873600Y-92360800D03*
X123873600Y-104360800D03*
X123873600Y-93860800D03*
X123873600Y-96860800D03*
X123873600Y-105860800D03*
X123773600Y-98360800D03*
X123873600Y-101360800D03*
X123873600Y-99860800D03*
X123873600Y-102860800D03*
X123873600Y-95360800D03*
D37*
X131873600Y-98310800D03*
D38*
X111269600Y-70751600D03*
X113469600Y-70751600D03*
X111269600Y-69151600D03*
X113469600Y-69151600D03*
D11*
X96469200Y-55372000D03*
M02*
