G04 #@! TF.FileFunction,Copper,L2,Bot,Signal*
%FSLAX46Y46*%
G04 Gerber Fmt 4.6, Leading zero omitted, Abs format (unit mm)*
G04 Created by KiCad (PCBNEW (2015-07-31 BZR 6030)-product) date Mon Sep  7 21:48:31 2015*
%MOMM*%
G01*
G04 APERTURE LIST*
%ADD10C,0.100000*%
%ADD11C,5.000000*%
%ADD12O,0.950000X1.250000*%
%ADD13O,1.550000X1.000000*%
%ADD14R,2.032000X1.727200*%
%ADD15O,2.032000X1.727200*%
%ADD16R,1.727200X2.032000*%
%ADD17O,1.727200X2.032000*%
%ADD18C,1.600000*%
%ADD19C,0.600000*%
%ADD20C,0.800000*%
%ADD21C,0.400000*%
%ADD22C,0.250000*%
%ADD23C,0.254000*%
G04 APERTURE END LIST*
D10*
D11*
X164541200Y-83007200D03*
X95859600Y-107391200D03*
D12*
X97891600Y-68142000D03*
X97891600Y-73142000D03*
D13*
X95191600Y-67142000D03*
X95191600Y-74142000D03*
D14*
X140106400Y-74320400D03*
D15*
X140106400Y-76860400D03*
X140106400Y-79400400D03*
X140106400Y-81940400D03*
X140106400Y-84480400D03*
X140106400Y-87020400D03*
D16*
X137414000Y-58775600D03*
D17*
X134874000Y-58775600D03*
X132334000Y-58775600D03*
X129794000Y-58775600D03*
D16*
X105460800Y-102006400D03*
D17*
X108000800Y-102006400D03*
X110540800Y-102006400D03*
X113080800Y-102006400D03*
D14*
X96875600Y-86360000D03*
D15*
X96875600Y-88900000D03*
X96875600Y-91440000D03*
X96875600Y-93980000D03*
D18*
X153710800Y-80264000D03*
X146110800Y-80264000D03*
X153710800Y-82804000D03*
X146110800Y-82804000D03*
X153710800Y-85344000D03*
X146110800Y-85344000D03*
X153710800Y-87884000D03*
X146110800Y-87884000D03*
D11*
X96469200Y-55372000D03*
D19*
X126339600Y-97028000D03*
X145542000Y-98856800D03*
X145897600Y-107848400D03*
X145623600Y-99110800D03*
X122123200Y-58724800D03*
X127355600Y-54051200D03*
X131927600Y-91338400D03*
X128574800Y-101752400D03*
X130606800Y-76250800D03*
X121716800Y-80822800D03*
X129743200Y-93522800D03*
X108712000Y-85547200D03*
X137668000Y-69697600D03*
X114468400Y-64922400D03*
X119938800Y-63957200D03*
X119075200Y-72390000D03*
X111269600Y-69151600D03*
X113469600Y-70751600D03*
X113272000Y-72440800D03*
X103395600Y-69138800D03*
X121361200Y-70053200D03*
X112877600Y-76403200D03*
X109728000Y-74066400D03*
X166979600Y-62484000D03*
X154838400Y-60096400D03*
X104394000Y-78892400D03*
X107356398Y-69799200D03*
X121564400Y-65430400D03*
X123545600Y-77622400D03*
X130505200Y-69392800D03*
X117348000Y-71628000D03*
X108356400Y-71831200D03*
X115773200Y-84023200D03*
X122732800Y-81737200D03*
X121513600Y-82499200D03*
X121716800Y-83616800D03*
X121056400Y-84378800D03*
X118973600Y-87477600D03*
X120040400Y-87477600D03*
X118059200Y-88900000D03*
X117957600Y-89865200D03*
X120853200Y-99923600D03*
X124663200Y-70358000D03*
X123393200Y-70916800D03*
X117906800Y-99771200D03*
X122682000Y-75234800D03*
X119126000Y-77876400D03*
X157683200Y-61925200D03*
X156718000Y-66395600D03*
X148183600Y-60604400D03*
X150977600Y-59537600D03*
X136906000Y-71577200D03*
X154025600Y-70256400D03*
X153466800Y-69088000D03*
X135991600Y-71120000D03*
D20*
X130860800Y-107848400D02*
X145897600Y-107848400D01*
X126593600Y-103581200D02*
X130860800Y-107848400D01*
X126593600Y-97282000D02*
X126593600Y-103581200D01*
X126339600Y-97028000D02*
X126593600Y-97282000D01*
X145542000Y-107492800D02*
X145542000Y-98856800D01*
X145897600Y-107848400D02*
X145542000Y-107492800D01*
X145623600Y-99110800D02*
X145694400Y-99040000D01*
X145694400Y-99040000D02*
X145694400Y-98755200D01*
X126796800Y-54051200D02*
X122123200Y-58724800D01*
X127355600Y-54051200D02*
X126796800Y-54051200D01*
D21*
X129743200Y-93522800D02*
X129743200Y-100584000D01*
X129743200Y-100584000D02*
X128574800Y-101752400D01*
D22*
X126288800Y-76250800D02*
X130606800Y-76250800D01*
X121716800Y-80822800D02*
X126288800Y-76250800D01*
D20*
X136245600Y-87020400D02*
X140106400Y-87020400D01*
X129743200Y-93522800D02*
X131927600Y-91338400D01*
X131927600Y-91338400D02*
X136245600Y-87020400D01*
X97891600Y-73142000D02*
X97891600Y-80619600D01*
X102819200Y-85547200D02*
X108712000Y-85547200D01*
X97891600Y-80619600D02*
X102819200Y-85547200D01*
X119938800Y-63957200D02*
X132588000Y-63957200D01*
X137668000Y-69037200D02*
X137668000Y-69697600D01*
X132588000Y-63957200D02*
X137668000Y-69037200D01*
X118973600Y-64922400D02*
X119938800Y-63957200D01*
X114468400Y-64922400D02*
X118973600Y-64922400D01*
D22*
X119075200Y-72390000D02*
X119024400Y-72390000D01*
D21*
X103733600Y-69037200D02*
X103733600Y-68884800D01*
X108204000Y-68224400D02*
X109829600Y-69850000D01*
X104394000Y-68224400D02*
X108204000Y-68224400D01*
X103733600Y-68884800D02*
X104394000Y-68224400D01*
D22*
X111269600Y-69151600D02*
X110528000Y-69151600D01*
X110528000Y-69151600D02*
X109829600Y-69850000D01*
X113322800Y-72390000D02*
X113272000Y-72440800D01*
X114401600Y-72390000D02*
X113322800Y-72390000D01*
X113272000Y-70949200D02*
X113272000Y-72440800D01*
X113272000Y-70949200D02*
X113469600Y-70751600D01*
D21*
X97891600Y-68142000D02*
X95891200Y-68142000D01*
X95891200Y-68142000D02*
X95191600Y-68841600D01*
X95191600Y-67142000D02*
X95191600Y-68841600D01*
X95191600Y-68841600D02*
X95191600Y-72142000D01*
X95191600Y-72142000D02*
X96191600Y-73142000D01*
X97891600Y-73142000D02*
X96191600Y-73142000D01*
X96191600Y-73142000D02*
X95191600Y-74142000D01*
X103733600Y-69037200D02*
X103497200Y-69037200D01*
X103497200Y-69037200D02*
X103395600Y-69138800D01*
X101996400Y-69037200D02*
X97891600Y-73142000D01*
X103733600Y-69037200D02*
X101996400Y-69037200D01*
X112369600Y-72390000D02*
X109829600Y-69850000D01*
X114401600Y-72390000D02*
X112369600Y-72390000D01*
X119024400Y-72390000D02*
X114401600Y-72390000D01*
D22*
X121361200Y-70053200D02*
X119024400Y-72390000D01*
X112064800Y-76403200D02*
X112877600Y-76403200D01*
X109728000Y-74066400D02*
X112064800Y-76403200D01*
X164592000Y-60096400D02*
X166979600Y-62484000D01*
X154838400Y-60096400D02*
X164592000Y-60096400D01*
D20*
X104394000Y-72761598D02*
X104394000Y-78892400D01*
X107356398Y-69799200D02*
X104394000Y-72761598D01*
D22*
X129235200Y-65430400D02*
X121564400Y-65430400D01*
X131775200Y-67970400D02*
X129235200Y-65430400D01*
X131775200Y-69392800D02*
X131775200Y-67970400D01*
X123545600Y-77622400D02*
X131775200Y-69392800D01*
X119583200Y-69392800D02*
X130505200Y-69392800D01*
X117348000Y-71628000D02*
X119583200Y-69392800D01*
D20*
X108356400Y-71831200D02*
X108356400Y-76606400D01*
X108356400Y-76606400D02*
X115773200Y-84023200D01*
D22*
X140106400Y-76860400D02*
X135229600Y-81737200D01*
X135229600Y-81737200D02*
X122732800Y-81737200D01*
X137007600Y-82499200D02*
X140106400Y-79400400D01*
X121513600Y-82499200D02*
X137007600Y-82499200D01*
X138430000Y-83616800D02*
X140106400Y-81940400D01*
X121716800Y-83616800D02*
X138430000Y-83616800D01*
X121158000Y-84480400D02*
X140106400Y-84480400D01*
X121056400Y-84378800D02*
X121158000Y-84480400D01*
X118973600Y-91033600D02*
X108000800Y-102006400D01*
X118973600Y-87477600D02*
X118973600Y-91033600D01*
X110540800Y-102006400D02*
X120040400Y-92506800D01*
X120040400Y-92506800D02*
X120040400Y-87477600D01*
X118059200Y-88900000D02*
X96875600Y-88900000D01*
X96875600Y-91440000D02*
X116382800Y-91440000D01*
X116382800Y-91440000D02*
X117957600Y-89865200D01*
X121716800Y-99060000D02*
X120853200Y-99923600D01*
X121716800Y-86106000D02*
X121716800Y-99060000D01*
X116128800Y-80518000D02*
X121716800Y-86106000D01*
X116128800Y-79502000D02*
X116128800Y-80518000D01*
X124561600Y-71069200D02*
X116128800Y-79502000D01*
X124561600Y-70459600D02*
X124561600Y-71069200D01*
X124663200Y-70358000D02*
X124561600Y-70459600D01*
X114858800Y-79451200D02*
X123393200Y-70916800D01*
X114858800Y-80924400D02*
X114858800Y-79451200D01*
X120904000Y-86969600D02*
X114858800Y-80924400D01*
X120904000Y-96774000D02*
X120904000Y-86969600D01*
X117906800Y-99771200D02*
X120904000Y-96774000D01*
X120040400Y-77876400D02*
X122682000Y-75234800D01*
X119126000Y-77876400D02*
X120040400Y-77876400D01*
X146110800Y-80264000D02*
X146110800Y-79542800D01*
X146110800Y-79542800D02*
X156006800Y-69646800D01*
X156006800Y-69646800D02*
X156006800Y-63601600D01*
X156006800Y-63601600D02*
X157683200Y-61925200D01*
X146110800Y-82804000D02*
X156718000Y-72196800D01*
X156718000Y-72196800D02*
X156718000Y-66395600D01*
X146110800Y-85344000D02*
X144830800Y-85344000D01*
X144830800Y-85344000D02*
X143052800Y-87122000D01*
X143052800Y-87122000D02*
X143052800Y-93116400D01*
X143052800Y-93116400D02*
X145084800Y-95148400D01*
X145084800Y-95148400D02*
X167995600Y-95148400D01*
X167995600Y-95148400D02*
X169875200Y-93268800D01*
X169875200Y-93268800D02*
X169875200Y-56794400D01*
X169875200Y-56794400D02*
X151993600Y-56794400D01*
X151993600Y-56794400D02*
X148183600Y-60604400D01*
X144373600Y-89621200D02*
X146110800Y-87884000D01*
X144373600Y-92456000D02*
X144373600Y-89621200D01*
X145694400Y-93776800D02*
X144373600Y-92456000D01*
X166624000Y-93776800D02*
X145694400Y-93776800D01*
X168554400Y-91846400D02*
X166624000Y-93776800D01*
X168554400Y-59690000D02*
X168554400Y-91846400D01*
X166471600Y-57607200D02*
X168554400Y-59690000D01*
X152908000Y-57607200D02*
X166471600Y-57607200D01*
X150977600Y-59537600D02*
X152908000Y-57607200D01*
X152704800Y-71577200D02*
X136906000Y-71577200D01*
X154025600Y-70256400D02*
X152704800Y-71577200D01*
X151942800Y-70612000D02*
X153466800Y-69088000D01*
X136499600Y-70612000D02*
X151942800Y-70612000D01*
X135991600Y-71120000D02*
X136499600Y-70612000D01*
D23*
G36*
X171526200Y-109905800D02*
X97778041Y-109905800D01*
X98515774Y-109169353D01*
X98994054Y-108017526D01*
X98995143Y-106770346D01*
X98518873Y-105617685D01*
X97637753Y-104735026D01*
X96485926Y-104256746D01*
X95238746Y-104255657D01*
X94086085Y-104731927D01*
X93203426Y-105613047D01*
X92725146Y-106764874D01*
X92724057Y-108012054D01*
X93200327Y-109164715D01*
X93940120Y-109905800D01*
X92075000Y-109905800D01*
X92075000Y-94339026D01*
X95268242Y-94339026D01*
X95270891Y-94354791D01*
X95524868Y-94882036D01*
X95961280Y-95271954D01*
X96513687Y-95465184D01*
X96748600Y-95320924D01*
X96748600Y-94107000D01*
X97002600Y-94107000D01*
X97002600Y-95320924D01*
X97237513Y-95465184D01*
X97789920Y-95271954D01*
X98226332Y-94882036D01*
X98480309Y-94354791D01*
X98482958Y-94339026D01*
X98361817Y-94107000D01*
X97002600Y-94107000D01*
X96748600Y-94107000D01*
X95389383Y-94107000D01*
X95268242Y-94339026D01*
X92075000Y-94339026D01*
X92075000Y-88900000D01*
X95192255Y-88900000D01*
X95306329Y-89473489D01*
X95631185Y-89959670D01*
X95945966Y-90170000D01*
X95631185Y-90380330D01*
X95306329Y-90866511D01*
X95192255Y-91440000D01*
X95306329Y-92013489D01*
X95631185Y-92499670D01*
X95940669Y-92706461D01*
X95524868Y-93077964D01*
X95270891Y-93605209D01*
X95268242Y-93620974D01*
X95389383Y-93853000D01*
X96748600Y-93853000D01*
X96748600Y-93833000D01*
X97002600Y-93833000D01*
X97002600Y-93853000D01*
X98361817Y-93853000D01*
X98482958Y-93620974D01*
X98480309Y-93605209D01*
X98226332Y-93077964D01*
X97810531Y-92706461D01*
X98120015Y-92499670D01*
X98320248Y-92200000D01*
X116382800Y-92200000D01*
X116673639Y-92142148D01*
X116920201Y-91977401D01*
X118097280Y-90800322D01*
X118132045Y-90800353D01*
X108508379Y-100424019D01*
X108000800Y-100323055D01*
X107427311Y-100437129D01*
X106941130Y-100761985D01*
X106931557Y-100776313D01*
X106927562Y-100755083D01*
X106788490Y-100538959D01*
X106576290Y-100393969D01*
X106324400Y-100342960D01*
X104597200Y-100342960D01*
X104361883Y-100387238D01*
X104145759Y-100526310D01*
X104000769Y-100738510D01*
X103949760Y-100990400D01*
X103949760Y-103022400D01*
X103994038Y-103257717D01*
X104133110Y-103473841D01*
X104345310Y-103618831D01*
X104597200Y-103669840D01*
X106324400Y-103669840D01*
X106559717Y-103625562D01*
X106775841Y-103486490D01*
X106920831Y-103274290D01*
X106929200Y-103232961D01*
X106941130Y-103250815D01*
X107427311Y-103575671D01*
X108000800Y-103689745D01*
X108574289Y-103575671D01*
X109060470Y-103250815D01*
X109270800Y-102936034D01*
X109481130Y-103250815D01*
X109967311Y-103575671D01*
X110540800Y-103689745D01*
X111114289Y-103575671D01*
X111600470Y-103250815D01*
X111807261Y-102941331D01*
X112178764Y-103357132D01*
X112706009Y-103611109D01*
X112721774Y-103613758D01*
X112953800Y-103492617D01*
X112953800Y-102133400D01*
X113207800Y-102133400D01*
X113207800Y-103492617D01*
X113439826Y-103613758D01*
X113455591Y-103611109D01*
X113982836Y-103357132D01*
X114372754Y-102920720D01*
X114565984Y-102368313D01*
X114421724Y-102133400D01*
X113207800Y-102133400D01*
X112953800Y-102133400D01*
X112933800Y-102133400D01*
X112933800Y-101879400D01*
X112953800Y-101879400D01*
X112953800Y-101859400D01*
X113207800Y-101859400D01*
X113207800Y-101879400D01*
X114421724Y-101879400D01*
X114565984Y-101644487D01*
X114372754Y-101092080D01*
X113982836Y-100655668D01*
X113455591Y-100401691D01*
X113439826Y-100399042D01*
X113207802Y-100520182D01*
X113207802Y-100414200D01*
X120144000Y-93478002D01*
X120144000Y-96459198D01*
X117767120Y-98836078D01*
X117721633Y-98836038D01*
X117377857Y-98978083D01*
X117114608Y-99240873D01*
X116971962Y-99584401D01*
X116971638Y-99956367D01*
X117113683Y-100300143D01*
X117376473Y-100563392D01*
X117720001Y-100706038D01*
X118091967Y-100706362D01*
X118435743Y-100564317D01*
X118698992Y-100301527D01*
X118841638Y-99957999D01*
X118841679Y-99911123D01*
X120956800Y-97796002D01*
X120956800Y-98745198D01*
X120713520Y-98988478D01*
X120668033Y-98988438D01*
X120324257Y-99130483D01*
X120061008Y-99393273D01*
X119918362Y-99736801D01*
X119918038Y-100108767D01*
X120060083Y-100452543D01*
X120322873Y-100715792D01*
X120666401Y-100858438D01*
X121038367Y-100858762D01*
X121382143Y-100716717D01*
X121645392Y-100453927D01*
X121788038Y-100110399D01*
X121788079Y-100063523D01*
X122254201Y-99597401D01*
X122418948Y-99350839D01*
X122476800Y-99060000D01*
X122476800Y-97028000D01*
X125304599Y-97028000D01*
X125383385Y-97424077D01*
X125558600Y-97686306D01*
X125558600Y-103581195D01*
X125558599Y-103581200D01*
X125637385Y-103977277D01*
X125861744Y-104313056D01*
X130128942Y-108580253D01*
X130128944Y-108580256D01*
X130432730Y-108783238D01*
X130464723Y-108804615D01*
X130860800Y-108883401D01*
X130860805Y-108883400D01*
X145897600Y-108883400D01*
X146293677Y-108804615D01*
X146629456Y-108580256D01*
X146853815Y-108244477D01*
X146932600Y-107848400D01*
X146895443Y-107661601D01*
X146853815Y-107452322D01*
X146763949Y-107317829D01*
X146629456Y-107116544D01*
X146629453Y-107116542D01*
X146577000Y-107064089D01*
X146577000Y-99546250D01*
X146650615Y-99436078D01*
X146729400Y-99040000D01*
X146729400Y-98755200D01*
X146650615Y-98359123D01*
X146426256Y-98023344D01*
X146090477Y-97798985D01*
X145694400Y-97720200D01*
X145298323Y-97798985D01*
X145146413Y-97900488D01*
X145145923Y-97900585D01*
X144810144Y-98124944D01*
X144585785Y-98460723D01*
X144507000Y-98856800D01*
X144507000Y-106813400D01*
X131289511Y-106813400D01*
X127628600Y-103152488D01*
X127628600Y-97282005D01*
X127628601Y-97282000D01*
X127549815Y-96885922D01*
X127459949Y-96751429D01*
X127325456Y-96550144D01*
X127325453Y-96550142D01*
X127071456Y-96296144D01*
X126735677Y-96071785D01*
X126339600Y-95992999D01*
X125943523Y-96071785D01*
X125607744Y-96296144D01*
X125383385Y-96631923D01*
X125304599Y-97028000D01*
X122476800Y-97028000D01*
X122476800Y-87379426D01*
X138499042Y-87379426D01*
X138501691Y-87395191D01*
X138755668Y-87922436D01*
X139192080Y-88312354D01*
X139744487Y-88505584D01*
X139979400Y-88361324D01*
X139979400Y-87147400D01*
X140233400Y-87147400D01*
X140233400Y-88361324D01*
X140468313Y-88505584D01*
X141020720Y-88312354D01*
X141457132Y-87922436D01*
X141711109Y-87395191D01*
X141713758Y-87379426D01*
X141592617Y-87147400D01*
X140233400Y-87147400D01*
X139979400Y-87147400D01*
X138620183Y-87147400D01*
X138499042Y-87379426D01*
X122476800Y-87379426D01*
X122476800Y-86106000D01*
X122418948Y-85815161D01*
X122418948Y-85815160D01*
X122254201Y-85568599D01*
X121926002Y-85240400D01*
X138661752Y-85240400D01*
X138861985Y-85540070D01*
X139171469Y-85746861D01*
X138755668Y-86118364D01*
X138501691Y-86645609D01*
X138499042Y-86661374D01*
X138620183Y-86893400D01*
X139979400Y-86893400D01*
X139979400Y-86873400D01*
X140233400Y-86873400D01*
X140233400Y-86893400D01*
X141592617Y-86893400D01*
X141713758Y-86661374D01*
X141711109Y-86645609D01*
X141457132Y-86118364D01*
X141041331Y-85746861D01*
X141350815Y-85540070D01*
X141675671Y-85053889D01*
X141789745Y-84480400D01*
X141675671Y-83906911D01*
X141350815Y-83420730D01*
X141036034Y-83210400D01*
X141350815Y-83000070D01*
X141675671Y-82513889D01*
X141789745Y-81940400D01*
X141675671Y-81366911D01*
X141350815Y-80880730D01*
X141036034Y-80670400D01*
X141350815Y-80460070D01*
X141675671Y-79973889D01*
X141789745Y-79400400D01*
X141675671Y-78826911D01*
X141350815Y-78340730D01*
X141036034Y-78130400D01*
X141350815Y-77920070D01*
X141675671Y-77433889D01*
X141789745Y-76860400D01*
X141675671Y-76286911D01*
X141350815Y-75800730D01*
X141336487Y-75791157D01*
X141357717Y-75787162D01*
X141573841Y-75648090D01*
X141718831Y-75435890D01*
X141769840Y-75184000D01*
X141769840Y-73456800D01*
X141725562Y-73221483D01*
X141586490Y-73005359D01*
X141374290Y-72860369D01*
X141122400Y-72809360D01*
X139090400Y-72809360D01*
X138855083Y-72853638D01*
X138638959Y-72992710D01*
X138493969Y-73204910D01*
X138442960Y-73456800D01*
X138442960Y-75184000D01*
X138487238Y-75419317D01*
X138626310Y-75635441D01*
X138838510Y-75780431D01*
X138879839Y-75788800D01*
X138861985Y-75800730D01*
X138537129Y-76286911D01*
X138423055Y-76860400D01*
X138524019Y-77367979D01*
X134914798Y-80977200D01*
X123295263Y-80977200D01*
X123263127Y-80945008D01*
X122919599Y-80802362D01*
X122547633Y-80802038D01*
X122203857Y-80944083D01*
X121940608Y-81206873D01*
X121797962Y-81550401D01*
X121797915Y-81604854D01*
X121700399Y-81564362D01*
X121328433Y-81564038D01*
X120984657Y-81706083D01*
X120721408Y-81968873D01*
X120578762Y-82312401D01*
X120578438Y-82684367D01*
X120720483Y-83028143D01*
X120881748Y-83189690D01*
X120781962Y-83430001D01*
X120781918Y-83480542D01*
X120527457Y-83585683D01*
X120399259Y-83713657D01*
X116888800Y-80203198D01*
X116888800Y-79816802D01*
X118323344Y-78382258D01*
X118332883Y-78405343D01*
X118595673Y-78668592D01*
X118939201Y-78811238D01*
X119311167Y-78811562D01*
X119654943Y-78669517D01*
X119688118Y-78636400D01*
X120040400Y-78636400D01*
X120331239Y-78578548D01*
X120577801Y-78413801D01*
X122821680Y-76169922D01*
X122867167Y-76169962D01*
X123210943Y-76027917D01*
X123474192Y-75765127D01*
X123616838Y-75421599D01*
X123617162Y-75049633D01*
X123475117Y-74705857D01*
X123212327Y-74442608D01*
X122868799Y-74299962D01*
X122496833Y-74299638D01*
X122341980Y-74363622D01*
X125099001Y-71606601D01*
X125263748Y-71360039D01*
X125321600Y-71069200D01*
X125321600Y-71021886D01*
X125455392Y-70888327D01*
X125598038Y-70544799D01*
X125598362Y-70172833D01*
X125590085Y-70152800D01*
X129940398Y-70152800D01*
X123405920Y-76687278D01*
X123360433Y-76687238D01*
X123016657Y-76829283D01*
X122753408Y-77092073D01*
X122610762Y-77435601D01*
X122610438Y-77807567D01*
X122752483Y-78151343D01*
X123015273Y-78414592D01*
X123358801Y-78557238D01*
X123730767Y-78557562D01*
X124074543Y-78415517D01*
X124337792Y-78152727D01*
X124480438Y-77809199D01*
X124480479Y-77762323D01*
X130937635Y-71305167D01*
X135056438Y-71305167D01*
X135198483Y-71648943D01*
X135461273Y-71912192D01*
X135804801Y-72054838D01*
X136091788Y-72055088D01*
X136112883Y-72106143D01*
X136375673Y-72369392D01*
X136719201Y-72512038D01*
X137091167Y-72512362D01*
X137434943Y-72370317D01*
X137468118Y-72337200D01*
X152241598Y-72337200D01*
X145696133Y-78882665D01*
X145299000Y-79046757D01*
X144894976Y-79450077D01*
X144676050Y-79977309D01*
X144675552Y-80548187D01*
X144893557Y-81075800D01*
X145296877Y-81479824D01*
X145427015Y-81533862D01*
X145299000Y-81586757D01*
X144894976Y-81990077D01*
X144676050Y-82517309D01*
X144675552Y-83088187D01*
X144893557Y-83615800D01*
X145296877Y-84019824D01*
X145427015Y-84073862D01*
X145299000Y-84126757D01*
X144894976Y-84530077D01*
X144872585Y-84584000D01*
X144830800Y-84584000D01*
X144539961Y-84641852D01*
X144293399Y-84806599D01*
X142515399Y-86584599D01*
X142350652Y-86831161D01*
X142292800Y-87122000D01*
X142292800Y-93116400D01*
X142350652Y-93407239D01*
X142515399Y-93653801D01*
X144547399Y-95685801D01*
X144793961Y-95850548D01*
X145084800Y-95908400D01*
X167995600Y-95908400D01*
X168286439Y-95850548D01*
X168533001Y-95685801D01*
X170412601Y-93806201D01*
X170577348Y-93559639D01*
X170635200Y-93268800D01*
X170635200Y-56794400D01*
X170577348Y-56503561D01*
X170412601Y-56256999D01*
X170166039Y-56092252D01*
X169875200Y-56034400D01*
X151993600Y-56034400D01*
X151702761Y-56092252D01*
X151456199Y-56256999D01*
X148043920Y-59669278D01*
X147998433Y-59669238D01*
X147654657Y-59811283D01*
X147391408Y-60074073D01*
X147248762Y-60417601D01*
X147248438Y-60789567D01*
X147390483Y-61133343D01*
X147653273Y-61396592D01*
X147996801Y-61539238D01*
X148368767Y-61539562D01*
X148712543Y-61397517D01*
X148975792Y-61134727D01*
X149118438Y-60791199D01*
X149118479Y-60744323D01*
X150070974Y-59791828D01*
X150184483Y-60066543D01*
X150447273Y-60329792D01*
X150790801Y-60472438D01*
X151162767Y-60472762D01*
X151506543Y-60330717D01*
X151769792Y-60067927D01*
X151912438Y-59724399D01*
X151912479Y-59677523D01*
X153222802Y-58367200D01*
X166156798Y-58367200D01*
X167794400Y-60004802D01*
X167794400Y-62007534D01*
X167772717Y-61955057D01*
X167509927Y-61691808D01*
X167166399Y-61549162D01*
X167119523Y-61549121D01*
X165129401Y-59558999D01*
X164882839Y-59394252D01*
X164592000Y-59336400D01*
X155400863Y-59336400D01*
X155368727Y-59304208D01*
X155025199Y-59161562D01*
X154653233Y-59161238D01*
X154309457Y-59303283D01*
X154046208Y-59566073D01*
X153903562Y-59909601D01*
X153903238Y-60281567D01*
X154045283Y-60625343D01*
X154308073Y-60888592D01*
X154651601Y-61031238D01*
X155023567Y-61031562D01*
X155367343Y-60889517D01*
X155400518Y-60856400D01*
X164277198Y-60856400D01*
X166044478Y-62623680D01*
X166044438Y-62669167D01*
X166186483Y-63012943D01*
X166449273Y-63276192D01*
X166792801Y-63418838D01*
X167164767Y-63419162D01*
X167508543Y-63277117D01*
X167771792Y-63014327D01*
X167794400Y-62959881D01*
X167794400Y-91531598D01*
X166309198Y-93016800D01*
X146009202Y-93016800D01*
X145133600Y-92141198D01*
X145133600Y-89936002D01*
X145772346Y-89297256D01*
X145824109Y-89318750D01*
X146394987Y-89319248D01*
X146922600Y-89101243D01*
X147326624Y-88697923D01*
X147545550Y-88170691D01*
X147546048Y-87599813D01*
X147328043Y-87072200D01*
X146924723Y-86668176D01*
X146794585Y-86614138D01*
X146922600Y-86561243D01*
X147326624Y-86157923D01*
X147545550Y-85630691D01*
X147546048Y-85059813D01*
X147328043Y-84532200D01*
X146924723Y-84128176D01*
X146794585Y-84074138D01*
X146922600Y-84021243D01*
X147326624Y-83617923D01*
X147545550Y-83090691D01*
X147546048Y-82519813D01*
X147523751Y-82465851D01*
X149441415Y-80548187D01*
X152275552Y-80548187D01*
X152493557Y-81075800D01*
X152896877Y-81479824D01*
X153027015Y-81533862D01*
X152899000Y-81586757D01*
X152494976Y-81990077D01*
X152276050Y-82517309D01*
X152275552Y-83088187D01*
X152493557Y-83615800D01*
X152896877Y-84019824D01*
X153027015Y-84073862D01*
X152899000Y-84126757D01*
X152494976Y-84530077D01*
X152276050Y-85057309D01*
X152275552Y-85628187D01*
X152493557Y-86155800D01*
X152896877Y-86559824D01*
X153027015Y-86613862D01*
X152899000Y-86666757D01*
X152494976Y-87070077D01*
X152276050Y-87597309D01*
X152275552Y-88168187D01*
X152493557Y-88695800D01*
X152896877Y-89099824D01*
X153424109Y-89318750D01*
X153994987Y-89319248D01*
X154522600Y-89101243D01*
X154926624Y-88697923D01*
X155145550Y-88170691D01*
X155146048Y-87599813D01*
X154928043Y-87072200D01*
X154524723Y-86668176D01*
X154394585Y-86614138D01*
X154522600Y-86561243D01*
X154926624Y-86157923D01*
X155145550Y-85630691D01*
X155146048Y-85059813D01*
X154928043Y-84532200D01*
X154524723Y-84128176D01*
X154394585Y-84074138D01*
X154522600Y-84021243D01*
X154916475Y-83628054D01*
X161405657Y-83628054D01*
X161881927Y-84780715D01*
X162763047Y-85663374D01*
X163914874Y-86141654D01*
X165162054Y-86142743D01*
X166314715Y-85666473D01*
X167197374Y-84785353D01*
X167675654Y-83633526D01*
X167676743Y-82386346D01*
X167200473Y-81233685D01*
X166319353Y-80351026D01*
X165167526Y-79872746D01*
X163920346Y-79871657D01*
X162767685Y-80347927D01*
X161885026Y-81229047D01*
X161406746Y-82380874D01*
X161405657Y-83628054D01*
X154916475Y-83628054D01*
X154926624Y-83617923D01*
X155145550Y-83090691D01*
X155146048Y-82519813D01*
X154928043Y-81992200D01*
X154524723Y-81588176D01*
X154394585Y-81534138D01*
X154522600Y-81481243D01*
X154926624Y-81077923D01*
X155145550Y-80550691D01*
X155146048Y-79979813D01*
X154928043Y-79452200D01*
X154524723Y-79048176D01*
X153997491Y-78829250D01*
X153426613Y-78828752D01*
X152899000Y-79046757D01*
X152494976Y-79450077D01*
X152276050Y-79977309D01*
X152275552Y-80548187D01*
X149441415Y-80548187D01*
X157255401Y-72734201D01*
X157420148Y-72487639D01*
X157478000Y-72196800D01*
X157478000Y-66958063D01*
X157510192Y-66925927D01*
X157652838Y-66582399D01*
X157653162Y-66210433D01*
X157511117Y-65866657D01*
X157248327Y-65603408D01*
X156904799Y-65460762D01*
X156766800Y-65460642D01*
X156766800Y-63916402D01*
X157822880Y-62860322D01*
X157868367Y-62860362D01*
X158212143Y-62718317D01*
X158475392Y-62455527D01*
X158618038Y-62111999D01*
X158618362Y-61740033D01*
X158476317Y-61396257D01*
X158213527Y-61133008D01*
X157869999Y-60990362D01*
X157498033Y-60990038D01*
X157154257Y-61132083D01*
X156891008Y-61394873D01*
X156748362Y-61738401D01*
X156748321Y-61785277D01*
X155469399Y-63064199D01*
X155304652Y-63310761D01*
X155246800Y-63601600D01*
X155246800Y-69331998D01*
X154828256Y-69750542D01*
X154818717Y-69727457D01*
X154555927Y-69464208D01*
X154357245Y-69381708D01*
X154401638Y-69274799D01*
X154401962Y-68902833D01*
X154259917Y-68559057D01*
X153997127Y-68295808D01*
X153653599Y-68153162D01*
X153281633Y-68152838D01*
X152937857Y-68294883D01*
X152674608Y-68557673D01*
X152531962Y-68901201D01*
X152531921Y-68948077D01*
X151627998Y-69852000D01*
X136499600Y-69852000D01*
X136208761Y-69909852D01*
X136097241Y-69984367D01*
X135962199Y-70074599D01*
X135851920Y-70184878D01*
X135806433Y-70184838D01*
X135462657Y-70326883D01*
X135199408Y-70589673D01*
X135056762Y-70933201D01*
X135056438Y-71305167D01*
X130937635Y-71305167D01*
X132312601Y-69930201D01*
X132477348Y-69683639D01*
X132535200Y-69392800D01*
X132535200Y-67970400D01*
X132477348Y-67679561D01*
X132477348Y-67679560D01*
X132312601Y-67432999D01*
X129772601Y-64892999D01*
X129526039Y-64728252D01*
X129235200Y-64670400D01*
X122126863Y-64670400D01*
X122094727Y-64638208D01*
X121751199Y-64495562D01*
X121379233Y-64495238D01*
X121035457Y-64637283D01*
X120772208Y-64900073D01*
X120629562Y-65243601D01*
X120629238Y-65615567D01*
X120771283Y-65959343D01*
X121034073Y-66222592D01*
X121377601Y-66365238D01*
X121749567Y-66365562D01*
X122093343Y-66223517D01*
X122126518Y-66190400D01*
X128920398Y-66190400D01*
X131015200Y-68285202D01*
X131015200Y-68592167D01*
X130691999Y-68457962D01*
X130320033Y-68457638D01*
X129976257Y-68599683D01*
X129943082Y-68632800D01*
X119583200Y-68632800D01*
X119292361Y-68690652D01*
X119045799Y-68855399D01*
X117208320Y-70692878D01*
X117162833Y-70692838D01*
X116819057Y-70834883D01*
X116555808Y-71097673D01*
X116413162Y-71441201D01*
X116412838Y-71813167D01*
X116554883Y-72156943D01*
X116817673Y-72420192D01*
X117161201Y-72562838D01*
X117533167Y-72563162D01*
X117876943Y-72421117D01*
X118140192Y-72158327D01*
X118282838Y-71814799D01*
X118282879Y-71767923D01*
X119898002Y-70152800D01*
X122835089Y-70152800D01*
X122601008Y-70386473D01*
X122458362Y-70730001D01*
X122458321Y-70776877D01*
X114321399Y-78913799D01*
X114156652Y-79160361D01*
X114098800Y-79451200D01*
X114098800Y-80885089D01*
X109391400Y-76177688D01*
X109391400Y-74939035D01*
X109541201Y-75001238D01*
X109588077Y-75001279D01*
X111527399Y-76940601D01*
X111773960Y-77105348D01*
X112064800Y-77163200D01*
X112315137Y-77163200D01*
X112347273Y-77195392D01*
X112690801Y-77338038D01*
X113062767Y-77338362D01*
X113406543Y-77196317D01*
X113669792Y-76933527D01*
X113812438Y-76589999D01*
X113812762Y-76218033D01*
X113670717Y-75874257D01*
X113407927Y-75611008D01*
X113064399Y-75468362D01*
X112692433Y-75468038D01*
X112348657Y-75610083D01*
X112347570Y-75611168D01*
X110663122Y-73926720D01*
X110663162Y-73881233D01*
X110521117Y-73537457D01*
X110258327Y-73274208D01*
X109914799Y-73131562D01*
X109542833Y-73131238D01*
X109391400Y-73193809D01*
X109391400Y-71831200D01*
X109312615Y-71435123D01*
X109088256Y-71099344D01*
X108752477Y-70874985D01*
X108356400Y-70796200D01*
X107960323Y-70874985D01*
X107624544Y-71099344D01*
X107400185Y-71435123D01*
X107321400Y-71831200D01*
X107321400Y-76606395D01*
X107321399Y-76606400D01*
X107400185Y-77002477D01*
X107624544Y-77338256D01*
X115041344Y-84755055D01*
X115377123Y-84979415D01*
X115773200Y-85058201D01*
X116169277Y-84979415D01*
X116505055Y-84755055D01*
X116729415Y-84419277D01*
X116808201Y-84023200D01*
X116789678Y-83930080D01*
X119534542Y-86674944D01*
X119511457Y-86684483D01*
X119507223Y-86688710D01*
X119503927Y-86685408D01*
X119160399Y-86542762D01*
X118788433Y-86542438D01*
X118444657Y-86684483D01*
X118181408Y-86947273D01*
X118038762Y-87290801D01*
X118038438Y-87662767D01*
X118163355Y-87965090D01*
X117874033Y-87964838D01*
X117530257Y-88106883D01*
X117497082Y-88140000D01*
X98320248Y-88140000D01*
X98120015Y-87840330D01*
X98105687Y-87830757D01*
X98126917Y-87826762D01*
X98343041Y-87687690D01*
X98488031Y-87475490D01*
X98539040Y-87223600D01*
X98539040Y-85496400D01*
X98494762Y-85261083D01*
X98355690Y-85044959D01*
X98143490Y-84899969D01*
X97891600Y-84848960D01*
X95859600Y-84848960D01*
X95624283Y-84893238D01*
X95408159Y-85032310D01*
X95263169Y-85244510D01*
X95212160Y-85496400D01*
X95212160Y-87223600D01*
X95256438Y-87458917D01*
X95395510Y-87675041D01*
X95607710Y-87820031D01*
X95649039Y-87828400D01*
X95631185Y-87840330D01*
X95306329Y-88326511D01*
X95192255Y-88900000D01*
X92075000Y-88900000D01*
X92075000Y-74443874D01*
X93822481Y-74443874D01*
X94024232Y-74854763D01*
X94364922Y-75142002D01*
X94789600Y-75277000D01*
X95064600Y-75277000D01*
X95064600Y-74269000D01*
X95318600Y-74269000D01*
X95318600Y-75277000D01*
X95593600Y-75277000D01*
X96018278Y-75142002D01*
X96358968Y-74854763D01*
X96560719Y-74443874D01*
X96434554Y-74269000D01*
X95318600Y-74269000D01*
X95064600Y-74269000D01*
X93948646Y-74269000D01*
X93822481Y-74443874D01*
X92075000Y-74443874D01*
X92075000Y-73840126D01*
X93822481Y-73840126D01*
X93948646Y-74015000D01*
X95064600Y-74015000D01*
X95064600Y-73007000D01*
X95318600Y-73007000D01*
X95318600Y-74015000D01*
X96434554Y-74015000D01*
X96560719Y-73840126D01*
X96365791Y-73443131D01*
X96790371Y-73443131D01*
X96932032Y-73853049D01*
X97219779Y-74177552D01*
X97593662Y-74361268D01*
X97764600Y-74234734D01*
X97764600Y-73269000D01*
X98018600Y-73269000D01*
X98018600Y-74234734D01*
X98189538Y-74361268D01*
X98563421Y-74177552D01*
X98851168Y-73853049D01*
X98992829Y-73443131D01*
X98844163Y-73269000D01*
X98018600Y-73269000D01*
X97764600Y-73269000D01*
X96939037Y-73269000D01*
X96790371Y-73443131D01*
X96365791Y-73443131D01*
X96358968Y-73429237D01*
X96018278Y-73141998D01*
X95593600Y-73007000D01*
X95318600Y-73007000D01*
X95064600Y-73007000D01*
X94789600Y-73007000D01*
X94364922Y-73141998D01*
X94024232Y-73429237D01*
X93822481Y-73840126D01*
X92075000Y-73840126D01*
X92075000Y-72840869D01*
X96790371Y-72840869D01*
X96939037Y-73015000D01*
X97764600Y-73015000D01*
X97764600Y-72049266D01*
X98018600Y-72049266D01*
X98018600Y-73015000D01*
X98844163Y-73015000D01*
X98992829Y-72840869D01*
X98965435Y-72761598D01*
X103358999Y-72761598D01*
X103359000Y-72761603D01*
X103359000Y-78892400D01*
X103437785Y-79288477D01*
X103662144Y-79624256D01*
X103997923Y-79848615D01*
X104394000Y-79927400D01*
X104790077Y-79848615D01*
X105125856Y-79624256D01*
X105350215Y-79288477D01*
X105429000Y-78892400D01*
X105429000Y-73190310D01*
X108088253Y-70531056D01*
X108312613Y-70195278D01*
X108391398Y-69799200D01*
X108312613Y-69403123D01*
X108088253Y-69067345D01*
X107752475Y-68842985D01*
X107356398Y-68764200D01*
X106960320Y-68842985D01*
X106624542Y-69067345D01*
X103662144Y-72029742D01*
X103437785Y-72365521D01*
X103358999Y-72761598D01*
X98965435Y-72761598D01*
X98851168Y-72430951D01*
X98563421Y-72106448D01*
X98189538Y-71922732D01*
X98018600Y-72049266D01*
X97764600Y-72049266D01*
X97593662Y-71922732D01*
X97219779Y-72106448D01*
X96932032Y-72430951D01*
X96790371Y-72840869D01*
X92075000Y-72840869D01*
X92075000Y-68443131D01*
X96790371Y-68443131D01*
X96932032Y-68853049D01*
X97219779Y-69177552D01*
X97593662Y-69361268D01*
X97764600Y-69234734D01*
X97764600Y-68269000D01*
X98018600Y-68269000D01*
X98018600Y-69234734D01*
X98189538Y-69361268D01*
X98563421Y-69177552D01*
X98851168Y-68853049D01*
X98992829Y-68443131D01*
X98844163Y-68269000D01*
X98018600Y-68269000D01*
X97764600Y-68269000D01*
X96939037Y-68269000D01*
X96790371Y-68443131D01*
X92075000Y-68443131D01*
X92075000Y-67443874D01*
X93822481Y-67443874D01*
X94024232Y-67854763D01*
X94364922Y-68142002D01*
X94789600Y-68277000D01*
X95064600Y-68277000D01*
X95064600Y-67269000D01*
X95318600Y-67269000D01*
X95318600Y-68277000D01*
X95593600Y-68277000D01*
X96018278Y-68142002D01*
X96358968Y-67854763D01*
X96365790Y-67840869D01*
X96790371Y-67840869D01*
X96939037Y-68015000D01*
X97764600Y-68015000D01*
X97764600Y-67049266D01*
X98018600Y-67049266D01*
X98018600Y-68015000D01*
X98844163Y-68015000D01*
X98992829Y-67840869D01*
X98851168Y-67430951D01*
X98563421Y-67106448D01*
X98189538Y-66922732D01*
X98018600Y-67049266D01*
X97764600Y-67049266D01*
X97593662Y-66922732D01*
X97219779Y-67106448D01*
X96932032Y-67430951D01*
X96790371Y-67840869D01*
X96365790Y-67840869D01*
X96560719Y-67443874D01*
X96434554Y-67269000D01*
X95318600Y-67269000D01*
X95064600Y-67269000D01*
X93948646Y-67269000D01*
X93822481Y-67443874D01*
X92075000Y-67443874D01*
X92075000Y-66840126D01*
X93822481Y-66840126D01*
X93948646Y-67015000D01*
X95064600Y-67015000D01*
X95064600Y-66007000D01*
X95318600Y-66007000D01*
X95318600Y-67015000D01*
X96434554Y-67015000D01*
X96560719Y-66840126D01*
X96358968Y-66429237D01*
X96018278Y-66141998D01*
X95593600Y-66007000D01*
X95318600Y-66007000D01*
X95064600Y-66007000D01*
X94789600Y-66007000D01*
X94364922Y-66141998D01*
X94024232Y-66429237D01*
X93822481Y-66840126D01*
X92075000Y-66840126D01*
X92075000Y-59137513D01*
X128308816Y-59137513D01*
X128502046Y-59689920D01*
X128891964Y-60126332D01*
X129419209Y-60380309D01*
X129434974Y-60382958D01*
X129667000Y-60261817D01*
X129667000Y-58902600D01*
X128453076Y-58902600D01*
X128308816Y-59137513D01*
X92075000Y-59137513D01*
X92075000Y-55992854D01*
X93333657Y-55992854D01*
X93809927Y-57145515D01*
X94691047Y-58028174D01*
X95842874Y-58506454D01*
X97090054Y-58507543D01*
X97317202Y-58413687D01*
X128308816Y-58413687D01*
X128453076Y-58648600D01*
X129667000Y-58648600D01*
X129667000Y-57289383D01*
X129921000Y-57289383D01*
X129921000Y-58648600D01*
X129941000Y-58648600D01*
X129941000Y-58902600D01*
X129921000Y-58902600D01*
X129921000Y-60261817D01*
X130153026Y-60382958D01*
X130168791Y-60380309D01*
X130696036Y-60126332D01*
X131067539Y-59710531D01*
X131274330Y-60020015D01*
X131760511Y-60344871D01*
X132334000Y-60458945D01*
X132907489Y-60344871D01*
X133393670Y-60020015D01*
X133604000Y-59705234D01*
X133814330Y-60020015D01*
X134300511Y-60344871D01*
X134874000Y-60458945D01*
X135447489Y-60344871D01*
X135933670Y-60020015D01*
X135943243Y-60005687D01*
X135947238Y-60026917D01*
X136086310Y-60243041D01*
X136298510Y-60388031D01*
X136550400Y-60439040D01*
X138277600Y-60439040D01*
X138512917Y-60394762D01*
X138729041Y-60255690D01*
X138874031Y-60043490D01*
X138925040Y-59791600D01*
X138925040Y-57759600D01*
X138880762Y-57524283D01*
X138741690Y-57308159D01*
X138529490Y-57163169D01*
X138277600Y-57112160D01*
X136550400Y-57112160D01*
X136315083Y-57156438D01*
X136098959Y-57295510D01*
X135953969Y-57507710D01*
X135945600Y-57549039D01*
X135933670Y-57531185D01*
X135447489Y-57206329D01*
X134874000Y-57092255D01*
X134300511Y-57206329D01*
X133814330Y-57531185D01*
X133604000Y-57845966D01*
X133393670Y-57531185D01*
X132907489Y-57206329D01*
X132334000Y-57092255D01*
X131760511Y-57206329D01*
X131274330Y-57531185D01*
X131067539Y-57840669D01*
X130696036Y-57424868D01*
X130168791Y-57170891D01*
X130153026Y-57168242D01*
X129921000Y-57289383D01*
X129667000Y-57289383D01*
X129434974Y-57168242D01*
X129419209Y-57170891D01*
X128891964Y-57424868D01*
X128502046Y-57861280D01*
X128308816Y-58413687D01*
X97317202Y-58413687D01*
X98242715Y-58031273D01*
X99125374Y-57150153D01*
X99603654Y-55998326D01*
X99604743Y-54751146D01*
X99128473Y-53598485D01*
X98247353Y-52715826D01*
X97095526Y-52237546D01*
X95848346Y-52236457D01*
X94695685Y-52712727D01*
X93813026Y-53593847D01*
X93334746Y-54745674D01*
X93333657Y-55992854D01*
X92075000Y-55992854D01*
X92075000Y-52196919D01*
X171526200Y-52146346D01*
X171526200Y-109905800D01*
X171526200Y-109905800D01*
G37*
X171526200Y-109905800D02*
X97778041Y-109905800D01*
X98515774Y-109169353D01*
X98994054Y-108017526D01*
X98995143Y-106770346D01*
X98518873Y-105617685D01*
X97637753Y-104735026D01*
X96485926Y-104256746D01*
X95238746Y-104255657D01*
X94086085Y-104731927D01*
X93203426Y-105613047D01*
X92725146Y-106764874D01*
X92724057Y-108012054D01*
X93200327Y-109164715D01*
X93940120Y-109905800D01*
X92075000Y-109905800D01*
X92075000Y-94339026D01*
X95268242Y-94339026D01*
X95270891Y-94354791D01*
X95524868Y-94882036D01*
X95961280Y-95271954D01*
X96513687Y-95465184D01*
X96748600Y-95320924D01*
X96748600Y-94107000D01*
X97002600Y-94107000D01*
X97002600Y-95320924D01*
X97237513Y-95465184D01*
X97789920Y-95271954D01*
X98226332Y-94882036D01*
X98480309Y-94354791D01*
X98482958Y-94339026D01*
X98361817Y-94107000D01*
X97002600Y-94107000D01*
X96748600Y-94107000D01*
X95389383Y-94107000D01*
X95268242Y-94339026D01*
X92075000Y-94339026D01*
X92075000Y-88900000D01*
X95192255Y-88900000D01*
X95306329Y-89473489D01*
X95631185Y-89959670D01*
X95945966Y-90170000D01*
X95631185Y-90380330D01*
X95306329Y-90866511D01*
X95192255Y-91440000D01*
X95306329Y-92013489D01*
X95631185Y-92499670D01*
X95940669Y-92706461D01*
X95524868Y-93077964D01*
X95270891Y-93605209D01*
X95268242Y-93620974D01*
X95389383Y-93853000D01*
X96748600Y-93853000D01*
X96748600Y-93833000D01*
X97002600Y-93833000D01*
X97002600Y-93853000D01*
X98361817Y-93853000D01*
X98482958Y-93620974D01*
X98480309Y-93605209D01*
X98226332Y-93077964D01*
X97810531Y-92706461D01*
X98120015Y-92499670D01*
X98320248Y-92200000D01*
X116382800Y-92200000D01*
X116673639Y-92142148D01*
X116920201Y-91977401D01*
X118097280Y-90800322D01*
X118132045Y-90800353D01*
X108508379Y-100424019D01*
X108000800Y-100323055D01*
X107427311Y-100437129D01*
X106941130Y-100761985D01*
X106931557Y-100776313D01*
X106927562Y-100755083D01*
X106788490Y-100538959D01*
X106576290Y-100393969D01*
X106324400Y-100342960D01*
X104597200Y-100342960D01*
X104361883Y-100387238D01*
X104145759Y-100526310D01*
X104000769Y-100738510D01*
X103949760Y-100990400D01*
X103949760Y-103022400D01*
X103994038Y-103257717D01*
X104133110Y-103473841D01*
X104345310Y-103618831D01*
X104597200Y-103669840D01*
X106324400Y-103669840D01*
X106559717Y-103625562D01*
X106775841Y-103486490D01*
X106920831Y-103274290D01*
X106929200Y-103232961D01*
X106941130Y-103250815D01*
X107427311Y-103575671D01*
X108000800Y-103689745D01*
X108574289Y-103575671D01*
X109060470Y-103250815D01*
X109270800Y-102936034D01*
X109481130Y-103250815D01*
X109967311Y-103575671D01*
X110540800Y-103689745D01*
X111114289Y-103575671D01*
X111600470Y-103250815D01*
X111807261Y-102941331D01*
X112178764Y-103357132D01*
X112706009Y-103611109D01*
X112721774Y-103613758D01*
X112953800Y-103492617D01*
X112953800Y-102133400D01*
X113207800Y-102133400D01*
X113207800Y-103492617D01*
X113439826Y-103613758D01*
X113455591Y-103611109D01*
X113982836Y-103357132D01*
X114372754Y-102920720D01*
X114565984Y-102368313D01*
X114421724Y-102133400D01*
X113207800Y-102133400D01*
X112953800Y-102133400D01*
X112933800Y-102133400D01*
X112933800Y-101879400D01*
X112953800Y-101879400D01*
X112953800Y-101859400D01*
X113207800Y-101859400D01*
X113207800Y-101879400D01*
X114421724Y-101879400D01*
X114565984Y-101644487D01*
X114372754Y-101092080D01*
X113982836Y-100655668D01*
X113455591Y-100401691D01*
X113439826Y-100399042D01*
X113207802Y-100520182D01*
X113207802Y-100414200D01*
X120144000Y-93478002D01*
X120144000Y-96459198D01*
X117767120Y-98836078D01*
X117721633Y-98836038D01*
X117377857Y-98978083D01*
X117114608Y-99240873D01*
X116971962Y-99584401D01*
X116971638Y-99956367D01*
X117113683Y-100300143D01*
X117376473Y-100563392D01*
X117720001Y-100706038D01*
X118091967Y-100706362D01*
X118435743Y-100564317D01*
X118698992Y-100301527D01*
X118841638Y-99957999D01*
X118841679Y-99911123D01*
X120956800Y-97796002D01*
X120956800Y-98745198D01*
X120713520Y-98988478D01*
X120668033Y-98988438D01*
X120324257Y-99130483D01*
X120061008Y-99393273D01*
X119918362Y-99736801D01*
X119918038Y-100108767D01*
X120060083Y-100452543D01*
X120322873Y-100715792D01*
X120666401Y-100858438D01*
X121038367Y-100858762D01*
X121382143Y-100716717D01*
X121645392Y-100453927D01*
X121788038Y-100110399D01*
X121788079Y-100063523D01*
X122254201Y-99597401D01*
X122418948Y-99350839D01*
X122476800Y-99060000D01*
X122476800Y-97028000D01*
X125304599Y-97028000D01*
X125383385Y-97424077D01*
X125558600Y-97686306D01*
X125558600Y-103581195D01*
X125558599Y-103581200D01*
X125637385Y-103977277D01*
X125861744Y-104313056D01*
X130128942Y-108580253D01*
X130128944Y-108580256D01*
X130432730Y-108783238D01*
X130464723Y-108804615D01*
X130860800Y-108883401D01*
X130860805Y-108883400D01*
X145897600Y-108883400D01*
X146293677Y-108804615D01*
X146629456Y-108580256D01*
X146853815Y-108244477D01*
X146932600Y-107848400D01*
X146895443Y-107661601D01*
X146853815Y-107452322D01*
X146763949Y-107317829D01*
X146629456Y-107116544D01*
X146629453Y-107116542D01*
X146577000Y-107064089D01*
X146577000Y-99546250D01*
X146650615Y-99436078D01*
X146729400Y-99040000D01*
X146729400Y-98755200D01*
X146650615Y-98359123D01*
X146426256Y-98023344D01*
X146090477Y-97798985D01*
X145694400Y-97720200D01*
X145298323Y-97798985D01*
X145146413Y-97900488D01*
X145145923Y-97900585D01*
X144810144Y-98124944D01*
X144585785Y-98460723D01*
X144507000Y-98856800D01*
X144507000Y-106813400D01*
X131289511Y-106813400D01*
X127628600Y-103152488D01*
X127628600Y-97282005D01*
X127628601Y-97282000D01*
X127549815Y-96885922D01*
X127459949Y-96751429D01*
X127325456Y-96550144D01*
X127325453Y-96550142D01*
X127071456Y-96296144D01*
X126735677Y-96071785D01*
X126339600Y-95992999D01*
X125943523Y-96071785D01*
X125607744Y-96296144D01*
X125383385Y-96631923D01*
X125304599Y-97028000D01*
X122476800Y-97028000D01*
X122476800Y-87379426D01*
X138499042Y-87379426D01*
X138501691Y-87395191D01*
X138755668Y-87922436D01*
X139192080Y-88312354D01*
X139744487Y-88505584D01*
X139979400Y-88361324D01*
X139979400Y-87147400D01*
X140233400Y-87147400D01*
X140233400Y-88361324D01*
X140468313Y-88505584D01*
X141020720Y-88312354D01*
X141457132Y-87922436D01*
X141711109Y-87395191D01*
X141713758Y-87379426D01*
X141592617Y-87147400D01*
X140233400Y-87147400D01*
X139979400Y-87147400D01*
X138620183Y-87147400D01*
X138499042Y-87379426D01*
X122476800Y-87379426D01*
X122476800Y-86106000D01*
X122418948Y-85815161D01*
X122418948Y-85815160D01*
X122254201Y-85568599D01*
X121926002Y-85240400D01*
X138661752Y-85240400D01*
X138861985Y-85540070D01*
X139171469Y-85746861D01*
X138755668Y-86118364D01*
X138501691Y-86645609D01*
X138499042Y-86661374D01*
X138620183Y-86893400D01*
X139979400Y-86893400D01*
X139979400Y-86873400D01*
X140233400Y-86873400D01*
X140233400Y-86893400D01*
X141592617Y-86893400D01*
X141713758Y-86661374D01*
X141711109Y-86645609D01*
X141457132Y-86118364D01*
X141041331Y-85746861D01*
X141350815Y-85540070D01*
X141675671Y-85053889D01*
X141789745Y-84480400D01*
X141675671Y-83906911D01*
X141350815Y-83420730D01*
X141036034Y-83210400D01*
X141350815Y-83000070D01*
X141675671Y-82513889D01*
X141789745Y-81940400D01*
X141675671Y-81366911D01*
X141350815Y-80880730D01*
X141036034Y-80670400D01*
X141350815Y-80460070D01*
X141675671Y-79973889D01*
X141789745Y-79400400D01*
X141675671Y-78826911D01*
X141350815Y-78340730D01*
X141036034Y-78130400D01*
X141350815Y-77920070D01*
X141675671Y-77433889D01*
X141789745Y-76860400D01*
X141675671Y-76286911D01*
X141350815Y-75800730D01*
X141336487Y-75791157D01*
X141357717Y-75787162D01*
X141573841Y-75648090D01*
X141718831Y-75435890D01*
X141769840Y-75184000D01*
X141769840Y-73456800D01*
X141725562Y-73221483D01*
X141586490Y-73005359D01*
X141374290Y-72860369D01*
X141122400Y-72809360D01*
X139090400Y-72809360D01*
X138855083Y-72853638D01*
X138638959Y-72992710D01*
X138493969Y-73204910D01*
X138442960Y-73456800D01*
X138442960Y-75184000D01*
X138487238Y-75419317D01*
X138626310Y-75635441D01*
X138838510Y-75780431D01*
X138879839Y-75788800D01*
X138861985Y-75800730D01*
X138537129Y-76286911D01*
X138423055Y-76860400D01*
X138524019Y-77367979D01*
X134914798Y-80977200D01*
X123295263Y-80977200D01*
X123263127Y-80945008D01*
X122919599Y-80802362D01*
X122547633Y-80802038D01*
X122203857Y-80944083D01*
X121940608Y-81206873D01*
X121797962Y-81550401D01*
X121797915Y-81604854D01*
X121700399Y-81564362D01*
X121328433Y-81564038D01*
X120984657Y-81706083D01*
X120721408Y-81968873D01*
X120578762Y-82312401D01*
X120578438Y-82684367D01*
X120720483Y-83028143D01*
X120881748Y-83189690D01*
X120781962Y-83430001D01*
X120781918Y-83480542D01*
X120527457Y-83585683D01*
X120399259Y-83713657D01*
X116888800Y-80203198D01*
X116888800Y-79816802D01*
X118323344Y-78382258D01*
X118332883Y-78405343D01*
X118595673Y-78668592D01*
X118939201Y-78811238D01*
X119311167Y-78811562D01*
X119654943Y-78669517D01*
X119688118Y-78636400D01*
X120040400Y-78636400D01*
X120331239Y-78578548D01*
X120577801Y-78413801D01*
X122821680Y-76169922D01*
X122867167Y-76169962D01*
X123210943Y-76027917D01*
X123474192Y-75765127D01*
X123616838Y-75421599D01*
X123617162Y-75049633D01*
X123475117Y-74705857D01*
X123212327Y-74442608D01*
X122868799Y-74299962D01*
X122496833Y-74299638D01*
X122341980Y-74363622D01*
X125099001Y-71606601D01*
X125263748Y-71360039D01*
X125321600Y-71069200D01*
X125321600Y-71021886D01*
X125455392Y-70888327D01*
X125598038Y-70544799D01*
X125598362Y-70172833D01*
X125590085Y-70152800D01*
X129940398Y-70152800D01*
X123405920Y-76687278D01*
X123360433Y-76687238D01*
X123016657Y-76829283D01*
X122753408Y-77092073D01*
X122610762Y-77435601D01*
X122610438Y-77807567D01*
X122752483Y-78151343D01*
X123015273Y-78414592D01*
X123358801Y-78557238D01*
X123730767Y-78557562D01*
X124074543Y-78415517D01*
X124337792Y-78152727D01*
X124480438Y-77809199D01*
X124480479Y-77762323D01*
X130937635Y-71305167D01*
X135056438Y-71305167D01*
X135198483Y-71648943D01*
X135461273Y-71912192D01*
X135804801Y-72054838D01*
X136091788Y-72055088D01*
X136112883Y-72106143D01*
X136375673Y-72369392D01*
X136719201Y-72512038D01*
X137091167Y-72512362D01*
X137434943Y-72370317D01*
X137468118Y-72337200D01*
X152241598Y-72337200D01*
X145696133Y-78882665D01*
X145299000Y-79046757D01*
X144894976Y-79450077D01*
X144676050Y-79977309D01*
X144675552Y-80548187D01*
X144893557Y-81075800D01*
X145296877Y-81479824D01*
X145427015Y-81533862D01*
X145299000Y-81586757D01*
X144894976Y-81990077D01*
X144676050Y-82517309D01*
X144675552Y-83088187D01*
X144893557Y-83615800D01*
X145296877Y-84019824D01*
X145427015Y-84073862D01*
X145299000Y-84126757D01*
X144894976Y-84530077D01*
X144872585Y-84584000D01*
X144830800Y-84584000D01*
X144539961Y-84641852D01*
X144293399Y-84806599D01*
X142515399Y-86584599D01*
X142350652Y-86831161D01*
X142292800Y-87122000D01*
X142292800Y-93116400D01*
X142350652Y-93407239D01*
X142515399Y-93653801D01*
X144547399Y-95685801D01*
X144793961Y-95850548D01*
X145084800Y-95908400D01*
X167995600Y-95908400D01*
X168286439Y-95850548D01*
X168533001Y-95685801D01*
X170412601Y-93806201D01*
X170577348Y-93559639D01*
X170635200Y-93268800D01*
X170635200Y-56794400D01*
X170577348Y-56503561D01*
X170412601Y-56256999D01*
X170166039Y-56092252D01*
X169875200Y-56034400D01*
X151993600Y-56034400D01*
X151702761Y-56092252D01*
X151456199Y-56256999D01*
X148043920Y-59669278D01*
X147998433Y-59669238D01*
X147654657Y-59811283D01*
X147391408Y-60074073D01*
X147248762Y-60417601D01*
X147248438Y-60789567D01*
X147390483Y-61133343D01*
X147653273Y-61396592D01*
X147996801Y-61539238D01*
X148368767Y-61539562D01*
X148712543Y-61397517D01*
X148975792Y-61134727D01*
X149118438Y-60791199D01*
X149118479Y-60744323D01*
X150070974Y-59791828D01*
X150184483Y-60066543D01*
X150447273Y-60329792D01*
X150790801Y-60472438D01*
X151162767Y-60472762D01*
X151506543Y-60330717D01*
X151769792Y-60067927D01*
X151912438Y-59724399D01*
X151912479Y-59677523D01*
X153222802Y-58367200D01*
X166156798Y-58367200D01*
X167794400Y-60004802D01*
X167794400Y-62007534D01*
X167772717Y-61955057D01*
X167509927Y-61691808D01*
X167166399Y-61549162D01*
X167119523Y-61549121D01*
X165129401Y-59558999D01*
X164882839Y-59394252D01*
X164592000Y-59336400D01*
X155400863Y-59336400D01*
X155368727Y-59304208D01*
X155025199Y-59161562D01*
X154653233Y-59161238D01*
X154309457Y-59303283D01*
X154046208Y-59566073D01*
X153903562Y-59909601D01*
X153903238Y-60281567D01*
X154045283Y-60625343D01*
X154308073Y-60888592D01*
X154651601Y-61031238D01*
X155023567Y-61031562D01*
X155367343Y-60889517D01*
X155400518Y-60856400D01*
X164277198Y-60856400D01*
X166044478Y-62623680D01*
X166044438Y-62669167D01*
X166186483Y-63012943D01*
X166449273Y-63276192D01*
X166792801Y-63418838D01*
X167164767Y-63419162D01*
X167508543Y-63277117D01*
X167771792Y-63014327D01*
X167794400Y-62959881D01*
X167794400Y-91531598D01*
X166309198Y-93016800D01*
X146009202Y-93016800D01*
X145133600Y-92141198D01*
X145133600Y-89936002D01*
X145772346Y-89297256D01*
X145824109Y-89318750D01*
X146394987Y-89319248D01*
X146922600Y-89101243D01*
X147326624Y-88697923D01*
X147545550Y-88170691D01*
X147546048Y-87599813D01*
X147328043Y-87072200D01*
X146924723Y-86668176D01*
X146794585Y-86614138D01*
X146922600Y-86561243D01*
X147326624Y-86157923D01*
X147545550Y-85630691D01*
X147546048Y-85059813D01*
X147328043Y-84532200D01*
X146924723Y-84128176D01*
X146794585Y-84074138D01*
X146922600Y-84021243D01*
X147326624Y-83617923D01*
X147545550Y-83090691D01*
X147546048Y-82519813D01*
X147523751Y-82465851D01*
X149441415Y-80548187D01*
X152275552Y-80548187D01*
X152493557Y-81075800D01*
X152896877Y-81479824D01*
X153027015Y-81533862D01*
X152899000Y-81586757D01*
X152494976Y-81990077D01*
X152276050Y-82517309D01*
X152275552Y-83088187D01*
X152493557Y-83615800D01*
X152896877Y-84019824D01*
X153027015Y-84073862D01*
X152899000Y-84126757D01*
X152494976Y-84530077D01*
X152276050Y-85057309D01*
X152275552Y-85628187D01*
X152493557Y-86155800D01*
X152896877Y-86559824D01*
X153027015Y-86613862D01*
X152899000Y-86666757D01*
X152494976Y-87070077D01*
X152276050Y-87597309D01*
X152275552Y-88168187D01*
X152493557Y-88695800D01*
X152896877Y-89099824D01*
X153424109Y-89318750D01*
X153994987Y-89319248D01*
X154522600Y-89101243D01*
X154926624Y-88697923D01*
X155145550Y-88170691D01*
X155146048Y-87599813D01*
X154928043Y-87072200D01*
X154524723Y-86668176D01*
X154394585Y-86614138D01*
X154522600Y-86561243D01*
X154926624Y-86157923D01*
X155145550Y-85630691D01*
X155146048Y-85059813D01*
X154928043Y-84532200D01*
X154524723Y-84128176D01*
X154394585Y-84074138D01*
X154522600Y-84021243D01*
X154916475Y-83628054D01*
X161405657Y-83628054D01*
X161881927Y-84780715D01*
X162763047Y-85663374D01*
X163914874Y-86141654D01*
X165162054Y-86142743D01*
X166314715Y-85666473D01*
X167197374Y-84785353D01*
X167675654Y-83633526D01*
X167676743Y-82386346D01*
X167200473Y-81233685D01*
X166319353Y-80351026D01*
X165167526Y-79872746D01*
X163920346Y-79871657D01*
X162767685Y-80347927D01*
X161885026Y-81229047D01*
X161406746Y-82380874D01*
X161405657Y-83628054D01*
X154916475Y-83628054D01*
X154926624Y-83617923D01*
X155145550Y-83090691D01*
X155146048Y-82519813D01*
X154928043Y-81992200D01*
X154524723Y-81588176D01*
X154394585Y-81534138D01*
X154522600Y-81481243D01*
X154926624Y-81077923D01*
X155145550Y-80550691D01*
X155146048Y-79979813D01*
X154928043Y-79452200D01*
X154524723Y-79048176D01*
X153997491Y-78829250D01*
X153426613Y-78828752D01*
X152899000Y-79046757D01*
X152494976Y-79450077D01*
X152276050Y-79977309D01*
X152275552Y-80548187D01*
X149441415Y-80548187D01*
X157255401Y-72734201D01*
X157420148Y-72487639D01*
X157478000Y-72196800D01*
X157478000Y-66958063D01*
X157510192Y-66925927D01*
X157652838Y-66582399D01*
X157653162Y-66210433D01*
X157511117Y-65866657D01*
X157248327Y-65603408D01*
X156904799Y-65460762D01*
X156766800Y-65460642D01*
X156766800Y-63916402D01*
X157822880Y-62860322D01*
X157868367Y-62860362D01*
X158212143Y-62718317D01*
X158475392Y-62455527D01*
X158618038Y-62111999D01*
X158618362Y-61740033D01*
X158476317Y-61396257D01*
X158213527Y-61133008D01*
X157869999Y-60990362D01*
X157498033Y-60990038D01*
X157154257Y-61132083D01*
X156891008Y-61394873D01*
X156748362Y-61738401D01*
X156748321Y-61785277D01*
X155469399Y-63064199D01*
X155304652Y-63310761D01*
X155246800Y-63601600D01*
X155246800Y-69331998D01*
X154828256Y-69750542D01*
X154818717Y-69727457D01*
X154555927Y-69464208D01*
X154357245Y-69381708D01*
X154401638Y-69274799D01*
X154401962Y-68902833D01*
X154259917Y-68559057D01*
X153997127Y-68295808D01*
X153653599Y-68153162D01*
X153281633Y-68152838D01*
X152937857Y-68294883D01*
X152674608Y-68557673D01*
X152531962Y-68901201D01*
X152531921Y-68948077D01*
X151627998Y-69852000D01*
X136499600Y-69852000D01*
X136208761Y-69909852D01*
X136097241Y-69984367D01*
X135962199Y-70074599D01*
X135851920Y-70184878D01*
X135806433Y-70184838D01*
X135462657Y-70326883D01*
X135199408Y-70589673D01*
X135056762Y-70933201D01*
X135056438Y-71305167D01*
X130937635Y-71305167D01*
X132312601Y-69930201D01*
X132477348Y-69683639D01*
X132535200Y-69392800D01*
X132535200Y-67970400D01*
X132477348Y-67679561D01*
X132477348Y-67679560D01*
X132312601Y-67432999D01*
X129772601Y-64892999D01*
X129526039Y-64728252D01*
X129235200Y-64670400D01*
X122126863Y-64670400D01*
X122094727Y-64638208D01*
X121751199Y-64495562D01*
X121379233Y-64495238D01*
X121035457Y-64637283D01*
X120772208Y-64900073D01*
X120629562Y-65243601D01*
X120629238Y-65615567D01*
X120771283Y-65959343D01*
X121034073Y-66222592D01*
X121377601Y-66365238D01*
X121749567Y-66365562D01*
X122093343Y-66223517D01*
X122126518Y-66190400D01*
X128920398Y-66190400D01*
X131015200Y-68285202D01*
X131015200Y-68592167D01*
X130691999Y-68457962D01*
X130320033Y-68457638D01*
X129976257Y-68599683D01*
X129943082Y-68632800D01*
X119583200Y-68632800D01*
X119292361Y-68690652D01*
X119045799Y-68855399D01*
X117208320Y-70692878D01*
X117162833Y-70692838D01*
X116819057Y-70834883D01*
X116555808Y-71097673D01*
X116413162Y-71441201D01*
X116412838Y-71813167D01*
X116554883Y-72156943D01*
X116817673Y-72420192D01*
X117161201Y-72562838D01*
X117533167Y-72563162D01*
X117876943Y-72421117D01*
X118140192Y-72158327D01*
X118282838Y-71814799D01*
X118282879Y-71767923D01*
X119898002Y-70152800D01*
X122835089Y-70152800D01*
X122601008Y-70386473D01*
X122458362Y-70730001D01*
X122458321Y-70776877D01*
X114321399Y-78913799D01*
X114156652Y-79160361D01*
X114098800Y-79451200D01*
X114098800Y-80885089D01*
X109391400Y-76177688D01*
X109391400Y-74939035D01*
X109541201Y-75001238D01*
X109588077Y-75001279D01*
X111527399Y-76940601D01*
X111773960Y-77105348D01*
X112064800Y-77163200D01*
X112315137Y-77163200D01*
X112347273Y-77195392D01*
X112690801Y-77338038D01*
X113062767Y-77338362D01*
X113406543Y-77196317D01*
X113669792Y-76933527D01*
X113812438Y-76589999D01*
X113812762Y-76218033D01*
X113670717Y-75874257D01*
X113407927Y-75611008D01*
X113064399Y-75468362D01*
X112692433Y-75468038D01*
X112348657Y-75610083D01*
X112347570Y-75611168D01*
X110663122Y-73926720D01*
X110663162Y-73881233D01*
X110521117Y-73537457D01*
X110258327Y-73274208D01*
X109914799Y-73131562D01*
X109542833Y-73131238D01*
X109391400Y-73193809D01*
X109391400Y-71831200D01*
X109312615Y-71435123D01*
X109088256Y-71099344D01*
X108752477Y-70874985D01*
X108356400Y-70796200D01*
X107960323Y-70874985D01*
X107624544Y-71099344D01*
X107400185Y-71435123D01*
X107321400Y-71831200D01*
X107321400Y-76606395D01*
X107321399Y-76606400D01*
X107400185Y-77002477D01*
X107624544Y-77338256D01*
X115041344Y-84755055D01*
X115377123Y-84979415D01*
X115773200Y-85058201D01*
X116169277Y-84979415D01*
X116505055Y-84755055D01*
X116729415Y-84419277D01*
X116808201Y-84023200D01*
X116789678Y-83930080D01*
X119534542Y-86674944D01*
X119511457Y-86684483D01*
X119507223Y-86688710D01*
X119503927Y-86685408D01*
X119160399Y-86542762D01*
X118788433Y-86542438D01*
X118444657Y-86684483D01*
X118181408Y-86947273D01*
X118038762Y-87290801D01*
X118038438Y-87662767D01*
X118163355Y-87965090D01*
X117874033Y-87964838D01*
X117530257Y-88106883D01*
X117497082Y-88140000D01*
X98320248Y-88140000D01*
X98120015Y-87840330D01*
X98105687Y-87830757D01*
X98126917Y-87826762D01*
X98343041Y-87687690D01*
X98488031Y-87475490D01*
X98539040Y-87223600D01*
X98539040Y-85496400D01*
X98494762Y-85261083D01*
X98355690Y-85044959D01*
X98143490Y-84899969D01*
X97891600Y-84848960D01*
X95859600Y-84848960D01*
X95624283Y-84893238D01*
X95408159Y-85032310D01*
X95263169Y-85244510D01*
X95212160Y-85496400D01*
X95212160Y-87223600D01*
X95256438Y-87458917D01*
X95395510Y-87675041D01*
X95607710Y-87820031D01*
X95649039Y-87828400D01*
X95631185Y-87840330D01*
X95306329Y-88326511D01*
X95192255Y-88900000D01*
X92075000Y-88900000D01*
X92075000Y-74443874D01*
X93822481Y-74443874D01*
X94024232Y-74854763D01*
X94364922Y-75142002D01*
X94789600Y-75277000D01*
X95064600Y-75277000D01*
X95064600Y-74269000D01*
X95318600Y-74269000D01*
X95318600Y-75277000D01*
X95593600Y-75277000D01*
X96018278Y-75142002D01*
X96358968Y-74854763D01*
X96560719Y-74443874D01*
X96434554Y-74269000D01*
X95318600Y-74269000D01*
X95064600Y-74269000D01*
X93948646Y-74269000D01*
X93822481Y-74443874D01*
X92075000Y-74443874D01*
X92075000Y-73840126D01*
X93822481Y-73840126D01*
X93948646Y-74015000D01*
X95064600Y-74015000D01*
X95064600Y-73007000D01*
X95318600Y-73007000D01*
X95318600Y-74015000D01*
X96434554Y-74015000D01*
X96560719Y-73840126D01*
X96365791Y-73443131D01*
X96790371Y-73443131D01*
X96932032Y-73853049D01*
X97219779Y-74177552D01*
X97593662Y-74361268D01*
X97764600Y-74234734D01*
X97764600Y-73269000D01*
X98018600Y-73269000D01*
X98018600Y-74234734D01*
X98189538Y-74361268D01*
X98563421Y-74177552D01*
X98851168Y-73853049D01*
X98992829Y-73443131D01*
X98844163Y-73269000D01*
X98018600Y-73269000D01*
X97764600Y-73269000D01*
X96939037Y-73269000D01*
X96790371Y-73443131D01*
X96365791Y-73443131D01*
X96358968Y-73429237D01*
X96018278Y-73141998D01*
X95593600Y-73007000D01*
X95318600Y-73007000D01*
X95064600Y-73007000D01*
X94789600Y-73007000D01*
X94364922Y-73141998D01*
X94024232Y-73429237D01*
X93822481Y-73840126D01*
X92075000Y-73840126D01*
X92075000Y-72840869D01*
X96790371Y-72840869D01*
X96939037Y-73015000D01*
X97764600Y-73015000D01*
X97764600Y-72049266D01*
X98018600Y-72049266D01*
X98018600Y-73015000D01*
X98844163Y-73015000D01*
X98992829Y-72840869D01*
X98965435Y-72761598D01*
X103358999Y-72761598D01*
X103359000Y-72761603D01*
X103359000Y-78892400D01*
X103437785Y-79288477D01*
X103662144Y-79624256D01*
X103997923Y-79848615D01*
X104394000Y-79927400D01*
X104790077Y-79848615D01*
X105125856Y-79624256D01*
X105350215Y-79288477D01*
X105429000Y-78892400D01*
X105429000Y-73190310D01*
X108088253Y-70531056D01*
X108312613Y-70195278D01*
X108391398Y-69799200D01*
X108312613Y-69403123D01*
X108088253Y-69067345D01*
X107752475Y-68842985D01*
X107356398Y-68764200D01*
X106960320Y-68842985D01*
X106624542Y-69067345D01*
X103662144Y-72029742D01*
X103437785Y-72365521D01*
X103358999Y-72761598D01*
X98965435Y-72761598D01*
X98851168Y-72430951D01*
X98563421Y-72106448D01*
X98189538Y-71922732D01*
X98018600Y-72049266D01*
X97764600Y-72049266D01*
X97593662Y-71922732D01*
X97219779Y-72106448D01*
X96932032Y-72430951D01*
X96790371Y-72840869D01*
X92075000Y-72840869D01*
X92075000Y-68443131D01*
X96790371Y-68443131D01*
X96932032Y-68853049D01*
X97219779Y-69177552D01*
X97593662Y-69361268D01*
X97764600Y-69234734D01*
X97764600Y-68269000D01*
X98018600Y-68269000D01*
X98018600Y-69234734D01*
X98189538Y-69361268D01*
X98563421Y-69177552D01*
X98851168Y-68853049D01*
X98992829Y-68443131D01*
X98844163Y-68269000D01*
X98018600Y-68269000D01*
X97764600Y-68269000D01*
X96939037Y-68269000D01*
X96790371Y-68443131D01*
X92075000Y-68443131D01*
X92075000Y-67443874D01*
X93822481Y-67443874D01*
X94024232Y-67854763D01*
X94364922Y-68142002D01*
X94789600Y-68277000D01*
X95064600Y-68277000D01*
X95064600Y-67269000D01*
X95318600Y-67269000D01*
X95318600Y-68277000D01*
X95593600Y-68277000D01*
X96018278Y-68142002D01*
X96358968Y-67854763D01*
X96365790Y-67840869D01*
X96790371Y-67840869D01*
X96939037Y-68015000D01*
X97764600Y-68015000D01*
X97764600Y-67049266D01*
X98018600Y-67049266D01*
X98018600Y-68015000D01*
X98844163Y-68015000D01*
X98992829Y-67840869D01*
X98851168Y-67430951D01*
X98563421Y-67106448D01*
X98189538Y-66922732D01*
X98018600Y-67049266D01*
X97764600Y-67049266D01*
X97593662Y-66922732D01*
X97219779Y-67106448D01*
X96932032Y-67430951D01*
X96790371Y-67840869D01*
X96365790Y-67840869D01*
X96560719Y-67443874D01*
X96434554Y-67269000D01*
X95318600Y-67269000D01*
X95064600Y-67269000D01*
X93948646Y-67269000D01*
X93822481Y-67443874D01*
X92075000Y-67443874D01*
X92075000Y-66840126D01*
X93822481Y-66840126D01*
X93948646Y-67015000D01*
X95064600Y-67015000D01*
X95064600Y-66007000D01*
X95318600Y-66007000D01*
X95318600Y-67015000D01*
X96434554Y-67015000D01*
X96560719Y-66840126D01*
X96358968Y-66429237D01*
X96018278Y-66141998D01*
X95593600Y-66007000D01*
X95318600Y-66007000D01*
X95064600Y-66007000D01*
X94789600Y-66007000D01*
X94364922Y-66141998D01*
X94024232Y-66429237D01*
X93822481Y-66840126D01*
X92075000Y-66840126D01*
X92075000Y-59137513D01*
X128308816Y-59137513D01*
X128502046Y-59689920D01*
X128891964Y-60126332D01*
X129419209Y-60380309D01*
X129434974Y-60382958D01*
X129667000Y-60261817D01*
X129667000Y-58902600D01*
X128453076Y-58902600D01*
X128308816Y-59137513D01*
X92075000Y-59137513D01*
X92075000Y-55992854D01*
X93333657Y-55992854D01*
X93809927Y-57145515D01*
X94691047Y-58028174D01*
X95842874Y-58506454D01*
X97090054Y-58507543D01*
X97317202Y-58413687D01*
X128308816Y-58413687D01*
X128453076Y-58648600D01*
X129667000Y-58648600D01*
X129667000Y-57289383D01*
X129921000Y-57289383D01*
X129921000Y-58648600D01*
X129941000Y-58648600D01*
X129941000Y-58902600D01*
X129921000Y-58902600D01*
X129921000Y-60261817D01*
X130153026Y-60382958D01*
X130168791Y-60380309D01*
X130696036Y-60126332D01*
X131067539Y-59710531D01*
X131274330Y-60020015D01*
X131760511Y-60344871D01*
X132334000Y-60458945D01*
X132907489Y-60344871D01*
X133393670Y-60020015D01*
X133604000Y-59705234D01*
X133814330Y-60020015D01*
X134300511Y-60344871D01*
X134874000Y-60458945D01*
X135447489Y-60344871D01*
X135933670Y-60020015D01*
X135943243Y-60005687D01*
X135947238Y-60026917D01*
X136086310Y-60243041D01*
X136298510Y-60388031D01*
X136550400Y-60439040D01*
X138277600Y-60439040D01*
X138512917Y-60394762D01*
X138729041Y-60255690D01*
X138874031Y-60043490D01*
X138925040Y-59791600D01*
X138925040Y-57759600D01*
X138880762Y-57524283D01*
X138741690Y-57308159D01*
X138529490Y-57163169D01*
X138277600Y-57112160D01*
X136550400Y-57112160D01*
X136315083Y-57156438D01*
X136098959Y-57295510D01*
X135953969Y-57507710D01*
X135945600Y-57549039D01*
X135933670Y-57531185D01*
X135447489Y-57206329D01*
X134874000Y-57092255D01*
X134300511Y-57206329D01*
X133814330Y-57531185D01*
X133604000Y-57845966D01*
X133393670Y-57531185D01*
X132907489Y-57206329D01*
X132334000Y-57092255D01*
X131760511Y-57206329D01*
X131274330Y-57531185D01*
X131067539Y-57840669D01*
X130696036Y-57424868D01*
X130168791Y-57170891D01*
X130153026Y-57168242D01*
X129921000Y-57289383D01*
X129667000Y-57289383D01*
X129434974Y-57168242D01*
X129419209Y-57170891D01*
X128891964Y-57424868D01*
X128502046Y-57861280D01*
X128308816Y-58413687D01*
X97317202Y-58413687D01*
X98242715Y-58031273D01*
X99125374Y-57150153D01*
X99603654Y-55998326D01*
X99604743Y-54751146D01*
X99128473Y-53598485D01*
X98247353Y-52715826D01*
X97095526Y-52237546D01*
X95848346Y-52236457D01*
X94695685Y-52712727D01*
X93813026Y-53593847D01*
X93334746Y-54745674D01*
X93333657Y-55992854D01*
X92075000Y-55992854D01*
X92075000Y-52196919D01*
X171526200Y-52146346D01*
X171526200Y-109905800D01*
M02*
