<?xml version="1.0" standalone="no"?>
 <!DOCTYPE svg PUBLIC "-//W3C//DTD SVG 1.1//EN" 
 "http://www.w3.org/Graphics/SVG/1.1/DTD/svg11.dtd"> 
<svg xmlns="http://www.w3.org/2000/svg" version="1.1" 
    width="20cm" height="11.999cm" viewBox="0 0 78740 47240 ">
<title>SVG Picture created as voltage_regulator.sch.svg date 2015/04/21 13:10:23 </title>
  <desc>Picture generated by Eeschema-SVG </desc>
<g style="fill:#000000; fill-opacity:1;stroke:#000000; stroke-opacity:1;
stroke-linecap:round; stroke-linejoin:round; "
 transform="translate(0 0) scale(1 1)">
</g>
<g style="fill:#840000; fill-opacity:0.0; 
stroke:#840000; stroke-width:100; stroke-opacity:1; 
stroke-linecap:round; stroke-linejoin:round;">
</g>
<g style="fill:#840000; fill-opacity:0.0; 
stroke:#840000; stroke-width:60; stroke-opacity:1; 
stroke-linecap:round; stroke-linejoin:round;">
<rect x="31500" y="29920" width="42520" height="12600" rx="0" />
</g>
<g style="fill:#840000; fill-opacity:0.0; 
stroke:#840000; stroke-width:100; stroke-opacity:1; 
stroke-linecap:round; stroke-linejoin:round;">
</g>
<g style="fill:#840000; fill-opacity:0.0; 
stroke:#840000; stroke-width:60; stroke-opacity:1; 
stroke-linecap:round; stroke-linejoin:round;">
<rect x="3940" y="3940" width="70860" height="39360" rx="0" />
</g>
<g style="fill:#840000; fill-opacity:0.0; 
stroke:#840000; stroke-width:100; stroke-opacity:1; 
stroke-linecap:round; stroke-linejoin:round;">
</g>
<g style="fill:#840000; fill-opacity:0.0; 
stroke:#840000; stroke-width:60; stroke-opacity:1; 
stroke-linecap:round; stroke-linejoin:round;">
<rect x="4720" y="4720" width="69300" height="37800" rx="0" />
</g>
<g style="fill:#840000; fill-opacity:0.0; 
stroke:#840000; stroke-width:100; stroke-opacity:1; 
stroke-linecap:round; stroke-linejoin:round;">
</g>
<g style="fill:#840000; fill-opacity:0.0; 
stroke:#840000; stroke-width:60; stroke-opacity:1; 
stroke-linecap:round; stroke-linejoin:round;">
<path d="M23620 4720
L23620 3940
" />
</g>
<g style="fill:#840000; fill-opacity:0.0; 
stroke:#840000; stroke-width:100; stroke-opacity:1; 
stroke-linecap:round; stroke-linejoin:round;">
</g>
<g style="fill:#840000; fill-opacity:0.0; 
stroke:#840000; stroke-width:60; stroke-opacity:1; 
stroke-linecap:round; stroke-linejoin:round;">
<path d="M43310 4720
L43310 3940
" />
</g>
<g style="fill:#840000; fill-opacity:0.0; 
stroke:#840000; stroke-width:100; stroke-opacity:1; 
stroke-linecap:round; stroke-linejoin:round;">
</g>
<g style="fill:#840000; fill-opacity:0.0; 
stroke:#840000; stroke-width:60; stroke-opacity:1; 
stroke-linecap:round; stroke-linejoin:round;">
<path d="M62990 4720
L62990 3940
" />
</g>
<g style="fill:#840000; fill-opacity:0.0; 
stroke:#840000; stroke-width:100; stroke-opacity:1; 
stroke-linecap:round; stroke-linejoin:round;">
</g>
<g style="fill:#840000; fill-opacity:0.0; 
stroke:#840000; stroke-width:60; stroke-opacity:1; 
stroke-linecap:round; stroke-linejoin:round;">
<path d="M14170 4560
L13880 4560
" />
<path d="M14020 4560
L14020 4050
L13970 4120
L13930 4170
L13880 4190
" />
</g>
<g style="fill:#840000; fill-opacity:0.0; 
stroke:#840000; stroke-width:100; stroke-opacity:1; 
stroke-linecap:round; stroke-linejoin:round;">
</g>
<g style="fill:#840000; fill-opacity:0.0; 
stroke:#840000; stroke-width:60; stroke-opacity:1; 
stroke-linecap:round; stroke-linejoin:round;">
<path d="M33560 4090
L33580 4070
L33630 4050
L33750 4050
L33800 4070
L33820 4090
L33850 4140
L33850 4190
L33820 4260
L33530 4560
L33850 4560
" />
</g>
<g style="fill:#840000; fill-opacity:0.0; 
stroke:#840000; stroke-width:100; stroke-opacity:1; 
stroke-linecap:round; stroke-linejoin:round;">
</g>
<g style="fill:#840000; fill-opacity:0.0; 
stroke:#840000; stroke-width:60; stroke-opacity:1; 
stroke-linecap:round; stroke-linejoin:round;">
<path d="M53220 4050
L53540 4050
L53370 4240
L53440 4240
L53490 4260
L53510 4290
L53540 4340
L53540 4460
L53510 4510
L53490 4530
L53440 4560
L53300 4560
L53250 4530
L53220 4510
" />
</g>
<g style="fill:#840000; fill-opacity:0.0; 
stroke:#840000; stroke-width:100; stroke-opacity:1; 
stroke-linecap:round; stroke-linejoin:round;">
</g>
<g style="fill:#840000; fill-opacity:0.0; 
stroke:#840000; stroke-width:60; stroke-opacity:1; 
stroke-linecap:round; stroke-linejoin:round;">
<path d="M73170 4220
L73170 4560
" />
<path d="M73050 4020
L72930 4390
L73240 4390
" />
</g>
<g style="fill:#840000; fill-opacity:0.0; 
stroke:#840000; stroke-width:100; stroke-opacity:1; 
stroke-linecap:round; stroke-linejoin:round;">
</g>
<g style="fill:#840000; fill-opacity:0.0; 
stroke:#840000; stroke-width:60; stroke-opacity:1; 
stroke-linecap:round; stroke-linejoin:round;">
<path d="M23620 42520
L23620 43300
" />
</g>
<g style="fill:#840000; fill-opacity:0.0; 
stroke:#840000; stroke-width:100; stroke-opacity:1; 
stroke-linecap:round; stroke-linejoin:round;">
</g>
<g style="fill:#840000; fill-opacity:0.0; 
stroke:#840000; stroke-width:60; stroke-opacity:1; 
stroke-linecap:round; stroke-linejoin:round;">
<path d="M43310 42520
L43310 43300
" />
</g>
<g style="fill:#840000; fill-opacity:0.0; 
stroke:#840000; stroke-width:100; stroke-opacity:1; 
stroke-linecap:round; stroke-linejoin:round;">
</g>
<g style="fill:#840000; fill-opacity:0.0; 
stroke:#840000; stroke-width:60; stroke-opacity:1; 
stroke-linecap:round; stroke-linejoin:round;">
<path d="M62990 42520
L62990 43300
" />
</g>
<g style="fill:#840000; fill-opacity:0.0; 
stroke:#840000; stroke-width:100; stroke-opacity:1; 
stroke-linecap:round; stroke-linejoin:round;">
</g>
<g style="fill:#840000; fill-opacity:0.0; 
stroke:#840000; stroke-width:60; stroke-opacity:1; 
stroke-linecap:round; stroke-linejoin:round;">
<path d="M14170 43140
L13880 43140
" />
<path d="M14020 43140
L14020 42630
L13970 42700
L13930 42750
L13880 42770
" />
</g>
<g style="fill:#840000; fill-opacity:0.0; 
stroke:#840000; stroke-width:100; stroke-opacity:1; 
stroke-linecap:round; stroke-linejoin:round;">
</g>
<g style="fill:#840000; fill-opacity:0.0; 
stroke:#840000; stroke-width:60; stroke-opacity:1; 
stroke-linecap:round; stroke-linejoin:round;">
<path d="M33560 42670
L33580 42650
L33630 42630
L33750 42630
L33800 42650
L33820 42670
L33850 42720
L33850 42770
L33820 42840
L33530 43140
L33850 43140
" />
</g>
<g style="fill:#840000; fill-opacity:0.0; 
stroke:#840000; stroke-width:100; stroke-opacity:1; 
stroke-linecap:round; stroke-linejoin:round;">
</g>
<g style="fill:#840000; fill-opacity:0.0; 
stroke:#840000; stroke-width:60; stroke-opacity:1; 
stroke-linecap:round; stroke-linejoin:round;">
<path d="M53220 42630
L53540 42630
L53370 42820
L53440 42820
L53490 42840
L53510 42870
L53540 42920
L53540 43040
L53510 43090
L53490 43110
L53440 43140
L53300 43140
L53250 43110
L53220 43090
" />
</g>
<g style="fill:#840000; fill-opacity:0.0; 
stroke:#840000; stroke-width:100; stroke-opacity:1; 
stroke-linecap:round; stroke-linejoin:round;">
</g>
<g style="fill:#840000; fill-opacity:0.0; 
stroke:#840000; stroke-width:60; stroke-opacity:1; 
stroke-linecap:round; stroke-linejoin:round;">
<path d="M73170 42800
L73170 43140
" />
<path d="M73050 42600
L72930 42970
L73240 42970
" />
</g>
<g style="fill:#840000; fill-opacity:0.0; 
stroke:#840000; stroke-width:100; stroke-opacity:1; 
stroke-linecap:round; stroke-linejoin:round;">
</g>
<g style="fill:#840000; fill-opacity:0.0; 
stroke:#840000; stroke-width:60; stroke-opacity:1; 
stroke-linecap:round; stroke-linejoin:round;">
<path d="M3940 23620
L4720 23620
" />
</g>
<g style="fill:#840000; fill-opacity:0.0; 
stroke:#840000; stroke-width:100; stroke-opacity:1; 
stroke-linecap:round; stroke-linejoin:round;">
</g>
<g style="fill:#840000; fill-opacity:0.0; 
stroke:#840000; stroke-width:60; stroke-opacity:1; 
stroke-linecap:round; stroke-linejoin:round;">
<path d="M4210 13860
L4450 13860
" />
<path d="M4160 14010
L4330 13500
L4500 14010
" />
</g>
<g style="fill:#840000; fill-opacity:0.0; 
stroke:#840000; stroke-width:100; stroke-opacity:1; 
stroke-linecap:round; stroke-linejoin:round;">
</g>
<g style="fill:#840000; fill-opacity:0.0; 
stroke:#840000; stroke-width:60; stroke-opacity:1; 
stroke-linecap:round; stroke-linejoin:round;">
<path d="M4370 33420
L4440 33440
L4470 33470
L4490 33520
L4490 33590
L4470 33640
L4440 33660
L4400 33690
L4200 33690
L4200 33180
L4370 33180
L4420 33200
L4440 33220
L4470 33270
L4470 33320
L4440 33370
L4420 33390
L4370 33420
L4200 33420
" />
</g>
<g style="fill:#840000; fill-opacity:0.0; 
stroke:#840000; stroke-width:100; stroke-opacity:1; 
stroke-linecap:round; stroke-linejoin:round;">
</g>
<g style="fill:#840000; fill-opacity:0.0; 
stroke:#840000; stroke-width:60; stroke-opacity:1; 
stroke-linecap:round; stroke-linejoin:round;">
<path d="M74800 23620
L74020 23620
" />
</g>
<g style="fill:#840000; fill-opacity:0.0; 
stroke:#840000; stroke-width:100; stroke-opacity:1; 
stroke-linecap:round; stroke-linejoin:round;">
</g>
<g style="fill:#840000; fill-opacity:0.0; 
stroke:#840000; stroke-width:60; stroke-opacity:1; 
stroke-linecap:round; stroke-linejoin:round;">
<path d="M74290 13860
L74530 13860
" />
<path d="M74240 14010
L74410 13500
L74580 14010
" />
</g>
<g style="fill:#840000; fill-opacity:0.0; 
stroke:#840000; stroke-width:100; stroke-opacity:1; 
stroke-linecap:round; stroke-linejoin:round;">
</g>
<g style="fill:#840000; fill-opacity:0.0; 
stroke:#840000; stroke-width:60; stroke-opacity:1; 
stroke-linecap:round; stroke-linejoin:round;">
<path d="M74450 33420
L74520 33440
L74550 33470
L74570 33520
L74570 33590
L74550 33640
L74520 33660
L74480 33690
L74280 33690
L74280 33180
L74450 33180
L74500 33200
L74520 33220
L74550 33270
L74550 33320
L74520 33370
L74500 33390
L74450 33420
L74280 33420
" />
</g>
<g style="fill:#840000; fill-opacity:0.0; 
stroke:#840000; stroke-width:100; stroke-opacity:1; 
stroke-linecap:round; stroke-linejoin:round;">
</g>
<g style="fill:#840000; fill-opacity:0.0; 
stroke:#840000; stroke-width:60; stroke-opacity:1; 
stroke-linecap:round; stroke-linejoin:round;">
<path d="M40690 40850
L40690 40260
L40830 40260
L40920 40290
L40970 40350
L41000 40400
L41030 40510
L41030 40600
L41000 40710
L40970 40770
L40920 40820
L40830 40850
L40690 40850
" />
<path d="M41530 40850
L41530 40540
L41510 40490
L41450 40460
L41340 40460
L41280 40490
" />
<path d="M41530 40820
L41480 40850
L41340 40850
L41280 40820
L41250 40770
L41250 40710
L41280 40660
L41340 40630
L41480 40630
L41530 40600
" />
<path d="M41730 40460
L41950 40460
" />
<path d="M41810 40260
L41810 40770
L41840 40820
L41890 40850
L41950 40850
" />
<path d="M42380 40820
L42320 40850
L42210 40850
L42150 40820
L42120 40770
L42120 40540
L42150 40490
L42210 40460
L42320 40460
L42380 40490
L42400 40540
L42400 40600
L42120 40660
" />
<path d="M42660 40800
L42690 40820
L42660 40850
L42630 40820
L42660 40800
L42660 40850
" />
<path d="M42660 40490
L42690 40510
L42660 40540
L42630 40510
L42660 40490
L42660 40540
" />
</g>
<g style="fill:#840000; fill-opacity:0.0; 
stroke:#840000; stroke-width:100; stroke-opacity:1; 
stroke-linecap:round; stroke-linejoin:round;">
</g>
<g style="fill:#840000; fill-opacity:0.0; 
stroke:#840000; stroke-width:60; stroke-opacity:1; 
stroke-linecap:round; stroke-linejoin:round;">
<path d="M31500 41140
L74020 41140
" />
</g>
<g style="fill:#840000; fill-opacity:0.0; 
stroke:#840000; stroke-width:100; stroke-opacity:1; 
stroke-linecap:round; stroke-linejoin:round;">
</g>
<g style="fill:#840000; fill-opacity:0.0; 
stroke:#840000; stroke-width:60; stroke-opacity:1; 
stroke-linecap:round; stroke-linejoin:round;">
<path d="M32030 41950
L32030 41360
" />
<path d="M32370 41950
L32110 41610
" />
<path d="M32370 41360
L32030 41700
" />
<path d="M32620 41950
L32620 41560
" />
<path d="M32620 41360
L32590 41390
L32620 41420
L32650 41390
L32620 41360
L32620 41420
" />
<path d="M33240 41900
L33210 41920
L33130 41950
L33070 41950
L32980 41920
L32930 41870
L32900 41810
L32870 41700
L32870 41610
L32900 41500
L32930 41450
L32980 41390
L33070 41360
L33130 41360
L33210 41390
L33240 41420
" />
<path d="M33740 41950
L33740 41640
L33720 41590
L33660 41560
L33550 41560
L33490 41590
" />
<path d="M33740 41920
L33690 41950
L33550 41950
L33490 41920
L33460 41870
L33460 41810
L33490 41760
L33550 41730
L33690 41730
L33740 41700
" />
<path d="M34270 41950
L34270 41360
" />
<path d="M34270 41920
L34220 41950
L34100 41950
L34050 41920
L34020 41900
L33990 41840
L33990 41670
L34020 41610
L34050 41590
L34100 41560
L34220 41560
L34270 41590
" />
<path d="M35000 41640
L35200 41640
" />
<path d="M35280 41950
L35000 41950
L35000 41360
L35280 41360
" />
<path d="M35530 41900
L35560 41920
L35530 41950
L35500 41920
L35530 41900
L35530 41950
" />
<path d="M35810 41950
L35810 41360
L35950 41360
L36040 41390
L36090 41450
L36120 41500
L36150 41610
L36150 41700
L36120 41810
L36090 41870
L36040 41920
L35950 41950
L35810 41950
" />
<path d="M36400 41900
L36430 41920
L36400 41950
L36370 41920
L36400 41900
L36400 41950
" />
<path d="M36650 41780
L36930 41780
" />
<path d="M36600 41950
L36790 41360
L36990 41950
" />
<path d="M37190 41900
L37220 41920
L37190 41950
L37160 41920
L37190 41900
L37190 41950
" />
<path d="M38370 41950
L38370 41360
" />
<path d="M38430 41730
L38600 41950
" />
<path d="M38600 41560
L38370 41780
" />
<path d="M38850 41950
L38850 41560
" />
<path d="M38850 41360
L38820 41390
L38850 41420
L38880 41390
L38850 41360
L38850 41420
" />
<path d="M39380 41920
L39330 41950
L39210 41950
L39160 41920
L39130 41900
L39100 41840
L39100 41670
L39130 41610
L39160 41590
L39210 41560
L39330 41560
L39380 41590
" />
<path d="M39890 41950
L39890 41640
L39870 41590
L39810 41560
L39700 41560
L39640 41590
" />
<path d="M39890 41920
L39840 41950
L39700 41950
L39640 41920
L39610 41870
L39610 41810
L39640 41760
L39700 41730
L39840 41730
L39890 41700
" />
<path d="M40420 41950
L40420 41360
" />
<path d="M40420 41920
L40370 41950
L40250 41950
L40200 41920
L40170 41900
L40140 41840
L40140 41670
L40170 41610
L40200 41590
L40250 41560
L40370 41560
L40420 41590
" />
<path d="M41320 42180
L41290 42150
L41230 42060
L41210 42010
L41180 41920
L41150 41780
L41150 41670
L41180 41530
L41210 41450
L41230 41390
L41290 41310
L41320 41280
" />
<path d="M41510 41420
L41540 41390
L41600 41360
L41740 41360
L41790 41390
L41820 41420
L41850 41470
L41850 41530
L41820 41610
L41480 41950
L41850 41950
" />
<path d="M42210 41360
L42270 41360
L42330 41390
L42350 41420
L42380 41470
L42410 41590
L42410 41730
L42380 41840
L42350 41900
L42330 41920
L42270 41950
L42210 41950
L42160 41920
L42130 41900
L42100 41840
L42070 41730
L42070 41590
L42100 41470
L42130 41420
L42160 41390
L42210 41360
" />
<path d="M42970 41950
L42630 41950
" />
<path d="M42800 41950
L42800 41360
L42740 41450
L42690 41500
L42630 41530
" />
<path d="M43500 41360
L43220 41360
L43190 41640
L43220 41610
L43280 41590
L43420 41590
L43470 41610
L43500 41640
L43530 41700
L43530 41840
L43500 41900
L43470 41920
L43420 41950
L43280 41950
L43220 41920
L43190 41900
" />
<path d="M43780 41730
L44230 41730
" />
<path d="M44620 41360
L44680 41360
L44740 41390
L44760 41420
L44790 41470
L44820 41590
L44820 41730
L44790 41840
L44760 41900
L44740 41920
L44680 41950
L44620 41950
L44570 41920
L44540 41900
L44510 41840
L44480 41730
L44480 41590
L44510 41470
L44540 41420
L44570 41390
L44620 41360
" />
<path d="M45320 41560
L45320 41950
" />
<path d="M45180 41330
L45040 41760
L45410 41760
" />
<path d="M45630 41730
L46080 41730
" />
<path d="M46470 41360
L46530 41360
L46590 41390
L46610 41420
L46640 41470
L46670 41590
L46670 41730
L46640 41840
L46610 41900
L46590 41920
L46530 41950
L46470 41950
L46420 41920
L46390 41900
L46360 41840
L46330 41730
L46330 41590
L46360 41470
L46390 41420
L46420 41390
L46470 41360
" />
<path d="M46860 41360
L47260 41360
L47000 41950
" />
<path d="M48130 41640
L48210 41670
L48240 41700
L48270 41760
L48270 41840
L48240 41900
L48210 41920
L48160 41950
L47930 41950
L47930 41360
L48130 41360
L48180 41390
L48210 41420
L48240 41470
L48240 41530
L48210 41590
L48180 41610
L48130 41640
L47930 41640
" />
<path d="M48460 41360
L48860 41360
L48460 41950
L48860 41950
" />
<path d="M49420 41950
L49220 41670
" />
<path d="M49080 41950
L49080 41360
L49310 41360
L49360 41390
L49390 41420
L49420 41470
L49420 41560
L49390 41610
L49360 41640
L49310 41670
L49080 41670
" />
<path d="M50400 41360
L50120 41360
L50090 41640
L50120 41610
L50180 41590
L50320 41590
L50370 41610
L50400 41640
L50430 41700
L50430 41840
L50400 41900
L50370 41920
L50320 41950
L50180 41950
L50120 41920
L50090 41900
" />
<path d="M50960 41360
L50680 41360
L50650 41640
L50680 41610
L50740 41590
L50880 41590
L50930 41610
L50960 41640
L50990 41700
L50990 41840
L50960 41900
L50930 41920
L50880 41950
L50740 41950
L50680 41920
L50650 41900
" />
<path d="M51320 41610
L51270 41590
L51240 41560
L51210 41500
L51210 41470
L51240 41420
L51270 41390
L51320 41360
L51440 41360
L51490 41390
L51520 41420
L51550 41470
L51550 41500
L51520 41560
L51490 41590
L51440 41610
L51320 41610
L51270 41640
L51240 41670
L51210 41730
L51210 41840
L51240 41900
L51270 41920
L51320 41950
L51440 41950
L51490 41920
L51520 41900
L51550 41840
L51550 41730
L51520 41670
L51490 41640
L51440 41610
" />
<path d="M51770 41420
L51800 41390
L51860 41360
L52000 41360
L52050 41390
L52080 41420
L52110 41470
L52110 41530
L52080 41610
L51740 41950
L52110 41950
" />
<path d="M52300 42180
L52330 42150
L52390 42060
L52420 42010
L52440 41920
L52470 41780
L52470 41670
L52440 41530
L52420 41450
L52390 41390
L52330 41310
L52300 41280
" />
<path d="M52750 41730
L53200 41730
" />
<path d="M53480 41560
L53480 42150
" />
<path d="M53480 41590
L53540 41560
L53650 41560
L53710 41590
L53730 41610
L53760 41670
L53760 41840
L53730 41900
L53710 41920
L53650 41950
L53540 41950
L53480 41920
" />
<path d="M54010 41950
L54010 41560
" />
<path d="M54010 41670
L54040 41610
L54070 41590
L54120 41560
L54180 41560
" />
<path d="M54460 41950
L54410 41920
L54380 41900
L54350 41840
L54350 41670
L54380 41610
L54410 41590
L54460 41560
L54550 41560
L54610 41590
L54630 41610
L54660 41670
L54660 41840
L54630 41900
L54610 41920
L54550 41950
L54460 41950
" />
<path d="M55160 41950
L55160 41360
" />
<path d="M55160 41920
L55110 41950
L54990 41950
L54940 41920
L54910 41900
L54880 41840
L54880 41670
L54910 41610
L54940 41590
L54990 41560
L55110 41560
L55160 41590
" />
<path d="M55690 41560
L55690 41950
" />
<path d="M55440 41560
L55440 41870
L55470 41920
L55520 41950
L55610 41950
L55670 41920
L55690 41900
" />
<path d="M56220 41920
L56170 41950
L56050 41950
L56000 41920
L55970 41900
L55940 41840
L55940 41670
L55970 41610
L56000 41590
L56050 41560
L56170 41560
L56220 41590
" />
<path d="M56400 41560
L56620 41560
" />
<path d="M56480 41360
L56480 41870
L56510 41920
L56560 41950
L56620 41950
" />
</g>
<g style="fill:#840000; fill-opacity:0.0; 
stroke:#840000; stroke-width:100; stroke-opacity:1; 
stroke-linecap:round; stroke-linejoin:round;">
</g>
<g style="fill:#840000; fill-opacity:0.0; 
stroke:#840000; stroke-width:60; stroke-opacity:1; 
stroke-linecap:round; stroke-linejoin:round;">
<path d="M31500 39960
L74020 39960
" />
</g>
<g style="fill:#840000; fill-opacity:0.0; 
stroke:#840000; stroke-width:100; stroke-opacity:1; 
stroke-linecap:round; stroke-linejoin:round;">
</g>
<g style="fill:#840000; fill-opacity:0.0; 
stroke:#840000; stroke-width:120; stroke-opacity:1; 
stroke-linecap:round; stroke-linejoin:round;">
<path d="M65830 40850
L65630 40570
" />
<path d="M65490 40850
L65490 40260
L65720 40260
L65770 40290
L65800 40320
L65830 40370
L65830 40460
L65800 40510
L65770 40540
L65720 40570
L65490 40570
" />
<path d="M66310 40820
L66250 40850
L66140 40850
L66080 40820
L66050 40770
L66050 40540
L66080 40490
L66140 40460
L66250 40460
L66310 40490
L66330 40540
L66330 40600
L66050 40660
" />
<path d="M66530 40460
L66670 40850
L66820 40460
" />
<path d="M67040 40800
L67070 40820
L67040 40850
L67010 40820
L67040 40800
L67040 40850
" />
<path d="M67040 40490
L67070 40510
L67040 40540
L67010 40510
L67040 40490
L67040 40540
" />
</g>
<g style="fill:#840000; fill-opacity:0.0; 
stroke:#840000; stroke-width:100; stroke-opacity:1; 
stroke-linecap:round; stroke-linejoin:round;">
</g>
<g style="fill:#840000; fill-opacity:0.0; 
stroke:#840000; stroke-width:60; stroke-opacity:1; 
stroke-linecap:round; stroke-linejoin:round;">
<path d="M32000 40820
L32090 40850
L32230 40850
L32280 40820
L32310 40800
L32340 40740
L32340 40680
L32310 40630
L32280 40600
L32230 40570
L32110 40540
L32060 40510
L32030 40490
L32000 40430
L32000 40370
L32030 40320
L32060 40290
L32110 40260
L32260 40260
L32340 40290
" />
<path d="M32590 40850
L32590 40460
" />
<path d="M32590 40260
L32560 40290
L32590 40320
L32620 40290
L32590 40260
L32590 40320
" />
<path d="M32810 40460
L33120 40460
L32810 40850
L33120 40850
" />
<path d="M33580 40820
L33520 40850
L33410 40850
L33350 40820
L33320 40770
L33320 40540
L33350 40490
L33410 40460
L33520 40460
L33580 40490
L33600 40540
L33600 40600
L33320 40660
" />
<path d="M33860 40800
L33890 40820
L33860 40850
L33830 40820
L33860 40800
L33860 40850
" />
<path d="M33860 40490
L33890 40510
L33860 40540
L33830 40510
L33860 40490
L33860 40540
" />
<path d="M34590 40260
L34590 40740
L34620 40800
L34650 40820
L34700 40850
L34820 40850
L34870 40820
L34900 40800
L34930 40740
L34930 40260
" />
<path d="M35180 40820
L35240 40850
L35350 40850
L35410 40820
L35440 40770
L35440 40740
L35410 40680
L35350 40660
L35270 40660
L35210 40630
L35180 40570
L35180 40540
L35210 40490
L35270 40460
L35350 40460
L35410 40490
" />
<path d="M35920 40820
L35860 40850
L35750 40850
L35690 40820
L35660 40770
L35660 40540
L35690 40490
L35750 40460
L35860 40460
L35920 40490
L35940 40540
L35940 40600
L35660 40660
" />
<path d="M36200 40850
L36200 40460
" />
<path d="M36200 40570
L36230 40510
L36260 40490
L36310 40460
L36370 40460
" />
</g>
<g style="fill:#840000; fill-opacity:0.0; 
stroke:#840000; stroke-width:100; stroke-opacity:1; 
stroke-linecap:round; stroke-linejoin:round;">
</g>
<g style="fill:#840000; fill-opacity:0.0; 
stroke:#840000; stroke-width:60; stroke-opacity:1; 
stroke-linecap:round; stroke-linejoin:round;">
<path d="M65490 41950
L65490 41360
" />
<path d="M66020 41950
L66020 41360
" />
<path d="M66020 41920
L65970 41950
L65850 41950
L65800 41920
L65770 41900
L65740 41840
L65740 41670
L65770 41610
L65800 41590
L65850 41560
L65970 41560
L66020 41590
" />
<path d="M66300 41900
L66330 41920
L66300 41950
L66270 41920
L66300 41900
L66300 41950
" />
<path d="M66300 41590
L66330 41610
L66300 41640
L66270 41610
L66300 41590
L66300 41640
" />
<path d="M67340 41950
L67000 41950
" />
<path d="M67170 41950
L67170 41360
L67110 41450
L67060 41500
L67000 41530
" />
<path d="M68010 41330
L67510 42090
" />
<path d="M68520 41950
L68180 41950
" />
<path d="M68350 41950
L68350 41360
L68290 41450
L68240 41500
L68180 41530
" />
</g>
<g style="fill:#840000; fill-opacity:0.0; 
stroke:#840000; stroke-width:100; stroke-opacity:1; 
stroke-linecap:round; stroke-linejoin:round;">
</g>
<g style="fill:#840000; fill-opacity:0.0; 
stroke:#840000; stroke-width:60; stroke-opacity:1; 
stroke-linecap:round; stroke-linejoin:round;">
<path d="M31500 38380
L74020 38380
" />
</g>
<g style="fill:#840000; fill-opacity:0.0; 
stroke:#840000; stroke-width:100; stroke-opacity:1; 
stroke-linecap:round; stroke-linejoin:round;">
</g>
<g style="fill:#840000; fill-opacity:0.0; 
stroke:#840000; stroke-width:160; stroke-opacity:1; 
stroke-linecap:round; stroke-linejoin:round;">
<path d="M32070 38650
L32520 38650
" />
<path d="M32200 39440
L32290 38650
" />
<path d="M32690 39440
L32750 38920
" />
<path d="M32780 38650
L32740 38690
L32770 38730
L32820 38690
L32780 38650
L32770 38730
" />
<path d="M33020 38920
L33320 38920
" />
<path d="M33160 38650
L33080 39330
L33110 39400
L33180 39440
L33260 39440
" />
<path d="M33630 39440
L33560 39400
L33530 39330
L33610 38650
" />
<path d="M34230 39400
L34150 39440
L34000 39440
L33930 39400
L33900 39330
L33940 39030
L33990 38950
L34060 38920
L34210 38920
L34290 38950
L34320 39030
L34310 39100
L33920 39180
" />
<path d="M34610 39370
L34650 39400
L34610 39440
L34570 39400
L34610 39370
L34610 39440
" />
<path d="M34670 38950
L34700 38990
L34660 39030
L34620 38990
L34670 38950
L34660 39030
" />
</g>
<g style="fill:#840000; fill-opacity:0.0; 
stroke:#840000; stroke-width:100; stroke-opacity:1; 
stroke-linecap:round; stroke-linejoin:round;">
</g>
<g style="fill:#840000; fill-opacity:0.0; 
stroke:#840000; stroke-width:60; stroke-opacity:1; 
stroke-linecap:round; stroke-linejoin:round;">
<path d="M32230 37620
L32030 37620
" />
<path d="M32030 37930
L32030 37340
L32310 37340
" />
<path d="M32540 37930
L32540 37540
" />
<path d="M32540 37340
L32510 37370
L32540 37400
L32570 37370
L32540 37340
L32540 37400
" />
<path d="M32900 37930
L32850 37900
L32820 37850
L32820 37340
" />
<path d="M33360 37900
L33300 37930
L33190 37930
L33130 37900
L33100 37850
L33100 37620
L33130 37570
L33190 37540
L33300 37540
L33360 37570
L33380 37620
L33380 37680
L33100 37740
" />
<path d="M33640 37880
L33670 37900
L33640 37930
L33610 37900
L33640 37880
L33640 37930
" />
<path d="M33640 37570
L33670 37590
L33640 37620
L33610 37590
L33640 37570
L33640 37620
" />
<path d="M34310 37540
L34450 37930
L34600 37540
" />
<path d="M34900 37930
L34850 37900
L34820 37880
L34790 37820
L34790 37650
L34820 37590
L34850 37570
L34900 37540
L34990 37540
L35050 37570
L35070 37590
L35100 37650
L35100 37820
L35070 37880
L35050 37900
L34990 37930
L34900 37930
" />
<path d="M35430 37930
L35380 37900
L35350 37850
L35350 37340
" />
<path d="M35580 37540
L35800 37540
" />
<path d="M35660 37340
L35660 37850
L35690 37900
L35740 37930
L35800 37930
" />
<path d="M36250 37930
L36250 37620
L36230 37570
L36170 37540
L36060 37540
L36000 37570
" />
<path d="M36250 37900
L36200 37930
L36060 37930
L36000 37900
L35970 37850
L35970 37790
L36000 37740
L36060 37710
L36200 37710
L36250 37680
" />
<path d="M36780 37540
L36780 38020
L36760 38070
L36730 38100
L36670 38130
L36590 38130
L36530 38100
" />
<path d="M36780 37900
L36730 37930
L36610 37930
L36560 37900
L36530 37880
L36500 37820
L36500 37650
L36530 37590
L36560 37570
L36610 37540
L36730 37540
L36780 37570
" />
<path d="M37290 37900
L37230 37930
L37120 37930
L37060 37900
L37030 37850
L37030 37620
L37060 37570
L37120 37540
L37230 37540
L37290 37570
L37310 37620
L37310 37680
L37030 37740
" />
<path d="M37430 37990
L37880 37990
" />
<path d="M38020 37930
L38020 37540
" />
<path d="M38020 37650
L38050 37590
L38080 37570
L38130 37540
L38190 37540
" />
<path d="M38620 37900
L38560 37930
L38450 37930
L38390 37900
L38360 37850
L38360 37620
L38390 37570
L38450 37540
L38560 37540
L38620 37570
L38640 37620
L38640 37680
L38360 37740
" />
<path d="M39150 37540
L39150 38020
L39130 38070
L39100 38100
L39040 38130
L38960 38130
L38900 38100
" />
<path d="M39150 37900
L39100 37930
L38980 37930
L38930 37900
L38900 37880
L38870 37820
L38870 37650
L38900 37590
L38930 37570
L38980 37540
L39100 37540
L39150 37570
" />
<path d="M39680 37540
L39680 37930
" />
<path d="M39430 37540
L39430 37850
L39460 37900
L39510 37930
L39600 37930
L39660 37900
L39680 37880
" />
<path d="M40040 37930
L39990 37900
L39960 37850
L39960 37340
" />
<path d="M40520 37930
L40520 37620
L40500 37570
L40440 37540
L40330 37540
L40270 37570
" />
<path d="M40520 37900
L40470 37930
L40330 37930
L40270 37900
L40240 37850
L40240 37790
L40270 37740
L40330 37710
L40470 37710
L40520 37680
" />
<path d="M40720 37540
L40940 37540
" />
<path d="M40800 37340
L40800 37850
L40830 37900
L40880 37930
L40940 37930
" />
<path d="M41220 37930
L41170 37900
L41140 37880
L41110 37820
L41110 37650
L41140 37590
L41170 37570
L41220 37540
L41310 37540
L41370 37570
L41390 37590
L41420 37650
L41420 37820
L41390 37880
L41370 37900
L41310 37930
L41220 37930
" />
<path d="M41670 37930
L41670 37540
" />
<path d="M41670 37650
L41700 37590
L41730 37570
L41780 37540
L41840 37540
" />
<path d="M42040 37880
L42070 37900
L42040 37930
L42010 37900
L42040 37880
L42040 37930
" />
<path d="M42290 37900
L42350 37930
L42460 37930
L42520 37900
L42550 37850
L42550 37820
L42520 37760
L42460 37740
L42380 37740
L42320 37710
L42290 37650
L42290 37620
L42320 37570
L42380 37540
L42460 37540
L42520 37570
" />
<path d="M43050 37900
L43000 37930
L42880 37930
L42830 37900
L42800 37880
L42770 37820
L42770 37650
L42800 37590
L42830 37570
L42880 37540
L43000 37540
L43050 37570
" />
<path d="M43310 37930
L43310 37340
" />
<path d="M43560 37930
L43560 37620
L43540 37570
L43480 37540
L43390 37540
L43340 37570
L43310 37590
" />
</g>
<g style="fill:#840000; fill-opacity:0.0; 
stroke:#840000; stroke-width:100; stroke-opacity:1; 
stroke-linecap:round; stroke-linejoin:round;">
</g>
<g style="fill:#840000; fill-opacity:0.0; 
stroke:#840000; stroke-width:60; stroke-opacity:1; 
stroke-linecap:round; stroke-linejoin:round;">
<path d="M31500 36020
L74020 36020
" />
</g>
<g style="fill:#840000; fill-opacity:0.0; 
stroke:#840000; stroke-width:100; stroke-opacity:1; 
stroke-linecap:round; stroke-linejoin:round;">
</g>
<g style="fill:#840000; fill-opacity:0.0; 
stroke:#840000; stroke-width:60; stroke-opacity:1; 
stroke-linecap:round; stroke-linejoin:round;">
<path d="M32000 36840
L32090 36870
L32230 36870
L32280 36840
L32310 36820
L32340 36760
L32340 36700
L32310 36650
L32280 36620
L32230 36590
L32110 36560
L32060 36530
L32030 36510
L32000 36450
L32000 36390
L32030 36340
L32060 36310
L32110 36280
L32260 36280
L32340 36310
" />
<path d="M32590 36870
L32590 36280
" />
<path d="M32840 36870
L32840 36560
L32820 36510
L32760 36480
L32670 36480
L32620 36510
L32590 36530
" />
<path d="M33350 36840
L33290 36870
L33180 36870
L33120 36840
L33090 36790
L33090 36560
L33120 36510
L33180 36480
L33290 36480
L33350 36510
L33370 36560
L33370 36620
L33090 36680
" />
<path d="M33860 36840
L33800 36870
L33690 36870
L33630 36840
L33600 36790
L33600 36560
L33630 36510
L33690 36480
L33800 36480
L33860 36510
L33880 36560
L33880 36620
L33600 36680
" />
<path d="M34060 36480
L34280 36480
" />
<path d="M34140 36280
L34140 36790
L34170 36840
L34220 36870
L34280 36870
" />
<path d="M34480 36820
L34510 36840
L34480 36870
L34450 36840
L34480 36820
L34480 36870
" />
<path d="M34480 36510
L34510 36530
L34480 36560
L34450 36530
L34480 36510
L34480 36560
" />
<path d="M35630 36250
L35130 37010
" />
</g>
<g style="fill:#840000; fill-opacity:0.0; 
stroke:#840000; stroke-width:100; stroke-opacity:1; 
stroke-linecap:round; stroke-linejoin:round;">
</g>
<g style="fill:#840000; fill-opacity:0.0; 
stroke:#840000; stroke-width:60; stroke-opacity:1; 
stroke-linecap:round; stroke-linejoin:round;">
<path d="M39370 39960
L39370 41140
" />
</g>
<g style="fill:#840000; fill-opacity:0.0; 
stroke:#840000; stroke-width:100; stroke-opacity:1; 
stroke-linecap:round; stroke-linejoin:round;">
</g>
<g style="fill:#840000; fill-opacity:0.0; 
stroke:#840000; stroke-width:60; stroke-opacity:1; 
stroke-linecap:round; stroke-linejoin:round;">
<path d="M64570 39960
L64570 42520
" />
</g>
<g style="fill:#840000; fill-opacity:0.0; 
stroke:#840000; stroke-width:0; stroke-opacity:1; 
stroke-linecap:round; stroke-linejoin:round;">
</g>
<g style="fill:#840000; fill-opacity:0.0; 
stroke:#840000; stroke-width:60; stroke-opacity:1; 
stroke-linecap:round; stroke-linejoin:round;">
<polyline fill="none;"
points="10700,11000
11000,10500
" /> 
<polyline fill="none;"
points="11000,11500
11000,10500
" /> 
<polyline fill="none;"
points="11000,10500
11300,11000
" /> 
</g>
<g style="fill:#008484; fill-opacity:0.0; 
stroke:#008484; stroke-width:60; stroke-opacity:1; 
stroke-linecap:round; stroke-linejoin:round;">
<path d="M9970 10110
L10350 10110
" />
<path d="M10160 10300
L10160 9920
" />
<path d="M10760 10030
L10830 10060
L10850 10080
L10870 10130
L10870 10200
L10850 10250
L10830 10270
L10780 10300
L10590 10300
L10590 9800
L10760 9800
L10800 9820
L10830 9840
L10850 9890
L10850 9940
L10830 9990
L10800 10010
L10760 10030
L10590 10030
" />
<path d="M11070 10150
L11300 10150
" />
<path d="M11020 10300
L11180 9800
L11350 10300
" />
<path d="M11450 9800
L11730 9800
" />
<path d="M11590 10300
L11590 9800
" />
<path d="M11830 9800
L12110 9800
" />
<path d="M11970 10300
L11970 9800
" />
</g>
<g style="fill:#008484; fill-opacity:0.0; 
stroke:#008484; stroke-width:0; stroke-opacity:1; 
stroke-linecap:round; stroke-linejoin:round;">
</g>
<g style="fill:#840000; fill-opacity:0.0; 
stroke:#840000; stroke-width:60; stroke-opacity:1; 
stroke-linecap:round; stroke-linejoin:round;">
<rect x="21000" y="11000" width="9000" height="13000" rx="0" />
<path d="M30000 12000
L32000 12000
" />
</g>
<g style="fill:#008484; fill-opacity:0.0; 
stroke:#008484; stroke-width:60; stroke-opacity:1; 
stroke-linecap:round; stroke-linejoin:round;">
<path d="M28650 12200
L28720 12230
L28840 12230
L28880 12200
L28910 12180
L28930 12130
L28930 12080
L28910 12040
L28880 12010
L28840 11990
L28740 11960
L28690 11940
L28670 11920
L28650 11870
L28650 11820
L28670 11770
L28690 11750
L28740 11730
L28860 11730
L28930 11750
" />
<path d="M29100 11730
L29220 12230
L29320 11870
L29410 12230
L29530 11730
" />
</g>
<g style="fill:#840000; fill-opacity:0.0; 
stroke:#840000; stroke-width:60; stroke-opacity:1; 
stroke-linecap:round; stroke-linejoin:round;">
<path d="M31140 11880
L30860 11880
" />
<path d="M31000 11880
L31000 11380
L30950 11450
L30900 11500
L30860 11520
" />
<path d="M30000 13000
L32000 13000
" />
</g>
<g style="fill:#008484; fill-opacity:0.0; 
stroke:#008484; stroke-width:60; stroke-opacity:1; 
stroke-linecap:round; stroke-linejoin:round;">
<path d="M28650 13200
L28720 13230
L28840 13230
L28880 13200
L28910 13180
L28930 13130
L28930 13080
L28910 13040
L28880 13010
L28840 12990
L28740 12960
L28690 12940
L28670 12920
L28650 12870
L28650 12820
L28670 12770
L28690 12750
L28740 12730
L28860 12730
L28930 12750
" />
<path d="M29100 12730
L29220 13230
L29320 12870
L29410 13230
L29530 12730
" />
</g>
<g style="fill:#840000; fill-opacity:0.0; 
stroke:#840000; stroke-width:60; stroke-opacity:1; 
stroke-linecap:round; stroke-linejoin:round;">
<path d="M30860 12420
L30880 12400
L30930 12380
L31050 12380
L31090 12400
L31120 12420
L31140 12470
L31140 12520
L31120 12590
L30830 12880
L31140 12880
" />
<path d="M30000 14000
L32000 14000
" />
</g>
<g style="fill:#008484; fill-opacity:0.0; 
stroke:#008484; stroke-width:60; stroke-opacity:1; 
stroke-linecap:round; stroke-linejoin:round;">
<path d="M28650 14200
L28720 14230
L28840 14230
L28880 14200
L28910 14180
L28930 14130
L28930 14080
L28910 14040
L28880 14010
L28840 13990
L28740 13960
L28690 13940
L28670 13920
L28650 13870
L28650 13820
L28670 13770
L28690 13750
L28740 13730
L28860 13730
L28930 13750
" />
<path d="M29100 13730
L29220 14230
L29320 13870
L29410 14230
L29530 13730
" />
</g>
<g style="fill:#840000; fill-opacity:0.0; 
stroke:#840000; stroke-width:60; stroke-opacity:1; 
stroke-linecap:round; stroke-linejoin:round;">
<path d="M30830 13380
L31140 13380
L30970 13570
L31050 13570
L31090 13590
L31120 13610
L31140 13660
L31140 13780
L31120 13830
L31090 13850
L31050 13880
L30900 13880
L30860 13850
L30830 13830
" />
<path d="M30000 19000
L32000 19000
" />
</g>
<g style="fill:#008484; fill-opacity:0.0; 
stroke:#008484; stroke-width:60; stroke-opacity:1; 
stroke-linecap:round; stroke-linejoin:round;">
<path d="M28720 19230
L28720 18730
L28910 18730
L28960 18750
L28980 18770
L29000 18820
L29000 18890
L28980 18940
L28960 18960
L28910 18990
L28720 18990
" />
<path d="M29480 18750
L29430 18730
L29360 18730
L29290 18750
L29240 18800
L29220 18850
L29200 18940
L29200 19010
L29220 19110
L29240 19150
L29290 19200
L29360 19230
L29410 19230
L29480 19200
L29500 19180
L29500 19010
L29410 19010
" />
</g>
<g style="fill:#840000; fill-opacity:0.0; 
stroke:#840000; stroke-width:60; stroke-opacity:1; 
stroke-linecap:round; stroke-linejoin:round;">
<path d="M31090 18540
L31090 18880
" />
<path d="M30970 18350
L30860 18710
L31160 18710
" />
<path d="M30000 21000
L32000 21000
" />
</g>
<g style="fill:#008484; fill-opacity:0.0; 
stroke:#008484; stroke-width:60; stroke-opacity:1; 
stroke-linecap:round; stroke-linejoin:round;">
<path d="M28960 20960
L28790 20960
" />
<path d="M28790 21230
L28790 20730
L29030 20730
" />
<path d="M29390 20960
L29460 20990
L29480 21010
L29500 21060
L29500 21130
L29480 21180
L29460 21200
L29410 21230
L29220 21230
L29220 20730
L29390 20730
L29430 20750
L29460 20770
L29480 20820
L29480 20870
L29460 20920
L29430 20940
L29390 20960
L29220 20960
" />
</g>
<g style="fill:#840000; fill-opacity:0.0; 
stroke:#840000; stroke-width:60; stroke-opacity:1; 
stroke-linecap:round; stroke-linejoin:round;">
<path d="M31120 20380
L30880 20380
L30860 20610
L30880 20590
L30930 20570
L31050 20570
L31090 20590
L31120 20610
L31140 20660
L31140 20780
L31120 20830
L31090 20850
L31050 20880
L30930 20880
L30880 20850
L30860 20830
" />
<path d="M21000 23000
L19000 23000
" />
</g>
<g style="fill:#008484; fill-opacity:0.0; 
stroke:#008484; stroke-width:60; stroke-opacity:1; 
stroke-linecap:round; stroke-linejoin:round;">
<path d="M21690 22960
L21520 22960
" />
<path d="M21520 23230
L21520 22730
L21760 22730
" />
<path d="M21930 23200
L22000 23230
L22120 23230
L22160 23200
L22190 23180
L22210 23130
L22210 23080
L22190 23040
L22160 23010
L22120 22990
L22020 22960
L21970 22940
L21950 22920
L21930 22870
L21930 22820
L21950 22770
L21970 22750
L22020 22730
L22140 22730
L22210 22750
" />
<path d="M22380 22730
L22500 23230
L22600 22870
L22690 23230
L22810 22730
" />
</g>
<g style="fill:#840000; fill-opacity:0.0; 
stroke:#840000; stroke-width:60; stroke-opacity:1; 
stroke-linecap:round; stroke-linejoin:round;">
<path d="M19830 22380
L20160 22380
L19950 22880
" />
<path d="M21000 21000
L19000 21000
" />
</g>
<g style="fill:#008484; fill-opacity:0.0; 
stroke:#008484; stroke-width:60; stroke-opacity:1; 
stroke-linecap:round; stroke-linejoin:round;">
<path d="M21520 21230
L21520 20730
L21640 20730
L21710 20750
L21760 20800
L21780 20850
L21800 20940
L21800 21010
L21780 21110
L21760 21150
L21710 21200
L21640 21230
L21520 21230
" />
<path d="M22020 20960
L22190 20960
" />
<path d="M22260 21230
L22020 21230
L22020 20730
L22260 20730
" />
<path d="M22640 20960
L22470 20960
" />
<path d="M22470 21230
L22470 20730
L22710 20730
" />
</g>
<g style="fill:#840000; fill-opacity:0.0; 
stroke:#840000; stroke-width:60; stroke-opacity:1; 
stroke-linecap:round; stroke-linejoin:round;">
<path d="M19950 20590
L19900 20570
L19880 20540
L19860 20500
L19860 20470
L19880 20420
L19900 20400
L19950 20380
L20050 20380
L20090 20400
L20120 20420
L20140 20470
L20140 20500
L20120 20540
L20090 20570
L20050 20590
L19950 20590
L19900 20610
L19880 20640
L19860 20690
L19860 20780
L19880 20830
L19900 20850
L19950 20880
L20050 20880
L20090 20850
L20120 20830
L20140 20780
L20140 20690
L20120 20640
L20090 20610
L20050 20590
" />
<path d="M21000 19000
L19000 19000
" />
</g>
<g style="fill:#008484; fill-opacity:0.0; 
stroke:#008484; stroke-width:60; stroke-opacity:1; 
stroke-linecap:round; stroke-linejoin:round;">
<path d="M21500 19200
L21570 19230
L21690 19230
L21730 19200
L21760 19180
L21780 19130
L21780 19080
L21760 19040
L21730 19010
L21690 18990
L21590 18960
L21540 18940
L21520 18920
L21500 18870
L21500 18820
L21520 18770
L21540 18750
L21590 18730
L21710 18730
L21780 18750
" />
<path d="M21980 19200
L22050 19230
L22170 19230
L22210 19200
L22240 19180
L22260 19130
L22260 19080
L22240 19040
L22210 19010
L22170 18990
L22070 18960
L22020 18940
L22000 18920
L21980 18870
L21980 18820
L22000 18770
L22020 18750
L22070 18730
L22190 18730
L22260 18750
" />
<path d="M22840 18700
L22410 19350
" />
<path d="M22930 18730
L23210 18730
" />
<path d="M23070 19230
L23070 18730
" />
<path d="M23660 19230
L23500 18990
" />
<path d="M23380 19230
L23380 18730
L23570 18730
L23620 18750
L23640 18770
L23660 18820
L23660 18890
L23640 18940
L23620 18960
L23570 18990
L23380 18990
" />
</g>
<g style="fill:#840000; fill-opacity:0.0; 
stroke:#840000; stroke-width:60; stroke-opacity:1; 
stroke-linecap:round; stroke-linejoin:round;">
<path d="M19900 18880
L20000 18880
L20050 18850
L20070 18830
L20120 18760
L20140 18660
L20140 18470
L20120 18420
L20090 18400
L20050 18380
L19950 18380
L19900 18400
L19880 18420
L19860 18470
L19860 18590
L19880 18640
L19900 18660
L19950 18690
L20050 18690
L20090 18660
L20120 18640
L20140 18590
" />
<path d="M24500 24000
L24500 26000
" />
</g>
<g style="fill:#008484; fill-opacity:0.0; 
stroke:#008484; stroke-width:60; stroke-opacity:1; 
stroke-linecap:round; stroke-linejoin:round;">
<path d="M24580 23500
L24580 23270
" />
<path d="M24730 23550
L24230 23390
L24730 23220
" />
<path d="M24250 22790
L24230 22840
L24230 22910
L24250 22980
L24300 23030
L24350 23050
L24440 23070
L24510 23070
L24610 23050
L24650 23030
L24700 22980
L24730 22910
L24730 22860
L24700 22790
L24680 22770
L24510 22770
L24510 22860
" />
<path d="M24730 22550
L24230 22550
L24730 22270
L24230 22270
" />
<path d="M24730 22030
L24230 22030
L24230 21910
L24250 21840
L24300 21790
L24350 21770
L24440 21750
L24510 21750
L24610 21770
L24650 21790
L24700 21840
L24730 21910
L24730 22030
" />
</g>
<g style="fill:#840000; fill-opacity:0.0; 
stroke:#840000; stroke-width:60; stroke-opacity:1; 
stroke-linecap:round; stroke-linejoin:round;">
<path d="M21000 15000
L19000 15000
" />
</g>
<g style="fill:#008484; fill-opacity:0.0; 
stroke:#008484; stroke-width:60; stroke-opacity:1; 
stroke-linecap:round; stroke-linejoin:round;">
<path d="M21500 15080
L21730 15080
" />
<path d="M21450 15230
L21610 14730
L21780 15230
" />
<path d="M21880 14730
L22040 15230
L22210 14730
" />
<path d="M22380 15230
L22380 14730
" />
<path d="M22620 15230
L22620 14730
L22900 15230
L22900 14730
" />
</g>
<g style="fill:#840000; fill-opacity:0.0; 
stroke:#840000; stroke-width:60; stroke-opacity:1; 
stroke-linecap:round; stroke-linejoin:round;">
<path d="M19900 14880
L19620 14880
" />
<path d="M19760 14880
L19760 14380
L19710 14450
L19660 14500
L19620 14520
" />
<path d="M20210 14380
L20260 14380
L20310 14400
L20330 14420
L20360 14470
L20380 14570
L20380 14690
L20360 14780
L20330 14830
L20310 14850
L20260 14880
L20210 14880
L20170 14850
L20140 14830
L20120 14780
L20100 14690
L20100 14570
L20120 14470
L20140 14420
L20170 14400
L20210 14380
" />
<path d="M21000 12000
L19000 12000
" />
</g>
<g style="fill:#008484; fill-opacity:0.0; 
stroke:#008484; stroke-width:60; stroke-opacity:1; 
stroke-linecap:round; stroke-linejoin:round;">
<path d="M21520 12230
L21520 11730
L21710 11730
L21760 11750
L21780 11770
L21800 11820
L21800 11890
L21780 11940
L21760 11960
L21710 11990
L21520 11990
" />
<path d="M21950 11730
L22110 12230
L22280 11730
" />
<path d="M22450 12230
L22450 11730
" />
<path d="M22690 12230
L22690 11730
L22970 12230
L22970 11730
" />
</g>
<g style="fill:#840000; fill-opacity:0.0; 
stroke:#840000; stroke-width:60; stroke-opacity:1; 
stroke-linecap:round; stroke-linejoin:round;">
<path d="M19900 11880
L19620 11880
" />
<path d="M19760 11880
L19760 11380
L19710 11450
L19660 11500
L19620 11520
" />
<path d="M20380 11880
L20100 11880
" />
<path d="M20240 11880
L20240 11380
L20190 11450
L20140 11500
L20100 11520
" />
<path d="M21000 13000
L19000 13000
" />
</g>
<g style="fill:#008484; fill-opacity:0.0; 
stroke:#008484; stroke-width:60; stroke-opacity:1; 
stroke-linecap:round; stroke-linejoin:round;">
<path d="M21500 13080
L21730 13080
" />
<path d="M21450 13230
L21610 12730
L21780 13230
" />
<path d="M21880 12730
L22040 13230
L22210 12730
" />
<path d="M22380 13230
L22380 12730
" />
<path d="M22620 13230
L22620 12730
L22900 13230
L22900 12730
" />
</g>
<g style="fill:#840000; fill-opacity:0.0; 
stroke:#840000; stroke-width:60; stroke-opacity:1; 
stroke-linecap:round; stroke-linejoin:round;">
<path d="M19900 12880
L19620 12880
" />
<path d="M19760 12880
L19760 12380
L19710 12450
L19660 12500
L19620 12520
" />
<path d="M20100 12420
L20120 12400
L20170 12380
L20290 12380
L20330 12400
L20360 12420
L20380 12470
L20380 12520
L20360 12590
L20070 12880
L20380 12880
" />
<path d="M21000 17000
L19000 17000
" />
</g>
<g style="fill:#008484; fill-opacity:0.0; 
stroke:#008484; stroke-width:60; stroke-opacity:1; 
stroke-linecap:round; stroke-linejoin:round;">
<path d="M21520 16960
L21690 16960
" />
<path d="M21760 17230
L21520 17230
L21520 16730
L21760 16730
" />
<path d="M21970 17230
L21970 16730
L22250 17230
L22250 16730
" />
</g>
<g style="fill:#840000; fill-opacity:0.0; 
stroke:#840000; stroke-width:60; stroke-opacity:1; 
stroke-linecap:round; stroke-linejoin:round;">
<path d="M19900 16880
L19620 16880
" />
<path d="M19760 16880
L19760 16380
L19710 16450
L19660 16500
L19620 16520
" />
<path d="M20070 16380
L20380 16380
L20210 16570
L20290 16570
L20330 16590
L20360 16610
L20380 16660
L20380 16780
L20360 16830
L20330 16850
L20290 16880
L20140 16880
L20100 16850
L20070 16830
" />
<path d="M30000 16000
L32000 16000
" />
</g>
<g style="fill:#008484; fill-opacity:0.0; 
stroke:#008484; stroke-width:60; stroke-opacity:1; 
stroke-linecap:round; stroke-linejoin:round;">
<path d="M28220 15730
L28380 16230
L28550 15730
" />
<path d="M28810 15730
L28910 15730
L28960 15750
L29000 15800
L29030 15890
L29030 16060
L29000 16150
L28960 16200
L28910 16230
L28810 16230
L28770 16200
L28720 16150
L28700 16060
L28700 15890
L28720 15800
L28770 15750
L28810 15730
" />
<path d="M29220 16200
L29290 16230
L29410 16230
L29450 16200
L29480 16180
L29500 16130
L29500 16080
L29480 16040
L29450 16010
L29410 15990
L29310 15960
L29260 15940
L29240 15920
L29220 15870
L29220 15820
L29240 15770
L29260 15750
L29310 15730
L29430 15730
L29500 15750
" />
</g>
<g style="fill:#840000; fill-opacity:0.0; 
stroke:#840000; stroke-width:60; stroke-opacity:1; 
stroke-linecap:round; stroke-linejoin:round;">
<path d="M30900 15880
L30620 15880
" />
<path d="M30760 15880
L30760 15380
L30710 15450
L30660 15500
L30620 15520
" />
<path d="M31330 15540
L31330 15880
" />
<path d="M31210 15350
L31100 15710
L31400 15710
" />
<path d="M27000 24000
L27000 26000
" />
</g>
<g style="fill:#008484; fill-opacity:0.0; 
stroke:#008484; stroke-width:60; stroke-opacity:1; 
stroke-linecap:round; stroke-linejoin:round;">
<path d="M27230 23480
L26730 23480
L26730 23290
L26750 23240
L26770 23220
L26820 23200
L26890 23200
L26940 23220
L26960 23240
L26990 23290
L26990 23480
" />
<path d="M26750 22720
L26730 22770
L26730 22840
L26750 22910
L26800 22960
L26850 22980
L26940 23000
L27010 23000
L27110 22980
L27150 22960
L27200 22910
L27230 22840
L27230 22790
L27200 22720
L27180 22700
L27010 22700
L27010 22790
" />
<path d="M27230 22480
L26730 22480
L27230 22200
L26730 22200
" />
<path d="M27230 21960
L26730 21960
L26730 21840
L26750 21770
L26800 21720
L26850 21700
L26940 21680
L27010 21680
L27110 21700
L27150 21720
L27200 21770
L27230 21840
L27230 21960
" />
</g>
<g style="fill:#840000; fill-opacity:0.0; 
stroke:#840000; stroke-width:60; stroke-opacity:1; 
stroke-linecap:round; stroke-linejoin:round;">
<path d="M26880 25100
L26880 25380
" />
<path d="M26880 25240
L26380 25240
L26450 25290
L26500 25340
L26520 25380
" />
<path d="M26380 24640
L26380 24880
L26610 24900
L26590 24880
L26570 24830
L26570 24710
L26590 24670
L26610 24640
L26660 24620
L26780 24620
L26830 24640
L26850 24670
L26880 24710
L26880 24830
L26850 24880
L26830 24900
" />
<path d="M28000 24000
L28000 26000
" />
</g>
<g style="fill:#008484; fill-opacity:0.0; 
stroke:#008484; stroke-width:60; stroke-opacity:1; 
stroke-linecap:round; stroke-linejoin:round;">
<path d="M28230 23480
L27730 23480
L27730 23290
L27750 23240
L27770 23220
L27820 23200
L27890 23200
L27940 23220
L27960 23240
L27990 23290
L27990 23480
" />
<path d="M27750 22720
L27730 22770
L27730 22840
L27750 22910
L27800 22960
L27850 22980
L27940 23000
L28010 23000
L28110 22980
L28150 22960
L28200 22910
L28230 22840
L28230 22790
L28200 22720
L28180 22700
L28010 22700
L28010 22790
" />
<path d="M28230 22480
L27730 22480
L28230 22200
L27730 22200
" />
<path d="M28230 21960
L27730 21960
L27730 21840
L27750 21770
L27800 21720
L27850 21700
L27940 21680
L28010 21680
L28110 21700
L28150 21720
L28200 21770
L28230 21840
L28230 21960
" />
</g>
<g style="fill:#840000; fill-opacity:0.0; 
stroke:#840000; stroke-width:60; stroke-opacity:1; 
stroke-linecap:round; stroke-linejoin:round;">
<path d="M27880 25100
L27880 25380
" />
<path d="M27880 25240
L27380 25240
L27450 25290
L27500 25340
L27520 25380
" />
<path d="M27380 24670
L27380 24760
L27400 24810
L27420 24830
L27500 24880
L27590 24900
L27780 24900
L27830 24880
L27850 24860
L27880 24810
L27880 24710
L27850 24670
L27830 24640
L27780 24620
L27660 24620
L27610 24640
L27590 24670
L27570 24710
L27570 24810
L27590 24860
L27610 24880
L27660 24900
" />
</g>
<g style="fill:#008484; fill-opacity:0.0; 
stroke:#008484; stroke-width:60; stroke-opacity:1; 
stroke-linecap:round; stroke-linejoin:round;">
<path d="M25040 18140
L25040 18630
L25070 18680
L25100 18710
L25160 18740
L25270 18740
L25330 18710
L25360 18680
L25390 18630
L25390 18140
" />
<path d="M25990 18740
L25640 18740
" />
<path d="M25820 18740
L25820 18140
L25760 18230
L25700 18280
L25640 18310
" />
<path d="M23320 11640
L23660 11640
" />
<path d="M23490 12240
L23490 11640
" />
<path d="M23860 12240
L23860 11640
L24090 11640
L24150 11670
L24180 11700
L24210 11760
L24210 11840
L24180 11900
L24150 11930
L24090 11960
L23860 11960
" />
<path d="M24430 12210
L24520 12240
L24660 12240
L24720 12210
L24750 12180
L24780 12130
L24780 12070
L24750 12010
L24720 11980
L24660 11960
L24550 11930
L24490 11900
L24460 11870
L24430 11810
L24430 11760
L24460 11700
L24490 11670
L24550 11640
L24690 11640
L24780 11670
" />
<path d="M25290 11640
L25180 11640
L25120 11670
L25090 11700
L25030 11780
L25000 11900
L25000 12130
L25030 12180
L25060 12210
L25120 12240
L25230 12240
L25290 12210
L25320 12180
L25350 12130
L25350 11980
L25320 11930
L25290 11900
L25230 11870
L25120 11870
L25060 11900
L25030 11930
L25000 11980
" />
<path d="M25570 11700
L25600 11670
L25660 11640
L25800 11640
L25860 11670
L25890 11700
L25920 11760
L25920 11810
L25890 11900
L25550 12240
L25920 12240
" />
<path d="M26490 12240
L26140 12240
" />
<path d="M26320 12240
L26320 11640
L26260 11730
L26200 11780
L26140 11810
" />
<path d="M26690 11640
L27060 11640
L26860 11870
L26940 11870
L27000 11900
L27030 11930
L27060 11980
L27060 12130
L27030 12180
L27000 12210
L26940 12240
L26770 12240
L26710 12210
L26690 12180
" />
<path d="M27260 11640
L27630 11640
L27430 11870
L27510 11870
L27570 11900
L27600 11930
L27630 11980
L27630 12130
L27600 12180
L27570 12210
L27510 12240
L27340 12240
L27280 12210
L27260 12180
" />
</g>
<g style="fill:#008484; fill-opacity:0.0; 
stroke:#008484; stroke-width:0; stroke-opacity:1; 
stroke-linecap:round; stroke-linejoin:round;">
</g>
<g style="fill:#840000; fill-opacity:0.0; 
stroke:#840000; stroke-width:60; stroke-opacity:1; 
stroke-linecap:round; stroke-linejoin:round;">
<polyline fill="none;"
points="24500,29000
24500,29500
25000,29500
24500,30000
24000,29500
24500,29500
" /> 
</g>
<g style="fill:#008484; fill-opacity:0.0; 
stroke:#008484; stroke-width:60; stroke-opacity:1; 
stroke-linecap:round; stroke-linejoin:round;">
<path d="M24120 30220
L24070 30200
L24000 30200
L23930 30220
L23880 30270
L23860 30320
L23840 30410
L23840 30480
L23860 30580
L23880 30620
L23930 30670
L24000 30700
L24050 30700
L24120 30670
L24140 30650
L24140 30480
L24050 30480
" />
<path d="M24360 30700
L24360 30200
L24640 30700
L24640 30200
" />
<path d="M24880 30700
L24880 30200
L25000 30200
L25070 30220
L25120 30270
L25140 30320
L25160 30410
L25160 30480
L25140 30580
L25120 30620
L25070 30670
L25000 30700
L24880 30700
" />
</g>
<g style="fill:#008484; fill-opacity:0.0; 
stroke:#008484; stroke-width:0; stroke-opacity:1; 
stroke-linecap:round; stroke-linejoin:round;">
</g>
<g style="fill:#840000; fill-opacity:0.0; 
stroke:#840000; stroke-width:60; stroke-opacity:1; 
stroke-linecap:round; stroke-linejoin:round;">
<polyline fill="none;"
points="14500,24500
14500,25000
15000,25000
14500,25500
14000,25000
14500,25000
" /> 
</g>
<g style="fill:#008484; fill-opacity:0.0; 
stroke:#008484; stroke-width:60; stroke-opacity:1; 
stroke-linecap:round; stroke-linejoin:round;">
<path d="M14120 25720
L14070 25700
L14000 25700
L13930 25720
L13880 25770
L13860 25820
L13840 25910
L13840 25980
L13860 26080
L13880 26120
L13930 26170
L14000 26200
L14050 26200
L14120 26170
L14140 26150
L14140 25980
L14050 25980
" />
<path d="M14360 26200
L14360 25700
L14640 26200
L14640 25700
" />
<path d="M14880 26200
L14880 25700
L15000 25700
L15070 25720
L15120 25770
L15140 25820
L15160 25910
L15160 25980
L15140 26080
L15120 26120
L15070 26170
L15000 26200
L14880 26200
" />
</g>
<g style="fill:#008484; fill-opacity:0.0; 
stroke:#008484; stroke-width:0; stroke-opacity:1; 
stroke-linecap:round; stroke-linejoin:round;">
</g>
<g style="fill:#840000; fill-opacity:0.0; 
stroke:#840000; stroke-width:130; stroke-opacity:1; 
stroke-linecap:round; stroke-linejoin:round;">
<polyline fill="none;"
points="13900,17700
15100,17700
" /> 
</g>
<g style="fill:#840000; fill-opacity:0.0; 
stroke:#840000; stroke-width:120; stroke-opacity:1; 
stroke-linecap:round; stroke-linejoin:round;">
<polyline fill="none;"
points="13900,17300
15100,17300
" /> 
</g>
<g style="fill:#840000; fill-opacity:0.0; 
stroke:#840000; stroke-width:60; stroke-opacity:1; 
stroke-linecap:round; stroke-linejoin:round;">
<path d="M14500 17250
L14500 16500
" />
<path d="M14500 17700
L14500 18500
" />
</g>
<g style="fill:#008484; fill-opacity:0.0; 
stroke:#008484; stroke-width:60; stroke-opacity:1; 
stroke-linecap:round; stroke-linejoin:round;">
<path d="M15000 16950
L14980 16970
L14910 17000
L14860 17000
L14790 16970
L14740 16920
L14720 16880
L14700 16780
L14700 16710
L14720 16620
L14740 16570
L14790 16520
L14860 16500
L14910 16500
L14980 16520
L15000 16540
" />
<path d="M15200 16540
L15220 16520
L15270 16500
L15390 16500
L15430 16520
L15460 16540
L15480 16590
L15480 16640
L15460 16710
L15170 17000
L15480 17000
" />
<path d="M14810 18000
L14860 18000
L14910 18020
L14930 18040
L14960 18090
L14980 18190
L14980 18310
L14960 18400
L14930 18450
L14910 18470
L14860 18500
L14810 18500
L14770 18470
L14740 18450
L14720 18400
L14700 18310
L14700 18190
L14720 18090
L14740 18040
L14770 18020
L14810 18000
" />
<path d="M15200 18450
L15220 18470
L15200 18500
L15180 18470
L15200 18450
L15200 18500
" />
<path d="M15700 18500
L15420 18500
" />
<path d="M15560 18500
L15560 18000
L15510 18070
L15460 18120
L15420 18140
" />
<path d="M16130 18160
L16130 18500
" />
<path d="M15920 18160
L15920 18420
L15940 18470
L15990 18500
L16060 18500
L16110 18470
L16130 18450
" />
</g>
<g style="fill:#008484; fill-opacity:0.0; 
stroke:#008484; stroke-width:0; stroke-opacity:1; 
stroke-linecap:round; stroke-linejoin:round;">
</g>
<g style="fill:#840000; fill-opacity:0.0; 
stroke:#840000; stroke-width:130; stroke-opacity:1; 
stroke-linecap:round; stroke-linejoin:round;">
<polyline fill="none;"
points="16800,18400
16800,19600
" /> 
</g>
<g style="fill:#840000; fill-opacity:0.0; 
stroke:#840000; stroke-width:120; stroke-opacity:1; 
stroke-linecap:round; stroke-linejoin:round;">
<polyline fill="none;"
points="17200,18400
17200,19600
" /> 
</g>
<g style="fill:#840000; fill-opacity:0.0; 
stroke:#840000; stroke-width:60; stroke-opacity:1; 
stroke-linecap:round; stroke-linejoin:round;">
<path d="M17250 19000
L18000 19000
" />
<path d="M16800 19000
L16000 19000
" />
</g>
<g style="fill:#008484; fill-opacity:0.0; 
stroke:#008484; stroke-width:60; stroke-opacity:1; 
stroke-linecap:round; stroke-linejoin:round;">
<path d="M17910 19680
L17930 19700
L17960 19770
L17960 19820
L17930 19890
L17880 19940
L17840 19960
L17740 19980
L17670 19980
L17580 19960
L17530 19940
L17480 19890
L17460 19820
L17460 19770
L17480 19700
L17500 19680
" />
<path d="M17460 19510
L17460 19200
L17650 19370
L17650 19290
L17670 19250
L17690 19220
L17740 19200
L17860 19200
L17910 19220
L17930 19250
L17960 19290
L17960 19440
L17930 19480
L17910 19510
" />
<path d="M16240 20670
L16240 20360
L16430 20530
L16430 20450
L16450 20410
L16470 20380
L16520 20360
L16640 20360
L16690 20380
L16710 20410
L16740 20450
L16740 20600
L16710 20640
L16690 20670
" />
<path d="M16690 20140
L16710 20120
L16740 20140
L16710 20160
L16690 20140
L16740 20140
" />
<path d="M16240 19950
L16240 19640
L16430 19810
L16430 19730
L16450 19690
L16470 19660
L16520 19640
L16640 19640
L16690 19660
L16710 19690
L16740 19730
L16740 19880
L16710 19920
L16690 19950
" />
<path d="M16400 19210
L16740 19210
" />
<path d="M16400 19420
L16660 19420
L16710 19400
L16740 19350
L16740 19280
L16710 19230
L16690 19210
" />
</g>
<g style="fill:#008484; fill-opacity:0.0; 
stroke:#008484; stroke-width:0; stroke-opacity:1; 
stroke-linecap:round; stroke-linejoin:round;">
</g>
<g style="fill:#840000; fill-opacity:0.0; 
stroke:#840000; stroke-width:60; stroke-opacity:1; 
stroke-linecap:round; stroke-linejoin:round;">
<path d="M36000 11999.1 A500 500 0.0 0 0 35000 11999.1 " />
<path d="M37000 11999.1 A500 500 0.0 0 0 36000 11999.1 " />
<path d="M38000 11999.1 A500 500 0.0 0 0 37000 11999.1 " />
<path d="M39000 11999.1 A500 500 0.0 0 0 38000 11999.1 " />
<path d="M35000 12000
L34500 12000
" />
<path d="M39000 12000
L39500 12000
" />
</g>
<g style="fill:#008484; fill-opacity:0.0; 
stroke:#008484; stroke-width:60; stroke-opacity:1; 
stroke-linecap:round; stroke-linejoin:round;">
<path d="M36920 11200
L36680 11200
L36680 10700
" />
<path d="M37340 11200
L37060 11200
" />
<path d="M37200 11200
L37200 10700
L37150 10770
L37100 10820
L37060 10840
" />
<path d="M36400 12240
L36420 12220
L36470 12200
L36590 12200
L36630 12220
L36660 12240
L36680 12290
L36680 12340
L36660 12410
L36370 12700
L36680 12700
" />
<path d="M36880 12240
L36900 12220
L36950 12200
L37070 12200
L37110 12220
L37140 12240
L37160 12290
L37160 12340
L37140 12410
L36850 12700
L37160 12700
" />
<path d="M37590 12360
L37590 12700
" />
<path d="M37380 12360
L37380 12620
L37400 12670
L37450 12700
L37520 12700
L37570 12670
L37590 12650
" />
</g>
<g style="fill:#008484; fill-opacity:0.0; 
stroke:#008484; stroke-width:0; stroke-opacity:1; 
stroke-linecap:round; stroke-linejoin:round;">
</g>
<g style="fill:#840000; fill-opacity:0.0; 
stroke:#840000; stroke-width:100; stroke-opacity:1; 
stroke-linecap:round; stroke-linejoin:round;">
<rect x="51000" y="8000" width="0" height="1000" rx="0" />
</g>
<g style="fill:#840000; fill-opacity:0.0; 
stroke:#840000; stroke-width:60; stroke-opacity:1; 
stroke-linecap:round; stroke-linejoin:round;">
<rect x="51000" y="8000" width="0" height="0" rx="0" />
</g>
<g style="fill:#840000; fill-opacity:0.0; 
stroke:#840000; stroke-width:100; stroke-opacity:1; 
stroke-linecap:round; stroke-linejoin:round;">
<rect x="51000" y="8000" width="1500" height="0" rx="0" />
<rect x="51000" y="9000" width="1500" height="0" rx="0" />
<rect x="52500" y="8000" width="0" height="1000" rx="0" />
</g>
<g style="fill:#840000; fill-opacity:0.0; 
stroke:#840000; stroke-width:60; stroke-opacity:1; 
stroke-linecap:round; stroke-linejoin:round;">
<polyline fill="none;"
points="50500,10500
49500,12000
49500,12000
" /> 
<polyline fill="none;"
points="53000,10500
54000,12000
54000,12000
" /> 
<polyline fill="none;"
points="51000,14500
51500,14000
51500,10500
51500,10500
" /> 
<polyline fill="none;"
points="51000,10500
51000,12500
49500,13500
49500,13500
" /> 
<polyline fill="none;"
points="52000,10500
52000,14000
52500,14500
52500,14500
" /> 
<polyline fill="none;"
points="52500,10500
52500,12500
54000,13500
54000,13500
" /> 
</g>
<g style="fill:#840000; fill-opacity:0.0; 
stroke:#840000; stroke-width:150; stroke-opacity:1; 
stroke-linecap:round; stroke-linejoin:round;">
<polyline fill="none;"
points="50000,10500
53500,10500
53500,6500
50000,6500
50000,10500
50000,10500
" /> 
</g>
<g style="fill:#840000; fill-opacity:0.0; 
stroke:#840000; stroke-width:100; stroke-opacity:1; 
stroke-linecap:round; stroke-linejoin:round;">
<polyline fill="none;"
points="50500,10000
53000,10000
53000,7500
52500,7000
51000,7000
50500,7500
50500,10000
50500,10000
50500,10000
" /> 
</g>
<g style="fill:#840000; fill-opacity:0.0; 
stroke:#840000; stroke-width:60; stroke-opacity:1; 
stroke-linecap:round; stroke-linejoin:round;">
<path d="M49500 12000
L48000 12000
" />
</g>
<g style="fill:#008484; fill-opacity:0.0; 
stroke:#008484; stroke-width:60; stroke-opacity:1; 
stroke-linecap:round; stroke-linejoin:round;">
</g>
<g style="fill:#008484; fill-opacity:0.0; 
stroke:#008484; stroke-width:50; stroke-opacity:1; 
stroke-linecap:round; stroke-linejoin:round;">
<path d="M48260 11590
L48360 11890
L48460 11590
" />
<path d="M48560 11890
L48560 11590
" />
<path d="M48560 11700
L48590 11690
L48650 11690
L48680 11700
L48690 11710
L48700 11740
L48700 11830
L48690 11860
L48680 11870
L48650 11890
L48590 11890
L48560 11870
" />
<path d="M48960 11690
L48960 11890
" />
<path d="M48830 11690
L48830 11840
L48850 11870
L48870 11890
L48920 11890
L48950 11870
L48960 11860
" />
<path d="M49090 11870
L49120 11890
L49170 11890
L49200 11870
L49220 11840
L49220 11830
L49200 11800
L49170 11790
L49130 11790
L49100 11770
L49090 11740
L49090 11730
L49100 11700
L49130 11690
L49170 11690
L49200 11700
" />
</g>
<g style="fill:#008484; fill-opacity:0.0; 
stroke:#008484; stroke-width:60; stroke-opacity:1; 
stroke-linecap:round; stroke-linejoin:round;">
</g>
<g style="fill:#840000; fill-opacity:0.0; 
stroke:#840000; stroke-width:60; stroke-opacity:1; 
stroke-linecap:round; stroke-linejoin:round;">
<path d="M48860 12480
L48640 12480
" />
<path d="M48750 12480
L48750 12080
L48710 12140
L48670 12180
L48640 12200
" />
<path d="M54000 13500
L55500 13500
" />
</g>
<g style="fill:#008484; fill-opacity:0.0; 
stroke:#008484; stroke-width:60; stroke-opacity:1; 
stroke-linecap:round; stroke-linejoin:round;">
</g>
<g style="fill:#008484; fill-opacity:0.0; 
stroke:#008484; stroke-width:50; stroke-opacity:1; 
stroke-linecap:round; stroke-linejoin:round;">
<path d="M54490 13390
L54490 13090
L54560 13090
L54610 13100
L54630 13130
L54650 13160
L54660 13210
L54660 13260
L54650 13310
L54630 13340
L54610 13370
L54560 13390
L54490 13390
" />
<path d="M54790 13270
L55020 13270
" />
</g>
<g style="fill:#008484; fill-opacity:0.0; 
stroke:#008484; stroke-width:60; stroke-opacity:1; 
stroke-linecap:round; stroke-linejoin:round;">
</g>
<g style="fill:#840000; fill-opacity:0.0; 
stroke:#840000; stroke-width:60; stroke-opacity:1; 
stroke-linecap:round; stroke-linejoin:round;">
<path d="M54640 13620
L54660 13600
L54690 13580
L54790 13580
L54830 13600
L54850 13620
L54860 13660
L54860 13700
L54850 13750
L54620 13980
L54860 13980
" />
<path d="M54000 12000
L55500 12000
" />
</g>
<g style="fill:#008484; fill-opacity:0.0; 
stroke:#008484; stroke-width:60; stroke-opacity:1; 
stroke-linecap:round; stroke-linejoin:round;">
</g>
<g style="fill:#008484; fill-opacity:0.0; 
stroke:#008484; stroke-width:50; stroke-opacity:1; 
stroke-linecap:round; stroke-linejoin:round;">
<path d="M54490 11890
L54490 11590
L54560 11590
L54610 11600
L54630 11630
L54650 11660
L54660 11710
L54660 11760
L54650 11810
L54630 11840
L54610 11870
L54560 11890
L54490 11890
" />
<path d="M54790 11770
L55020 11770
" />
<path d="M54910 11890
L54910 11660
" />
</g>
<g style="fill:#008484; fill-opacity:0.0; 
stroke:#008484; stroke-width:60; stroke-opacity:1; 
stroke-linecap:round; stroke-linejoin:round;">
</g>
<g style="fill:#840000; fill-opacity:0.0; 
stroke:#840000; stroke-width:60; stroke-opacity:1; 
stroke-linecap:round; stroke-linejoin:round;">
<path d="M54620 12080
L54860 12080
L54730 12230
L54790 12230
L54830 12250
L54850 12270
L54860 12310
L54860 12400
L54850 12440
L54830 12460
L54790 12480
L54670 12480
L54640 12460
L54620 12440
" />
<path d="M49500 13500
L48000 13500
" />
</g>
<g style="fill:#008484; fill-opacity:0.0; 
stroke:#008484; stroke-width:60; stroke-opacity:1; 
stroke-linecap:round; stroke-linejoin:round;">
</g>
<g style="fill:#008484; fill-opacity:0.0; 
stroke:#008484; stroke-width:50; stroke-opacity:1; 
stroke-linecap:round; stroke-linejoin:round;">
<path d="M48530 13100
L48500 13090
L48460 13090
L48410 13100
L48390 13130
L48370 13160
L48360 13210
L48360 13260
L48370 13310
L48390 13340
L48410 13370
L48460 13390
L48490 13390
L48530 13370
L48540 13360
L48540 13260
L48490 13260
" />
<path d="M48670 13390
L48670 13090
L48840 13390
L48840 13090
" />
<path d="M48980 13390
L48980 13090
L49050 13090
L49100 13100
L49120 13130
L49140 13160
L49150 13210
L49150 13260
L49140 13310
L49120 13340
L49100 13370
L49050 13390
L48980 13390
" />
</g>
<g style="fill:#008484; fill-opacity:0.0; 
stroke:#008484; stroke-width:60; stroke-opacity:1; 
stroke-linecap:round; stroke-linejoin:round;">
</g>
<g style="fill:#840000; fill-opacity:0.0; 
stroke:#840000; stroke-width:60; stroke-opacity:1; 
stroke-linecap:round; stroke-linejoin:round;">
<path d="M48830 13710
L48830 13980
" />
<path d="M48730 13560
L48640 13850
L48880 13850
" />
<path d="M52500 14500
L55500 14500
" />
</g>
<g style="fill:#008484; fill-opacity:0.0; 
stroke:#008484; stroke-width:60; stroke-opacity:1; 
stroke-linecap:round; stroke-linejoin:round;">
</g>
<g style="fill:#008484; fill-opacity:0.0; 
stroke:#008484; stroke-width:50; stroke-opacity:1; 
stroke-linecap:round; stroke-linejoin:round;">
<path d="M53110 14370
L53150 14390
L53220 14390
L53250 14370
L53260 14360
L53280 14330
L53280 14300
L53260 14270
L53250 14260
L53220 14240
L53160 14230
L53140 14210
L53120 14200
L53110 14170
L53110 14140
L53120 14110
L53140 14100
L53160 14090
L53240 14090
L53280 14100
" />
<path d="M53410 14390
L53410 14090
" />
<path d="M53540 14390
L53540 14230
L53530 14200
L53500 14190
L53450 14190
L53430 14200
L53410 14210
" />
<path d="M53680 14390
L53680 14190
" />
<path d="M53680 14090
L53670 14100
L53680 14110
L53700 14100
L53680 14090
L53680 14110
" />
<path d="M53940 14370
L53910 14390
L53850 14390
L53820 14370
L53810 14340
L53810 14230
L53820 14200
L53850 14190
L53910 14190
L53940 14200
L53950 14230
L53950 14260
L53810 14290
" />
<path d="M54120 14390
L54100 14370
L54080 14340
L54080 14090
" />
<path d="M54370 14390
L54370 14090
" />
<path d="M54370 14370
L54340 14390
L54280 14390
L54260 14370
L54240 14360
L54230 14330
L54230 14240
L54240 14210
L54260 14200
L54280 14190
L54340 14190
L54370 14200
" />
<path d="M54440 14410
L54670 14410
" />
<path d="M54900 14390
L54730 14390
" />
<path d="M54810 14390
L54810 14090
L54780 14130
L54760 14160
L54730 14170
" />
</g>
<g style="fill:#008484; fill-opacity:0.0; 
stroke:#008484; stroke-width:60; stroke-opacity:1; 
stroke-linecap:round; stroke-linejoin:round;">
</g>
<g style="fill:#840000; fill-opacity:0.0; 
stroke:#840000; stroke-width:60; stroke-opacity:1; 
stroke-linecap:round; stroke-linejoin:round;">
<path d="M54100 14580
L53910 14580
L53890 14770
L53910 14750
L53940 14730
L54040 14730
L54080 14750
L54100 14770
L54110 14810
L54110 14900
L54100 14940
L54080 14960
L54040 14980
L53940 14980
L53910 14960
L53890 14940
" />
<path d="M51000 14500
L48000 14500
" />
</g>
<g style="fill:#008484; fill-opacity:0.0; 
stroke:#008484; stroke-width:60; stroke-opacity:1; 
stroke-linecap:round; stroke-linejoin:round;">
</g>
<g style="fill:#008484; fill-opacity:0.0; 
stroke:#008484; stroke-width:50; stroke-opacity:1; 
stroke-linecap:round; stroke-linejoin:round;">
<path d="M48610 14370
L48650 14390
L48720 14390
L48750 14370
L48760 14360
L48780 14330
L48780 14300
L48760 14270
L48750 14260
L48720 14240
L48660 14230
L48640 14210
L48620 14200
L48610 14170
L48610 14140
L48620 14110
L48640 14100
L48660 14090
L48740 14090
L48780 14100
" />
<path d="M48910 14390
L48910 14090
" />
<path d="M49040 14390
L49040 14230
L49030 14200
L49000 14190
L48950 14190
L48930 14200
L48910 14210
" />
<path d="M49180 14390
L49180 14190
" />
<path d="M49180 14090
L49170 14100
L49180 14110
L49200 14100
L49180 14090
L49180 14110
" />
<path d="M49440 14370
L49410 14390
L49350 14390
L49320 14370
L49310 14340
L49310 14230
L49320 14200
L49350 14190
L49410 14190
L49440 14200
L49450 14230
L49450 14260
L49310 14290
" />
<path d="M49620 14390
L49600 14370
L49580 14340
L49580 14090
" />
<path d="M49870 14390
L49870 14090
" />
<path d="M49870 14370
L49840 14390
L49780 14390
L49760 14370
L49740 14360
L49730 14330
L49730 14240
L49740 14210
L49760 14200
L49780 14190
L49840 14190
L49870 14200
" />
<path d="M49940 14410
L50170 14410
" />
<path d="M50230 14110
L50240 14100
L50270 14090
L50340 14090
L50370 14100
L50380 14110
L50400 14140
L50400 14170
L50380 14210
L50210 14390
L50400 14390
" />
</g>
<g style="fill:#008484; fill-opacity:0.0; 
stroke:#008484; stroke-width:60; stroke-opacity:1; 
stroke-linecap:round; stroke-linejoin:round;">
</g>
<g style="fill:#840000; fill-opacity:0.0; 
stroke:#840000; stroke-width:60; stroke-opacity:1; 
stroke-linecap:round; stroke-linejoin:round;">
<path d="M49580 14580
L49500 14580
L49460 14600
L49440 14620
L49410 14680
L49390 14750
L49390 14900
L49410 14940
L49420 14960
L49460 14980
L49540 14980
L49580 14960
L49600 14940
L49610 14900
L49610 14810
L49600 14770
L49580 14750
L49540 14730
L49460 14730
L49420 14750
L49410 14770
L49390 14810
" />
</g>
<g style="fill:#008484; fill-opacity:0.0; 
stroke:#008484; stroke-width:60; stroke-opacity:1; 
stroke-linecap:round; stroke-linejoin:round;">
<path d="M51300 5640
L51300 6070
L51280 6160
L51220 6210
L51130 6240
L51080 6240
" />
<path d="M51910 6240
L51560 6240
" />
<path d="M51740 6240
L51740 5640
L51680 5730
L51620 5780
L51560 5810
" />
<path d="M49140 9260
L49630 9260
L49680 9230
L49710 9200
L49740 9140
L49740 9030
L49710 8970
L49680 8940
L49630 8910
L49140 8910
" />
<path d="M49710 8660
L49740 8570
L49740 8430
L49710 8370
L49680 8340
L49630 8310
L49570 8310
L49510 8340
L49480 8370
L49460 8430
L49430 8540
L49400 8600
L49370 8630
L49310 8660
L49260 8660
L49200 8630
L49170 8600
L49140 8540
L49140 8400
L49170 8310
" />
<path d="M49430 7860
L49460 7770
L49480 7740
L49540 7710
L49630 7710
L49680 7740
L49710 7770
L49740 7830
L49740 8060
L49140 8060
L49140 7860
L49170 7800
L49200 7770
L49260 7740
L49310 7740
L49370 7770
L49400 7800
L49430 7860
L49430 8060
" />
</g>
<g style="fill:#008484; fill-opacity:0.0; 
stroke:#008484; stroke-width:0; stroke-opacity:1; 
stroke-linecap:round; stroke-linejoin:round;">
</g>
<g style="fill:#840000; fill-opacity:0.0; 
stroke:#840000; stroke-width:60; stroke-opacity:1; 
stroke-linecap:round; stroke-linejoin:round;">
<polyline fill="none;"
points="46500,16500
46500,17000
47000,17000
46500,17500
46000,17000
46500,17000
" /> 
</g>
<g style="fill:#008484; fill-opacity:0.0; 
stroke:#008484; stroke-width:60; stroke-opacity:1; 
stroke-linecap:round; stroke-linejoin:round;">
<path d="M46120 17720
L46070 17700
L46000 17700
L45930 17720
L45880 17770
L45860 17820
L45840 17910
L45840 17980
L45860 18080
L45880 18120
L45930 18170
L46000 18200
L46050 18200
L46120 18170
L46140 18150
L46140 17980
L46050 17980
" />
<path d="M46360 18200
L46360 17700
L46640 18200
L46640 17700
" />
<path d="M46880 18200
L46880 17700
L47000 17700
L47070 17720
L47120 17770
L47140 17820
L47160 17910
L47160 17980
L47140 18080
L47120 18120
L47070 18170
L47000 18200
L46880 18200
" />
</g>
<g style="fill:#008484; fill-opacity:0.0; 
stroke:#008484; stroke-width:0; stroke-opacity:1; 
stroke-linecap:round; stroke-linejoin:round;">
</g>
<g style="fill:#840000; fill-opacity:0.0; 
stroke:#840000; stroke-width:60; stroke-opacity:1; 
stroke-linecap:round; stroke-linejoin:round;">
<polyline fill="none;"
points="57000,15000
57000,15500
57500,15500
57000,16000
56500,15500
57000,15500
" /> 
</g>
<g style="fill:#008484; fill-opacity:0.0; 
stroke:#008484; stroke-width:60; stroke-opacity:1; 
stroke-linecap:round; stroke-linejoin:round;">
<path d="M56620 16220
L56570 16200
L56500 16200
L56430 16220
L56380 16270
L56360 16320
L56340 16410
L56340 16480
L56360 16580
L56380 16620
L56430 16670
L56500 16700
L56550 16700
L56620 16670
L56640 16650
L56640 16480
L56550 16480
" />
<path d="M56860 16700
L56860 16200
L57140 16700
L57140 16200
" />
<path d="M57380 16700
L57380 16200
L57500 16200
L57570 16220
L57620 16270
L57640 16320
L57660 16410
L57660 16480
L57640 16580
L57620 16620
L57570 16670
L57500 16700
L57380 16700
" />
</g>
<g style="fill:#008484; fill-opacity:0.0; 
stroke:#008484; stroke-width:0; stroke-opacity:1; 
stroke-linecap:round; stroke-linejoin:round;">
</g>
<g style="fill:#840000; fill-opacity:0.0; 
stroke:#840000; stroke-width:100; stroke-opacity:1; 
stroke-linecap:round; stroke-linejoin:round;">
<rect x="41100" y="13500" width="800" height="2000" rx="0" />
</g>
<g style="fill:#840000; fill-opacity:0.0; 
stroke:#840000; stroke-width:60; stroke-opacity:1; 
stroke-linecap:round; stroke-linejoin:round;">
<path d="M41500 13500
L41500 13000
" />
</g>
<g style="fill:#008484; fill-opacity:0.0; 
stroke:#008484; stroke-width:60; stroke-opacity:1; 
stroke-linecap:round; stroke-linejoin:round;">
<path d="M41500 15500
L41500 16000
" />
</g>
<g style="fill:#008484; fill-opacity:0.0; 
stroke:#008484; stroke-width:60; stroke-opacity:1; 
stroke-linecap:round; stroke-linejoin:round;">
<path d="M42500 14590
L42260 14750
" />
<path d="M42500 14870
L42000 14870
L42000 14680
L42020 14630
L42040 14610
L42090 14590
L42160 14590
L42210 14610
L42230 14630
L42260 14680
L42260 14870
" />
<path d="M42500 14110
L42500 14390
" />
<path d="M42500 14250
L42000 14250
L42070 14300
L42120 14350
L42140 14390
" />
<path d="M41700 15040
L41700 15320
" />
<path d="M41700 15180
L41200 15180
L41270 15230
L41320 15280
L41340 15320
" />
<path d="M41200 14730
L41200 14680
L41220 14630
L41240 14610
L41290 14580
L41390 14560
L41510 14560
L41600 14580
L41650 14610
L41670 14630
L41700 14680
L41700 14730
L41670 14770
L41650 14800
L41600 14820
L41510 14840
L41390 14840
L41290 14820
L41240 14800
L41220 14770
L41200 14730
" />
<path d="M41200 14250
L41200 14200
L41220 14150
L41240 14130
L41290 14100
L41390 14080
L41510 14080
L41600 14100
L41650 14130
L41670 14150
L41700 14200
L41700 14250
L41670 14290
L41650 14320
L41600 14340
L41510 14360
L41390 14360
L41290 14340
L41240 14320
L41220 14290
L41200 14250
" />
<path d="M41700 13860
L41200 13860
" />
<path d="M41510 13810
L41700 13670
" />
<path d="M41360 13670
L41550 13860
" />
</g>
<g style="fill:#008484; fill-opacity:0.0; 
stroke:#008484; stroke-width:0; stroke-opacity:1; 
stroke-linecap:round; stroke-linejoin:round;">
</g>
<g style="fill:#840000; fill-opacity:0.0; 
stroke:#840000; stroke-width:130; stroke-opacity:1; 
stroke-linecap:round; stroke-linejoin:round;">
<polyline fill="none;"
points="10400,16700
11600,16700
" /> 
</g>
<g style="fill:#840000; fill-opacity:0.0; 
stroke:#840000; stroke-width:120; stroke-opacity:1; 
stroke-linecap:round; stroke-linejoin:round;">
<polyline fill="none;"
points="10400,16300
11600,16300
" /> 
</g>
<g style="fill:#840000; fill-opacity:0.0; 
stroke:#840000; stroke-width:60; stroke-opacity:1; 
stroke-linecap:round; stroke-linejoin:round;">
<path d="M11000 16250
L11000 15500
" />
<path d="M11000 16700
L11000 17500
" />
</g>
<g style="fill:#008484; fill-opacity:0.0; 
stroke:#008484; stroke-width:60; stroke-opacity:1; 
stroke-linecap:round; stroke-linejoin:round;">
<path d="M11500 15950
L11480 15970
L11410 16000
L11360 16000
L11290 15970
L11240 15920
L11220 15880
L11200 15780
L11200 15710
L11220 15620
L11240 15570
L11290 15520
L11360 15500
L11410 15500
L11480 15520
L11500 15540
" />
<path d="M11980 16000
L11700 16000
" />
<path d="M11840 16000
L11840 15500
L11790 15570
L11740 15620
L11700 15640
" />
<path d="M11480 17500
L11200 17500
" />
<path d="M11340 17500
L11340 17000
L11290 17070
L11240 17120
L11200 17140
" />
<path d="M11790 17000
L11840 17000
L11890 17020
L11910 17040
L11940 17090
L11960 17190
L11960 17310
L11940 17400
L11910 17450
L11890 17470
L11840 17500
L11790 17500
L11750 17470
L11720 17450
L11700 17400
L11680 17310
L11680 17190
L11700 17090
L11720 17040
L11750 17020
L11790 17000
" />
<path d="M12390 17160
L12390 17500
" />
<path d="M12180 17160
L12180 17420
L12200 17470
L12250 17500
L12320 17500
L12370 17470
L12390 17450
" />
</g>
<g style="fill:#008484; fill-opacity:0.0; 
stroke:#008484; stroke-width:0; stroke-opacity:1; 
stroke-linecap:round; stroke-linejoin:round;">
</g>
<g style="fill:#840000; fill-opacity:0.0; 
stroke:#840000; stroke-width:130; stroke-opacity:1; 
stroke-linecap:round; stroke-linejoin:round;">
<polyline fill="none;"
points="43400,14200
44600,14200
" /> 
</g>
<g style="fill:#840000; fill-opacity:0.0; 
stroke:#840000; stroke-width:120; stroke-opacity:1; 
stroke-linecap:round; stroke-linejoin:round;">
<polyline fill="none;"
points="43400,13800
44600,13800
" /> 
</g>
<g style="fill:#840000; fill-opacity:0.0; 
stroke:#840000; stroke-width:60; stroke-opacity:1; 
stroke-linecap:round; stroke-linejoin:round;">
<path d="M44000 13750
L44000 13000
" />
<path d="M44000 14200
L44000 15000
" />
</g>
<g style="fill:#008484; fill-opacity:0.0; 
stroke:#008484; stroke-width:60; stroke-opacity:1; 
stroke-linecap:round; stroke-linejoin:round;">
<path d="M44500 13450
L44480 13470
L44410 13500
L44360 13500
L44290 13470
L44240 13420
L44220 13380
L44200 13280
L44200 13210
L44220 13120
L44240 13070
L44290 13020
L44360 13000
L44410 13000
L44480 13020
L44500 13040
" />
<path d="M44930 13160
L44930 13500
" />
<path d="M44810 12970
L44700 13330
L45000 13330
" />
<path d="M44480 15000
L44200 15000
" />
<path d="M44340 15000
L44340 14500
L44290 14570
L44240 14620
L44200 14640
" />
<path d="M44790 14500
L44840 14500
L44890 14520
L44910 14540
L44940 14590
L44960 14690
L44960 14810
L44940 14900
L44910 14950
L44890 14970
L44840 15000
L44790 15000
L44750 14970
L44720 14950
L44700 14900
L44680 14810
L44680 14690
L44700 14590
L44720 14540
L44750 14520
L44790 14500
" />
<path d="M45390 14660
L45390 15000
" />
<path d="M45180 14660
L45180 14920
L45200 14970
L45250 15000
L45320 15000
L45370 14970
L45390 14950
" />
</g>
<g style="fill:#008400; fill-opacity:0.0; 
stroke:#008400; stroke-width:60; stroke-opacity:1; 
stroke-linecap:round; stroke-linejoin:round;">
<path d="M33500 27500
L33500 21000
" />
<path d="M33500 21000
L32000 21000
" />
<path d="M32000 19000
L41500 19000
" />
<path d="M41500 19000
L41500 16000
" />
<path d="M39500 12000
L48000 12000
" />
<path d="M41500 12000
L41500 13000
" />
<path d="M32000 12000
L34500 12000
" />
<path d="M32000 13000
L33500 13000
" />
<path d="M33500 12000
L33500 14000
" />
</g>
<g style="fill:#008400; fill-opacity:0.0; 
stroke:#008400; stroke-width:0; stroke-opacity:1; 
stroke-linecap:round; stroke-linejoin:round;">
</g>
<g style="fill:#008400; fill-opacity:1.0; 
stroke:#008400; stroke-width:100; stroke-opacity:1; 
stroke-linecap:round; stroke-linejoin:round;">
<circle cx="33500" cy="12000" r="200" /> 
</g>
<g style="fill:#008400; fill-opacity:1.0; 
stroke:#008400; stroke-width:60; stroke-opacity:1; 
stroke-linecap:round; stroke-linejoin:round;">
</g>
<g style="fill:#008400; fill-opacity:0.0; 
stroke:#008400; stroke-width:60; stroke-opacity:1; 
stroke-linecap:round; stroke-linejoin:round;">
<path d="M33500 14000
L32000 14000
" />
</g>
<g style="fill:#008400; fill-opacity:0.0; 
stroke:#008400; stroke-width:0; stroke-opacity:1; 
stroke-linecap:round; stroke-linejoin:round;">
</g>
<g style="fill:#008400; fill-opacity:1.0; 
stroke:#008400; stroke-width:100; stroke-opacity:1; 
stroke-linecap:round; stroke-linejoin:round;">
<circle cx="33500" cy="13000" r="200" /> 
</g>
<g style="fill:#008400; fill-opacity:1.0; 
stroke:#008400; stroke-width:60; stroke-opacity:1; 
stroke-linecap:round; stroke-linejoin:round;">
</g>
<g style="fill:#008400; fill-opacity:0.0; 
stroke:#008400; stroke-width:60; stroke-opacity:1; 
stroke-linecap:round; stroke-linejoin:round;">
<path d="M40500 12000
L40500 16000
" />
<path d="M40500 16000
L32000 16000
" />
</g>
<g style="fill:#008400; fill-opacity:0.0; 
stroke:#008400; stroke-width:0; stroke-opacity:1; 
stroke-linecap:round; stroke-linejoin:round;">
</g>
<g style="fill:#008400; fill-opacity:1.0; 
stroke:#008400; stroke-width:100; stroke-opacity:1; 
stroke-linecap:round; stroke-linejoin:round;">
<circle cx="40500" cy="12000" r="200" /> 
</g>
<g style="fill:#008400; fill-opacity:1.0; 
stroke:#008400; stroke-width:60; stroke-opacity:1; 
stroke-linecap:round; stroke-linejoin:round;">
</g>
<g style="fill:#008400; fill-opacity:0.0; 
stroke:#008400; stroke-width:60; stroke-opacity:1; 
stroke-linecap:round; stroke-linejoin:round;">
<path d="M44000 12000
L44000 13000
" />
</g>
<g style="fill:#008400; fill-opacity:0.0; 
stroke:#008400; stroke-width:0; stroke-opacity:1; 
stroke-linecap:round; stroke-linejoin:round;">
</g>
<g style="fill:#008400; fill-opacity:1.0; 
stroke:#008400; stroke-width:100; stroke-opacity:1; 
stroke-linecap:round; stroke-linejoin:round;">
<circle cx="41500" cy="12000" r="200" /> 
</g>
<g style="fill:#008400; fill-opacity:1.0; 
stroke:#008400; stroke-width:60; stroke-opacity:1; 
stroke-linecap:round; stroke-linejoin:round;">
</g>
<g style="fill:#008400; fill-opacity:0.0; 
stroke:#008400; stroke-width:60; stroke-opacity:1; 
stroke-linecap:round; stroke-linejoin:round;">
<path d="M24500 26000
L24500 29000
" />
<path d="M27000 26000
L27000 27500
" />
<path d="M24500 27500
L33500 27500
" />
</g>
<g style="fill:#008400; fill-opacity:0.0; 
stroke:#008400; stroke-width:0; stroke-opacity:1; 
stroke-linecap:round; stroke-linejoin:round;">
</g>
<g style="fill:#008400; fill-opacity:1.0; 
stroke:#008400; stroke-width:100; stroke-opacity:1; 
stroke-linecap:round; stroke-linejoin:round;">
<circle cx="24500" cy="27500" r="200" /> 
</g>
<g style="fill:#008400; fill-opacity:1.0; 
stroke:#008400; stroke-width:60; stroke-opacity:1; 
stroke-linecap:round; stroke-linejoin:round;">
</g>
<g style="fill:#008400; fill-opacity:0.0; 
stroke:#008400; stroke-width:60; stroke-opacity:1; 
stroke-linecap:round; stroke-linejoin:round;">
<path d="M28000 27500
L28000 26000
" />
</g>
<g style="fill:#008400; fill-opacity:0.0; 
stroke:#008400; stroke-width:0; stroke-opacity:1; 
stroke-linecap:round; stroke-linejoin:round;">
</g>
<g style="fill:#008400; fill-opacity:1.0; 
stroke:#008400; stroke-width:100; stroke-opacity:1; 
stroke-linecap:round; stroke-linejoin:round;">
<circle cx="27000" cy="27500" r="200" /> 
</g>
<g style="fill:#008400; fill-opacity:1.0; 
stroke:#008400; stroke-width:60; stroke-opacity:1; 
stroke-linecap:round; stroke-linejoin:round;">
</g>
<g style="fill:#008400; fill-opacity:0.0; 
stroke:#008400; stroke-width:60; stroke-opacity:1; 
stroke-linecap:round; stroke-linejoin:round;">
<path d="M19000 21000
L14500 21000
" />
<path d="M14500 21000
L14500 24500
" />
<path d="M19000 23000
L14500 23000
" />
</g>
<g style="fill:#008400; fill-opacity:0.0; 
stroke:#008400; stroke-width:0; stroke-opacity:1; 
stroke-linecap:round; stroke-linejoin:round;">
</g>
<g style="fill:#008400; fill-opacity:1.0; 
stroke:#008400; stroke-width:100; stroke-opacity:1; 
stroke-linecap:round; stroke-linejoin:round;">
<circle cx="14500" cy="23000" r="200" /> 
</g>
<g style="fill:#008400; fill-opacity:1.0; 
stroke:#008400; stroke-width:60; stroke-opacity:1; 
stroke-linecap:round; stroke-linejoin:round;">
</g>
<g style="fill:#008400; fill-opacity:0.0; 
stroke:#008400; stroke-width:60; stroke-opacity:1; 
stroke-linecap:round; stroke-linejoin:round;">
<path d="M11000 11500
L11000 15500
" />
<path d="M11000 12000
L19000 12000
" />
<path d="M19000 13000
L17500 13000
" />
<path d="M17500 12000
L17500 17000
" />
</g>
<g style="fill:#008400; fill-opacity:0.0; 
stroke:#008400; stroke-width:0; stroke-opacity:1; 
stroke-linecap:round; stroke-linejoin:round;">
</g>
<g style="fill:#008400; fill-opacity:1.0; 
stroke:#008400; stroke-width:100; stroke-opacity:1; 
stroke-linecap:round; stroke-linejoin:round;">
<circle cx="17500" cy="12000" r="200" /> 
</g>
<g style="fill:#008400; fill-opacity:1.0; 
stroke:#008400; stroke-width:60; stroke-opacity:1; 
stroke-linecap:round; stroke-linejoin:round;">
</g>
<g style="fill:#008400; fill-opacity:0.0; 
stroke:#008400; stroke-width:60; stroke-opacity:1; 
stroke-linecap:round; stroke-linejoin:round;">
<path d="M17500 15000
L19000 15000
" />
</g>
<g style="fill:#008400; fill-opacity:0.0; 
stroke:#008400; stroke-width:0; stroke-opacity:1; 
stroke-linecap:round; stroke-linejoin:round;">
</g>
<g style="fill:#008400; fill-opacity:1.0; 
stroke:#008400; stroke-width:100; stroke-opacity:1; 
stroke-linecap:round; stroke-linejoin:round;">
<circle cx="17500" cy="13000" r="200" /> 
</g>
<g style="fill:#008400; fill-opacity:1.0; 
stroke:#008400; stroke-width:60; stroke-opacity:1; 
stroke-linecap:round; stroke-linejoin:round;">
</g>
<g style="fill:#008400; fill-opacity:0.0; 
stroke:#008400; stroke-width:60; stroke-opacity:1; 
stroke-linecap:round; stroke-linejoin:round;">
<path d="M44000 15000
L44000 16000
" />
<path d="M44000 16000
L47500 16000
" />
<path d="M46500 16000
L46500 16500
" />
<path d="M48000 14500
L47500 14500
" />
<path d="M47500 16000
L47500 13500
" />
</g>
<g style="fill:#008400; fill-opacity:0.0; 
stroke:#008400; stroke-width:0; stroke-opacity:1; 
stroke-linecap:round; stroke-linejoin:round;">
</g>
<g style="fill:#008400; fill-opacity:1.0; 
stroke:#008400; stroke-width:100; stroke-opacity:1; 
stroke-linecap:round; stroke-linejoin:round;">
<circle cx="46500" cy="16000" r="200" /> 
</g>
<g style="fill:#008400; fill-opacity:1.0; 
stroke:#008400; stroke-width:60; stroke-opacity:1; 
stroke-linecap:round; stroke-linejoin:round;">
</g>
<g style="fill:#008400; fill-opacity:0.0; 
stroke:#008400; stroke-width:60; stroke-opacity:1; 
stroke-linecap:round; stroke-linejoin:round;">
<path d="M55500 14500
L57000 14500
" />
<path d="M57000 14500
L57000 15000
" />
</g>
<g style="fill:#008400; fill-opacity:0.0; 
stroke:#008400; stroke-width:0; stroke-opacity:1; 
stroke-linecap:round; stroke-linejoin:round;">
</g>
<g style="fill:#008400; fill-opacity:1.0; 
stroke:#008400; stroke-width:100; stroke-opacity:1; 
stroke-linecap:round; stroke-linejoin:round;">
<circle cx="47500" cy="14500" r="200" /> 
</g>
<g style="fill:#008400; fill-opacity:1.0; 
stroke:#008400; stroke-width:60; stroke-opacity:1; 
stroke-linecap:round; stroke-linejoin:round;">
</g>
<g style="fill:#008400; fill-opacity:0.0; 
stroke:#008400; stroke-width:60; stroke-opacity:1; 
stroke-linecap:round; stroke-linejoin:round;">
<path d="M47500 13500
L48000 13500
" />
</g>
<g style="fill:#008400; fill-opacity:0.0; 
stroke:#008400; stroke-width:0; stroke-opacity:1; 
stroke-linecap:round; stroke-linejoin:round;">
</g>
<g style="fill:#008400; fill-opacity:1.0; 
stroke:#008400; stroke-width:100; stroke-opacity:1; 
stroke-linecap:round; stroke-linejoin:round;">
<circle cx="44000" cy="12000" r="200" /> 
</g>
<g style="fill:#008400; fill-opacity:1.0; 
stroke:#008400; stroke-width:0; stroke-opacity:1; 
stroke-linecap:round; stroke-linejoin:round;">
</g>
<g style="fill:#008400; fill-opacity:1.0; 
stroke:#008400; stroke-width:100; stroke-opacity:1; 
stroke-linecap:round; stroke-linejoin:round;">
<circle cx="28000" cy="27500" r="200" /> 
</g>
<g style="fill:#008400; fill-opacity:1.0; 
stroke:#008400; stroke-width:60; stroke-opacity:1; 
stroke-linecap:round; stroke-linejoin:round;">
</g>
<g style="fill:#008400; fill-opacity:0.0; 
stroke:#008400; stroke-width:60; stroke-opacity:1; 
stroke-linecap:round; stroke-linejoin:round;">
<path d="M14500 16500
L14500 12000
" />
</g>
<g style="fill:#008400; fill-opacity:0.0; 
stroke:#008400; stroke-width:0; stroke-opacity:1; 
stroke-linecap:round; stroke-linejoin:round;">
</g>
<g style="fill:#008400; fill-opacity:1.0; 
stroke:#008400; stroke-width:100; stroke-opacity:1; 
stroke-linecap:round; stroke-linejoin:round;">
<circle cx="14500" cy="12000" r="200" /> 
</g>
<g style="fill:#008400; fill-opacity:1.0; 
stroke:#008400; stroke-width:0; stroke-opacity:1; 
stroke-linecap:round; stroke-linejoin:round;">
</g>
<g style="fill:#008400; fill-opacity:1.0; 
stroke:#008400; stroke-width:100; stroke-opacity:1; 
stroke-linecap:round; stroke-linejoin:round;">
<circle cx="11000" cy="12000" r="200" /> 
</g>
<g style="fill:#008400; fill-opacity:1.0; 
stroke:#008400; stroke-width:60; stroke-opacity:1; 
stroke-linecap:round; stroke-linejoin:round;">
</g>
<g style="fill:#008400; fill-opacity:0.0; 
stroke:#008400; stroke-width:60; stroke-opacity:1; 
stroke-linecap:round; stroke-linejoin:round;">
<path d="M17500 17000
L19000 17000
" />
</g>
<g style="fill:#008400; fill-opacity:0.0; 
stroke:#008400; stroke-width:0; stroke-opacity:1; 
stroke-linecap:round; stroke-linejoin:round;">
</g>
<g style="fill:#008400; fill-opacity:1.0; 
stroke:#008400; stroke-width:100; stroke-opacity:1; 
stroke-linecap:round; stroke-linejoin:round;">
<circle cx="17500" cy="15000" r="200" /> 
</g>
<g style="fill:#008400; fill-opacity:1.0; 
stroke:#008400; stroke-width:60; stroke-opacity:1; 
stroke-linecap:round; stroke-linejoin:round;">
</g>
<g style="fill:#008400; fill-opacity:0.0; 
stroke:#008400; stroke-width:60; stroke-opacity:1; 
stroke-linecap:round; stroke-linejoin:round;">
<path d="M14500 18500
L14500 19000
" />
<path d="M11000 19000
L16000 19000
" />
<path d="M18000 19000
L19000 19000
" />
<path d="M11000 17500
L11000 21000
" />
</g>
<g style="fill:#008400; fill-opacity:0.0; 
stroke:#008400; stroke-width:0; stroke-opacity:1; 
stroke-linecap:round; stroke-linejoin:round;">
</g>
<g style="fill:#008400; fill-opacity:1.0; 
stroke:#008400; stroke-width:100; stroke-opacity:1; 
stroke-linecap:round; stroke-linejoin:round;">
<circle cx="14500" cy="19000" r="200" /> 
</g>
<g style="fill:#008400; fill-opacity:1.0; 
stroke:#008400; stroke-width:0; stroke-opacity:1; 
stroke-linecap:round; stroke-linejoin:round;">
</g>
<g style="fill:#840000; fill-opacity:0.0; 
stroke:#840000; stroke-width:60; stroke-opacity:1; 
stroke-linecap:round; stroke-linejoin:round;">
<polyline fill="none;"
points="11000,21000
11000,21500
11500,21500
11000,22000
10500,21500
11000,21500
" /> 
</g>
<g style="fill:#008484; fill-opacity:0.0; 
stroke:#008484; stroke-width:60; stroke-opacity:1; 
stroke-linecap:round; stroke-linejoin:round;">
<path d="M10620 22220
L10570 22200
L10500 22200
L10430 22220
L10380 22270
L10360 22320
L10340 22410
L10340 22480
L10360 22580
L10380 22620
L10430 22670
L10500 22700
L10550 22700
L10620 22670
L10640 22650
L10640 22480
L10550 22480
" />
<path d="M10860 22700
L10860 22200
L11140 22700
L11140 22200
" />
<path d="M11380 22700
L11380 22200
L11500 22200
L11570 22220
L11620 22270
L11640 22320
L11660 22410
L11660 22480
L11640 22580
L11620 22620
L11570 22670
L11500 22700
L11380 22700
" />
</g>
<g style="fill:#008484; fill-opacity:0.0; 
stroke:#008484; stroke-width:0; stroke-opacity:1; 
stroke-linecap:round; stroke-linejoin:round;">
</g>
<g style="fill:#008400; fill-opacity:1.0; 
stroke:#008400; stroke-width:100; stroke-opacity:1; 
stroke-linecap:round; stroke-linejoin:round;">
<circle cx="11000" cy="19000" r="200" /> 
</g> 
</svg>
