G04 #@! TF.FileFunction,Soldermask,Top*
%FSLAX46Y46*%
G04 Gerber Fmt 4.6, Leading zero omitted, Abs format (unit mm)*
G04 Created by KiCad (PCBNEW (2015-07-31 BZR 6030)-product) date Fri Sep 11 12:39:26 2015*
%MOMM*%
G01*
G04 APERTURE LIST*
%ADD10C,0.100000*%
%ADD11C,4.000000*%
%ADD12R,1.250000X1.000000*%
%ADD13R,0.800000X0.750000*%
%ADD14R,1.000000X1.250000*%
%ADD15R,1.350000X0.400000*%
%ADD16O,0.950000X1.250000*%
%ADD17O,1.550000X1.000000*%
%ADD18R,0.500000X0.900000*%
%ADD19R,1.727200X2.032000*%
%ADD20O,1.727200X2.032000*%
%ADD21R,1.700000X0.900000*%
%ADD22R,0.700000X1.300000*%
%ADD23R,0.250000X0.700000*%
%ADD24R,1.190000X0.830000*%
%ADD25R,1.397000X1.397000*%
%ADD26C,1.397000*%
%ADD27R,1.220000X0.620000*%
%ADD28R,0.406400X0.660400*%
G04 APERTURE END LIST*
D10*
D11*
X109372400Y-101092000D03*
X138582400Y-107442000D03*
X139039600Y-63042800D03*
D12*
X125730000Y-68850000D03*
X125730000Y-70850000D03*
D13*
X113780000Y-83820000D03*
X112280000Y-83820000D03*
X113780000Y-88900000D03*
X112280000Y-88900000D03*
X119900000Y-90170000D03*
X121400000Y-90170000D03*
D14*
X118380000Y-73660000D03*
X120380000Y-73660000D03*
D13*
X123710000Y-90170000D03*
X125210000Y-90170000D03*
D14*
X118380000Y-64770000D03*
X120380000Y-64770000D03*
D15*
X109220000Y-78740000D03*
X109220000Y-79390000D03*
X109220000Y-80040000D03*
X109220000Y-80690000D03*
X109220000Y-81340000D03*
D16*
X109220000Y-77540000D03*
X109220000Y-82540000D03*
D17*
X106520000Y-76540000D03*
X106520000Y-83540000D03*
D18*
X115050000Y-76200000D03*
X113550000Y-76200000D03*
D19*
X121437400Y-107315000D03*
D20*
X118897400Y-107315000D03*
X116357400Y-107315000D03*
X113817400Y-107315000D03*
D21*
X118110000Y-87810000D03*
X118110000Y-84910000D03*
X118110000Y-82730000D03*
X118110000Y-79830000D03*
D22*
X115890000Y-90170000D03*
X117790000Y-90170000D03*
D23*
X123335000Y-85220000D03*
X123785000Y-85220000D03*
X124235000Y-85220000D03*
X124685000Y-85220000D03*
X125135000Y-85220000D03*
X125585000Y-85220000D03*
X125585000Y-82420000D03*
X125135000Y-82420000D03*
X124685000Y-82420000D03*
X124235000Y-82420000D03*
X123785000Y-82420000D03*
X123335000Y-82420000D03*
D24*
X125055000Y-83405000D03*
X123865000Y-83405000D03*
X125055000Y-84235000D03*
X123865000Y-84235000D03*
D25*
X129743200Y-74269600D03*
D26*
X129743200Y-76809600D03*
X129743200Y-79349600D03*
X129743200Y-81889600D03*
X129743200Y-84429600D03*
X129743200Y-86969600D03*
X129743200Y-89509600D03*
X129743200Y-92049600D03*
X129743200Y-94589600D03*
X129743200Y-97129600D03*
X137363200Y-97129600D03*
X137363200Y-94589600D03*
X137363200Y-92049600D03*
X137363200Y-89509600D03*
X137363200Y-86969600D03*
X137363200Y-84429600D03*
X137363200Y-81889600D03*
X137363200Y-79349600D03*
X137363200Y-76809600D03*
X137363200Y-74269600D03*
D27*
X118070000Y-68900000D03*
X118070000Y-70800000D03*
X120690000Y-68900000D03*
X120690000Y-70800000D03*
X120690000Y-69850000D03*
D28*
X123367800Y-102489000D03*
X122047000Y-102489000D03*
X122707400Y-102489000D03*
X122047000Y-104521000D03*
X123367800Y-104521000D03*
X119557800Y-97409000D03*
X118237000Y-97409000D03*
X118897400Y-97409000D03*
X118237000Y-99441000D03*
X119557800Y-99441000D03*
D11*
X107950000Y-63754000D03*
M02*
