%FSLAX45Y45*%
G04 Gerber Fmt 4.5, Leading zero omitted, Abs format (unit mm)*
G04 Created by KiCad (PCBNEW (2015-07-31 BZR 6030)-product) date Mon Aug 24 21:55:27 2015*
%MOMM*%
G01*
G04 APERTURE LIST*
%ADD10C,0.127000*%
%ADD11C,0.100000*%
%ADD12C,0.200000*%
%ADD13C,0.300000*%
G04 APERTURE END LIST*
D10*
D11*
X17780000Y-5715000D02*
X10033000Y-5715000D01*
X17780000Y-9525000D02*
X17780000Y-5715000D01*
X10033000Y-9525000D02*
X17780000Y-9525000D01*
X10033000Y-5715000D02*
X10033000Y-9525000D01*
D12*
X11312568Y-7219000D02*
X11352568Y-7259000D01*
X11352568Y-7219000D02*
X11312568Y-7259000D01*
X11410000Y-9124000D02*
X11450000Y-9164000D01*
X11450000Y-9124000D02*
X11410000Y-9164000D01*
X11664000Y-7727000D02*
X11704000Y-7767000D01*
X11704000Y-7727000D02*
X11664000Y-7767000D01*
X12045000Y-6330000D02*
X12085000Y-6370000D01*
X12085000Y-6330000D02*
X12045000Y-6370000D01*
X12045000Y-8743000D02*
X12085000Y-8783000D01*
X12085000Y-8743000D02*
X12045000Y-8783000D01*
X12172000Y-6965000D02*
X12212000Y-7005000D01*
X12212000Y-6965000D02*
X12172000Y-7005000D01*
X12172000Y-7219000D02*
X12212000Y-7259000D01*
X12212000Y-7219000D02*
X12172000Y-7259000D01*
X12172000Y-7981000D02*
X12212000Y-8021000D01*
X12212000Y-7981000D02*
X12172000Y-8021000D01*
X12172000Y-8235000D02*
X12212000Y-8275000D01*
X12212000Y-8235000D02*
X12172000Y-8275000D01*
X12172000Y-9124000D02*
X12212000Y-9164000D01*
X12212000Y-9124000D02*
X12172000Y-9164000D01*
X12299000Y-7346000D02*
X12339000Y-7386000D01*
X12339000Y-7346000D02*
X12299000Y-7386000D01*
X12299000Y-8743000D02*
X12339000Y-8783000D01*
X12339000Y-8743000D02*
X12299000Y-8783000D01*
X12426000Y-7981000D02*
X12466000Y-8021000D01*
X12466000Y-7981000D02*
X12426000Y-8021000D01*
X12426000Y-8362000D02*
X12466000Y-8402000D01*
X12466000Y-8362000D02*
X12426000Y-8402000D01*
X12426000Y-8743000D02*
X12466000Y-8783000D01*
X12466000Y-8743000D02*
X12426000Y-8783000D01*
X13569000Y-7600000D02*
X13609000Y-7640000D01*
X13609000Y-7600000D02*
X13569000Y-7640000D01*
X15601000Y-7219000D02*
X15641000Y-7259000D01*
X15641000Y-7219000D02*
X15601000Y-7259000D01*
X15601000Y-7981000D02*
X15641000Y-8021000D01*
X15641000Y-7981000D02*
X15601000Y-8021000D01*
X15855000Y-8235000D02*
X15895000Y-8275000D01*
X15895000Y-8235000D02*
X15855000Y-8275000D01*
X15982000Y-7727000D02*
X16022000Y-7767000D01*
X16022000Y-7727000D02*
X15982000Y-7767000D01*
X16363000Y-7346000D02*
X16403000Y-7386000D01*
X16403000Y-7346000D02*
X16363000Y-7386000D01*
X16363000Y-7981000D02*
X16403000Y-8021000D01*
X16403000Y-7981000D02*
X16363000Y-8021000D01*
X16490000Y-7600000D02*
X16530000Y-7640000D01*
X16530000Y-7600000D02*
X16490000Y-7640000D01*
X16617000Y-7981000D02*
X16657000Y-8021000D01*
X16657000Y-7981000D02*
X16617000Y-8021000D01*
X16871000Y-7092000D02*
X16911000Y-7132000D01*
X16911000Y-7092000D02*
X16871000Y-7132000D01*
X16871000Y-7727000D02*
X16911000Y-7767000D01*
X16911000Y-7727000D02*
X16871000Y-7767000D01*
X10677000Y-7654000D02*
G75*
G03X10677000Y-7654000I-25000J0D01*
G01*
X10619500Y-7669000D02*
X10684500Y-7669000D01*
X10619500Y-7639000D02*
X10684500Y-7639000D01*
X10684500Y-7669000D02*
G75*
G03X10684500Y-7639000I0J15000D01*
G01*
X10619500Y-7639000D02*
G75*
G03X10619500Y-7669000I0J-15000D01*
G01*
X10677000Y-8354000D02*
G75*
G03X10677000Y-8354000I-25000J0D01*
G01*
X10619500Y-8369000D02*
X10684500Y-8369000D01*
X10619500Y-8339000D02*
X10684500Y-8339000D01*
X10684500Y-8369000D02*
G75*
G03X10684500Y-8339000I0J15000D01*
G01*
X10619500Y-8339000D02*
G75*
G03X10619500Y-8369000I0J-15000D01*
G01*
X10922000Y-7726500D02*
X10922000Y-7781500D01*
X10894500Y-7754000D02*
X10949500Y-7754000D01*
X10904500Y-7739000D02*
X10904500Y-7769000D01*
X10939500Y-7739000D02*
X10939500Y-7769000D01*
X10904500Y-7769000D02*
G75*
G03X10939500Y-7769000I17500J0D01*
G01*
X10939500Y-7739000D02*
G75*
G03X10904500Y-7739000I-17500J0D01*
G01*
X10922000Y-8226500D02*
X10922000Y-8281500D01*
X10894500Y-8254000D02*
X10949500Y-8254000D01*
X10904500Y-8239000D02*
X10904500Y-8269000D01*
X10939500Y-8239000D02*
X10939500Y-8269000D01*
X10904500Y-8269000D02*
G75*
G03X10939500Y-8269000I17500J0D01*
G01*
X10939500Y-8239000D02*
G75*
G03X10904500Y-8239000I-17500J0D01*
G01*
X12982737Y-7140737D02*
X12982737Y-7083263D01*
X12925263Y-7083263D01*
X12925263Y-7140737D01*
X12982737Y-7140737D01*
X12982737Y-7902737D02*
X12982737Y-7845263D01*
X12925263Y-7845263D01*
X12925263Y-7902737D01*
X12982737Y-7902737D01*
X13236737Y-7140737D02*
X13236737Y-7083263D01*
X13179263Y-7083263D01*
X13179263Y-7140737D01*
X13236737Y-7140737D01*
X13236737Y-7902737D02*
X13236737Y-7845263D01*
X13179263Y-7845263D01*
X13179263Y-7902737D01*
X13236737Y-7902737D01*
X13490737Y-7140737D02*
X13490737Y-7083263D01*
X13433263Y-7083263D01*
X13433263Y-7140737D01*
X13490737Y-7140737D01*
X13490737Y-7902737D02*
X13490737Y-7845263D01*
X13433263Y-7845263D01*
X13433263Y-7902737D01*
X13490737Y-7902737D01*
X13744737Y-7140737D02*
X13744737Y-7083263D01*
X13687263Y-7083263D01*
X13687263Y-7140737D01*
X13744737Y-7140737D01*
X13744737Y-7902737D02*
X13744737Y-7845263D01*
X13687263Y-7845263D01*
X13687263Y-7902737D01*
X13744737Y-7902737D01*
X13998737Y-7140737D02*
X13998737Y-7083263D01*
X13941263Y-7083263D01*
X13941263Y-7140737D01*
X13998737Y-7140737D01*
X13998737Y-7902737D02*
X13998737Y-7845263D01*
X13941263Y-7845263D01*
X13941263Y-7902737D01*
X13998737Y-7902737D01*
X14252737Y-7140737D02*
X14252737Y-7083263D01*
X14195263Y-7083263D01*
X14195263Y-7140737D01*
X14252737Y-7140737D01*
X14252737Y-7902737D02*
X14252737Y-7845263D01*
X14195263Y-7845263D01*
X14195263Y-7902737D01*
X14252737Y-7902737D01*
X14506737Y-7140737D02*
X14506737Y-7083263D01*
X14449263Y-7083263D01*
X14449263Y-7140737D01*
X14506737Y-7140737D01*
X14506737Y-7902737D02*
X14506737Y-7845263D01*
X14449263Y-7845263D01*
X14449263Y-7902737D01*
X14506737Y-7902737D01*
X14760737Y-7140737D02*
X14760737Y-7083263D01*
X14703263Y-7083263D01*
X14703263Y-7140737D01*
X14760737Y-7140737D01*
X14760737Y-7902737D02*
X14760737Y-7845263D01*
X14703263Y-7845263D01*
X14703263Y-7902737D01*
X14760737Y-7902737D01*
X15014737Y-7140737D02*
X15014737Y-7083263D01*
X14957263Y-7083263D01*
X14957263Y-7140737D01*
X15014737Y-7140737D01*
X15014737Y-7902737D02*
X15014737Y-7845263D01*
X14957263Y-7845263D01*
X14957263Y-7902737D01*
X15014737Y-7902737D01*
X15268737Y-7140737D02*
X15268737Y-7083263D01*
X15211263Y-7083263D01*
X15211263Y-7140737D01*
X15268737Y-7140737D01*
X15268737Y-7902737D02*
X15268737Y-7845263D01*
X15211263Y-7845263D01*
X15211263Y-7902737D01*
X15268737Y-7902737D01*
X17145000Y-7416800D02*
X17195800Y-7366000D01*
X17145000Y-7315200D01*
X17094200Y-7366000D01*
X17145000Y-7416800D01*
X17145000Y-7670800D02*
X17195800Y-7620000D01*
X17145000Y-7569200D01*
X17094200Y-7620000D01*
X17145000Y-7670800D01*
X17145000Y-7924800D02*
X17195800Y-7874000D01*
X17145000Y-7823200D01*
X17094200Y-7874000D01*
X17145000Y-7924800D01*
X17145000Y-8178800D02*
X17195800Y-8128000D01*
X17145000Y-8077200D01*
X17094200Y-8128000D01*
X17145000Y-8178800D01*
X10264000Y-5946000D02*
X10564000Y-6246000D01*
X10564000Y-5946000D02*
X10264000Y-6246000D01*
X10564000Y-6096000D02*
G75*
G03X10564000Y-6096000I-150000J0D01*
G01*
X10264000Y-8994000D02*
X10564000Y-9294000D01*
X10564000Y-8994000D02*
X10264000Y-9294000D01*
X10564000Y-9144000D02*
G75*
G03X10564000Y-9144000I-150000J0D01*
G01*
X17249000Y-5946000D02*
X17549000Y-6246000D01*
X17549000Y-5946000D02*
X17249000Y-6246000D01*
X17549000Y-6096000D02*
G75*
G03X17549000Y-6096000I-150000J0D01*
G01*
X17249000Y-8994000D02*
X17549000Y-9294000D01*
X17549000Y-8994000D02*
X17249000Y-9294000D01*
X17549000Y-9144000D02*
G75*
G03X17549000Y-9144000I-150000J0D01*
G01*
D13*
X10299429Y-9995714D02*
X10299429Y-9695714D01*
X10370857Y-9695714D01*
X10413714Y-9710000D01*
X10442286Y-9738572D01*
X10456571Y-9767143D01*
X10470857Y-9824286D01*
X10470857Y-9867143D01*
X10456571Y-9924286D01*
X10442286Y-9952857D01*
X10413714Y-9981429D01*
X10370857Y-9995714D01*
X10299429Y-9995714D01*
X10599429Y-9995714D02*
X10599429Y-9795714D01*
X10599429Y-9852857D02*
X10613714Y-9824286D01*
X10628000Y-9810000D01*
X10656571Y-9795714D01*
X10685143Y-9795714D01*
X10785143Y-9995714D02*
X10785143Y-9795714D01*
X10785143Y-9695714D02*
X10770857Y-9710000D01*
X10785143Y-9724286D01*
X10799429Y-9710000D01*
X10785143Y-9695714D01*
X10785143Y-9724286D01*
X10970857Y-9995714D02*
X10942286Y-9981429D01*
X10928000Y-9952857D01*
X10928000Y-9695714D01*
X11128000Y-9995714D02*
X11099429Y-9981429D01*
X11085143Y-9952857D01*
X11085143Y-9695714D01*
X11470857Y-9995714D02*
X11470857Y-9695714D01*
X11570857Y-9910000D01*
X11670857Y-9695714D01*
X11670857Y-9995714D01*
X11942286Y-9995714D02*
X11942286Y-9838572D01*
X11928000Y-9810000D01*
X11899428Y-9795714D01*
X11842286Y-9795714D01*
X11813714Y-9810000D01*
X11942286Y-9981429D02*
X11913714Y-9995714D01*
X11842286Y-9995714D01*
X11813714Y-9981429D01*
X11799428Y-9952857D01*
X11799428Y-9924286D01*
X11813714Y-9895714D01*
X11842286Y-9881429D01*
X11913714Y-9881429D01*
X11942286Y-9867143D01*
X12085143Y-9795714D02*
X12085143Y-10095714D01*
X12085143Y-9810000D02*
X12113714Y-9795714D01*
X12170857Y-9795714D01*
X12199428Y-9810000D01*
X12213714Y-9824286D01*
X12228000Y-9852857D01*
X12228000Y-9938572D01*
X12213714Y-9967143D01*
X12199428Y-9981429D01*
X12170857Y-9995714D01*
X12113714Y-9995714D01*
X12085143Y-9981429D01*
X12356571Y-9967143D02*
X12370857Y-9981429D01*
X12356571Y-9995714D01*
X12342286Y-9981429D01*
X12356571Y-9967143D01*
X12356571Y-9995714D01*
X12356571Y-9810000D02*
X12370857Y-9824286D01*
X12356571Y-9838572D01*
X12342286Y-9824286D01*
X12356571Y-9810000D01*
X12356571Y-9838572D01*
X9988000Y-10470000D02*
X10028000Y-10510000D01*
X10028000Y-10470000D02*
X9988000Y-10510000D01*
X10356571Y-10325714D02*
X10385143Y-10325714D01*
X10413714Y-10340000D01*
X10428000Y-10354286D01*
X10442286Y-10382857D01*
X10456571Y-10440000D01*
X10456571Y-10511429D01*
X10442286Y-10568572D01*
X10428000Y-10597143D01*
X10413714Y-10611429D01*
X10385143Y-10625714D01*
X10356571Y-10625714D01*
X10328000Y-10611429D01*
X10313714Y-10597143D01*
X10299429Y-10568572D01*
X10285143Y-10511429D01*
X10285143Y-10440000D01*
X10299429Y-10382857D01*
X10313714Y-10354286D01*
X10328000Y-10340000D01*
X10356571Y-10325714D01*
X10585143Y-10597143D02*
X10599429Y-10611429D01*
X10585143Y-10625714D01*
X10570857Y-10611429D01*
X10585143Y-10597143D01*
X10585143Y-10625714D01*
X10856571Y-10425714D02*
X10856571Y-10625714D01*
X10785143Y-10311429D02*
X10713714Y-10525714D01*
X10899428Y-10525714D01*
X11070857Y-10325714D02*
X11099429Y-10325714D01*
X11128000Y-10340000D01*
X11142286Y-10354286D01*
X11156571Y-10382857D01*
X11170857Y-10440000D01*
X11170857Y-10511429D01*
X11156571Y-10568572D01*
X11142286Y-10597143D01*
X11128000Y-10611429D01*
X11099429Y-10625714D01*
X11070857Y-10625714D01*
X11042286Y-10611429D01*
X11028000Y-10597143D01*
X11013714Y-10568572D01*
X10999429Y-10511429D01*
X10999429Y-10440000D01*
X11013714Y-10382857D01*
X11028000Y-10354286D01*
X11042286Y-10340000D01*
X11070857Y-10325714D01*
X11299428Y-10625714D02*
X11299428Y-10425714D01*
X11299428Y-10454286D02*
X11313714Y-10440000D01*
X11342286Y-10425714D01*
X11385143Y-10425714D01*
X11413714Y-10440000D01*
X11428000Y-10468572D01*
X11428000Y-10625714D01*
X11428000Y-10468572D02*
X11442286Y-10440000D01*
X11470857Y-10425714D01*
X11513714Y-10425714D01*
X11542286Y-10440000D01*
X11556571Y-10468572D01*
X11556571Y-10625714D01*
X11699428Y-10625714D02*
X11699428Y-10425714D01*
X11699428Y-10454286D02*
X11713714Y-10440000D01*
X11742286Y-10425714D01*
X11785143Y-10425714D01*
X11813714Y-10440000D01*
X11828000Y-10468572D01*
X11828000Y-10625714D01*
X11828000Y-10468572D02*
X11842286Y-10440000D01*
X11870857Y-10425714D01*
X11913714Y-10425714D01*
X11942286Y-10440000D01*
X11956571Y-10468572D01*
X11956571Y-10625714D01*
X12542286Y-10311429D02*
X12285143Y-10697143D01*
X12928000Y-10325714D02*
X12956571Y-10325714D01*
X12985143Y-10340000D01*
X12999428Y-10354286D01*
X13013714Y-10382857D01*
X13028000Y-10440000D01*
X13028000Y-10511429D01*
X13013714Y-10568572D01*
X12999428Y-10597143D01*
X12985143Y-10611429D01*
X12956571Y-10625714D01*
X12928000Y-10625714D01*
X12899428Y-10611429D01*
X12885143Y-10597143D01*
X12870857Y-10568572D01*
X12856571Y-10511429D01*
X12856571Y-10440000D01*
X12870857Y-10382857D01*
X12885143Y-10354286D01*
X12899428Y-10340000D01*
X12928000Y-10325714D01*
X13156571Y-10597143D02*
X13170857Y-10611429D01*
X13156571Y-10625714D01*
X13142286Y-10611429D01*
X13156571Y-10597143D01*
X13156571Y-10625714D01*
X13356571Y-10325714D02*
X13385143Y-10325714D01*
X13413714Y-10340000D01*
X13428000Y-10354286D01*
X13442285Y-10382857D01*
X13456571Y-10440000D01*
X13456571Y-10511429D01*
X13442285Y-10568572D01*
X13428000Y-10597143D01*
X13413714Y-10611429D01*
X13385143Y-10625714D01*
X13356571Y-10625714D01*
X13328000Y-10611429D01*
X13313714Y-10597143D01*
X13299428Y-10568572D01*
X13285143Y-10511429D01*
X13285143Y-10440000D01*
X13299428Y-10382857D01*
X13313714Y-10354286D01*
X13328000Y-10340000D01*
X13356571Y-10325714D01*
X13742285Y-10625714D02*
X13570857Y-10625714D01*
X13656571Y-10625714D02*
X13656571Y-10325714D01*
X13628000Y-10368572D01*
X13599428Y-10397143D01*
X13570857Y-10411429D01*
X13999428Y-10325714D02*
X13942285Y-10325714D01*
X13913714Y-10340000D01*
X13899428Y-10354286D01*
X13870857Y-10397143D01*
X13856571Y-10454286D01*
X13856571Y-10568572D01*
X13870857Y-10597143D01*
X13885143Y-10611429D01*
X13913714Y-10625714D01*
X13970857Y-10625714D01*
X13999428Y-10611429D01*
X14013714Y-10597143D01*
X14028000Y-10568572D01*
X14028000Y-10497143D01*
X14013714Y-10468572D01*
X13999428Y-10454286D01*
X13970857Y-10440000D01*
X13913714Y-10440000D01*
X13885143Y-10454286D01*
X13870857Y-10468572D01*
X13856571Y-10497143D01*
X14142286Y-10325714D02*
X14142286Y-10382857D01*
X14256571Y-10325714D02*
X14256571Y-10382857D01*
X14699428Y-10740000D02*
X14685143Y-10725714D01*
X14656571Y-10682857D01*
X14642285Y-10654286D01*
X14628000Y-10611429D01*
X14613714Y-10540000D01*
X14613714Y-10482857D01*
X14628000Y-10411429D01*
X14642285Y-10368572D01*
X14656571Y-10340000D01*
X14685143Y-10297143D01*
X14699428Y-10282857D01*
X14799428Y-10354286D02*
X14813714Y-10340000D01*
X14842285Y-10325714D01*
X14913714Y-10325714D01*
X14942285Y-10340000D01*
X14956571Y-10354286D01*
X14970857Y-10382857D01*
X14970857Y-10411429D01*
X14956571Y-10454286D01*
X14785143Y-10625714D01*
X14970857Y-10625714D01*
X15228000Y-10325714D02*
X15170857Y-10325714D01*
X15142285Y-10340000D01*
X15128000Y-10354286D01*
X15099428Y-10397143D01*
X15085143Y-10454286D01*
X15085143Y-10568572D01*
X15099428Y-10597143D01*
X15113714Y-10611429D01*
X15142285Y-10625714D01*
X15199428Y-10625714D01*
X15228000Y-10611429D01*
X15242285Y-10597143D01*
X15256571Y-10568572D01*
X15256571Y-10497143D01*
X15242285Y-10468572D01*
X15228000Y-10454286D01*
X15199428Y-10440000D01*
X15142285Y-10440000D01*
X15113714Y-10454286D01*
X15099428Y-10468572D01*
X15085143Y-10497143D01*
X15613714Y-10625714D02*
X15613714Y-10325714D01*
X15742285Y-10625714D02*
X15742285Y-10468572D01*
X15728000Y-10440000D01*
X15699428Y-10425714D01*
X15656571Y-10425714D01*
X15628000Y-10440000D01*
X15613714Y-10454286D01*
X15928000Y-10625714D02*
X15899428Y-10611429D01*
X15885143Y-10597143D01*
X15870857Y-10568572D01*
X15870857Y-10482857D01*
X15885143Y-10454286D01*
X15899428Y-10440000D01*
X15928000Y-10425714D01*
X15970857Y-10425714D01*
X15999428Y-10440000D01*
X16013714Y-10454286D01*
X16028000Y-10482857D01*
X16028000Y-10568572D01*
X16013714Y-10597143D01*
X15999428Y-10611429D01*
X15970857Y-10625714D01*
X15928000Y-10625714D01*
X16199428Y-10625714D02*
X16170857Y-10611429D01*
X16156571Y-10582857D01*
X16156571Y-10325714D01*
X16428000Y-10611429D02*
X16399428Y-10625714D01*
X16342286Y-10625714D01*
X16313714Y-10611429D01*
X16299428Y-10582857D01*
X16299428Y-10468572D01*
X16313714Y-10440000D01*
X16342286Y-10425714D01*
X16399428Y-10425714D01*
X16428000Y-10440000D01*
X16442286Y-10468572D01*
X16442286Y-10497143D01*
X16299428Y-10525714D01*
X16556571Y-10611429D02*
X16585143Y-10625714D01*
X16642286Y-10625714D01*
X16670857Y-10611429D01*
X16685143Y-10582857D01*
X16685143Y-10568572D01*
X16670857Y-10540000D01*
X16642286Y-10525714D01*
X16599428Y-10525714D01*
X16570857Y-10511429D01*
X16556571Y-10482857D01*
X16556571Y-10468572D01*
X16570857Y-10440000D01*
X16599428Y-10425714D01*
X16642286Y-10425714D01*
X16670857Y-10440000D01*
X16785143Y-10740000D02*
X16799429Y-10725714D01*
X16828000Y-10682857D01*
X16842286Y-10654286D01*
X16856571Y-10611429D01*
X16870857Y-10540000D01*
X16870857Y-10482857D01*
X16856571Y-10411429D01*
X16842286Y-10368572D01*
X16828000Y-10340000D01*
X16799429Y-10297143D01*
X16785143Y-10282857D01*
X10028000Y-10886000D02*
G75*
G03X10028000Y-10886000I-25000J0D01*
G01*
X10356571Y-10721714D02*
X10385143Y-10721714D01*
X10413714Y-10736000D01*
X10428000Y-10750286D01*
X10442286Y-10778857D01*
X10456571Y-10836000D01*
X10456571Y-10907429D01*
X10442286Y-10964572D01*
X10428000Y-10993143D01*
X10413714Y-11007429D01*
X10385143Y-11021714D01*
X10356571Y-11021714D01*
X10328000Y-11007429D01*
X10313714Y-10993143D01*
X10299429Y-10964572D01*
X10285143Y-10907429D01*
X10285143Y-10836000D01*
X10299429Y-10778857D01*
X10313714Y-10750286D01*
X10328000Y-10736000D01*
X10356571Y-10721714D01*
X10585143Y-10993143D02*
X10599429Y-11007429D01*
X10585143Y-11021714D01*
X10570857Y-11007429D01*
X10585143Y-10993143D01*
X10585143Y-11021714D01*
X10870857Y-10721714D02*
X10728000Y-10721714D01*
X10713714Y-10864572D01*
X10728000Y-10850286D01*
X10756571Y-10836000D01*
X10828000Y-10836000D01*
X10856571Y-10850286D01*
X10870857Y-10864572D01*
X10885143Y-10893143D01*
X10885143Y-10964572D01*
X10870857Y-10993143D01*
X10856571Y-11007429D01*
X10828000Y-11021714D01*
X10756571Y-11021714D01*
X10728000Y-11007429D01*
X10713714Y-10993143D01*
X11070857Y-10721714D02*
X11099429Y-10721714D01*
X11128000Y-10736000D01*
X11142286Y-10750286D01*
X11156571Y-10778857D01*
X11170857Y-10836000D01*
X11170857Y-10907429D01*
X11156571Y-10964572D01*
X11142286Y-10993143D01*
X11128000Y-11007429D01*
X11099429Y-11021714D01*
X11070857Y-11021714D01*
X11042286Y-11007429D01*
X11028000Y-10993143D01*
X11013714Y-10964572D01*
X10999429Y-10907429D01*
X10999429Y-10836000D01*
X11013714Y-10778857D01*
X11028000Y-10750286D01*
X11042286Y-10736000D01*
X11070857Y-10721714D01*
X11299428Y-11021714D02*
X11299428Y-10821714D01*
X11299428Y-10850286D02*
X11313714Y-10836000D01*
X11342286Y-10821714D01*
X11385143Y-10821714D01*
X11413714Y-10836000D01*
X11428000Y-10864572D01*
X11428000Y-11021714D01*
X11428000Y-10864572D02*
X11442286Y-10836000D01*
X11470857Y-10821714D01*
X11513714Y-10821714D01*
X11542286Y-10836000D01*
X11556571Y-10864572D01*
X11556571Y-11021714D01*
X11699428Y-11021714D02*
X11699428Y-10821714D01*
X11699428Y-10850286D02*
X11713714Y-10836000D01*
X11742286Y-10821714D01*
X11785143Y-10821714D01*
X11813714Y-10836000D01*
X11828000Y-10864572D01*
X11828000Y-11021714D01*
X11828000Y-10864572D02*
X11842286Y-10836000D01*
X11870857Y-10821714D01*
X11913714Y-10821714D01*
X11942286Y-10836000D01*
X11956571Y-10864572D01*
X11956571Y-11021714D01*
X12542286Y-10707429D02*
X12285143Y-11093143D01*
X12928000Y-10721714D02*
X12956571Y-10721714D01*
X12985143Y-10736000D01*
X12999428Y-10750286D01*
X13013714Y-10778857D01*
X13028000Y-10836000D01*
X13028000Y-10907429D01*
X13013714Y-10964572D01*
X12999428Y-10993143D01*
X12985143Y-11007429D01*
X12956571Y-11021714D01*
X12928000Y-11021714D01*
X12899428Y-11007429D01*
X12885143Y-10993143D01*
X12870857Y-10964572D01*
X12856571Y-10907429D01*
X12856571Y-10836000D01*
X12870857Y-10778857D01*
X12885143Y-10750286D01*
X12899428Y-10736000D01*
X12928000Y-10721714D01*
X13156571Y-10993143D02*
X13170857Y-11007429D01*
X13156571Y-11021714D01*
X13142286Y-11007429D01*
X13156571Y-10993143D01*
X13156571Y-11021714D01*
X13356571Y-10721714D02*
X13385143Y-10721714D01*
X13413714Y-10736000D01*
X13428000Y-10750286D01*
X13442285Y-10778857D01*
X13456571Y-10836000D01*
X13456571Y-10907429D01*
X13442285Y-10964572D01*
X13428000Y-10993143D01*
X13413714Y-11007429D01*
X13385143Y-11021714D01*
X13356571Y-11021714D01*
X13328000Y-11007429D01*
X13313714Y-10993143D01*
X13299428Y-10964572D01*
X13285143Y-10907429D01*
X13285143Y-10836000D01*
X13299428Y-10778857D01*
X13313714Y-10750286D01*
X13328000Y-10736000D01*
X13356571Y-10721714D01*
X13570857Y-10750286D02*
X13585143Y-10736000D01*
X13613714Y-10721714D01*
X13685143Y-10721714D01*
X13713714Y-10736000D01*
X13728000Y-10750286D01*
X13742285Y-10778857D01*
X13742285Y-10807429D01*
X13728000Y-10850286D01*
X13556571Y-11021714D01*
X13742285Y-11021714D01*
X13928000Y-10721714D02*
X13956571Y-10721714D01*
X13985143Y-10736000D01*
X13999428Y-10750286D01*
X14013714Y-10778857D01*
X14028000Y-10836000D01*
X14028000Y-10907429D01*
X14013714Y-10964572D01*
X13999428Y-10993143D01*
X13985143Y-11007429D01*
X13956571Y-11021714D01*
X13928000Y-11021714D01*
X13899428Y-11007429D01*
X13885143Y-10993143D01*
X13870857Y-10964572D01*
X13856571Y-10907429D01*
X13856571Y-10836000D01*
X13870857Y-10778857D01*
X13885143Y-10750286D01*
X13899428Y-10736000D01*
X13928000Y-10721714D01*
X14142286Y-10721714D02*
X14142286Y-10778857D01*
X14256571Y-10721714D02*
X14256571Y-10778857D01*
X14699428Y-11136000D02*
X14685143Y-11121714D01*
X14656571Y-11078857D01*
X14642285Y-11050286D01*
X14628000Y-11007429D01*
X14613714Y-10936000D01*
X14613714Y-10878857D01*
X14628000Y-10807429D01*
X14642285Y-10764572D01*
X14656571Y-10736000D01*
X14685143Y-10693143D01*
X14699428Y-10678857D01*
X14870857Y-10721714D02*
X14899428Y-10721714D01*
X14928000Y-10736000D01*
X14942285Y-10750286D01*
X14956571Y-10778857D01*
X14970857Y-10836000D01*
X14970857Y-10907429D01*
X14956571Y-10964572D01*
X14942285Y-10993143D01*
X14928000Y-11007429D01*
X14899428Y-11021714D01*
X14870857Y-11021714D01*
X14842285Y-11007429D01*
X14828000Y-10993143D01*
X14813714Y-10964572D01*
X14799428Y-10907429D01*
X14799428Y-10836000D01*
X14813714Y-10778857D01*
X14828000Y-10750286D01*
X14842285Y-10736000D01*
X14870857Y-10721714D01*
X15328000Y-11021714D02*
X15328000Y-10721714D01*
X15456571Y-11021714D02*
X15456571Y-10864572D01*
X15442285Y-10836000D01*
X15413714Y-10821714D01*
X15370857Y-10821714D01*
X15342285Y-10836000D01*
X15328000Y-10850286D01*
X15642285Y-11021714D02*
X15613714Y-11007429D01*
X15599428Y-10993143D01*
X15585143Y-10964572D01*
X15585143Y-10878857D01*
X15599428Y-10850286D01*
X15613714Y-10836000D01*
X15642285Y-10821714D01*
X15685143Y-10821714D01*
X15713714Y-10836000D01*
X15728000Y-10850286D01*
X15742285Y-10878857D01*
X15742285Y-10964572D01*
X15728000Y-10993143D01*
X15713714Y-11007429D01*
X15685143Y-11021714D01*
X15642285Y-11021714D01*
X15913714Y-11021714D02*
X15885143Y-11007429D01*
X15870857Y-10978857D01*
X15870857Y-10721714D01*
X16142286Y-11007429D02*
X16113714Y-11021714D01*
X16056571Y-11021714D01*
X16028000Y-11007429D01*
X16013714Y-10978857D01*
X16013714Y-10864572D01*
X16028000Y-10836000D01*
X16056571Y-10821714D01*
X16113714Y-10821714D01*
X16142286Y-10836000D01*
X16156571Y-10864572D01*
X16156571Y-10893143D01*
X16013714Y-10921714D01*
X16270857Y-11007429D02*
X16299428Y-11021714D01*
X16356571Y-11021714D01*
X16385143Y-11007429D01*
X16399428Y-10978857D01*
X16399428Y-10964572D01*
X16385143Y-10936000D01*
X16356571Y-10921714D01*
X16313714Y-10921714D01*
X16285143Y-10907429D01*
X16270857Y-10878857D01*
X16270857Y-10864572D01*
X16285143Y-10836000D01*
X16313714Y-10821714D01*
X16356571Y-10821714D01*
X16385143Y-10836000D01*
X16756571Y-10907429D02*
X16985143Y-10907429D01*
X16870857Y-11021714D02*
X16870857Y-10793143D01*
X17342286Y-10750286D02*
X17356571Y-10736000D01*
X17385143Y-10721714D01*
X17456571Y-10721714D01*
X17485143Y-10736000D01*
X17499428Y-10750286D01*
X17513714Y-10778857D01*
X17513714Y-10807429D01*
X17499428Y-10850286D01*
X17328000Y-11021714D01*
X17513714Y-11021714D01*
X17856571Y-11007429D02*
X17885143Y-11021714D01*
X17942286Y-11021714D01*
X17970857Y-11007429D01*
X17985143Y-10978857D01*
X17985143Y-10964572D01*
X17970857Y-10936000D01*
X17942286Y-10921714D01*
X17899428Y-10921714D01*
X17870857Y-10907429D01*
X17856571Y-10878857D01*
X17856571Y-10864572D01*
X17870857Y-10836000D01*
X17899428Y-10821714D01*
X17942286Y-10821714D01*
X17970857Y-10836000D01*
X18156571Y-11021714D02*
X18128000Y-11007429D01*
X18113714Y-10978857D01*
X18113714Y-10721714D01*
X18313714Y-11021714D02*
X18285143Y-11007429D01*
X18270857Y-10993143D01*
X18256571Y-10964572D01*
X18256571Y-10878857D01*
X18270857Y-10850286D01*
X18285143Y-10836000D01*
X18313714Y-10821714D01*
X18356571Y-10821714D01*
X18385143Y-10836000D01*
X18399428Y-10850286D01*
X18413714Y-10878857D01*
X18413714Y-10964572D01*
X18399428Y-10993143D01*
X18385143Y-11007429D01*
X18356571Y-11021714D01*
X18313714Y-11021714D01*
X18499428Y-10821714D02*
X18613714Y-10821714D01*
X18542286Y-10721714D02*
X18542286Y-10978857D01*
X18556571Y-11007429D01*
X18585143Y-11021714D01*
X18613714Y-11021714D01*
X18699429Y-11007429D02*
X18728000Y-11021714D01*
X18785143Y-11021714D01*
X18813714Y-11007429D01*
X18828000Y-10978857D01*
X18828000Y-10964572D01*
X18813714Y-10936000D01*
X18785143Y-10921714D01*
X18742286Y-10921714D01*
X18713714Y-10907429D01*
X18699429Y-10878857D01*
X18699429Y-10864572D01*
X18713714Y-10836000D01*
X18742286Y-10821714D01*
X18785143Y-10821714D01*
X18813714Y-10836000D01*
X18928000Y-11136000D02*
X18942286Y-11121714D01*
X18970857Y-11078857D01*
X18985143Y-11050286D01*
X18999428Y-11007429D01*
X19013714Y-10936000D01*
X19013714Y-10878857D01*
X18999428Y-10807429D01*
X18985143Y-10764572D01*
X18970857Y-10736000D01*
X18942286Y-10693143D01*
X18928000Y-10678857D01*
X10000500Y-11254500D02*
X10000500Y-11309500D01*
X9973000Y-11282000D02*
X10028000Y-11282000D01*
X10356571Y-11117714D02*
X10385143Y-11117714D01*
X10413714Y-11132000D01*
X10428000Y-11146286D01*
X10442286Y-11174857D01*
X10456571Y-11232000D01*
X10456571Y-11303429D01*
X10442286Y-11360571D01*
X10428000Y-11389143D01*
X10413714Y-11403429D01*
X10385143Y-11417714D01*
X10356571Y-11417714D01*
X10328000Y-11403429D01*
X10313714Y-11389143D01*
X10299429Y-11360571D01*
X10285143Y-11303429D01*
X10285143Y-11232000D01*
X10299429Y-11174857D01*
X10313714Y-11146286D01*
X10328000Y-11132000D01*
X10356571Y-11117714D01*
X10585143Y-11389143D02*
X10599429Y-11403429D01*
X10585143Y-11417714D01*
X10570857Y-11403429D01*
X10585143Y-11389143D01*
X10585143Y-11417714D01*
X10870857Y-11117714D02*
X10728000Y-11117714D01*
X10713714Y-11260571D01*
X10728000Y-11246286D01*
X10756571Y-11232000D01*
X10828000Y-11232000D01*
X10856571Y-11246286D01*
X10870857Y-11260571D01*
X10885143Y-11289143D01*
X10885143Y-11360571D01*
X10870857Y-11389143D01*
X10856571Y-11403429D01*
X10828000Y-11417714D01*
X10756571Y-11417714D01*
X10728000Y-11403429D01*
X10713714Y-11389143D01*
X11156571Y-11117714D02*
X11013714Y-11117714D01*
X10999429Y-11260571D01*
X11013714Y-11246286D01*
X11042286Y-11232000D01*
X11113714Y-11232000D01*
X11142286Y-11246286D01*
X11156571Y-11260571D01*
X11170857Y-11289143D01*
X11170857Y-11360571D01*
X11156571Y-11389143D01*
X11142286Y-11403429D01*
X11113714Y-11417714D01*
X11042286Y-11417714D01*
X11013714Y-11403429D01*
X10999429Y-11389143D01*
X11299428Y-11417714D02*
X11299428Y-11217714D01*
X11299428Y-11246286D02*
X11313714Y-11232000D01*
X11342286Y-11217714D01*
X11385143Y-11217714D01*
X11413714Y-11232000D01*
X11428000Y-11260571D01*
X11428000Y-11417714D01*
X11428000Y-11260571D02*
X11442286Y-11232000D01*
X11470857Y-11217714D01*
X11513714Y-11217714D01*
X11542286Y-11232000D01*
X11556571Y-11260571D01*
X11556571Y-11417714D01*
X11699428Y-11417714D02*
X11699428Y-11217714D01*
X11699428Y-11246286D02*
X11713714Y-11232000D01*
X11742286Y-11217714D01*
X11785143Y-11217714D01*
X11813714Y-11232000D01*
X11828000Y-11260571D01*
X11828000Y-11417714D01*
X11828000Y-11260571D02*
X11842286Y-11232000D01*
X11870857Y-11217714D01*
X11913714Y-11217714D01*
X11942286Y-11232000D01*
X11956571Y-11260571D01*
X11956571Y-11417714D01*
X12542286Y-11103429D02*
X12285143Y-11489143D01*
X12928000Y-11117714D02*
X12956571Y-11117714D01*
X12985143Y-11132000D01*
X12999428Y-11146286D01*
X13013714Y-11174857D01*
X13028000Y-11232000D01*
X13028000Y-11303429D01*
X13013714Y-11360571D01*
X12999428Y-11389143D01*
X12985143Y-11403429D01*
X12956571Y-11417714D01*
X12928000Y-11417714D01*
X12899428Y-11403429D01*
X12885143Y-11389143D01*
X12870857Y-11360571D01*
X12856571Y-11303429D01*
X12856571Y-11232000D01*
X12870857Y-11174857D01*
X12885143Y-11146286D01*
X12899428Y-11132000D01*
X12928000Y-11117714D01*
X13156571Y-11389143D02*
X13170857Y-11403429D01*
X13156571Y-11417714D01*
X13142286Y-11403429D01*
X13156571Y-11389143D01*
X13156571Y-11417714D01*
X13356571Y-11117714D02*
X13385143Y-11117714D01*
X13413714Y-11132000D01*
X13428000Y-11146286D01*
X13442285Y-11174857D01*
X13456571Y-11232000D01*
X13456571Y-11303429D01*
X13442285Y-11360571D01*
X13428000Y-11389143D01*
X13413714Y-11403429D01*
X13385143Y-11417714D01*
X13356571Y-11417714D01*
X13328000Y-11403429D01*
X13313714Y-11389143D01*
X13299428Y-11360571D01*
X13285143Y-11303429D01*
X13285143Y-11232000D01*
X13299428Y-11174857D01*
X13313714Y-11146286D01*
X13328000Y-11132000D01*
X13356571Y-11117714D01*
X13570857Y-11146286D02*
X13585143Y-11132000D01*
X13613714Y-11117714D01*
X13685143Y-11117714D01*
X13713714Y-11132000D01*
X13728000Y-11146286D01*
X13742285Y-11174857D01*
X13742285Y-11203429D01*
X13728000Y-11246286D01*
X13556571Y-11417714D01*
X13742285Y-11417714D01*
X13856571Y-11146286D02*
X13870857Y-11132000D01*
X13899428Y-11117714D01*
X13970857Y-11117714D01*
X13999428Y-11132000D01*
X14013714Y-11146286D01*
X14028000Y-11174857D01*
X14028000Y-11203429D01*
X14013714Y-11246286D01*
X13842285Y-11417714D01*
X14028000Y-11417714D01*
X14142286Y-11117714D02*
X14142286Y-11174857D01*
X14256571Y-11117714D02*
X14256571Y-11174857D01*
X14699428Y-11532000D02*
X14685143Y-11517714D01*
X14656571Y-11474857D01*
X14642285Y-11446286D01*
X14628000Y-11403429D01*
X14613714Y-11332000D01*
X14613714Y-11274857D01*
X14628000Y-11203429D01*
X14642285Y-11160572D01*
X14656571Y-11132000D01*
X14685143Y-11089143D01*
X14699428Y-11074857D01*
X14870857Y-11117714D02*
X14899428Y-11117714D01*
X14928000Y-11132000D01*
X14942285Y-11146286D01*
X14956571Y-11174857D01*
X14970857Y-11232000D01*
X14970857Y-11303429D01*
X14956571Y-11360571D01*
X14942285Y-11389143D01*
X14928000Y-11403429D01*
X14899428Y-11417714D01*
X14870857Y-11417714D01*
X14842285Y-11403429D01*
X14828000Y-11389143D01*
X14813714Y-11360571D01*
X14799428Y-11303429D01*
X14799428Y-11232000D01*
X14813714Y-11174857D01*
X14828000Y-11146286D01*
X14842285Y-11132000D01*
X14870857Y-11117714D01*
X15328000Y-11417714D02*
X15328000Y-11117714D01*
X15456571Y-11417714D02*
X15456571Y-11260571D01*
X15442285Y-11232000D01*
X15413714Y-11217714D01*
X15370857Y-11217714D01*
X15342285Y-11232000D01*
X15328000Y-11246286D01*
X15642285Y-11417714D02*
X15613714Y-11403429D01*
X15599428Y-11389143D01*
X15585143Y-11360571D01*
X15585143Y-11274857D01*
X15599428Y-11246286D01*
X15613714Y-11232000D01*
X15642285Y-11217714D01*
X15685143Y-11217714D01*
X15713714Y-11232000D01*
X15728000Y-11246286D01*
X15742285Y-11274857D01*
X15742285Y-11360571D01*
X15728000Y-11389143D01*
X15713714Y-11403429D01*
X15685143Y-11417714D01*
X15642285Y-11417714D01*
X15913714Y-11417714D02*
X15885143Y-11403429D01*
X15870857Y-11374857D01*
X15870857Y-11117714D01*
X16142286Y-11403429D02*
X16113714Y-11417714D01*
X16056571Y-11417714D01*
X16028000Y-11403429D01*
X16013714Y-11374857D01*
X16013714Y-11260571D01*
X16028000Y-11232000D01*
X16056571Y-11217714D01*
X16113714Y-11217714D01*
X16142286Y-11232000D01*
X16156571Y-11260571D01*
X16156571Y-11289143D01*
X16013714Y-11317714D01*
X16270857Y-11403429D02*
X16299428Y-11417714D01*
X16356571Y-11417714D01*
X16385143Y-11403429D01*
X16399428Y-11374857D01*
X16399428Y-11360571D01*
X16385143Y-11332000D01*
X16356571Y-11317714D01*
X16313714Y-11317714D01*
X16285143Y-11303429D01*
X16270857Y-11274857D01*
X16270857Y-11260571D01*
X16285143Y-11232000D01*
X16313714Y-11217714D01*
X16356571Y-11217714D01*
X16385143Y-11232000D01*
X16756571Y-11303429D02*
X16985143Y-11303429D01*
X16870857Y-11417714D02*
X16870857Y-11189143D01*
X17342286Y-11146286D02*
X17356571Y-11132000D01*
X17385143Y-11117714D01*
X17456571Y-11117714D01*
X17485143Y-11132000D01*
X17499428Y-11146286D01*
X17513714Y-11174857D01*
X17513714Y-11203429D01*
X17499428Y-11246286D01*
X17328000Y-11417714D01*
X17513714Y-11417714D01*
X17856571Y-11403429D02*
X17885143Y-11417714D01*
X17942286Y-11417714D01*
X17970857Y-11403429D01*
X17985143Y-11374857D01*
X17985143Y-11360571D01*
X17970857Y-11332000D01*
X17942286Y-11317714D01*
X17899428Y-11317714D01*
X17870857Y-11303429D01*
X17856571Y-11274857D01*
X17856571Y-11260571D01*
X17870857Y-11232000D01*
X17899428Y-11217714D01*
X17942286Y-11217714D01*
X17970857Y-11232000D01*
X18156571Y-11417714D02*
X18128000Y-11403429D01*
X18113714Y-11374857D01*
X18113714Y-11117714D01*
X18313714Y-11417714D02*
X18285143Y-11403429D01*
X18270857Y-11389143D01*
X18256571Y-11360571D01*
X18256571Y-11274857D01*
X18270857Y-11246286D01*
X18285143Y-11232000D01*
X18313714Y-11217714D01*
X18356571Y-11217714D01*
X18385143Y-11232000D01*
X18399428Y-11246286D01*
X18413714Y-11274857D01*
X18413714Y-11360571D01*
X18399428Y-11389143D01*
X18385143Y-11403429D01*
X18356571Y-11417714D01*
X18313714Y-11417714D01*
X18499428Y-11217714D02*
X18613714Y-11217714D01*
X18542286Y-11117714D02*
X18542286Y-11374857D01*
X18556571Y-11403429D01*
X18585143Y-11417714D01*
X18613714Y-11417714D01*
X18699429Y-11403429D02*
X18728000Y-11417714D01*
X18785143Y-11417714D01*
X18813714Y-11403429D01*
X18828000Y-11374857D01*
X18828000Y-11360571D01*
X18813714Y-11332000D01*
X18785143Y-11317714D01*
X18742286Y-11317714D01*
X18713714Y-11303429D01*
X18699429Y-11274857D01*
X18699429Y-11260571D01*
X18713714Y-11232000D01*
X18742286Y-11217714D01*
X18785143Y-11217714D01*
X18813714Y-11232000D01*
X18928000Y-11532000D02*
X18942286Y-11517714D01*
X18970857Y-11474857D01*
X18985143Y-11446286D01*
X18999428Y-11403429D01*
X19013714Y-11332000D01*
X19013714Y-11274857D01*
X18999428Y-11203429D01*
X18985143Y-11160572D01*
X18970857Y-11132000D01*
X18942286Y-11089143D01*
X18928000Y-11074857D01*
X10016097Y-11706737D02*
X10016097Y-11649263D01*
X9958623Y-11649263D01*
X9958623Y-11706737D01*
X10016097Y-11706737D01*
X10356571Y-11513714D02*
X10385143Y-11513714D01*
X10413714Y-11528000D01*
X10428000Y-11542286D01*
X10442286Y-11570857D01*
X10456571Y-11628000D01*
X10456571Y-11699429D01*
X10442286Y-11756571D01*
X10428000Y-11785143D01*
X10413714Y-11799429D01*
X10385143Y-11813714D01*
X10356571Y-11813714D01*
X10328000Y-11799429D01*
X10313714Y-11785143D01*
X10299429Y-11756571D01*
X10285143Y-11699429D01*
X10285143Y-11628000D01*
X10299429Y-11570857D01*
X10313714Y-11542286D01*
X10328000Y-11528000D01*
X10356571Y-11513714D01*
X10585143Y-11785143D02*
X10599429Y-11799429D01*
X10585143Y-11813714D01*
X10570857Y-11799429D01*
X10585143Y-11785143D01*
X10585143Y-11813714D01*
X10770857Y-11642286D02*
X10742286Y-11628000D01*
X10728000Y-11613714D01*
X10713714Y-11585143D01*
X10713714Y-11570857D01*
X10728000Y-11542286D01*
X10742286Y-11528000D01*
X10770857Y-11513714D01*
X10828000Y-11513714D01*
X10856571Y-11528000D01*
X10870857Y-11542286D01*
X10885143Y-11570857D01*
X10885143Y-11585143D01*
X10870857Y-11613714D01*
X10856571Y-11628000D01*
X10828000Y-11642286D01*
X10770857Y-11642286D01*
X10742286Y-11656571D01*
X10728000Y-11670857D01*
X10713714Y-11699429D01*
X10713714Y-11756571D01*
X10728000Y-11785143D01*
X10742286Y-11799429D01*
X10770857Y-11813714D01*
X10828000Y-11813714D01*
X10856571Y-11799429D01*
X10870857Y-11785143D01*
X10885143Y-11756571D01*
X10885143Y-11699429D01*
X10870857Y-11670857D01*
X10856571Y-11656571D01*
X10828000Y-11642286D01*
X11170857Y-11813714D02*
X10999429Y-11813714D01*
X11085143Y-11813714D02*
X11085143Y-11513714D01*
X11056571Y-11556571D01*
X11028000Y-11585143D01*
X10999429Y-11599429D01*
X11299428Y-11813714D02*
X11299428Y-11613714D01*
X11299428Y-11642286D02*
X11313714Y-11628000D01*
X11342286Y-11613714D01*
X11385143Y-11613714D01*
X11413714Y-11628000D01*
X11428000Y-11656571D01*
X11428000Y-11813714D01*
X11428000Y-11656571D02*
X11442286Y-11628000D01*
X11470857Y-11613714D01*
X11513714Y-11613714D01*
X11542286Y-11628000D01*
X11556571Y-11656571D01*
X11556571Y-11813714D01*
X11699428Y-11813714D02*
X11699428Y-11613714D01*
X11699428Y-11642286D02*
X11713714Y-11628000D01*
X11742286Y-11613714D01*
X11785143Y-11613714D01*
X11813714Y-11628000D01*
X11828000Y-11656571D01*
X11828000Y-11813714D01*
X11828000Y-11656571D02*
X11842286Y-11628000D01*
X11870857Y-11613714D01*
X11913714Y-11613714D01*
X11942286Y-11628000D01*
X11956571Y-11656571D01*
X11956571Y-11813714D01*
X12542286Y-11499429D02*
X12285143Y-11885143D01*
X12928000Y-11513714D02*
X12956571Y-11513714D01*
X12985143Y-11528000D01*
X12999428Y-11542286D01*
X13013714Y-11570857D01*
X13028000Y-11628000D01*
X13028000Y-11699429D01*
X13013714Y-11756571D01*
X12999428Y-11785143D01*
X12985143Y-11799429D01*
X12956571Y-11813714D01*
X12928000Y-11813714D01*
X12899428Y-11799429D01*
X12885143Y-11785143D01*
X12870857Y-11756571D01*
X12856571Y-11699429D01*
X12856571Y-11628000D01*
X12870857Y-11570857D01*
X12885143Y-11542286D01*
X12899428Y-11528000D01*
X12928000Y-11513714D01*
X13156571Y-11785143D02*
X13170857Y-11799429D01*
X13156571Y-11813714D01*
X13142286Y-11799429D01*
X13156571Y-11785143D01*
X13156571Y-11813714D01*
X13356571Y-11513714D02*
X13385143Y-11513714D01*
X13413714Y-11528000D01*
X13428000Y-11542286D01*
X13442285Y-11570857D01*
X13456571Y-11628000D01*
X13456571Y-11699429D01*
X13442285Y-11756571D01*
X13428000Y-11785143D01*
X13413714Y-11799429D01*
X13385143Y-11813714D01*
X13356571Y-11813714D01*
X13328000Y-11799429D01*
X13313714Y-11785143D01*
X13299428Y-11756571D01*
X13285143Y-11699429D01*
X13285143Y-11628000D01*
X13299428Y-11570857D01*
X13313714Y-11542286D01*
X13328000Y-11528000D01*
X13356571Y-11513714D01*
X13556571Y-11513714D02*
X13742285Y-11513714D01*
X13642285Y-11628000D01*
X13685143Y-11628000D01*
X13713714Y-11642286D01*
X13728000Y-11656571D01*
X13742285Y-11685143D01*
X13742285Y-11756571D01*
X13728000Y-11785143D01*
X13713714Y-11799429D01*
X13685143Y-11813714D01*
X13599428Y-11813714D01*
X13570857Y-11799429D01*
X13556571Y-11785143D01*
X13856571Y-11542286D02*
X13870857Y-11528000D01*
X13899428Y-11513714D01*
X13970857Y-11513714D01*
X13999428Y-11528000D01*
X14013714Y-11542286D01*
X14028000Y-11570857D01*
X14028000Y-11599429D01*
X14013714Y-11642286D01*
X13842285Y-11813714D01*
X14028000Y-11813714D01*
X14142286Y-11513714D02*
X14142286Y-11570857D01*
X14256571Y-11513714D02*
X14256571Y-11570857D01*
X14699428Y-11928000D02*
X14685143Y-11913714D01*
X14656571Y-11870857D01*
X14642285Y-11842286D01*
X14628000Y-11799429D01*
X14613714Y-11728000D01*
X14613714Y-11670857D01*
X14628000Y-11599429D01*
X14642285Y-11556571D01*
X14656571Y-11528000D01*
X14685143Y-11485143D01*
X14699428Y-11470857D01*
X14799428Y-11542286D02*
X14813714Y-11528000D01*
X14842285Y-11513714D01*
X14913714Y-11513714D01*
X14942285Y-11528000D01*
X14956571Y-11542286D01*
X14970857Y-11570857D01*
X14970857Y-11599429D01*
X14956571Y-11642286D01*
X14785143Y-11813714D01*
X14970857Y-11813714D01*
X15156571Y-11513714D02*
X15185143Y-11513714D01*
X15213714Y-11528000D01*
X15228000Y-11542286D01*
X15242285Y-11570857D01*
X15256571Y-11628000D01*
X15256571Y-11699429D01*
X15242285Y-11756571D01*
X15228000Y-11785143D01*
X15213714Y-11799429D01*
X15185143Y-11813714D01*
X15156571Y-11813714D01*
X15128000Y-11799429D01*
X15113714Y-11785143D01*
X15099428Y-11756571D01*
X15085143Y-11699429D01*
X15085143Y-11628000D01*
X15099428Y-11570857D01*
X15113714Y-11542286D01*
X15128000Y-11528000D01*
X15156571Y-11513714D01*
X15613714Y-11813714D02*
X15613714Y-11513714D01*
X15742285Y-11813714D02*
X15742285Y-11656571D01*
X15728000Y-11628000D01*
X15699428Y-11613714D01*
X15656571Y-11613714D01*
X15628000Y-11628000D01*
X15613714Y-11642286D01*
X15928000Y-11813714D02*
X15899428Y-11799429D01*
X15885143Y-11785143D01*
X15870857Y-11756571D01*
X15870857Y-11670857D01*
X15885143Y-11642286D01*
X15899428Y-11628000D01*
X15928000Y-11613714D01*
X15970857Y-11613714D01*
X15999428Y-11628000D01*
X16013714Y-11642286D01*
X16028000Y-11670857D01*
X16028000Y-11756571D01*
X16013714Y-11785143D01*
X15999428Y-11799429D01*
X15970857Y-11813714D01*
X15928000Y-11813714D01*
X16199428Y-11813714D02*
X16170857Y-11799429D01*
X16156571Y-11770857D01*
X16156571Y-11513714D01*
X16428000Y-11799429D02*
X16399428Y-11813714D01*
X16342286Y-11813714D01*
X16313714Y-11799429D01*
X16299428Y-11770857D01*
X16299428Y-11656571D01*
X16313714Y-11628000D01*
X16342286Y-11613714D01*
X16399428Y-11613714D01*
X16428000Y-11628000D01*
X16442286Y-11656571D01*
X16442286Y-11685143D01*
X16299428Y-11713714D01*
X16556571Y-11799429D02*
X16585143Y-11813714D01*
X16642286Y-11813714D01*
X16670857Y-11799429D01*
X16685143Y-11770857D01*
X16685143Y-11756571D01*
X16670857Y-11728000D01*
X16642286Y-11713714D01*
X16599428Y-11713714D01*
X16570857Y-11699429D01*
X16556571Y-11670857D01*
X16556571Y-11656571D01*
X16570857Y-11628000D01*
X16599428Y-11613714D01*
X16642286Y-11613714D01*
X16670857Y-11628000D01*
X16785143Y-11928000D02*
X16799429Y-11913714D01*
X16828000Y-11870857D01*
X16842286Y-11842286D01*
X16856571Y-11799429D01*
X16870857Y-11728000D01*
X16870857Y-11670857D01*
X16856571Y-11599429D01*
X16842286Y-11556571D01*
X16828000Y-11528000D01*
X16799429Y-11485143D01*
X16785143Y-11470857D01*
X9977200Y-12124800D02*
X10028000Y-12074000D01*
X9977200Y-12023200D01*
X9926400Y-12074000D01*
X9977200Y-12124800D01*
X10456571Y-12209714D02*
X10285143Y-12209714D01*
X10370857Y-12209714D02*
X10370857Y-11909714D01*
X10342286Y-11952571D01*
X10313714Y-11981143D01*
X10285143Y-11995429D01*
X10585143Y-12181143D02*
X10599429Y-12195429D01*
X10585143Y-12209714D01*
X10570857Y-12195429D01*
X10585143Y-12181143D01*
X10585143Y-12209714D01*
X10785143Y-11909714D02*
X10813714Y-11909714D01*
X10842286Y-11924000D01*
X10856571Y-11938286D01*
X10870857Y-11966857D01*
X10885143Y-12024000D01*
X10885143Y-12095429D01*
X10870857Y-12152571D01*
X10856571Y-12181143D01*
X10842286Y-12195429D01*
X10813714Y-12209714D01*
X10785143Y-12209714D01*
X10756571Y-12195429D01*
X10742286Y-12181143D01*
X10728000Y-12152571D01*
X10713714Y-12095429D01*
X10713714Y-12024000D01*
X10728000Y-11966857D01*
X10742286Y-11938286D01*
X10756571Y-11924000D01*
X10785143Y-11909714D01*
X10999429Y-11938286D02*
X11013714Y-11924000D01*
X11042286Y-11909714D01*
X11113714Y-11909714D01*
X11142286Y-11924000D01*
X11156571Y-11938286D01*
X11170857Y-11966857D01*
X11170857Y-11995429D01*
X11156571Y-12038286D01*
X10985143Y-12209714D01*
X11170857Y-12209714D01*
X11299428Y-12209714D02*
X11299428Y-12009714D01*
X11299428Y-12038286D02*
X11313714Y-12024000D01*
X11342286Y-12009714D01*
X11385143Y-12009714D01*
X11413714Y-12024000D01*
X11428000Y-12052571D01*
X11428000Y-12209714D01*
X11428000Y-12052571D02*
X11442286Y-12024000D01*
X11470857Y-12009714D01*
X11513714Y-12009714D01*
X11542286Y-12024000D01*
X11556571Y-12052571D01*
X11556571Y-12209714D01*
X11699428Y-12209714D02*
X11699428Y-12009714D01*
X11699428Y-12038286D02*
X11713714Y-12024000D01*
X11742286Y-12009714D01*
X11785143Y-12009714D01*
X11813714Y-12024000D01*
X11828000Y-12052571D01*
X11828000Y-12209714D01*
X11828000Y-12052571D02*
X11842286Y-12024000D01*
X11870857Y-12009714D01*
X11913714Y-12009714D01*
X11942286Y-12024000D01*
X11956571Y-12052571D01*
X11956571Y-12209714D01*
X12542286Y-11895429D02*
X12285143Y-12281143D01*
X12928000Y-11909714D02*
X12956571Y-11909714D01*
X12985143Y-11924000D01*
X12999428Y-11938286D01*
X13013714Y-11966857D01*
X13028000Y-12024000D01*
X13028000Y-12095429D01*
X13013714Y-12152571D01*
X12999428Y-12181143D01*
X12985143Y-12195429D01*
X12956571Y-12209714D01*
X12928000Y-12209714D01*
X12899428Y-12195429D01*
X12885143Y-12181143D01*
X12870857Y-12152571D01*
X12856571Y-12095429D01*
X12856571Y-12024000D01*
X12870857Y-11966857D01*
X12885143Y-11938286D01*
X12899428Y-11924000D01*
X12928000Y-11909714D01*
X13156571Y-12181143D02*
X13170857Y-12195429D01*
X13156571Y-12209714D01*
X13142286Y-12195429D01*
X13156571Y-12181143D01*
X13156571Y-12209714D01*
X13356571Y-11909714D02*
X13385143Y-11909714D01*
X13413714Y-11924000D01*
X13428000Y-11938286D01*
X13442285Y-11966857D01*
X13456571Y-12024000D01*
X13456571Y-12095429D01*
X13442285Y-12152571D01*
X13428000Y-12181143D01*
X13413714Y-12195429D01*
X13385143Y-12209714D01*
X13356571Y-12209714D01*
X13328000Y-12195429D01*
X13313714Y-12181143D01*
X13299428Y-12152571D01*
X13285143Y-12095429D01*
X13285143Y-12024000D01*
X13299428Y-11966857D01*
X13313714Y-11938286D01*
X13328000Y-11924000D01*
X13356571Y-11909714D01*
X13713714Y-12009714D02*
X13713714Y-12209714D01*
X13642285Y-11895429D02*
X13570857Y-12109714D01*
X13756571Y-12109714D01*
X13928000Y-11909714D02*
X13956571Y-11909714D01*
X13985143Y-11924000D01*
X13999428Y-11938286D01*
X14013714Y-11966857D01*
X14028000Y-12024000D01*
X14028000Y-12095429D01*
X14013714Y-12152571D01*
X13999428Y-12181143D01*
X13985143Y-12195429D01*
X13956571Y-12209714D01*
X13928000Y-12209714D01*
X13899428Y-12195429D01*
X13885143Y-12181143D01*
X13870857Y-12152571D01*
X13856571Y-12095429D01*
X13856571Y-12024000D01*
X13870857Y-11966857D01*
X13885143Y-11938286D01*
X13899428Y-11924000D01*
X13928000Y-11909714D01*
X14142286Y-11909714D02*
X14142286Y-11966857D01*
X14256571Y-11909714D02*
X14256571Y-11966857D01*
X14699428Y-12324000D02*
X14685143Y-12309714D01*
X14656571Y-12266857D01*
X14642285Y-12238286D01*
X14628000Y-12195429D01*
X14613714Y-12124000D01*
X14613714Y-12066857D01*
X14628000Y-11995429D01*
X14642285Y-11952571D01*
X14656571Y-11924000D01*
X14685143Y-11881143D01*
X14699428Y-11866857D01*
X14942285Y-12009714D02*
X14942285Y-12209714D01*
X14870857Y-11895429D02*
X14799428Y-12109714D01*
X14985143Y-12109714D01*
X15328000Y-12209714D02*
X15328000Y-11909714D01*
X15456571Y-12209714D02*
X15456571Y-12052571D01*
X15442285Y-12024000D01*
X15413714Y-12009714D01*
X15370857Y-12009714D01*
X15342285Y-12024000D01*
X15328000Y-12038286D01*
X15642285Y-12209714D02*
X15613714Y-12195429D01*
X15599428Y-12181143D01*
X15585143Y-12152571D01*
X15585143Y-12066857D01*
X15599428Y-12038286D01*
X15613714Y-12024000D01*
X15642285Y-12009714D01*
X15685143Y-12009714D01*
X15713714Y-12024000D01*
X15728000Y-12038286D01*
X15742285Y-12066857D01*
X15742285Y-12152571D01*
X15728000Y-12181143D01*
X15713714Y-12195429D01*
X15685143Y-12209714D01*
X15642285Y-12209714D01*
X15913714Y-12209714D02*
X15885143Y-12195429D01*
X15870857Y-12166857D01*
X15870857Y-11909714D01*
X16142286Y-12195429D02*
X16113714Y-12209714D01*
X16056571Y-12209714D01*
X16028000Y-12195429D01*
X16013714Y-12166857D01*
X16013714Y-12052571D01*
X16028000Y-12024000D01*
X16056571Y-12009714D01*
X16113714Y-12009714D01*
X16142286Y-12024000D01*
X16156571Y-12052571D01*
X16156571Y-12081143D01*
X16013714Y-12109714D01*
X16270857Y-12195429D02*
X16299428Y-12209714D01*
X16356571Y-12209714D01*
X16385143Y-12195429D01*
X16399428Y-12166857D01*
X16399428Y-12152571D01*
X16385143Y-12124000D01*
X16356571Y-12109714D01*
X16313714Y-12109714D01*
X16285143Y-12095429D01*
X16270857Y-12066857D01*
X16270857Y-12052571D01*
X16285143Y-12024000D01*
X16313714Y-12009714D01*
X16356571Y-12009714D01*
X16385143Y-12024000D01*
X16499428Y-12324000D02*
X16513714Y-12309714D01*
X16542286Y-12266857D01*
X16556571Y-12238286D01*
X16570857Y-12195429D01*
X16585143Y-12124000D01*
X16585143Y-12066857D01*
X16570857Y-11995429D01*
X16556571Y-11952571D01*
X16542286Y-11924000D01*
X16513714Y-11881143D01*
X16499428Y-11866857D01*
X9728000Y-12320000D02*
X10028000Y-12620000D01*
X10028000Y-12320000D02*
X9728000Y-12620000D01*
X10028000Y-12470000D02*
G75*
G03X10028000Y-12470000I-150000J0D01*
G01*
X10270857Y-12305714D02*
X10456571Y-12305714D01*
X10356571Y-12420000D01*
X10399429Y-12420000D01*
X10428000Y-12434286D01*
X10442286Y-12448571D01*
X10456571Y-12477143D01*
X10456571Y-12548571D01*
X10442286Y-12577143D01*
X10428000Y-12591429D01*
X10399429Y-12605714D01*
X10313714Y-12605714D01*
X10285143Y-12591429D01*
X10270857Y-12577143D01*
X10585143Y-12577143D02*
X10599429Y-12591429D01*
X10585143Y-12605714D01*
X10570857Y-12591429D01*
X10585143Y-12577143D01*
X10585143Y-12605714D01*
X10785143Y-12305714D02*
X10813714Y-12305714D01*
X10842286Y-12320000D01*
X10856571Y-12334286D01*
X10870857Y-12362857D01*
X10885143Y-12420000D01*
X10885143Y-12491429D01*
X10870857Y-12548571D01*
X10856571Y-12577143D01*
X10842286Y-12591429D01*
X10813714Y-12605714D01*
X10785143Y-12605714D01*
X10756571Y-12591429D01*
X10742286Y-12577143D01*
X10728000Y-12548571D01*
X10713714Y-12491429D01*
X10713714Y-12420000D01*
X10728000Y-12362857D01*
X10742286Y-12334286D01*
X10756571Y-12320000D01*
X10785143Y-12305714D01*
X11070857Y-12305714D02*
X11099429Y-12305714D01*
X11128000Y-12320000D01*
X11142286Y-12334286D01*
X11156571Y-12362857D01*
X11170857Y-12420000D01*
X11170857Y-12491429D01*
X11156571Y-12548571D01*
X11142286Y-12577143D01*
X11128000Y-12591429D01*
X11099429Y-12605714D01*
X11070857Y-12605714D01*
X11042286Y-12591429D01*
X11028000Y-12577143D01*
X11013714Y-12548571D01*
X10999429Y-12491429D01*
X10999429Y-12420000D01*
X11013714Y-12362857D01*
X11028000Y-12334286D01*
X11042286Y-12320000D01*
X11070857Y-12305714D01*
X11299428Y-12605714D02*
X11299428Y-12405714D01*
X11299428Y-12434286D02*
X11313714Y-12420000D01*
X11342286Y-12405714D01*
X11385143Y-12405714D01*
X11413714Y-12420000D01*
X11428000Y-12448571D01*
X11428000Y-12605714D01*
X11428000Y-12448571D02*
X11442286Y-12420000D01*
X11470857Y-12405714D01*
X11513714Y-12405714D01*
X11542286Y-12420000D01*
X11556571Y-12448571D01*
X11556571Y-12605714D01*
X11699428Y-12605714D02*
X11699428Y-12405714D01*
X11699428Y-12434286D02*
X11713714Y-12420000D01*
X11742286Y-12405714D01*
X11785143Y-12405714D01*
X11813714Y-12420000D01*
X11828000Y-12448571D01*
X11828000Y-12605714D01*
X11828000Y-12448571D02*
X11842286Y-12420000D01*
X11870857Y-12405714D01*
X11913714Y-12405714D01*
X11942286Y-12420000D01*
X11956571Y-12448571D01*
X11956571Y-12605714D01*
X12542286Y-12291429D02*
X12285143Y-12677143D01*
X12928000Y-12305714D02*
X12956571Y-12305714D01*
X12985143Y-12320000D01*
X12999428Y-12334286D01*
X13013714Y-12362857D01*
X13028000Y-12420000D01*
X13028000Y-12491429D01*
X13013714Y-12548571D01*
X12999428Y-12577143D01*
X12985143Y-12591429D01*
X12956571Y-12605714D01*
X12928000Y-12605714D01*
X12899428Y-12591429D01*
X12885143Y-12577143D01*
X12870857Y-12548571D01*
X12856571Y-12491429D01*
X12856571Y-12420000D01*
X12870857Y-12362857D01*
X12885143Y-12334286D01*
X12899428Y-12320000D01*
X12928000Y-12305714D01*
X13156571Y-12577143D02*
X13170857Y-12591429D01*
X13156571Y-12605714D01*
X13142286Y-12591429D01*
X13156571Y-12577143D01*
X13156571Y-12605714D01*
X13456571Y-12605714D02*
X13285143Y-12605714D01*
X13370857Y-12605714D02*
X13370857Y-12305714D01*
X13342285Y-12348571D01*
X13313714Y-12377143D01*
X13285143Y-12391429D01*
X13742285Y-12605714D02*
X13570857Y-12605714D01*
X13656571Y-12605714D02*
X13656571Y-12305714D01*
X13628000Y-12348571D01*
X13599428Y-12377143D01*
X13570857Y-12391429D01*
X13913714Y-12434286D02*
X13885143Y-12420000D01*
X13870857Y-12405714D01*
X13856571Y-12377143D01*
X13856571Y-12362857D01*
X13870857Y-12334286D01*
X13885143Y-12320000D01*
X13913714Y-12305714D01*
X13970857Y-12305714D01*
X13999428Y-12320000D01*
X14013714Y-12334286D01*
X14028000Y-12362857D01*
X14028000Y-12377143D01*
X14013714Y-12405714D01*
X13999428Y-12420000D01*
X13970857Y-12434286D01*
X13913714Y-12434286D01*
X13885143Y-12448571D01*
X13870857Y-12462857D01*
X13856571Y-12491429D01*
X13856571Y-12548571D01*
X13870857Y-12577143D01*
X13885143Y-12591429D01*
X13913714Y-12605714D01*
X13970857Y-12605714D01*
X13999428Y-12591429D01*
X14013714Y-12577143D01*
X14028000Y-12548571D01*
X14028000Y-12491429D01*
X14013714Y-12462857D01*
X13999428Y-12448571D01*
X13970857Y-12434286D01*
X14142286Y-12305714D02*
X14142286Y-12362857D01*
X14256571Y-12305714D02*
X14256571Y-12362857D01*
X14699428Y-12720000D02*
X14685143Y-12705714D01*
X14656571Y-12662857D01*
X14642285Y-12634286D01*
X14628000Y-12591429D01*
X14613714Y-12520000D01*
X14613714Y-12462857D01*
X14628000Y-12391429D01*
X14642285Y-12348571D01*
X14656571Y-12320000D01*
X14685143Y-12277143D01*
X14699428Y-12262857D01*
X14942285Y-12405714D02*
X14942285Y-12605714D01*
X14870857Y-12291429D02*
X14799428Y-12505714D01*
X14985143Y-12505714D01*
X15328000Y-12605714D02*
X15328000Y-12305714D01*
X15456571Y-12605714D02*
X15456571Y-12448571D01*
X15442285Y-12420000D01*
X15413714Y-12405714D01*
X15370857Y-12405714D01*
X15342285Y-12420000D01*
X15328000Y-12434286D01*
X15642285Y-12605714D02*
X15613714Y-12591429D01*
X15599428Y-12577143D01*
X15585143Y-12548571D01*
X15585143Y-12462857D01*
X15599428Y-12434286D01*
X15613714Y-12420000D01*
X15642285Y-12405714D01*
X15685143Y-12405714D01*
X15713714Y-12420000D01*
X15728000Y-12434286D01*
X15742285Y-12462857D01*
X15742285Y-12548571D01*
X15728000Y-12577143D01*
X15713714Y-12591429D01*
X15685143Y-12605714D01*
X15642285Y-12605714D01*
X15913714Y-12605714D02*
X15885143Y-12591429D01*
X15870857Y-12562857D01*
X15870857Y-12305714D01*
X16142286Y-12591429D02*
X16113714Y-12605714D01*
X16056571Y-12605714D01*
X16028000Y-12591429D01*
X16013714Y-12562857D01*
X16013714Y-12448571D01*
X16028000Y-12420000D01*
X16056571Y-12405714D01*
X16113714Y-12405714D01*
X16142286Y-12420000D01*
X16156571Y-12448571D01*
X16156571Y-12477143D01*
X16013714Y-12505714D01*
X16270857Y-12591429D02*
X16299428Y-12605714D01*
X16356571Y-12605714D01*
X16385143Y-12591429D01*
X16399428Y-12562857D01*
X16399428Y-12548571D01*
X16385143Y-12520000D01*
X16356571Y-12505714D01*
X16313714Y-12505714D01*
X16285143Y-12491429D01*
X16270857Y-12462857D01*
X16270857Y-12448571D01*
X16285143Y-12420000D01*
X16313714Y-12405714D01*
X16356571Y-12405714D01*
X16385143Y-12420000D01*
X16499428Y-12720000D02*
X16513714Y-12705714D01*
X16542286Y-12662857D01*
X16556571Y-12634286D01*
X16570857Y-12591429D01*
X16585143Y-12520000D01*
X16585143Y-12462857D01*
X16570857Y-12391429D01*
X16556571Y-12348571D01*
X16542286Y-12320000D01*
X16513714Y-12277143D01*
X16499428Y-12262857D01*
M02*
