G04 #@! TF.FileFunction,Legend,Top*
%FSLAX46Y46*%
G04 Gerber Fmt 4.6, Leading zero omitted, Abs format (unit mm)*
G04 Created by KiCad (PCBNEW (2015-07-31 BZR 6030)-product) date Mon Aug 24 21:55:30 2015*
%MOMM*%
G01*
G04 APERTURE LIST*
%ADD10C,0.100000*%
%ADD11C,0.150000*%
G04 APERTURE END LIST*
D10*
D11*
X106426000Y-60960000D02*
G75*
G03X106426000Y-60960000I-2286000J0D01*
G01*
X106426000Y-91440000D02*
G75*
G03X106426000Y-91440000I-2286000J0D01*
G01*
X176276000Y-91440000D02*
G75*
G03X176276000Y-91440000I-2286000J0D01*
G01*
X126580000Y-70350000D02*
X126580000Y-69350000D01*
X124880000Y-69350000D02*
X124880000Y-70350000D01*
X113380000Y-84420000D02*
X112680000Y-84420000D01*
X112680000Y-83220000D02*
X113380000Y-83220000D01*
X113380000Y-89500000D02*
X112680000Y-89500000D01*
X112680000Y-88300000D02*
X113380000Y-88300000D01*
X120300000Y-89570000D02*
X121000000Y-89570000D01*
X121000000Y-90770000D02*
X120300000Y-90770000D01*
X119880000Y-72810000D02*
X118880000Y-72810000D01*
X118880000Y-74510000D02*
X119880000Y-74510000D01*
X124110000Y-89570000D02*
X124810000Y-89570000D01*
X124810000Y-90770000D02*
X124110000Y-90770000D01*
X119880000Y-63920000D02*
X118880000Y-63920000D01*
X118880000Y-65620000D02*
X119880000Y-65620000D01*
X103840000Y-75690000D02*
X103840000Y-84390000D01*
X110245000Y-75690000D02*
X110245000Y-84390000D01*
X110245000Y-84390000D02*
X103840000Y-84390000D01*
X105070000Y-84390000D02*
X105070000Y-75690000D01*
X103840000Y-75690000D02*
X110245000Y-75690000D01*
X113800000Y-75525000D02*
X114800000Y-75525000D01*
X114800000Y-76875000D02*
X113800000Y-76875000D01*
X170180000Y-74930000D02*
X170180000Y-82550000D01*
X172720000Y-74930000D02*
X172720000Y-82550000D01*
X173000000Y-72110000D02*
X173000000Y-73660000D01*
X170180000Y-82550000D02*
X172720000Y-82550000D01*
X172720000Y-74930000D02*
X170180000Y-74930000D01*
X169900000Y-73660000D02*
X169900000Y-72110000D01*
X169900000Y-72110000D02*
X173000000Y-72110000D01*
X119185000Y-85360000D02*
X119185000Y-87360000D01*
X117035000Y-87360000D02*
X117035000Y-85360000D01*
X119185000Y-80280000D02*
X119185000Y-82280000D01*
X117035000Y-82280000D02*
X117035000Y-80280000D01*
X117440000Y-91045000D02*
X116240000Y-91045000D01*
X116240000Y-89295000D02*
X117440000Y-89295000D01*
X126085000Y-84870000D02*
X126085000Y-82770000D01*
X122835000Y-85645000D02*
X122835000Y-82770000D01*
X127000000Y-73660000D02*
X128270000Y-73660000D01*
X128270000Y-73660000D02*
X128270000Y-76200000D01*
X128270000Y-76200000D02*
X127000000Y-76200000D01*
X127000000Y-72390000D02*
X154940000Y-72390000D01*
X154940000Y-72390000D02*
X154940000Y-77470000D01*
X154940000Y-77470000D02*
X127000000Y-77470000D01*
X127000000Y-77470000D02*
X127000000Y-72390000D01*
X119980000Y-71300000D02*
X119980000Y-68400000D01*
X118780000Y-71300000D02*
X118780000Y-68400000D01*
X118780000Y-68400000D02*
X119980000Y-68400000D01*
X119980000Y-71300000D02*
X118780000Y-71300000D01*
X162260000Y-80180000D02*
X162260000Y-80480000D01*
X162260000Y-80480000D02*
X161960000Y-80480000D01*
X163160000Y-82380000D02*
X163160000Y-80180000D01*
X163160000Y-80180000D02*
X161960000Y-80180000D01*
X161960000Y-80180000D02*
X161960000Y-82380000D01*
X161960000Y-82380000D02*
X163160000Y-82380000D01*
X167340000Y-71290000D02*
X167340000Y-71590000D01*
X167340000Y-71590000D02*
X167040000Y-71590000D01*
X168240000Y-73490000D02*
X168240000Y-71290000D01*
X168240000Y-71290000D02*
X167040000Y-71290000D01*
X167040000Y-71290000D02*
X167040000Y-73490000D01*
X167040000Y-73490000D02*
X168240000Y-73490000D01*
X162260000Y-75100000D02*
X162260000Y-75400000D01*
X162260000Y-75400000D02*
X161960000Y-75400000D01*
X163160000Y-77300000D02*
X163160000Y-75100000D01*
X163160000Y-75100000D02*
X161960000Y-75100000D01*
X161960000Y-75100000D02*
X161960000Y-77300000D01*
X161960000Y-77300000D02*
X163160000Y-77300000D01*
X167340000Y-77640000D02*
X167340000Y-77940000D01*
X167340000Y-77940000D02*
X167040000Y-77940000D01*
X168240000Y-79840000D02*
X168240000Y-77640000D01*
X168240000Y-77640000D02*
X167040000Y-77640000D01*
X167040000Y-77640000D02*
X167040000Y-79840000D01*
X167040000Y-79840000D02*
X168240000Y-79840000D01*
X176276000Y-60960000D02*
G75*
G03X176276000Y-60960000I-2286000J0D01*
G01*
X126087143Y-72556666D02*
X126134762Y-72604285D01*
X126182381Y-72747142D01*
X126182381Y-72842380D01*
X126134762Y-72985238D01*
X126039524Y-73080476D01*
X125944286Y-73128095D01*
X125753810Y-73175714D01*
X125610952Y-73175714D01*
X125420476Y-73128095D01*
X125325238Y-73080476D01*
X125230000Y-72985238D01*
X125182381Y-72842380D01*
X125182381Y-72747142D01*
X125230000Y-72604285D01*
X125277619Y-72556666D01*
X126182381Y-71604285D02*
X126182381Y-72175714D01*
X126182381Y-71890000D02*
X125182381Y-71890000D01*
X125325238Y-71985238D01*
X125420476Y-72080476D01*
X125468095Y-72175714D01*
X112863334Y-86077143D02*
X112815715Y-86124762D01*
X112672858Y-86172381D01*
X112577620Y-86172381D01*
X112434762Y-86124762D01*
X112339524Y-86029524D01*
X112291905Y-85934286D01*
X112244286Y-85743810D01*
X112244286Y-85600952D01*
X112291905Y-85410476D01*
X112339524Y-85315238D01*
X112434762Y-85220000D01*
X112577620Y-85172381D01*
X112672858Y-85172381D01*
X112815715Y-85220000D01*
X112863334Y-85267619D01*
X113244286Y-85267619D02*
X113291905Y-85220000D01*
X113387143Y-85172381D01*
X113625239Y-85172381D01*
X113720477Y-85220000D01*
X113768096Y-85267619D01*
X113815715Y-85362857D01*
X113815715Y-85458095D01*
X113768096Y-85600952D01*
X113196667Y-86172381D01*
X113815715Y-86172381D01*
X112863334Y-91157143D02*
X112815715Y-91204762D01*
X112672858Y-91252381D01*
X112577620Y-91252381D01*
X112434762Y-91204762D01*
X112339524Y-91109524D01*
X112291905Y-91014286D01*
X112244286Y-90823810D01*
X112244286Y-90680952D01*
X112291905Y-90490476D01*
X112339524Y-90395238D01*
X112434762Y-90300000D01*
X112577620Y-90252381D01*
X112672858Y-90252381D01*
X112815715Y-90300000D01*
X112863334Y-90347619D01*
X113196667Y-90252381D02*
X113815715Y-90252381D01*
X113482381Y-90633333D01*
X113625239Y-90633333D01*
X113720477Y-90680952D01*
X113768096Y-90728571D01*
X113815715Y-90823810D01*
X113815715Y-91061905D01*
X113768096Y-91157143D01*
X113720477Y-91204762D01*
X113625239Y-91252381D01*
X113339524Y-91252381D01*
X113244286Y-91204762D01*
X113196667Y-91157143D01*
X120483334Y-88627143D02*
X120435715Y-88674762D01*
X120292858Y-88722381D01*
X120197620Y-88722381D01*
X120054762Y-88674762D01*
X119959524Y-88579524D01*
X119911905Y-88484286D01*
X119864286Y-88293810D01*
X119864286Y-88150952D01*
X119911905Y-87960476D01*
X119959524Y-87865238D01*
X120054762Y-87770000D01*
X120197620Y-87722381D01*
X120292858Y-87722381D01*
X120435715Y-87770000D01*
X120483334Y-87817619D01*
X121340477Y-88055714D02*
X121340477Y-88722381D01*
X121102381Y-87674762D02*
X120864286Y-88389048D01*
X121483334Y-88389048D01*
X121753334Y-76557143D02*
X121705715Y-76604762D01*
X121562858Y-76652381D01*
X121467620Y-76652381D01*
X121324762Y-76604762D01*
X121229524Y-76509524D01*
X121181905Y-76414286D01*
X121134286Y-76223810D01*
X121134286Y-76080952D01*
X121181905Y-75890476D01*
X121229524Y-75795238D01*
X121324762Y-75700000D01*
X121467620Y-75652381D01*
X121562858Y-75652381D01*
X121705715Y-75700000D01*
X121753334Y-75747619D01*
X122658096Y-75652381D02*
X122181905Y-75652381D01*
X122134286Y-76128571D01*
X122181905Y-76080952D01*
X122277143Y-76033333D01*
X122515239Y-76033333D01*
X122610477Y-76080952D01*
X122658096Y-76128571D01*
X122705715Y-76223810D01*
X122705715Y-76461905D01*
X122658096Y-76557143D01*
X122610477Y-76604762D01*
X122515239Y-76652381D01*
X122277143Y-76652381D01*
X122181905Y-76604762D01*
X122134286Y-76557143D01*
X124293334Y-91797143D02*
X124245715Y-91844762D01*
X124102858Y-91892381D01*
X124007620Y-91892381D01*
X123864762Y-91844762D01*
X123769524Y-91749524D01*
X123721905Y-91654286D01*
X123674286Y-91463810D01*
X123674286Y-91320952D01*
X123721905Y-91130476D01*
X123769524Y-91035238D01*
X123864762Y-90940000D01*
X124007620Y-90892381D01*
X124102858Y-90892381D01*
X124245715Y-90940000D01*
X124293334Y-90987619D01*
X125150477Y-90892381D02*
X124960000Y-90892381D01*
X124864762Y-90940000D01*
X124817143Y-90987619D01*
X124721905Y-91130476D01*
X124674286Y-91320952D01*
X124674286Y-91701905D01*
X124721905Y-91797143D01*
X124769524Y-91844762D01*
X124864762Y-91892381D01*
X125055239Y-91892381D01*
X125150477Y-91844762D01*
X125198096Y-91797143D01*
X125245715Y-91701905D01*
X125245715Y-91463810D01*
X125198096Y-91368571D01*
X125150477Y-91320952D01*
X125055239Y-91273333D01*
X124864762Y-91273333D01*
X124769524Y-91320952D01*
X124721905Y-91368571D01*
X124674286Y-91463810D01*
X119213334Y-63027143D02*
X119165715Y-63074762D01*
X119022858Y-63122381D01*
X118927620Y-63122381D01*
X118784762Y-63074762D01*
X118689524Y-62979524D01*
X118641905Y-62884286D01*
X118594286Y-62693810D01*
X118594286Y-62550952D01*
X118641905Y-62360476D01*
X118689524Y-62265238D01*
X118784762Y-62170000D01*
X118927620Y-62122381D01*
X119022858Y-62122381D01*
X119165715Y-62170000D01*
X119213334Y-62217619D01*
X119546667Y-62122381D02*
X120213334Y-62122381D01*
X119784762Y-63122381D01*
X104880715Y-74522143D02*
X104833096Y-74569762D01*
X104690239Y-74617381D01*
X104595001Y-74617381D01*
X104452143Y-74569762D01*
X104356905Y-74474524D01*
X104309286Y-74379286D01*
X104261667Y-74188810D01*
X104261667Y-74045952D01*
X104309286Y-73855476D01*
X104356905Y-73760238D01*
X104452143Y-73665000D01*
X104595001Y-73617381D01*
X104690239Y-73617381D01*
X104833096Y-73665000D01*
X104880715Y-73712619D01*
X105499762Y-73617381D02*
X105690239Y-73617381D01*
X105785477Y-73665000D01*
X105880715Y-73760238D01*
X105928334Y-73950714D01*
X105928334Y-74284048D01*
X105880715Y-74474524D01*
X105785477Y-74569762D01*
X105690239Y-74617381D01*
X105499762Y-74617381D01*
X105404524Y-74569762D01*
X105309286Y-74474524D01*
X105261667Y-74284048D01*
X105261667Y-73950714D01*
X105309286Y-73760238D01*
X105404524Y-73665000D01*
X105499762Y-73617381D01*
X106356905Y-74617381D02*
X106356905Y-73617381D01*
X106928334Y-74617381D01*
X106928334Y-73617381D01*
X107928334Y-74617381D02*
X107356905Y-74617381D01*
X107642619Y-74617381D02*
X107642619Y-73617381D01*
X107547381Y-73760238D01*
X107452143Y-73855476D01*
X107356905Y-73903095D01*
X113466667Y-74858571D02*
X113133333Y-74858571D01*
X113133333Y-75382381D02*
X113133333Y-74382381D01*
X113609524Y-74382381D01*
X114323810Y-74858571D02*
X114466667Y-74906190D01*
X114514286Y-74953810D01*
X114561905Y-75049048D01*
X114561905Y-75191905D01*
X114514286Y-75287143D01*
X114466667Y-75334762D01*
X114371429Y-75382381D01*
X113990476Y-75382381D01*
X113990476Y-74382381D01*
X114323810Y-74382381D01*
X114419048Y-74430000D01*
X114466667Y-74477619D01*
X114514286Y-74572857D01*
X114514286Y-74668095D01*
X114466667Y-74763333D01*
X114419048Y-74810952D01*
X114323810Y-74858571D01*
X113990476Y-74858571D01*
X115514286Y-75382381D02*
X114942857Y-75382381D01*
X115228571Y-75382381D02*
X115228571Y-74382381D01*
X115133333Y-74525238D01*
X115038095Y-74620476D01*
X114942857Y-74668095D01*
X170711905Y-69012381D02*
X170711905Y-68012381D01*
X171092858Y-68012381D01*
X171188096Y-68060000D01*
X171235715Y-68107619D01*
X171283334Y-68202857D01*
X171283334Y-68345714D01*
X171235715Y-68440952D01*
X171188096Y-68488571D01*
X171092858Y-68536190D01*
X170711905Y-68536190D01*
X172235715Y-69012381D02*
X171664286Y-69012381D01*
X171950000Y-69012381D02*
X171950000Y-68012381D01*
X171854762Y-68155238D01*
X171759524Y-68250476D01*
X171664286Y-68298095D01*
X116262381Y-86526666D02*
X115786190Y-86860000D01*
X116262381Y-87098095D02*
X115262381Y-87098095D01*
X115262381Y-86717142D01*
X115310000Y-86621904D01*
X115357619Y-86574285D01*
X115452857Y-86526666D01*
X115595714Y-86526666D01*
X115690952Y-86574285D01*
X115738571Y-86621904D01*
X115786190Y-86717142D01*
X115786190Y-87098095D01*
X116262381Y-85574285D02*
X116262381Y-86145714D01*
X116262381Y-85860000D02*
X115262381Y-85860000D01*
X115405238Y-85955238D01*
X115500476Y-86050476D01*
X115548095Y-86145714D01*
X116262381Y-81446666D02*
X115786190Y-81780000D01*
X116262381Y-82018095D02*
X115262381Y-82018095D01*
X115262381Y-81637142D01*
X115310000Y-81541904D01*
X115357619Y-81494285D01*
X115452857Y-81446666D01*
X115595714Y-81446666D01*
X115690952Y-81494285D01*
X115738571Y-81541904D01*
X115786190Y-81637142D01*
X115786190Y-82018095D01*
X115357619Y-81065714D02*
X115310000Y-81018095D01*
X115262381Y-80922857D01*
X115262381Y-80684761D01*
X115310000Y-80589523D01*
X115357619Y-80541904D01*
X115452857Y-80494285D01*
X115548095Y-80494285D01*
X115690952Y-80541904D01*
X116262381Y-81113333D01*
X116262381Y-80494285D01*
X116673334Y-88522381D02*
X116340000Y-88046190D01*
X116101905Y-88522381D02*
X116101905Y-87522381D01*
X116482858Y-87522381D01*
X116578096Y-87570000D01*
X116625715Y-87617619D01*
X116673334Y-87712857D01*
X116673334Y-87855714D01*
X116625715Y-87950952D01*
X116578096Y-87998571D01*
X116482858Y-88046190D01*
X116101905Y-88046190D01*
X117006667Y-87522381D02*
X117625715Y-87522381D01*
X117292381Y-87903333D01*
X117435239Y-87903333D01*
X117530477Y-87950952D01*
X117578096Y-87998571D01*
X117625715Y-88093810D01*
X117625715Y-88331905D01*
X117578096Y-88427143D01*
X117530477Y-88474762D01*
X117435239Y-88522381D01*
X117149524Y-88522381D01*
X117054286Y-88474762D01*
X117006667Y-88427143D01*
X121362381Y-84581905D02*
X122171905Y-84581905D01*
X122267143Y-84534286D01*
X122314762Y-84486667D01*
X122362381Y-84391429D01*
X122362381Y-84200952D01*
X122314762Y-84105714D01*
X122267143Y-84058095D01*
X122171905Y-84010476D01*
X121362381Y-84010476D01*
X122362381Y-83010476D02*
X122362381Y-83581905D01*
X122362381Y-83296191D02*
X121362381Y-83296191D01*
X121505238Y-83391429D01*
X121600476Y-83486667D01*
X121648095Y-83581905D01*
X131318095Y-73112381D02*
X131318095Y-73921905D01*
X131365714Y-74017143D01*
X131413333Y-74064762D01*
X131508571Y-74112381D01*
X131699048Y-74112381D01*
X131794286Y-74064762D01*
X131841905Y-74017143D01*
X131889524Y-73921905D01*
X131889524Y-73112381D01*
X132318095Y-73207619D02*
X132365714Y-73160000D01*
X132460952Y-73112381D01*
X132699048Y-73112381D01*
X132794286Y-73160000D01*
X132841905Y-73207619D01*
X132889524Y-73302857D01*
X132889524Y-73398095D01*
X132841905Y-73540952D01*
X132270476Y-74112381D01*
X132889524Y-74112381D01*
X118618095Y-66762381D02*
X118618095Y-67571905D01*
X118665714Y-67667143D01*
X118713333Y-67714762D01*
X118808571Y-67762381D01*
X118999048Y-67762381D01*
X119094286Y-67714762D01*
X119141905Y-67667143D01*
X119189524Y-67571905D01*
X119189524Y-66762381D01*
X119570476Y-66762381D02*
X120189524Y-66762381D01*
X119856190Y-67143333D01*
X119999048Y-67143333D01*
X120094286Y-67190952D01*
X120141905Y-67238571D01*
X120189524Y-67333810D01*
X120189524Y-67571905D01*
X120141905Y-67667143D01*
X120094286Y-67714762D01*
X119999048Y-67762381D01*
X119713333Y-67762381D01*
X119618095Y-67714762D01*
X119570476Y-67667143D01*
X162412381Y-83541905D02*
X163221905Y-83541905D01*
X163317143Y-83494286D01*
X163364762Y-83446667D01*
X163412381Y-83351429D01*
X163412381Y-83160952D01*
X163364762Y-83065714D01*
X163317143Y-83018095D01*
X163221905Y-82970476D01*
X162412381Y-82970476D01*
X162745714Y-82065714D02*
X163412381Y-82065714D01*
X162364762Y-82303810D02*
X163079048Y-82541905D01*
X163079048Y-81922857D01*
X167278095Y-73342381D02*
X167278095Y-74151905D01*
X167325714Y-74247143D01*
X167373333Y-74294762D01*
X167468571Y-74342381D01*
X167659048Y-74342381D01*
X167754286Y-74294762D01*
X167801905Y-74247143D01*
X167849524Y-74151905D01*
X167849524Y-73342381D01*
X168801905Y-73342381D02*
X168325714Y-73342381D01*
X168278095Y-73818571D01*
X168325714Y-73770952D01*
X168420952Y-73723333D01*
X168659048Y-73723333D01*
X168754286Y-73770952D01*
X168801905Y-73818571D01*
X168849524Y-73913810D01*
X168849524Y-74151905D01*
X168801905Y-74247143D01*
X168754286Y-74294762D01*
X168659048Y-74342381D01*
X168420952Y-74342381D01*
X168325714Y-74294762D01*
X168278095Y-74247143D01*
X162412381Y-78461905D02*
X163221905Y-78461905D01*
X163317143Y-78414286D01*
X163364762Y-78366667D01*
X163412381Y-78271429D01*
X163412381Y-78080952D01*
X163364762Y-77985714D01*
X163317143Y-77938095D01*
X163221905Y-77890476D01*
X162412381Y-77890476D01*
X162412381Y-76985714D02*
X162412381Y-77176191D01*
X162460000Y-77271429D01*
X162507619Y-77319048D01*
X162650476Y-77414286D01*
X162840952Y-77461905D01*
X163221905Y-77461905D01*
X163317143Y-77414286D01*
X163364762Y-77366667D01*
X163412381Y-77271429D01*
X163412381Y-77080952D01*
X163364762Y-76985714D01*
X163317143Y-76938095D01*
X163221905Y-76890476D01*
X162983810Y-76890476D01*
X162888571Y-76938095D01*
X162840952Y-76985714D01*
X162793333Y-77080952D01*
X162793333Y-77271429D01*
X162840952Y-77366667D01*
X162888571Y-77414286D01*
X162983810Y-77461905D01*
X167492381Y-81001905D02*
X168301905Y-81001905D01*
X168397143Y-80954286D01*
X168444762Y-80906667D01*
X168492381Y-80811429D01*
X168492381Y-80620952D01*
X168444762Y-80525714D01*
X168397143Y-80478095D01*
X168301905Y-80430476D01*
X167492381Y-80430476D01*
X167492381Y-80049524D02*
X167492381Y-79382857D01*
X168492381Y-79811429D01*
M02*
