M48
;DRILL file {KiCad (2015-07-31 BZR 6030)-product} date Mon Aug 24 21:55:26 2015
;FORMAT={-:-/ absolute / inch / decimal}
FMAT,2
INCH,TZ
T1C0.016
T2C0.020
T3C0.022
T4C0.032
T5C0.040
T6C0.118
%
G90
G05
M72
T1
X4.4616Y-2.85
X4.5Y-3.6
X4.6Y-3.05
X4.75Y-2.5
X4.75Y-3.45
X4.8Y-2.75
X4.8Y-2.85
X4.8Y-3.15
X4.8Y-3.25
X4.8Y-3.6
X4.85Y-2.9
X4.85Y-3.45
X4.9Y-3.15
X4.9Y-3.3
X4.9Y-3.45
X5.35Y-3.
X6.15Y-2.85
X6.15Y-3.15
X6.25Y-3.25
X6.3Y-3.05
X6.45Y-2.9
X6.45Y-3.15
X6.5Y-3.
X6.55Y-3.15
X6.65Y-2.8
X6.65Y-3.05
T4
X5.1Y-2.8
X5.1Y-3.1
X5.2Y-2.8
X5.2Y-3.1
X5.3Y-2.8
X5.3Y-3.1
X5.4Y-2.8
X5.4Y-3.1
X5.5Y-2.8
X5.5Y-3.1
X5.6Y-2.8
X5.6Y-3.1
X5.7Y-2.8
X5.7Y-3.1
X5.8Y-2.8
X5.8Y-3.1
X5.9Y-2.8
X5.9Y-3.1
X6.Y-2.8
X6.Y-3.1
T5
X6.75Y-2.9
X6.75Y-3.
X6.75Y-3.1
X6.75Y-3.2
T6
X4.1Y-2.4
X4.1Y-3.6
X6.85Y-2.4
X6.85Y-3.6
T2
X4.1809Y-3.0134G85X4.2065Y-3.0134
G05
X4.1809Y-3.289G85X4.2065Y-3.289
G05
T3
X4.3Y-3.0469G85X4.3Y-3.0587
G05
X4.3Y-3.2437G85X4.3Y-3.2555
G05
T0
M30
