G04 #@! TF.FileFunction,Legend,Top*
%FSLAX46Y46*%
G04 Gerber Fmt 4.6, Leading zero omitted, Abs format (unit mm)*
G04 Created by KiCad (PCBNEW (2015-07-31 BZR 6030)-product) date Mon Sep  7 21:47:22 2015*
%MOMM*%
G01*
G04 APERTURE LIST*
%ADD10C,0.100000*%
%ADD11C,0.150000*%
G04 APERTURE END LIST*
D10*
D11*
X111658400Y-101092000D02*
G75*
G03X111658400Y-101092000I-2286000J0D01*
G01*
X140868400Y-107442000D02*
G75*
G03X140868400Y-107442000I-2286000J0D01*
G01*
X141325600Y-63042800D02*
G75*
G03X141325600Y-63042800I-2286000J0D01*
G01*
X126580000Y-70350000D02*
X126580000Y-69350000D01*
X124880000Y-69350000D02*
X124880000Y-70350000D01*
X113380000Y-84420000D02*
X112680000Y-84420000D01*
X112680000Y-83220000D02*
X113380000Y-83220000D01*
X113380000Y-89500000D02*
X112680000Y-89500000D01*
X112680000Y-88300000D02*
X113380000Y-88300000D01*
X120300000Y-89570000D02*
X121000000Y-89570000D01*
X121000000Y-90770000D02*
X120300000Y-90770000D01*
X119880000Y-72810000D02*
X118880000Y-72810000D01*
X118880000Y-74510000D02*
X119880000Y-74510000D01*
X124110000Y-89570000D02*
X124810000Y-89570000D01*
X124810000Y-90770000D02*
X124110000Y-90770000D01*
X119880000Y-63920000D02*
X118880000Y-63920000D01*
X118880000Y-65620000D02*
X119880000Y-65620000D01*
X103840000Y-75690000D02*
X103840000Y-84390000D01*
X110245000Y-75690000D02*
X110245000Y-84390000D01*
X110245000Y-84390000D02*
X103840000Y-84390000D01*
X105070000Y-84390000D02*
X105070000Y-75690000D01*
X103840000Y-75690000D02*
X110245000Y-75690000D01*
X113800000Y-75525000D02*
X114800000Y-75525000D01*
X114800000Y-76875000D02*
X113800000Y-76875000D01*
X120167400Y-106045000D02*
X112547400Y-106045000D01*
X120167400Y-108585000D02*
X112547400Y-108585000D01*
X122987400Y-108865000D02*
X121437400Y-108865000D01*
X112547400Y-106045000D02*
X112547400Y-108585000D01*
X120167400Y-108585000D02*
X120167400Y-106045000D01*
X121437400Y-105765000D02*
X122987400Y-105765000D01*
X122987400Y-105765000D02*
X122987400Y-108865000D01*
X119185000Y-85360000D02*
X119185000Y-87360000D01*
X117035000Y-87360000D02*
X117035000Y-85360000D01*
X119185000Y-80280000D02*
X119185000Y-82280000D01*
X117035000Y-82280000D02*
X117035000Y-80280000D01*
X117440000Y-91045000D02*
X116240000Y-91045000D01*
X116240000Y-89295000D02*
X117440000Y-89295000D01*
X126085000Y-84870000D02*
X126085000Y-82770000D01*
X122835000Y-85645000D02*
X122835000Y-82770000D01*
X134823200Y-71729600D02*
X134823200Y-72999600D01*
X134823200Y-72999600D02*
X132283200Y-72999600D01*
X132283200Y-72999600D02*
X132283200Y-71729600D01*
X136093200Y-71729600D02*
X136093200Y-99669600D01*
X136093200Y-99669600D02*
X131013200Y-99669600D01*
X131013200Y-99669600D02*
X131013200Y-71729600D01*
X131013200Y-71729600D02*
X136093200Y-71729600D01*
X119980000Y-71300000D02*
X119980000Y-68400000D01*
X118780000Y-71300000D02*
X118780000Y-68400000D01*
X118780000Y-68400000D02*
X119980000Y-68400000D01*
X119980000Y-71300000D02*
X118780000Y-71300000D01*
X123807400Y-103205000D02*
X123507400Y-103205000D01*
X123507400Y-103205000D02*
X123507400Y-102905000D01*
X121607400Y-104105000D02*
X123807400Y-104105000D01*
X123807400Y-104105000D02*
X123807400Y-102905000D01*
X123807400Y-102905000D02*
X121607400Y-102905000D01*
X121607400Y-102905000D02*
X121607400Y-104105000D01*
X119997400Y-98125000D02*
X119697400Y-98125000D01*
X119697400Y-98125000D02*
X119697400Y-97825000D01*
X117797400Y-99025000D02*
X119997400Y-99025000D01*
X119997400Y-99025000D02*
X119997400Y-97825000D01*
X119997400Y-97825000D02*
X117797400Y-97825000D01*
X117797400Y-97825000D02*
X117797400Y-99025000D01*
X110236000Y-63754000D02*
G75*
G03X110236000Y-63754000I-2286000J0D01*
G01*
X108039067Y-98496381D02*
X107705733Y-98020190D01*
X107467638Y-98496381D02*
X107467638Y-97496381D01*
X107848591Y-97496381D01*
X107943829Y-97544000D01*
X107991448Y-97591619D01*
X108039067Y-97686857D01*
X108039067Y-97829714D01*
X107991448Y-97924952D01*
X107943829Y-97972571D01*
X107848591Y-98020190D01*
X107467638Y-98020190D01*
X108467638Y-97972571D02*
X108800972Y-97972571D01*
X108943829Y-98496381D02*
X108467638Y-98496381D01*
X108467638Y-97496381D01*
X108943829Y-97496381D01*
X109705734Y-97972571D02*
X109372400Y-97972571D01*
X109372400Y-98496381D02*
X109372400Y-97496381D01*
X109848591Y-97496381D01*
X110372400Y-97496381D02*
X110372400Y-97734476D01*
X110134305Y-97639238D02*
X110372400Y-97734476D01*
X110610496Y-97639238D01*
X110229543Y-97924952D02*
X110372400Y-97734476D01*
X110515258Y-97924952D01*
X111134305Y-97496381D02*
X111134305Y-97734476D01*
X110896210Y-97639238D02*
X111134305Y-97734476D01*
X111372401Y-97639238D01*
X110991448Y-97924952D02*
X111134305Y-97734476D01*
X111277163Y-97924952D01*
X137249067Y-104846381D02*
X136915733Y-104370190D01*
X136677638Y-104846381D02*
X136677638Y-103846381D01*
X137058591Y-103846381D01*
X137153829Y-103894000D01*
X137201448Y-103941619D01*
X137249067Y-104036857D01*
X137249067Y-104179714D01*
X137201448Y-104274952D01*
X137153829Y-104322571D01*
X137058591Y-104370190D01*
X136677638Y-104370190D01*
X137677638Y-104322571D02*
X138010972Y-104322571D01*
X138153829Y-104846381D02*
X137677638Y-104846381D01*
X137677638Y-103846381D01*
X138153829Y-103846381D01*
X138915734Y-104322571D02*
X138582400Y-104322571D01*
X138582400Y-104846381D02*
X138582400Y-103846381D01*
X139058591Y-103846381D01*
X139582400Y-103846381D02*
X139582400Y-104084476D01*
X139344305Y-103989238D02*
X139582400Y-104084476D01*
X139820496Y-103989238D01*
X139439543Y-104274952D02*
X139582400Y-104084476D01*
X139725258Y-104274952D01*
X140344305Y-103846381D02*
X140344305Y-104084476D01*
X140106210Y-103989238D02*
X140344305Y-104084476D01*
X140582401Y-103989238D01*
X140201448Y-104274952D02*
X140344305Y-104084476D01*
X140487163Y-104274952D01*
X137706267Y-60447181D02*
X137372933Y-59970990D01*
X137134838Y-60447181D02*
X137134838Y-59447181D01*
X137515791Y-59447181D01*
X137611029Y-59494800D01*
X137658648Y-59542419D01*
X137706267Y-59637657D01*
X137706267Y-59780514D01*
X137658648Y-59875752D01*
X137611029Y-59923371D01*
X137515791Y-59970990D01*
X137134838Y-59970990D01*
X138134838Y-59923371D02*
X138468172Y-59923371D01*
X138611029Y-60447181D02*
X138134838Y-60447181D01*
X138134838Y-59447181D01*
X138611029Y-59447181D01*
X139372934Y-59923371D02*
X139039600Y-59923371D01*
X139039600Y-60447181D02*
X139039600Y-59447181D01*
X139515791Y-59447181D01*
X140039600Y-59447181D02*
X140039600Y-59685276D01*
X139801505Y-59590038D02*
X140039600Y-59685276D01*
X140277696Y-59590038D01*
X139896743Y-59875752D02*
X140039600Y-59685276D01*
X140182458Y-59875752D01*
X140801505Y-59447181D02*
X140801505Y-59685276D01*
X140563410Y-59590038D02*
X140801505Y-59685276D01*
X141039601Y-59590038D01*
X140658648Y-59875752D02*
X140801505Y-59685276D01*
X140944363Y-59875752D01*
X126087143Y-72556666D02*
X126134762Y-72604285D01*
X126182381Y-72747142D01*
X126182381Y-72842380D01*
X126134762Y-72985238D01*
X126039524Y-73080476D01*
X125944286Y-73128095D01*
X125753810Y-73175714D01*
X125610952Y-73175714D01*
X125420476Y-73128095D01*
X125325238Y-73080476D01*
X125230000Y-72985238D01*
X125182381Y-72842380D01*
X125182381Y-72747142D01*
X125230000Y-72604285D01*
X125277619Y-72556666D01*
X126182381Y-71604285D02*
X126182381Y-72175714D01*
X126182381Y-71890000D02*
X125182381Y-71890000D01*
X125325238Y-71985238D01*
X125420476Y-72080476D01*
X125468095Y-72175714D01*
X112863334Y-86077143D02*
X112815715Y-86124762D01*
X112672858Y-86172381D01*
X112577620Y-86172381D01*
X112434762Y-86124762D01*
X112339524Y-86029524D01*
X112291905Y-85934286D01*
X112244286Y-85743810D01*
X112244286Y-85600952D01*
X112291905Y-85410476D01*
X112339524Y-85315238D01*
X112434762Y-85220000D01*
X112577620Y-85172381D01*
X112672858Y-85172381D01*
X112815715Y-85220000D01*
X112863334Y-85267619D01*
X113244286Y-85267619D02*
X113291905Y-85220000D01*
X113387143Y-85172381D01*
X113625239Y-85172381D01*
X113720477Y-85220000D01*
X113768096Y-85267619D01*
X113815715Y-85362857D01*
X113815715Y-85458095D01*
X113768096Y-85600952D01*
X113196667Y-86172381D01*
X113815715Y-86172381D01*
X112863334Y-91157143D02*
X112815715Y-91204762D01*
X112672858Y-91252381D01*
X112577620Y-91252381D01*
X112434762Y-91204762D01*
X112339524Y-91109524D01*
X112291905Y-91014286D01*
X112244286Y-90823810D01*
X112244286Y-90680952D01*
X112291905Y-90490476D01*
X112339524Y-90395238D01*
X112434762Y-90300000D01*
X112577620Y-90252381D01*
X112672858Y-90252381D01*
X112815715Y-90300000D01*
X112863334Y-90347619D01*
X113196667Y-90252381D02*
X113815715Y-90252381D01*
X113482381Y-90633333D01*
X113625239Y-90633333D01*
X113720477Y-90680952D01*
X113768096Y-90728571D01*
X113815715Y-90823810D01*
X113815715Y-91061905D01*
X113768096Y-91157143D01*
X113720477Y-91204762D01*
X113625239Y-91252381D01*
X113339524Y-91252381D01*
X113244286Y-91204762D01*
X113196667Y-91157143D01*
X120483334Y-88627143D02*
X120435715Y-88674762D01*
X120292858Y-88722381D01*
X120197620Y-88722381D01*
X120054762Y-88674762D01*
X119959524Y-88579524D01*
X119911905Y-88484286D01*
X119864286Y-88293810D01*
X119864286Y-88150952D01*
X119911905Y-87960476D01*
X119959524Y-87865238D01*
X120054762Y-87770000D01*
X120197620Y-87722381D01*
X120292858Y-87722381D01*
X120435715Y-87770000D01*
X120483334Y-87817619D01*
X121340477Y-88055714D02*
X121340477Y-88722381D01*
X121102381Y-87674762D02*
X120864286Y-88389048D01*
X121483334Y-88389048D01*
X121753334Y-76557143D02*
X121705715Y-76604762D01*
X121562858Y-76652381D01*
X121467620Y-76652381D01*
X121324762Y-76604762D01*
X121229524Y-76509524D01*
X121181905Y-76414286D01*
X121134286Y-76223810D01*
X121134286Y-76080952D01*
X121181905Y-75890476D01*
X121229524Y-75795238D01*
X121324762Y-75700000D01*
X121467620Y-75652381D01*
X121562858Y-75652381D01*
X121705715Y-75700000D01*
X121753334Y-75747619D01*
X122658096Y-75652381D02*
X122181905Y-75652381D01*
X122134286Y-76128571D01*
X122181905Y-76080952D01*
X122277143Y-76033333D01*
X122515239Y-76033333D01*
X122610477Y-76080952D01*
X122658096Y-76128571D01*
X122705715Y-76223810D01*
X122705715Y-76461905D01*
X122658096Y-76557143D01*
X122610477Y-76604762D01*
X122515239Y-76652381D01*
X122277143Y-76652381D01*
X122181905Y-76604762D01*
X122134286Y-76557143D01*
X124293334Y-91797143D02*
X124245715Y-91844762D01*
X124102858Y-91892381D01*
X124007620Y-91892381D01*
X123864762Y-91844762D01*
X123769524Y-91749524D01*
X123721905Y-91654286D01*
X123674286Y-91463810D01*
X123674286Y-91320952D01*
X123721905Y-91130476D01*
X123769524Y-91035238D01*
X123864762Y-90940000D01*
X124007620Y-90892381D01*
X124102858Y-90892381D01*
X124245715Y-90940000D01*
X124293334Y-90987619D01*
X125150477Y-90892381D02*
X124960000Y-90892381D01*
X124864762Y-90940000D01*
X124817143Y-90987619D01*
X124721905Y-91130476D01*
X124674286Y-91320952D01*
X124674286Y-91701905D01*
X124721905Y-91797143D01*
X124769524Y-91844762D01*
X124864762Y-91892381D01*
X125055239Y-91892381D01*
X125150477Y-91844762D01*
X125198096Y-91797143D01*
X125245715Y-91701905D01*
X125245715Y-91463810D01*
X125198096Y-91368571D01*
X125150477Y-91320952D01*
X125055239Y-91273333D01*
X124864762Y-91273333D01*
X124769524Y-91320952D01*
X124721905Y-91368571D01*
X124674286Y-91463810D01*
X119213334Y-63027143D02*
X119165715Y-63074762D01*
X119022858Y-63122381D01*
X118927620Y-63122381D01*
X118784762Y-63074762D01*
X118689524Y-62979524D01*
X118641905Y-62884286D01*
X118594286Y-62693810D01*
X118594286Y-62550952D01*
X118641905Y-62360476D01*
X118689524Y-62265238D01*
X118784762Y-62170000D01*
X118927620Y-62122381D01*
X119022858Y-62122381D01*
X119165715Y-62170000D01*
X119213334Y-62217619D01*
X119546667Y-62122381D02*
X120213334Y-62122381D01*
X119784762Y-63122381D01*
X104880715Y-74522143D02*
X104833096Y-74569762D01*
X104690239Y-74617381D01*
X104595001Y-74617381D01*
X104452143Y-74569762D01*
X104356905Y-74474524D01*
X104309286Y-74379286D01*
X104261667Y-74188810D01*
X104261667Y-74045952D01*
X104309286Y-73855476D01*
X104356905Y-73760238D01*
X104452143Y-73665000D01*
X104595001Y-73617381D01*
X104690239Y-73617381D01*
X104833096Y-73665000D01*
X104880715Y-73712619D01*
X105499762Y-73617381D02*
X105690239Y-73617381D01*
X105785477Y-73665000D01*
X105880715Y-73760238D01*
X105928334Y-73950714D01*
X105928334Y-74284048D01*
X105880715Y-74474524D01*
X105785477Y-74569762D01*
X105690239Y-74617381D01*
X105499762Y-74617381D01*
X105404524Y-74569762D01*
X105309286Y-74474524D01*
X105261667Y-74284048D01*
X105261667Y-73950714D01*
X105309286Y-73760238D01*
X105404524Y-73665000D01*
X105499762Y-73617381D01*
X106356905Y-74617381D02*
X106356905Y-73617381D01*
X106928334Y-74617381D01*
X106928334Y-73617381D01*
X107928334Y-74617381D02*
X107356905Y-74617381D01*
X107642619Y-74617381D02*
X107642619Y-73617381D01*
X107547381Y-73760238D01*
X107452143Y-73855476D01*
X107356905Y-73903095D01*
X113466667Y-74858571D02*
X113133333Y-74858571D01*
X113133333Y-75382381D02*
X113133333Y-74382381D01*
X113609524Y-74382381D01*
X114323810Y-74858571D02*
X114466667Y-74906190D01*
X114514286Y-74953810D01*
X114561905Y-75049048D01*
X114561905Y-75191905D01*
X114514286Y-75287143D01*
X114466667Y-75334762D01*
X114371429Y-75382381D01*
X113990476Y-75382381D01*
X113990476Y-74382381D01*
X114323810Y-74382381D01*
X114419048Y-74430000D01*
X114466667Y-74477619D01*
X114514286Y-74572857D01*
X114514286Y-74668095D01*
X114466667Y-74763333D01*
X114419048Y-74810952D01*
X114323810Y-74858571D01*
X113990476Y-74858571D01*
X115514286Y-75382381D02*
X114942857Y-75382381D01*
X115228571Y-75382381D02*
X115228571Y-74382381D01*
X115133333Y-74525238D01*
X115038095Y-74620476D01*
X114942857Y-74668095D01*
X126989781Y-108053095D02*
X125989781Y-108053095D01*
X125989781Y-107672142D01*
X126037400Y-107576904D01*
X126085019Y-107529285D01*
X126180257Y-107481666D01*
X126323114Y-107481666D01*
X126418352Y-107529285D01*
X126465971Y-107576904D01*
X126513590Y-107672142D01*
X126513590Y-108053095D01*
X126989781Y-106529285D02*
X126989781Y-107100714D01*
X126989781Y-106815000D02*
X125989781Y-106815000D01*
X126132638Y-106910238D01*
X126227876Y-107005476D01*
X126275495Y-107100714D01*
X116262381Y-86526666D02*
X115786190Y-86860000D01*
X116262381Y-87098095D02*
X115262381Y-87098095D01*
X115262381Y-86717142D01*
X115310000Y-86621904D01*
X115357619Y-86574285D01*
X115452857Y-86526666D01*
X115595714Y-86526666D01*
X115690952Y-86574285D01*
X115738571Y-86621904D01*
X115786190Y-86717142D01*
X115786190Y-87098095D01*
X116262381Y-85574285D02*
X116262381Y-86145714D01*
X116262381Y-85860000D02*
X115262381Y-85860000D01*
X115405238Y-85955238D01*
X115500476Y-86050476D01*
X115548095Y-86145714D01*
X116262381Y-81446666D02*
X115786190Y-81780000D01*
X116262381Y-82018095D02*
X115262381Y-82018095D01*
X115262381Y-81637142D01*
X115310000Y-81541904D01*
X115357619Y-81494285D01*
X115452857Y-81446666D01*
X115595714Y-81446666D01*
X115690952Y-81494285D01*
X115738571Y-81541904D01*
X115786190Y-81637142D01*
X115786190Y-82018095D01*
X115357619Y-81065714D02*
X115310000Y-81018095D01*
X115262381Y-80922857D01*
X115262381Y-80684761D01*
X115310000Y-80589523D01*
X115357619Y-80541904D01*
X115452857Y-80494285D01*
X115548095Y-80494285D01*
X115690952Y-80541904D01*
X116262381Y-81113333D01*
X116262381Y-80494285D01*
X116673334Y-88522381D02*
X116340000Y-88046190D01*
X116101905Y-88522381D02*
X116101905Y-87522381D01*
X116482858Y-87522381D01*
X116578096Y-87570000D01*
X116625715Y-87617619D01*
X116673334Y-87712857D01*
X116673334Y-87855714D01*
X116625715Y-87950952D01*
X116578096Y-87998571D01*
X116482858Y-88046190D01*
X116101905Y-88046190D01*
X117006667Y-87522381D02*
X117625715Y-87522381D01*
X117292381Y-87903333D01*
X117435239Y-87903333D01*
X117530477Y-87950952D01*
X117578096Y-87998571D01*
X117625715Y-88093810D01*
X117625715Y-88331905D01*
X117578096Y-88427143D01*
X117530477Y-88474762D01*
X117435239Y-88522381D01*
X117149524Y-88522381D01*
X117054286Y-88474762D01*
X117006667Y-88427143D01*
X121362381Y-84581905D02*
X122171905Y-84581905D01*
X122267143Y-84534286D01*
X122314762Y-84486667D01*
X122362381Y-84391429D01*
X122362381Y-84200952D01*
X122314762Y-84105714D01*
X122267143Y-84058095D01*
X122171905Y-84010476D01*
X121362381Y-84010476D01*
X122362381Y-83010476D02*
X122362381Y-83581905D01*
X122362381Y-83296191D02*
X121362381Y-83296191D01*
X121505238Y-83391429D01*
X121600476Y-83486667D01*
X121648095Y-83581905D01*
X134275581Y-77571505D02*
X135085105Y-77571505D01*
X135180343Y-77523886D01*
X135227962Y-77476267D01*
X135275581Y-77381029D01*
X135275581Y-77190552D01*
X135227962Y-77095314D01*
X135180343Y-77047695D01*
X135085105Y-77000076D01*
X134275581Y-77000076D01*
X134370819Y-76571505D02*
X134323200Y-76523886D01*
X134275581Y-76428648D01*
X134275581Y-76190552D01*
X134323200Y-76095314D01*
X134370819Y-76047695D01*
X134466057Y-76000076D01*
X134561295Y-76000076D01*
X134704152Y-76047695D01*
X135275581Y-76619124D01*
X135275581Y-76000076D01*
X118618095Y-66762381D02*
X118618095Y-67571905D01*
X118665714Y-67667143D01*
X118713333Y-67714762D01*
X118808571Y-67762381D01*
X118999048Y-67762381D01*
X119094286Y-67714762D01*
X119141905Y-67667143D01*
X119189524Y-67571905D01*
X119189524Y-66762381D01*
X119570476Y-66762381D02*
X120189524Y-66762381D01*
X119856190Y-67143333D01*
X119999048Y-67143333D01*
X120094286Y-67190952D01*
X120141905Y-67238571D01*
X120189524Y-67333810D01*
X120189524Y-67571905D01*
X120141905Y-67667143D01*
X120094286Y-67714762D01*
X119999048Y-67762381D01*
X119713333Y-67762381D01*
X119618095Y-67714762D01*
X119570476Y-67667143D01*
X120659781Y-104666905D02*
X121469305Y-104666905D01*
X121564543Y-104619286D01*
X121612162Y-104571667D01*
X121659781Y-104476429D01*
X121659781Y-104285952D01*
X121612162Y-104190714D01*
X121564543Y-104143095D01*
X121469305Y-104095476D01*
X120659781Y-104095476D01*
X120659781Y-103143095D02*
X120659781Y-103619286D01*
X121135971Y-103666905D01*
X121088352Y-103619286D01*
X121040733Y-103524048D01*
X121040733Y-103285952D01*
X121088352Y-103190714D01*
X121135971Y-103143095D01*
X121231210Y-103095476D01*
X121469305Y-103095476D01*
X121564543Y-103143095D01*
X121612162Y-103190714D01*
X121659781Y-103285952D01*
X121659781Y-103524048D01*
X121612162Y-103619286D01*
X121564543Y-103666905D01*
X116635495Y-98277381D02*
X116635495Y-99086905D01*
X116683114Y-99182143D01*
X116730733Y-99229762D01*
X116825971Y-99277381D01*
X117016448Y-99277381D01*
X117111686Y-99229762D01*
X117159305Y-99182143D01*
X117206924Y-99086905D01*
X117206924Y-98277381D01*
X118111686Y-98277381D02*
X117921209Y-98277381D01*
X117825971Y-98325000D01*
X117778352Y-98372619D01*
X117683114Y-98515476D01*
X117635495Y-98705952D01*
X117635495Y-99086905D01*
X117683114Y-99182143D01*
X117730733Y-99229762D01*
X117825971Y-99277381D01*
X118016448Y-99277381D01*
X118111686Y-99229762D01*
X118159305Y-99182143D01*
X118206924Y-99086905D01*
X118206924Y-98848810D01*
X118159305Y-98753571D01*
X118111686Y-98705952D01*
X118016448Y-98658333D01*
X117825971Y-98658333D01*
X117730733Y-98705952D01*
X117683114Y-98753571D01*
X117635495Y-98848810D01*
X106616667Y-61158381D02*
X106283333Y-60682190D01*
X106045238Y-61158381D02*
X106045238Y-60158381D01*
X106426191Y-60158381D01*
X106521429Y-60206000D01*
X106569048Y-60253619D01*
X106616667Y-60348857D01*
X106616667Y-60491714D01*
X106569048Y-60586952D01*
X106521429Y-60634571D01*
X106426191Y-60682190D01*
X106045238Y-60682190D01*
X107045238Y-60634571D02*
X107378572Y-60634571D01*
X107521429Y-61158381D02*
X107045238Y-61158381D01*
X107045238Y-60158381D01*
X107521429Y-60158381D01*
X108283334Y-60634571D02*
X107950000Y-60634571D01*
X107950000Y-61158381D02*
X107950000Y-60158381D01*
X108426191Y-60158381D01*
X108950000Y-60158381D02*
X108950000Y-60396476D01*
X108711905Y-60301238D02*
X108950000Y-60396476D01*
X109188096Y-60301238D01*
X108807143Y-60586952D02*
X108950000Y-60396476D01*
X109092858Y-60586952D01*
X109711905Y-60158381D02*
X109711905Y-60396476D01*
X109473810Y-60301238D02*
X109711905Y-60396476D01*
X109950001Y-60301238D01*
X109569048Y-60586952D02*
X109711905Y-60396476D01*
X109854763Y-60586952D01*
M02*
