M48
;DRILL file {KiCad (2015-07-31 BZR 6030)-product} date Fri Sep 11 12:39:23 2015
;FORMAT={-:-/ absolute / inch / decimal}
FMAT,2
INCH,TZ
T1C0.016
T2C0.020
T3C0.022
T4C0.032
T5C0.040
T6C0.118
%
G90
G05
M72
T1
X4.4616Y-2.85
X4.5Y-3.6
X4.6Y-3.05
X4.631Y-3.775
X4.681Y-3.975
X4.75Y-2.5
X4.75Y-3.45
X4.781Y-3.925
X4.8Y-2.75
X4.8Y-2.85
X4.8Y-3.25
X4.8Y-3.6
X4.85Y-2.9
X4.85Y-3.45
X4.852Y-3.158
X4.881Y-4.125
X4.9Y-3.15
X4.9Y-3.3
X4.9Y-3.45
X5.012Y-3.202
T4
X5.108Y-2.924
X5.108Y-3.024
X5.108Y-3.124
X5.108Y-3.224
X5.108Y-3.324
X5.108Y-3.424
X5.108Y-3.524
X5.108Y-3.624
X5.108Y-3.724
X5.108Y-3.824
X5.408Y-2.924
X5.408Y-3.024
X5.408Y-3.124
X5.408Y-3.224
X5.408Y-3.324
X5.408Y-3.424
X5.408Y-3.524
X5.408Y-3.624
X5.408Y-3.724
X5.408Y-3.824
T5
X4.481Y-4.225
X4.581Y-4.225
X4.681Y-4.225
X4.781Y-4.225
T6
X4.25Y-2.51
X4.306Y-3.98
X5.456Y-4.23
X5.474Y-2.482
T2
X4.1809Y-3.0134G85X4.2065Y-3.0134
G05
X4.1809Y-3.289G85X4.2065Y-3.289
G05
T3
X4.3Y-3.0469G85X4.3Y-3.0587
G05
X4.3Y-3.2437G85X4.3Y-3.2555
G05
T0
M30
