G04 #@! TF.FileFunction,Copper,L1,Top,Signal*
%FSLAX46Y46*%
G04 Gerber Fmt 4.6, Leading zero omitted, Abs format (unit mm)*
G04 Created by KiCad (PCBNEW (2015-07-31 BZR 6030)-product) date Mon Sep  7 21:47:22 2015*
%MOMM*%
G01*
G04 APERTURE LIST*
%ADD10C,0.100000*%
%ADD11C,4.000000*%
%ADD12R,1.250000X1.000000*%
%ADD13R,0.800000X0.750000*%
%ADD14R,1.000000X1.250000*%
%ADD15R,1.350000X0.400000*%
%ADD16O,0.950000X1.250000*%
%ADD17O,1.550000X1.000000*%
%ADD18R,0.500000X0.900000*%
%ADD19R,1.727200X2.032000*%
%ADD20O,1.727200X2.032000*%
%ADD21R,1.700000X0.900000*%
%ADD22R,0.700000X1.300000*%
%ADD23R,0.250000X0.700000*%
%ADD24R,1.190000X0.830000*%
%ADD25R,1.397000X1.397000*%
%ADD26C,1.397000*%
%ADD27R,1.220000X0.620000*%
%ADD28R,0.406400X0.660400*%
%ADD29C,0.600000*%
%ADD30C,0.635000*%
%ADD31C,0.250000*%
%ADD32C,0.254000*%
G04 APERTURE END LIST*
D10*
D11*
X109372400Y-101092000D03*
X138582400Y-107442000D03*
X139039600Y-63042800D03*
D12*
X125730000Y-68850000D03*
X125730000Y-70850000D03*
D13*
X113780000Y-83820000D03*
X112280000Y-83820000D03*
X113780000Y-88900000D03*
X112280000Y-88900000D03*
X119900000Y-90170000D03*
X121400000Y-90170000D03*
D14*
X118380000Y-73660000D03*
X120380000Y-73660000D03*
D13*
X123710000Y-90170000D03*
X125210000Y-90170000D03*
D14*
X118380000Y-64770000D03*
X120380000Y-64770000D03*
D15*
X109220000Y-78740000D03*
X109220000Y-79390000D03*
X109220000Y-80040000D03*
X109220000Y-80690000D03*
X109220000Y-81340000D03*
D16*
X109220000Y-77540000D03*
X109220000Y-82540000D03*
D17*
X106520000Y-76540000D03*
X106520000Y-83540000D03*
D18*
X115050000Y-76200000D03*
X113550000Y-76200000D03*
D19*
X121437400Y-107315000D03*
D20*
X118897400Y-107315000D03*
X116357400Y-107315000D03*
X113817400Y-107315000D03*
D21*
X118110000Y-87810000D03*
X118110000Y-84910000D03*
X118110000Y-82730000D03*
X118110000Y-79830000D03*
D22*
X115890000Y-90170000D03*
X117790000Y-90170000D03*
D23*
X123335000Y-85220000D03*
X123785000Y-85220000D03*
X124235000Y-85220000D03*
X124685000Y-85220000D03*
X125135000Y-85220000D03*
X125585000Y-85220000D03*
X125585000Y-82420000D03*
X125135000Y-82420000D03*
X124685000Y-82420000D03*
X124235000Y-82420000D03*
X123785000Y-82420000D03*
X123335000Y-82420000D03*
D24*
X125055000Y-83405000D03*
X123865000Y-83405000D03*
X125055000Y-84235000D03*
X123865000Y-84235000D03*
D25*
X129743200Y-74269600D03*
D26*
X129743200Y-76809600D03*
X129743200Y-79349600D03*
X129743200Y-81889600D03*
X129743200Y-84429600D03*
X129743200Y-86969600D03*
X129743200Y-89509600D03*
X129743200Y-92049600D03*
X129743200Y-94589600D03*
X129743200Y-97129600D03*
X137363200Y-97129600D03*
X137363200Y-94589600D03*
X137363200Y-92049600D03*
X137363200Y-89509600D03*
X137363200Y-86969600D03*
X137363200Y-84429600D03*
X137363200Y-81889600D03*
X137363200Y-79349600D03*
X137363200Y-76809600D03*
X137363200Y-74269600D03*
D27*
X118070000Y-68900000D03*
X118070000Y-70800000D03*
X120690000Y-68900000D03*
X120690000Y-70800000D03*
X120690000Y-69850000D03*
D28*
X123367800Y-102489000D03*
X122047000Y-102489000D03*
X122707400Y-102489000D03*
X122047000Y-104521000D03*
X123367800Y-104521000D03*
X119557800Y-97409000D03*
X118237000Y-97409000D03*
X118897400Y-97409000D03*
X118237000Y-99441000D03*
X119557800Y-99441000D03*
D11*
X107950000Y-63754000D03*
D29*
X113325682Y-72390000D03*
X121920000Y-72390000D03*
X120650000Y-63500000D03*
X124460000Y-83820000D03*
X121920000Y-91440000D03*
X123190000Y-73660000D03*
X121920000Y-69850000D03*
X121437400Y-99695000D03*
X117627400Y-95885000D03*
X120650000Y-87630000D03*
X121920000Y-82550000D03*
X124460000Y-87630000D03*
X123977400Y-104775000D03*
X118897400Y-100965000D03*
X116840000Y-77470000D03*
X114300000Y-91440000D03*
X123190000Y-87630000D03*
X124460000Y-80010000D03*
X127304800Y-81330800D03*
X123240800Y-80213200D03*
D30*
X121920000Y-67310000D02*
X123460000Y-68850000D01*
X123460000Y-68850000D02*
X125730000Y-68850000D01*
D31*
X109220000Y-78740000D02*
X110490000Y-78740000D01*
D30*
X113550000Y-76950000D02*
X111760000Y-78740000D01*
X111760000Y-78740000D02*
X110490000Y-78740000D01*
X113550000Y-76950000D02*
X113550000Y-76200000D01*
X120690000Y-70800000D02*
X120690000Y-71160000D01*
X121920000Y-72390000D02*
X120690000Y-71160000D01*
X120690000Y-68900000D02*
X120690000Y-68540000D01*
X113325682Y-63204318D02*
X113325682Y-72390000D01*
X113325682Y-72390000D02*
X113325682Y-75975682D01*
X115570000Y-60960000D02*
X113325682Y-63204318D01*
X120650000Y-60960000D02*
X115570000Y-60960000D01*
X121920000Y-62230000D02*
X120650000Y-60960000D01*
X121920000Y-67310000D02*
X121920000Y-62230000D01*
X120690000Y-68540000D02*
X121920000Y-67310000D01*
X113325682Y-75975682D02*
X113550000Y-76200000D01*
D31*
X125680000Y-68900000D02*
X125730000Y-68850000D01*
X125730000Y-68850000D02*
X125460000Y-68580000D01*
X120380000Y-64770000D02*
X120380000Y-63770000D01*
X120380000Y-63770000D02*
X120650000Y-63500000D01*
D30*
X124460000Y-83820000D02*
X124875000Y-84235000D01*
X124875000Y-84235000D02*
X125055000Y-84235000D01*
X121400000Y-90170000D02*
X121400000Y-90920000D01*
X121400000Y-90920000D02*
X121920000Y-91440000D01*
D31*
X125730000Y-70850000D02*
X122920000Y-70850000D01*
X121920000Y-69850000D02*
X120690000Y-69850000D01*
X122920000Y-70850000D02*
X121920000Y-69850000D01*
X122047000Y-102489000D02*
X122047000Y-100304600D01*
X122047000Y-100304600D02*
X121437400Y-99695000D01*
X118237000Y-97409000D02*
X118237000Y-96494600D01*
X118237000Y-96494600D02*
X117627400Y-95885000D01*
X125135000Y-85220000D02*
X125135000Y-84315000D01*
X125135000Y-84315000D02*
X125055000Y-84235000D01*
X123785000Y-82420000D02*
X123785000Y-83325000D01*
X123785000Y-83325000D02*
X123865000Y-83405000D01*
X125135000Y-85220000D02*
X125135000Y-90095000D01*
X125135000Y-90095000D02*
X125210000Y-90170000D01*
D30*
X120380000Y-73660000D02*
X123190000Y-73660000D01*
X123190000Y-73660000D02*
X122920000Y-73660000D01*
X122920000Y-73660000D02*
X125460000Y-71120000D01*
D31*
X112280000Y-83820000D02*
X112280000Y-88900000D01*
X125730000Y-70850000D02*
X125730000Y-71120000D01*
X125730000Y-71120000D02*
X125730000Y-70850000D01*
X120690000Y-69850000D02*
X120650000Y-69850000D01*
X120650000Y-69850000D02*
X120690000Y-69850000D01*
X120380000Y-65040000D02*
X120380000Y-64770000D01*
X112280000Y-83820000D02*
X112280000Y-83070000D01*
X110550000Y-81340000D02*
X109220000Y-81340000D01*
X112280000Y-83070000D02*
X110550000Y-81340000D01*
X109220000Y-81340000D02*
X109220000Y-82540000D01*
X125460000Y-71120000D02*
X125730000Y-70850000D01*
X125730000Y-70850000D02*
X125460000Y-70850000D01*
X125460000Y-70850000D02*
X125730000Y-71120000D01*
X123335000Y-85220000D02*
X122195000Y-86360000D01*
X116320000Y-86360000D02*
X121920000Y-86360000D01*
X116320000Y-86360000D02*
X113780000Y-83820000D01*
X122195000Y-86360000D02*
X121920000Y-86360000D01*
X118110000Y-82730000D02*
X114870000Y-82730000D01*
X114870000Y-82730000D02*
X113780000Y-83820000D01*
X123335000Y-82420000D02*
X122050000Y-82420000D01*
X120470000Y-87810000D02*
X118110000Y-87810000D01*
X120650000Y-87630000D02*
X120470000Y-87810000D01*
X122050000Y-82420000D02*
X121920000Y-82550000D01*
X114870000Y-87810000D02*
X118110000Y-87810000D01*
X113780000Y-88900000D02*
X114870000Y-87810000D01*
X123785000Y-85220000D02*
X123785000Y-85765000D01*
X119900000Y-89650000D02*
X119900000Y-90170000D01*
X123785000Y-85765000D02*
X119900000Y-89650000D01*
X117790000Y-90170000D02*
X119900000Y-90170000D01*
D30*
X118380000Y-73660000D02*
X118380000Y-75504800D01*
X128508000Y-75504800D02*
X129743200Y-74269600D01*
X118380000Y-75504800D02*
X128508000Y-75504800D01*
X118380000Y-64770000D02*
X116840000Y-64770000D01*
X115762498Y-70927502D02*
X118070000Y-70927502D01*
X115570000Y-71120000D02*
X115762498Y-70927502D01*
X115570000Y-66040000D02*
X115570000Y-71120000D01*
X116840000Y-64770000D02*
X115570000Y-66040000D01*
X118070000Y-70927502D02*
X118070000Y-70800000D01*
X118070000Y-70800000D02*
X118070000Y-73350000D01*
X118070000Y-73350000D02*
X118380000Y-73660000D01*
X118380000Y-73660000D02*
X118110000Y-73930000D01*
D31*
X123710000Y-90170000D02*
X123710000Y-88380000D01*
X123710000Y-88380000D02*
X124460000Y-87630000D01*
X124685000Y-85220000D02*
X124685000Y-87405000D01*
X124685000Y-87405000D02*
X124460000Y-87630000D01*
X123367800Y-104521000D02*
X123723400Y-104521000D01*
X123723400Y-104521000D02*
X123977400Y-104775000D01*
X119557800Y-99441000D02*
X119557800Y-100304600D01*
X119557800Y-100304600D02*
X118897400Y-100965000D01*
X115050000Y-76200000D02*
X115570000Y-76200000D01*
X115570000Y-76200000D02*
X116840000Y-77470000D01*
X114300000Y-91440000D02*
X115570000Y-90170000D01*
X115570000Y-90170000D02*
X115890000Y-90170000D01*
X115570000Y-89850000D02*
X115890000Y-90170000D01*
X109220000Y-79390000D02*
X114950000Y-79390000D01*
X115390000Y-79830000D02*
X118110000Y-79830000D01*
X114950000Y-79390000D02*
X115390000Y-79830000D01*
X118110000Y-79830000D02*
X118110000Y-80010000D01*
X118110000Y-80010000D02*
X118110000Y-79830000D01*
X109220000Y-80040000D02*
X114330000Y-80040000D01*
X119560000Y-84910000D02*
X118110000Y-84910000D01*
X120650000Y-83820000D02*
X119560000Y-84910000D01*
X120650000Y-81280000D02*
X120650000Y-83820000D01*
X115570000Y-81280000D02*
X120650000Y-81280000D01*
X114330000Y-80040000D02*
X115570000Y-81280000D01*
X118110000Y-84910000D02*
X118110000Y-85090000D01*
X118110000Y-85090000D02*
X118110000Y-84910000D01*
X122047000Y-104521000D02*
X122047000Y-106705400D01*
X122047000Y-106705400D02*
X121437400Y-107315000D01*
X118237000Y-99441000D02*
X118237000Y-106654600D01*
X118237000Y-106654600D02*
X118897400Y-107315000D01*
X124235000Y-86585000D02*
X124235000Y-85220000D01*
X123190000Y-87630000D02*
X124235000Y-86585000D01*
X124685000Y-80235000D02*
X124460000Y-80010000D01*
X124685000Y-82420000D02*
X124685000Y-80235000D01*
X124314998Y-85220000D02*
X124235000Y-85220000D01*
X125585000Y-82420000D02*
X125585000Y-80002600D01*
X126238000Y-79349600D02*
X129743200Y-79349600D01*
X125585000Y-80002600D02*
X126238000Y-79349600D01*
X124235000Y-82420000D02*
X124235000Y-81207400D01*
X127863600Y-81889600D02*
X129743200Y-81889600D01*
X127304800Y-81330800D02*
X127863600Y-81889600D01*
X124235000Y-81207400D02*
X123240800Y-80213200D01*
X129743200Y-94589600D02*
X119938800Y-94589600D01*
X118897400Y-95631000D02*
X118897400Y-97409000D01*
X119938800Y-94589600D02*
X118897400Y-95631000D01*
X137363200Y-94589600D02*
X138480800Y-94589600D01*
X122707400Y-101269800D02*
X122707400Y-102489000D01*
X123037600Y-100939600D02*
X122707400Y-101269800D01*
X140157200Y-100939600D02*
X123037600Y-100939600D01*
X140817600Y-100279200D02*
X140157200Y-100939600D01*
X140817600Y-96926400D02*
X140817600Y-100279200D01*
X138480800Y-94589600D02*
X140817600Y-96926400D01*
D32*
G36*
X141707106Y-59867626D02*
X141909288Y-110413098D01*
X105181400Y-110211296D01*
X105181400Y-107130255D01*
X112318800Y-107130255D01*
X112318800Y-107499745D01*
X112432874Y-108073234D01*
X112757730Y-108559415D01*
X113243911Y-108884271D01*
X113817400Y-108998345D01*
X114390889Y-108884271D01*
X114877070Y-108559415D01*
X115087400Y-108244634D01*
X115297730Y-108559415D01*
X115783911Y-108884271D01*
X116357400Y-108998345D01*
X116930889Y-108884271D01*
X117417070Y-108559415D01*
X117627400Y-108244634D01*
X117837730Y-108559415D01*
X118323911Y-108884271D01*
X118897400Y-108998345D01*
X119470889Y-108884271D01*
X119957070Y-108559415D01*
X119966643Y-108545087D01*
X119970638Y-108566317D01*
X120109710Y-108782441D01*
X120321910Y-108927431D01*
X120573800Y-108978440D01*
X122301000Y-108978440D01*
X122536317Y-108934162D01*
X122752441Y-108795090D01*
X122897431Y-108582890D01*
X122948440Y-108331000D01*
X122948440Y-107963834D01*
X135946943Y-107963834D01*
X136347253Y-108932658D01*
X137087843Y-109674542D01*
X138055967Y-110076542D01*
X139104234Y-110077457D01*
X140073058Y-109677147D01*
X140814942Y-108936557D01*
X141216942Y-107968433D01*
X141217857Y-106920166D01*
X140817547Y-105951342D01*
X140076957Y-105209458D01*
X139108833Y-104807458D01*
X138060566Y-104806543D01*
X137091742Y-105206853D01*
X136349858Y-105947443D01*
X135947858Y-106915567D01*
X135946943Y-107963834D01*
X122948440Y-107963834D01*
X122948440Y-106299000D01*
X122904162Y-106063683D01*
X122807000Y-105912689D01*
X122807000Y-105375402D01*
X122912710Y-105447631D01*
X123164600Y-105498640D01*
X123378641Y-105498640D01*
X123447073Y-105567192D01*
X123790601Y-105709838D01*
X124162567Y-105710162D01*
X124506343Y-105568117D01*
X124769592Y-105305327D01*
X124912238Y-104961799D01*
X124912562Y-104589833D01*
X124770517Y-104246057D01*
X124507727Y-103982808D01*
X124164199Y-103840162D01*
X124099919Y-103840106D01*
X124035090Y-103739359D01*
X123822890Y-103594369D01*
X123571000Y-103543360D01*
X123164600Y-103543360D01*
X122929283Y-103587638D01*
X122713159Y-103726710D01*
X122707627Y-103734806D01*
X122502090Y-103594369D01*
X122250200Y-103543360D01*
X121843800Y-103543360D01*
X121608483Y-103587638D01*
X121392359Y-103726710D01*
X121247369Y-103938910D01*
X121196360Y-104190800D01*
X121196360Y-104851200D01*
X121240638Y-105086517D01*
X121287000Y-105158566D01*
X121287000Y-105651560D01*
X120573800Y-105651560D01*
X120338483Y-105695838D01*
X120122359Y-105834910D01*
X119977369Y-106047110D01*
X119969000Y-106088439D01*
X119957070Y-106070585D01*
X119470889Y-105745729D01*
X118997000Y-105651467D01*
X118997000Y-102032490D01*
X121208800Y-102032490D01*
X121208800Y-102203250D01*
X121367550Y-102362000D01*
X121856760Y-102362000D01*
X121856760Y-102616000D01*
X121367550Y-102616000D01*
X121208800Y-102774750D01*
X121208800Y-102945510D01*
X121305473Y-103178899D01*
X121484102Y-103357527D01*
X121717491Y-103454200D01*
X121786650Y-103454200D01*
X121945400Y-103295450D01*
X121945400Y-103123457D01*
X122040110Y-103270641D01*
X122252310Y-103415631D01*
X122272963Y-103419813D01*
X122307350Y-103454200D01*
X122376509Y-103454200D01*
X122398266Y-103445188D01*
X122504200Y-103466640D01*
X122910600Y-103466640D01*
X123042262Y-103441866D01*
X123164600Y-103466640D01*
X123571000Y-103466640D01*
X123806317Y-103422362D01*
X124022441Y-103283290D01*
X124167431Y-103071090D01*
X124218440Y-102819200D01*
X124218440Y-102158800D01*
X124174162Y-101923483D01*
X124035090Y-101707359D01*
X124023734Y-101699600D01*
X140157200Y-101699600D01*
X140448039Y-101641748D01*
X140694601Y-101477001D01*
X141355001Y-100816601D01*
X141519748Y-100570039D01*
X141577600Y-100279200D01*
X141577600Y-96926400D01*
X141519748Y-96635561D01*
X141519748Y-96635560D01*
X141355001Y-96388999D01*
X139018201Y-94052199D01*
X138771639Y-93887452D01*
X138490702Y-93831570D01*
X138119553Y-93459773D01*
X137781754Y-93319506D01*
X138117580Y-93180746D01*
X138493027Y-92805953D01*
X138696468Y-92316013D01*
X138696931Y-91785514D01*
X138494346Y-91295220D01*
X138119553Y-90919773D01*
X137781754Y-90779506D01*
X138117580Y-90640746D01*
X138493027Y-90265953D01*
X138696468Y-89776013D01*
X138696931Y-89245514D01*
X138494346Y-88755220D01*
X138119553Y-88379773D01*
X137781754Y-88239506D01*
X138117580Y-88100746D01*
X138493027Y-87725953D01*
X138696468Y-87236013D01*
X138696931Y-86705514D01*
X138494346Y-86215220D01*
X138119553Y-85839773D01*
X137781754Y-85699506D01*
X138117580Y-85560746D01*
X138493027Y-85185953D01*
X138696468Y-84696013D01*
X138696931Y-84165514D01*
X138494346Y-83675220D01*
X138119553Y-83299773D01*
X137781754Y-83159506D01*
X138117580Y-83020746D01*
X138493027Y-82645953D01*
X138696468Y-82156013D01*
X138696931Y-81625514D01*
X138494346Y-81135220D01*
X138119553Y-80759773D01*
X137781754Y-80619506D01*
X138117580Y-80480746D01*
X138493027Y-80105953D01*
X138696468Y-79616013D01*
X138696931Y-79085514D01*
X138494346Y-78595220D01*
X138119553Y-78219773D01*
X137781754Y-78079506D01*
X138117580Y-77940746D01*
X138493027Y-77565953D01*
X138696468Y-77076013D01*
X138696931Y-76545514D01*
X138494346Y-76055220D01*
X138119553Y-75679773D01*
X137798082Y-75546286D01*
X138056129Y-75439400D01*
X138117783Y-75203788D01*
X137363200Y-74449205D01*
X136608617Y-75203788D01*
X136670271Y-75439400D01*
X136949512Y-75537683D01*
X136608820Y-75678454D01*
X136233373Y-76053247D01*
X136029932Y-76543187D01*
X136029469Y-77073686D01*
X136232054Y-77563980D01*
X136606847Y-77939427D01*
X136944646Y-78079694D01*
X136608820Y-78218454D01*
X136233373Y-78593247D01*
X136029932Y-79083187D01*
X136029469Y-79613686D01*
X136232054Y-80103980D01*
X136606847Y-80479427D01*
X136944646Y-80619694D01*
X136608820Y-80758454D01*
X136233373Y-81133247D01*
X136029932Y-81623187D01*
X136029469Y-82153686D01*
X136232054Y-82643980D01*
X136606847Y-83019427D01*
X136944646Y-83159694D01*
X136608820Y-83298454D01*
X136233373Y-83673247D01*
X136029932Y-84163187D01*
X136029469Y-84693686D01*
X136232054Y-85183980D01*
X136606847Y-85559427D01*
X136944646Y-85699694D01*
X136608820Y-85838454D01*
X136233373Y-86213247D01*
X136029932Y-86703187D01*
X136029469Y-87233686D01*
X136232054Y-87723980D01*
X136606847Y-88099427D01*
X136944646Y-88239694D01*
X136608820Y-88378454D01*
X136233373Y-88753247D01*
X136029932Y-89243187D01*
X136029469Y-89773686D01*
X136232054Y-90263980D01*
X136606847Y-90639427D01*
X136944646Y-90779694D01*
X136608820Y-90918454D01*
X136233373Y-91293247D01*
X136029932Y-91783187D01*
X136029469Y-92313686D01*
X136232054Y-92803980D01*
X136606847Y-93179427D01*
X136944646Y-93319694D01*
X136608820Y-93458454D01*
X136233373Y-93833247D01*
X136029932Y-94323187D01*
X136029469Y-94853686D01*
X136232054Y-95343980D01*
X136606847Y-95719427D01*
X136944646Y-95859694D01*
X136608820Y-95998454D01*
X136233373Y-96373247D01*
X136029932Y-96863187D01*
X136029469Y-97393686D01*
X136232054Y-97883980D01*
X136606847Y-98259427D01*
X137096787Y-98462868D01*
X137627286Y-98463331D01*
X138117580Y-98260746D01*
X138493027Y-97885953D01*
X138696468Y-97396013D01*
X138696931Y-96865514D01*
X138494346Y-96375220D01*
X138119553Y-95999773D01*
X137781754Y-95859506D01*
X138117580Y-95720746D01*
X138327545Y-95511147D01*
X140057600Y-97241202D01*
X140057600Y-99964398D01*
X139842398Y-100179600D01*
X123037600Y-100179600D01*
X122746760Y-100237452D01*
X122500199Y-100402199D01*
X122169999Y-100732399D01*
X122005252Y-100978961D01*
X121947400Y-101269800D01*
X121947400Y-101523800D01*
X121919998Y-101523800D01*
X121919998Y-101657148D01*
X121786650Y-101523800D01*
X121717491Y-101523800D01*
X121484102Y-101620473D01*
X121305473Y-101799101D01*
X121208800Y-102032490D01*
X118997000Y-102032490D01*
X118997000Y-101900087D01*
X119082567Y-101900162D01*
X119426343Y-101758117D01*
X119689592Y-101495327D01*
X119832238Y-101151799D01*
X119832279Y-101104923D01*
X120095201Y-100842001D01*
X120259948Y-100595439D01*
X120317800Y-100304600D01*
X120317800Y-100081092D01*
X120357431Y-100023090D01*
X120408440Y-99771200D01*
X120408440Y-99110800D01*
X120364162Y-98875483D01*
X120225090Y-98659359D01*
X120012890Y-98514369D01*
X119761000Y-98463360D01*
X119354600Y-98463360D01*
X119119283Y-98507638D01*
X118903159Y-98646710D01*
X118897627Y-98654806D01*
X118692090Y-98514369D01*
X118440200Y-98463360D01*
X118033800Y-98463360D01*
X117798483Y-98507638D01*
X117582359Y-98646710D01*
X117437369Y-98858910D01*
X117386360Y-99110800D01*
X117386360Y-99771200D01*
X117430638Y-100006517D01*
X117477000Y-100078566D01*
X117477000Y-106160277D01*
X117417070Y-106070585D01*
X116930889Y-105745729D01*
X116357400Y-105631655D01*
X115783911Y-105745729D01*
X115297730Y-106070585D01*
X115087400Y-106385366D01*
X114877070Y-106070585D01*
X114390889Y-105745729D01*
X113817400Y-105631655D01*
X113243911Y-105745729D01*
X112757730Y-106070585D01*
X112432874Y-106556766D01*
X112318800Y-107130255D01*
X105181400Y-107130255D01*
X105181400Y-101613834D01*
X106736943Y-101613834D01*
X107137253Y-102582658D01*
X107877843Y-103324542D01*
X108845967Y-103726542D01*
X109894234Y-103727457D01*
X110863058Y-103327147D01*
X111604942Y-102586557D01*
X112006942Y-101618433D01*
X112007857Y-100570166D01*
X111607547Y-99601342D01*
X110866957Y-98859458D01*
X109898833Y-98457458D01*
X108850566Y-98456543D01*
X107881742Y-98856853D01*
X107139858Y-99597443D01*
X106737858Y-100565567D01*
X106736943Y-101613834D01*
X105181400Y-101613834D01*
X105181400Y-89185750D01*
X111245000Y-89185750D01*
X111245000Y-89401310D01*
X111341673Y-89634699D01*
X111520302Y-89813327D01*
X111753691Y-89910000D01*
X111994250Y-89910000D01*
X112153000Y-89751250D01*
X112153000Y-89027000D01*
X111403750Y-89027000D01*
X111245000Y-89185750D01*
X105181400Y-89185750D01*
X105181400Y-88398690D01*
X111245000Y-88398690D01*
X111245000Y-88614250D01*
X111403750Y-88773000D01*
X112153000Y-88773000D01*
X112153000Y-88048750D01*
X111994250Y-87890000D01*
X111753691Y-87890000D01*
X111520302Y-87986673D01*
X111341673Y-88165301D01*
X111245000Y-88398690D01*
X105181400Y-88398690D01*
X105181400Y-83904029D01*
X105352632Y-84252763D01*
X105693322Y-84540002D01*
X106118000Y-84675000D01*
X106393000Y-84675000D01*
X106393000Y-83667000D01*
X106647000Y-83667000D01*
X106647000Y-84675000D01*
X106922000Y-84675000D01*
X107346678Y-84540002D01*
X107687368Y-84252763D01*
X107759552Y-84105750D01*
X111245000Y-84105750D01*
X111245000Y-84321310D01*
X111341673Y-84554699D01*
X111520302Y-84733327D01*
X111753691Y-84830000D01*
X111994250Y-84830000D01*
X112153000Y-84671250D01*
X112153000Y-83947000D01*
X111403750Y-83947000D01*
X111245000Y-84105750D01*
X107759552Y-84105750D01*
X107889119Y-83841874D01*
X107762954Y-83667000D01*
X106647000Y-83667000D01*
X106393000Y-83667000D01*
X106373000Y-83667000D01*
X106373000Y-83413000D01*
X106393000Y-83413000D01*
X106393000Y-82405000D01*
X106647000Y-82405000D01*
X106647000Y-83413000D01*
X107762954Y-83413000D01*
X107889119Y-83238126D01*
X107694191Y-82841131D01*
X108118771Y-82841131D01*
X108260432Y-83251049D01*
X108548179Y-83575552D01*
X108922062Y-83759268D01*
X109093000Y-83632734D01*
X109093000Y-82667000D01*
X109347000Y-82667000D01*
X109347000Y-83632734D01*
X109517938Y-83759268D01*
X109891821Y-83575552D01*
X110119588Y-83318690D01*
X111245000Y-83318690D01*
X111245000Y-83534250D01*
X111403750Y-83693000D01*
X112153000Y-83693000D01*
X112153000Y-82968750D01*
X111994250Y-82810000D01*
X111753691Y-82810000D01*
X111520302Y-82906673D01*
X111341673Y-83085301D01*
X111245000Y-83318690D01*
X110119588Y-83318690D01*
X110179568Y-83251049D01*
X110321229Y-82841131D01*
X110172563Y-82667000D01*
X109347000Y-82667000D01*
X109093000Y-82667000D01*
X108267437Y-82667000D01*
X108118771Y-82841131D01*
X107694191Y-82841131D01*
X107687368Y-82827237D01*
X107346678Y-82539998D01*
X106922000Y-82405000D01*
X106647000Y-82405000D01*
X106393000Y-82405000D01*
X106118000Y-82405000D01*
X105693322Y-82539998D01*
X105352632Y-82827237D01*
X105181400Y-83175971D01*
X105181400Y-78540000D01*
X107897560Y-78540000D01*
X107897560Y-78940000D01*
X107921944Y-79069589D01*
X107897560Y-79190000D01*
X107897560Y-79590000D01*
X107921944Y-79719589D01*
X107897560Y-79840000D01*
X107897560Y-80240000D01*
X107921944Y-80369589D01*
X107897560Y-80490000D01*
X107897560Y-80890000D01*
X107917450Y-80995705D01*
X107910000Y-81013690D01*
X107910000Y-81081250D01*
X107939004Y-81110254D01*
X107941838Y-81125317D01*
X108080910Y-81341441D01*
X108225156Y-81440000D01*
X108068750Y-81440000D01*
X107910000Y-81598750D01*
X107910000Y-81666310D01*
X108006673Y-81899699D01*
X108177090Y-82070115D01*
X108118771Y-82238869D01*
X108267437Y-82413000D01*
X109093000Y-82413000D01*
X109093000Y-82393000D01*
X109347000Y-82393000D01*
X109347000Y-82413000D01*
X110172563Y-82413000D01*
X110321229Y-82238869D01*
X110262910Y-82070115D01*
X110433327Y-81899699D01*
X110530000Y-81666310D01*
X110530000Y-81598750D01*
X110371250Y-81440000D01*
X110212933Y-81440000D01*
X110346441Y-81354090D01*
X110491431Y-81141890D01*
X110497035Y-81114215D01*
X110530000Y-81081250D01*
X110530000Y-81013690D01*
X110521532Y-80993247D01*
X110542440Y-80890000D01*
X110542440Y-80800000D01*
X114015198Y-80800000D01*
X115032599Y-81817401D01*
X115260980Y-81970000D01*
X114870000Y-81970000D01*
X114579161Y-82027852D01*
X114332599Y-82192599D01*
X113727638Y-82797560D01*
X113380000Y-82797560D01*
X113144683Y-82841838D01*
X113041354Y-82908329D01*
X113039698Y-82906673D01*
X112806309Y-82810000D01*
X112565750Y-82810000D01*
X112407000Y-82968750D01*
X112407000Y-83693000D01*
X112427000Y-83693000D01*
X112427000Y-83947000D01*
X112407000Y-83947000D01*
X112407000Y-84671250D01*
X112565750Y-84830000D01*
X112806309Y-84830000D01*
X113039698Y-84733327D01*
X113041068Y-84731957D01*
X113128110Y-84791431D01*
X113380000Y-84842440D01*
X113727638Y-84842440D01*
X115782599Y-86897401D01*
X116010979Y-87050000D01*
X114870000Y-87050000D01*
X114579161Y-87107852D01*
X114332599Y-87272599D01*
X113727638Y-87877560D01*
X113380000Y-87877560D01*
X113144683Y-87921838D01*
X113041354Y-87988329D01*
X113039698Y-87986673D01*
X112806309Y-87890000D01*
X112565750Y-87890000D01*
X112407000Y-88048750D01*
X112407000Y-88773000D01*
X112427000Y-88773000D01*
X112427000Y-89027000D01*
X112407000Y-89027000D01*
X112407000Y-89751250D01*
X112565750Y-89910000D01*
X112806309Y-89910000D01*
X113039698Y-89813327D01*
X113041068Y-89811957D01*
X113128110Y-89871431D01*
X113380000Y-89922440D01*
X114180000Y-89922440D01*
X114415317Y-89878162D01*
X114631441Y-89739090D01*
X114776431Y-89526890D01*
X114827440Y-89275000D01*
X114827440Y-88927362D01*
X115184802Y-88570000D01*
X116704895Y-88570000D01*
X116795910Y-88711441D01*
X117008110Y-88856431D01*
X117257413Y-88906916D01*
X117204683Y-88916838D01*
X116988559Y-89055910D01*
X116843569Y-89268110D01*
X116840919Y-89281197D01*
X116704090Y-89068559D01*
X116491890Y-88923569D01*
X116240000Y-88872560D01*
X115540000Y-88872560D01*
X115304683Y-88916838D01*
X115088559Y-89055910D01*
X114943569Y-89268110D01*
X114892560Y-89520000D01*
X114892560Y-89522183D01*
X114867852Y-89559161D01*
X114810000Y-89850000D01*
X114810862Y-89854336D01*
X114160320Y-90504878D01*
X114114833Y-90504838D01*
X113771057Y-90646883D01*
X113507808Y-90909673D01*
X113365162Y-91253201D01*
X113364838Y-91625167D01*
X113506883Y-91968943D01*
X113769673Y-92232192D01*
X114113201Y-92374838D01*
X114485167Y-92375162D01*
X114828943Y-92233117D01*
X115092192Y-91970327D01*
X115234838Y-91626799D01*
X115234879Y-91579923D01*
X115379803Y-91434999D01*
X115540000Y-91467440D01*
X116240000Y-91467440D01*
X116475317Y-91423162D01*
X116691441Y-91284090D01*
X116836431Y-91071890D01*
X116839081Y-91058803D01*
X116975910Y-91271441D01*
X117188110Y-91416431D01*
X117440000Y-91467440D01*
X118140000Y-91467440D01*
X118375317Y-91423162D01*
X118591441Y-91284090D01*
X118736431Y-91071890D01*
X118765164Y-90930000D01*
X118993156Y-90930000D01*
X119035910Y-90996441D01*
X119248110Y-91141431D01*
X119500000Y-91192440D01*
X120300000Y-91192440D01*
X120535317Y-91148162D01*
X120638646Y-91081671D01*
X120640302Y-91083327D01*
X120873691Y-91180000D01*
X121114250Y-91180000D01*
X121273000Y-91021250D01*
X121273000Y-90297000D01*
X121527000Y-90297000D01*
X121527000Y-91021250D01*
X121685750Y-91180000D01*
X121926309Y-91180000D01*
X122159698Y-91083327D01*
X122338327Y-90904699D01*
X122435000Y-90671310D01*
X122435000Y-90455750D01*
X122276250Y-90297000D01*
X121527000Y-90297000D01*
X121273000Y-90297000D01*
X121253000Y-90297000D01*
X121253000Y-90043000D01*
X121273000Y-90043000D01*
X121273000Y-90023000D01*
X121527000Y-90023000D01*
X121527000Y-90043000D01*
X122276250Y-90043000D01*
X122435000Y-89884250D01*
X122435000Y-89668690D01*
X122338327Y-89435301D01*
X122159698Y-89256673D01*
X121926309Y-89160000D01*
X121685750Y-89160000D01*
X121527002Y-89318748D01*
X121527002Y-89160000D01*
X121464802Y-89160000D01*
X122431341Y-88193461D01*
X122659673Y-88422192D01*
X122950000Y-88542747D01*
X122950000Y-89272069D01*
X122858559Y-89330910D01*
X122713569Y-89543110D01*
X122662560Y-89795000D01*
X122662560Y-90545000D01*
X122706838Y-90780317D01*
X122845910Y-90996441D01*
X123058110Y-91141431D01*
X123310000Y-91192440D01*
X124110000Y-91192440D01*
X124345317Y-91148162D01*
X124448646Y-91081671D01*
X124450302Y-91083327D01*
X124683691Y-91180000D01*
X124924250Y-91180000D01*
X125083000Y-91021250D01*
X125083000Y-90297000D01*
X125337000Y-90297000D01*
X125337000Y-91021250D01*
X125495750Y-91180000D01*
X125736309Y-91180000D01*
X125969698Y-91083327D01*
X126148327Y-90904699D01*
X126245000Y-90671310D01*
X126245000Y-90455750D01*
X126086250Y-90297000D01*
X125337000Y-90297000D01*
X125083000Y-90297000D01*
X125063000Y-90297000D01*
X125063000Y-90043000D01*
X125083000Y-90043000D01*
X125083000Y-89318750D01*
X125337000Y-89318750D01*
X125337000Y-90043000D01*
X126086250Y-90043000D01*
X126245000Y-89884250D01*
X126245000Y-89668690D01*
X126148327Y-89435301D01*
X125969698Y-89256673D01*
X125736309Y-89160000D01*
X125495750Y-89160000D01*
X125337000Y-89318750D01*
X125083000Y-89318750D01*
X124924250Y-89160000D01*
X124683691Y-89160000D01*
X124470000Y-89248514D01*
X124470000Y-88694802D01*
X124599680Y-88565122D01*
X124645167Y-88565162D01*
X124988943Y-88423117D01*
X125252192Y-88160327D01*
X125394838Y-87816799D01*
X125394978Y-87656477D01*
X125445000Y-87405000D01*
X125445000Y-86214402D01*
X125460000Y-86217440D01*
X125710000Y-86217440D01*
X125945317Y-86173162D01*
X126161441Y-86034090D01*
X126306431Y-85821890D01*
X126357440Y-85570000D01*
X126357440Y-84870000D01*
X126313162Y-84634683D01*
X126285000Y-84590918D01*
X126285000Y-84520750D01*
X126126250Y-84362000D01*
X126091313Y-84362000D01*
X126040646Y-84327380D01*
X126188327Y-84179698D01*
X126282920Y-83951330D01*
X126285000Y-83949250D01*
X126285000Y-83690750D01*
X126282920Y-83688670D01*
X126188327Y-83460302D01*
X126040159Y-83312133D01*
X126093203Y-83278000D01*
X126126250Y-83278000D01*
X126285000Y-83119250D01*
X126285000Y-83053255D01*
X126306431Y-83021890D01*
X126357440Y-82770000D01*
X126357440Y-82070000D01*
X126345000Y-82003887D01*
X126345000Y-80317402D01*
X126552802Y-80109600D01*
X128617664Y-80109600D01*
X128986847Y-80479427D01*
X129324646Y-80619694D01*
X128988820Y-80758454D01*
X128617026Y-81129600D01*
X128233337Y-81129600D01*
X128097917Y-80801857D01*
X127835127Y-80538608D01*
X127491599Y-80395962D01*
X127119633Y-80395638D01*
X126775857Y-80537683D01*
X126512608Y-80800473D01*
X126369962Y-81144001D01*
X126369638Y-81515967D01*
X126511683Y-81859743D01*
X126774473Y-82122992D01*
X127118001Y-82265638D01*
X127164877Y-82265679D01*
X127326199Y-82427001D01*
X127572761Y-82591748D01*
X127863600Y-82649600D01*
X128617664Y-82649600D01*
X128986847Y-83019427D01*
X129324646Y-83159694D01*
X128988820Y-83298454D01*
X128613373Y-83673247D01*
X128409932Y-84163187D01*
X128409469Y-84693686D01*
X128612054Y-85183980D01*
X128986847Y-85559427D01*
X129324646Y-85699694D01*
X128988820Y-85838454D01*
X128613373Y-86213247D01*
X128409932Y-86703187D01*
X128409469Y-87233686D01*
X128612054Y-87723980D01*
X128986847Y-88099427D01*
X129324646Y-88239694D01*
X128988820Y-88378454D01*
X128613373Y-88753247D01*
X128409932Y-89243187D01*
X128409469Y-89773686D01*
X128612054Y-90263980D01*
X128986847Y-90639427D01*
X129324646Y-90779694D01*
X128988820Y-90918454D01*
X128613373Y-91293247D01*
X128409932Y-91783187D01*
X128409469Y-92313686D01*
X128612054Y-92803980D01*
X128986847Y-93179427D01*
X129324646Y-93319694D01*
X128988820Y-93458454D01*
X128617026Y-93829600D01*
X119938800Y-93829600D01*
X119647961Y-93887452D01*
X119401399Y-94052199D01*
X118359999Y-95093599D01*
X118195252Y-95340161D01*
X118137400Y-95631000D01*
X118137400Y-96443800D01*
X118109998Y-96443800D01*
X118109998Y-96577148D01*
X117976650Y-96443800D01*
X117907491Y-96443800D01*
X117674102Y-96540473D01*
X117495473Y-96719101D01*
X117398800Y-96952490D01*
X117398800Y-97123250D01*
X117557550Y-97282000D01*
X118046760Y-97282000D01*
X118046760Y-97536000D01*
X117557550Y-97536000D01*
X117398800Y-97694750D01*
X117398800Y-97865510D01*
X117495473Y-98098899D01*
X117674102Y-98277527D01*
X117907491Y-98374200D01*
X117976650Y-98374200D01*
X118135400Y-98215450D01*
X118135400Y-98043457D01*
X118230110Y-98190641D01*
X118442310Y-98335631D01*
X118462963Y-98339813D01*
X118497350Y-98374200D01*
X118566509Y-98374200D01*
X118588266Y-98365188D01*
X118694200Y-98386640D01*
X119100600Y-98386640D01*
X119232262Y-98361866D01*
X119354600Y-98386640D01*
X119761000Y-98386640D01*
X119996317Y-98342362D01*
X120212441Y-98203290D01*
X120357431Y-97991090D01*
X120408440Y-97739200D01*
X120408440Y-97078800D01*
X120364162Y-96843483D01*
X120225090Y-96627359D01*
X120012890Y-96482369D01*
X119761000Y-96431360D01*
X119657400Y-96431360D01*
X119657400Y-95945802D01*
X120253602Y-95349600D01*
X128617664Y-95349600D01*
X128986847Y-95719427D01*
X129324646Y-95859694D01*
X128988820Y-95998454D01*
X128613373Y-96373247D01*
X128409932Y-96863187D01*
X128409469Y-97393686D01*
X128612054Y-97883980D01*
X128986847Y-98259427D01*
X129476787Y-98462868D01*
X130007286Y-98463331D01*
X130497580Y-98260746D01*
X130873027Y-97885953D01*
X131076468Y-97396013D01*
X131076931Y-96865514D01*
X130874346Y-96375220D01*
X130499553Y-95999773D01*
X130161754Y-95859506D01*
X130497580Y-95720746D01*
X130873027Y-95345953D01*
X131076468Y-94856013D01*
X131076931Y-94325514D01*
X130874346Y-93835220D01*
X130499553Y-93459773D01*
X130161754Y-93319506D01*
X130497580Y-93180746D01*
X130873027Y-92805953D01*
X131076468Y-92316013D01*
X131076931Y-91785514D01*
X130874346Y-91295220D01*
X130499553Y-90919773D01*
X130161754Y-90779506D01*
X130497580Y-90640746D01*
X130873027Y-90265953D01*
X131076468Y-89776013D01*
X131076931Y-89245514D01*
X130874346Y-88755220D01*
X130499553Y-88379773D01*
X130161754Y-88239506D01*
X130497580Y-88100746D01*
X130873027Y-87725953D01*
X131076468Y-87236013D01*
X131076931Y-86705514D01*
X130874346Y-86215220D01*
X130499553Y-85839773D01*
X130161754Y-85699506D01*
X130497580Y-85560746D01*
X130873027Y-85185953D01*
X131076468Y-84696013D01*
X131076931Y-84165514D01*
X130874346Y-83675220D01*
X130499553Y-83299773D01*
X130161754Y-83159506D01*
X130497580Y-83020746D01*
X130873027Y-82645953D01*
X131076468Y-82156013D01*
X131076931Y-81625514D01*
X130874346Y-81135220D01*
X130499553Y-80759773D01*
X130161754Y-80619506D01*
X130497580Y-80480746D01*
X130873027Y-80105953D01*
X131076468Y-79616013D01*
X131076931Y-79085514D01*
X130874346Y-78595220D01*
X130499553Y-78219773D01*
X130161754Y-78079506D01*
X130497580Y-77940746D01*
X130873027Y-77565953D01*
X131076468Y-77076013D01*
X131076931Y-76545514D01*
X130874346Y-76055220D01*
X130545245Y-75725545D01*
X130724080Y-75691895D01*
X130983429Y-75525008D01*
X131157417Y-75270369D01*
X131218628Y-74968100D01*
X131218628Y-74077080D01*
X136017273Y-74077080D01*
X136046052Y-74606799D01*
X136193400Y-74962529D01*
X136429012Y-75024183D01*
X137183595Y-74269600D01*
X137542805Y-74269600D01*
X138297388Y-75024183D01*
X138533000Y-74962529D01*
X138709127Y-74462120D01*
X138680348Y-73932401D01*
X138533000Y-73576671D01*
X138297388Y-73515017D01*
X137542805Y-74269600D01*
X137183595Y-74269600D01*
X136429012Y-73515017D01*
X136193400Y-73576671D01*
X136017273Y-74077080D01*
X131218628Y-74077080D01*
X131218628Y-73571100D01*
X131174281Y-73335412D01*
X136608617Y-73335412D01*
X137363200Y-74089995D01*
X138117783Y-73335412D01*
X138056129Y-73099800D01*
X137555720Y-72923673D01*
X137026001Y-72952452D01*
X136670271Y-73099800D01*
X136608617Y-73335412D01*
X131174281Y-73335412D01*
X131165495Y-73288720D01*
X130998608Y-73029371D01*
X130743969Y-72855383D01*
X130441700Y-72794172D01*
X129044700Y-72794172D01*
X128762320Y-72847305D01*
X128502971Y-73014192D01*
X128328983Y-73268831D01*
X128267772Y-73571100D01*
X128267772Y-74218384D01*
X128060856Y-74425300D01*
X121509205Y-74425300D01*
X121515000Y-74411310D01*
X121515000Y-73945750D01*
X121356250Y-73787000D01*
X120507000Y-73787000D01*
X120507000Y-73807000D01*
X120253000Y-73807000D01*
X120253000Y-73787000D01*
X120233000Y-73787000D01*
X120233000Y-73533000D01*
X120253000Y-73533000D01*
X120253000Y-72558750D01*
X120094250Y-72400000D01*
X119753691Y-72400000D01*
X119520302Y-72496673D01*
X119470892Y-72546083D01*
X119436908Y-72493271D01*
X119182269Y-72319283D01*
X119149500Y-72312647D01*
X119149500Y-71713386D01*
X119221729Y-71666908D01*
X119395717Y-71412269D01*
X119444297Y-71172375D01*
X119476838Y-71345317D01*
X119615910Y-71561441D01*
X119828110Y-71706431D01*
X119947752Y-71730659D01*
X120016481Y-71833519D01*
X120624356Y-72441394D01*
X120507000Y-72558750D01*
X120507000Y-73533000D01*
X121356250Y-73533000D01*
X121515000Y-73374250D01*
X121515000Y-73242938D01*
X121555494Y-73269995D01*
X121643083Y-73287418D01*
X121733201Y-73324838D01*
X121831638Y-73324924D01*
X121920000Y-73342500D01*
X122007591Y-73325077D01*
X122105167Y-73325162D01*
X122196143Y-73287572D01*
X122284506Y-73269995D01*
X122358761Y-73220379D01*
X122448943Y-73183117D01*
X122518610Y-73113572D01*
X122593519Y-73063519D01*
X122643135Y-72989264D01*
X122712192Y-72920327D01*
X122749942Y-72829416D01*
X122799995Y-72754506D01*
X122817418Y-72666917D01*
X122854838Y-72576799D01*
X122854924Y-72478362D01*
X122872500Y-72390000D01*
X122855077Y-72302409D01*
X122855162Y-72204833D01*
X122817572Y-72113857D01*
X122799995Y-72025494D01*
X122750379Y-71951239D01*
X122713117Y-71861057D01*
X122643572Y-71791390D01*
X122593519Y-71716481D01*
X122012788Y-71135750D01*
X124470000Y-71135750D01*
X124470000Y-71476309D01*
X124566673Y-71709698D01*
X124745301Y-71888327D01*
X124978690Y-71985000D01*
X125444250Y-71985000D01*
X125603000Y-71826250D01*
X125603000Y-70977000D01*
X125857000Y-70977000D01*
X125857000Y-71826250D01*
X126015750Y-71985000D01*
X126481310Y-71985000D01*
X126714699Y-71888327D01*
X126893327Y-71709698D01*
X126990000Y-71476309D01*
X126990000Y-71135750D01*
X126831250Y-70977000D01*
X125857000Y-70977000D01*
X125603000Y-70977000D01*
X124628750Y-70977000D01*
X124470000Y-71135750D01*
X122012788Y-71135750D01*
X121947440Y-71070402D01*
X121947440Y-70490000D01*
X121917199Y-70329284D01*
X121935000Y-70286309D01*
X121935000Y-70135750D01*
X121776250Y-69977000D01*
X121673995Y-69977000D01*
X121551890Y-69893569D01*
X121338089Y-69850273D01*
X121535317Y-69813162D01*
X121675433Y-69723000D01*
X121776250Y-69723000D01*
X121935000Y-69564250D01*
X121935000Y-69413691D01*
X121915651Y-69366979D01*
X121947440Y-69210000D01*
X121947440Y-68684478D01*
X122786481Y-69523519D01*
X123095494Y-69729995D01*
X123460000Y-69802500D01*
X124642460Y-69802500D01*
X124709006Y-69847969D01*
X124566673Y-69990302D01*
X124470000Y-70223691D01*
X124470000Y-70564250D01*
X124628750Y-70723000D01*
X125603000Y-70723000D01*
X125603000Y-70703000D01*
X125857000Y-70703000D01*
X125857000Y-70723000D01*
X126831250Y-70723000D01*
X126990000Y-70564250D01*
X126990000Y-70223691D01*
X126893327Y-69990302D01*
X126752090Y-69849064D01*
X126806441Y-69814090D01*
X126951431Y-69601890D01*
X127002440Y-69350000D01*
X127002440Y-68350000D01*
X126958162Y-68114683D01*
X126819090Y-67898559D01*
X126606890Y-67753569D01*
X126355000Y-67702560D01*
X125105000Y-67702560D01*
X124869683Y-67746838D01*
X124653559Y-67885910D01*
X124645640Y-67897500D01*
X123854538Y-67897500D01*
X122872500Y-66915462D01*
X122872500Y-63564634D01*
X136404143Y-63564634D01*
X136804453Y-64533458D01*
X137545043Y-65275342D01*
X138513167Y-65677342D01*
X139561434Y-65678257D01*
X140530258Y-65277947D01*
X141272142Y-64537357D01*
X141674142Y-63569233D01*
X141675057Y-62520966D01*
X141274747Y-61552142D01*
X140534157Y-60810258D01*
X139566033Y-60408258D01*
X138517766Y-60407343D01*
X137548942Y-60807653D01*
X136807058Y-61548243D01*
X136405058Y-62516367D01*
X136404143Y-63564634D01*
X122872500Y-63564634D01*
X122872500Y-62230000D01*
X122799995Y-61865494D01*
X122593519Y-61556481D01*
X121323519Y-60286481D01*
X121014506Y-60080005D01*
X120650000Y-60007500D01*
X115570000Y-60007500D01*
X115205494Y-60080005D01*
X114896481Y-60286481D01*
X112652163Y-62530799D01*
X112445687Y-62839812D01*
X112373182Y-63204318D01*
X112373182Y-75975682D01*
X112445687Y-76340188D01*
X112592721Y-76560241D01*
X111365462Y-77787500D01*
X110490000Y-77787500D01*
X110306589Y-77823983D01*
X110172563Y-77667000D01*
X109347000Y-77667000D01*
X109347000Y-77687000D01*
X109093000Y-77687000D01*
X109093000Y-77667000D01*
X108267437Y-77667000D01*
X108118771Y-77841131D01*
X108180560Y-78019926D01*
X108093559Y-78075910D01*
X107948569Y-78288110D01*
X107897560Y-78540000D01*
X105181400Y-78540000D01*
X105181400Y-76904029D01*
X105352632Y-77252763D01*
X105693322Y-77540002D01*
X106118000Y-77675000D01*
X106393000Y-77675000D01*
X106393000Y-76667000D01*
X106647000Y-76667000D01*
X106647000Y-77675000D01*
X106922000Y-77675000D01*
X107346678Y-77540002D01*
X107687368Y-77252763D01*
X107694190Y-77238869D01*
X108118771Y-77238869D01*
X108267437Y-77413000D01*
X109093000Y-77413000D01*
X109093000Y-76447266D01*
X109347000Y-76447266D01*
X109347000Y-77413000D01*
X110172563Y-77413000D01*
X110321229Y-77238869D01*
X110179568Y-76828951D01*
X109891821Y-76504448D01*
X109517938Y-76320732D01*
X109347000Y-76447266D01*
X109093000Y-76447266D01*
X108922062Y-76320732D01*
X108548179Y-76504448D01*
X108260432Y-76828951D01*
X108118771Y-77238869D01*
X107694190Y-77238869D01*
X107889119Y-76841874D01*
X107762954Y-76667000D01*
X106647000Y-76667000D01*
X106393000Y-76667000D01*
X106373000Y-76667000D01*
X106373000Y-76413000D01*
X106393000Y-76413000D01*
X106393000Y-75405000D01*
X106647000Y-75405000D01*
X106647000Y-76413000D01*
X107762954Y-76413000D01*
X107889119Y-76238126D01*
X107687368Y-75827237D01*
X107346678Y-75539998D01*
X106922000Y-75405000D01*
X106647000Y-75405000D01*
X106393000Y-75405000D01*
X106118000Y-75405000D01*
X105693322Y-75539998D01*
X105352632Y-75827237D01*
X105181400Y-76175971D01*
X105181400Y-64275834D01*
X105314543Y-64275834D01*
X105714853Y-65244658D01*
X106455443Y-65986542D01*
X107423567Y-66388542D01*
X108471834Y-66389457D01*
X109440658Y-65989147D01*
X110182542Y-65248557D01*
X110584542Y-64280433D01*
X110585457Y-63232166D01*
X110185147Y-62263342D01*
X109444557Y-61521458D01*
X108476433Y-61119458D01*
X107428166Y-61118543D01*
X106459342Y-61518853D01*
X105717458Y-62259443D01*
X105315458Y-63227567D01*
X105314543Y-64275834D01*
X105181400Y-64275834D01*
X105181400Y-59817176D01*
X141707106Y-59867626D01*
X141707106Y-59867626D01*
G37*
X141707106Y-59867626D02*
X141909288Y-110413098D01*
X105181400Y-110211296D01*
X105181400Y-107130255D01*
X112318800Y-107130255D01*
X112318800Y-107499745D01*
X112432874Y-108073234D01*
X112757730Y-108559415D01*
X113243911Y-108884271D01*
X113817400Y-108998345D01*
X114390889Y-108884271D01*
X114877070Y-108559415D01*
X115087400Y-108244634D01*
X115297730Y-108559415D01*
X115783911Y-108884271D01*
X116357400Y-108998345D01*
X116930889Y-108884271D01*
X117417070Y-108559415D01*
X117627400Y-108244634D01*
X117837730Y-108559415D01*
X118323911Y-108884271D01*
X118897400Y-108998345D01*
X119470889Y-108884271D01*
X119957070Y-108559415D01*
X119966643Y-108545087D01*
X119970638Y-108566317D01*
X120109710Y-108782441D01*
X120321910Y-108927431D01*
X120573800Y-108978440D01*
X122301000Y-108978440D01*
X122536317Y-108934162D01*
X122752441Y-108795090D01*
X122897431Y-108582890D01*
X122948440Y-108331000D01*
X122948440Y-107963834D01*
X135946943Y-107963834D01*
X136347253Y-108932658D01*
X137087843Y-109674542D01*
X138055967Y-110076542D01*
X139104234Y-110077457D01*
X140073058Y-109677147D01*
X140814942Y-108936557D01*
X141216942Y-107968433D01*
X141217857Y-106920166D01*
X140817547Y-105951342D01*
X140076957Y-105209458D01*
X139108833Y-104807458D01*
X138060566Y-104806543D01*
X137091742Y-105206853D01*
X136349858Y-105947443D01*
X135947858Y-106915567D01*
X135946943Y-107963834D01*
X122948440Y-107963834D01*
X122948440Y-106299000D01*
X122904162Y-106063683D01*
X122807000Y-105912689D01*
X122807000Y-105375402D01*
X122912710Y-105447631D01*
X123164600Y-105498640D01*
X123378641Y-105498640D01*
X123447073Y-105567192D01*
X123790601Y-105709838D01*
X124162567Y-105710162D01*
X124506343Y-105568117D01*
X124769592Y-105305327D01*
X124912238Y-104961799D01*
X124912562Y-104589833D01*
X124770517Y-104246057D01*
X124507727Y-103982808D01*
X124164199Y-103840162D01*
X124099919Y-103840106D01*
X124035090Y-103739359D01*
X123822890Y-103594369D01*
X123571000Y-103543360D01*
X123164600Y-103543360D01*
X122929283Y-103587638D01*
X122713159Y-103726710D01*
X122707627Y-103734806D01*
X122502090Y-103594369D01*
X122250200Y-103543360D01*
X121843800Y-103543360D01*
X121608483Y-103587638D01*
X121392359Y-103726710D01*
X121247369Y-103938910D01*
X121196360Y-104190800D01*
X121196360Y-104851200D01*
X121240638Y-105086517D01*
X121287000Y-105158566D01*
X121287000Y-105651560D01*
X120573800Y-105651560D01*
X120338483Y-105695838D01*
X120122359Y-105834910D01*
X119977369Y-106047110D01*
X119969000Y-106088439D01*
X119957070Y-106070585D01*
X119470889Y-105745729D01*
X118997000Y-105651467D01*
X118997000Y-102032490D01*
X121208800Y-102032490D01*
X121208800Y-102203250D01*
X121367550Y-102362000D01*
X121856760Y-102362000D01*
X121856760Y-102616000D01*
X121367550Y-102616000D01*
X121208800Y-102774750D01*
X121208800Y-102945510D01*
X121305473Y-103178899D01*
X121484102Y-103357527D01*
X121717491Y-103454200D01*
X121786650Y-103454200D01*
X121945400Y-103295450D01*
X121945400Y-103123457D01*
X122040110Y-103270641D01*
X122252310Y-103415631D01*
X122272963Y-103419813D01*
X122307350Y-103454200D01*
X122376509Y-103454200D01*
X122398266Y-103445188D01*
X122504200Y-103466640D01*
X122910600Y-103466640D01*
X123042262Y-103441866D01*
X123164600Y-103466640D01*
X123571000Y-103466640D01*
X123806317Y-103422362D01*
X124022441Y-103283290D01*
X124167431Y-103071090D01*
X124218440Y-102819200D01*
X124218440Y-102158800D01*
X124174162Y-101923483D01*
X124035090Y-101707359D01*
X124023734Y-101699600D01*
X140157200Y-101699600D01*
X140448039Y-101641748D01*
X140694601Y-101477001D01*
X141355001Y-100816601D01*
X141519748Y-100570039D01*
X141577600Y-100279200D01*
X141577600Y-96926400D01*
X141519748Y-96635561D01*
X141519748Y-96635560D01*
X141355001Y-96388999D01*
X139018201Y-94052199D01*
X138771639Y-93887452D01*
X138490702Y-93831570D01*
X138119553Y-93459773D01*
X137781754Y-93319506D01*
X138117580Y-93180746D01*
X138493027Y-92805953D01*
X138696468Y-92316013D01*
X138696931Y-91785514D01*
X138494346Y-91295220D01*
X138119553Y-90919773D01*
X137781754Y-90779506D01*
X138117580Y-90640746D01*
X138493027Y-90265953D01*
X138696468Y-89776013D01*
X138696931Y-89245514D01*
X138494346Y-88755220D01*
X138119553Y-88379773D01*
X137781754Y-88239506D01*
X138117580Y-88100746D01*
X138493027Y-87725953D01*
X138696468Y-87236013D01*
X138696931Y-86705514D01*
X138494346Y-86215220D01*
X138119553Y-85839773D01*
X137781754Y-85699506D01*
X138117580Y-85560746D01*
X138493027Y-85185953D01*
X138696468Y-84696013D01*
X138696931Y-84165514D01*
X138494346Y-83675220D01*
X138119553Y-83299773D01*
X137781754Y-83159506D01*
X138117580Y-83020746D01*
X138493027Y-82645953D01*
X138696468Y-82156013D01*
X138696931Y-81625514D01*
X138494346Y-81135220D01*
X138119553Y-80759773D01*
X137781754Y-80619506D01*
X138117580Y-80480746D01*
X138493027Y-80105953D01*
X138696468Y-79616013D01*
X138696931Y-79085514D01*
X138494346Y-78595220D01*
X138119553Y-78219773D01*
X137781754Y-78079506D01*
X138117580Y-77940746D01*
X138493027Y-77565953D01*
X138696468Y-77076013D01*
X138696931Y-76545514D01*
X138494346Y-76055220D01*
X138119553Y-75679773D01*
X137798082Y-75546286D01*
X138056129Y-75439400D01*
X138117783Y-75203788D01*
X137363200Y-74449205D01*
X136608617Y-75203788D01*
X136670271Y-75439400D01*
X136949512Y-75537683D01*
X136608820Y-75678454D01*
X136233373Y-76053247D01*
X136029932Y-76543187D01*
X136029469Y-77073686D01*
X136232054Y-77563980D01*
X136606847Y-77939427D01*
X136944646Y-78079694D01*
X136608820Y-78218454D01*
X136233373Y-78593247D01*
X136029932Y-79083187D01*
X136029469Y-79613686D01*
X136232054Y-80103980D01*
X136606847Y-80479427D01*
X136944646Y-80619694D01*
X136608820Y-80758454D01*
X136233373Y-81133247D01*
X136029932Y-81623187D01*
X136029469Y-82153686D01*
X136232054Y-82643980D01*
X136606847Y-83019427D01*
X136944646Y-83159694D01*
X136608820Y-83298454D01*
X136233373Y-83673247D01*
X136029932Y-84163187D01*
X136029469Y-84693686D01*
X136232054Y-85183980D01*
X136606847Y-85559427D01*
X136944646Y-85699694D01*
X136608820Y-85838454D01*
X136233373Y-86213247D01*
X136029932Y-86703187D01*
X136029469Y-87233686D01*
X136232054Y-87723980D01*
X136606847Y-88099427D01*
X136944646Y-88239694D01*
X136608820Y-88378454D01*
X136233373Y-88753247D01*
X136029932Y-89243187D01*
X136029469Y-89773686D01*
X136232054Y-90263980D01*
X136606847Y-90639427D01*
X136944646Y-90779694D01*
X136608820Y-90918454D01*
X136233373Y-91293247D01*
X136029932Y-91783187D01*
X136029469Y-92313686D01*
X136232054Y-92803980D01*
X136606847Y-93179427D01*
X136944646Y-93319694D01*
X136608820Y-93458454D01*
X136233373Y-93833247D01*
X136029932Y-94323187D01*
X136029469Y-94853686D01*
X136232054Y-95343980D01*
X136606847Y-95719427D01*
X136944646Y-95859694D01*
X136608820Y-95998454D01*
X136233373Y-96373247D01*
X136029932Y-96863187D01*
X136029469Y-97393686D01*
X136232054Y-97883980D01*
X136606847Y-98259427D01*
X137096787Y-98462868D01*
X137627286Y-98463331D01*
X138117580Y-98260746D01*
X138493027Y-97885953D01*
X138696468Y-97396013D01*
X138696931Y-96865514D01*
X138494346Y-96375220D01*
X138119553Y-95999773D01*
X137781754Y-95859506D01*
X138117580Y-95720746D01*
X138327545Y-95511147D01*
X140057600Y-97241202D01*
X140057600Y-99964398D01*
X139842398Y-100179600D01*
X123037600Y-100179600D01*
X122746760Y-100237452D01*
X122500199Y-100402199D01*
X122169999Y-100732399D01*
X122005252Y-100978961D01*
X121947400Y-101269800D01*
X121947400Y-101523800D01*
X121919998Y-101523800D01*
X121919998Y-101657148D01*
X121786650Y-101523800D01*
X121717491Y-101523800D01*
X121484102Y-101620473D01*
X121305473Y-101799101D01*
X121208800Y-102032490D01*
X118997000Y-102032490D01*
X118997000Y-101900087D01*
X119082567Y-101900162D01*
X119426343Y-101758117D01*
X119689592Y-101495327D01*
X119832238Y-101151799D01*
X119832279Y-101104923D01*
X120095201Y-100842001D01*
X120259948Y-100595439D01*
X120317800Y-100304600D01*
X120317800Y-100081092D01*
X120357431Y-100023090D01*
X120408440Y-99771200D01*
X120408440Y-99110800D01*
X120364162Y-98875483D01*
X120225090Y-98659359D01*
X120012890Y-98514369D01*
X119761000Y-98463360D01*
X119354600Y-98463360D01*
X119119283Y-98507638D01*
X118903159Y-98646710D01*
X118897627Y-98654806D01*
X118692090Y-98514369D01*
X118440200Y-98463360D01*
X118033800Y-98463360D01*
X117798483Y-98507638D01*
X117582359Y-98646710D01*
X117437369Y-98858910D01*
X117386360Y-99110800D01*
X117386360Y-99771200D01*
X117430638Y-100006517D01*
X117477000Y-100078566D01*
X117477000Y-106160277D01*
X117417070Y-106070585D01*
X116930889Y-105745729D01*
X116357400Y-105631655D01*
X115783911Y-105745729D01*
X115297730Y-106070585D01*
X115087400Y-106385366D01*
X114877070Y-106070585D01*
X114390889Y-105745729D01*
X113817400Y-105631655D01*
X113243911Y-105745729D01*
X112757730Y-106070585D01*
X112432874Y-106556766D01*
X112318800Y-107130255D01*
X105181400Y-107130255D01*
X105181400Y-101613834D01*
X106736943Y-101613834D01*
X107137253Y-102582658D01*
X107877843Y-103324542D01*
X108845967Y-103726542D01*
X109894234Y-103727457D01*
X110863058Y-103327147D01*
X111604942Y-102586557D01*
X112006942Y-101618433D01*
X112007857Y-100570166D01*
X111607547Y-99601342D01*
X110866957Y-98859458D01*
X109898833Y-98457458D01*
X108850566Y-98456543D01*
X107881742Y-98856853D01*
X107139858Y-99597443D01*
X106737858Y-100565567D01*
X106736943Y-101613834D01*
X105181400Y-101613834D01*
X105181400Y-89185750D01*
X111245000Y-89185750D01*
X111245000Y-89401310D01*
X111341673Y-89634699D01*
X111520302Y-89813327D01*
X111753691Y-89910000D01*
X111994250Y-89910000D01*
X112153000Y-89751250D01*
X112153000Y-89027000D01*
X111403750Y-89027000D01*
X111245000Y-89185750D01*
X105181400Y-89185750D01*
X105181400Y-88398690D01*
X111245000Y-88398690D01*
X111245000Y-88614250D01*
X111403750Y-88773000D01*
X112153000Y-88773000D01*
X112153000Y-88048750D01*
X111994250Y-87890000D01*
X111753691Y-87890000D01*
X111520302Y-87986673D01*
X111341673Y-88165301D01*
X111245000Y-88398690D01*
X105181400Y-88398690D01*
X105181400Y-83904029D01*
X105352632Y-84252763D01*
X105693322Y-84540002D01*
X106118000Y-84675000D01*
X106393000Y-84675000D01*
X106393000Y-83667000D01*
X106647000Y-83667000D01*
X106647000Y-84675000D01*
X106922000Y-84675000D01*
X107346678Y-84540002D01*
X107687368Y-84252763D01*
X107759552Y-84105750D01*
X111245000Y-84105750D01*
X111245000Y-84321310D01*
X111341673Y-84554699D01*
X111520302Y-84733327D01*
X111753691Y-84830000D01*
X111994250Y-84830000D01*
X112153000Y-84671250D01*
X112153000Y-83947000D01*
X111403750Y-83947000D01*
X111245000Y-84105750D01*
X107759552Y-84105750D01*
X107889119Y-83841874D01*
X107762954Y-83667000D01*
X106647000Y-83667000D01*
X106393000Y-83667000D01*
X106373000Y-83667000D01*
X106373000Y-83413000D01*
X106393000Y-83413000D01*
X106393000Y-82405000D01*
X106647000Y-82405000D01*
X106647000Y-83413000D01*
X107762954Y-83413000D01*
X107889119Y-83238126D01*
X107694191Y-82841131D01*
X108118771Y-82841131D01*
X108260432Y-83251049D01*
X108548179Y-83575552D01*
X108922062Y-83759268D01*
X109093000Y-83632734D01*
X109093000Y-82667000D01*
X109347000Y-82667000D01*
X109347000Y-83632734D01*
X109517938Y-83759268D01*
X109891821Y-83575552D01*
X110119588Y-83318690D01*
X111245000Y-83318690D01*
X111245000Y-83534250D01*
X111403750Y-83693000D01*
X112153000Y-83693000D01*
X112153000Y-82968750D01*
X111994250Y-82810000D01*
X111753691Y-82810000D01*
X111520302Y-82906673D01*
X111341673Y-83085301D01*
X111245000Y-83318690D01*
X110119588Y-83318690D01*
X110179568Y-83251049D01*
X110321229Y-82841131D01*
X110172563Y-82667000D01*
X109347000Y-82667000D01*
X109093000Y-82667000D01*
X108267437Y-82667000D01*
X108118771Y-82841131D01*
X107694191Y-82841131D01*
X107687368Y-82827237D01*
X107346678Y-82539998D01*
X106922000Y-82405000D01*
X106647000Y-82405000D01*
X106393000Y-82405000D01*
X106118000Y-82405000D01*
X105693322Y-82539998D01*
X105352632Y-82827237D01*
X105181400Y-83175971D01*
X105181400Y-78540000D01*
X107897560Y-78540000D01*
X107897560Y-78940000D01*
X107921944Y-79069589D01*
X107897560Y-79190000D01*
X107897560Y-79590000D01*
X107921944Y-79719589D01*
X107897560Y-79840000D01*
X107897560Y-80240000D01*
X107921944Y-80369589D01*
X107897560Y-80490000D01*
X107897560Y-80890000D01*
X107917450Y-80995705D01*
X107910000Y-81013690D01*
X107910000Y-81081250D01*
X107939004Y-81110254D01*
X107941838Y-81125317D01*
X108080910Y-81341441D01*
X108225156Y-81440000D01*
X108068750Y-81440000D01*
X107910000Y-81598750D01*
X107910000Y-81666310D01*
X108006673Y-81899699D01*
X108177090Y-82070115D01*
X108118771Y-82238869D01*
X108267437Y-82413000D01*
X109093000Y-82413000D01*
X109093000Y-82393000D01*
X109347000Y-82393000D01*
X109347000Y-82413000D01*
X110172563Y-82413000D01*
X110321229Y-82238869D01*
X110262910Y-82070115D01*
X110433327Y-81899699D01*
X110530000Y-81666310D01*
X110530000Y-81598750D01*
X110371250Y-81440000D01*
X110212933Y-81440000D01*
X110346441Y-81354090D01*
X110491431Y-81141890D01*
X110497035Y-81114215D01*
X110530000Y-81081250D01*
X110530000Y-81013690D01*
X110521532Y-80993247D01*
X110542440Y-80890000D01*
X110542440Y-80800000D01*
X114015198Y-80800000D01*
X115032599Y-81817401D01*
X115260980Y-81970000D01*
X114870000Y-81970000D01*
X114579161Y-82027852D01*
X114332599Y-82192599D01*
X113727638Y-82797560D01*
X113380000Y-82797560D01*
X113144683Y-82841838D01*
X113041354Y-82908329D01*
X113039698Y-82906673D01*
X112806309Y-82810000D01*
X112565750Y-82810000D01*
X112407000Y-82968750D01*
X112407000Y-83693000D01*
X112427000Y-83693000D01*
X112427000Y-83947000D01*
X112407000Y-83947000D01*
X112407000Y-84671250D01*
X112565750Y-84830000D01*
X112806309Y-84830000D01*
X113039698Y-84733327D01*
X113041068Y-84731957D01*
X113128110Y-84791431D01*
X113380000Y-84842440D01*
X113727638Y-84842440D01*
X115782599Y-86897401D01*
X116010979Y-87050000D01*
X114870000Y-87050000D01*
X114579161Y-87107852D01*
X114332599Y-87272599D01*
X113727638Y-87877560D01*
X113380000Y-87877560D01*
X113144683Y-87921838D01*
X113041354Y-87988329D01*
X113039698Y-87986673D01*
X112806309Y-87890000D01*
X112565750Y-87890000D01*
X112407000Y-88048750D01*
X112407000Y-88773000D01*
X112427000Y-88773000D01*
X112427000Y-89027000D01*
X112407000Y-89027000D01*
X112407000Y-89751250D01*
X112565750Y-89910000D01*
X112806309Y-89910000D01*
X113039698Y-89813327D01*
X113041068Y-89811957D01*
X113128110Y-89871431D01*
X113380000Y-89922440D01*
X114180000Y-89922440D01*
X114415317Y-89878162D01*
X114631441Y-89739090D01*
X114776431Y-89526890D01*
X114827440Y-89275000D01*
X114827440Y-88927362D01*
X115184802Y-88570000D01*
X116704895Y-88570000D01*
X116795910Y-88711441D01*
X117008110Y-88856431D01*
X117257413Y-88906916D01*
X117204683Y-88916838D01*
X116988559Y-89055910D01*
X116843569Y-89268110D01*
X116840919Y-89281197D01*
X116704090Y-89068559D01*
X116491890Y-88923569D01*
X116240000Y-88872560D01*
X115540000Y-88872560D01*
X115304683Y-88916838D01*
X115088559Y-89055910D01*
X114943569Y-89268110D01*
X114892560Y-89520000D01*
X114892560Y-89522183D01*
X114867852Y-89559161D01*
X114810000Y-89850000D01*
X114810862Y-89854336D01*
X114160320Y-90504878D01*
X114114833Y-90504838D01*
X113771057Y-90646883D01*
X113507808Y-90909673D01*
X113365162Y-91253201D01*
X113364838Y-91625167D01*
X113506883Y-91968943D01*
X113769673Y-92232192D01*
X114113201Y-92374838D01*
X114485167Y-92375162D01*
X114828943Y-92233117D01*
X115092192Y-91970327D01*
X115234838Y-91626799D01*
X115234879Y-91579923D01*
X115379803Y-91434999D01*
X115540000Y-91467440D01*
X116240000Y-91467440D01*
X116475317Y-91423162D01*
X116691441Y-91284090D01*
X116836431Y-91071890D01*
X116839081Y-91058803D01*
X116975910Y-91271441D01*
X117188110Y-91416431D01*
X117440000Y-91467440D01*
X118140000Y-91467440D01*
X118375317Y-91423162D01*
X118591441Y-91284090D01*
X118736431Y-91071890D01*
X118765164Y-90930000D01*
X118993156Y-90930000D01*
X119035910Y-90996441D01*
X119248110Y-91141431D01*
X119500000Y-91192440D01*
X120300000Y-91192440D01*
X120535317Y-91148162D01*
X120638646Y-91081671D01*
X120640302Y-91083327D01*
X120873691Y-91180000D01*
X121114250Y-91180000D01*
X121273000Y-91021250D01*
X121273000Y-90297000D01*
X121527000Y-90297000D01*
X121527000Y-91021250D01*
X121685750Y-91180000D01*
X121926309Y-91180000D01*
X122159698Y-91083327D01*
X122338327Y-90904699D01*
X122435000Y-90671310D01*
X122435000Y-90455750D01*
X122276250Y-90297000D01*
X121527000Y-90297000D01*
X121273000Y-90297000D01*
X121253000Y-90297000D01*
X121253000Y-90043000D01*
X121273000Y-90043000D01*
X121273000Y-90023000D01*
X121527000Y-90023000D01*
X121527000Y-90043000D01*
X122276250Y-90043000D01*
X122435000Y-89884250D01*
X122435000Y-89668690D01*
X122338327Y-89435301D01*
X122159698Y-89256673D01*
X121926309Y-89160000D01*
X121685750Y-89160000D01*
X121527002Y-89318748D01*
X121527002Y-89160000D01*
X121464802Y-89160000D01*
X122431341Y-88193461D01*
X122659673Y-88422192D01*
X122950000Y-88542747D01*
X122950000Y-89272069D01*
X122858559Y-89330910D01*
X122713569Y-89543110D01*
X122662560Y-89795000D01*
X122662560Y-90545000D01*
X122706838Y-90780317D01*
X122845910Y-90996441D01*
X123058110Y-91141431D01*
X123310000Y-91192440D01*
X124110000Y-91192440D01*
X124345317Y-91148162D01*
X124448646Y-91081671D01*
X124450302Y-91083327D01*
X124683691Y-91180000D01*
X124924250Y-91180000D01*
X125083000Y-91021250D01*
X125083000Y-90297000D01*
X125337000Y-90297000D01*
X125337000Y-91021250D01*
X125495750Y-91180000D01*
X125736309Y-91180000D01*
X125969698Y-91083327D01*
X126148327Y-90904699D01*
X126245000Y-90671310D01*
X126245000Y-90455750D01*
X126086250Y-90297000D01*
X125337000Y-90297000D01*
X125083000Y-90297000D01*
X125063000Y-90297000D01*
X125063000Y-90043000D01*
X125083000Y-90043000D01*
X125083000Y-89318750D01*
X125337000Y-89318750D01*
X125337000Y-90043000D01*
X126086250Y-90043000D01*
X126245000Y-89884250D01*
X126245000Y-89668690D01*
X126148327Y-89435301D01*
X125969698Y-89256673D01*
X125736309Y-89160000D01*
X125495750Y-89160000D01*
X125337000Y-89318750D01*
X125083000Y-89318750D01*
X124924250Y-89160000D01*
X124683691Y-89160000D01*
X124470000Y-89248514D01*
X124470000Y-88694802D01*
X124599680Y-88565122D01*
X124645167Y-88565162D01*
X124988943Y-88423117D01*
X125252192Y-88160327D01*
X125394838Y-87816799D01*
X125394978Y-87656477D01*
X125445000Y-87405000D01*
X125445000Y-86214402D01*
X125460000Y-86217440D01*
X125710000Y-86217440D01*
X125945317Y-86173162D01*
X126161441Y-86034090D01*
X126306431Y-85821890D01*
X126357440Y-85570000D01*
X126357440Y-84870000D01*
X126313162Y-84634683D01*
X126285000Y-84590918D01*
X126285000Y-84520750D01*
X126126250Y-84362000D01*
X126091313Y-84362000D01*
X126040646Y-84327380D01*
X126188327Y-84179698D01*
X126282920Y-83951330D01*
X126285000Y-83949250D01*
X126285000Y-83690750D01*
X126282920Y-83688670D01*
X126188327Y-83460302D01*
X126040159Y-83312133D01*
X126093203Y-83278000D01*
X126126250Y-83278000D01*
X126285000Y-83119250D01*
X126285000Y-83053255D01*
X126306431Y-83021890D01*
X126357440Y-82770000D01*
X126357440Y-82070000D01*
X126345000Y-82003887D01*
X126345000Y-80317402D01*
X126552802Y-80109600D01*
X128617664Y-80109600D01*
X128986847Y-80479427D01*
X129324646Y-80619694D01*
X128988820Y-80758454D01*
X128617026Y-81129600D01*
X128233337Y-81129600D01*
X128097917Y-80801857D01*
X127835127Y-80538608D01*
X127491599Y-80395962D01*
X127119633Y-80395638D01*
X126775857Y-80537683D01*
X126512608Y-80800473D01*
X126369962Y-81144001D01*
X126369638Y-81515967D01*
X126511683Y-81859743D01*
X126774473Y-82122992D01*
X127118001Y-82265638D01*
X127164877Y-82265679D01*
X127326199Y-82427001D01*
X127572761Y-82591748D01*
X127863600Y-82649600D01*
X128617664Y-82649600D01*
X128986847Y-83019427D01*
X129324646Y-83159694D01*
X128988820Y-83298454D01*
X128613373Y-83673247D01*
X128409932Y-84163187D01*
X128409469Y-84693686D01*
X128612054Y-85183980D01*
X128986847Y-85559427D01*
X129324646Y-85699694D01*
X128988820Y-85838454D01*
X128613373Y-86213247D01*
X128409932Y-86703187D01*
X128409469Y-87233686D01*
X128612054Y-87723980D01*
X128986847Y-88099427D01*
X129324646Y-88239694D01*
X128988820Y-88378454D01*
X128613373Y-88753247D01*
X128409932Y-89243187D01*
X128409469Y-89773686D01*
X128612054Y-90263980D01*
X128986847Y-90639427D01*
X129324646Y-90779694D01*
X128988820Y-90918454D01*
X128613373Y-91293247D01*
X128409932Y-91783187D01*
X128409469Y-92313686D01*
X128612054Y-92803980D01*
X128986847Y-93179427D01*
X129324646Y-93319694D01*
X128988820Y-93458454D01*
X128617026Y-93829600D01*
X119938800Y-93829600D01*
X119647961Y-93887452D01*
X119401399Y-94052199D01*
X118359999Y-95093599D01*
X118195252Y-95340161D01*
X118137400Y-95631000D01*
X118137400Y-96443800D01*
X118109998Y-96443800D01*
X118109998Y-96577148D01*
X117976650Y-96443800D01*
X117907491Y-96443800D01*
X117674102Y-96540473D01*
X117495473Y-96719101D01*
X117398800Y-96952490D01*
X117398800Y-97123250D01*
X117557550Y-97282000D01*
X118046760Y-97282000D01*
X118046760Y-97536000D01*
X117557550Y-97536000D01*
X117398800Y-97694750D01*
X117398800Y-97865510D01*
X117495473Y-98098899D01*
X117674102Y-98277527D01*
X117907491Y-98374200D01*
X117976650Y-98374200D01*
X118135400Y-98215450D01*
X118135400Y-98043457D01*
X118230110Y-98190641D01*
X118442310Y-98335631D01*
X118462963Y-98339813D01*
X118497350Y-98374200D01*
X118566509Y-98374200D01*
X118588266Y-98365188D01*
X118694200Y-98386640D01*
X119100600Y-98386640D01*
X119232262Y-98361866D01*
X119354600Y-98386640D01*
X119761000Y-98386640D01*
X119996317Y-98342362D01*
X120212441Y-98203290D01*
X120357431Y-97991090D01*
X120408440Y-97739200D01*
X120408440Y-97078800D01*
X120364162Y-96843483D01*
X120225090Y-96627359D01*
X120012890Y-96482369D01*
X119761000Y-96431360D01*
X119657400Y-96431360D01*
X119657400Y-95945802D01*
X120253602Y-95349600D01*
X128617664Y-95349600D01*
X128986847Y-95719427D01*
X129324646Y-95859694D01*
X128988820Y-95998454D01*
X128613373Y-96373247D01*
X128409932Y-96863187D01*
X128409469Y-97393686D01*
X128612054Y-97883980D01*
X128986847Y-98259427D01*
X129476787Y-98462868D01*
X130007286Y-98463331D01*
X130497580Y-98260746D01*
X130873027Y-97885953D01*
X131076468Y-97396013D01*
X131076931Y-96865514D01*
X130874346Y-96375220D01*
X130499553Y-95999773D01*
X130161754Y-95859506D01*
X130497580Y-95720746D01*
X130873027Y-95345953D01*
X131076468Y-94856013D01*
X131076931Y-94325514D01*
X130874346Y-93835220D01*
X130499553Y-93459773D01*
X130161754Y-93319506D01*
X130497580Y-93180746D01*
X130873027Y-92805953D01*
X131076468Y-92316013D01*
X131076931Y-91785514D01*
X130874346Y-91295220D01*
X130499553Y-90919773D01*
X130161754Y-90779506D01*
X130497580Y-90640746D01*
X130873027Y-90265953D01*
X131076468Y-89776013D01*
X131076931Y-89245514D01*
X130874346Y-88755220D01*
X130499553Y-88379773D01*
X130161754Y-88239506D01*
X130497580Y-88100746D01*
X130873027Y-87725953D01*
X131076468Y-87236013D01*
X131076931Y-86705514D01*
X130874346Y-86215220D01*
X130499553Y-85839773D01*
X130161754Y-85699506D01*
X130497580Y-85560746D01*
X130873027Y-85185953D01*
X131076468Y-84696013D01*
X131076931Y-84165514D01*
X130874346Y-83675220D01*
X130499553Y-83299773D01*
X130161754Y-83159506D01*
X130497580Y-83020746D01*
X130873027Y-82645953D01*
X131076468Y-82156013D01*
X131076931Y-81625514D01*
X130874346Y-81135220D01*
X130499553Y-80759773D01*
X130161754Y-80619506D01*
X130497580Y-80480746D01*
X130873027Y-80105953D01*
X131076468Y-79616013D01*
X131076931Y-79085514D01*
X130874346Y-78595220D01*
X130499553Y-78219773D01*
X130161754Y-78079506D01*
X130497580Y-77940746D01*
X130873027Y-77565953D01*
X131076468Y-77076013D01*
X131076931Y-76545514D01*
X130874346Y-76055220D01*
X130545245Y-75725545D01*
X130724080Y-75691895D01*
X130983429Y-75525008D01*
X131157417Y-75270369D01*
X131218628Y-74968100D01*
X131218628Y-74077080D01*
X136017273Y-74077080D01*
X136046052Y-74606799D01*
X136193400Y-74962529D01*
X136429012Y-75024183D01*
X137183595Y-74269600D01*
X137542805Y-74269600D01*
X138297388Y-75024183D01*
X138533000Y-74962529D01*
X138709127Y-74462120D01*
X138680348Y-73932401D01*
X138533000Y-73576671D01*
X138297388Y-73515017D01*
X137542805Y-74269600D01*
X137183595Y-74269600D01*
X136429012Y-73515017D01*
X136193400Y-73576671D01*
X136017273Y-74077080D01*
X131218628Y-74077080D01*
X131218628Y-73571100D01*
X131174281Y-73335412D01*
X136608617Y-73335412D01*
X137363200Y-74089995D01*
X138117783Y-73335412D01*
X138056129Y-73099800D01*
X137555720Y-72923673D01*
X137026001Y-72952452D01*
X136670271Y-73099800D01*
X136608617Y-73335412D01*
X131174281Y-73335412D01*
X131165495Y-73288720D01*
X130998608Y-73029371D01*
X130743969Y-72855383D01*
X130441700Y-72794172D01*
X129044700Y-72794172D01*
X128762320Y-72847305D01*
X128502971Y-73014192D01*
X128328983Y-73268831D01*
X128267772Y-73571100D01*
X128267772Y-74218384D01*
X128060856Y-74425300D01*
X121509205Y-74425300D01*
X121515000Y-74411310D01*
X121515000Y-73945750D01*
X121356250Y-73787000D01*
X120507000Y-73787000D01*
X120507000Y-73807000D01*
X120253000Y-73807000D01*
X120253000Y-73787000D01*
X120233000Y-73787000D01*
X120233000Y-73533000D01*
X120253000Y-73533000D01*
X120253000Y-72558750D01*
X120094250Y-72400000D01*
X119753691Y-72400000D01*
X119520302Y-72496673D01*
X119470892Y-72546083D01*
X119436908Y-72493271D01*
X119182269Y-72319283D01*
X119149500Y-72312647D01*
X119149500Y-71713386D01*
X119221729Y-71666908D01*
X119395717Y-71412269D01*
X119444297Y-71172375D01*
X119476838Y-71345317D01*
X119615910Y-71561441D01*
X119828110Y-71706431D01*
X119947752Y-71730659D01*
X120016481Y-71833519D01*
X120624356Y-72441394D01*
X120507000Y-72558750D01*
X120507000Y-73533000D01*
X121356250Y-73533000D01*
X121515000Y-73374250D01*
X121515000Y-73242938D01*
X121555494Y-73269995D01*
X121643083Y-73287418D01*
X121733201Y-73324838D01*
X121831638Y-73324924D01*
X121920000Y-73342500D01*
X122007591Y-73325077D01*
X122105167Y-73325162D01*
X122196143Y-73287572D01*
X122284506Y-73269995D01*
X122358761Y-73220379D01*
X122448943Y-73183117D01*
X122518610Y-73113572D01*
X122593519Y-73063519D01*
X122643135Y-72989264D01*
X122712192Y-72920327D01*
X122749942Y-72829416D01*
X122799995Y-72754506D01*
X122817418Y-72666917D01*
X122854838Y-72576799D01*
X122854924Y-72478362D01*
X122872500Y-72390000D01*
X122855077Y-72302409D01*
X122855162Y-72204833D01*
X122817572Y-72113857D01*
X122799995Y-72025494D01*
X122750379Y-71951239D01*
X122713117Y-71861057D01*
X122643572Y-71791390D01*
X122593519Y-71716481D01*
X122012788Y-71135750D01*
X124470000Y-71135750D01*
X124470000Y-71476309D01*
X124566673Y-71709698D01*
X124745301Y-71888327D01*
X124978690Y-71985000D01*
X125444250Y-71985000D01*
X125603000Y-71826250D01*
X125603000Y-70977000D01*
X125857000Y-70977000D01*
X125857000Y-71826250D01*
X126015750Y-71985000D01*
X126481310Y-71985000D01*
X126714699Y-71888327D01*
X126893327Y-71709698D01*
X126990000Y-71476309D01*
X126990000Y-71135750D01*
X126831250Y-70977000D01*
X125857000Y-70977000D01*
X125603000Y-70977000D01*
X124628750Y-70977000D01*
X124470000Y-71135750D01*
X122012788Y-71135750D01*
X121947440Y-71070402D01*
X121947440Y-70490000D01*
X121917199Y-70329284D01*
X121935000Y-70286309D01*
X121935000Y-70135750D01*
X121776250Y-69977000D01*
X121673995Y-69977000D01*
X121551890Y-69893569D01*
X121338089Y-69850273D01*
X121535317Y-69813162D01*
X121675433Y-69723000D01*
X121776250Y-69723000D01*
X121935000Y-69564250D01*
X121935000Y-69413691D01*
X121915651Y-69366979D01*
X121947440Y-69210000D01*
X121947440Y-68684478D01*
X122786481Y-69523519D01*
X123095494Y-69729995D01*
X123460000Y-69802500D01*
X124642460Y-69802500D01*
X124709006Y-69847969D01*
X124566673Y-69990302D01*
X124470000Y-70223691D01*
X124470000Y-70564250D01*
X124628750Y-70723000D01*
X125603000Y-70723000D01*
X125603000Y-70703000D01*
X125857000Y-70703000D01*
X125857000Y-70723000D01*
X126831250Y-70723000D01*
X126990000Y-70564250D01*
X126990000Y-70223691D01*
X126893327Y-69990302D01*
X126752090Y-69849064D01*
X126806441Y-69814090D01*
X126951431Y-69601890D01*
X127002440Y-69350000D01*
X127002440Y-68350000D01*
X126958162Y-68114683D01*
X126819090Y-67898559D01*
X126606890Y-67753569D01*
X126355000Y-67702560D01*
X125105000Y-67702560D01*
X124869683Y-67746838D01*
X124653559Y-67885910D01*
X124645640Y-67897500D01*
X123854538Y-67897500D01*
X122872500Y-66915462D01*
X122872500Y-63564634D01*
X136404143Y-63564634D01*
X136804453Y-64533458D01*
X137545043Y-65275342D01*
X138513167Y-65677342D01*
X139561434Y-65678257D01*
X140530258Y-65277947D01*
X141272142Y-64537357D01*
X141674142Y-63569233D01*
X141675057Y-62520966D01*
X141274747Y-61552142D01*
X140534157Y-60810258D01*
X139566033Y-60408258D01*
X138517766Y-60407343D01*
X137548942Y-60807653D01*
X136807058Y-61548243D01*
X136405058Y-62516367D01*
X136404143Y-63564634D01*
X122872500Y-63564634D01*
X122872500Y-62230000D01*
X122799995Y-61865494D01*
X122593519Y-61556481D01*
X121323519Y-60286481D01*
X121014506Y-60080005D01*
X120650000Y-60007500D01*
X115570000Y-60007500D01*
X115205494Y-60080005D01*
X114896481Y-60286481D01*
X112652163Y-62530799D01*
X112445687Y-62839812D01*
X112373182Y-63204318D01*
X112373182Y-75975682D01*
X112445687Y-76340188D01*
X112592721Y-76560241D01*
X111365462Y-77787500D01*
X110490000Y-77787500D01*
X110306589Y-77823983D01*
X110172563Y-77667000D01*
X109347000Y-77667000D01*
X109347000Y-77687000D01*
X109093000Y-77687000D01*
X109093000Y-77667000D01*
X108267437Y-77667000D01*
X108118771Y-77841131D01*
X108180560Y-78019926D01*
X108093559Y-78075910D01*
X107948569Y-78288110D01*
X107897560Y-78540000D01*
X105181400Y-78540000D01*
X105181400Y-76904029D01*
X105352632Y-77252763D01*
X105693322Y-77540002D01*
X106118000Y-77675000D01*
X106393000Y-77675000D01*
X106393000Y-76667000D01*
X106647000Y-76667000D01*
X106647000Y-77675000D01*
X106922000Y-77675000D01*
X107346678Y-77540002D01*
X107687368Y-77252763D01*
X107694190Y-77238869D01*
X108118771Y-77238869D01*
X108267437Y-77413000D01*
X109093000Y-77413000D01*
X109093000Y-76447266D01*
X109347000Y-76447266D01*
X109347000Y-77413000D01*
X110172563Y-77413000D01*
X110321229Y-77238869D01*
X110179568Y-76828951D01*
X109891821Y-76504448D01*
X109517938Y-76320732D01*
X109347000Y-76447266D01*
X109093000Y-76447266D01*
X108922062Y-76320732D01*
X108548179Y-76504448D01*
X108260432Y-76828951D01*
X108118771Y-77238869D01*
X107694190Y-77238869D01*
X107889119Y-76841874D01*
X107762954Y-76667000D01*
X106647000Y-76667000D01*
X106393000Y-76667000D01*
X106373000Y-76667000D01*
X106373000Y-76413000D01*
X106393000Y-76413000D01*
X106393000Y-75405000D01*
X106647000Y-75405000D01*
X106647000Y-76413000D01*
X107762954Y-76413000D01*
X107889119Y-76238126D01*
X107687368Y-75827237D01*
X107346678Y-75539998D01*
X106922000Y-75405000D01*
X106647000Y-75405000D01*
X106393000Y-75405000D01*
X106118000Y-75405000D01*
X105693322Y-75539998D01*
X105352632Y-75827237D01*
X105181400Y-76175971D01*
X105181400Y-64275834D01*
X105314543Y-64275834D01*
X105714853Y-65244658D01*
X106455443Y-65986542D01*
X107423567Y-66388542D01*
X108471834Y-66389457D01*
X109440658Y-65989147D01*
X110182542Y-65248557D01*
X110584542Y-64280433D01*
X110585457Y-63232166D01*
X110185147Y-62263342D01*
X109444557Y-61521458D01*
X108476433Y-61119458D01*
X107428166Y-61118543D01*
X106459342Y-61518853D01*
X105717458Y-62259443D01*
X105315458Y-63227567D01*
X105314543Y-64275834D01*
X105181400Y-64275834D01*
X105181400Y-59817176D01*
X141707106Y-59867626D01*
G36*
X120967500Y-62624538D02*
X120967500Y-63510000D01*
X120665750Y-63510000D01*
X120507000Y-63668750D01*
X120507000Y-64643000D01*
X120527000Y-64643000D01*
X120527000Y-64897000D01*
X120507000Y-64897000D01*
X120507000Y-65871250D01*
X120665750Y-66030000D01*
X120967500Y-66030000D01*
X120967500Y-66915462D01*
X120016481Y-67866481D01*
X119949202Y-67967171D01*
X119844683Y-67986838D01*
X119628559Y-68125910D01*
X119483569Y-68338110D01*
X119432560Y-68590000D01*
X119432560Y-69210000D01*
X119462801Y-69370716D01*
X119445000Y-69413691D01*
X119445000Y-69564250D01*
X119603750Y-69723000D01*
X119706005Y-69723000D01*
X119828110Y-69806431D01*
X120041911Y-69849727D01*
X119844683Y-69886838D01*
X119704567Y-69977000D01*
X119603750Y-69977000D01*
X119445000Y-70135750D01*
X119445000Y-70286309D01*
X119464349Y-70333021D01*
X119445191Y-70427625D01*
X119403795Y-70207620D01*
X119236908Y-69948271D01*
X118982269Y-69774283D01*
X118977300Y-69773277D01*
X119131441Y-69674090D01*
X119276431Y-69461890D01*
X119327440Y-69210000D01*
X119327440Y-68590000D01*
X119283162Y-68354683D01*
X119144090Y-68138559D01*
X118931890Y-67993569D01*
X118680000Y-67942560D01*
X117460000Y-67942560D01*
X117224683Y-67986838D01*
X117008559Y-68125910D01*
X116863569Y-68338110D01*
X116812560Y-68590000D01*
X116812560Y-69210000D01*
X116856838Y-69445317D01*
X116995910Y-69661441D01*
X117163003Y-69775611D01*
X117050504Y-69848002D01*
X116649500Y-69848002D01*
X116649500Y-66487144D01*
X117274864Y-65861780D01*
X117323092Y-65936729D01*
X117577731Y-66110717D01*
X117880000Y-66171928D01*
X118880000Y-66171928D01*
X119162380Y-66118795D01*
X119421729Y-65951908D01*
X119469284Y-65882309D01*
X119520302Y-65933327D01*
X119753691Y-66030000D01*
X120094250Y-66030000D01*
X120253000Y-65871250D01*
X120253000Y-64897000D01*
X120233000Y-64897000D01*
X120233000Y-64643000D01*
X120253000Y-64643000D01*
X120253000Y-63668750D01*
X120094250Y-63510000D01*
X119753691Y-63510000D01*
X119520302Y-63606673D01*
X119470892Y-63656083D01*
X119436908Y-63603271D01*
X119182269Y-63429283D01*
X118880000Y-63368072D01*
X117880000Y-63368072D01*
X117597620Y-63421205D01*
X117338271Y-63588092D01*
X117268298Y-63690500D01*
X116840000Y-63690500D01*
X116426893Y-63772672D01*
X116076678Y-64006678D01*
X114806678Y-65276678D01*
X114572672Y-65626893D01*
X114490500Y-66040000D01*
X114490500Y-71120000D01*
X114572672Y-71533107D01*
X114806678Y-71883322D01*
X115156893Y-72117328D01*
X115570000Y-72199500D01*
X115983107Y-72117328D01*
X116148222Y-72007002D01*
X116990500Y-72007002D01*
X116990500Y-73350000D01*
X117068185Y-73740547D01*
X117030500Y-73930000D01*
X117112672Y-74343107D01*
X117114528Y-74345885D01*
X117156205Y-74567380D01*
X117300500Y-74791620D01*
X117300500Y-75504800D01*
X117382672Y-75917907D01*
X117616678Y-76268122D01*
X117966893Y-76502128D01*
X118380000Y-76584300D01*
X128409896Y-76584300D01*
X128409469Y-77073686D01*
X128612054Y-77563980D01*
X128986847Y-77939427D01*
X129324646Y-78079694D01*
X128988820Y-78218454D01*
X128617026Y-78589600D01*
X126238000Y-78589600D01*
X126021153Y-78632734D01*
X125947160Y-78647452D01*
X125700599Y-78812199D01*
X125142526Y-79370272D01*
X124990327Y-79217808D01*
X124646799Y-79075162D01*
X124274833Y-79074838D01*
X123931057Y-79216883D01*
X123739663Y-79407943D01*
X123427599Y-79278362D01*
X123055633Y-79278038D01*
X122711857Y-79420083D01*
X122448608Y-79682873D01*
X122305962Y-80026401D01*
X122305638Y-80398367D01*
X122447683Y-80742143D01*
X122710473Y-81005392D01*
X123054001Y-81148038D01*
X123100877Y-81148079D01*
X123375358Y-81422560D01*
X123210000Y-81422560D01*
X122974683Y-81466838D01*
X122758559Y-81605910D01*
X122721601Y-81660000D01*
X122214780Y-81660000D01*
X122106799Y-81615162D01*
X121734833Y-81614838D01*
X121410000Y-81749056D01*
X121410000Y-81280000D01*
X121352148Y-80989161D01*
X121187401Y-80742599D01*
X120940839Y-80577852D01*
X120650000Y-80520000D01*
X119558839Y-80520000D01*
X119607440Y-80280000D01*
X119607440Y-79380000D01*
X119563162Y-79144683D01*
X119424090Y-78928559D01*
X119211890Y-78783569D01*
X118960000Y-78732560D01*
X117260000Y-78732560D01*
X117024683Y-78776838D01*
X116808559Y-78915910D01*
X116703274Y-79070000D01*
X115704802Y-79070000D01*
X115487401Y-78852599D01*
X115240839Y-78687852D01*
X114950000Y-78630000D01*
X113217038Y-78630000D01*
X114223519Y-77623519D01*
X114429995Y-77314506D01*
X114456048Y-77183528D01*
X114548110Y-77246431D01*
X114800000Y-77297440D01*
X115300000Y-77297440D01*
X115535317Y-77253162D01*
X115543253Y-77248055D01*
X115904878Y-77609680D01*
X115904838Y-77655167D01*
X116046883Y-77998943D01*
X116309673Y-78262192D01*
X116653201Y-78404838D01*
X117025167Y-78405162D01*
X117368943Y-78263117D01*
X117632192Y-78000327D01*
X117774838Y-77656799D01*
X117775162Y-77284833D01*
X117633117Y-76941057D01*
X117370327Y-76677808D01*
X117026799Y-76535162D01*
X116979923Y-76535121D01*
X116107401Y-75662599D01*
X115905626Y-75527778D01*
X115903162Y-75514683D01*
X115764090Y-75298559D01*
X115551890Y-75153569D01*
X115300000Y-75102560D01*
X114800000Y-75102560D01*
X114564683Y-75146838D01*
X114348559Y-75285910D01*
X114300866Y-75355711D01*
X114278182Y-75320459D01*
X114278182Y-63598856D01*
X115964538Y-61912500D01*
X120255462Y-61912500D01*
X120967500Y-62624538D01*
X120967500Y-62624538D01*
G37*
X120967500Y-62624538D02*
X120967500Y-63510000D01*
X120665750Y-63510000D01*
X120507000Y-63668750D01*
X120507000Y-64643000D01*
X120527000Y-64643000D01*
X120527000Y-64897000D01*
X120507000Y-64897000D01*
X120507000Y-65871250D01*
X120665750Y-66030000D01*
X120967500Y-66030000D01*
X120967500Y-66915462D01*
X120016481Y-67866481D01*
X119949202Y-67967171D01*
X119844683Y-67986838D01*
X119628559Y-68125910D01*
X119483569Y-68338110D01*
X119432560Y-68590000D01*
X119432560Y-69210000D01*
X119462801Y-69370716D01*
X119445000Y-69413691D01*
X119445000Y-69564250D01*
X119603750Y-69723000D01*
X119706005Y-69723000D01*
X119828110Y-69806431D01*
X120041911Y-69849727D01*
X119844683Y-69886838D01*
X119704567Y-69977000D01*
X119603750Y-69977000D01*
X119445000Y-70135750D01*
X119445000Y-70286309D01*
X119464349Y-70333021D01*
X119445191Y-70427625D01*
X119403795Y-70207620D01*
X119236908Y-69948271D01*
X118982269Y-69774283D01*
X118977300Y-69773277D01*
X119131441Y-69674090D01*
X119276431Y-69461890D01*
X119327440Y-69210000D01*
X119327440Y-68590000D01*
X119283162Y-68354683D01*
X119144090Y-68138559D01*
X118931890Y-67993569D01*
X118680000Y-67942560D01*
X117460000Y-67942560D01*
X117224683Y-67986838D01*
X117008559Y-68125910D01*
X116863569Y-68338110D01*
X116812560Y-68590000D01*
X116812560Y-69210000D01*
X116856838Y-69445317D01*
X116995910Y-69661441D01*
X117163003Y-69775611D01*
X117050504Y-69848002D01*
X116649500Y-69848002D01*
X116649500Y-66487144D01*
X117274864Y-65861780D01*
X117323092Y-65936729D01*
X117577731Y-66110717D01*
X117880000Y-66171928D01*
X118880000Y-66171928D01*
X119162380Y-66118795D01*
X119421729Y-65951908D01*
X119469284Y-65882309D01*
X119520302Y-65933327D01*
X119753691Y-66030000D01*
X120094250Y-66030000D01*
X120253000Y-65871250D01*
X120253000Y-64897000D01*
X120233000Y-64897000D01*
X120233000Y-64643000D01*
X120253000Y-64643000D01*
X120253000Y-63668750D01*
X120094250Y-63510000D01*
X119753691Y-63510000D01*
X119520302Y-63606673D01*
X119470892Y-63656083D01*
X119436908Y-63603271D01*
X119182269Y-63429283D01*
X118880000Y-63368072D01*
X117880000Y-63368072D01*
X117597620Y-63421205D01*
X117338271Y-63588092D01*
X117268298Y-63690500D01*
X116840000Y-63690500D01*
X116426893Y-63772672D01*
X116076678Y-64006678D01*
X114806678Y-65276678D01*
X114572672Y-65626893D01*
X114490500Y-66040000D01*
X114490500Y-71120000D01*
X114572672Y-71533107D01*
X114806678Y-71883322D01*
X115156893Y-72117328D01*
X115570000Y-72199500D01*
X115983107Y-72117328D01*
X116148222Y-72007002D01*
X116990500Y-72007002D01*
X116990500Y-73350000D01*
X117068185Y-73740547D01*
X117030500Y-73930000D01*
X117112672Y-74343107D01*
X117114528Y-74345885D01*
X117156205Y-74567380D01*
X117300500Y-74791620D01*
X117300500Y-75504800D01*
X117382672Y-75917907D01*
X117616678Y-76268122D01*
X117966893Y-76502128D01*
X118380000Y-76584300D01*
X128409896Y-76584300D01*
X128409469Y-77073686D01*
X128612054Y-77563980D01*
X128986847Y-77939427D01*
X129324646Y-78079694D01*
X128988820Y-78218454D01*
X128617026Y-78589600D01*
X126238000Y-78589600D01*
X126021153Y-78632734D01*
X125947160Y-78647452D01*
X125700599Y-78812199D01*
X125142526Y-79370272D01*
X124990327Y-79217808D01*
X124646799Y-79075162D01*
X124274833Y-79074838D01*
X123931057Y-79216883D01*
X123739663Y-79407943D01*
X123427599Y-79278362D01*
X123055633Y-79278038D01*
X122711857Y-79420083D01*
X122448608Y-79682873D01*
X122305962Y-80026401D01*
X122305638Y-80398367D01*
X122447683Y-80742143D01*
X122710473Y-81005392D01*
X123054001Y-81148038D01*
X123100877Y-81148079D01*
X123375358Y-81422560D01*
X123210000Y-81422560D01*
X122974683Y-81466838D01*
X122758559Y-81605910D01*
X122721601Y-81660000D01*
X122214780Y-81660000D01*
X122106799Y-81615162D01*
X121734833Y-81614838D01*
X121410000Y-81749056D01*
X121410000Y-81280000D01*
X121352148Y-80989161D01*
X121187401Y-80742599D01*
X120940839Y-80577852D01*
X120650000Y-80520000D01*
X119558839Y-80520000D01*
X119607440Y-80280000D01*
X119607440Y-79380000D01*
X119563162Y-79144683D01*
X119424090Y-78928559D01*
X119211890Y-78783569D01*
X118960000Y-78732560D01*
X117260000Y-78732560D01*
X117024683Y-78776838D01*
X116808559Y-78915910D01*
X116703274Y-79070000D01*
X115704802Y-79070000D01*
X115487401Y-78852599D01*
X115240839Y-78687852D01*
X114950000Y-78630000D01*
X113217038Y-78630000D01*
X114223519Y-77623519D01*
X114429995Y-77314506D01*
X114456048Y-77183528D01*
X114548110Y-77246431D01*
X114800000Y-77297440D01*
X115300000Y-77297440D01*
X115535317Y-77253162D01*
X115543253Y-77248055D01*
X115904878Y-77609680D01*
X115904838Y-77655167D01*
X116046883Y-77998943D01*
X116309673Y-78262192D01*
X116653201Y-78404838D01*
X117025167Y-78405162D01*
X117368943Y-78263117D01*
X117632192Y-78000327D01*
X117774838Y-77656799D01*
X117775162Y-77284833D01*
X117633117Y-76941057D01*
X117370327Y-76677808D01*
X117026799Y-76535162D01*
X116979923Y-76535121D01*
X116107401Y-75662599D01*
X115905626Y-75527778D01*
X115903162Y-75514683D01*
X115764090Y-75298559D01*
X115551890Y-75153569D01*
X115300000Y-75102560D01*
X114800000Y-75102560D01*
X114564683Y-75146838D01*
X114348559Y-75285910D01*
X114300866Y-75355711D01*
X114278182Y-75320459D01*
X114278182Y-63598856D01*
X115964538Y-61912500D01*
X120255462Y-61912500D01*
X120967500Y-62624538D01*
M02*
