G04 #@! TF.FileFunction,Copper,L1,Top,Signal*
%FSLAX46Y46*%
G04 Gerber Fmt 4.6, Leading zero omitted, Abs format (unit mm)*
G04 Created by KiCad (PCBNEW (2015-07-31 BZR 6030)-product) date Mon Aug 24 21:55:30 2015*
%MOMM*%
G01*
G04 APERTURE LIST*
%ADD10C,0.100000*%
%ADD11C,5.000000*%
%ADD12R,1.250000X1.000000*%
%ADD13R,0.800000X0.750000*%
%ADD14R,1.000000X1.250000*%
%ADD15R,1.350000X0.400000*%
%ADD16O,0.950000X1.250000*%
%ADD17O,1.550000X1.000000*%
%ADD18R,0.500000X0.900000*%
%ADD19R,2.032000X1.727200*%
%ADD20O,2.032000X1.727200*%
%ADD21R,1.700000X0.900000*%
%ADD22R,0.700000X1.300000*%
%ADD23R,0.250000X0.700000*%
%ADD24R,1.190000X0.830000*%
%ADD25R,1.397000X1.397000*%
%ADD26C,1.397000*%
%ADD27R,1.220000X0.620000*%
%ADD28R,0.660400X0.406400*%
%ADD29C,0.600000*%
%ADD30C,0.635000*%
%ADD31C,0.250000*%
%ADD32C,0.254000*%
G04 APERTURE END LIST*
D10*
D11*
X104140000Y-60960000D03*
X104140000Y-91440000D03*
X173990000Y-91440000D03*
D12*
X125730000Y-68850000D03*
X125730000Y-70850000D03*
D13*
X113780000Y-83820000D03*
X112280000Y-83820000D03*
X113780000Y-88900000D03*
X112280000Y-88900000D03*
X119900000Y-90170000D03*
X121400000Y-90170000D03*
D14*
X118380000Y-73660000D03*
X120380000Y-73660000D03*
D13*
X123710000Y-90170000D03*
X125210000Y-90170000D03*
D14*
X118380000Y-64770000D03*
X120380000Y-64770000D03*
D15*
X109220000Y-78740000D03*
X109220000Y-79390000D03*
X109220000Y-80040000D03*
X109220000Y-80690000D03*
X109220000Y-81340000D03*
D16*
X109220000Y-77540000D03*
X109220000Y-82540000D03*
D17*
X106520000Y-76540000D03*
X106520000Y-83540000D03*
D18*
X115050000Y-76200000D03*
X113550000Y-76200000D03*
D19*
X171450000Y-73660000D03*
D20*
X171450000Y-76200000D03*
X171450000Y-78740000D03*
X171450000Y-81280000D03*
D21*
X118110000Y-87810000D03*
X118110000Y-84910000D03*
X118110000Y-82730000D03*
X118110000Y-79830000D03*
D22*
X115890000Y-90170000D03*
X117790000Y-90170000D03*
D23*
X123335000Y-85220000D03*
X123785000Y-85220000D03*
X124235000Y-85220000D03*
X124685000Y-85220000D03*
X125135000Y-85220000D03*
X125585000Y-85220000D03*
X125585000Y-82420000D03*
X125135000Y-82420000D03*
X124685000Y-82420000D03*
X124235000Y-82420000D03*
X123785000Y-82420000D03*
X123335000Y-82420000D03*
D24*
X125055000Y-83405000D03*
X123865000Y-83405000D03*
X125055000Y-84235000D03*
X123865000Y-84235000D03*
D25*
X129540000Y-78740000D03*
D26*
X132080000Y-78740000D03*
X134620000Y-78740000D03*
X137160000Y-78740000D03*
X139700000Y-78740000D03*
X142240000Y-78740000D03*
X144780000Y-78740000D03*
X147320000Y-78740000D03*
X149860000Y-78740000D03*
X152400000Y-78740000D03*
X152400000Y-71120000D03*
X149860000Y-71120000D03*
X147320000Y-71120000D03*
X144780000Y-71120000D03*
X142240000Y-71120000D03*
X139700000Y-71120000D03*
X137160000Y-71120000D03*
X134620000Y-71120000D03*
X132080000Y-71120000D03*
X129540000Y-71120000D03*
D27*
X118070000Y-68900000D03*
X118070000Y-70800000D03*
X120690000Y-68900000D03*
X120690000Y-70800000D03*
X120690000Y-69850000D03*
D28*
X161544000Y-80619600D03*
X161544000Y-81940400D03*
X161544000Y-81280000D03*
X163576000Y-81940400D03*
X163576000Y-80619600D03*
X166624000Y-71729600D03*
X166624000Y-73050400D03*
X166624000Y-72390000D03*
X168656000Y-73050400D03*
X168656000Y-71729600D03*
X161544000Y-75539600D03*
X161544000Y-76860400D03*
X161544000Y-76200000D03*
X163576000Y-76860400D03*
X163576000Y-75539600D03*
X166624000Y-78079600D03*
X166624000Y-79400400D03*
X166624000Y-78740000D03*
X168656000Y-79400400D03*
X168656000Y-78079600D03*
D11*
X173990000Y-60960000D03*
D29*
X113325682Y-72390000D03*
X121920000Y-72390000D03*
X158750000Y-82550000D03*
X166370000Y-80010000D03*
X120650000Y-63500000D03*
X124460000Y-83820000D03*
X121920000Y-91440000D03*
X123190000Y-73660000D03*
X121920000Y-69850000D03*
X163830000Y-73660000D03*
X160020000Y-77470000D03*
X120650000Y-87630000D03*
X121920000Y-82550000D03*
X124460000Y-87630000D03*
X168910000Y-71120000D03*
X168910000Y-77470000D03*
X163830000Y-80010000D03*
X165100000Y-76200000D03*
X116840000Y-77470000D03*
X114300000Y-91440000D03*
X123190000Y-87630000D03*
X124460000Y-80010000D03*
X135890000Y-76200000D03*
X121920000Y-80010000D03*
X156210000Y-80010000D03*
X156210000Y-72390000D03*
D30*
X121920000Y-67310000D02*
X123460000Y-68850000D01*
X123460000Y-68850000D02*
X125730000Y-68850000D01*
D31*
X109220000Y-78740000D02*
X110490000Y-78740000D01*
D30*
X113550000Y-76950000D02*
X111760000Y-78740000D01*
X111760000Y-78740000D02*
X110490000Y-78740000D01*
X113550000Y-76950000D02*
X113550000Y-76200000D01*
X120690000Y-70800000D02*
X120690000Y-71160000D01*
X121920000Y-72390000D02*
X120690000Y-71160000D01*
X120690000Y-68900000D02*
X120690000Y-68540000D01*
X113325682Y-63204318D02*
X113325682Y-72390000D01*
X113325682Y-72390000D02*
X113325682Y-75975682D01*
X115570000Y-60960000D02*
X113325682Y-63204318D01*
X120650000Y-60960000D02*
X115570000Y-60960000D01*
X121920000Y-62230000D02*
X120650000Y-60960000D01*
X121920000Y-67310000D02*
X121920000Y-62230000D01*
X120690000Y-68540000D02*
X121920000Y-67310000D01*
X113325682Y-75975682D02*
X113550000Y-76200000D01*
D31*
X125680000Y-68900000D02*
X125730000Y-68850000D01*
X125730000Y-68850000D02*
X125460000Y-68580000D01*
D30*
X161544000Y-81940400D02*
X159359600Y-81940400D01*
X159359600Y-81940400D02*
X158750000Y-82550000D01*
X166624000Y-79400400D02*
X166624000Y-79756000D01*
X166624000Y-79756000D02*
X166370000Y-80010000D01*
D31*
X120380000Y-64770000D02*
X120380000Y-63770000D01*
X120380000Y-63770000D02*
X120650000Y-63500000D01*
D30*
X124460000Y-83820000D02*
X124875000Y-84235000D01*
X124875000Y-84235000D02*
X125055000Y-84235000D01*
X121400000Y-90170000D02*
X121400000Y-90920000D01*
X121400000Y-90920000D02*
X121920000Y-91440000D01*
D31*
X125730000Y-70850000D02*
X122920000Y-70850000D01*
X121920000Y-69850000D02*
X120690000Y-69850000D01*
X122920000Y-70850000D02*
X121920000Y-69850000D01*
X166624000Y-73050400D02*
X164439600Y-73050400D01*
X164439600Y-73050400D02*
X163830000Y-73660000D01*
X161544000Y-76860400D02*
X160629600Y-76860400D01*
X160629600Y-76860400D02*
X160020000Y-77470000D01*
X125135000Y-85220000D02*
X125135000Y-84315000D01*
X125135000Y-84315000D02*
X125055000Y-84235000D01*
X123785000Y-82420000D02*
X123785000Y-83325000D01*
X123785000Y-83325000D02*
X123865000Y-83405000D01*
X125135000Y-85220000D02*
X125135000Y-90095000D01*
X125135000Y-90095000D02*
X125210000Y-90170000D01*
D30*
X120380000Y-73660000D02*
X123190000Y-73660000D01*
X123190000Y-73660000D02*
X122920000Y-73660000D01*
X122920000Y-73660000D02*
X125460000Y-71120000D01*
X125460000Y-71120000D02*
X129540000Y-71120000D01*
D31*
X112280000Y-83820000D02*
X112280000Y-88900000D01*
X125730000Y-70850000D02*
X125730000Y-71120000D01*
X125730000Y-71120000D02*
X125730000Y-70850000D01*
X120690000Y-69850000D02*
X120650000Y-69850000D01*
X120650000Y-69850000D02*
X120690000Y-69850000D01*
X120380000Y-65040000D02*
X120380000Y-64770000D01*
X112280000Y-83820000D02*
X112280000Y-83070000D01*
X110550000Y-81340000D02*
X109220000Y-81340000D01*
X112280000Y-83070000D02*
X110550000Y-81340000D01*
X109220000Y-81340000D02*
X109220000Y-82540000D01*
X125460000Y-71120000D02*
X125730000Y-70850000D01*
X125730000Y-70850000D02*
X125460000Y-70850000D01*
X125460000Y-70850000D02*
X125730000Y-71120000D01*
X123335000Y-85220000D02*
X122195000Y-86360000D01*
X116320000Y-86360000D02*
X121920000Y-86360000D01*
X116320000Y-86360000D02*
X113780000Y-83820000D01*
X122195000Y-86360000D02*
X121920000Y-86360000D01*
X118110000Y-82730000D02*
X114870000Y-82730000D01*
X114870000Y-82730000D02*
X113780000Y-83820000D01*
X123335000Y-82420000D02*
X122050000Y-82420000D01*
X120470000Y-87810000D02*
X118110000Y-87810000D01*
X120650000Y-87630000D02*
X120470000Y-87810000D01*
X122050000Y-82420000D02*
X121920000Y-82550000D01*
X114870000Y-87810000D02*
X118110000Y-87810000D01*
X113780000Y-88900000D02*
X114870000Y-87810000D01*
X123785000Y-85220000D02*
X123785000Y-85765000D01*
X119900000Y-89650000D02*
X119900000Y-90170000D01*
X123785000Y-85765000D02*
X119900000Y-89650000D01*
X117790000Y-90170000D02*
X119900000Y-90170000D01*
D30*
X118380000Y-64770000D02*
X116840000Y-64770000D01*
X115762498Y-70927502D02*
X118070000Y-70927502D01*
X115570000Y-71120000D02*
X115762498Y-70927502D01*
X115570000Y-66040000D02*
X115570000Y-71120000D01*
X116840000Y-64770000D02*
X115570000Y-66040000D01*
X118070000Y-70927502D02*
X118070000Y-70800000D01*
X118070000Y-70800000D02*
X118070000Y-73350000D01*
X118070000Y-73350000D02*
X118380000Y-73660000D01*
X118380000Y-73660000D02*
X118110000Y-73930000D01*
X118110000Y-73930000D02*
X118110000Y-77470000D01*
X118110000Y-77470000D02*
X120650000Y-77470000D01*
X120650000Y-77470000D02*
X121920000Y-77470000D01*
X121920000Y-77470000D02*
X123190000Y-78740000D01*
X123190000Y-78740000D02*
X129540000Y-78740000D01*
D31*
X123710000Y-90170000D02*
X123710000Y-88380000D01*
X123710000Y-88380000D02*
X124460000Y-87630000D01*
X124685000Y-85220000D02*
X124685000Y-87405000D01*
X124685000Y-87405000D02*
X124460000Y-87630000D01*
X168656000Y-71729600D02*
X168656000Y-71374000D01*
X168656000Y-71374000D02*
X168910000Y-71120000D01*
X168656000Y-78079600D02*
X168656000Y-77724000D01*
X168656000Y-77724000D02*
X168910000Y-77470000D01*
X163576000Y-80619600D02*
X163576000Y-80264000D01*
X163576000Y-80264000D02*
X163830000Y-80010000D01*
X163576000Y-75539600D02*
X164439600Y-75539600D01*
X164439600Y-75539600D02*
X165100000Y-76200000D01*
X115050000Y-76200000D02*
X115570000Y-76200000D01*
X115570000Y-76200000D02*
X116840000Y-77470000D01*
X114300000Y-91440000D02*
X115570000Y-90170000D01*
X115570000Y-90170000D02*
X115890000Y-90170000D01*
X115570000Y-89850000D02*
X115890000Y-90170000D01*
X109220000Y-79390000D02*
X114950000Y-79390000D01*
X115390000Y-79830000D02*
X118110000Y-79830000D01*
X114950000Y-79390000D02*
X115390000Y-79830000D01*
X118110000Y-79830000D02*
X118110000Y-80010000D01*
X118110000Y-80010000D02*
X118110000Y-79830000D01*
X109220000Y-80040000D02*
X114330000Y-80040000D01*
X119560000Y-84910000D02*
X118110000Y-84910000D01*
X120650000Y-83820000D02*
X119560000Y-84910000D01*
X120650000Y-81280000D02*
X120650000Y-83820000D01*
X115570000Y-81280000D02*
X120650000Y-81280000D01*
X114330000Y-80040000D02*
X115570000Y-81280000D01*
X118110000Y-84910000D02*
X118110000Y-85090000D01*
X118110000Y-85090000D02*
X118110000Y-84910000D01*
X168656000Y-73050400D02*
X170840400Y-73050400D01*
X170840400Y-73050400D02*
X171450000Y-73660000D01*
X163576000Y-76860400D02*
X170789600Y-76860400D01*
X170789600Y-76860400D02*
X171450000Y-76200000D01*
X168656000Y-79400400D02*
X170789600Y-79400400D01*
X170789600Y-79400400D02*
X171450000Y-78740000D01*
X163576000Y-81940400D02*
X170789600Y-81940400D01*
X170789600Y-81940400D02*
X171450000Y-81280000D01*
X124235000Y-86585000D02*
X124235000Y-85220000D01*
X123190000Y-87630000D02*
X124235000Y-86585000D01*
X124685000Y-80235000D02*
X124460000Y-80010000D01*
X124685000Y-82420000D02*
X124685000Y-80235000D01*
X124314998Y-85220000D02*
X124235000Y-85220000D01*
X134620000Y-78740000D02*
X130940000Y-82420000D01*
X130940000Y-82420000D02*
X125585000Y-82420000D01*
X124235000Y-82420000D02*
X124235000Y-81055000D01*
X137160000Y-77470000D02*
X137160000Y-78740000D01*
X135890000Y-76200000D02*
X137160000Y-77470000D01*
X123190000Y-80010000D02*
X121920000Y-80010000D01*
X124235000Y-81055000D02*
X123190000Y-80010000D01*
X166624000Y-72390000D02*
X157480000Y-72390000D01*
X149860000Y-76200000D02*
X147320000Y-78740000D01*
X153670000Y-76200000D02*
X149860000Y-76200000D01*
X157480000Y-72390000D02*
X153670000Y-76200000D01*
X149860000Y-78740000D02*
X151130000Y-77470000D01*
X158750000Y-76200000D02*
X161544000Y-76200000D01*
X157480000Y-77470000D02*
X158750000Y-76200000D01*
X151130000Y-77470000D02*
X157480000Y-77470000D01*
X152400000Y-78740000D02*
X166624000Y-78740000D01*
X152400000Y-71120000D02*
X154940000Y-71120000D01*
X157480000Y-81280000D02*
X161544000Y-81280000D01*
X156210000Y-80010000D02*
X157480000Y-81280000D01*
X154940000Y-71120000D02*
X156210000Y-72390000D01*
D32*
G36*
X171333826Y-59181847D02*
X170855546Y-60333674D01*
X170854457Y-61580854D01*
X171330727Y-62733515D01*
X172211847Y-63616174D01*
X173363674Y-64094454D01*
X174610854Y-64095543D01*
X175763515Y-63619273D01*
X176403000Y-62980903D01*
X176403000Y-89419782D01*
X175768153Y-88783826D01*
X174616326Y-88305546D01*
X173369146Y-88304457D01*
X172216485Y-88780727D01*
X171333826Y-89661847D01*
X170855546Y-90813674D01*
X170854457Y-92060854D01*
X171330727Y-93213515D01*
X171969097Y-93853000D01*
X106160218Y-93853000D01*
X106796174Y-93218153D01*
X107274454Y-92066326D01*
X107275543Y-90819146D01*
X106799273Y-89666485D01*
X106319377Y-89185750D01*
X111245000Y-89185750D01*
X111245000Y-89401310D01*
X111341673Y-89634699D01*
X111520302Y-89813327D01*
X111753691Y-89910000D01*
X111994250Y-89910000D01*
X112153000Y-89751250D01*
X112153000Y-89027000D01*
X111403750Y-89027000D01*
X111245000Y-89185750D01*
X106319377Y-89185750D01*
X105918153Y-88783826D01*
X104990642Y-88398690D01*
X111245000Y-88398690D01*
X111245000Y-88614250D01*
X111403750Y-88773000D01*
X112153000Y-88773000D01*
X112153000Y-88048750D01*
X111994250Y-87890000D01*
X111753691Y-87890000D01*
X111520302Y-87986673D01*
X111341673Y-88165301D01*
X111245000Y-88398690D01*
X104990642Y-88398690D01*
X104766326Y-88305546D01*
X103519146Y-88304457D01*
X102366485Y-88780727D01*
X101727000Y-89419097D01*
X101727000Y-83841874D01*
X105150881Y-83841874D01*
X105352632Y-84252763D01*
X105693322Y-84540002D01*
X106118000Y-84675000D01*
X106393000Y-84675000D01*
X106393000Y-83667000D01*
X106647000Y-83667000D01*
X106647000Y-84675000D01*
X106922000Y-84675000D01*
X107346678Y-84540002D01*
X107687368Y-84252763D01*
X107759552Y-84105750D01*
X111245000Y-84105750D01*
X111245000Y-84321310D01*
X111341673Y-84554699D01*
X111520302Y-84733327D01*
X111753691Y-84830000D01*
X111994250Y-84830000D01*
X112153000Y-84671250D01*
X112153000Y-83947000D01*
X111403750Y-83947000D01*
X111245000Y-84105750D01*
X107759552Y-84105750D01*
X107889119Y-83841874D01*
X107762954Y-83667000D01*
X106647000Y-83667000D01*
X106393000Y-83667000D01*
X105277046Y-83667000D01*
X105150881Y-83841874D01*
X101727000Y-83841874D01*
X101727000Y-83238126D01*
X105150881Y-83238126D01*
X105277046Y-83413000D01*
X106393000Y-83413000D01*
X106393000Y-82405000D01*
X106647000Y-82405000D01*
X106647000Y-83413000D01*
X107762954Y-83413000D01*
X107889119Y-83238126D01*
X107694191Y-82841131D01*
X108118771Y-82841131D01*
X108260432Y-83251049D01*
X108548179Y-83575552D01*
X108922062Y-83759268D01*
X109093000Y-83632734D01*
X109093000Y-82667000D01*
X109347000Y-82667000D01*
X109347000Y-83632734D01*
X109517938Y-83759268D01*
X109891821Y-83575552D01*
X110119588Y-83318690D01*
X111245000Y-83318690D01*
X111245000Y-83534250D01*
X111403750Y-83693000D01*
X112153000Y-83693000D01*
X112153000Y-82968750D01*
X111994250Y-82810000D01*
X111753691Y-82810000D01*
X111520302Y-82906673D01*
X111341673Y-83085301D01*
X111245000Y-83318690D01*
X110119588Y-83318690D01*
X110179568Y-83251049D01*
X110321229Y-82841131D01*
X110172563Y-82667000D01*
X109347000Y-82667000D01*
X109093000Y-82667000D01*
X108267437Y-82667000D01*
X108118771Y-82841131D01*
X107694191Y-82841131D01*
X107687368Y-82827237D01*
X107346678Y-82539998D01*
X106922000Y-82405000D01*
X106647000Y-82405000D01*
X106393000Y-82405000D01*
X106118000Y-82405000D01*
X105693322Y-82539998D01*
X105352632Y-82827237D01*
X105150881Y-83238126D01*
X101727000Y-83238126D01*
X101727000Y-78540000D01*
X107897560Y-78540000D01*
X107897560Y-78940000D01*
X107921944Y-79069589D01*
X107897560Y-79190000D01*
X107897560Y-79590000D01*
X107921944Y-79719589D01*
X107897560Y-79840000D01*
X107897560Y-80240000D01*
X107921944Y-80369589D01*
X107897560Y-80490000D01*
X107897560Y-80890000D01*
X107917450Y-80995705D01*
X107910000Y-81013690D01*
X107910000Y-81081250D01*
X107939004Y-81110254D01*
X107941838Y-81125317D01*
X108080910Y-81341441D01*
X108225156Y-81440000D01*
X108068750Y-81440000D01*
X107910000Y-81598750D01*
X107910000Y-81666310D01*
X108006673Y-81899699D01*
X108177090Y-82070115D01*
X108118771Y-82238869D01*
X108267437Y-82413000D01*
X109093000Y-82413000D01*
X109093000Y-82393000D01*
X109347000Y-82393000D01*
X109347000Y-82413000D01*
X110172563Y-82413000D01*
X110321229Y-82238869D01*
X110262910Y-82070115D01*
X110433327Y-81899699D01*
X110530000Y-81666310D01*
X110530000Y-81598750D01*
X110371250Y-81440000D01*
X110212933Y-81440000D01*
X110346441Y-81354090D01*
X110491431Y-81141890D01*
X110497035Y-81114215D01*
X110530000Y-81081250D01*
X110530000Y-81013690D01*
X110521532Y-80993247D01*
X110542440Y-80890000D01*
X110542440Y-80800000D01*
X114015198Y-80800000D01*
X115032599Y-81817401D01*
X115260980Y-81970000D01*
X114870000Y-81970000D01*
X114579161Y-82027852D01*
X114332599Y-82192599D01*
X113727638Y-82797560D01*
X113380000Y-82797560D01*
X113144683Y-82841838D01*
X113041354Y-82908329D01*
X113039698Y-82906673D01*
X112806309Y-82810000D01*
X112565750Y-82810000D01*
X112407000Y-82968750D01*
X112407000Y-83693000D01*
X112427000Y-83693000D01*
X112427000Y-83947000D01*
X112407000Y-83947000D01*
X112407000Y-84671250D01*
X112565750Y-84830000D01*
X112806309Y-84830000D01*
X113039698Y-84733327D01*
X113041068Y-84731957D01*
X113128110Y-84791431D01*
X113380000Y-84842440D01*
X113727638Y-84842440D01*
X115782599Y-86897401D01*
X116010979Y-87050000D01*
X114870000Y-87050000D01*
X114579161Y-87107852D01*
X114332599Y-87272599D01*
X113727638Y-87877560D01*
X113380000Y-87877560D01*
X113144683Y-87921838D01*
X113041354Y-87988329D01*
X113039698Y-87986673D01*
X112806309Y-87890000D01*
X112565750Y-87890000D01*
X112407000Y-88048750D01*
X112407000Y-88773000D01*
X112427000Y-88773000D01*
X112427000Y-89027000D01*
X112407000Y-89027000D01*
X112407000Y-89751250D01*
X112565750Y-89910000D01*
X112806309Y-89910000D01*
X113039698Y-89813327D01*
X113041068Y-89811957D01*
X113128110Y-89871431D01*
X113380000Y-89922440D01*
X114180000Y-89922440D01*
X114415317Y-89878162D01*
X114631441Y-89739090D01*
X114776431Y-89526890D01*
X114827440Y-89275000D01*
X114827440Y-88927362D01*
X115184802Y-88570000D01*
X116704895Y-88570000D01*
X116795910Y-88711441D01*
X117008110Y-88856431D01*
X117257413Y-88906916D01*
X117204683Y-88916838D01*
X116988559Y-89055910D01*
X116843569Y-89268110D01*
X116840919Y-89281197D01*
X116704090Y-89068559D01*
X116491890Y-88923569D01*
X116240000Y-88872560D01*
X115540000Y-88872560D01*
X115304683Y-88916838D01*
X115088559Y-89055910D01*
X114943569Y-89268110D01*
X114892560Y-89520000D01*
X114892560Y-89522183D01*
X114867852Y-89559161D01*
X114810000Y-89850000D01*
X114810862Y-89854336D01*
X114160320Y-90504878D01*
X114114833Y-90504838D01*
X113771057Y-90646883D01*
X113507808Y-90909673D01*
X113365162Y-91253201D01*
X113364838Y-91625167D01*
X113506883Y-91968943D01*
X113769673Y-92232192D01*
X114113201Y-92374838D01*
X114485167Y-92375162D01*
X114828943Y-92233117D01*
X115092192Y-91970327D01*
X115234838Y-91626799D01*
X115234879Y-91579923D01*
X115379803Y-91434999D01*
X115540000Y-91467440D01*
X116240000Y-91467440D01*
X116475317Y-91423162D01*
X116691441Y-91284090D01*
X116836431Y-91071890D01*
X116839081Y-91058803D01*
X116975910Y-91271441D01*
X117188110Y-91416431D01*
X117440000Y-91467440D01*
X118140000Y-91467440D01*
X118375317Y-91423162D01*
X118591441Y-91284090D01*
X118736431Y-91071890D01*
X118765164Y-90930000D01*
X118993156Y-90930000D01*
X119035910Y-90996441D01*
X119248110Y-91141431D01*
X119500000Y-91192440D01*
X120300000Y-91192440D01*
X120535317Y-91148162D01*
X120638646Y-91081671D01*
X120640302Y-91083327D01*
X120873691Y-91180000D01*
X121114250Y-91180000D01*
X121273000Y-91021250D01*
X121273000Y-90297000D01*
X121527000Y-90297000D01*
X121527000Y-91021250D01*
X121685750Y-91180000D01*
X121926309Y-91180000D01*
X122159698Y-91083327D01*
X122338327Y-90904699D01*
X122435000Y-90671310D01*
X122435000Y-90455750D01*
X122276250Y-90297000D01*
X121527000Y-90297000D01*
X121273000Y-90297000D01*
X121253000Y-90297000D01*
X121253000Y-90043000D01*
X121273000Y-90043000D01*
X121273000Y-90023000D01*
X121527000Y-90023000D01*
X121527000Y-90043000D01*
X122276250Y-90043000D01*
X122435000Y-89884250D01*
X122435000Y-89668690D01*
X122338327Y-89435301D01*
X122159698Y-89256673D01*
X121926309Y-89160000D01*
X121685750Y-89160000D01*
X121527002Y-89318748D01*
X121527002Y-89160000D01*
X121464802Y-89160000D01*
X122431341Y-88193461D01*
X122659673Y-88422192D01*
X122950000Y-88542747D01*
X122950000Y-89272069D01*
X122858559Y-89330910D01*
X122713569Y-89543110D01*
X122662560Y-89795000D01*
X122662560Y-90545000D01*
X122706838Y-90780317D01*
X122845910Y-90996441D01*
X123058110Y-91141431D01*
X123310000Y-91192440D01*
X124110000Y-91192440D01*
X124345317Y-91148162D01*
X124448646Y-91081671D01*
X124450302Y-91083327D01*
X124683691Y-91180000D01*
X124924250Y-91180000D01*
X125083000Y-91021250D01*
X125083000Y-90297000D01*
X125337000Y-90297000D01*
X125337000Y-91021250D01*
X125495750Y-91180000D01*
X125736309Y-91180000D01*
X125969698Y-91083327D01*
X126148327Y-90904699D01*
X126245000Y-90671310D01*
X126245000Y-90455750D01*
X126086250Y-90297000D01*
X125337000Y-90297000D01*
X125083000Y-90297000D01*
X125063000Y-90297000D01*
X125063000Y-90043000D01*
X125083000Y-90043000D01*
X125083000Y-89318750D01*
X125337000Y-89318750D01*
X125337000Y-90043000D01*
X126086250Y-90043000D01*
X126245000Y-89884250D01*
X126245000Y-89668690D01*
X126148327Y-89435301D01*
X125969698Y-89256673D01*
X125736309Y-89160000D01*
X125495750Y-89160000D01*
X125337000Y-89318750D01*
X125083000Y-89318750D01*
X124924250Y-89160000D01*
X124683691Y-89160000D01*
X124470000Y-89248514D01*
X124470000Y-88694802D01*
X124599680Y-88565122D01*
X124645167Y-88565162D01*
X124988943Y-88423117D01*
X125252192Y-88160327D01*
X125394838Y-87816799D01*
X125394978Y-87656477D01*
X125445000Y-87405000D01*
X125445000Y-86214402D01*
X125460000Y-86217440D01*
X125710000Y-86217440D01*
X125945317Y-86173162D01*
X126161441Y-86034090D01*
X126306431Y-85821890D01*
X126357440Y-85570000D01*
X126357440Y-84870000D01*
X126313162Y-84634683D01*
X126285000Y-84590918D01*
X126285000Y-84520750D01*
X126126250Y-84362000D01*
X126091313Y-84362000D01*
X126040646Y-84327380D01*
X126188327Y-84179698D01*
X126282920Y-83951330D01*
X126285000Y-83949250D01*
X126285000Y-83690750D01*
X126282920Y-83688670D01*
X126188327Y-83460302D01*
X126040159Y-83312133D01*
X126093203Y-83278000D01*
X126126250Y-83278000D01*
X126224250Y-83180000D01*
X130940000Y-83180000D01*
X131230839Y-83122148D01*
X131477401Y-82957401D01*
X134361527Y-80073275D01*
X134884086Y-80073731D01*
X135374380Y-79871146D01*
X135749827Y-79496353D01*
X135890094Y-79158554D01*
X136028854Y-79494380D01*
X136403647Y-79869827D01*
X136893587Y-80073268D01*
X137424086Y-80073731D01*
X137914380Y-79871146D01*
X138289827Y-79496353D01*
X138430094Y-79158554D01*
X138568854Y-79494380D01*
X138943647Y-79869827D01*
X139433587Y-80073268D01*
X139964086Y-80073731D01*
X140454380Y-79871146D01*
X140829827Y-79496353D01*
X140970094Y-79158554D01*
X141108854Y-79494380D01*
X141483647Y-79869827D01*
X141973587Y-80073268D01*
X142504086Y-80073731D01*
X142994380Y-79871146D01*
X143369827Y-79496353D01*
X143510094Y-79158554D01*
X143648854Y-79494380D01*
X144023647Y-79869827D01*
X144513587Y-80073268D01*
X145044086Y-80073731D01*
X145534380Y-79871146D01*
X145909827Y-79496353D01*
X146050094Y-79158554D01*
X146188854Y-79494380D01*
X146563647Y-79869827D01*
X147053587Y-80073268D01*
X147584086Y-80073731D01*
X148074380Y-79871146D01*
X148449827Y-79496353D01*
X148590094Y-79158554D01*
X148728854Y-79494380D01*
X149103647Y-79869827D01*
X149593587Y-80073268D01*
X150124086Y-80073731D01*
X150614380Y-79871146D01*
X150989827Y-79496353D01*
X151130094Y-79158554D01*
X151268854Y-79494380D01*
X151643647Y-79869827D01*
X152133587Y-80073268D01*
X152664086Y-80073731D01*
X153154380Y-79871146D01*
X153526174Y-79500000D01*
X155409367Y-79500000D01*
X155275162Y-79823201D01*
X155274838Y-80195167D01*
X155416883Y-80538943D01*
X155679673Y-80802192D01*
X156023201Y-80944838D01*
X156070077Y-80944879D01*
X156942599Y-81817401D01*
X157189160Y-81982148D01*
X157480000Y-82040000D01*
X160578800Y-82040000D01*
X160578800Y-82067402D01*
X160712148Y-82067402D01*
X160578800Y-82200750D01*
X160578800Y-82269909D01*
X160675473Y-82503298D01*
X160854101Y-82681927D01*
X161087490Y-82778600D01*
X161258250Y-82778600D01*
X161417000Y-82619850D01*
X161417000Y-82130640D01*
X161671000Y-82130640D01*
X161671000Y-82619850D01*
X161829750Y-82778600D01*
X162000510Y-82778600D01*
X162233899Y-82681927D01*
X162412527Y-82503298D01*
X162509200Y-82269909D01*
X162509200Y-82200750D01*
X162350450Y-82042000D01*
X162178457Y-82042000D01*
X162325641Y-81947290D01*
X162470631Y-81735090D01*
X162474813Y-81714437D01*
X162509200Y-81680050D01*
X162509200Y-81610891D01*
X162500188Y-81589134D01*
X162521640Y-81483200D01*
X162521640Y-81076800D01*
X162496866Y-80945138D01*
X162521640Y-80822800D01*
X162521640Y-80416400D01*
X162477362Y-80181083D01*
X162338290Y-79964959D01*
X162126090Y-79819969D01*
X161874200Y-79768960D01*
X161213800Y-79768960D01*
X160978483Y-79813238D01*
X160762359Y-79952310D01*
X160617369Y-80164510D01*
X160566360Y-80416400D01*
X160566360Y-80520000D01*
X157794802Y-80520000D01*
X157145122Y-79870320D01*
X157145162Y-79824833D01*
X157010944Y-79500000D01*
X163029367Y-79500000D01*
X162895162Y-79823201D01*
X162895106Y-79887481D01*
X162794359Y-79952310D01*
X162649369Y-80164510D01*
X162598360Y-80416400D01*
X162598360Y-80822800D01*
X162642638Y-81058117D01*
X162781710Y-81274241D01*
X162789806Y-81279773D01*
X162649369Y-81485310D01*
X162598360Y-81737200D01*
X162598360Y-82143600D01*
X162642638Y-82378917D01*
X162781710Y-82595041D01*
X162993910Y-82740031D01*
X163245800Y-82791040D01*
X163906200Y-82791040D01*
X164141517Y-82746762D01*
X164213566Y-82700400D01*
X170789600Y-82700400D01*
X170830858Y-82692193D01*
X171265255Y-82778600D01*
X171634745Y-82778600D01*
X172208234Y-82664526D01*
X172694415Y-82339670D01*
X173019271Y-81853489D01*
X173133345Y-81280000D01*
X173019271Y-80706511D01*
X172694415Y-80220330D01*
X172379634Y-80010000D01*
X172694415Y-79799670D01*
X173019271Y-79313489D01*
X173133345Y-78740000D01*
X173019271Y-78166511D01*
X172694415Y-77680330D01*
X172379634Y-77470000D01*
X172694415Y-77259670D01*
X173019271Y-76773489D01*
X173133345Y-76200000D01*
X173019271Y-75626511D01*
X172694415Y-75140330D01*
X172680087Y-75130757D01*
X172701317Y-75126762D01*
X172917441Y-74987690D01*
X173062431Y-74775490D01*
X173113440Y-74523600D01*
X173113440Y-72796400D01*
X173069162Y-72561083D01*
X172930090Y-72344959D01*
X172717890Y-72199969D01*
X172466000Y-72148960D01*
X170434000Y-72148960D01*
X170198683Y-72193238D01*
X170047689Y-72290400D01*
X169510402Y-72290400D01*
X169582631Y-72184690D01*
X169633640Y-71932800D01*
X169633640Y-71718759D01*
X169702192Y-71650327D01*
X169844838Y-71306799D01*
X169845162Y-70934833D01*
X169703117Y-70591057D01*
X169440327Y-70327808D01*
X169096799Y-70185162D01*
X168724833Y-70184838D01*
X168381057Y-70326883D01*
X168117808Y-70589673D01*
X167975162Y-70933201D01*
X167975106Y-70997481D01*
X167874359Y-71062310D01*
X167729369Y-71274510D01*
X167678360Y-71526400D01*
X167678360Y-71932800D01*
X167722638Y-72168117D01*
X167861710Y-72384241D01*
X167869806Y-72389773D01*
X167729369Y-72595310D01*
X167678360Y-72847200D01*
X167678360Y-73253600D01*
X167722638Y-73488917D01*
X167861710Y-73705041D01*
X168073910Y-73850031D01*
X168325800Y-73901040D01*
X168986200Y-73901040D01*
X169221517Y-73856762D01*
X169293566Y-73810400D01*
X169786560Y-73810400D01*
X169786560Y-74523600D01*
X169830838Y-74758917D01*
X169969910Y-74975041D01*
X170182110Y-75120031D01*
X170223439Y-75128400D01*
X170205585Y-75140330D01*
X169880729Y-75626511D01*
X169786467Y-76100400D01*
X166035087Y-76100400D01*
X166035162Y-76014833D01*
X165893117Y-75671057D01*
X165630327Y-75407808D01*
X165286799Y-75265162D01*
X165239923Y-75265121D01*
X164977001Y-75002199D01*
X164730439Y-74837452D01*
X164439600Y-74779600D01*
X164216092Y-74779600D01*
X164158090Y-74739969D01*
X163906200Y-74688960D01*
X163245800Y-74688960D01*
X163010483Y-74733238D01*
X162794359Y-74872310D01*
X162649369Y-75084510D01*
X162598360Y-75336400D01*
X162598360Y-75742800D01*
X162642638Y-75978117D01*
X162781710Y-76194241D01*
X162789806Y-76199773D01*
X162649369Y-76405310D01*
X162598360Y-76657200D01*
X162598360Y-77063600D01*
X162642638Y-77298917D01*
X162781710Y-77515041D01*
X162993910Y-77660031D01*
X163245800Y-77711040D01*
X163906200Y-77711040D01*
X164141517Y-77666762D01*
X164213566Y-77620400D01*
X165700177Y-77620400D01*
X165697369Y-77624510D01*
X165646360Y-77876400D01*
X165646360Y-77980000D01*
X158044802Y-77980000D01*
X159064802Y-76960000D01*
X160578800Y-76960000D01*
X160578800Y-76987402D01*
X160712148Y-76987402D01*
X160578800Y-77120750D01*
X160578800Y-77189909D01*
X160675473Y-77423298D01*
X160854101Y-77601927D01*
X161087490Y-77698600D01*
X161258250Y-77698600D01*
X161417000Y-77539850D01*
X161417000Y-77050640D01*
X161671000Y-77050640D01*
X161671000Y-77539850D01*
X161829750Y-77698600D01*
X162000510Y-77698600D01*
X162233899Y-77601927D01*
X162412527Y-77423298D01*
X162509200Y-77189909D01*
X162509200Y-77120750D01*
X162350450Y-76962000D01*
X162178457Y-76962000D01*
X162325641Y-76867290D01*
X162470631Y-76655090D01*
X162474813Y-76634437D01*
X162509200Y-76600050D01*
X162509200Y-76530891D01*
X162500188Y-76509134D01*
X162521640Y-76403200D01*
X162521640Y-75996800D01*
X162496866Y-75865138D01*
X162521640Y-75742800D01*
X162521640Y-75336400D01*
X162477362Y-75101083D01*
X162338290Y-74884959D01*
X162126090Y-74739969D01*
X161874200Y-74688960D01*
X161213800Y-74688960D01*
X160978483Y-74733238D01*
X160762359Y-74872310D01*
X160617369Y-75084510D01*
X160566360Y-75336400D01*
X160566360Y-75440000D01*
X158750000Y-75440000D01*
X158459160Y-75497852D01*
X158212599Y-75662599D01*
X157165198Y-76710000D01*
X154234802Y-76710000D01*
X157794802Y-73150000D01*
X165658800Y-73150000D01*
X165658800Y-73177402D01*
X165792148Y-73177402D01*
X165658800Y-73310750D01*
X165658800Y-73379909D01*
X165755473Y-73613298D01*
X165934101Y-73791927D01*
X166167490Y-73888600D01*
X166338250Y-73888600D01*
X166497000Y-73729850D01*
X166497000Y-73240640D01*
X166751000Y-73240640D01*
X166751000Y-73729850D01*
X166909750Y-73888600D01*
X167080510Y-73888600D01*
X167313899Y-73791927D01*
X167492527Y-73613298D01*
X167589200Y-73379909D01*
X167589200Y-73310750D01*
X167430450Y-73152000D01*
X167258457Y-73152000D01*
X167405641Y-73057290D01*
X167550631Y-72845090D01*
X167554813Y-72824437D01*
X167589200Y-72790050D01*
X167589200Y-72720891D01*
X167580188Y-72699134D01*
X167601640Y-72593200D01*
X167601640Y-72186800D01*
X167576866Y-72055138D01*
X167601640Y-71932800D01*
X167601640Y-71526400D01*
X167557362Y-71291083D01*
X167418290Y-71074959D01*
X167206090Y-70929969D01*
X166954200Y-70878960D01*
X166293800Y-70878960D01*
X166058483Y-70923238D01*
X165842359Y-71062310D01*
X165697369Y-71274510D01*
X165646360Y-71526400D01*
X165646360Y-71630000D01*
X157480000Y-71630000D01*
X157189161Y-71687852D01*
X156973837Y-71831726D01*
X156740327Y-71597808D01*
X156396799Y-71455162D01*
X156349923Y-71455121D01*
X155477401Y-70582599D01*
X155230839Y-70417852D01*
X154940000Y-70360000D01*
X153525536Y-70360000D01*
X153156353Y-69990173D01*
X152666413Y-69786732D01*
X152135914Y-69786269D01*
X151645620Y-69988854D01*
X151270173Y-70363647D01*
X151129906Y-70701446D01*
X150991146Y-70365620D01*
X150616353Y-69990173D01*
X150126413Y-69786732D01*
X149595914Y-69786269D01*
X149105620Y-69988854D01*
X148730173Y-70363647D01*
X148589906Y-70701446D01*
X148451146Y-70365620D01*
X148076353Y-69990173D01*
X147586413Y-69786732D01*
X147055914Y-69786269D01*
X146565620Y-69988854D01*
X146190173Y-70363647D01*
X146049906Y-70701446D01*
X145911146Y-70365620D01*
X145536353Y-69990173D01*
X145046413Y-69786732D01*
X144515914Y-69786269D01*
X144025620Y-69988854D01*
X143650173Y-70363647D01*
X143509906Y-70701446D01*
X143371146Y-70365620D01*
X142996353Y-69990173D01*
X142506413Y-69786732D01*
X141975914Y-69786269D01*
X141485620Y-69988854D01*
X141110173Y-70363647D01*
X140969906Y-70701446D01*
X140831146Y-70365620D01*
X140456353Y-69990173D01*
X139966413Y-69786732D01*
X139435914Y-69786269D01*
X138945620Y-69988854D01*
X138570173Y-70363647D01*
X138429906Y-70701446D01*
X138291146Y-70365620D01*
X137916353Y-69990173D01*
X137426413Y-69786732D01*
X136895914Y-69786269D01*
X136405620Y-69988854D01*
X136030173Y-70363647D01*
X135889906Y-70701446D01*
X135751146Y-70365620D01*
X135376353Y-69990173D01*
X134886413Y-69786732D01*
X134355914Y-69786269D01*
X133865620Y-69988854D01*
X133490173Y-70363647D01*
X133349906Y-70701446D01*
X133211146Y-70365620D01*
X132836353Y-69990173D01*
X132346413Y-69786732D01*
X131815914Y-69786269D01*
X131325620Y-69988854D01*
X130950173Y-70363647D01*
X130816686Y-70685118D01*
X130709800Y-70427071D01*
X130474188Y-70365417D01*
X129719605Y-71120000D01*
X130474188Y-71874583D01*
X130709800Y-71812929D01*
X130808083Y-71533688D01*
X130948854Y-71874380D01*
X131323647Y-72249827D01*
X131813587Y-72453268D01*
X132344086Y-72453731D01*
X132834380Y-72251146D01*
X133209827Y-71876353D01*
X133350094Y-71538554D01*
X133488854Y-71874380D01*
X133863647Y-72249827D01*
X134353587Y-72453268D01*
X134884086Y-72453731D01*
X135374380Y-72251146D01*
X135749827Y-71876353D01*
X135890094Y-71538554D01*
X136028854Y-71874380D01*
X136403647Y-72249827D01*
X136893587Y-72453268D01*
X137424086Y-72453731D01*
X137914380Y-72251146D01*
X138289827Y-71876353D01*
X138430094Y-71538554D01*
X138568854Y-71874380D01*
X138943647Y-72249827D01*
X139433587Y-72453268D01*
X139964086Y-72453731D01*
X140454380Y-72251146D01*
X140829827Y-71876353D01*
X140970094Y-71538554D01*
X141108854Y-71874380D01*
X141483647Y-72249827D01*
X141973587Y-72453268D01*
X142504086Y-72453731D01*
X142994380Y-72251146D01*
X143369827Y-71876353D01*
X143510094Y-71538554D01*
X143648854Y-71874380D01*
X144023647Y-72249827D01*
X144513587Y-72453268D01*
X145044086Y-72453731D01*
X145534380Y-72251146D01*
X145909827Y-71876353D01*
X146050094Y-71538554D01*
X146188854Y-71874380D01*
X146563647Y-72249827D01*
X147053587Y-72453268D01*
X147584086Y-72453731D01*
X148074380Y-72251146D01*
X148449827Y-71876353D01*
X148590094Y-71538554D01*
X148728854Y-71874380D01*
X149103647Y-72249827D01*
X149593587Y-72453268D01*
X150124086Y-72453731D01*
X150614380Y-72251146D01*
X150989827Y-71876353D01*
X151130094Y-71538554D01*
X151268854Y-71874380D01*
X151643647Y-72249827D01*
X152133587Y-72453268D01*
X152664086Y-72453731D01*
X153154380Y-72251146D01*
X153526174Y-71880000D01*
X154625198Y-71880000D01*
X155274878Y-72529680D01*
X155274838Y-72575167D01*
X155416883Y-72918943D01*
X155646369Y-73148829D01*
X153355198Y-75440000D01*
X149860000Y-75440000D01*
X149617414Y-75488254D01*
X149569160Y-75497852D01*
X149322599Y-75662599D01*
X147578473Y-77406725D01*
X147055914Y-77406269D01*
X146565620Y-77608854D01*
X146190173Y-77983647D01*
X146049906Y-78321446D01*
X145911146Y-77985620D01*
X145536353Y-77610173D01*
X145046413Y-77406732D01*
X144515914Y-77406269D01*
X144025620Y-77608854D01*
X143650173Y-77983647D01*
X143509906Y-78321446D01*
X143371146Y-77985620D01*
X142996353Y-77610173D01*
X142506413Y-77406732D01*
X141975914Y-77406269D01*
X141485620Y-77608854D01*
X141110173Y-77983647D01*
X140969906Y-78321446D01*
X140831146Y-77985620D01*
X140456353Y-77610173D01*
X139966413Y-77406732D01*
X139435914Y-77406269D01*
X138945620Y-77608854D01*
X138570173Y-77983647D01*
X138429906Y-78321446D01*
X138291146Y-77985620D01*
X137920000Y-77613826D01*
X137920000Y-77470000D01*
X137880861Y-77273238D01*
X137862148Y-77179160D01*
X137697401Y-76932599D01*
X136825122Y-76060320D01*
X136825162Y-76014833D01*
X136683117Y-75671057D01*
X136420327Y-75407808D01*
X136076799Y-75265162D01*
X135704833Y-75264838D01*
X135361057Y-75406883D01*
X135097808Y-75669673D01*
X134955162Y-76013201D01*
X134954838Y-76385167D01*
X135096883Y-76728943D01*
X135359673Y-76992192D01*
X135703201Y-77134838D01*
X135750077Y-77134879D01*
X136314757Y-77699559D01*
X136030173Y-77983647D01*
X135889906Y-78321446D01*
X135751146Y-77985620D01*
X135376353Y-77610173D01*
X134886413Y-77406732D01*
X134355914Y-77406269D01*
X133865620Y-77608854D01*
X133490173Y-77983647D01*
X133349906Y-78321446D01*
X133211146Y-77985620D01*
X132836353Y-77610173D01*
X132346413Y-77406732D01*
X131815914Y-77406269D01*
X131325620Y-77608854D01*
X130995945Y-77937955D01*
X130962295Y-77759120D01*
X130795408Y-77499771D01*
X130540769Y-77325783D01*
X130238500Y-77264572D01*
X128841500Y-77264572D01*
X128559120Y-77317705D01*
X128299771Y-77484592D01*
X128179578Y-77660500D01*
X123637144Y-77660500D01*
X122683322Y-76706678D01*
X122333107Y-76472672D01*
X121920000Y-76390500D01*
X119189500Y-76390500D01*
X119189500Y-74991344D01*
X119421729Y-74841908D01*
X119469284Y-74772309D01*
X119520302Y-74823327D01*
X119753691Y-74920000D01*
X120094250Y-74920000D01*
X120253000Y-74761250D01*
X120253000Y-73787000D01*
X120507000Y-73787000D01*
X120507000Y-74761250D01*
X120665750Y-74920000D01*
X121006309Y-74920000D01*
X121239698Y-74823327D01*
X121418327Y-74644699D01*
X121515000Y-74411310D01*
X121515000Y-73945750D01*
X121356250Y-73787000D01*
X120507000Y-73787000D01*
X120253000Y-73787000D01*
X120233000Y-73787000D01*
X120233000Y-73533000D01*
X120253000Y-73533000D01*
X120253000Y-72558750D01*
X120094250Y-72400000D01*
X119753691Y-72400000D01*
X119520302Y-72496673D01*
X119470892Y-72546083D01*
X119436908Y-72493271D01*
X119182269Y-72319283D01*
X119149500Y-72312647D01*
X119149500Y-71713386D01*
X119221729Y-71666908D01*
X119395717Y-71412269D01*
X119444297Y-71172375D01*
X119476838Y-71345317D01*
X119615910Y-71561441D01*
X119828110Y-71706431D01*
X119947752Y-71730659D01*
X120016481Y-71833519D01*
X120624356Y-72441394D01*
X120507000Y-72558750D01*
X120507000Y-73533000D01*
X121356250Y-73533000D01*
X121515000Y-73374250D01*
X121515000Y-73242938D01*
X121555494Y-73269995D01*
X121643083Y-73287418D01*
X121733201Y-73324838D01*
X121831638Y-73324924D01*
X121920000Y-73342500D01*
X122007591Y-73325077D01*
X122105167Y-73325162D01*
X122196143Y-73287572D01*
X122284506Y-73269995D01*
X122358761Y-73220379D01*
X122448943Y-73183117D01*
X122518610Y-73113572D01*
X122593519Y-73063519D01*
X122643135Y-72989264D01*
X122712192Y-72920327D01*
X122749942Y-72829416D01*
X122799995Y-72754506D01*
X122817418Y-72666917D01*
X122854838Y-72576799D01*
X122854924Y-72478362D01*
X122872500Y-72390000D01*
X122855077Y-72302409D01*
X122855162Y-72204833D01*
X122817572Y-72113857D01*
X122805703Y-72054188D01*
X128785417Y-72054188D01*
X128847071Y-72289800D01*
X129347480Y-72465927D01*
X129877199Y-72437148D01*
X130232929Y-72289800D01*
X130294583Y-72054188D01*
X129540000Y-71299605D01*
X128785417Y-72054188D01*
X122805703Y-72054188D01*
X122799995Y-72025494D01*
X122750379Y-71951239D01*
X122713117Y-71861057D01*
X122643572Y-71791390D01*
X122593519Y-71716481D01*
X122012788Y-71135750D01*
X124470000Y-71135750D01*
X124470000Y-71476309D01*
X124566673Y-71709698D01*
X124745301Y-71888327D01*
X124978690Y-71985000D01*
X125444250Y-71985000D01*
X125603000Y-71826250D01*
X125603000Y-70977000D01*
X125857000Y-70977000D01*
X125857000Y-71826250D01*
X126015750Y-71985000D01*
X126481310Y-71985000D01*
X126714699Y-71888327D01*
X126893327Y-71709698D01*
X126990000Y-71476309D01*
X126990000Y-71135750D01*
X126831250Y-70977000D01*
X125857000Y-70977000D01*
X125603000Y-70977000D01*
X124628750Y-70977000D01*
X124470000Y-71135750D01*
X122012788Y-71135750D01*
X121947440Y-71070402D01*
X121947440Y-70927480D01*
X128194073Y-70927480D01*
X128222852Y-71457199D01*
X128370200Y-71812929D01*
X128605812Y-71874583D01*
X129360395Y-71120000D01*
X128605812Y-70365417D01*
X128370200Y-70427071D01*
X128194073Y-70927480D01*
X121947440Y-70927480D01*
X121947440Y-70490000D01*
X121917199Y-70329284D01*
X121935000Y-70286309D01*
X121935000Y-70135750D01*
X121776250Y-69977000D01*
X121673995Y-69977000D01*
X121551890Y-69893569D01*
X121338089Y-69850273D01*
X121535317Y-69813162D01*
X121675433Y-69723000D01*
X121776250Y-69723000D01*
X121935000Y-69564250D01*
X121935000Y-69413691D01*
X121915651Y-69366979D01*
X121947440Y-69210000D01*
X121947440Y-68684478D01*
X122786481Y-69523519D01*
X123095494Y-69729995D01*
X123460000Y-69802500D01*
X124642460Y-69802500D01*
X124709006Y-69847969D01*
X124566673Y-69990302D01*
X124470000Y-70223691D01*
X124470000Y-70564250D01*
X124628750Y-70723000D01*
X125603000Y-70723000D01*
X125603000Y-70703000D01*
X125857000Y-70703000D01*
X125857000Y-70723000D01*
X126831250Y-70723000D01*
X126990000Y-70564250D01*
X126990000Y-70223691D01*
X126974310Y-70185812D01*
X128785417Y-70185812D01*
X129540000Y-70940395D01*
X130294583Y-70185812D01*
X130232929Y-69950200D01*
X129732520Y-69774073D01*
X129202801Y-69802852D01*
X128847071Y-69950200D01*
X128785417Y-70185812D01*
X126974310Y-70185812D01*
X126893327Y-69990302D01*
X126752090Y-69849064D01*
X126806441Y-69814090D01*
X126951431Y-69601890D01*
X127002440Y-69350000D01*
X127002440Y-68350000D01*
X126958162Y-68114683D01*
X126819090Y-67898559D01*
X126606890Y-67753569D01*
X126355000Y-67702560D01*
X125105000Y-67702560D01*
X124869683Y-67746838D01*
X124653559Y-67885910D01*
X124645640Y-67897500D01*
X123854538Y-67897500D01*
X122872500Y-66915462D01*
X122872500Y-62230000D01*
X122799995Y-61865494D01*
X122593519Y-61556481D01*
X121323519Y-60286481D01*
X121014506Y-60080005D01*
X120650000Y-60007500D01*
X115570000Y-60007500D01*
X115205494Y-60080005D01*
X114896481Y-60286481D01*
X112652163Y-62530799D01*
X112445687Y-62839812D01*
X112373182Y-63204318D01*
X112373182Y-75975682D01*
X112445687Y-76340188D01*
X112592721Y-76560241D01*
X111365462Y-77787500D01*
X110490000Y-77787500D01*
X110306589Y-77823983D01*
X110172563Y-77667000D01*
X109347000Y-77667000D01*
X109347000Y-77687000D01*
X109093000Y-77687000D01*
X109093000Y-77667000D01*
X108267437Y-77667000D01*
X108118771Y-77841131D01*
X108180560Y-78019926D01*
X108093559Y-78075910D01*
X107948569Y-78288110D01*
X107897560Y-78540000D01*
X101727000Y-78540000D01*
X101727000Y-76841874D01*
X105150881Y-76841874D01*
X105352632Y-77252763D01*
X105693322Y-77540002D01*
X106118000Y-77675000D01*
X106393000Y-77675000D01*
X106393000Y-76667000D01*
X106647000Y-76667000D01*
X106647000Y-77675000D01*
X106922000Y-77675000D01*
X107346678Y-77540002D01*
X107687368Y-77252763D01*
X107694190Y-77238869D01*
X108118771Y-77238869D01*
X108267437Y-77413000D01*
X109093000Y-77413000D01*
X109093000Y-76447266D01*
X109347000Y-76447266D01*
X109347000Y-77413000D01*
X110172563Y-77413000D01*
X110321229Y-77238869D01*
X110179568Y-76828951D01*
X109891821Y-76504448D01*
X109517938Y-76320732D01*
X109347000Y-76447266D01*
X109093000Y-76447266D01*
X108922062Y-76320732D01*
X108548179Y-76504448D01*
X108260432Y-76828951D01*
X108118771Y-77238869D01*
X107694190Y-77238869D01*
X107889119Y-76841874D01*
X107762954Y-76667000D01*
X106647000Y-76667000D01*
X106393000Y-76667000D01*
X105277046Y-76667000D01*
X105150881Y-76841874D01*
X101727000Y-76841874D01*
X101727000Y-76238126D01*
X105150881Y-76238126D01*
X105277046Y-76413000D01*
X106393000Y-76413000D01*
X106393000Y-75405000D01*
X106647000Y-75405000D01*
X106647000Y-76413000D01*
X107762954Y-76413000D01*
X107889119Y-76238126D01*
X107687368Y-75827237D01*
X107346678Y-75539998D01*
X106922000Y-75405000D01*
X106647000Y-75405000D01*
X106393000Y-75405000D01*
X106118000Y-75405000D01*
X105693322Y-75539998D01*
X105352632Y-75827237D01*
X105150881Y-76238126D01*
X101727000Y-76238126D01*
X101727000Y-62980218D01*
X102361847Y-63616174D01*
X103513674Y-64094454D01*
X104760854Y-64095543D01*
X105913515Y-63619273D01*
X106796174Y-62738153D01*
X107274454Y-61586326D01*
X107275543Y-60339146D01*
X106799273Y-59186485D01*
X106160903Y-58547000D01*
X171969782Y-58547000D01*
X171333826Y-59181847D01*
X171333826Y-59181847D01*
G37*
X171333826Y-59181847D02*
X170855546Y-60333674D01*
X170854457Y-61580854D01*
X171330727Y-62733515D01*
X172211847Y-63616174D01*
X173363674Y-64094454D01*
X174610854Y-64095543D01*
X175763515Y-63619273D01*
X176403000Y-62980903D01*
X176403000Y-89419782D01*
X175768153Y-88783826D01*
X174616326Y-88305546D01*
X173369146Y-88304457D01*
X172216485Y-88780727D01*
X171333826Y-89661847D01*
X170855546Y-90813674D01*
X170854457Y-92060854D01*
X171330727Y-93213515D01*
X171969097Y-93853000D01*
X106160218Y-93853000D01*
X106796174Y-93218153D01*
X107274454Y-92066326D01*
X107275543Y-90819146D01*
X106799273Y-89666485D01*
X106319377Y-89185750D01*
X111245000Y-89185750D01*
X111245000Y-89401310D01*
X111341673Y-89634699D01*
X111520302Y-89813327D01*
X111753691Y-89910000D01*
X111994250Y-89910000D01*
X112153000Y-89751250D01*
X112153000Y-89027000D01*
X111403750Y-89027000D01*
X111245000Y-89185750D01*
X106319377Y-89185750D01*
X105918153Y-88783826D01*
X104990642Y-88398690D01*
X111245000Y-88398690D01*
X111245000Y-88614250D01*
X111403750Y-88773000D01*
X112153000Y-88773000D01*
X112153000Y-88048750D01*
X111994250Y-87890000D01*
X111753691Y-87890000D01*
X111520302Y-87986673D01*
X111341673Y-88165301D01*
X111245000Y-88398690D01*
X104990642Y-88398690D01*
X104766326Y-88305546D01*
X103519146Y-88304457D01*
X102366485Y-88780727D01*
X101727000Y-89419097D01*
X101727000Y-83841874D01*
X105150881Y-83841874D01*
X105352632Y-84252763D01*
X105693322Y-84540002D01*
X106118000Y-84675000D01*
X106393000Y-84675000D01*
X106393000Y-83667000D01*
X106647000Y-83667000D01*
X106647000Y-84675000D01*
X106922000Y-84675000D01*
X107346678Y-84540002D01*
X107687368Y-84252763D01*
X107759552Y-84105750D01*
X111245000Y-84105750D01*
X111245000Y-84321310D01*
X111341673Y-84554699D01*
X111520302Y-84733327D01*
X111753691Y-84830000D01*
X111994250Y-84830000D01*
X112153000Y-84671250D01*
X112153000Y-83947000D01*
X111403750Y-83947000D01*
X111245000Y-84105750D01*
X107759552Y-84105750D01*
X107889119Y-83841874D01*
X107762954Y-83667000D01*
X106647000Y-83667000D01*
X106393000Y-83667000D01*
X105277046Y-83667000D01*
X105150881Y-83841874D01*
X101727000Y-83841874D01*
X101727000Y-83238126D01*
X105150881Y-83238126D01*
X105277046Y-83413000D01*
X106393000Y-83413000D01*
X106393000Y-82405000D01*
X106647000Y-82405000D01*
X106647000Y-83413000D01*
X107762954Y-83413000D01*
X107889119Y-83238126D01*
X107694191Y-82841131D01*
X108118771Y-82841131D01*
X108260432Y-83251049D01*
X108548179Y-83575552D01*
X108922062Y-83759268D01*
X109093000Y-83632734D01*
X109093000Y-82667000D01*
X109347000Y-82667000D01*
X109347000Y-83632734D01*
X109517938Y-83759268D01*
X109891821Y-83575552D01*
X110119588Y-83318690D01*
X111245000Y-83318690D01*
X111245000Y-83534250D01*
X111403750Y-83693000D01*
X112153000Y-83693000D01*
X112153000Y-82968750D01*
X111994250Y-82810000D01*
X111753691Y-82810000D01*
X111520302Y-82906673D01*
X111341673Y-83085301D01*
X111245000Y-83318690D01*
X110119588Y-83318690D01*
X110179568Y-83251049D01*
X110321229Y-82841131D01*
X110172563Y-82667000D01*
X109347000Y-82667000D01*
X109093000Y-82667000D01*
X108267437Y-82667000D01*
X108118771Y-82841131D01*
X107694191Y-82841131D01*
X107687368Y-82827237D01*
X107346678Y-82539998D01*
X106922000Y-82405000D01*
X106647000Y-82405000D01*
X106393000Y-82405000D01*
X106118000Y-82405000D01*
X105693322Y-82539998D01*
X105352632Y-82827237D01*
X105150881Y-83238126D01*
X101727000Y-83238126D01*
X101727000Y-78540000D01*
X107897560Y-78540000D01*
X107897560Y-78940000D01*
X107921944Y-79069589D01*
X107897560Y-79190000D01*
X107897560Y-79590000D01*
X107921944Y-79719589D01*
X107897560Y-79840000D01*
X107897560Y-80240000D01*
X107921944Y-80369589D01*
X107897560Y-80490000D01*
X107897560Y-80890000D01*
X107917450Y-80995705D01*
X107910000Y-81013690D01*
X107910000Y-81081250D01*
X107939004Y-81110254D01*
X107941838Y-81125317D01*
X108080910Y-81341441D01*
X108225156Y-81440000D01*
X108068750Y-81440000D01*
X107910000Y-81598750D01*
X107910000Y-81666310D01*
X108006673Y-81899699D01*
X108177090Y-82070115D01*
X108118771Y-82238869D01*
X108267437Y-82413000D01*
X109093000Y-82413000D01*
X109093000Y-82393000D01*
X109347000Y-82393000D01*
X109347000Y-82413000D01*
X110172563Y-82413000D01*
X110321229Y-82238869D01*
X110262910Y-82070115D01*
X110433327Y-81899699D01*
X110530000Y-81666310D01*
X110530000Y-81598750D01*
X110371250Y-81440000D01*
X110212933Y-81440000D01*
X110346441Y-81354090D01*
X110491431Y-81141890D01*
X110497035Y-81114215D01*
X110530000Y-81081250D01*
X110530000Y-81013690D01*
X110521532Y-80993247D01*
X110542440Y-80890000D01*
X110542440Y-80800000D01*
X114015198Y-80800000D01*
X115032599Y-81817401D01*
X115260980Y-81970000D01*
X114870000Y-81970000D01*
X114579161Y-82027852D01*
X114332599Y-82192599D01*
X113727638Y-82797560D01*
X113380000Y-82797560D01*
X113144683Y-82841838D01*
X113041354Y-82908329D01*
X113039698Y-82906673D01*
X112806309Y-82810000D01*
X112565750Y-82810000D01*
X112407000Y-82968750D01*
X112407000Y-83693000D01*
X112427000Y-83693000D01*
X112427000Y-83947000D01*
X112407000Y-83947000D01*
X112407000Y-84671250D01*
X112565750Y-84830000D01*
X112806309Y-84830000D01*
X113039698Y-84733327D01*
X113041068Y-84731957D01*
X113128110Y-84791431D01*
X113380000Y-84842440D01*
X113727638Y-84842440D01*
X115782599Y-86897401D01*
X116010979Y-87050000D01*
X114870000Y-87050000D01*
X114579161Y-87107852D01*
X114332599Y-87272599D01*
X113727638Y-87877560D01*
X113380000Y-87877560D01*
X113144683Y-87921838D01*
X113041354Y-87988329D01*
X113039698Y-87986673D01*
X112806309Y-87890000D01*
X112565750Y-87890000D01*
X112407000Y-88048750D01*
X112407000Y-88773000D01*
X112427000Y-88773000D01*
X112427000Y-89027000D01*
X112407000Y-89027000D01*
X112407000Y-89751250D01*
X112565750Y-89910000D01*
X112806309Y-89910000D01*
X113039698Y-89813327D01*
X113041068Y-89811957D01*
X113128110Y-89871431D01*
X113380000Y-89922440D01*
X114180000Y-89922440D01*
X114415317Y-89878162D01*
X114631441Y-89739090D01*
X114776431Y-89526890D01*
X114827440Y-89275000D01*
X114827440Y-88927362D01*
X115184802Y-88570000D01*
X116704895Y-88570000D01*
X116795910Y-88711441D01*
X117008110Y-88856431D01*
X117257413Y-88906916D01*
X117204683Y-88916838D01*
X116988559Y-89055910D01*
X116843569Y-89268110D01*
X116840919Y-89281197D01*
X116704090Y-89068559D01*
X116491890Y-88923569D01*
X116240000Y-88872560D01*
X115540000Y-88872560D01*
X115304683Y-88916838D01*
X115088559Y-89055910D01*
X114943569Y-89268110D01*
X114892560Y-89520000D01*
X114892560Y-89522183D01*
X114867852Y-89559161D01*
X114810000Y-89850000D01*
X114810862Y-89854336D01*
X114160320Y-90504878D01*
X114114833Y-90504838D01*
X113771057Y-90646883D01*
X113507808Y-90909673D01*
X113365162Y-91253201D01*
X113364838Y-91625167D01*
X113506883Y-91968943D01*
X113769673Y-92232192D01*
X114113201Y-92374838D01*
X114485167Y-92375162D01*
X114828943Y-92233117D01*
X115092192Y-91970327D01*
X115234838Y-91626799D01*
X115234879Y-91579923D01*
X115379803Y-91434999D01*
X115540000Y-91467440D01*
X116240000Y-91467440D01*
X116475317Y-91423162D01*
X116691441Y-91284090D01*
X116836431Y-91071890D01*
X116839081Y-91058803D01*
X116975910Y-91271441D01*
X117188110Y-91416431D01*
X117440000Y-91467440D01*
X118140000Y-91467440D01*
X118375317Y-91423162D01*
X118591441Y-91284090D01*
X118736431Y-91071890D01*
X118765164Y-90930000D01*
X118993156Y-90930000D01*
X119035910Y-90996441D01*
X119248110Y-91141431D01*
X119500000Y-91192440D01*
X120300000Y-91192440D01*
X120535317Y-91148162D01*
X120638646Y-91081671D01*
X120640302Y-91083327D01*
X120873691Y-91180000D01*
X121114250Y-91180000D01*
X121273000Y-91021250D01*
X121273000Y-90297000D01*
X121527000Y-90297000D01*
X121527000Y-91021250D01*
X121685750Y-91180000D01*
X121926309Y-91180000D01*
X122159698Y-91083327D01*
X122338327Y-90904699D01*
X122435000Y-90671310D01*
X122435000Y-90455750D01*
X122276250Y-90297000D01*
X121527000Y-90297000D01*
X121273000Y-90297000D01*
X121253000Y-90297000D01*
X121253000Y-90043000D01*
X121273000Y-90043000D01*
X121273000Y-90023000D01*
X121527000Y-90023000D01*
X121527000Y-90043000D01*
X122276250Y-90043000D01*
X122435000Y-89884250D01*
X122435000Y-89668690D01*
X122338327Y-89435301D01*
X122159698Y-89256673D01*
X121926309Y-89160000D01*
X121685750Y-89160000D01*
X121527002Y-89318748D01*
X121527002Y-89160000D01*
X121464802Y-89160000D01*
X122431341Y-88193461D01*
X122659673Y-88422192D01*
X122950000Y-88542747D01*
X122950000Y-89272069D01*
X122858559Y-89330910D01*
X122713569Y-89543110D01*
X122662560Y-89795000D01*
X122662560Y-90545000D01*
X122706838Y-90780317D01*
X122845910Y-90996441D01*
X123058110Y-91141431D01*
X123310000Y-91192440D01*
X124110000Y-91192440D01*
X124345317Y-91148162D01*
X124448646Y-91081671D01*
X124450302Y-91083327D01*
X124683691Y-91180000D01*
X124924250Y-91180000D01*
X125083000Y-91021250D01*
X125083000Y-90297000D01*
X125337000Y-90297000D01*
X125337000Y-91021250D01*
X125495750Y-91180000D01*
X125736309Y-91180000D01*
X125969698Y-91083327D01*
X126148327Y-90904699D01*
X126245000Y-90671310D01*
X126245000Y-90455750D01*
X126086250Y-90297000D01*
X125337000Y-90297000D01*
X125083000Y-90297000D01*
X125063000Y-90297000D01*
X125063000Y-90043000D01*
X125083000Y-90043000D01*
X125083000Y-89318750D01*
X125337000Y-89318750D01*
X125337000Y-90043000D01*
X126086250Y-90043000D01*
X126245000Y-89884250D01*
X126245000Y-89668690D01*
X126148327Y-89435301D01*
X125969698Y-89256673D01*
X125736309Y-89160000D01*
X125495750Y-89160000D01*
X125337000Y-89318750D01*
X125083000Y-89318750D01*
X124924250Y-89160000D01*
X124683691Y-89160000D01*
X124470000Y-89248514D01*
X124470000Y-88694802D01*
X124599680Y-88565122D01*
X124645167Y-88565162D01*
X124988943Y-88423117D01*
X125252192Y-88160327D01*
X125394838Y-87816799D01*
X125394978Y-87656477D01*
X125445000Y-87405000D01*
X125445000Y-86214402D01*
X125460000Y-86217440D01*
X125710000Y-86217440D01*
X125945317Y-86173162D01*
X126161441Y-86034090D01*
X126306431Y-85821890D01*
X126357440Y-85570000D01*
X126357440Y-84870000D01*
X126313162Y-84634683D01*
X126285000Y-84590918D01*
X126285000Y-84520750D01*
X126126250Y-84362000D01*
X126091313Y-84362000D01*
X126040646Y-84327380D01*
X126188327Y-84179698D01*
X126282920Y-83951330D01*
X126285000Y-83949250D01*
X126285000Y-83690750D01*
X126282920Y-83688670D01*
X126188327Y-83460302D01*
X126040159Y-83312133D01*
X126093203Y-83278000D01*
X126126250Y-83278000D01*
X126224250Y-83180000D01*
X130940000Y-83180000D01*
X131230839Y-83122148D01*
X131477401Y-82957401D01*
X134361527Y-80073275D01*
X134884086Y-80073731D01*
X135374380Y-79871146D01*
X135749827Y-79496353D01*
X135890094Y-79158554D01*
X136028854Y-79494380D01*
X136403647Y-79869827D01*
X136893587Y-80073268D01*
X137424086Y-80073731D01*
X137914380Y-79871146D01*
X138289827Y-79496353D01*
X138430094Y-79158554D01*
X138568854Y-79494380D01*
X138943647Y-79869827D01*
X139433587Y-80073268D01*
X139964086Y-80073731D01*
X140454380Y-79871146D01*
X140829827Y-79496353D01*
X140970094Y-79158554D01*
X141108854Y-79494380D01*
X141483647Y-79869827D01*
X141973587Y-80073268D01*
X142504086Y-80073731D01*
X142994380Y-79871146D01*
X143369827Y-79496353D01*
X143510094Y-79158554D01*
X143648854Y-79494380D01*
X144023647Y-79869827D01*
X144513587Y-80073268D01*
X145044086Y-80073731D01*
X145534380Y-79871146D01*
X145909827Y-79496353D01*
X146050094Y-79158554D01*
X146188854Y-79494380D01*
X146563647Y-79869827D01*
X147053587Y-80073268D01*
X147584086Y-80073731D01*
X148074380Y-79871146D01*
X148449827Y-79496353D01*
X148590094Y-79158554D01*
X148728854Y-79494380D01*
X149103647Y-79869827D01*
X149593587Y-80073268D01*
X150124086Y-80073731D01*
X150614380Y-79871146D01*
X150989827Y-79496353D01*
X151130094Y-79158554D01*
X151268854Y-79494380D01*
X151643647Y-79869827D01*
X152133587Y-80073268D01*
X152664086Y-80073731D01*
X153154380Y-79871146D01*
X153526174Y-79500000D01*
X155409367Y-79500000D01*
X155275162Y-79823201D01*
X155274838Y-80195167D01*
X155416883Y-80538943D01*
X155679673Y-80802192D01*
X156023201Y-80944838D01*
X156070077Y-80944879D01*
X156942599Y-81817401D01*
X157189160Y-81982148D01*
X157480000Y-82040000D01*
X160578800Y-82040000D01*
X160578800Y-82067402D01*
X160712148Y-82067402D01*
X160578800Y-82200750D01*
X160578800Y-82269909D01*
X160675473Y-82503298D01*
X160854101Y-82681927D01*
X161087490Y-82778600D01*
X161258250Y-82778600D01*
X161417000Y-82619850D01*
X161417000Y-82130640D01*
X161671000Y-82130640D01*
X161671000Y-82619850D01*
X161829750Y-82778600D01*
X162000510Y-82778600D01*
X162233899Y-82681927D01*
X162412527Y-82503298D01*
X162509200Y-82269909D01*
X162509200Y-82200750D01*
X162350450Y-82042000D01*
X162178457Y-82042000D01*
X162325641Y-81947290D01*
X162470631Y-81735090D01*
X162474813Y-81714437D01*
X162509200Y-81680050D01*
X162509200Y-81610891D01*
X162500188Y-81589134D01*
X162521640Y-81483200D01*
X162521640Y-81076800D01*
X162496866Y-80945138D01*
X162521640Y-80822800D01*
X162521640Y-80416400D01*
X162477362Y-80181083D01*
X162338290Y-79964959D01*
X162126090Y-79819969D01*
X161874200Y-79768960D01*
X161213800Y-79768960D01*
X160978483Y-79813238D01*
X160762359Y-79952310D01*
X160617369Y-80164510D01*
X160566360Y-80416400D01*
X160566360Y-80520000D01*
X157794802Y-80520000D01*
X157145122Y-79870320D01*
X157145162Y-79824833D01*
X157010944Y-79500000D01*
X163029367Y-79500000D01*
X162895162Y-79823201D01*
X162895106Y-79887481D01*
X162794359Y-79952310D01*
X162649369Y-80164510D01*
X162598360Y-80416400D01*
X162598360Y-80822800D01*
X162642638Y-81058117D01*
X162781710Y-81274241D01*
X162789806Y-81279773D01*
X162649369Y-81485310D01*
X162598360Y-81737200D01*
X162598360Y-82143600D01*
X162642638Y-82378917D01*
X162781710Y-82595041D01*
X162993910Y-82740031D01*
X163245800Y-82791040D01*
X163906200Y-82791040D01*
X164141517Y-82746762D01*
X164213566Y-82700400D01*
X170789600Y-82700400D01*
X170830858Y-82692193D01*
X171265255Y-82778600D01*
X171634745Y-82778600D01*
X172208234Y-82664526D01*
X172694415Y-82339670D01*
X173019271Y-81853489D01*
X173133345Y-81280000D01*
X173019271Y-80706511D01*
X172694415Y-80220330D01*
X172379634Y-80010000D01*
X172694415Y-79799670D01*
X173019271Y-79313489D01*
X173133345Y-78740000D01*
X173019271Y-78166511D01*
X172694415Y-77680330D01*
X172379634Y-77470000D01*
X172694415Y-77259670D01*
X173019271Y-76773489D01*
X173133345Y-76200000D01*
X173019271Y-75626511D01*
X172694415Y-75140330D01*
X172680087Y-75130757D01*
X172701317Y-75126762D01*
X172917441Y-74987690D01*
X173062431Y-74775490D01*
X173113440Y-74523600D01*
X173113440Y-72796400D01*
X173069162Y-72561083D01*
X172930090Y-72344959D01*
X172717890Y-72199969D01*
X172466000Y-72148960D01*
X170434000Y-72148960D01*
X170198683Y-72193238D01*
X170047689Y-72290400D01*
X169510402Y-72290400D01*
X169582631Y-72184690D01*
X169633640Y-71932800D01*
X169633640Y-71718759D01*
X169702192Y-71650327D01*
X169844838Y-71306799D01*
X169845162Y-70934833D01*
X169703117Y-70591057D01*
X169440327Y-70327808D01*
X169096799Y-70185162D01*
X168724833Y-70184838D01*
X168381057Y-70326883D01*
X168117808Y-70589673D01*
X167975162Y-70933201D01*
X167975106Y-70997481D01*
X167874359Y-71062310D01*
X167729369Y-71274510D01*
X167678360Y-71526400D01*
X167678360Y-71932800D01*
X167722638Y-72168117D01*
X167861710Y-72384241D01*
X167869806Y-72389773D01*
X167729369Y-72595310D01*
X167678360Y-72847200D01*
X167678360Y-73253600D01*
X167722638Y-73488917D01*
X167861710Y-73705041D01*
X168073910Y-73850031D01*
X168325800Y-73901040D01*
X168986200Y-73901040D01*
X169221517Y-73856762D01*
X169293566Y-73810400D01*
X169786560Y-73810400D01*
X169786560Y-74523600D01*
X169830838Y-74758917D01*
X169969910Y-74975041D01*
X170182110Y-75120031D01*
X170223439Y-75128400D01*
X170205585Y-75140330D01*
X169880729Y-75626511D01*
X169786467Y-76100400D01*
X166035087Y-76100400D01*
X166035162Y-76014833D01*
X165893117Y-75671057D01*
X165630327Y-75407808D01*
X165286799Y-75265162D01*
X165239923Y-75265121D01*
X164977001Y-75002199D01*
X164730439Y-74837452D01*
X164439600Y-74779600D01*
X164216092Y-74779600D01*
X164158090Y-74739969D01*
X163906200Y-74688960D01*
X163245800Y-74688960D01*
X163010483Y-74733238D01*
X162794359Y-74872310D01*
X162649369Y-75084510D01*
X162598360Y-75336400D01*
X162598360Y-75742800D01*
X162642638Y-75978117D01*
X162781710Y-76194241D01*
X162789806Y-76199773D01*
X162649369Y-76405310D01*
X162598360Y-76657200D01*
X162598360Y-77063600D01*
X162642638Y-77298917D01*
X162781710Y-77515041D01*
X162993910Y-77660031D01*
X163245800Y-77711040D01*
X163906200Y-77711040D01*
X164141517Y-77666762D01*
X164213566Y-77620400D01*
X165700177Y-77620400D01*
X165697369Y-77624510D01*
X165646360Y-77876400D01*
X165646360Y-77980000D01*
X158044802Y-77980000D01*
X159064802Y-76960000D01*
X160578800Y-76960000D01*
X160578800Y-76987402D01*
X160712148Y-76987402D01*
X160578800Y-77120750D01*
X160578800Y-77189909D01*
X160675473Y-77423298D01*
X160854101Y-77601927D01*
X161087490Y-77698600D01*
X161258250Y-77698600D01*
X161417000Y-77539850D01*
X161417000Y-77050640D01*
X161671000Y-77050640D01*
X161671000Y-77539850D01*
X161829750Y-77698600D01*
X162000510Y-77698600D01*
X162233899Y-77601927D01*
X162412527Y-77423298D01*
X162509200Y-77189909D01*
X162509200Y-77120750D01*
X162350450Y-76962000D01*
X162178457Y-76962000D01*
X162325641Y-76867290D01*
X162470631Y-76655090D01*
X162474813Y-76634437D01*
X162509200Y-76600050D01*
X162509200Y-76530891D01*
X162500188Y-76509134D01*
X162521640Y-76403200D01*
X162521640Y-75996800D01*
X162496866Y-75865138D01*
X162521640Y-75742800D01*
X162521640Y-75336400D01*
X162477362Y-75101083D01*
X162338290Y-74884959D01*
X162126090Y-74739969D01*
X161874200Y-74688960D01*
X161213800Y-74688960D01*
X160978483Y-74733238D01*
X160762359Y-74872310D01*
X160617369Y-75084510D01*
X160566360Y-75336400D01*
X160566360Y-75440000D01*
X158750000Y-75440000D01*
X158459160Y-75497852D01*
X158212599Y-75662599D01*
X157165198Y-76710000D01*
X154234802Y-76710000D01*
X157794802Y-73150000D01*
X165658800Y-73150000D01*
X165658800Y-73177402D01*
X165792148Y-73177402D01*
X165658800Y-73310750D01*
X165658800Y-73379909D01*
X165755473Y-73613298D01*
X165934101Y-73791927D01*
X166167490Y-73888600D01*
X166338250Y-73888600D01*
X166497000Y-73729850D01*
X166497000Y-73240640D01*
X166751000Y-73240640D01*
X166751000Y-73729850D01*
X166909750Y-73888600D01*
X167080510Y-73888600D01*
X167313899Y-73791927D01*
X167492527Y-73613298D01*
X167589200Y-73379909D01*
X167589200Y-73310750D01*
X167430450Y-73152000D01*
X167258457Y-73152000D01*
X167405641Y-73057290D01*
X167550631Y-72845090D01*
X167554813Y-72824437D01*
X167589200Y-72790050D01*
X167589200Y-72720891D01*
X167580188Y-72699134D01*
X167601640Y-72593200D01*
X167601640Y-72186800D01*
X167576866Y-72055138D01*
X167601640Y-71932800D01*
X167601640Y-71526400D01*
X167557362Y-71291083D01*
X167418290Y-71074959D01*
X167206090Y-70929969D01*
X166954200Y-70878960D01*
X166293800Y-70878960D01*
X166058483Y-70923238D01*
X165842359Y-71062310D01*
X165697369Y-71274510D01*
X165646360Y-71526400D01*
X165646360Y-71630000D01*
X157480000Y-71630000D01*
X157189161Y-71687852D01*
X156973837Y-71831726D01*
X156740327Y-71597808D01*
X156396799Y-71455162D01*
X156349923Y-71455121D01*
X155477401Y-70582599D01*
X155230839Y-70417852D01*
X154940000Y-70360000D01*
X153525536Y-70360000D01*
X153156353Y-69990173D01*
X152666413Y-69786732D01*
X152135914Y-69786269D01*
X151645620Y-69988854D01*
X151270173Y-70363647D01*
X151129906Y-70701446D01*
X150991146Y-70365620D01*
X150616353Y-69990173D01*
X150126413Y-69786732D01*
X149595914Y-69786269D01*
X149105620Y-69988854D01*
X148730173Y-70363647D01*
X148589906Y-70701446D01*
X148451146Y-70365620D01*
X148076353Y-69990173D01*
X147586413Y-69786732D01*
X147055914Y-69786269D01*
X146565620Y-69988854D01*
X146190173Y-70363647D01*
X146049906Y-70701446D01*
X145911146Y-70365620D01*
X145536353Y-69990173D01*
X145046413Y-69786732D01*
X144515914Y-69786269D01*
X144025620Y-69988854D01*
X143650173Y-70363647D01*
X143509906Y-70701446D01*
X143371146Y-70365620D01*
X142996353Y-69990173D01*
X142506413Y-69786732D01*
X141975914Y-69786269D01*
X141485620Y-69988854D01*
X141110173Y-70363647D01*
X140969906Y-70701446D01*
X140831146Y-70365620D01*
X140456353Y-69990173D01*
X139966413Y-69786732D01*
X139435914Y-69786269D01*
X138945620Y-69988854D01*
X138570173Y-70363647D01*
X138429906Y-70701446D01*
X138291146Y-70365620D01*
X137916353Y-69990173D01*
X137426413Y-69786732D01*
X136895914Y-69786269D01*
X136405620Y-69988854D01*
X136030173Y-70363647D01*
X135889906Y-70701446D01*
X135751146Y-70365620D01*
X135376353Y-69990173D01*
X134886413Y-69786732D01*
X134355914Y-69786269D01*
X133865620Y-69988854D01*
X133490173Y-70363647D01*
X133349906Y-70701446D01*
X133211146Y-70365620D01*
X132836353Y-69990173D01*
X132346413Y-69786732D01*
X131815914Y-69786269D01*
X131325620Y-69988854D01*
X130950173Y-70363647D01*
X130816686Y-70685118D01*
X130709800Y-70427071D01*
X130474188Y-70365417D01*
X129719605Y-71120000D01*
X130474188Y-71874583D01*
X130709800Y-71812929D01*
X130808083Y-71533688D01*
X130948854Y-71874380D01*
X131323647Y-72249827D01*
X131813587Y-72453268D01*
X132344086Y-72453731D01*
X132834380Y-72251146D01*
X133209827Y-71876353D01*
X133350094Y-71538554D01*
X133488854Y-71874380D01*
X133863647Y-72249827D01*
X134353587Y-72453268D01*
X134884086Y-72453731D01*
X135374380Y-72251146D01*
X135749827Y-71876353D01*
X135890094Y-71538554D01*
X136028854Y-71874380D01*
X136403647Y-72249827D01*
X136893587Y-72453268D01*
X137424086Y-72453731D01*
X137914380Y-72251146D01*
X138289827Y-71876353D01*
X138430094Y-71538554D01*
X138568854Y-71874380D01*
X138943647Y-72249827D01*
X139433587Y-72453268D01*
X139964086Y-72453731D01*
X140454380Y-72251146D01*
X140829827Y-71876353D01*
X140970094Y-71538554D01*
X141108854Y-71874380D01*
X141483647Y-72249827D01*
X141973587Y-72453268D01*
X142504086Y-72453731D01*
X142994380Y-72251146D01*
X143369827Y-71876353D01*
X143510094Y-71538554D01*
X143648854Y-71874380D01*
X144023647Y-72249827D01*
X144513587Y-72453268D01*
X145044086Y-72453731D01*
X145534380Y-72251146D01*
X145909827Y-71876353D01*
X146050094Y-71538554D01*
X146188854Y-71874380D01*
X146563647Y-72249827D01*
X147053587Y-72453268D01*
X147584086Y-72453731D01*
X148074380Y-72251146D01*
X148449827Y-71876353D01*
X148590094Y-71538554D01*
X148728854Y-71874380D01*
X149103647Y-72249827D01*
X149593587Y-72453268D01*
X150124086Y-72453731D01*
X150614380Y-72251146D01*
X150989827Y-71876353D01*
X151130094Y-71538554D01*
X151268854Y-71874380D01*
X151643647Y-72249827D01*
X152133587Y-72453268D01*
X152664086Y-72453731D01*
X153154380Y-72251146D01*
X153526174Y-71880000D01*
X154625198Y-71880000D01*
X155274878Y-72529680D01*
X155274838Y-72575167D01*
X155416883Y-72918943D01*
X155646369Y-73148829D01*
X153355198Y-75440000D01*
X149860000Y-75440000D01*
X149617414Y-75488254D01*
X149569160Y-75497852D01*
X149322599Y-75662599D01*
X147578473Y-77406725D01*
X147055914Y-77406269D01*
X146565620Y-77608854D01*
X146190173Y-77983647D01*
X146049906Y-78321446D01*
X145911146Y-77985620D01*
X145536353Y-77610173D01*
X145046413Y-77406732D01*
X144515914Y-77406269D01*
X144025620Y-77608854D01*
X143650173Y-77983647D01*
X143509906Y-78321446D01*
X143371146Y-77985620D01*
X142996353Y-77610173D01*
X142506413Y-77406732D01*
X141975914Y-77406269D01*
X141485620Y-77608854D01*
X141110173Y-77983647D01*
X140969906Y-78321446D01*
X140831146Y-77985620D01*
X140456353Y-77610173D01*
X139966413Y-77406732D01*
X139435914Y-77406269D01*
X138945620Y-77608854D01*
X138570173Y-77983647D01*
X138429906Y-78321446D01*
X138291146Y-77985620D01*
X137920000Y-77613826D01*
X137920000Y-77470000D01*
X137880861Y-77273238D01*
X137862148Y-77179160D01*
X137697401Y-76932599D01*
X136825122Y-76060320D01*
X136825162Y-76014833D01*
X136683117Y-75671057D01*
X136420327Y-75407808D01*
X136076799Y-75265162D01*
X135704833Y-75264838D01*
X135361057Y-75406883D01*
X135097808Y-75669673D01*
X134955162Y-76013201D01*
X134954838Y-76385167D01*
X135096883Y-76728943D01*
X135359673Y-76992192D01*
X135703201Y-77134838D01*
X135750077Y-77134879D01*
X136314757Y-77699559D01*
X136030173Y-77983647D01*
X135889906Y-78321446D01*
X135751146Y-77985620D01*
X135376353Y-77610173D01*
X134886413Y-77406732D01*
X134355914Y-77406269D01*
X133865620Y-77608854D01*
X133490173Y-77983647D01*
X133349906Y-78321446D01*
X133211146Y-77985620D01*
X132836353Y-77610173D01*
X132346413Y-77406732D01*
X131815914Y-77406269D01*
X131325620Y-77608854D01*
X130995945Y-77937955D01*
X130962295Y-77759120D01*
X130795408Y-77499771D01*
X130540769Y-77325783D01*
X130238500Y-77264572D01*
X128841500Y-77264572D01*
X128559120Y-77317705D01*
X128299771Y-77484592D01*
X128179578Y-77660500D01*
X123637144Y-77660500D01*
X122683322Y-76706678D01*
X122333107Y-76472672D01*
X121920000Y-76390500D01*
X119189500Y-76390500D01*
X119189500Y-74991344D01*
X119421729Y-74841908D01*
X119469284Y-74772309D01*
X119520302Y-74823327D01*
X119753691Y-74920000D01*
X120094250Y-74920000D01*
X120253000Y-74761250D01*
X120253000Y-73787000D01*
X120507000Y-73787000D01*
X120507000Y-74761250D01*
X120665750Y-74920000D01*
X121006309Y-74920000D01*
X121239698Y-74823327D01*
X121418327Y-74644699D01*
X121515000Y-74411310D01*
X121515000Y-73945750D01*
X121356250Y-73787000D01*
X120507000Y-73787000D01*
X120253000Y-73787000D01*
X120233000Y-73787000D01*
X120233000Y-73533000D01*
X120253000Y-73533000D01*
X120253000Y-72558750D01*
X120094250Y-72400000D01*
X119753691Y-72400000D01*
X119520302Y-72496673D01*
X119470892Y-72546083D01*
X119436908Y-72493271D01*
X119182269Y-72319283D01*
X119149500Y-72312647D01*
X119149500Y-71713386D01*
X119221729Y-71666908D01*
X119395717Y-71412269D01*
X119444297Y-71172375D01*
X119476838Y-71345317D01*
X119615910Y-71561441D01*
X119828110Y-71706431D01*
X119947752Y-71730659D01*
X120016481Y-71833519D01*
X120624356Y-72441394D01*
X120507000Y-72558750D01*
X120507000Y-73533000D01*
X121356250Y-73533000D01*
X121515000Y-73374250D01*
X121515000Y-73242938D01*
X121555494Y-73269995D01*
X121643083Y-73287418D01*
X121733201Y-73324838D01*
X121831638Y-73324924D01*
X121920000Y-73342500D01*
X122007591Y-73325077D01*
X122105167Y-73325162D01*
X122196143Y-73287572D01*
X122284506Y-73269995D01*
X122358761Y-73220379D01*
X122448943Y-73183117D01*
X122518610Y-73113572D01*
X122593519Y-73063519D01*
X122643135Y-72989264D01*
X122712192Y-72920327D01*
X122749942Y-72829416D01*
X122799995Y-72754506D01*
X122817418Y-72666917D01*
X122854838Y-72576799D01*
X122854924Y-72478362D01*
X122872500Y-72390000D01*
X122855077Y-72302409D01*
X122855162Y-72204833D01*
X122817572Y-72113857D01*
X122805703Y-72054188D01*
X128785417Y-72054188D01*
X128847071Y-72289800D01*
X129347480Y-72465927D01*
X129877199Y-72437148D01*
X130232929Y-72289800D01*
X130294583Y-72054188D01*
X129540000Y-71299605D01*
X128785417Y-72054188D01*
X122805703Y-72054188D01*
X122799995Y-72025494D01*
X122750379Y-71951239D01*
X122713117Y-71861057D01*
X122643572Y-71791390D01*
X122593519Y-71716481D01*
X122012788Y-71135750D01*
X124470000Y-71135750D01*
X124470000Y-71476309D01*
X124566673Y-71709698D01*
X124745301Y-71888327D01*
X124978690Y-71985000D01*
X125444250Y-71985000D01*
X125603000Y-71826250D01*
X125603000Y-70977000D01*
X125857000Y-70977000D01*
X125857000Y-71826250D01*
X126015750Y-71985000D01*
X126481310Y-71985000D01*
X126714699Y-71888327D01*
X126893327Y-71709698D01*
X126990000Y-71476309D01*
X126990000Y-71135750D01*
X126831250Y-70977000D01*
X125857000Y-70977000D01*
X125603000Y-70977000D01*
X124628750Y-70977000D01*
X124470000Y-71135750D01*
X122012788Y-71135750D01*
X121947440Y-71070402D01*
X121947440Y-70927480D01*
X128194073Y-70927480D01*
X128222852Y-71457199D01*
X128370200Y-71812929D01*
X128605812Y-71874583D01*
X129360395Y-71120000D01*
X128605812Y-70365417D01*
X128370200Y-70427071D01*
X128194073Y-70927480D01*
X121947440Y-70927480D01*
X121947440Y-70490000D01*
X121917199Y-70329284D01*
X121935000Y-70286309D01*
X121935000Y-70135750D01*
X121776250Y-69977000D01*
X121673995Y-69977000D01*
X121551890Y-69893569D01*
X121338089Y-69850273D01*
X121535317Y-69813162D01*
X121675433Y-69723000D01*
X121776250Y-69723000D01*
X121935000Y-69564250D01*
X121935000Y-69413691D01*
X121915651Y-69366979D01*
X121947440Y-69210000D01*
X121947440Y-68684478D01*
X122786481Y-69523519D01*
X123095494Y-69729995D01*
X123460000Y-69802500D01*
X124642460Y-69802500D01*
X124709006Y-69847969D01*
X124566673Y-69990302D01*
X124470000Y-70223691D01*
X124470000Y-70564250D01*
X124628750Y-70723000D01*
X125603000Y-70723000D01*
X125603000Y-70703000D01*
X125857000Y-70703000D01*
X125857000Y-70723000D01*
X126831250Y-70723000D01*
X126990000Y-70564250D01*
X126990000Y-70223691D01*
X126974310Y-70185812D01*
X128785417Y-70185812D01*
X129540000Y-70940395D01*
X130294583Y-70185812D01*
X130232929Y-69950200D01*
X129732520Y-69774073D01*
X129202801Y-69802852D01*
X128847071Y-69950200D01*
X128785417Y-70185812D01*
X126974310Y-70185812D01*
X126893327Y-69990302D01*
X126752090Y-69849064D01*
X126806441Y-69814090D01*
X126951431Y-69601890D01*
X127002440Y-69350000D01*
X127002440Y-68350000D01*
X126958162Y-68114683D01*
X126819090Y-67898559D01*
X126606890Y-67753569D01*
X126355000Y-67702560D01*
X125105000Y-67702560D01*
X124869683Y-67746838D01*
X124653559Y-67885910D01*
X124645640Y-67897500D01*
X123854538Y-67897500D01*
X122872500Y-66915462D01*
X122872500Y-62230000D01*
X122799995Y-61865494D01*
X122593519Y-61556481D01*
X121323519Y-60286481D01*
X121014506Y-60080005D01*
X120650000Y-60007500D01*
X115570000Y-60007500D01*
X115205494Y-60080005D01*
X114896481Y-60286481D01*
X112652163Y-62530799D01*
X112445687Y-62839812D01*
X112373182Y-63204318D01*
X112373182Y-75975682D01*
X112445687Y-76340188D01*
X112592721Y-76560241D01*
X111365462Y-77787500D01*
X110490000Y-77787500D01*
X110306589Y-77823983D01*
X110172563Y-77667000D01*
X109347000Y-77667000D01*
X109347000Y-77687000D01*
X109093000Y-77687000D01*
X109093000Y-77667000D01*
X108267437Y-77667000D01*
X108118771Y-77841131D01*
X108180560Y-78019926D01*
X108093559Y-78075910D01*
X107948569Y-78288110D01*
X107897560Y-78540000D01*
X101727000Y-78540000D01*
X101727000Y-76841874D01*
X105150881Y-76841874D01*
X105352632Y-77252763D01*
X105693322Y-77540002D01*
X106118000Y-77675000D01*
X106393000Y-77675000D01*
X106393000Y-76667000D01*
X106647000Y-76667000D01*
X106647000Y-77675000D01*
X106922000Y-77675000D01*
X107346678Y-77540002D01*
X107687368Y-77252763D01*
X107694190Y-77238869D01*
X108118771Y-77238869D01*
X108267437Y-77413000D01*
X109093000Y-77413000D01*
X109093000Y-76447266D01*
X109347000Y-76447266D01*
X109347000Y-77413000D01*
X110172563Y-77413000D01*
X110321229Y-77238869D01*
X110179568Y-76828951D01*
X109891821Y-76504448D01*
X109517938Y-76320732D01*
X109347000Y-76447266D01*
X109093000Y-76447266D01*
X108922062Y-76320732D01*
X108548179Y-76504448D01*
X108260432Y-76828951D01*
X108118771Y-77238869D01*
X107694190Y-77238869D01*
X107889119Y-76841874D01*
X107762954Y-76667000D01*
X106647000Y-76667000D01*
X106393000Y-76667000D01*
X105277046Y-76667000D01*
X105150881Y-76841874D01*
X101727000Y-76841874D01*
X101727000Y-76238126D01*
X105150881Y-76238126D01*
X105277046Y-76413000D01*
X106393000Y-76413000D01*
X106393000Y-75405000D01*
X106647000Y-75405000D01*
X106647000Y-76413000D01*
X107762954Y-76413000D01*
X107889119Y-76238126D01*
X107687368Y-75827237D01*
X107346678Y-75539998D01*
X106922000Y-75405000D01*
X106647000Y-75405000D01*
X106393000Y-75405000D01*
X106118000Y-75405000D01*
X105693322Y-75539998D01*
X105352632Y-75827237D01*
X105150881Y-76238126D01*
X101727000Y-76238126D01*
X101727000Y-62980218D01*
X102361847Y-63616174D01*
X103513674Y-64094454D01*
X104760854Y-64095543D01*
X105913515Y-63619273D01*
X106796174Y-62738153D01*
X107274454Y-61586326D01*
X107275543Y-60339146D01*
X106799273Y-59186485D01*
X106160903Y-58547000D01*
X171969782Y-58547000D01*
X171333826Y-59181847D01*
G36*
X167729369Y-77624510D02*
X167678360Y-77876400D01*
X167678360Y-78282800D01*
X167722638Y-78518117D01*
X167861710Y-78734241D01*
X167869806Y-78739773D01*
X167729369Y-78945310D01*
X167678360Y-79197200D01*
X167678360Y-79603600D01*
X167722638Y-79838917D01*
X167861710Y-80055041D01*
X168073910Y-80200031D01*
X168325800Y-80251040D01*
X168986200Y-80251040D01*
X169221517Y-80206762D01*
X169293566Y-80160400D01*
X170295277Y-80160400D01*
X170205585Y-80220330D01*
X169880729Y-80706511D01*
X169786467Y-81180400D01*
X164430402Y-81180400D01*
X164502631Y-81074690D01*
X164553640Y-80822800D01*
X164553640Y-80608759D01*
X164622192Y-80540327D01*
X164764838Y-80196799D01*
X164765162Y-79824833D01*
X164630944Y-79500000D01*
X165658800Y-79500000D01*
X165658800Y-79527402D01*
X165792148Y-79527402D01*
X165658800Y-79660750D01*
X165658800Y-79729909D01*
X165755473Y-79963298D01*
X165934101Y-80141927D01*
X166167490Y-80238600D01*
X166338250Y-80238600D01*
X166497000Y-80079850D01*
X166497000Y-79590640D01*
X166751000Y-79590640D01*
X166751000Y-80079850D01*
X166909750Y-80238600D01*
X167080510Y-80238600D01*
X167313899Y-80141927D01*
X167492527Y-79963298D01*
X167589200Y-79729909D01*
X167589200Y-79660750D01*
X167430450Y-79502000D01*
X167258457Y-79502000D01*
X167405641Y-79407290D01*
X167550631Y-79195090D01*
X167554813Y-79174437D01*
X167589200Y-79140050D01*
X167589200Y-79070891D01*
X167580188Y-79049134D01*
X167601640Y-78943200D01*
X167601640Y-78536800D01*
X167576866Y-78405138D01*
X167601640Y-78282800D01*
X167601640Y-77876400D01*
X167557362Y-77641083D01*
X167544053Y-77620400D01*
X167732177Y-77620400D01*
X167729369Y-77624510D01*
X167729369Y-77624510D01*
G37*
X167729369Y-77624510D02*
X167678360Y-77876400D01*
X167678360Y-78282800D01*
X167722638Y-78518117D01*
X167861710Y-78734241D01*
X167869806Y-78739773D01*
X167729369Y-78945310D01*
X167678360Y-79197200D01*
X167678360Y-79603600D01*
X167722638Y-79838917D01*
X167861710Y-80055041D01*
X168073910Y-80200031D01*
X168325800Y-80251040D01*
X168986200Y-80251040D01*
X169221517Y-80206762D01*
X169293566Y-80160400D01*
X170295277Y-80160400D01*
X170205585Y-80220330D01*
X169880729Y-80706511D01*
X169786467Y-81180400D01*
X164430402Y-81180400D01*
X164502631Y-81074690D01*
X164553640Y-80822800D01*
X164553640Y-80608759D01*
X164622192Y-80540327D01*
X164764838Y-80196799D01*
X164765162Y-79824833D01*
X164630944Y-79500000D01*
X165658800Y-79500000D01*
X165658800Y-79527402D01*
X165792148Y-79527402D01*
X165658800Y-79660750D01*
X165658800Y-79729909D01*
X165755473Y-79963298D01*
X165934101Y-80141927D01*
X166167490Y-80238600D01*
X166338250Y-80238600D01*
X166497000Y-80079850D01*
X166497000Y-79590640D01*
X166751000Y-79590640D01*
X166751000Y-80079850D01*
X166909750Y-80238600D01*
X167080510Y-80238600D01*
X167313899Y-80141927D01*
X167492527Y-79963298D01*
X167589200Y-79729909D01*
X167589200Y-79660750D01*
X167430450Y-79502000D01*
X167258457Y-79502000D01*
X167405641Y-79407290D01*
X167550631Y-79195090D01*
X167554813Y-79174437D01*
X167589200Y-79140050D01*
X167589200Y-79070891D01*
X167580188Y-79049134D01*
X167601640Y-78943200D01*
X167601640Y-78536800D01*
X167576866Y-78405138D01*
X167601640Y-78282800D01*
X167601640Y-77876400D01*
X167557362Y-77641083D01*
X167544053Y-77620400D01*
X167732177Y-77620400D01*
X167729369Y-77624510D01*
G36*
X120967500Y-62624538D02*
X120967500Y-63510000D01*
X120665750Y-63510000D01*
X120507000Y-63668750D01*
X120507000Y-64643000D01*
X120527000Y-64643000D01*
X120527000Y-64897000D01*
X120507000Y-64897000D01*
X120507000Y-65871250D01*
X120665750Y-66030000D01*
X120967500Y-66030000D01*
X120967500Y-66915462D01*
X120016481Y-67866481D01*
X119949202Y-67967171D01*
X119844683Y-67986838D01*
X119628559Y-68125910D01*
X119483569Y-68338110D01*
X119432560Y-68590000D01*
X119432560Y-69210000D01*
X119462801Y-69370716D01*
X119445000Y-69413691D01*
X119445000Y-69564250D01*
X119603750Y-69723000D01*
X119706005Y-69723000D01*
X119828110Y-69806431D01*
X120041911Y-69849727D01*
X119844683Y-69886838D01*
X119704567Y-69977000D01*
X119603750Y-69977000D01*
X119445000Y-70135750D01*
X119445000Y-70286309D01*
X119464349Y-70333021D01*
X119445191Y-70427625D01*
X119403795Y-70207620D01*
X119236908Y-69948271D01*
X118982269Y-69774283D01*
X118977300Y-69773277D01*
X119131441Y-69674090D01*
X119276431Y-69461890D01*
X119327440Y-69210000D01*
X119327440Y-68590000D01*
X119283162Y-68354683D01*
X119144090Y-68138559D01*
X118931890Y-67993569D01*
X118680000Y-67942560D01*
X117460000Y-67942560D01*
X117224683Y-67986838D01*
X117008559Y-68125910D01*
X116863569Y-68338110D01*
X116812560Y-68590000D01*
X116812560Y-69210000D01*
X116856838Y-69445317D01*
X116995910Y-69661441D01*
X117163003Y-69775611D01*
X117050504Y-69848002D01*
X116649500Y-69848002D01*
X116649500Y-66487144D01*
X117274864Y-65861780D01*
X117323092Y-65936729D01*
X117577731Y-66110717D01*
X117880000Y-66171928D01*
X118880000Y-66171928D01*
X119162380Y-66118795D01*
X119421729Y-65951908D01*
X119469284Y-65882309D01*
X119520302Y-65933327D01*
X119753691Y-66030000D01*
X120094250Y-66030000D01*
X120253000Y-65871250D01*
X120253000Y-64897000D01*
X120233000Y-64897000D01*
X120233000Y-64643000D01*
X120253000Y-64643000D01*
X120253000Y-63668750D01*
X120094250Y-63510000D01*
X119753691Y-63510000D01*
X119520302Y-63606673D01*
X119470892Y-63656083D01*
X119436908Y-63603271D01*
X119182269Y-63429283D01*
X118880000Y-63368072D01*
X117880000Y-63368072D01*
X117597620Y-63421205D01*
X117338271Y-63588092D01*
X117268298Y-63690500D01*
X116840000Y-63690500D01*
X116426893Y-63772672D01*
X116076678Y-64006678D01*
X114806678Y-65276678D01*
X114572672Y-65626893D01*
X114490500Y-66040000D01*
X114490500Y-71120000D01*
X114572672Y-71533107D01*
X114806678Y-71883322D01*
X115156893Y-72117328D01*
X115570000Y-72199500D01*
X115983107Y-72117328D01*
X116148222Y-72007002D01*
X116990500Y-72007002D01*
X116990500Y-73350000D01*
X117068185Y-73740547D01*
X117030500Y-73930000D01*
X117030500Y-76536699D01*
X117026799Y-76535162D01*
X116979923Y-76535121D01*
X116107401Y-75662599D01*
X115905626Y-75527778D01*
X115903162Y-75514683D01*
X115764090Y-75298559D01*
X115551890Y-75153569D01*
X115300000Y-75102560D01*
X114800000Y-75102560D01*
X114564683Y-75146838D01*
X114348559Y-75285910D01*
X114300866Y-75355711D01*
X114278182Y-75320459D01*
X114278182Y-63598856D01*
X115964538Y-61912500D01*
X120255462Y-61912500D01*
X120967500Y-62624538D01*
X120967500Y-62624538D01*
G37*
X120967500Y-62624538D02*
X120967500Y-63510000D01*
X120665750Y-63510000D01*
X120507000Y-63668750D01*
X120507000Y-64643000D01*
X120527000Y-64643000D01*
X120527000Y-64897000D01*
X120507000Y-64897000D01*
X120507000Y-65871250D01*
X120665750Y-66030000D01*
X120967500Y-66030000D01*
X120967500Y-66915462D01*
X120016481Y-67866481D01*
X119949202Y-67967171D01*
X119844683Y-67986838D01*
X119628559Y-68125910D01*
X119483569Y-68338110D01*
X119432560Y-68590000D01*
X119432560Y-69210000D01*
X119462801Y-69370716D01*
X119445000Y-69413691D01*
X119445000Y-69564250D01*
X119603750Y-69723000D01*
X119706005Y-69723000D01*
X119828110Y-69806431D01*
X120041911Y-69849727D01*
X119844683Y-69886838D01*
X119704567Y-69977000D01*
X119603750Y-69977000D01*
X119445000Y-70135750D01*
X119445000Y-70286309D01*
X119464349Y-70333021D01*
X119445191Y-70427625D01*
X119403795Y-70207620D01*
X119236908Y-69948271D01*
X118982269Y-69774283D01*
X118977300Y-69773277D01*
X119131441Y-69674090D01*
X119276431Y-69461890D01*
X119327440Y-69210000D01*
X119327440Y-68590000D01*
X119283162Y-68354683D01*
X119144090Y-68138559D01*
X118931890Y-67993569D01*
X118680000Y-67942560D01*
X117460000Y-67942560D01*
X117224683Y-67986838D01*
X117008559Y-68125910D01*
X116863569Y-68338110D01*
X116812560Y-68590000D01*
X116812560Y-69210000D01*
X116856838Y-69445317D01*
X116995910Y-69661441D01*
X117163003Y-69775611D01*
X117050504Y-69848002D01*
X116649500Y-69848002D01*
X116649500Y-66487144D01*
X117274864Y-65861780D01*
X117323092Y-65936729D01*
X117577731Y-66110717D01*
X117880000Y-66171928D01*
X118880000Y-66171928D01*
X119162380Y-66118795D01*
X119421729Y-65951908D01*
X119469284Y-65882309D01*
X119520302Y-65933327D01*
X119753691Y-66030000D01*
X120094250Y-66030000D01*
X120253000Y-65871250D01*
X120253000Y-64897000D01*
X120233000Y-64897000D01*
X120233000Y-64643000D01*
X120253000Y-64643000D01*
X120253000Y-63668750D01*
X120094250Y-63510000D01*
X119753691Y-63510000D01*
X119520302Y-63606673D01*
X119470892Y-63656083D01*
X119436908Y-63603271D01*
X119182269Y-63429283D01*
X118880000Y-63368072D01*
X117880000Y-63368072D01*
X117597620Y-63421205D01*
X117338271Y-63588092D01*
X117268298Y-63690500D01*
X116840000Y-63690500D01*
X116426893Y-63772672D01*
X116076678Y-64006678D01*
X114806678Y-65276678D01*
X114572672Y-65626893D01*
X114490500Y-66040000D01*
X114490500Y-71120000D01*
X114572672Y-71533107D01*
X114806678Y-71883322D01*
X115156893Y-72117328D01*
X115570000Y-72199500D01*
X115983107Y-72117328D01*
X116148222Y-72007002D01*
X116990500Y-72007002D01*
X116990500Y-73350000D01*
X117068185Y-73740547D01*
X117030500Y-73930000D01*
X117030500Y-76536699D01*
X117026799Y-76535162D01*
X116979923Y-76535121D01*
X116107401Y-75662599D01*
X115905626Y-75527778D01*
X115903162Y-75514683D01*
X115764090Y-75298559D01*
X115551890Y-75153569D01*
X115300000Y-75102560D01*
X114800000Y-75102560D01*
X114564683Y-75146838D01*
X114348559Y-75285910D01*
X114300866Y-75355711D01*
X114278182Y-75320459D01*
X114278182Y-63598856D01*
X115964538Y-61912500D01*
X120255462Y-61912500D01*
X120967500Y-62624538D01*
M02*
