G04 #@! TF.FileFunction,Copper,L2,Bot,Signal*
%FSLAX46Y46*%
G04 Gerber Fmt 4.6, Leading zero omitted, Abs format (unit mm)*
G04 Created by KiCad (PCBNEW (2015-07-31 BZR 6030)-product) date Sat Sep 12 09:45:10 2015*
%MOMM*%
G01*
G04 APERTURE LIST*
%ADD10C,0.100000*%
%ADD11C,5.000000*%
%ADD12O,1.250000X0.950000*%
%ADD13O,1.000000X1.550000*%
%ADD14R,1.727200X2.032000*%
%ADD15O,1.727200X2.032000*%
%ADD16R,2.032000X1.727200*%
%ADD17O,2.032000X1.727200*%
%ADD18C,1.600000*%
%ADD19C,0.700000*%
%ADD20C,0.250000*%
%ADD21C,0.400000*%
%ADD22C,0.800000*%
%ADD23C,0.254000*%
G04 APERTURE END LIST*
D10*
D11*
X92598200Y-50407400D03*
X116982200Y-119089000D03*
D12*
X77733000Y-117057000D03*
X82733000Y-117057000D03*
D13*
X76733000Y-119757000D03*
X83733000Y-119757000D03*
D14*
X83911400Y-74842200D03*
D15*
X86451400Y-74842200D03*
X88991400Y-74842200D03*
X91531400Y-74842200D03*
X94071400Y-74842200D03*
X96611400Y-74842200D03*
D16*
X68366600Y-77534600D03*
D17*
X68366600Y-80074600D03*
X68366600Y-82614600D03*
X68366600Y-85154600D03*
D16*
X111597400Y-109487800D03*
D17*
X111597400Y-106947800D03*
X111597400Y-104407800D03*
X111597400Y-101867800D03*
D14*
X95951000Y-118073000D03*
D15*
X98491000Y-118073000D03*
X101031000Y-118073000D03*
X103571000Y-118073000D03*
D18*
X89855000Y-61237800D03*
X89855000Y-68837800D03*
X92395000Y-61237800D03*
X92395000Y-68837800D03*
X94935000Y-61237800D03*
X94935000Y-68837800D03*
X97475000Y-61237800D03*
X97475000Y-68837800D03*
D11*
X64963000Y-118479400D03*
D19*
X79961000Y-93230000D03*
X100929400Y-83021000D03*
X111343400Y-86373800D03*
X85841800Y-84341800D03*
X90413800Y-93231800D03*
X103113800Y-85205400D03*
X95138200Y-106236600D03*
X79288600Y-77280600D03*
X74513400Y-100480200D03*
X73548200Y-95009800D03*
X81981000Y-95873400D03*
X78742600Y-103679000D03*
X80342600Y-101479000D03*
X82031800Y-101676600D03*
X78729800Y-111553000D03*
X68315800Y-92825400D03*
X63642200Y-87593000D03*
X106619000Y-88609000D03*
X108447800Y-69406600D03*
X117439400Y-69051000D03*
X108701800Y-69325000D03*
X86107800Y-102424800D03*
X83618600Y-105066400D03*
X72075000Y-47969000D03*
X69687400Y-60110200D03*
X88483400Y-110554600D03*
X79390200Y-107592202D03*
X75021400Y-93384200D03*
X87213400Y-91403000D03*
X78983800Y-84443400D03*
X81219000Y-97600600D03*
X81422200Y-106592200D03*
X93614200Y-99175400D03*
X91328200Y-92215800D03*
X92254600Y-92671200D03*
X93207800Y-93231800D03*
X93969800Y-93892200D03*
X97068600Y-95975000D03*
X97068600Y-94908200D03*
X98491000Y-96889400D03*
X99456200Y-96991000D03*
X109514600Y-94095400D03*
X79949000Y-90285400D03*
X80507800Y-91555400D03*
X109362200Y-97041800D03*
X84825800Y-92266600D03*
X87467400Y-95822600D03*
X71516200Y-57265400D03*
X75986600Y-58230600D03*
X70195400Y-66765000D03*
X69128600Y-63971000D03*
X81168200Y-78042600D03*
X79847400Y-60923000D03*
X78679000Y-61481800D03*
X80711000Y-78957000D03*
D20*
X81981000Y-95871600D02*
X81981000Y-95250000D01*
X81981000Y-95250000D02*
X79961000Y-93230000D01*
D21*
X103113800Y-85205400D02*
X110175000Y-85205400D01*
X110175000Y-85205400D02*
X111343400Y-86373800D01*
D20*
X85841800Y-88659800D02*
X85841800Y-84341800D01*
X90413800Y-93231800D02*
X85841800Y-88659800D01*
D22*
X96611400Y-78703000D02*
X96611400Y-74842200D01*
X103113800Y-85205400D02*
X100929400Y-83021000D01*
X100929400Y-83021000D02*
X96611400Y-78703000D01*
X82733000Y-117057000D02*
X90210600Y-117057000D01*
X95138200Y-112129400D02*
X95138200Y-106236600D01*
X90210600Y-117057000D02*
X95138200Y-112129400D01*
X73548200Y-95009800D02*
X73548200Y-82360600D01*
X78628200Y-77280600D02*
X79288600Y-77280600D01*
X73548200Y-82360600D02*
X78628200Y-77280600D01*
X74513400Y-95975000D02*
X73548200Y-95009800D01*
X74513400Y-100480200D02*
X74513400Y-95975000D01*
D20*
X81981000Y-95873400D02*
X81981000Y-95871600D01*
X81981000Y-95871600D02*
X81981000Y-95924200D01*
D21*
X78628200Y-111215000D02*
X78475800Y-111215000D01*
X77815400Y-106744600D02*
X79441000Y-105119000D01*
X77815400Y-110554600D02*
X77815400Y-106744600D01*
X78475800Y-111215000D02*
X77815400Y-110554600D01*
D20*
X78742600Y-103679000D02*
X78742600Y-104420600D01*
X78742600Y-104420600D02*
X79441000Y-105119000D01*
X81981000Y-101625800D02*
X82031800Y-101676600D01*
X81981000Y-100547000D02*
X81981000Y-101625800D01*
X80540200Y-101676600D02*
X82031800Y-101676600D01*
X80540200Y-101676600D02*
X80342600Y-101479000D01*
D21*
X77733000Y-117057000D02*
X77733000Y-119057400D01*
X77733000Y-119057400D02*
X78432600Y-119757000D01*
X76733000Y-119757000D02*
X78432600Y-119757000D01*
X78432600Y-119757000D02*
X81733000Y-119757000D01*
X81733000Y-119757000D02*
X82733000Y-118757000D01*
X82733000Y-117057000D02*
X82733000Y-118757000D01*
X82733000Y-118757000D02*
X83733000Y-119757000D01*
X78628200Y-111215000D02*
X78628200Y-111451400D01*
X78628200Y-111451400D02*
X78729800Y-111553000D01*
X78628200Y-112952200D02*
X82733000Y-117057000D01*
X78628200Y-111215000D02*
X78628200Y-112952200D01*
X81981000Y-102579000D02*
X79441000Y-105119000D01*
X81981000Y-100547000D02*
X81981000Y-102579000D01*
X81981000Y-95924200D02*
X81981000Y-100547000D01*
D22*
X63642200Y-88151800D02*
X68315800Y-92825400D01*
X63642200Y-87593000D02*
X63642200Y-88151800D01*
X117439400Y-84087800D02*
X117439400Y-69051000D01*
X113172200Y-88355000D02*
X117439400Y-84087800D01*
X106873000Y-88355000D02*
X113172200Y-88355000D01*
X106619000Y-88609000D02*
X106873000Y-88355000D01*
X117083800Y-69406600D02*
X108447800Y-69406600D01*
X117439400Y-69051000D02*
X117083800Y-69406600D01*
X108701800Y-69325000D02*
X108631000Y-69254200D01*
X108631000Y-69254200D02*
X108346200Y-69254200D01*
D20*
X86107800Y-102577200D02*
X86107800Y-102424800D01*
X83618600Y-105066400D02*
X86107800Y-102577200D01*
X69687400Y-50356600D02*
X72075000Y-47969000D01*
X69687400Y-60110200D02*
X69687400Y-50356600D01*
D22*
X82352598Y-110554600D02*
X88483400Y-110554600D01*
X79390200Y-107592202D02*
X82352598Y-110554600D01*
D20*
X75021400Y-85713400D02*
X75021400Y-93384200D01*
X77561400Y-83173400D02*
X75021400Y-85713400D01*
X78983800Y-83173400D02*
X77561400Y-83173400D01*
X87213400Y-91403000D02*
X78983800Y-83173400D01*
X78983800Y-95365400D02*
X78983800Y-84443400D01*
X81219000Y-97600600D02*
X78983800Y-95365400D01*
D22*
X81422200Y-106592200D02*
X86197400Y-106592200D01*
X86197400Y-106592200D02*
X93614200Y-99175400D01*
D20*
X86451400Y-74842200D02*
X91328200Y-79719000D01*
X91328200Y-79719000D02*
X91328200Y-92215800D01*
X92254600Y-78105400D02*
X88991400Y-74842200D01*
X92254600Y-92671200D02*
X92254600Y-78105400D01*
X93207800Y-76518600D02*
X91531400Y-74842200D01*
X93207800Y-93231800D02*
X93207800Y-76518600D01*
X94071400Y-93790600D02*
X94071400Y-74842200D01*
X93969800Y-93892200D02*
X94071400Y-93790600D01*
X100624600Y-95975000D02*
X111597400Y-106947800D01*
X97068600Y-95975000D02*
X100624600Y-95975000D01*
X111597400Y-104407800D02*
X102097800Y-94908200D01*
X102097800Y-94908200D02*
X97068600Y-94908200D01*
X98491000Y-96889400D02*
X98491000Y-118073000D01*
X101031000Y-118073000D02*
X101031000Y-98565800D01*
X101031000Y-98565800D02*
X99456200Y-96991000D01*
X108651000Y-93231800D02*
X109514600Y-94095400D01*
X95697000Y-93231800D02*
X108651000Y-93231800D01*
X90109000Y-98819800D02*
X95697000Y-93231800D01*
X89093000Y-98819800D02*
X90109000Y-98819800D01*
X80660200Y-90387000D02*
X89093000Y-98819800D01*
X80050600Y-90387000D02*
X80660200Y-90387000D01*
X79949000Y-90285400D02*
X80050600Y-90387000D01*
X89042200Y-100089800D02*
X80507800Y-91555400D01*
X90515400Y-100089800D02*
X89042200Y-100089800D01*
X96560600Y-94044600D02*
X90515400Y-100089800D01*
X106365000Y-94044600D02*
X96560600Y-94044600D01*
X109362200Y-97041800D02*
X106365000Y-94044600D01*
X87467400Y-94908200D02*
X84825800Y-92266600D01*
X87467400Y-95822600D02*
X87467400Y-94908200D01*
X89855000Y-68837800D02*
X89133800Y-68837800D01*
X89133800Y-68837800D02*
X79237800Y-58941800D01*
X79237800Y-58941800D02*
X73192600Y-58941800D01*
X73192600Y-58941800D02*
X71516200Y-57265400D01*
X92395000Y-68837800D02*
X81787800Y-58230600D01*
X81787800Y-58230600D02*
X75986600Y-58230600D01*
X94935000Y-68837800D02*
X94935000Y-70117800D01*
X94935000Y-70117800D02*
X96713000Y-71895800D01*
X96713000Y-71895800D02*
X102707400Y-71895800D01*
X102707400Y-71895800D02*
X104739400Y-69863800D01*
X104739400Y-69863800D02*
X104739400Y-46953000D01*
X104739400Y-46953000D02*
X102859800Y-45073400D01*
X102859800Y-45073400D02*
X66385400Y-45073400D01*
X66385400Y-45073400D02*
X66385400Y-62955000D01*
X66385400Y-62955000D02*
X70195400Y-66765000D01*
X99212200Y-70575000D02*
X97475000Y-68837800D01*
X102047000Y-70575000D02*
X99212200Y-70575000D01*
X103367800Y-69254200D02*
X102047000Y-70575000D01*
X103367800Y-48324600D02*
X103367800Y-69254200D01*
X101437400Y-46394200D02*
X103367800Y-48324600D01*
X69281000Y-46394200D02*
X101437400Y-46394200D01*
X67198200Y-48477000D02*
X69281000Y-46394200D01*
X67198200Y-62040600D02*
X67198200Y-48477000D01*
X69128600Y-63971000D02*
X67198200Y-62040600D01*
X81168200Y-62243800D02*
X81168200Y-78042600D01*
X79847400Y-60923000D02*
X81168200Y-62243800D01*
X80203000Y-63005800D02*
X78679000Y-61481800D01*
X80203000Y-78449000D02*
X80203000Y-63005800D01*
X80711000Y-78957000D02*
X80203000Y-78449000D01*
D23*
G36*
X119496800Y-43422400D02*
X119496800Y-117170559D01*
X118760353Y-116432826D01*
X117608526Y-115954546D01*
X116361346Y-115953457D01*
X115208685Y-116429727D01*
X114326026Y-117310847D01*
X113847746Y-118462674D01*
X113846657Y-119709854D01*
X114322927Y-120862515D01*
X115204047Y-121745174D01*
X116355874Y-122223454D01*
X117603054Y-122224543D01*
X118755715Y-121748273D01*
X119496800Y-121008480D01*
X119496800Y-122873600D01*
X103930026Y-122873600D01*
X103930026Y-119680358D01*
X103945791Y-119677709D01*
X104473036Y-119423732D01*
X104862954Y-118987320D01*
X105056184Y-118434913D01*
X104911924Y-118200000D01*
X103698000Y-118200000D01*
X103698000Y-117946000D01*
X104911924Y-117946000D01*
X105056184Y-117711087D01*
X104862954Y-117158680D01*
X104473036Y-116722268D01*
X103945791Y-116468291D01*
X103930026Y-116465642D01*
X103698000Y-116586783D01*
X103698000Y-117946000D01*
X103698000Y-118200000D01*
X103698000Y-119559217D01*
X103930026Y-119680358D01*
X103930026Y-122873600D01*
X98491000Y-122873600D01*
X98491000Y-119756345D01*
X99064489Y-119642271D01*
X99550670Y-119317415D01*
X99761000Y-119002634D01*
X99971330Y-119317415D01*
X100457511Y-119642271D01*
X101031000Y-119756345D01*
X101604489Y-119642271D01*
X102090670Y-119317415D01*
X102297461Y-119007931D01*
X102668964Y-119423732D01*
X103196209Y-119677709D01*
X103211974Y-119680358D01*
X103444000Y-119559217D01*
X103444000Y-118200000D01*
X103424000Y-118200000D01*
X103424000Y-117946000D01*
X103444000Y-117946000D01*
X103444000Y-116586783D01*
X103211974Y-116465642D01*
X103196209Y-116468291D01*
X102668964Y-116722268D01*
X102297461Y-117138069D01*
X102090670Y-116828585D01*
X101791000Y-116628352D01*
X101791000Y-98565800D01*
X101733148Y-98274961D01*
X101568401Y-98028399D01*
X100441278Y-96901276D01*
X100441308Y-96866510D01*
X110015019Y-106440221D01*
X109914055Y-106947800D01*
X110028129Y-107521289D01*
X110352985Y-108007470D01*
X110367313Y-108017043D01*
X110346083Y-108021038D01*
X110129959Y-108160110D01*
X109984969Y-108372310D01*
X109933960Y-108624200D01*
X109933960Y-110351400D01*
X109978238Y-110586717D01*
X110117310Y-110802841D01*
X110329510Y-110947831D01*
X110581400Y-110998840D01*
X112613400Y-110998840D01*
X112848717Y-110954562D01*
X113064841Y-110815490D01*
X113209831Y-110603290D01*
X113260840Y-110351400D01*
X113260840Y-108624200D01*
X113216562Y-108388883D01*
X113077490Y-108172759D01*
X112865290Y-108027769D01*
X112823961Y-108019400D01*
X112841815Y-108007470D01*
X113166671Y-107521289D01*
X113280745Y-106947800D01*
X113166671Y-106374311D01*
X112841815Y-105888130D01*
X112527034Y-105677800D01*
X112841815Y-105467470D01*
X113166671Y-104981289D01*
X113280745Y-104407800D01*
X113166671Y-103834311D01*
X112841815Y-103348130D01*
X112532331Y-103141339D01*
X112948132Y-102769836D01*
X113202109Y-102242591D01*
X113204758Y-102226826D01*
X113083617Y-101994800D01*
X111724400Y-101994800D01*
X111724400Y-101740800D01*
X113083617Y-101740800D01*
X113204758Y-101508774D01*
X113202109Y-101493009D01*
X112948132Y-100965764D01*
X112511720Y-100575846D01*
X111959313Y-100382616D01*
X111724400Y-100526876D01*
X111724400Y-101740800D01*
X111724400Y-101994800D01*
X111724400Y-102014800D01*
X111470400Y-102014800D01*
X111470400Y-101994800D01*
X111450400Y-101994800D01*
X111450400Y-101740800D01*
X111470400Y-101740800D01*
X111470400Y-100526876D01*
X111235487Y-100382616D01*
X110683080Y-100575846D01*
X110246668Y-100965764D01*
X109992691Y-101493009D01*
X109990042Y-101508774D01*
X110111182Y-101740798D01*
X110005200Y-101740798D01*
X103069002Y-94804600D01*
X106050198Y-94804600D01*
X108377122Y-97131524D01*
X108377030Y-97236869D01*
X108526671Y-97599029D01*
X108803514Y-97876355D01*
X109165412Y-98026628D01*
X109557269Y-98026970D01*
X109919429Y-97877329D01*
X110196755Y-97600486D01*
X110347028Y-97238588D01*
X110347370Y-96846731D01*
X110197729Y-96484571D01*
X109920886Y-96207245D01*
X109558988Y-96056972D01*
X109452081Y-96056879D01*
X107387002Y-93991800D01*
X108336198Y-93991800D01*
X108529522Y-94185124D01*
X108529430Y-94290469D01*
X108679071Y-94652629D01*
X108955914Y-94929955D01*
X109317812Y-95080228D01*
X109709669Y-95080570D01*
X110071829Y-94930929D01*
X110349155Y-94654086D01*
X110499428Y-94292188D01*
X110499770Y-93900331D01*
X110350129Y-93538171D01*
X110073286Y-93260845D01*
X109711388Y-93110572D01*
X109604481Y-93110479D01*
X109188401Y-92694399D01*
X108941839Y-92529652D01*
X108651000Y-92471800D01*
X106619000Y-92471800D01*
X106619000Y-89644001D01*
X107015077Y-89565215D01*
X107277306Y-89390000D01*
X113172195Y-89390000D01*
X113172200Y-89390001D01*
X113568277Y-89311215D01*
X113904056Y-89086856D01*
X118171253Y-84819658D01*
X118171256Y-84819656D01*
X118274929Y-84664497D01*
X118395615Y-84483877D01*
X118474401Y-84087800D01*
X118474400Y-84087795D01*
X118474400Y-69051000D01*
X118395615Y-68654923D01*
X118171256Y-68319144D01*
X117835477Y-68094785D01*
X117439400Y-68016000D01*
X117242612Y-68055144D01*
X117043322Y-68094785D01*
X116880714Y-68203436D01*
X116707544Y-68319144D01*
X116707542Y-68319147D01*
X116655089Y-68371600D01*
X109137250Y-68371600D01*
X109027078Y-68297985D01*
X108631000Y-68219200D01*
X108346200Y-68219200D01*
X107950123Y-68297985D01*
X107614344Y-68522344D01*
X107389985Y-68858123D01*
X107311200Y-69254200D01*
X107389985Y-69650277D01*
X107491488Y-69802187D01*
X107491585Y-69802677D01*
X107715944Y-70138456D01*
X108051723Y-70362815D01*
X108447800Y-70441600D01*
X116404400Y-70441600D01*
X116404400Y-83659089D01*
X112743488Y-87320000D01*
X106873005Y-87320000D01*
X106873000Y-87319999D01*
X106476922Y-87398785D01*
X106342429Y-87488651D01*
X106141144Y-87623144D01*
X106141142Y-87623147D01*
X105887144Y-87877144D01*
X105662785Y-88212923D01*
X105583999Y-88609000D01*
X105662785Y-89005077D01*
X105887144Y-89340856D01*
X106222923Y-89565215D01*
X106619000Y-89644001D01*
X106619000Y-92471800D01*
X96970426Y-92471800D01*
X96970426Y-76449558D01*
X96986191Y-76446909D01*
X97513436Y-76192932D01*
X97903354Y-75756520D01*
X98096584Y-75204113D01*
X97952324Y-74969200D01*
X96738400Y-74969200D01*
X96738400Y-74715200D01*
X97952324Y-74715200D01*
X98096584Y-74480287D01*
X97903354Y-73927880D01*
X97513436Y-73491468D01*
X96986191Y-73237491D01*
X96970426Y-73234842D01*
X96738400Y-73355983D01*
X96738400Y-74715200D01*
X96738400Y-74969200D01*
X96738400Y-76328417D01*
X96970426Y-76449558D01*
X96970426Y-92471800D01*
X95697000Y-92471800D01*
X95406161Y-92529652D01*
X95406160Y-92529652D01*
X95159599Y-92694399D01*
X94831400Y-93022598D01*
X94831400Y-76286848D01*
X95131070Y-76086615D01*
X95337861Y-75777131D01*
X95709364Y-76192932D01*
X96236609Y-76446909D01*
X96252374Y-76449558D01*
X96484400Y-76328417D01*
X96484400Y-74969200D01*
X96464400Y-74969200D01*
X96464400Y-74715200D01*
X96484400Y-74715200D01*
X96484400Y-73355983D01*
X96252374Y-73234842D01*
X96236609Y-73237491D01*
X95709364Y-73491468D01*
X95337861Y-73907269D01*
X95131070Y-73597785D01*
X94644889Y-73272929D01*
X94071400Y-73158855D01*
X93497911Y-73272929D01*
X93011730Y-73597785D01*
X92801400Y-73912566D01*
X92591070Y-73597785D01*
X92104889Y-73272929D01*
X91531400Y-73158855D01*
X90957911Y-73272929D01*
X90471730Y-73597785D01*
X90261400Y-73912566D01*
X90051070Y-73597785D01*
X89564889Y-73272929D01*
X88991400Y-73158855D01*
X88417911Y-73272929D01*
X87931730Y-73597785D01*
X87721400Y-73912566D01*
X87511070Y-73597785D01*
X87024889Y-73272929D01*
X86451400Y-73158855D01*
X85877911Y-73272929D01*
X85391730Y-73597785D01*
X85382157Y-73612113D01*
X85378162Y-73590883D01*
X85239090Y-73374759D01*
X85026890Y-73229769D01*
X84775000Y-73178760D01*
X83047800Y-73178760D01*
X82812483Y-73223038D01*
X82596359Y-73362110D01*
X82451369Y-73574310D01*
X82400360Y-73826200D01*
X82400360Y-75858200D01*
X82444638Y-76093517D01*
X82583710Y-76309641D01*
X82795910Y-76454631D01*
X83047800Y-76505640D01*
X84775000Y-76505640D01*
X85010317Y-76461362D01*
X85226441Y-76322290D01*
X85371431Y-76110090D01*
X85379800Y-76068761D01*
X85391730Y-76086615D01*
X85877911Y-76411471D01*
X86451400Y-76525545D01*
X86958979Y-76424581D01*
X90568200Y-80033802D01*
X90568200Y-91582689D01*
X90493645Y-91657114D01*
X90343372Y-92019012D01*
X90343030Y-92410869D01*
X90492671Y-92773029D01*
X90769514Y-93050355D01*
X91131412Y-93200628D01*
X91407684Y-93200869D01*
X91419071Y-93228429D01*
X91695914Y-93505755D01*
X92057812Y-93656028D01*
X92317410Y-93656255D01*
X92372271Y-93789029D01*
X92649114Y-94066355D01*
X93011012Y-94216628D01*
X93038090Y-94216652D01*
X93134271Y-94449429D01*
X93269302Y-94584696D01*
X89794198Y-98059800D01*
X89407802Y-98059800D01*
X88011539Y-96663537D01*
X88024629Y-96658129D01*
X88301955Y-96381286D01*
X88452228Y-96019388D01*
X88452570Y-95627531D01*
X88302929Y-95265371D01*
X88227400Y-95189710D01*
X88227400Y-94908200D01*
X88169548Y-94617361D01*
X88004801Y-94370799D01*
X85810878Y-92176876D01*
X85810970Y-92071531D01*
X85661329Y-91709371D01*
X85384486Y-91432045D01*
X85022588Y-91281772D01*
X84630731Y-91281430D01*
X84268571Y-91431071D01*
X83991245Y-91707914D01*
X83840972Y-92069812D01*
X83840630Y-92461669D01*
X83862429Y-92514427D01*
X81197601Y-89849599D01*
X80951039Y-89684852D01*
X80689316Y-89632792D01*
X80507686Y-89450845D01*
X80145788Y-89300572D01*
X79753931Y-89300230D01*
X79743800Y-89304416D01*
X79743800Y-85076511D01*
X79777984Y-85042386D01*
X86228322Y-91492724D01*
X86228230Y-91598069D01*
X86377871Y-91960229D01*
X86654714Y-92237555D01*
X87016612Y-92387828D01*
X87408469Y-92388170D01*
X87770629Y-92238529D01*
X88047955Y-91961686D01*
X88198228Y-91599788D01*
X88198570Y-91207931D01*
X88048929Y-90845771D01*
X87772086Y-90568445D01*
X87410188Y-90418172D01*
X87303281Y-90418079D01*
X80906069Y-84020867D01*
X80906069Y-79942170D01*
X81268229Y-79792529D01*
X81545555Y-79515686D01*
X81695828Y-79153788D01*
X81696058Y-78890265D01*
X81725429Y-78878129D01*
X82002755Y-78601286D01*
X82153028Y-78239388D01*
X82153370Y-77847531D01*
X82003729Y-77485371D01*
X81928200Y-77409710D01*
X81928200Y-62707002D01*
X88473665Y-69252467D01*
X88637757Y-69649600D01*
X89041077Y-70053624D01*
X89568309Y-70272550D01*
X90139187Y-70273048D01*
X90666800Y-70055043D01*
X91070824Y-69651723D01*
X91124862Y-69521585D01*
X91177757Y-69649600D01*
X91581077Y-70053624D01*
X92108309Y-70272550D01*
X92679187Y-70273048D01*
X93206800Y-70055043D01*
X93610824Y-69651723D01*
X93664862Y-69521585D01*
X93717757Y-69649600D01*
X94121077Y-70053624D01*
X94175000Y-70076015D01*
X94175000Y-70117800D01*
X94232852Y-70408639D01*
X94397599Y-70655201D01*
X96175599Y-72433201D01*
X96422161Y-72597948D01*
X96713000Y-72655800D01*
X102707400Y-72655800D01*
X102998239Y-72597948D01*
X103244801Y-72433201D01*
X105276801Y-70401201D01*
X105441548Y-70154639D01*
X105499400Y-69863800D01*
X105499400Y-46953000D01*
X105441548Y-46662161D01*
X105276801Y-46415599D01*
X103397201Y-44535999D01*
X103150639Y-44371252D01*
X102859800Y-44313400D01*
X66385400Y-44313400D01*
X66094561Y-44371252D01*
X65847999Y-44535999D01*
X65683252Y-44782561D01*
X65625400Y-45073400D01*
X65625400Y-62955000D01*
X65683252Y-63245839D01*
X65847999Y-63492401D01*
X69210322Y-66854724D01*
X69210230Y-66960069D01*
X69359871Y-67322229D01*
X69636714Y-67599555D01*
X69998612Y-67749828D01*
X70390469Y-67750170D01*
X70752629Y-67600529D01*
X71029955Y-67323686D01*
X71180228Y-66961788D01*
X71180570Y-66569931D01*
X71030929Y-66207771D01*
X70754086Y-65930445D01*
X70392188Y-65780172D01*
X70285281Y-65780079D01*
X69421110Y-64915908D01*
X69685829Y-64806529D01*
X69963155Y-64529686D01*
X70113428Y-64167788D01*
X70113770Y-63775931D01*
X69964129Y-63413771D01*
X69687286Y-63136445D01*
X69325388Y-62986172D01*
X69218481Y-62986079D01*
X67958200Y-61725798D01*
X67958200Y-48791802D01*
X69595802Y-47154200D01*
X71497006Y-47154200D01*
X71240445Y-47410314D01*
X71090172Y-47772212D01*
X71090079Y-47879119D01*
X69149999Y-49819199D01*
X68985252Y-50065761D01*
X68927400Y-50356600D01*
X68927400Y-59477089D01*
X68852845Y-59551514D01*
X68702572Y-59913412D01*
X68702230Y-60305269D01*
X68851871Y-60667429D01*
X69128714Y-60944755D01*
X69490612Y-61095028D01*
X69882469Y-61095370D01*
X70244629Y-60945729D01*
X70521955Y-60668886D01*
X70672228Y-60306988D01*
X70672570Y-59915131D01*
X70522929Y-59552971D01*
X70447400Y-59477310D01*
X70447400Y-50671402D01*
X72164724Y-48954078D01*
X72270069Y-48954170D01*
X72632229Y-48804529D01*
X72909555Y-48527686D01*
X73059828Y-48165788D01*
X73060170Y-47773931D01*
X72910529Y-47411771D01*
X72653407Y-47154200D01*
X101122598Y-47154200D01*
X102607800Y-48639402D01*
X102607800Y-68939398D01*
X101732198Y-69815000D01*
X99527002Y-69815000D01*
X98888256Y-69176254D01*
X98909750Y-69124491D01*
X98910248Y-68553613D01*
X98692243Y-68026000D01*
X98288923Y-67621976D01*
X97761691Y-67403050D01*
X97190813Y-67402552D01*
X96663200Y-67620557D01*
X96259176Y-68023877D01*
X96205138Y-68154015D01*
X96152243Y-68026000D01*
X95748923Y-67621976D01*
X95221691Y-67403050D01*
X94650813Y-67402552D01*
X94123200Y-67620557D01*
X93719176Y-68023877D01*
X93665138Y-68154015D01*
X93612243Y-68026000D01*
X93208923Y-67621976D01*
X92681691Y-67403050D01*
X92110813Y-67402552D01*
X92056851Y-67424849D01*
X90139187Y-65507185D01*
X90139187Y-62673048D01*
X90666800Y-62455043D01*
X91070824Y-62051723D01*
X91124862Y-61921585D01*
X91177757Y-62049600D01*
X91581077Y-62453624D01*
X92108309Y-62672550D01*
X92679187Y-62673048D01*
X93206800Y-62455043D01*
X93610824Y-62051723D01*
X93664862Y-61921585D01*
X93717757Y-62049600D01*
X94121077Y-62453624D01*
X94648309Y-62672550D01*
X95219187Y-62673048D01*
X95746800Y-62455043D01*
X96150824Y-62051723D01*
X96204862Y-61921585D01*
X96257757Y-62049600D01*
X96661077Y-62453624D01*
X97188309Y-62672550D01*
X97759187Y-62673048D01*
X98286800Y-62455043D01*
X98690824Y-62051723D01*
X98909750Y-61524491D01*
X98910248Y-60953613D01*
X98692243Y-60426000D01*
X98288923Y-60021976D01*
X97761691Y-59803050D01*
X97190813Y-59802552D01*
X96663200Y-60020557D01*
X96259176Y-60423877D01*
X96205138Y-60554015D01*
X96152243Y-60426000D01*
X95748923Y-60021976D01*
X95221691Y-59803050D01*
X94650813Y-59802552D01*
X94123200Y-60020557D01*
X93719176Y-60423877D01*
X93665138Y-60554015D01*
X93612243Y-60426000D01*
X93219054Y-60032125D01*
X93219054Y-53542943D01*
X94371715Y-53066673D01*
X95254374Y-52185553D01*
X95732654Y-51033726D01*
X95733743Y-49786546D01*
X95257473Y-48633885D01*
X94376353Y-47751226D01*
X93224526Y-47272946D01*
X91977346Y-47271857D01*
X90824685Y-47748127D01*
X89942026Y-48629247D01*
X89463746Y-49781074D01*
X89462657Y-51028254D01*
X89938927Y-52180915D01*
X90820047Y-53063574D01*
X91971874Y-53541854D01*
X93219054Y-53542943D01*
X93219054Y-60032125D01*
X93208923Y-60021976D01*
X92681691Y-59803050D01*
X92110813Y-59802552D01*
X91583200Y-60020557D01*
X91179176Y-60423877D01*
X91125138Y-60554015D01*
X91072243Y-60426000D01*
X90668923Y-60021976D01*
X90141691Y-59803050D01*
X89570813Y-59802552D01*
X89043200Y-60020557D01*
X88639176Y-60423877D01*
X88420250Y-60951109D01*
X88419752Y-61521987D01*
X88637757Y-62049600D01*
X89041077Y-62453624D01*
X89568309Y-62672550D01*
X90139187Y-62673048D01*
X90139187Y-65507185D01*
X82325201Y-57693199D01*
X82078639Y-57528452D01*
X81787800Y-57470600D01*
X76619711Y-57470600D01*
X76545286Y-57396045D01*
X76183388Y-57245772D01*
X75791531Y-57245430D01*
X75429371Y-57395071D01*
X75152045Y-57671914D01*
X75001772Y-58033812D01*
X75001643Y-58181800D01*
X73507402Y-58181800D01*
X72501278Y-57175676D01*
X72501370Y-57070331D01*
X72351729Y-56708171D01*
X72074886Y-56430845D01*
X71712988Y-56280572D01*
X71321131Y-56280230D01*
X70958971Y-56429871D01*
X70681645Y-56706714D01*
X70531372Y-57068612D01*
X70531030Y-57460469D01*
X70680671Y-57822629D01*
X70957514Y-58099955D01*
X71319412Y-58250228D01*
X71426319Y-58250321D01*
X72655199Y-59479201D01*
X72901761Y-59643948D01*
X73192600Y-59701800D01*
X78922998Y-59701800D01*
X79303261Y-60082063D01*
X79290171Y-60087471D01*
X79012845Y-60364314D01*
X78945705Y-60526004D01*
X78875788Y-60496972D01*
X78483931Y-60496630D01*
X78121771Y-60646271D01*
X77844445Y-60923114D01*
X77694172Y-61285012D01*
X77693830Y-61676869D01*
X77843471Y-62039029D01*
X78120314Y-62316355D01*
X78482212Y-62466628D01*
X78589119Y-62466721D01*
X79443000Y-63320602D01*
X79443000Y-78449000D01*
X79500852Y-78739839D01*
X79664170Y-78984262D01*
X79665599Y-78986401D01*
X79725922Y-79046724D01*
X79725830Y-79152069D01*
X79875471Y-79514229D01*
X80152314Y-79791555D01*
X80514212Y-79941828D01*
X80906069Y-79942170D01*
X80906069Y-84020867D01*
X79521201Y-82635999D01*
X79274639Y-82471252D01*
X78983800Y-82413400D01*
X77561400Y-82413400D01*
X77270561Y-82471252D01*
X77270560Y-82471252D01*
X77023999Y-82635999D01*
X74483999Y-85175999D01*
X74319252Y-85422561D01*
X74261400Y-85713400D01*
X74261400Y-92751089D01*
X74186845Y-92825514D01*
X74036572Y-93187412D01*
X74036230Y-93579269D01*
X74185871Y-93941429D01*
X74462714Y-94218755D01*
X74824612Y-94369028D01*
X75216469Y-94369370D01*
X75578629Y-94219729D01*
X75855955Y-93942886D01*
X76006228Y-93580988D01*
X76006570Y-93189131D01*
X75856929Y-92826971D01*
X75781400Y-92751310D01*
X75781400Y-86028202D01*
X77876202Y-83933400D01*
X78129029Y-83933400D01*
X77998972Y-84246612D01*
X77998630Y-84638469D01*
X78148271Y-85000629D01*
X78223800Y-85076290D01*
X78223800Y-95365400D01*
X78281652Y-95656239D01*
X78446399Y-95902801D01*
X80233922Y-97690324D01*
X80233830Y-97795669D01*
X80383471Y-98157829D01*
X80660314Y-98435155D01*
X81022212Y-98585428D01*
X81414069Y-98585770D01*
X81776229Y-98436129D01*
X82053555Y-98159286D01*
X82203828Y-97797388D01*
X82204170Y-97405531D01*
X82054529Y-97043371D01*
X81777686Y-96766045D01*
X81415788Y-96615772D01*
X81308881Y-96615679D01*
X79743800Y-95050598D01*
X79743800Y-92184283D01*
X79949114Y-92389955D01*
X80311012Y-92540228D01*
X80417919Y-92540321D01*
X88504799Y-100627201D01*
X88751361Y-100791948D01*
X89042200Y-100849800D01*
X90476089Y-100849800D01*
X85768688Y-105557200D01*
X84481344Y-105557200D01*
X84603428Y-105263188D01*
X84603521Y-105156281D01*
X86382900Y-103376902D01*
X86665029Y-103260329D01*
X86942355Y-102983486D01*
X87092628Y-102621588D01*
X87092970Y-102229731D01*
X86943329Y-101867571D01*
X86666486Y-101590245D01*
X86304588Y-101439972D01*
X85912731Y-101439630D01*
X85550571Y-101589271D01*
X85273245Y-101866114D01*
X85122972Y-102228012D01*
X85122746Y-102487452D01*
X83528876Y-104081322D01*
X83423531Y-104081230D01*
X83061371Y-104230871D01*
X82784045Y-104507714D01*
X82633772Y-104869612D01*
X82633430Y-105261469D01*
X82755623Y-105557200D01*
X81422200Y-105557200D01*
X81026123Y-105635985D01*
X80690344Y-105860344D01*
X80465985Y-106196123D01*
X80387200Y-106592200D01*
X80465985Y-106988277D01*
X80690344Y-107324056D01*
X81026123Y-107548415D01*
X81422200Y-107627200D01*
X86197395Y-107627200D01*
X86197400Y-107627201D01*
X86593477Y-107548415D01*
X86929256Y-107324056D01*
X94346055Y-99907256D01*
X94570415Y-99571477D01*
X94649201Y-99175400D01*
X94570415Y-98779323D01*
X94346055Y-98443545D01*
X94010277Y-98219185D01*
X93614200Y-98140399D01*
X93521080Y-98158922D01*
X96212996Y-95467006D01*
X96083772Y-95778212D01*
X96083430Y-96170069D01*
X96233071Y-96532229D01*
X96509914Y-96809555D01*
X96871812Y-96959828D01*
X97263669Y-96960170D01*
X97506026Y-96860030D01*
X97505830Y-97084469D01*
X97655471Y-97446629D01*
X97731000Y-97522290D01*
X97731000Y-116628352D01*
X97431330Y-116828585D01*
X97421757Y-116842913D01*
X97417762Y-116821683D01*
X97278690Y-116605559D01*
X97066490Y-116460569D01*
X96814600Y-116409560D01*
X95087400Y-116409560D01*
X94852083Y-116453838D01*
X94635959Y-116592910D01*
X94490969Y-116805110D01*
X94439960Y-117057000D01*
X94439960Y-119089000D01*
X94484238Y-119324317D01*
X94623310Y-119540441D01*
X94835510Y-119685431D01*
X95087400Y-119736440D01*
X96814600Y-119736440D01*
X97049917Y-119692162D01*
X97266041Y-119553090D01*
X97411031Y-119340890D01*
X97419400Y-119299561D01*
X97431330Y-119317415D01*
X97917511Y-119642271D01*
X98491000Y-119756345D01*
X98491000Y-122873600D01*
X84034874Y-122873600D01*
X84034874Y-121126119D01*
X84445763Y-120924368D01*
X84733002Y-120583678D01*
X84868000Y-120159000D01*
X84868000Y-119884000D01*
X83860000Y-119884000D01*
X83860000Y-119630000D01*
X84868000Y-119630000D01*
X84868000Y-119355000D01*
X84733002Y-118930322D01*
X84445763Y-118589632D01*
X84034874Y-118387881D01*
X83860000Y-118514046D01*
X83860000Y-119630000D01*
X83860000Y-119884000D01*
X83860000Y-120999954D01*
X84034874Y-121126119D01*
X84034874Y-122873600D01*
X83431126Y-122873600D01*
X83431126Y-121126119D01*
X83606000Y-120999954D01*
X83606000Y-119884000D01*
X82598000Y-119884000D01*
X82598000Y-119630000D01*
X83606000Y-119630000D01*
X83606000Y-118514046D01*
X83431126Y-118387881D01*
X83034131Y-118582809D01*
X83034131Y-118158229D01*
X83444049Y-118016568D01*
X83768552Y-117728821D01*
X83952268Y-117354938D01*
X83825734Y-117184000D01*
X82860000Y-117184000D01*
X82860000Y-116930000D01*
X83825734Y-116930000D01*
X83952268Y-116759062D01*
X83768552Y-116385179D01*
X83444049Y-116097432D01*
X83034131Y-115955771D01*
X82860000Y-116104437D01*
X82860000Y-116930000D01*
X82860000Y-117184000D01*
X82860000Y-118009563D01*
X83034131Y-118158229D01*
X83034131Y-118582809D01*
X83020237Y-118589632D01*
X82732998Y-118930322D01*
X82598000Y-119355000D01*
X82598000Y-119630000D01*
X82598000Y-119884000D01*
X82598000Y-120159000D01*
X82732998Y-120583678D01*
X83020237Y-120924368D01*
X83431126Y-121126119D01*
X83431126Y-122873600D01*
X82431869Y-122873600D01*
X82431869Y-118158229D01*
X82606000Y-118009563D01*
X82606000Y-117184000D01*
X81640266Y-117184000D01*
X81640266Y-116930000D01*
X82606000Y-116930000D01*
X82606000Y-116104437D01*
X82431869Y-115955771D01*
X82352598Y-115983165D01*
X82352598Y-111589601D01*
X82352603Y-111589600D01*
X88483400Y-111589600D01*
X88879477Y-111510815D01*
X89215256Y-111286456D01*
X89439615Y-110950677D01*
X89518400Y-110554600D01*
X89439615Y-110158523D01*
X89215256Y-109822744D01*
X88879477Y-109598385D01*
X88483400Y-109519600D01*
X82781310Y-109519600D01*
X80122056Y-106860347D01*
X79786278Y-106635987D01*
X79390200Y-106557202D01*
X78994123Y-106635987D01*
X78658345Y-106860347D01*
X78433985Y-107196125D01*
X78355200Y-107592202D01*
X78433985Y-107988280D01*
X78658345Y-108324058D01*
X81620742Y-111286456D01*
X81956521Y-111510815D01*
X82352598Y-111589601D01*
X82352598Y-115983165D01*
X82021951Y-116097432D01*
X81697448Y-116385179D01*
X81513732Y-116759062D01*
X81640266Y-116930000D01*
X81640266Y-117184000D01*
X81513732Y-117354938D01*
X81697448Y-117728821D01*
X82021951Y-118016568D01*
X82431869Y-118158229D01*
X82431869Y-122873600D01*
X78034131Y-122873600D01*
X78034131Y-118158229D01*
X78444049Y-118016568D01*
X78768552Y-117728821D01*
X78952268Y-117354938D01*
X78825734Y-117184000D01*
X77860000Y-117184000D01*
X77860000Y-116930000D01*
X78825734Y-116930000D01*
X78952268Y-116759062D01*
X78768552Y-116385179D01*
X78444049Y-116097432D01*
X78034131Y-115955771D01*
X77860000Y-116104437D01*
X77860000Y-116930000D01*
X77860000Y-117184000D01*
X77860000Y-118009563D01*
X78034131Y-118158229D01*
X78034131Y-122873600D01*
X77034874Y-122873600D01*
X77034874Y-121126119D01*
X77445763Y-120924368D01*
X77733002Y-120583678D01*
X77868000Y-120159000D01*
X77868000Y-119884000D01*
X76860000Y-119884000D01*
X76860000Y-119630000D01*
X77868000Y-119630000D01*
X77868000Y-119355000D01*
X77733002Y-118930322D01*
X77445763Y-118589632D01*
X77431869Y-118582810D01*
X77431869Y-118158229D01*
X77606000Y-118009563D01*
X77606000Y-117184000D01*
X76640266Y-117184000D01*
X76640266Y-116930000D01*
X77606000Y-116930000D01*
X77606000Y-116104437D01*
X77431869Y-115955771D01*
X77021951Y-116097432D01*
X76697448Y-116385179D01*
X76513732Y-116759062D01*
X76640266Y-116930000D01*
X76640266Y-117184000D01*
X76513732Y-117354938D01*
X76697448Y-117728821D01*
X77021951Y-118016568D01*
X77431869Y-118158229D01*
X77431869Y-118582810D01*
X77034874Y-118387881D01*
X76860000Y-118514046D01*
X76860000Y-119630000D01*
X76860000Y-119884000D01*
X76860000Y-120999954D01*
X77034874Y-121126119D01*
X77034874Y-122873600D01*
X76431126Y-122873600D01*
X76431126Y-121126119D01*
X76606000Y-120999954D01*
X76606000Y-119884000D01*
X75598000Y-119884000D01*
X75598000Y-119630000D01*
X76606000Y-119630000D01*
X76606000Y-118514046D01*
X76431126Y-118387881D01*
X76020237Y-118589632D01*
X75732998Y-118930322D01*
X75598000Y-119355000D01*
X75598000Y-119630000D01*
X75598000Y-119884000D01*
X75598000Y-120159000D01*
X75732998Y-120583678D01*
X76020237Y-120924368D01*
X76431126Y-121126119D01*
X76431126Y-122873600D01*
X68728513Y-122873600D01*
X68728513Y-86639784D01*
X69280920Y-86446554D01*
X69717332Y-86056636D01*
X69971309Y-85529391D01*
X69973958Y-85513626D01*
X69852817Y-85281600D01*
X68493600Y-85281600D01*
X68493600Y-86495524D01*
X68728513Y-86639784D01*
X68728513Y-122873600D01*
X65583854Y-122873600D01*
X65583854Y-121614943D01*
X66736515Y-121138673D01*
X67619174Y-120257553D01*
X68097454Y-119105726D01*
X68098543Y-117858546D01*
X68004687Y-117631398D01*
X68004687Y-86639784D01*
X68239600Y-86495524D01*
X68239600Y-85281600D01*
X66880383Y-85281600D01*
X66880383Y-85027600D01*
X68239600Y-85027600D01*
X68239600Y-85007600D01*
X68493600Y-85007600D01*
X68493600Y-85027600D01*
X69852817Y-85027600D01*
X69973958Y-84795574D01*
X69971309Y-84779809D01*
X69717332Y-84252564D01*
X69301531Y-83881061D01*
X69611015Y-83674270D01*
X69935871Y-83188089D01*
X70049945Y-82614600D01*
X69935871Y-82041111D01*
X69611015Y-81554930D01*
X69296234Y-81344600D01*
X69611015Y-81134270D01*
X69935871Y-80648089D01*
X70049945Y-80074600D01*
X69935871Y-79501111D01*
X69611015Y-79014930D01*
X69596687Y-79005357D01*
X69617917Y-79001362D01*
X69834041Y-78862290D01*
X69979031Y-78650090D01*
X70030040Y-78398200D01*
X70030040Y-76671000D01*
X69985762Y-76435683D01*
X69846690Y-76219559D01*
X69634490Y-76074569D01*
X69382600Y-76023560D01*
X67350600Y-76023560D01*
X67115283Y-76067838D01*
X66899159Y-76206910D01*
X66754169Y-76419110D01*
X66703160Y-76671000D01*
X66703160Y-78398200D01*
X66747438Y-78633517D01*
X66886510Y-78849641D01*
X67098710Y-78994631D01*
X67140039Y-79003000D01*
X67122185Y-79014930D01*
X66797329Y-79501111D01*
X66683255Y-80074600D01*
X66797329Y-80648089D01*
X67122185Y-81134270D01*
X67436966Y-81344600D01*
X67122185Y-81554930D01*
X66797329Y-82041111D01*
X66683255Y-82614600D01*
X66797329Y-83188089D01*
X67122185Y-83674270D01*
X67431669Y-83881061D01*
X67015868Y-84252564D01*
X66761891Y-84779809D01*
X66759242Y-84795574D01*
X66880383Y-85027600D01*
X66880383Y-85281600D01*
X66759242Y-85513626D01*
X66761891Y-85529391D01*
X67015868Y-86056636D01*
X67452280Y-86446554D01*
X68004687Y-86639784D01*
X68004687Y-117631398D01*
X67622273Y-116705885D01*
X66741153Y-115823226D01*
X65589326Y-115344946D01*
X64342146Y-115343857D01*
X63189485Y-115820127D01*
X62306826Y-116701247D01*
X61828546Y-117853074D01*
X61827457Y-119100254D01*
X62303727Y-120252915D01*
X63184847Y-121135574D01*
X64336674Y-121613854D01*
X65583854Y-121614943D01*
X65583854Y-122873600D01*
X61787919Y-122873600D01*
X61737346Y-43422400D01*
X119496800Y-43422400D01*
X119496800Y-43422400D01*
G37*
X119496800Y-43422400D02*
X119496800Y-117170559D01*
X118760353Y-116432826D01*
X117608526Y-115954546D01*
X116361346Y-115953457D01*
X115208685Y-116429727D01*
X114326026Y-117310847D01*
X113847746Y-118462674D01*
X113846657Y-119709854D01*
X114322927Y-120862515D01*
X115204047Y-121745174D01*
X116355874Y-122223454D01*
X117603054Y-122224543D01*
X118755715Y-121748273D01*
X119496800Y-121008480D01*
X119496800Y-122873600D01*
X103930026Y-122873600D01*
X103930026Y-119680358D01*
X103945791Y-119677709D01*
X104473036Y-119423732D01*
X104862954Y-118987320D01*
X105056184Y-118434913D01*
X104911924Y-118200000D01*
X103698000Y-118200000D01*
X103698000Y-117946000D01*
X104911924Y-117946000D01*
X105056184Y-117711087D01*
X104862954Y-117158680D01*
X104473036Y-116722268D01*
X103945791Y-116468291D01*
X103930026Y-116465642D01*
X103698000Y-116586783D01*
X103698000Y-117946000D01*
X103698000Y-118200000D01*
X103698000Y-119559217D01*
X103930026Y-119680358D01*
X103930026Y-122873600D01*
X98491000Y-122873600D01*
X98491000Y-119756345D01*
X99064489Y-119642271D01*
X99550670Y-119317415D01*
X99761000Y-119002634D01*
X99971330Y-119317415D01*
X100457511Y-119642271D01*
X101031000Y-119756345D01*
X101604489Y-119642271D01*
X102090670Y-119317415D01*
X102297461Y-119007931D01*
X102668964Y-119423732D01*
X103196209Y-119677709D01*
X103211974Y-119680358D01*
X103444000Y-119559217D01*
X103444000Y-118200000D01*
X103424000Y-118200000D01*
X103424000Y-117946000D01*
X103444000Y-117946000D01*
X103444000Y-116586783D01*
X103211974Y-116465642D01*
X103196209Y-116468291D01*
X102668964Y-116722268D01*
X102297461Y-117138069D01*
X102090670Y-116828585D01*
X101791000Y-116628352D01*
X101791000Y-98565800D01*
X101733148Y-98274961D01*
X101568401Y-98028399D01*
X100441278Y-96901276D01*
X100441308Y-96866510D01*
X110015019Y-106440221D01*
X109914055Y-106947800D01*
X110028129Y-107521289D01*
X110352985Y-108007470D01*
X110367313Y-108017043D01*
X110346083Y-108021038D01*
X110129959Y-108160110D01*
X109984969Y-108372310D01*
X109933960Y-108624200D01*
X109933960Y-110351400D01*
X109978238Y-110586717D01*
X110117310Y-110802841D01*
X110329510Y-110947831D01*
X110581400Y-110998840D01*
X112613400Y-110998840D01*
X112848717Y-110954562D01*
X113064841Y-110815490D01*
X113209831Y-110603290D01*
X113260840Y-110351400D01*
X113260840Y-108624200D01*
X113216562Y-108388883D01*
X113077490Y-108172759D01*
X112865290Y-108027769D01*
X112823961Y-108019400D01*
X112841815Y-108007470D01*
X113166671Y-107521289D01*
X113280745Y-106947800D01*
X113166671Y-106374311D01*
X112841815Y-105888130D01*
X112527034Y-105677800D01*
X112841815Y-105467470D01*
X113166671Y-104981289D01*
X113280745Y-104407800D01*
X113166671Y-103834311D01*
X112841815Y-103348130D01*
X112532331Y-103141339D01*
X112948132Y-102769836D01*
X113202109Y-102242591D01*
X113204758Y-102226826D01*
X113083617Y-101994800D01*
X111724400Y-101994800D01*
X111724400Y-101740800D01*
X113083617Y-101740800D01*
X113204758Y-101508774D01*
X113202109Y-101493009D01*
X112948132Y-100965764D01*
X112511720Y-100575846D01*
X111959313Y-100382616D01*
X111724400Y-100526876D01*
X111724400Y-101740800D01*
X111724400Y-101994800D01*
X111724400Y-102014800D01*
X111470400Y-102014800D01*
X111470400Y-101994800D01*
X111450400Y-101994800D01*
X111450400Y-101740800D01*
X111470400Y-101740800D01*
X111470400Y-100526876D01*
X111235487Y-100382616D01*
X110683080Y-100575846D01*
X110246668Y-100965764D01*
X109992691Y-101493009D01*
X109990042Y-101508774D01*
X110111182Y-101740798D01*
X110005200Y-101740798D01*
X103069002Y-94804600D01*
X106050198Y-94804600D01*
X108377122Y-97131524D01*
X108377030Y-97236869D01*
X108526671Y-97599029D01*
X108803514Y-97876355D01*
X109165412Y-98026628D01*
X109557269Y-98026970D01*
X109919429Y-97877329D01*
X110196755Y-97600486D01*
X110347028Y-97238588D01*
X110347370Y-96846731D01*
X110197729Y-96484571D01*
X109920886Y-96207245D01*
X109558988Y-96056972D01*
X109452081Y-96056879D01*
X107387002Y-93991800D01*
X108336198Y-93991800D01*
X108529522Y-94185124D01*
X108529430Y-94290469D01*
X108679071Y-94652629D01*
X108955914Y-94929955D01*
X109317812Y-95080228D01*
X109709669Y-95080570D01*
X110071829Y-94930929D01*
X110349155Y-94654086D01*
X110499428Y-94292188D01*
X110499770Y-93900331D01*
X110350129Y-93538171D01*
X110073286Y-93260845D01*
X109711388Y-93110572D01*
X109604481Y-93110479D01*
X109188401Y-92694399D01*
X108941839Y-92529652D01*
X108651000Y-92471800D01*
X106619000Y-92471800D01*
X106619000Y-89644001D01*
X107015077Y-89565215D01*
X107277306Y-89390000D01*
X113172195Y-89390000D01*
X113172200Y-89390001D01*
X113568277Y-89311215D01*
X113904056Y-89086856D01*
X118171253Y-84819658D01*
X118171256Y-84819656D01*
X118274929Y-84664497D01*
X118395615Y-84483877D01*
X118474401Y-84087800D01*
X118474400Y-84087795D01*
X118474400Y-69051000D01*
X118395615Y-68654923D01*
X118171256Y-68319144D01*
X117835477Y-68094785D01*
X117439400Y-68016000D01*
X117242612Y-68055144D01*
X117043322Y-68094785D01*
X116880714Y-68203436D01*
X116707544Y-68319144D01*
X116707542Y-68319147D01*
X116655089Y-68371600D01*
X109137250Y-68371600D01*
X109027078Y-68297985D01*
X108631000Y-68219200D01*
X108346200Y-68219200D01*
X107950123Y-68297985D01*
X107614344Y-68522344D01*
X107389985Y-68858123D01*
X107311200Y-69254200D01*
X107389985Y-69650277D01*
X107491488Y-69802187D01*
X107491585Y-69802677D01*
X107715944Y-70138456D01*
X108051723Y-70362815D01*
X108447800Y-70441600D01*
X116404400Y-70441600D01*
X116404400Y-83659089D01*
X112743488Y-87320000D01*
X106873005Y-87320000D01*
X106873000Y-87319999D01*
X106476922Y-87398785D01*
X106342429Y-87488651D01*
X106141144Y-87623144D01*
X106141142Y-87623147D01*
X105887144Y-87877144D01*
X105662785Y-88212923D01*
X105583999Y-88609000D01*
X105662785Y-89005077D01*
X105887144Y-89340856D01*
X106222923Y-89565215D01*
X106619000Y-89644001D01*
X106619000Y-92471800D01*
X96970426Y-92471800D01*
X96970426Y-76449558D01*
X96986191Y-76446909D01*
X97513436Y-76192932D01*
X97903354Y-75756520D01*
X98096584Y-75204113D01*
X97952324Y-74969200D01*
X96738400Y-74969200D01*
X96738400Y-74715200D01*
X97952324Y-74715200D01*
X98096584Y-74480287D01*
X97903354Y-73927880D01*
X97513436Y-73491468D01*
X96986191Y-73237491D01*
X96970426Y-73234842D01*
X96738400Y-73355983D01*
X96738400Y-74715200D01*
X96738400Y-74969200D01*
X96738400Y-76328417D01*
X96970426Y-76449558D01*
X96970426Y-92471800D01*
X95697000Y-92471800D01*
X95406161Y-92529652D01*
X95406160Y-92529652D01*
X95159599Y-92694399D01*
X94831400Y-93022598D01*
X94831400Y-76286848D01*
X95131070Y-76086615D01*
X95337861Y-75777131D01*
X95709364Y-76192932D01*
X96236609Y-76446909D01*
X96252374Y-76449558D01*
X96484400Y-76328417D01*
X96484400Y-74969200D01*
X96464400Y-74969200D01*
X96464400Y-74715200D01*
X96484400Y-74715200D01*
X96484400Y-73355983D01*
X96252374Y-73234842D01*
X96236609Y-73237491D01*
X95709364Y-73491468D01*
X95337861Y-73907269D01*
X95131070Y-73597785D01*
X94644889Y-73272929D01*
X94071400Y-73158855D01*
X93497911Y-73272929D01*
X93011730Y-73597785D01*
X92801400Y-73912566D01*
X92591070Y-73597785D01*
X92104889Y-73272929D01*
X91531400Y-73158855D01*
X90957911Y-73272929D01*
X90471730Y-73597785D01*
X90261400Y-73912566D01*
X90051070Y-73597785D01*
X89564889Y-73272929D01*
X88991400Y-73158855D01*
X88417911Y-73272929D01*
X87931730Y-73597785D01*
X87721400Y-73912566D01*
X87511070Y-73597785D01*
X87024889Y-73272929D01*
X86451400Y-73158855D01*
X85877911Y-73272929D01*
X85391730Y-73597785D01*
X85382157Y-73612113D01*
X85378162Y-73590883D01*
X85239090Y-73374759D01*
X85026890Y-73229769D01*
X84775000Y-73178760D01*
X83047800Y-73178760D01*
X82812483Y-73223038D01*
X82596359Y-73362110D01*
X82451369Y-73574310D01*
X82400360Y-73826200D01*
X82400360Y-75858200D01*
X82444638Y-76093517D01*
X82583710Y-76309641D01*
X82795910Y-76454631D01*
X83047800Y-76505640D01*
X84775000Y-76505640D01*
X85010317Y-76461362D01*
X85226441Y-76322290D01*
X85371431Y-76110090D01*
X85379800Y-76068761D01*
X85391730Y-76086615D01*
X85877911Y-76411471D01*
X86451400Y-76525545D01*
X86958979Y-76424581D01*
X90568200Y-80033802D01*
X90568200Y-91582689D01*
X90493645Y-91657114D01*
X90343372Y-92019012D01*
X90343030Y-92410869D01*
X90492671Y-92773029D01*
X90769514Y-93050355D01*
X91131412Y-93200628D01*
X91407684Y-93200869D01*
X91419071Y-93228429D01*
X91695914Y-93505755D01*
X92057812Y-93656028D01*
X92317410Y-93656255D01*
X92372271Y-93789029D01*
X92649114Y-94066355D01*
X93011012Y-94216628D01*
X93038090Y-94216652D01*
X93134271Y-94449429D01*
X93269302Y-94584696D01*
X89794198Y-98059800D01*
X89407802Y-98059800D01*
X88011539Y-96663537D01*
X88024629Y-96658129D01*
X88301955Y-96381286D01*
X88452228Y-96019388D01*
X88452570Y-95627531D01*
X88302929Y-95265371D01*
X88227400Y-95189710D01*
X88227400Y-94908200D01*
X88169548Y-94617361D01*
X88004801Y-94370799D01*
X85810878Y-92176876D01*
X85810970Y-92071531D01*
X85661329Y-91709371D01*
X85384486Y-91432045D01*
X85022588Y-91281772D01*
X84630731Y-91281430D01*
X84268571Y-91431071D01*
X83991245Y-91707914D01*
X83840972Y-92069812D01*
X83840630Y-92461669D01*
X83862429Y-92514427D01*
X81197601Y-89849599D01*
X80951039Y-89684852D01*
X80689316Y-89632792D01*
X80507686Y-89450845D01*
X80145788Y-89300572D01*
X79753931Y-89300230D01*
X79743800Y-89304416D01*
X79743800Y-85076511D01*
X79777984Y-85042386D01*
X86228322Y-91492724D01*
X86228230Y-91598069D01*
X86377871Y-91960229D01*
X86654714Y-92237555D01*
X87016612Y-92387828D01*
X87408469Y-92388170D01*
X87770629Y-92238529D01*
X88047955Y-91961686D01*
X88198228Y-91599788D01*
X88198570Y-91207931D01*
X88048929Y-90845771D01*
X87772086Y-90568445D01*
X87410188Y-90418172D01*
X87303281Y-90418079D01*
X80906069Y-84020867D01*
X80906069Y-79942170D01*
X81268229Y-79792529D01*
X81545555Y-79515686D01*
X81695828Y-79153788D01*
X81696058Y-78890265D01*
X81725429Y-78878129D01*
X82002755Y-78601286D01*
X82153028Y-78239388D01*
X82153370Y-77847531D01*
X82003729Y-77485371D01*
X81928200Y-77409710D01*
X81928200Y-62707002D01*
X88473665Y-69252467D01*
X88637757Y-69649600D01*
X89041077Y-70053624D01*
X89568309Y-70272550D01*
X90139187Y-70273048D01*
X90666800Y-70055043D01*
X91070824Y-69651723D01*
X91124862Y-69521585D01*
X91177757Y-69649600D01*
X91581077Y-70053624D01*
X92108309Y-70272550D01*
X92679187Y-70273048D01*
X93206800Y-70055043D01*
X93610824Y-69651723D01*
X93664862Y-69521585D01*
X93717757Y-69649600D01*
X94121077Y-70053624D01*
X94175000Y-70076015D01*
X94175000Y-70117800D01*
X94232852Y-70408639D01*
X94397599Y-70655201D01*
X96175599Y-72433201D01*
X96422161Y-72597948D01*
X96713000Y-72655800D01*
X102707400Y-72655800D01*
X102998239Y-72597948D01*
X103244801Y-72433201D01*
X105276801Y-70401201D01*
X105441548Y-70154639D01*
X105499400Y-69863800D01*
X105499400Y-46953000D01*
X105441548Y-46662161D01*
X105276801Y-46415599D01*
X103397201Y-44535999D01*
X103150639Y-44371252D01*
X102859800Y-44313400D01*
X66385400Y-44313400D01*
X66094561Y-44371252D01*
X65847999Y-44535999D01*
X65683252Y-44782561D01*
X65625400Y-45073400D01*
X65625400Y-62955000D01*
X65683252Y-63245839D01*
X65847999Y-63492401D01*
X69210322Y-66854724D01*
X69210230Y-66960069D01*
X69359871Y-67322229D01*
X69636714Y-67599555D01*
X69998612Y-67749828D01*
X70390469Y-67750170D01*
X70752629Y-67600529D01*
X71029955Y-67323686D01*
X71180228Y-66961788D01*
X71180570Y-66569931D01*
X71030929Y-66207771D01*
X70754086Y-65930445D01*
X70392188Y-65780172D01*
X70285281Y-65780079D01*
X69421110Y-64915908D01*
X69685829Y-64806529D01*
X69963155Y-64529686D01*
X70113428Y-64167788D01*
X70113770Y-63775931D01*
X69964129Y-63413771D01*
X69687286Y-63136445D01*
X69325388Y-62986172D01*
X69218481Y-62986079D01*
X67958200Y-61725798D01*
X67958200Y-48791802D01*
X69595802Y-47154200D01*
X71497006Y-47154200D01*
X71240445Y-47410314D01*
X71090172Y-47772212D01*
X71090079Y-47879119D01*
X69149999Y-49819199D01*
X68985252Y-50065761D01*
X68927400Y-50356600D01*
X68927400Y-59477089D01*
X68852845Y-59551514D01*
X68702572Y-59913412D01*
X68702230Y-60305269D01*
X68851871Y-60667429D01*
X69128714Y-60944755D01*
X69490612Y-61095028D01*
X69882469Y-61095370D01*
X70244629Y-60945729D01*
X70521955Y-60668886D01*
X70672228Y-60306988D01*
X70672570Y-59915131D01*
X70522929Y-59552971D01*
X70447400Y-59477310D01*
X70447400Y-50671402D01*
X72164724Y-48954078D01*
X72270069Y-48954170D01*
X72632229Y-48804529D01*
X72909555Y-48527686D01*
X73059828Y-48165788D01*
X73060170Y-47773931D01*
X72910529Y-47411771D01*
X72653407Y-47154200D01*
X101122598Y-47154200D01*
X102607800Y-48639402D01*
X102607800Y-68939398D01*
X101732198Y-69815000D01*
X99527002Y-69815000D01*
X98888256Y-69176254D01*
X98909750Y-69124491D01*
X98910248Y-68553613D01*
X98692243Y-68026000D01*
X98288923Y-67621976D01*
X97761691Y-67403050D01*
X97190813Y-67402552D01*
X96663200Y-67620557D01*
X96259176Y-68023877D01*
X96205138Y-68154015D01*
X96152243Y-68026000D01*
X95748923Y-67621976D01*
X95221691Y-67403050D01*
X94650813Y-67402552D01*
X94123200Y-67620557D01*
X93719176Y-68023877D01*
X93665138Y-68154015D01*
X93612243Y-68026000D01*
X93208923Y-67621976D01*
X92681691Y-67403050D01*
X92110813Y-67402552D01*
X92056851Y-67424849D01*
X90139187Y-65507185D01*
X90139187Y-62673048D01*
X90666800Y-62455043D01*
X91070824Y-62051723D01*
X91124862Y-61921585D01*
X91177757Y-62049600D01*
X91581077Y-62453624D01*
X92108309Y-62672550D01*
X92679187Y-62673048D01*
X93206800Y-62455043D01*
X93610824Y-62051723D01*
X93664862Y-61921585D01*
X93717757Y-62049600D01*
X94121077Y-62453624D01*
X94648309Y-62672550D01*
X95219187Y-62673048D01*
X95746800Y-62455043D01*
X96150824Y-62051723D01*
X96204862Y-61921585D01*
X96257757Y-62049600D01*
X96661077Y-62453624D01*
X97188309Y-62672550D01*
X97759187Y-62673048D01*
X98286800Y-62455043D01*
X98690824Y-62051723D01*
X98909750Y-61524491D01*
X98910248Y-60953613D01*
X98692243Y-60426000D01*
X98288923Y-60021976D01*
X97761691Y-59803050D01*
X97190813Y-59802552D01*
X96663200Y-60020557D01*
X96259176Y-60423877D01*
X96205138Y-60554015D01*
X96152243Y-60426000D01*
X95748923Y-60021976D01*
X95221691Y-59803050D01*
X94650813Y-59802552D01*
X94123200Y-60020557D01*
X93719176Y-60423877D01*
X93665138Y-60554015D01*
X93612243Y-60426000D01*
X93219054Y-60032125D01*
X93219054Y-53542943D01*
X94371715Y-53066673D01*
X95254374Y-52185553D01*
X95732654Y-51033726D01*
X95733743Y-49786546D01*
X95257473Y-48633885D01*
X94376353Y-47751226D01*
X93224526Y-47272946D01*
X91977346Y-47271857D01*
X90824685Y-47748127D01*
X89942026Y-48629247D01*
X89463746Y-49781074D01*
X89462657Y-51028254D01*
X89938927Y-52180915D01*
X90820047Y-53063574D01*
X91971874Y-53541854D01*
X93219054Y-53542943D01*
X93219054Y-60032125D01*
X93208923Y-60021976D01*
X92681691Y-59803050D01*
X92110813Y-59802552D01*
X91583200Y-60020557D01*
X91179176Y-60423877D01*
X91125138Y-60554015D01*
X91072243Y-60426000D01*
X90668923Y-60021976D01*
X90141691Y-59803050D01*
X89570813Y-59802552D01*
X89043200Y-60020557D01*
X88639176Y-60423877D01*
X88420250Y-60951109D01*
X88419752Y-61521987D01*
X88637757Y-62049600D01*
X89041077Y-62453624D01*
X89568309Y-62672550D01*
X90139187Y-62673048D01*
X90139187Y-65507185D01*
X82325201Y-57693199D01*
X82078639Y-57528452D01*
X81787800Y-57470600D01*
X76619711Y-57470600D01*
X76545286Y-57396045D01*
X76183388Y-57245772D01*
X75791531Y-57245430D01*
X75429371Y-57395071D01*
X75152045Y-57671914D01*
X75001772Y-58033812D01*
X75001643Y-58181800D01*
X73507402Y-58181800D01*
X72501278Y-57175676D01*
X72501370Y-57070331D01*
X72351729Y-56708171D01*
X72074886Y-56430845D01*
X71712988Y-56280572D01*
X71321131Y-56280230D01*
X70958971Y-56429871D01*
X70681645Y-56706714D01*
X70531372Y-57068612D01*
X70531030Y-57460469D01*
X70680671Y-57822629D01*
X70957514Y-58099955D01*
X71319412Y-58250228D01*
X71426319Y-58250321D01*
X72655199Y-59479201D01*
X72901761Y-59643948D01*
X73192600Y-59701800D01*
X78922998Y-59701800D01*
X79303261Y-60082063D01*
X79290171Y-60087471D01*
X79012845Y-60364314D01*
X78945705Y-60526004D01*
X78875788Y-60496972D01*
X78483931Y-60496630D01*
X78121771Y-60646271D01*
X77844445Y-60923114D01*
X77694172Y-61285012D01*
X77693830Y-61676869D01*
X77843471Y-62039029D01*
X78120314Y-62316355D01*
X78482212Y-62466628D01*
X78589119Y-62466721D01*
X79443000Y-63320602D01*
X79443000Y-78449000D01*
X79500852Y-78739839D01*
X79664170Y-78984262D01*
X79665599Y-78986401D01*
X79725922Y-79046724D01*
X79725830Y-79152069D01*
X79875471Y-79514229D01*
X80152314Y-79791555D01*
X80514212Y-79941828D01*
X80906069Y-79942170D01*
X80906069Y-84020867D01*
X79521201Y-82635999D01*
X79274639Y-82471252D01*
X78983800Y-82413400D01*
X77561400Y-82413400D01*
X77270561Y-82471252D01*
X77270560Y-82471252D01*
X77023999Y-82635999D01*
X74483999Y-85175999D01*
X74319252Y-85422561D01*
X74261400Y-85713400D01*
X74261400Y-92751089D01*
X74186845Y-92825514D01*
X74036572Y-93187412D01*
X74036230Y-93579269D01*
X74185871Y-93941429D01*
X74462714Y-94218755D01*
X74824612Y-94369028D01*
X75216469Y-94369370D01*
X75578629Y-94219729D01*
X75855955Y-93942886D01*
X76006228Y-93580988D01*
X76006570Y-93189131D01*
X75856929Y-92826971D01*
X75781400Y-92751310D01*
X75781400Y-86028202D01*
X77876202Y-83933400D01*
X78129029Y-83933400D01*
X77998972Y-84246612D01*
X77998630Y-84638469D01*
X78148271Y-85000629D01*
X78223800Y-85076290D01*
X78223800Y-95365400D01*
X78281652Y-95656239D01*
X78446399Y-95902801D01*
X80233922Y-97690324D01*
X80233830Y-97795669D01*
X80383471Y-98157829D01*
X80660314Y-98435155D01*
X81022212Y-98585428D01*
X81414069Y-98585770D01*
X81776229Y-98436129D01*
X82053555Y-98159286D01*
X82203828Y-97797388D01*
X82204170Y-97405531D01*
X82054529Y-97043371D01*
X81777686Y-96766045D01*
X81415788Y-96615772D01*
X81308881Y-96615679D01*
X79743800Y-95050598D01*
X79743800Y-92184283D01*
X79949114Y-92389955D01*
X80311012Y-92540228D01*
X80417919Y-92540321D01*
X88504799Y-100627201D01*
X88751361Y-100791948D01*
X89042200Y-100849800D01*
X90476089Y-100849800D01*
X85768688Y-105557200D01*
X84481344Y-105557200D01*
X84603428Y-105263188D01*
X84603521Y-105156281D01*
X86382900Y-103376902D01*
X86665029Y-103260329D01*
X86942355Y-102983486D01*
X87092628Y-102621588D01*
X87092970Y-102229731D01*
X86943329Y-101867571D01*
X86666486Y-101590245D01*
X86304588Y-101439972D01*
X85912731Y-101439630D01*
X85550571Y-101589271D01*
X85273245Y-101866114D01*
X85122972Y-102228012D01*
X85122746Y-102487452D01*
X83528876Y-104081322D01*
X83423531Y-104081230D01*
X83061371Y-104230871D01*
X82784045Y-104507714D01*
X82633772Y-104869612D01*
X82633430Y-105261469D01*
X82755623Y-105557200D01*
X81422200Y-105557200D01*
X81026123Y-105635985D01*
X80690344Y-105860344D01*
X80465985Y-106196123D01*
X80387200Y-106592200D01*
X80465985Y-106988277D01*
X80690344Y-107324056D01*
X81026123Y-107548415D01*
X81422200Y-107627200D01*
X86197395Y-107627200D01*
X86197400Y-107627201D01*
X86593477Y-107548415D01*
X86929256Y-107324056D01*
X94346055Y-99907256D01*
X94570415Y-99571477D01*
X94649201Y-99175400D01*
X94570415Y-98779323D01*
X94346055Y-98443545D01*
X94010277Y-98219185D01*
X93614200Y-98140399D01*
X93521080Y-98158922D01*
X96212996Y-95467006D01*
X96083772Y-95778212D01*
X96083430Y-96170069D01*
X96233071Y-96532229D01*
X96509914Y-96809555D01*
X96871812Y-96959828D01*
X97263669Y-96960170D01*
X97506026Y-96860030D01*
X97505830Y-97084469D01*
X97655471Y-97446629D01*
X97731000Y-97522290D01*
X97731000Y-116628352D01*
X97431330Y-116828585D01*
X97421757Y-116842913D01*
X97417762Y-116821683D01*
X97278690Y-116605559D01*
X97066490Y-116460569D01*
X96814600Y-116409560D01*
X95087400Y-116409560D01*
X94852083Y-116453838D01*
X94635959Y-116592910D01*
X94490969Y-116805110D01*
X94439960Y-117057000D01*
X94439960Y-119089000D01*
X94484238Y-119324317D01*
X94623310Y-119540441D01*
X94835510Y-119685431D01*
X95087400Y-119736440D01*
X96814600Y-119736440D01*
X97049917Y-119692162D01*
X97266041Y-119553090D01*
X97411031Y-119340890D01*
X97419400Y-119299561D01*
X97431330Y-119317415D01*
X97917511Y-119642271D01*
X98491000Y-119756345D01*
X98491000Y-122873600D01*
X84034874Y-122873600D01*
X84034874Y-121126119D01*
X84445763Y-120924368D01*
X84733002Y-120583678D01*
X84868000Y-120159000D01*
X84868000Y-119884000D01*
X83860000Y-119884000D01*
X83860000Y-119630000D01*
X84868000Y-119630000D01*
X84868000Y-119355000D01*
X84733002Y-118930322D01*
X84445763Y-118589632D01*
X84034874Y-118387881D01*
X83860000Y-118514046D01*
X83860000Y-119630000D01*
X83860000Y-119884000D01*
X83860000Y-120999954D01*
X84034874Y-121126119D01*
X84034874Y-122873600D01*
X83431126Y-122873600D01*
X83431126Y-121126119D01*
X83606000Y-120999954D01*
X83606000Y-119884000D01*
X82598000Y-119884000D01*
X82598000Y-119630000D01*
X83606000Y-119630000D01*
X83606000Y-118514046D01*
X83431126Y-118387881D01*
X83034131Y-118582809D01*
X83034131Y-118158229D01*
X83444049Y-118016568D01*
X83768552Y-117728821D01*
X83952268Y-117354938D01*
X83825734Y-117184000D01*
X82860000Y-117184000D01*
X82860000Y-116930000D01*
X83825734Y-116930000D01*
X83952268Y-116759062D01*
X83768552Y-116385179D01*
X83444049Y-116097432D01*
X83034131Y-115955771D01*
X82860000Y-116104437D01*
X82860000Y-116930000D01*
X82860000Y-117184000D01*
X82860000Y-118009563D01*
X83034131Y-118158229D01*
X83034131Y-118582809D01*
X83020237Y-118589632D01*
X82732998Y-118930322D01*
X82598000Y-119355000D01*
X82598000Y-119630000D01*
X82598000Y-119884000D01*
X82598000Y-120159000D01*
X82732998Y-120583678D01*
X83020237Y-120924368D01*
X83431126Y-121126119D01*
X83431126Y-122873600D01*
X82431869Y-122873600D01*
X82431869Y-118158229D01*
X82606000Y-118009563D01*
X82606000Y-117184000D01*
X81640266Y-117184000D01*
X81640266Y-116930000D01*
X82606000Y-116930000D01*
X82606000Y-116104437D01*
X82431869Y-115955771D01*
X82352598Y-115983165D01*
X82352598Y-111589601D01*
X82352603Y-111589600D01*
X88483400Y-111589600D01*
X88879477Y-111510815D01*
X89215256Y-111286456D01*
X89439615Y-110950677D01*
X89518400Y-110554600D01*
X89439615Y-110158523D01*
X89215256Y-109822744D01*
X88879477Y-109598385D01*
X88483400Y-109519600D01*
X82781310Y-109519600D01*
X80122056Y-106860347D01*
X79786278Y-106635987D01*
X79390200Y-106557202D01*
X78994123Y-106635987D01*
X78658345Y-106860347D01*
X78433985Y-107196125D01*
X78355200Y-107592202D01*
X78433985Y-107988280D01*
X78658345Y-108324058D01*
X81620742Y-111286456D01*
X81956521Y-111510815D01*
X82352598Y-111589601D01*
X82352598Y-115983165D01*
X82021951Y-116097432D01*
X81697448Y-116385179D01*
X81513732Y-116759062D01*
X81640266Y-116930000D01*
X81640266Y-117184000D01*
X81513732Y-117354938D01*
X81697448Y-117728821D01*
X82021951Y-118016568D01*
X82431869Y-118158229D01*
X82431869Y-122873600D01*
X78034131Y-122873600D01*
X78034131Y-118158229D01*
X78444049Y-118016568D01*
X78768552Y-117728821D01*
X78952268Y-117354938D01*
X78825734Y-117184000D01*
X77860000Y-117184000D01*
X77860000Y-116930000D01*
X78825734Y-116930000D01*
X78952268Y-116759062D01*
X78768552Y-116385179D01*
X78444049Y-116097432D01*
X78034131Y-115955771D01*
X77860000Y-116104437D01*
X77860000Y-116930000D01*
X77860000Y-117184000D01*
X77860000Y-118009563D01*
X78034131Y-118158229D01*
X78034131Y-122873600D01*
X77034874Y-122873600D01*
X77034874Y-121126119D01*
X77445763Y-120924368D01*
X77733002Y-120583678D01*
X77868000Y-120159000D01*
X77868000Y-119884000D01*
X76860000Y-119884000D01*
X76860000Y-119630000D01*
X77868000Y-119630000D01*
X77868000Y-119355000D01*
X77733002Y-118930322D01*
X77445763Y-118589632D01*
X77431869Y-118582810D01*
X77431869Y-118158229D01*
X77606000Y-118009563D01*
X77606000Y-117184000D01*
X76640266Y-117184000D01*
X76640266Y-116930000D01*
X77606000Y-116930000D01*
X77606000Y-116104437D01*
X77431869Y-115955771D01*
X77021951Y-116097432D01*
X76697448Y-116385179D01*
X76513732Y-116759062D01*
X76640266Y-116930000D01*
X76640266Y-117184000D01*
X76513732Y-117354938D01*
X76697448Y-117728821D01*
X77021951Y-118016568D01*
X77431869Y-118158229D01*
X77431869Y-118582810D01*
X77034874Y-118387881D01*
X76860000Y-118514046D01*
X76860000Y-119630000D01*
X76860000Y-119884000D01*
X76860000Y-120999954D01*
X77034874Y-121126119D01*
X77034874Y-122873600D01*
X76431126Y-122873600D01*
X76431126Y-121126119D01*
X76606000Y-120999954D01*
X76606000Y-119884000D01*
X75598000Y-119884000D01*
X75598000Y-119630000D01*
X76606000Y-119630000D01*
X76606000Y-118514046D01*
X76431126Y-118387881D01*
X76020237Y-118589632D01*
X75732998Y-118930322D01*
X75598000Y-119355000D01*
X75598000Y-119630000D01*
X75598000Y-119884000D01*
X75598000Y-120159000D01*
X75732998Y-120583678D01*
X76020237Y-120924368D01*
X76431126Y-121126119D01*
X76431126Y-122873600D01*
X68728513Y-122873600D01*
X68728513Y-86639784D01*
X69280920Y-86446554D01*
X69717332Y-86056636D01*
X69971309Y-85529391D01*
X69973958Y-85513626D01*
X69852817Y-85281600D01*
X68493600Y-85281600D01*
X68493600Y-86495524D01*
X68728513Y-86639784D01*
X68728513Y-122873600D01*
X65583854Y-122873600D01*
X65583854Y-121614943D01*
X66736515Y-121138673D01*
X67619174Y-120257553D01*
X68097454Y-119105726D01*
X68098543Y-117858546D01*
X68004687Y-117631398D01*
X68004687Y-86639784D01*
X68239600Y-86495524D01*
X68239600Y-85281600D01*
X66880383Y-85281600D01*
X66880383Y-85027600D01*
X68239600Y-85027600D01*
X68239600Y-85007600D01*
X68493600Y-85007600D01*
X68493600Y-85027600D01*
X69852817Y-85027600D01*
X69973958Y-84795574D01*
X69971309Y-84779809D01*
X69717332Y-84252564D01*
X69301531Y-83881061D01*
X69611015Y-83674270D01*
X69935871Y-83188089D01*
X70049945Y-82614600D01*
X69935871Y-82041111D01*
X69611015Y-81554930D01*
X69296234Y-81344600D01*
X69611015Y-81134270D01*
X69935871Y-80648089D01*
X70049945Y-80074600D01*
X69935871Y-79501111D01*
X69611015Y-79014930D01*
X69596687Y-79005357D01*
X69617917Y-79001362D01*
X69834041Y-78862290D01*
X69979031Y-78650090D01*
X70030040Y-78398200D01*
X70030040Y-76671000D01*
X69985762Y-76435683D01*
X69846690Y-76219559D01*
X69634490Y-76074569D01*
X69382600Y-76023560D01*
X67350600Y-76023560D01*
X67115283Y-76067838D01*
X66899159Y-76206910D01*
X66754169Y-76419110D01*
X66703160Y-76671000D01*
X66703160Y-78398200D01*
X66747438Y-78633517D01*
X66886510Y-78849641D01*
X67098710Y-78994631D01*
X67140039Y-79003000D01*
X67122185Y-79014930D01*
X66797329Y-79501111D01*
X66683255Y-80074600D01*
X66797329Y-80648089D01*
X67122185Y-81134270D01*
X67436966Y-81344600D01*
X67122185Y-81554930D01*
X66797329Y-82041111D01*
X66683255Y-82614600D01*
X66797329Y-83188089D01*
X67122185Y-83674270D01*
X67431669Y-83881061D01*
X67015868Y-84252564D01*
X66761891Y-84779809D01*
X66759242Y-84795574D01*
X66880383Y-85027600D01*
X66880383Y-85281600D01*
X66759242Y-85513626D01*
X66761891Y-85529391D01*
X67015868Y-86056636D01*
X67452280Y-86446554D01*
X68004687Y-86639784D01*
X68004687Y-117631398D01*
X67622273Y-116705885D01*
X66741153Y-115823226D01*
X65589326Y-115344946D01*
X64342146Y-115343857D01*
X63189485Y-115820127D01*
X62306826Y-116701247D01*
X61828546Y-117853074D01*
X61827457Y-119100254D01*
X62303727Y-120252915D01*
X63184847Y-121135574D01*
X64336674Y-121613854D01*
X65583854Y-121614943D01*
X65583854Y-122873600D01*
X61787919Y-122873600D01*
X61737346Y-43422400D01*
X119496800Y-43422400D01*
M02*
