%FSLAX45Y45*%
G04 Gerber Fmt 4.5, Leading zero omitted, Abs format (unit mm)*
G04 Created by KiCad (PCBNEW (2015-07-31 BZR 6030)-product) date Sat Sep 12 09:45:07 2015*
%MOMM*%
G01*
G04 APERTURE LIST*
%ADD10C,0.127000*%
%ADD11C,0.100000*%
%ADD12C,0.200000*%
%ADD13C,0.300000*%
G04 APERTURE END LIST*
D10*
D11*
X5664380Y-3795960D02*
X5664380Y-3821360D01*
X12227740Y-12553880D02*
X12227740Y-4080440D01*
X5913300Y-12553880D02*
X12227740Y-12553880D01*
X5913300Y-4075360D02*
X12222660Y-4075360D01*
X5913300Y-12553880D02*
X5913300Y-4075360D01*
D12*
X6349220Y-8744300D02*
X6379220Y-8774300D01*
X6379220Y-8744300D02*
X6349220Y-8774300D01*
X6816580Y-9267540D02*
X6846580Y-9297540D01*
X6846580Y-9267540D02*
X6816580Y-9297540D01*
X6897860Y-6382100D02*
X6927860Y-6412100D01*
X6927860Y-6382100D02*
X6897860Y-6412100D01*
X6953740Y-5996020D02*
X6983740Y-6026020D01*
X6983740Y-5996020D02*
X6953740Y-6026020D01*
X7004540Y-6661500D02*
X7034540Y-6691500D01*
X7034540Y-6661500D02*
X7004540Y-6691500D01*
X7136620Y-5711540D02*
X7166620Y-5741540D01*
X7166620Y-5711540D02*
X7136620Y-5741540D01*
X7192500Y-4781900D02*
X7222500Y-4811900D01*
X7222500Y-4781900D02*
X7192500Y-4811900D01*
X7339820Y-9485980D02*
X7369820Y-9515980D01*
X7369820Y-9485980D02*
X7339820Y-9515980D01*
X7436340Y-10033020D02*
X7466340Y-10063020D01*
X7466340Y-10033020D02*
X7436340Y-10063020D01*
X7487140Y-9323420D02*
X7517140Y-9353420D01*
X7517140Y-9323420D02*
X7487140Y-9353420D01*
X7583660Y-5808060D02*
X7613660Y-5838060D01*
X7613660Y-5808060D02*
X7583660Y-5838060D01*
X7852900Y-6133180D02*
X7882900Y-6163180D01*
X7882900Y-6133180D02*
X7852900Y-6163180D01*
X7857980Y-11140300D02*
X7887980Y-11170300D01*
X7887980Y-11140300D02*
X7857980Y-11170300D01*
X7859260Y-10352900D02*
X7889260Y-10382900D01*
X7889260Y-10352900D02*
X7859260Y-10382900D01*
X7883380Y-8429340D02*
X7913380Y-8459340D01*
X7913380Y-8429340D02*
X7883380Y-8459340D01*
X7913860Y-7713060D02*
X7943860Y-7743060D01*
X7943860Y-7713060D02*
X7913860Y-7743060D01*
X7924020Y-10744220D02*
X7954020Y-10774220D01*
X7954020Y-10744220D02*
X7924020Y-10774220D01*
X7969740Y-6077300D02*
X7999740Y-6107300D01*
X7999740Y-6077300D02*
X7969740Y-6107300D01*
X7979900Y-9013540D02*
X8009900Y-9043540D01*
X8009900Y-9013540D02*
X7979900Y-9043540D01*
X7981100Y-9308000D02*
X8011100Y-9338000D01*
X8011100Y-9308000D02*
X7981100Y-9338000D01*
X8019260Y-10132900D02*
X8049260Y-10162900D01*
X8049260Y-10132900D02*
X8019260Y-10162900D01*
X8035780Y-9140540D02*
X8065780Y-9170540D01*
X8065780Y-9140540D02*
X8035780Y-9170540D01*
X8056100Y-7880700D02*
X8086100Y-7910700D01*
X8086100Y-7880700D02*
X8056100Y-7910700D01*
X8101820Y-7789260D02*
X8131820Y-7819260D01*
X8131820Y-7789260D02*
X8101820Y-7819260D01*
X8106900Y-9745060D02*
X8136900Y-9775060D01*
X8136900Y-9745060D02*
X8106900Y-9775060D01*
X8127220Y-10644220D02*
X8157220Y-10674220D01*
X8157220Y-10644220D02*
X8127220Y-10674220D01*
X8183100Y-9572340D02*
X8213100Y-9602340D01*
X8213100Y-9572340D02*
X8183100Y-9602340D01*
X8188180Y-10152660D02*
X8218180Y-10182660D01*
X8218180Y-10152660D02*
X8188180Y-10182660D01*
X8346860Y-10491640D02*
X8376860Y-10521640D01*
X8376860Y-10491640D02*
X8346860Y-10521640D01*
X8467580Y-9211660D02*
X8497580Y-9241660D01*
X8497580Y-9211660D02*
X8467580Y-9241660D01*
X8569180Y-8419180D02*
X8599180Y-8449180D01*
X8599180Y-8419180D02*
X8569180Y-8449180D01*
X8595780Y-10227480D02*
X8625780Y-10257480D01*
X8625780Y-10227480D02*
X8595780Y-10257480D01*
X8706340Y-9125300D02*
X8736340Y-9155300D01*
X8736340Y-9125300D02*
X8706340Y-9155300D01*
X8731740Y-9567260D02*
X8761740Y-9597260D01*
X8761740Y-9567260D02*
X8731740Y-9597260D01*
X8833340Y-11040460D02*
X8863340Y-11070460D01*
X8863340Y-11040460D02*
X8833340Y-11070460D01*
X9026380Y-9308180D02*
X9056380Y-9338180D01*
X9056380Y-9308180D02*
X9026380Y-9338180D01*
X9117820Y-9206580D02*
X9147820Y-9236580D01*
X9147820Y-9206580D02*
X9117820Y-9236580D01*
X9210460Y-9252120D02*
X9240460Y-9282120D01*
X9240460Y-9252120D02*
X9210460Y-9282120D01*
X9305780Y-9308180D02*
X9335780Y-9338180D01*
X9335780Y-9308180D02*
X9305780Y-9338180D01*
X9346420Y-9902540D02*
X9376420Y-9932540D01*
X9376420Y-9902540D02*
X9346420Y-9932540D01*
X9381980Y-9374220D02*
X9411980Y-9404220D01*
X9411980Y-9374220D02*
X9381980Y-9404220D01*
X9498820Y-10608660D02*
X9528820Y-10638660D01*
X9528820Y-10608660D02*
X9498820Y-10638660D01*
X9691860Y-9475820D02*
X9721860Y-9505820D01*
X9721860Y-9475820D02*
X9691860Y-9505820D01*
X9691860Y-9582500D02*
X9721860Y-9612500D01*
X9721860Y-9582500D02*
X9691860Y-9612500D01*
X9834100Y-9673940D02*
X9864100Y-9703940D01*
X9864100Y-9673940D02*
X9834100Y-9703940D01*
X9930620Y-9684100D02*
X9960620Y-9714100D01*
X9960620Y-9684100D02*
X9930620Y-9714100D01*
X10077940Y-8287100D02*
X10107940Y-8317100D01*
X10107940Y-8287100D02*
X10077940Y-8317100D01*
X10296380Y-8505540D02*
X10326380Y-8535540D01*
X10326380Y-8505540D02*
X10296380Y-8535540D01*
X10646900Y-8845900D02*
X10676900Y-8875900D01*
X10676900Y-8845900D02*
X10646900Y-8875900D01*
X10829780Y-6925660D02*
X10859780Y-6955660D01*
X10859780Y-6925660D02*
X10829780Y-6955660D01*
X10855180Y-6917500D02*
X10885180Y-6947500D01*
X10885180Y-6917500D02*
X10855180Y-6947500D01*
X10921220Y-9689180D02*
X10951220Y-9719180D01*
X10951220Y-9689180D02*
X10921220Y-9719180D01*
X10936460Y-9394540D02*
X10966460Y-9424540D01*
X10966460Y-9394540D02*
X10936460Y-9424540D01*
X11119340Y-8622380D02*
X11149340Y-8652380D01*
X11149340Y-8622380D02*
X11119340Y-8652380D01*
X11728940Y-6890100D02*
X11758940Y-6920100D01*
X11758940Y-6890100D02*
X11728940Y-6920100D01*
X7698300Y-11975700D02*
G75*
G03X7698300Y-11975700I-25000J0D01*
G01*
X7688300Y-12008200D02*
X7688300Y-11943200D01*
X7658300Y-12008200D02*
X7658300Y-11943200D01*
X7688300Y-11943200D02*
G75*
G03X7658300Y-11943200I-15000J0D01*
G01*
X7658300Y-12008200D02*
G75*
G03X7688300Y-12008200I15000J0D01*
G01*
X8398300Y-11975700D02*
G75*
G03X8398300Y-11975700I-25000J0D01*
G01*
X8388300Y-12008200D02*
X8388300Y-11943200D01*
X8358300Y-12008200D02*
X8358300Y-11943200D01*
X8388300Y-11943200D02*
G75*
G03X8358300Y-11943200I-15000J0D01*
G01*
X8358300Y-12008200D02*
G75*
G03X8388300Y-12008200I15000J0D01*
G01*
X7773300Y-11678200D02*
X7773300Y-11733200D01*
X7745800Y-11705700D02*
X7800800Y-11705700D01*
X7758300Y-11723200D02*
X7788300Y-11723200D01*
X7758300Y-11688200D02*
X7788300Y-11688200D01*
X7788300Y-11723200D02*
G75*
G03X7788300Y-11688200I0J17500D01*
G01*
X7758300Y-11688200D02*
G75*
G03X7758300Y-11723200I0J-17500D01*
G01*
X8273300Y-11678200D02*
X8273300Y-11733200D01*
X8245800Y-11705700D02*
X8300800Y-11705700D01*
X8258300Y-11723200D02*
X8288300Y-11723200D01*
X8258300Y-11688200D02*
X8288300Y-11688200D01*
X8288300Y-11723200D02*
G75*
G03X8288300Y-11688200I0J17500D01*
G01*
X8258300Y-11688200D02*
G75*
G03X8258300Y-11723200I0J-17500D01*
G01*
X9013785Y-6152064D02*
X9013785Y-6095495D01*
X8957216Y-6095495D01*
X8957216Y-6152064D01*
X9013785Y-6152064D01*
X9013785Y-6912064D02*
X9013785Y-6855495D01*
X8957216Y-6855495D01*
X8957216Y-6912064D01*
X9013785Y-6912064D01*
X9267785Y-6152064D02*
X9267785Y-6095495D01*
X9211216Y-6095495D01*
X9211216Y-6152064D01*
X9267785Y-6152064D01*
X9267785Y-6912064D02*
X9267785Y-6855495D01*
X9211216Y-6855495D01*
X9211216Y-6912064D01*
X9267785Y-6912064D01*
X9521785Y-6152064D02*
X9521785Y-6095495D01*
X9465216Y-6095495D01*
X9465216Y-6152064D01*
X9521785Y-6152064D01*
X9521785Y-6912064D02*
X9521785Y-6855495D01*
X9465216Y-6855495D01*
X9465216Y-6912064D01*
X9521785Y-6912064D01*
X9775785Y-6152064D02*
X9775785Y-6095495D01*
X9719216Y-6095495D01*
X9719216Y-6152064D01*
X9775785Y-6152064D01*
X9775785Y-6912064D02*
X9775785Y-6855495D01*
X9719216Y-6855495D01*
X9719216Y-6912064D01*
X9775785Y-6912064D01*
X6836660Y-7804260D02*
X6887460Y-7753460D01*
X6836660Y-7702660D01*
X6785860Y-7753460D01*
X6836660Y-7804260D01*
X6836660Y-8058260D02*
X6887460Y-8007460D01*
X6836660Y-7956660D01*
X6785860Y-8007460D01*
X6836660Y-8058260D01*
X6836660Y-8312260D02*
X6887460Y-8261460D01*
X6836660Y-8210660D01*
X6785860Y-8261460D01*
X6836660Y-8312260D01*
X6836660Y-8566260D02*
X6887460Y-8515460D01*
X6836660Y-8464660D01*
X6785860Y-8515460D01*
X6836660Y-8566260D01*
X8391140Y-7535020D02*
X8441940Y-7484220D01*
X8391140Y-7433420D01*
X8340340Y-7484220D01*
X8391140Y-7535020D01*
X8645140Y-7535020D02*
X8695940Y-7484220D01*
X8645140Y-7433420D01*
X8594340Y-7484220D01*
X8645140Y-7535020D01*
X8899140Y-7535020D02*
X8949940Y-7484220D01*
X8899140Y-7433420D01*
X8848340Y-7484220D01*
X8899140Y-7535020D01*
X9153140Y-7535020D02*
X9203940Y-7484220D01*
X9153140Y-7433420D01*
X9102340Y-7484220D01*
X9153140Y-7535020D01*
X9407140Y-7535020D02*
X9457940Y-7484220D01*
X9407140Y-7433420D01*
X9356340Y-7484220D01*
X9407140Y-7535020D01*
X9595100Y-11858100D02*
X9645900Y-11807300D01*
X9595100Y-11756500D01*
X9544300Y-11807300D01*
X9595100Y-11858100D01*
X9661140Y-7535020D02*
X9711940Y-7484220D01*
X9661140Y-7433420D01*
X9610340Y-7484220D01*
X9661140Y-7535020D01*
X9849100Y-11858100D02*
X9899900Y-11807300D01*
X9849100Y-11756500D01*
X9798300Y-11807300D01*
X9849100Y-11858100D01*
X10103100Y-11858100D02*
X10153900Y-11807300D01*
X10103100Y-11756500D01*
X10052300Y-11807300D01*
X10103100Y-11858100D01*
X10357100Y-11858100D02*
X10407900Y-11807300D01*
X10357100Y-11756500D01*
X10306300Y-11807300D01*
X10357100Y-11858100D01*
X11159740Y-10237580D02*
X11210540Y-10186780D01*
X11159740Y-10135980D01*
X11108940Y-10186780D01*
X11159740Y-10237580D01*
X11159740Y-10491580D02*
X11210540Y-10440780D01*
X11159740Y-10389980D01*
X11108940Y-10440780D01*
X11159740Y-10491580D01*
X11159740Y-10745580D02*
X11210540Y-10694780D01*
X11159740Y-10643980D01*
X11108940Y-10694780D01*
X11159740Y-10745580D01*
X11159740Y-10999580D02*
X11210540Y-10948780D01*
X11159740Y-10897980D01*
X11108940Y-10948780D01*
X11159740Y-10999580D01*
X6346300Y-11697940D02*
X6646300Y-11997940D01*
X6646300Y-11697940D02*
X6346300Y-11997940D01*
X6646300Y-11847940D02*
G75*
G03X6646300Y-11847940I-150000J0D01*
G01*
X9109820Y-4890740D02*
X9409820Y-5190740D01*
X9409820Y-4890740D02*
X9109820Y-5190740D01*
X9409820Y-5040740D02*
G75*
G03X9409820Y-5040740I-150000J0D01*
G01*
X11548220Y-11758900D02*
X11848220Y-12058900D01*
X11848220Y-11758900D02*
X11548220Y-12058900D01*
X11848220Y-11908900D02*
G75*
G03X11848220Y-11908900I-150000J0D01*
G01*
D13*
X5930808Y-13024594D02*
X5930808Y-12724594D01*
X6002237Y-12724594D01*
X6045094Y-12738880D01*
X6073666Y-12767451D01*
X6087951Y-12796023D01*
X6102237Y-12853166D01*
X6102237Y-12896023D01*
X6087951Y-12953166D01*
X6073666Y-12981737D01*
X6045094Y-13010309D01*
X6002237Y-13024594D01*
X5930808Y-13024594D01*
X6230808Y-13024594D02*
X6230808Y-12824594D01*
X6230808Y-12881737D02*
X6245094Y-12853166D01*
X6259380Y-12838880D01*
X6287951Y-12824594D01*
X6316523Y-12824594D01*
X6416523Y-13024594D02*
X6416523Y-12824594D01*
X6416523Y-12724594D02*
X6402237Y-12738880D01*
X6416523Y-12753166D01*
X6430808Y-12738880D01*
X6416523Y-12724594D01*
X6416523Y-12753166D01*
X6602237Y-13024594D02*
X6573666Y-13010309D01*
X6559380Y-12981737D01*
X6559380Y-12724594D01*
X6759380Y-13024594D02*
X6730808Y-13010309D01*
X6716523Y-12981737D01*
X6716523Y-12724594D01*
X7102237Y-13024594D02*
X7102237Y-12724594D01*
X7202237Y-12938880D01*
X7302237Y-12724594D01*
X7302237Y-13024594D01*
X7573666Y-13024594D02*
X7573666Y-12867451D01*
X7559380Y-12838880D01*
X7530808Y-12824594D01*
X7473666Y-12824594D01*
X7445094Y-12838880D01*
X7573666Y-13010309D02*
X7545094Y-13024594D01*
X7473666Y-13024594D01*
X7445094Y-13010309D01*
X7430808Y-12981737D01*
X7430808Y-12953166D01*
X7445094Y-12924594D01*
X7473666Y-12910309D01*
X7545094Y-12910309D01*
X7573666Y-12896023D01*
X7716523Y-12824594D02*
X7716523Y-13124594D01*
X7716523Y-12838880D02*
X7745094Y-12824594D01*
X7802237Y-12824594D01*
X7830808Y-12838880D01*
X7845094Y-12853166D01*
X7859380Y-12881737D01*
X7859380Y-12967451D01*
X7845094Y-12996023D01*
X7830808Y-13010309D01*
X7802237Y-13024594D01*
X7745094Y-13024594D01*
X7716523Y-13010309D01*
X7987951Y-12996023D02*
X8002237Y-13010309D01*
X7987951Y-13024594D01*
X7973666Y-13010309D01*
X7987951Y-12996023D01*
X7987951Y-13024594D01*
X7987951Y-12838880D02*
X8002237Y-12853166D01*
X7987951Y-12867451D01*
X7973666Y-12853166D01*
X7987951Y-12838880D01*
X7987951Y-12867451D01*
X5629380Y-13503880D02*
X5659380Y-13533880D01*
X5659380Y-13503880D02*
X5629380Y-13533880D01*
X5987951Y-13354594D02*
X6016523Y-13354594D01*
X6045094Y-13368880D01*
X6059380Y-13383166D01*
X6073666Y-13411737D01*
X6087951Y-13468880D01*
X6087951Y-13540309D01*
X6073666Y-13597451D01*
X6059380Y-13626023D01*
X6045094Y-13640309D01*
X6016523Y-13654594D01*
X5987951Y-13654594D01*
X5959380Y-13640309D01*
X5945094Y-13626023D01*
X5930808Y-13597451D01*
X5916523Y-13540309D01*
X5916523Y-13468880D01*
X5930808Y-13411737D01*
X5945094Y-13383166D01*
X5959380Y-13368880D01*
X5987951Y-13354594D01*
X6216523Y-13626023D02*
X6230808Y-13640309D01*
X6216523Y-13654594D01*
X6202237Y-13640309D01*
X6216523Y-13626023D01*
X6216523Y-13654594D01*
X6330808Y-13354594D02*
X6516523Y-13354594D01*
X6416523Y-13468880D01*
X6459380Y-13468880D01*
X6487951Y-13483166D01*
X6502237Y-13497451D01*
X6516523Y-13526023D01*
X6516523Y-13597451D01*
X6502237Y-13626023D01*
X6487951Y-13640309D01*
X6459380Y-13654594D01*
X6373666Y-13654594D01*
X6345094Y-13640309D01*
X6330808Y-13626023D01*
X6702237Y-13354594D02*
X6730808Y-13354594D01*
X6759380Y-13368880D01*
X6773666Y-13383166D01*
X6787951Y-13411737D01*
X6802237Y-13468880D01*
X6802237Y-13540309D01*
X6787951Y-13597451D01*
X6773666Y-13626023D01*
X6759380Y-13640309D01*
X6730808Y-13654594D01*
X6702237Y-13654594D01*
X6673666Y-13640309D01*
X6659380Y-13626023D01*
X6645094Y-13597451D01*
X6630808Y-13540309D01*
X6630808Y-13468880D01*
X6645094Y-13411737D01*
X6659380Y-13383166D01*
X6673666Y-13368880D01*
X6702237Y-13354594D01*
X6930808Y-13654594D02*
X6930808Y-13454594D01*
X6930808Y-13483166D02*
X6945094Y-13468880D01*
X6973666Y-13454594D01*
X7016523Y-13454594D01*
X7045094Y-13468880D01*
X7059380Y-13497451D01*
X7059380Y-13654594D01*
X7059380Y-13497451D02*
X7073666Y-13468880D01*
X7102237Y-13454594D01*
X7145094Y-13454594D01*
X7173666Y-13468880D01*
X7187951Y-13497451D01*
X7187951Y-13654594D01*
X7330808Y-13654594D02*
X7330808Y-13454594D01*
X7330808Y-13483166D02*
X7345094Y-13468880D01*
X7373666Y-13454594D01*
X7416523Y-13454594D01*
X7445094Y-13468880D01*
X7459380Y-13497451D01*
X7459380Y-13654594D01*
X7459380Y-13497451D02*
X7473666Y-13468880D01*
X7502237Y-13454594D01*
X7545094Y-13454594D01*
X7573666Y-13468880D01*
X7587951Y-13497451D01*
X7587951Y-13654594D01*
X8173666Y-13340309D02*
X7916523Y-13726023D01*
X8559380Y-13354594D02*
X8587951Y-13354594D01*
X8616523Y-13368880D01*
X8630808Y-13383166D01*
X8645094Y-13411737D01*
X8659380Y-13468880D01*
X8659380Y-13540309D01*
X8645094Y-13597451D01*
X8630808Y-13626023D01*
X8616523Y-13640309D01*
X8587951Y-13654594D01*
X8559380Y-13654594D01*
X8530808Y-13640309D01*
X8516523Y-13626023D01*
X8502237Y-13597451D01*
X8487951Y-13540309D01*
X8487951Y-13468880D01*
X8502237Y-13411737D01*
X8516523Y-13383166D01*
X8530808Y-13368880D01*
X8559380Y-13354594D01*
X8787951Y-13626023D02*
X8802237Y-13640309D01*
X8787951Y-13654594D01*
X8773666Y-13640309D01*
X8787951Y-13626023D01*
X8787951Y-13654594D01*
X8987951Y-13354594D02*
X9016523Y-13354594D01*
X9045094Y-13368880D01*
X9059380Y-13383166D01*
X9073666Y-13411737D01*
X9087951Y-13468880D01*
X9087951Y-13540309D01*
X9073666Y-13597451D01*
X9059380Y-13626023D01*
X9045094Y-13640309D01*
X9016523Y-13654594D01*
X8987951Y-13654594D01*
X8959380Y-13640309D01*
X8945094Y-13626023D01*
X8930808Y-13597451D01*
X8916523Y-13540309D01*
X8916523Y-13468880D01*
X8930808Y-13411737D01*
X8945094Y-13383166D01*
X8959380Y-13368880D01*
X8987951Y-13354594D01*
X9373666Y-13654594D02*
X9202237Y-13654594D01*
X9287951Y-13654594D02*
X9287951Y-13354594D01*
X9259380Y-13397451D01*
X9230808Y-13426023D01*
X9202237Y-13440309D01*
X9487951Y-13383166D02*
X9502237Y-13368880D01*
X9530808Y-13354594D01*
X9602237Y-13354594D01*
X9630808Y-13368880D01*
X9645094Y-13383166D01*
X9659380Y-13411737D01*
X9659380Y-13440309D01*
X9645094Y-13483166D01*
X9473666Y-13654594D01*
X9659380Y-13654594D01*
X9773666Y-13354594D02*
X9773666Y-13411737D01*
X9887951Y-13354594D02*
X9887951Y-13411737D01*
X10330808Y-13768880D02*
X10316523Y-13754594D01*
X10287951Y-13711737D01*
X10273666Y-13683166D01*
X10259380Y-13640309D01*
X10245094Y-13568880D01*
X10245094Y-13511737D01*
X10259380Y-13440309D01*
X10273666Y-13397451D01*
X10287951Y-13368880D01*
X10316523Y-13326023D01*
X10330808Y-13311737D01*
X10587951Y-13354594D02*
X10445094Y-13354594D01*
X10430808Y-13497451D01*
X10445094Y-13483166D01*
X10473666Y-13468880D01*
X10545094Y-13468880D01*
X10573666Y-13483166D01*
X10587951Y-13497451D01*
X10602237Y-13526023D01*
X10602237Y-13597451D01*
X10587951Y-13626023D01*
X10573666Y-13640309D01*
X10545094Y-13654594D01*
X10473666Y-13654594D01*
X10445094Y-13640309D01*
X10430808Y-13626023D01*
X10873666Y-13354594D02*
X10730808Y-13354594D01*
X10716523Y-13497451D01*
X10730808Y-13483166D01*
X10759380Y-13468880D01*
X10830808Y-13468880D01*
X10859380Y-13483166D01*
X10873666Y-13497451D01*
X10887951Y-13526023D01*
X10887951Y-13597451D01*
X10873666Y-13626023D01*
X10859380Y-13640309D01*
X10830808Y-13654594D01*
X10759380Y-13654594D01*
X10730808Y-13640309D01*
X10716523Y-13626023D01*
X11245094Y-13654594D02*
X11245094Y-13354594D01*
X11373665Y-13654594D02*
X11373665Y-13497451D01*
X11359380Y-13468880D01*
X11330808Y-13454594D01*
X11287951Y-13454594D01*
X11259380Y-13468880D01*
X11245094Y-13483166D01*
X11559380Y-13654594D02*
X11530808Y-13640309D01*
X11516523Y-13626023D01*
X11502237Y-13597451D01*
X11502237Y-13511737D01*
X11516523Y-13483166D01*
X11530808Y-13468880D01*
X11559380Y-13454594D01*
X11602237Y-13454594D01*
X11630808Y-13468880D01*
X11645094Y-13483166D01*
X11659380Y-13511737D01*
X11659380Y-13597451D01*
X11645094Y-13626023D01*
X11630808Y-13640309D01*
X11602237Y-13654594D01*
X11559380Y-13654594D01*
X11830808Y-13654594D02*
X11802237Y-13640309D01*
X11787951Y-13611737D01*
X11787951Y-13354594D01*
X12059380Y-13640309D02*
X12030808Y-13654594D01*
X11973666Y-13654594D01*
X11945094Y-13640309D01*
X11930808Y-13611737D01*
X11930808Y-13497451D01*
X11945094Y-13468880D01*
X11973666Y-13454594D01*
X12030808Y-13454594D01*
X12059380Y-13468880D01*
X12073666Y-13497451D01*
X12073666Y-13526023D01*
X11930808Y-13554594D01*
X12187951Y-13640309D02*
X12216523Y-13654594D01*
X12273666Y-13654594D01*
X12302237Y-13640309D01*
X12316523Y-13611737D01*
X12316523Y-13597451D01*
X12302237Y-13568880D01*
X12273666Y-13554594D01*
X12230808Y-13554594D01*
X12202237Y-13540309D01*
X12187951Y-13511737D01*
X12187951Y-13497451D01*
X12202237Y-13468880D01*
X12230808Y-13454594D01*
X12273666Y-13454594D01*
X12302237Y-13468880D01*
X12416523Y-13768880D02*
X12430808Y-13754594D01*
X12459380Y-13711737D01*
X12473666Y-13683166D01*
X12487951Y-13640309D01*
X12502237Y-13568880D01*
X12502237Y-13511737D01*
X12487951Y-13440309D01*
X12473666Y-13397451D01*
X12459380Y-13368880D01*
X12430808Y-13326023D01*
X12416523Y-13311737D01*
X5659380Y-13914880D02*
G75*
G03X5659380Y-13914880I-25000J0D01*
G01*
X5987951Y-13750594D02*
X6016523Y-13750594D01*
X6045094Y-13764880D01*
X6059380Y-13779166D01*
X6073666Y-13807737D01*
X6087951Y-13864880D01*
X6087951Y-13936309D01*
X6073666Y-13993451D01*
X6059380Y-14022023D01*
X6045094Y-14036309D01*
X6016523Y-14050594D01*
X5987951Y-14050594D01*
X5959380Y-14036309D01*
X5945094Y-14022023D01*
X5930808Y-13993451D01*
X5916523Y-13936309D01*
X5916523Y-13864880D01*
X5930808Y-13807737D01*
X5945094Y-13779166D01*
X5959380Y-13764880D01*
X5987951Y-13750594D01*
X6216523Y-14022023D02*
X6230808Y-14036309D01*
X6216523Y-14050594D01*
X6202237Y-14036309D01*
X6216523Y-14022023D01*
X6216523Y-14050594D01*
X6502237Y-13750594D02*
X6359380Y-13750594D01*
X6345094Y-13893451D01*
X6359380Y-13879166D01*
X6387951Y-13864880D01*
X6459380Y-13864880D01*
X6487951Y-13879166D01*
X6502237Y-13893451D01*
X6516523Y-13922023D01*
X6516523Y-13993451D01*
X6502237Y-14022023D01*
X6487951Y-14036309D01*
X6459380Y-14050594D01*
X6387951Y-14050594D01*
X6359380Y-14036309D01*
X6345094Y-14022023D01*
X6702237Y-13750594D02*
X6730808Y-13750594D01*
X6759380Y-13764880D01*
X6773666Y-13779166D01*
X6787951Y-13807737D01*
X6802237Y-13864880D01*
X6802237Y-13936309D01*
X6787951Y-13993451D01*
X6773666Y-14022023D01*
X6759380Y-14036309D01*
X6730808Y-14050594D01*
X6702237Y-14050594D01*
X6673666Y-14036309D01*
X6659380Y-14022023D01*
X6645094Y-13993451D01*
X6630808Y-13936309D01*
X6630808Y-13864880D01*
X6645094Y-13807737D01*
X6659380Y-13779166D01*
X6673666Y-13764880D01*
X6702237Y-13750594D01*
X6930808Y-14050594D02*
X6930808Y-13850594D01*
X6930808Y-13879166D02*
X6945094Y-13864880D01*
X6973666Y-13850594D01*
X7016523Y-13850594D01*
X7045094Y-13864880D01*
X7059380Y-13893451D01*
X7059380Y-14050594D01*
X7059380Y-13893451D02*
X7073666Y-13864880D01*
X7102237Y-13850594D01*
X7145094Y-13850594D01*
X7173666Y-13864880D01*
X7187951Y-13893451D01*
X7187951Y-14050594D01*
X7330808Y-14050594D02*
X7330808Y-13850594D01*
X7330808Y-13879166D02*
X7345094Y-13864880D01*
X7373666Y-13850594D01*
X7416523Y-13850594D01*
X7445094Y-13864880D01*
X7459380Y-13893451D01*
X7459380Y-14050594D01*
X7459380Y-13893451D02*
X7473666Y-13864880D01*
X7502237Y-13850594D01*
X7545094Y-13850594D01*
X7573666Y-13864880D01*
X7587951Y-13893451D01*
X7587951Y-14050594D01*
X8173666Y-13736309D02*
X7916523Y-14122023D01*
X8559380Y-13750594D02*
X8587951Y-13750594D01*
X8616523Y-13764880D01*
X8630808Y-13779166D01*
X8645094Y-13807737D01*
X8659380Y-13864880D01*
X8659380Y-13936309D01*
X8645094Y-13993451D01*
X8630808Y-14022023D01*
X8616523Y-14036309D01*
X8587951Y-14050594D01*
X8559380Y-14050594D01*
X8530808Y-14036309D01*
X8516523Y-14022023D01*
X8502237Y-13993451D01*
X8487951Y-13936309D01*
X8487951Y-13864880D01*
X8502237Y-13807737D01*
X8516523Y-13779166D01*
X8530808Y-13764880D01*
X8559380Y-13750594D01*
X8787951Y-14022023D02*
X8802237Y-14036309D01*
X8787951Y-14050594D01*
X8773666Y-14036309D01*
X8787951Y-14022023D01*
X8787951Y-14050594D01*
X8987951Y-13750594D02*
X9016523Y-13750594D01*
X9045094Y-13764880D01*
X9059380Y-13779166D01*
X9073666Y-13807737D01*
X9087951Y-13864880D01*
X9087951Y-13936309D01*
X9073666Y-13993451D01*
X9059380Y-14022023D01*
X9045094Y-14036309D01*
X9016523Y-14050594D01*
X8987951Y-14050594D01*
X8959380Y-14036309D01*
X8945094Y-14022023D01*
X8930808Y-13993451D01*
X8916523Y-13936309D01*
X8916523Y-13864880D01*
X8930808Y-13807737D01*
X8945094Y-13779166D01*
X8959380Y-13764880D01*
X8987951Y-13750594D01*
X9202237Y-13779166D02*
X9216523Y-13764880D01*
X9245094Y-13750594D01*
X9316523Y-13750594D01*
X9345094Y-13764880D01*
X9359380Y-13779166D01*
X9373666Y-13807737D01*
X9373666Y-13836309D01*
X9359380Y-13879166D01*
X9187951Y-14050594D01*
X9373666Y-14050594D01*
X9559380Y-13750594D02*
X9587951Y-13750594D01*
X9616523Y-13764880D01*
X9630808Y-13779166D01*
X9645094Y-13807737D01*
X9659380Y-13864880D01*
X9659380Y-13936309D01*
X9645094Y-13993451D01*
X9630808Y-14022023D01*
X9616523Y-14036309D01*
X9587951Y-14050594D01*
X9559380Y-14050594D01*
X9530808Y-14036309D01*
X9516523Y-14022023D01*
X9502237Y-13993451D01*
X9487951Y-13936309D01*
X9487951Y-13864880D01*
X9502237Y-13807737D01*
X9516523Y-13779166D01*
X9530808Y-13764880D01*
X9559380Y-13750594D01*
X9773666Y-13750594D02*
X9773666Y-13807737D01*
X9887951Y-13750594D02*
X9887951Y-13807737D01*
X10330808Y-14164880D02*
X10316523Y-14150594D01*
X10287951Y-14107737D01*
X10273666Y-14079166D01*
X10259380Y-14036309D01*
X10245094Y-13964880D01*
X10245094Y-13907737D01*
X10259380Y-13836309D01*
X10273666Y-13793451D01*
X10287951Y-13764880D01*
X10316523Y-13722023D01*
X10330808Y-13707737D01*
X10502237Y-13750594D02*
X10530808Y-13750594D01*
X10559380Y-13764880D01*
X10573666Y-13779166D01*
X10587951Y-13807737D01*
X10602237Y-13864880D01*
X10602237Y-13936309D01*
X10587951Y-13993451D01*
X10573666Y-14022023D01*
X10559380Y-14036309D01*
X10530808Y-14050594D01*
X10502237Y-14050594D01*
X10473666Y-14036309D01*
X10459380Y-14022023D01*
X10445094Y-13993451D01*
X10430808Y-13936309D01*
X10430808Y-13864880D01*
X10445094Y-13807737D01*
X10459380Y-13779166D01*
X10473666Y-13764880D01*
X10502237Y-13750594D01*
X10959380Y-14050594D02*
X10959380Y-13750594D01*
X11087951Y-14050594D02*
X11087951Y-13893451D01*
X11073666Y-13864880D01*
X11045094Y-13850594D01*
X11002237Y-13850594D01*
X10973666Y-13864880D01*
X10959380Y-13879166D01*
X11273665Y-14050594D02*
X11245094Y-14036309D01*
X11230808Y-14022023D01*
X11216523Y-13993451D01*
X11216523Y-13907737D01*
X11230808Y-13879166D01*
X11245094Y-13864880D01*
X11273665Y-13850594D01*
X11316523Y-13850594D01*
X11345094Y-13864880D01*
X11359380Y-13879166D01*
X11373665Y-13907737D01*
X11373665Y-13993451D01*
X11359380Y-14022023D01*
X11345094Y-14036309D01*
X11316523Y-14050594D01*
X11273665Y-14050594D01*
X11545094Y-14050594D02*
X11516523Y-14036309D01*
X11502237Y-14007737D01*
X11502237Y-13750594D01*
X11773666Y-14036309D02*
X11745094Y-14050594D01*
X11687951Y-14050594D01*
X11659380Y-14036309D01*
X11645094Y-14007737D01*
X11645094Y-13893451D01*
X11659380Y-13864880D01*
X11687951Y-13850594D01*
X11745094Y-13850594D01*
X11773666Y-13864880D01*
X11787951Y-13893451D01*
X11787951Y-13922023D01*
X11645094Y-13950594D01*
X11902237Y-14036309D02*
X11930808Y-14050594D01*
X11987951Y-14050594D01*
X12016523Y-14036309D01*
X12030808Y-14007737D01*
X12030808Y-13993451D01*
X12016523Y-13964880D01*
X11987951Y-13950594D01*
X11945094Y-13950594D01*
X11916523Y-13936309D01*
X11902237Y-13907737D01*
X11902237Y-13893451D01*
X11916523Y-13864880D01*
X11945094Y-13850594D01*
X11987951Y-13850594D01*
X12016523Y-13864880D01*
X12387951Y-13936309D02*
X12616523Y-13936309D01*
X12502237Y-14050594D02*
X12502237Y-13822023D01*
X12973666Y-13779166D02*
X12987951Y-13764880D01*
X13016523Y-13750594D01*
X13087951Y-13750594D01*
X13116523Y-13764880D01*
X13130808Y-13779166D01*
X13145094Y-13807737D01*
X13145094Y-13836309D01*
X13130808Y-13879166D01*
X12959380Y-14050594D01*
X13145094Y-14050594D01*
X13487951Y-14036309D02*
X13516523Y-14050594D01*
X13573665Y-14050594D01*
X13602237Y-14036309D01*
X13616523Y-14007737D01*
X13616523Y-13993451D01*
X13602237Y-13964880D01*
X13573665Y-13950594D01*
X13530808Y-13950594D01*
X13502237Y-13936309D01*
X13487951Y-13907737D01*
X13487951Y-13893451D01*
X13502237Y-13864880D01*
X13530808Y-13850594D01*
X13573665Y-13850594D01*
X13602237Y-13864880D01*
X13787951Y-14050594D02*
X13759380Y-14036309D01*
X13745094Y-14007737D01*
X13745094Y-13750594D01*
X13945094Y-14050594D02*
X13916523Y-14036309D01*
X13902237Y-14022023D01*
X13887951Y-13993451D01*
X13887951Y-13907737D01*
X13902237Y-13879166D01*
X13916523Y-13864880D01*
X13945094Y-13850594D01*
X13987951Y-13850594D01*
X14016523Y-13864880D01*
X14030808Y-13879166D01*
X14045094Y-13907737D01*
X14045094Y-13993451D01*
X14030808Y-14022023D01*
X14016523Y-14036309D01*
X13987951Y-14050594D01*
X13945094Y-14050594D01*
X14130808Y-13850594D02*
X14245094Y-13850594D01*
X14173666Y-13750594D02*
X14173666Y-14007737D01*
X14187951Y-14036309D01*
X14216523Y-14050594D01*
X14245094Y-14050594D01*
X14330808Y-14036309D02*
X14359380Y-14050594D01*
X14416523Y-14050594D01*
X14445094Y-14036309D01*
X14459380Y-14007737D01*
X14459380Y-13993451D01*
X14445094Y-13964880D01*
X14416523Y-13950594D01*
X14373666Y-13950594D01*
X14345094Y-13936309D01*
X14330808Y-13907737D01*
X14330808Y-13893451D01*
X14345094Y-13864880D01*
X14373666Y-13850594D01*
X14416523Y-13850594D01*
X14445094Y-13864880D01*
X14559380Y-14164880D02*
X14573666Y-14150594D01*
X14602237Y-14107737D01*
X14616523Y-14079166D01*
X14630808Y-14036309D01*
X14645094Y-13964880D01*
X14645094Y-13907737D01*
X14630808Y-13836309D01*
X14616523Y-13793451D01*
X14602237Y-13764880D01*
X14573666Y-13722023D01*
X14559380Y-13707737D01*
X5631880Y-14283380D02*
X5631880Y-14338380D01*
X5604380Y-14310880D02*
X5659380Y-14310880D01*
X5987951Y-14146594D02*
X6016523Y-14146594D01*
X6045094Y-14160880D01*
X6059380Y-14175166D01*
X6073666Y-14203737D01*
X6087951Y-14260880D01*
X6087951Y-14332309D01*
X6073666Y-14389451D01*
X6059380Y-14418023D01*
X6045094Y-14432309D01*
X6016523Y-14446594D01*
X5987951Y-14446594D01*
X5959380Y-14432309D01*
X5945094Y-14418023D01*
X5930808Y-14389451D01*
X5916523Y-14332309D01*
X5916523Y-14260880D01*
X5930808Y-14203737D01*
X5945094Y-14175166D01*
X5959380Y-14160880D01*
X5987951Y-14146594D01*
X6216523Y-14418023D02*
X6230808Y-14432309D01*
X6216523Y-14446594D01*
X6202237Y-14432309D01*
X6216523Y-14418023D01*
X6216523Y-14446594D01*
X6502237Y-14146594D02*
X6359380Y-14146594D01*
X6345094Y-14289451D01*
X6359380Y-14275166D01*
X6387951Y-14260880D01*
X6459380Y-14260880D01*
X6487951Y-14275166D01*
X6502237Y-14289451D01*
X6516523Y-14318023D01*
X6516523Y-14389451D01*
X6502237Y-14418023D01*
X6487951Y-14432309D01*
X6459380Y-14446594D01*
X6387951Y-14446594D01*
X6359380Y-14432309D01*
X6345094Y-14418023D01*
X6787951Y-14146594D02*
X6645094Y-14146594D01*
X6630808Y-14289451D01*
X6645094Y-14275166D01*
X6673666Y-14260880D01*
X6745094Y-14260880D01*
X6773666Y-14275166D01*
X6787951Y-14289451D01*
X6802237Y-14318023D01*
X6802237Y-14389451D01*
X6787951Y-14418023D01*
X6773666Y-14432309D01*
X6745094Y-14446594D01*
X6673666Y-14446594D01*
X6645094Y-14432309D01*
X6630808Y-14418023D01*
X6930808Y-14446594D02*
X6930808Y-14246594D01*
X6930808Y-14275166D02*
X6945094Y-14260880D01*
X6973666Y-14246594D01*
X7016523Y-14246594D01*
X7045094Y-14260880D01*
X7059380Y-14289451D01*
X7059380Y-14446594D01*
X7059380Y-14289451D02*
X7073666Y-14260880D01*
X7102237Y-14246594D01*
X7145094Y-14246594D01*
X7173666Y-14260880D01*
X7187951Y-14289451D01*
X7187951Y-14446594D01*
X7330808Y-14446594D02*
X7330808Y-14246594D01*
X7330808Y-14275166D02*
X7345094Y-14260880D01*
X7373666Y-14246594D01*
X7416523Y-14246594D01*
X7445094Y-14260880D01*
X7459380Y-14289451D01*
X7459380Y-14446594D01*
X7459380Y-14289451D02*
X7473666Y-14260880D01*
X7502237Y-14246594D01*
X7545094Y-14246594D01*
X7573666Y-14260880D01*
X7587951Y-14289451D01*
X7587951Y-14446594D01*
X8173666Y-14132309D02*
X7916523Y-14518023D01*
X8559380Y-14146594D02*
X8587951Y-14146594D01*
X8616523Y-14160880D01*
X8630808Y-14175166D01*
X8645094Y-14203737D01*
X8659380Y-14260880D01*
X8659380Y-14332309D01*
X8645094Y-14389451D01*
X8630808Y-14418023D01*
X8616523Y-14432309D01*
X8587951Y-14446594D01*
X8559380Y-14446594D01*
X8530808Y-14432309D01*
X8516523Y-14418023D01*
X8502237Y-14389451D01*
X8487951Y-14332309D01*
X8487951Y-14260880D01*
X8502237Y-14203737D01*
X8516523Y-14175166D01*
X8530808Y-14160880D01*
X8559380Y-14146594D01*
X8787951Y-14418023D02*
X8802237Y-14432309D01*
X8787951Y-14446594D01*
X8773666Y-14432309D01*
X8787951Y-14418023D01*
X8787951Y-14446594D01*
X8987951Y-14146594D02*
X9016523Y-14146594D01*
X9045094Y-14160880D01*
X9059380Y-14175166D01*
X9073666Y-14203737D01*
X9087951Y-14260880D01*
X9087951Y-14332309D01*
X9073666Y-14389451D01*
X9059380Y-14418023D01*
X9045094Y-14432309D01*
X9016523Y-14446594D01*
X8987951Y-14446594D01*
X8959380Y-14432309D01*
X8945094Y-14418023D01*
X8930808Y-14389451D01*
X8916523Y-14332309D01*
X8916523Y-14260880D01*
X8930808Y-14203737D01*
X8945094Y-14175166D01*
X8959380Y-14160880D01*
X8987951Y-14146594D01*
X9202237Y-14175166D02*
X9216523Y-14160880D01*
X9245094Y-14146594D01*
X9316523Y-14146594D01*
X9345094Y-14160880D01*
X9359380Y-14175166D01*
X9373666Y-14203737D01*
X9373666Y-14232309D01*
X9359380Y-14275166D01*
X9187951Y-14446594D01*
X9373666Y-14446594D01*
X9487951Y-14175166D02*
X9502237Y-14160880D01*
X9530808Y-14146594D01*
X9602237Y-14146594D01*
X9630808Y-14160880D01*
X9645094Y-14175166D01*
X9659380Y-14203737D01*
X9659380Y-14232309D01*
X9645094Y-14275166D01*
X9473666Y-14446594D01*
X9659380Y-14446594D01*
X9773666Y-14146594D02*
X9773666Y-14203737D01*
X9887951Y-14146594D02*
X9887951Y-14203737D01*
X10330808Y-14560880D02*
X10316523Y-14546594D01*
X10287951Y-14503737D01*
X10273666Y-14475166D01*
X10259380Y-14432309D01*
X10245094Y-14360880D01*
X10245094Y-14303737D01*
X10259380Y-14232309D01*
X10273666Y-14189451D01*
X10287951Y-14160880D01*
X10316523Y-14118023D01*
X10330808Y-14103737D01*
X10502237Y-14146594D02*
X10530808Y-14146594D01*
X10559380Y-14160880D01*
X10573666Y-14175166D01*
X10587951Y-14203737D01*
X10602237Y-14260880D01*
X10602237Y-14332309D01*
X10587951Y-14389451D01*
X10573666Y-14418023D01*
X10559380Y-14432309D01*
X10530808Y-14446594D01*
X10502237Y-14446594D01*
X10473666Y-14432309D01*
X10459380Y-14418023D01*
X10445094Y-14389451D01*
X10430808Y-14332309D01*
X10430808Y-14260880D01*
X10445094Y-14203737D01*
X10459380Y-14175166D01*
X10473666Y-14160880D01*
X10502237Y-14146594D01*
X10959380Y-14446594D02*
X10959380Y-14146594D01*
X11087951Y-14446594D02*
X11087951Y-14289451D01*
X11073666Y-14260880D01*
X11045094Y-14246594D01*
X11002237Y-14246594D01*
X10973666Y-14260880D01*
X10959380Y-14275166D01*
X11273665Y-14446594D02*
X11245094Y-14432309D01*
X11230808Y-14418023D01*
X11216523Y-14389451D01*
X11216523Y-14303737D01*
X11230808Y-14275166D01*
X11245094Y-14260880D01*
X11273665Y-14246594D01*
X11316523Y-14246594D01*
X11345094Y-14260880D01*
X11359380Y-14275166D01*
X11373665Y-14303737D01*
X11373665Y-14389451D01*
X11359380Y-14418023D01*
X11345094Y-14432309D01*
X11316523Y-14446594D01*
X11273665Y-14446594D01*
X11545094Y-14446594D02*
X11516523Y-14432309D01*
X11502237Y-14403737D01*
X11502237Y-14146594D01*
X11773666Y-14432309D02*
X11745094Y-14446594D01*
X11687951Y-14446594D01*
X11659380Y-14432309D01*
X11645094Y-14403737D01*
X11645094Y-14289451D01*
X11659380Y-14260880D01*
X11687951Y-14246594D01*
X11745094Y-14246594D01*
X11773666Y-14260880D01*
X11787951Y-14289451D01*
X11787951Y-14318023D01*
X11645094Y-14346594D01*
X11902237Y-14432309D02*
X11930808Y-14446594D01*
X11987951Y-14446594D01*
X12016523Y-14432309D01*
X12030808Y-14403737D01*
X12030808Y-14389451D01*
X12016523Y-14360880D01*
X11987951Y-14346594D01*
X11945094Y-14346594D01*
X11916523Y-14332309D01*
X11902237Y-14303737D01*
X11902237Y-14289451D01*
X11916523Y-14260880D01*
X11945094Y-14246594D01*
X11987951Y-14246594D01*
X12016523Y-14260880D01*
X12387951Y-14332309D02*
X12616523Y-14332309D01*
X12502237Y-14446594D02*
X12502237Y-14218023D01*
X12973666Y-14175166D02*
X12987951Y-14160880D01*
X13016523Y-14146594D01*
X13087951Y-14146594D01*
X13116523Y-14160880D01*
X13130808Y-14175166D01*
X13145094Y-14203737D01*
X13145094Y-14232309D01*
X13130808Y-14275166D01*
X12959380Y-14446594D01*
X13145094Y-14446594D01*
X13487951Y-14432309D02*
X13516523Y-14446594D01*
X13573665Y-14446594D01*
X13602237Y-14432309D01*
X13616523Y-14403737D01*
X13616523Y-14389451D01*
X13602237Y-14360880D01*
X13573665Y-14346594D01*
X13530808Y-14346594D01*
X13502237Y-14332309D01*
X13487951Y-14303737D01*
X13487951Y-14289451D01*
X13502237Y-14260880D01*
X13530808Y-14246594D01*
X13573665Y-14246594D01*
X13602237Y-14260880D01*
X13787951Y-14446594D02*
X13759380Y-14432309D01*
X13745094Y-14403737D01*
X13745094Y-14146594D01*
X13945094Y-14446594D02*
X13916523Y-14432309D01*
X13902237Y-14418023D01*
X13887951Y-14389451D01*
X13887951Y-14303737D01*
X13902237Y-14275166D01*
X13916523Y-14260880D01*
X13945094Y-14246594D01*
X13987951Y-14246594D01*
X14016523Y-14260880D01*
X14030808Y-14275166D01*
X14045094Y-14303737D01*
X14045094Y-14389451D01*
X14030808Y-14418023D01*
X14016523Y-14432309D01*
X13987951Y-14446594D01*
X13945094Y-14446594D01*
X14130808Y-14246594D02*
X14245094Y-14246594D01*
X14173666Y-14146594D02*
X14173666Y-14403737D01*
X14187951Y-14432309D01*
X14216523Y-14446594D01*
X14245094Y-14446594D01*
X14330808Y-14432309D02*
X14359380Y-14446594D01*
X14416523Y-14446594D01*
X14445094Y-14432309D01*
X14459380Y-14403737D01*
X14459380Y-14389451D01*
X14445094Y-14360880D01*
X14416523Y-14346594D01*
X14373666Y-14346594D01*
X14345094Y-14332309D01*
X14330808Y-14303737D01*
X14330808Y-14289451D01*
X14345094Y-14260880D01*
X14373666Y-14246594D01*
X14416523Y-14246594D01*
X14445094Y-14260880D01*
X14559380Y-14560880D02*
X14573666Y-14546594D01*
X14602237Y-14503737D01*
X14616523Y-14475166D01*
X14630808Y-14432309D01*
X14645094Y-14360880D01*
X14645094Y-14303737D01*
X14630808Y-14232309D01*
X14616523Y-14189451D01*
X14602237Y-14160880D01*
X14573666Y-14118023D01*
X14559380Y-14103737D01*
X5647664Y-14735165D02*
X5647664Y-14678596D01*
X5591095Y-14678596D01*
X5591095Y-14735165D01*
X5647664Y-14735165D01*
X5987951Y-14542594D02*
X6016523Y-14542594D01*
X6045094Y-14556880D01*
X6059380Y-14571166D01*
X6073666Y-14599737D01*
X6087951Y-14656880D01*
X6087951Y-14728309D01*
X6073666Y-14785451D01*
X6059380Y-14814023D01*
X6045094Y-14828309D01*
X6016523Y-14842594D01*
X5987951Y-14842594D01*
X5959380Y-14828309D01*
X5945094Y-14814023D01*
X5930808Y-14785451D01*
X5916523Y-14728309D01*
X5916523Y-14656880D01*
X5930808Y-14599737D01*
X5945094Y-14571166D01*
X5959380Y-14556880D01*
X5987951Y-14542594D01*
X6216523Y-14814023D02*
X6230808Y-14828309D01*
X6216523Y-14842594D01*
X6202237Y-14828309D01*
X6216523Y-14814023D01*
X6216523Y-14842594D01*
X6402237Y-14671166D02*
X6373666Y-14656880D01*
X6359380Y-14642594D01*
X6345094Y-14614023D01*
X6345094Y-14599737D01*
X6359380Y-14571166D01*
X6373666Y-14556880D01*
X6402237Y-14542594D01*
X6459380Y-14542594D01*
X6487951Y-14556880D01*
X6502237Y-14571166D01*
X6516523Y-14599737D01*
X6516523Y-14614023D01*
X6502237Y-14642594D01*
X6487951Y-14656880D01*
X6459380Y-14671166D01*
X6402237Y-14671166D01*
X6373666Y-14685451D01*
X6359380Y-14699737D01*
X6345094Y-14728309D01*
X6345094Y-14785451D01*
X6359380Y-14814023D01*
X6373666Y-14828309D01*
X6402237Y-14842594D01*
X6459380Y-14842594D01*
X6487951Y-14828309D01*
X6502237Y-14814023D01*
X6516523Y-14785451D01*
X6516523Y-14728309D01*
X6502237Y-14699737D01*
X6487951Y-14685451D01*
X6459380Y-14671166D01*
X6702237Y-14542594D02*
X6730808Y-14542594D01*
X6759380Y-14556880D01*
X6773666Y-14571166D01*
X6787951Y-14599737D01*
X6802237Y-14656880D01*
X6802237Y-14728309D01*
X6787951Y-14785451D01*
X6773666Y-14814023D01*
X6759380Y-14828309D01*
X6730808Y-14842594D01*
X6702237Y-14842594D01*
X6673666Y-14828309D01*
X6659380Y-14814023D01*
X6645094Y-14785451D01*
X6630808Y-14728309D01*
X6630808Y-14656880D01*
X6645094Y-14599737D01*
X6659380Y-14571166D01*
X6673666Y-14556880D01*
X6702237Y-14542594D01*
X6930808Y-14842594D02*
X6930808Y-14642594D01*
X6930808Y-14671166D02*
X6945094Y-14656880D01*
X6973666Y-14642594D01*
X7016523Y-14642594D01*
X7045094Y-14656880D01*
X7059380Y-14685451D01*
X7059380Y-14842594D01*
X7059380Y-14685451D02*
X7073666Y-14656880D01*
X7102237Y-14642594D01*
X7145094Y-14642594D01*
X7173666Y-14656880D01*
X7187951Y-14685451D01*
X7187951Y-14842594D01*
X7330808Y-14842594D02*
X7330808Y-14642594D01*
X7330808Y-14671166D02*
X7345094Y-14656880D01*
X7373666Y-14642594D01*
X7416523Y-14642594D01*
X7445094Y-14656880D01*
X7459380Y-14685451D01*
X7459380Y-14842594D01*
X7459380Y-14685451D02*
X7473666Y-14656880D01*
X7502237Y-14642594D01*
X7545094Y-14642594D01*
X7573666Y-14656880D01*
X7587951Y-14685451D01*
X7587951Y-14842594D01*
X8173666Y-14528309D02*
X7916523Y-14914023D01*
X8559380Y-14542594D02*
X8587951Y-14542594D01*
X8616523Y-14556880D01*
X8630808Y-14571166D01*
X8645094Y-14599737D01*
X8659380Y-14656880D01*
X8659380Y-14728309D01*
X8645094Y-14785451D01*
X8630808Y-14814023D01*
X8616523Y-14828309D01*
X8587951Y-14842594D01*
X8559380Y-14842594D01*
X8530808Y-14828309D01*
X8516523Y-14814023D01*
X8502237Y-14785451D01*
X8487951Y-14728309D01*
X8487951Y-14656880D01*
X8502237Y-14599737D01*
X8516523Y-14571166D01*
X8530808Y-14556880D01*
X8559380Y-14542594D01*
X8787951Y-14814023D02*
X8802237Y-14828309D01*
X8787951Y-14842594D01*
X8773666Y-14828309D01*
X8787951Y-14814023D01*
X8787951Y-14842594D01*
X8987951Y-14542594D02*
X9016523Y-14542594D01*
X9045094Y-14556880D01*
X9059380Y-14571166D01*
X9073666Y-14599737D01*
X9087951Y-14656880D01*
X9087951Y-14728309D01*
X9073666Y-14785451D01*
X9059380Y-14814023D01*
X9045094Y-14828309D01*
X9016523Y-14842594D01*
X8987951Y-14842594D01*
X8959380Y-14828309D01*
X8945094Y-14814023D01*
X8930808Y-14785451D01*
X8916523Y-14728309D01*
X8916523Y-14656880D01*
X8930808Y-14599737D01*
X8945094Y-14571166D01*
X8959380Y-14556880D01*
X8987951Y-14542594D01*
X9187951Y-14542594D02*
X9373666Y-14542594D01*
X9273666Y-14656880D01*
X9316523Y-14656880D01*
X9345094Y-14671166D01*
X9359380Y-14685451D01*
X9373666Y-14714023D01*
X9373666Y-14785451D01*
X9359380Y-14814023D01*
X9345094Y-14828309D01*
X9316523Y-14842594D01*
X9230808Y-14842594D01*
X9202237Y-14828309D01*
X9187951Y-14814023D01*
X9659380Y-14842594D02*
X9487951Y-14842594D01*
X9573666Y-14842594D02*
X9573666Y-14542594D01*
X9545094Y-14585451D01*
X9516523Y-14614023D01*
X9487951Y-14628309D01*
X9773666Y-14542594D02*
X9773666Y-14599737D01*
X9887951Y-14542594D02*
X9887951Y-14599737D01*
X10330808Y-14956880D02*
X10316523Y-14942594D01*
X10287951Y-14899737D01*
X10273666Y-14871166D01*
X10259380Y-14828309D01*
X10245094Y-14756880D01*
X10245094Y-14699737D01*
X10259380Y-14628309D01*
X10273666Y-14585451D01*
X10287951Y-14556880D01*
X10316523Y-14514023D01*
X10330808Y-14499737D01*
X10487951Y-14671166D02*
X10459380Y-14656880D01*
X10445094Y-14642594D01*
X10430808Y-14614023D01*
X10430808Y-14599737D01*
X10445094Y-14571166D01*
X10459380Y-14556880D01*
X10487951Y-14542594D01*
X10545094Y-14542594D01*
X10573666Y-14556880D01*
X10587951Y-14571166D01*
X10602237Y-14599737D01*
X10602237Y-14614023D01*
X10587951Y-14642594D01*
X10573666Y-14656880D01*
X10545094Y-14671166D01*
X10487951Y-14671166D01*
X10459380Y-14685451D01*
X10445094Y-14699737D01*
X10430808Y-14728309D01*
X10430808Y-14785451D01*
X10445094Y-14814023D01*
X10459380Y-14828309D01*
X10487951Y-14842594D01*
X10545094Y-14842594D01*
X10573666Y-14828309D01*
X10587951Y-14814023D01*
X10602237Y-14785451D01*
X10602237Y-14728309D01*
X10587951Y-14699737D01*
X10573666Y-14685451D01*
X10545094Y-14671166D01*
X10959380Y-14842594D02*
X10959380Y-14542594D01*
X11087951Y-14842594D02*
X11087951Y-14685451D01*
X11073666Y-14656880D01*
X11045094Y-14642594D01*
X11002237Y-14642594D01*
X10973666Y-14656880D01*
X10959380Y-14671166D01*
X11273665Y-14842594D02*
X11245094Y-14828309D01*
X11230808Y-14814023D01*
X11216523Y-14785451D01*
X11216523Y-14699737D01*
X11230808Y-14671166D01*
X11245094Y-14656880D01*
X11273665Y-14642594D01*
X11316523Y-14642594D01*
X11345094Y-14656880D01*
X11359380Y-14671166D01*
X11373665Y-14699737D01*
X11373665Y-14785451D01*
X11359380Y-14814023D01*
X11345094Y-14828309D01*
X11316523Y-14842594D01*
X11273665Y-14842594D01*
X11545094Y-14842594D02*
X11516523Y-14828309D01*
X11502237Y-14799737D01*
X11502237Y-14542594D01*
X11773666Y-14828309D02*
X11745094Y-14842594D01*
X11687951Y-14842594D01*
X11659380Y-14828309D01*
X11645094Y-14799737D01*
X11645094Y-14685451D01*
X11659380Y-14656880D01*
X11687951Y-14642594D01*
X11745094Y-14642594D01*
X11773666Y-14656880D01*
X11787951Y-14685451D01*
X11787951Y-14714023D01*
X11645094Y-14742594D01*
X11902237Y-14828309D02*
X11930808Y-14842594D01*
X11987951Y-14842594D01*
X12016523Y-14828309D01*
X12030808Y-14799737D01*
X12030808Y-14785451D01*
X12016523Y-14756880D01*
X11987951Y-14742594D01*
X11945094Y-14742594D01*
X11916523Y-14728309D01*
X11902237Y-14699737D01*
X11902237Y-14685451D01*
X11916523Y-14656880D01*
X11945094Y-14642594D01*
X11987951Y-14642594D01*
X12016523Y-14656880D01*
X12130808Y-14956880D02*
X12145094Y-14942594D01*
X12173666Y-14899737D01*
X12187951Y-14871166D01*
X12202237Y-14828309D01*
X12216523Y-14756880D01*
X12216523Y-14699737D01*
X12202237Y-14628309D01*
X12187951Y-14585451D01*
X12173666Y-14556880D01*
X12145094Y-14514023D01*
X12130808Y-14499737D01*
X5608580Y-15153680D02*
X5659380Y-15102880D01*
X5608580Y-15052080D01*
X5557780Y-15102880D01*
X5608580Y-15153680D01*
X6087951Y-15238594D02*
X5916523Y-15238594D01*
X6002237Y-15238594D02*
X6002237Y-14938594D01*
X5973666Y-14981451D01*
X5945094Y-15010023D01*
X5916523Y-15024309D01*
X6216523Y-15210023D02*
X6230808Y-15224309D01*
X6216523Y-15238594D01*
X6202237Y-15224309D01*
X6216523Y-15210023D01*
X6216523Y-15238594D01*
X6416523Y-14938594D02*
X6445094Y-14938594D01*
X6473666Y-14952880D01*
X6487951Y-14967166D01*
X6502237Y-14995737D01*
X6516523Y-15052880D01*
X6516523Y-15124309D01*
X6502237Y-15181451D01*
X6487951Y-15210023D01*
X6473666Y-15224309D01*
X6445094Y-15238594D01*
X6416523Y-15238594D01*
X6387951Y-15224309D01*
X6373666Y-15210023D01*
X6359380Y-15181451D01*
X6345094Y-15124309D01*
X6345094Y-15052880D01*
X6359380Y-14995737D01*
X6373666Y-14967166D01*
X6387951Y-14952880D01*
X6416523Y-14938594D01*
X6630808Y-14967166D02*
X6645094Y-14952880D01*
X6673666Y-14938594D01*
X6745094Y-14938594D01*
X6773666Y-14952880D01*
X6787951Y-14967166D01*
X6802237Y-14995737D01*
X6802237Y-15024309D01*
X6787951Y-15067166D01*
X6616523Y-15238594D01*
X6802237Y-15238594D01*
X6930808Y-15238594D02*
X6930808Y-15038594D01*
X6930808Y-15067166D02*
X6945094Y-15052880D01*
X6973666Y-15038594D01*
X7016523Y-15038594D01*
X7045094Y-15052880D01*
X7059380Y-15081451D01*
X7059380Y-15238594D01*
X7059380Y-15081451D02*
X7073666Y-15052880D01*
X7102237Y-15038594D01*
X7145094Y-15038594D01*
X7173666Y-15052880D01*
X7187951Y-15081451D01*
X7187951Y-15238594D01*
X7330808Y-15238594D02*
X7330808Y-15038594D01*
X7330808Y-15067166D02*
X7345094Y-15052880D01*
X7373666Y-15038594D01*
X7416523Y-15038594D01*
X7445094Y-15052880D01*
X7459380Y-15081451D01*
X7459380Y-15238594D01*
X7459380Y-15081451D02*
X7473666Y-15052880D01*
X7502237Y-15038594D01*
X7545094Y-15038594D01*
X7573666Y-15052880D01*
X7587951Y-15081451D01*
X7587951Y-15238594D01*
X8173666Y-14924309D02*
X7916523Y-15310023D01*
X8559380Y-14938594D02*
X8587951Y-14938594D01*
X8616523Y-14952880D01*
X8630808Y-14967166D01*
X8645094Y-14995737D01*
X8659380Y-15052880D01*
X8659380Y-15124309D01*
X8645094Y-15181451D01*
X8630808Y-15210023D01*
X8616523Y-15224309D01*
X8587951Y-15238594D01*
X8559380Y-15238594D01*
X8530808Y-15224309D01*
X8516523Y-15210023D01*
X8502237Y-15181451D01*
X8487951Y-15124309D01*
X8487951Y-15052880D01*
X8502237Y-14995737D01*
X8516523Y-14967166D01*
X8530808Y-14952880D01*
X8559380Y-14938594D01*
X8787951Y-15210023D02*
X8802237Y-15224309D01*
X8787951Y-15238594D01*
X8773666Y-15224309D01*
X8787951Y-15210023D01*
X8787951Y-15238594D01*
X8987951Y-14938594D02*
X9016523Y-14938594D01*
X9045094Y-14952880D01*
X9059380Y-14967166D01*
X9073666Y-14995737D01*
X9087951Y-15052880D01*
X9087951Y-15124309D01*
X9073666Y-15181451D01*
X9059380Y-15210023D01*
X9045094Y-15224309D01*
X9016523Y-15238594D01*
X8987951Y-15238594D01*
X8959380Y-15224309D01*
X8945094Y-15210023D01*
X8930808Y-15181451D01*
X8916523Y-15124309D01*
X8916523Y-15052880D01*
X8930808Y-14995737D01*
X8945094Y-14967166D01*
X8959380Y-14952880D01*
X8987951Y-14938594D01*
X9345094Y-15038594D02*
X9345094Y-15238594D01*
X9273666Y-14924309D02*
X9202237Y-15138594D01*
X9387951Y-15138594D01*
X9559380Y-14938594D02*
X9587951Y-14938594D01*
X9616523Y-14952880D01*
X9630808Y-14967166D01*
X9645094Y-14995737D01*
X9659380Y-15052880D01*
X9659380Y-15124309D01*
X9645094Y-15181451D01*
X9630808Y-15210023D01*
X9616523Y-15224309D01*
X9587951Y-15238594D01*
X9559380Y-15238594D01*
X9530808Y-15224309D01*
X9516523Y-15210023D01*
X9502237Y-15181451D01*
X9487951Y-15124309D01*
X9487951Y-15052880D01*
X9502237Y-14995737D01*
X9516523Y-14967166D01*
X9530808Y-14952880D01*
X9559380Y-14938594D01*
X9773666Y-14938594D02*
X9773666Y-14995737D01*
X9887951Y-14938594D02*
X9887951Y-14995737D01*
X10330808Y-15352880D02*
X10316523Y-15338594D01*
X10287951Y-15295737D01*
X10273666Y-15267166D01*
X10259380Y-15224309D01*
X10245094Y-15152880D01*
X10245094Y-15095737D01*
X10259380Y-15024309D01*
X10273666Y-14981451D01*
X10287951Y-14952880D01*
X10316523Y-14910023D01*
X10330808Y-14895737D01*
X10602237Y-15238594D02*
X10430808Y-15238594D01*
X10516523Y-15238594D02*
X10516523Y-14938594D01*
X10487951Y-14981451D01*
X10459380Y-15010023D01*
X10430808Y-15024309D01*
X10773666Y-15067166D02*
X10745094Y-15052880D01*
X10730808Y-15038594D01*
X10716523Y-15010023D01*
X10716523Y-14995737D01*
X10730808Y-14967166D01*
X10745094Y-14952880D01*
X10773666Y-14938594D01*
X10830808Y-14938594D01*
X10859380Y-14952880D01*
X10873666Y-14967166D01*
X10887951Y-14995737D01*
X10887951Y-15010023D01*
X10873666Y-15038594D01*
X10859380Y-15052880D01*
X10830808Y-15067166D01*
X10773666Y-15067166D01*
X10745094Y-15081451D01*
X10730808Y-15095737D01*
X10716523Y-15124309D01*
X10716523Y-15181451D01*
X10730808Y-15210023D01*
X10745094Y-15224309D01*
X10773666Y-15238594D01*
X10830808Y-15238594D01*
X10859380Y-15224309D01*
X10873666Y-15210023D01*
X10887951Y-15181451D01*
X10887951Y-15124309D01*
X10873666Y-15095737D01*
X10859380Y-15081451D01*
X10830808Y-15067166D01*
X11245094Y-15238594D02*
X11245094Y-14938594D01*
X11373665Y-15238594D02*
X11373665Y-15081451D01*
X11359380Y-15052880D01*
X11330808Y-15038594D01*
X11287951Y-15038594D01*
X11259380Y-15052880D01*
X11245094Y-15067166D01*
X11559380Y-15238594D02*
X11530808Y-15224309D01*
X11516523Y-15210023D01*
X11502237Y-15181451D01*
X11502237Y-15095737D01*
X11516523Y-15067166D01*
X11530808Y-15052880D01*
X11559380Y-15038594D01*
X11602237Y-15038594D01*
X11630808Y-15052880D01*
X11645094Y-15067166D01*
X11659380Y-15095737D01*
X11659380Y-15181451D01*
X11645094Y-15210023D01*
X11630808Y-15224309D01*
X11602237Y-15238594D01*
X11559380Y-15238594D01*
X11830808Y-15238594D02*
X11802237Y-15224309D01*
X11787951Y-15195737D01*
X11787951Y-14938594D01*
X12059380Y-15224309D02*
X12030808Y-15238594D01*
X11973666Y-15238594D01*
X11945094Y-15224309D01*
X11930808Y-15195737D01*
X11930808Y-15081451D01*
X11945094Y-15052880D01*
X11973666Y-15038594D01*
X12030808Y-15038594D01*
X12059380Y-15052880D01*
X12073666Y-15081451D01*
X12073666Y-15110023D01*
X11930808Y-15138594D01*
X12187951Y-15224309D02*
X12216523Y-15238594D01*
X12273666Y-15238594D01*
X12302237Y-15224309D01*
X12316523Y-15195737D01*
X12316523Y-15181451D01*
X12302237Y-15152880D01*
X12273666Y-15138594D01*
X12230808Y-15138594D01*
X12202237Y-15124309D01*
X12187951Y-15095737D01*
X12187951Y-15081451D01*
X12202237Y-15052880D01*
X12230808Y-15038594D01*
X12273666Y-15038594D01*
X12302237Y-15052880D01*
X12416523Y-15352880D02*
X12430808Y-15338594D01*
X12459380Y-15295737D01*
X12473666Y-15267166D01*
X12487951Y-15224309D01*
X12502237Y-15152880D01*
X12502237Y-15095737D01*
X12487951Y-15024309D01*
X12473666Y-14981451D01*
X12459380Y-14952880D01*
X12430808Y-14910023D01*
X12416523Y-14895737D01*
X5359380Y-15348880D02*
X5659380Y-15648880D01*
X5659380Y-15348880D02*
X5359380Y-15648880D01*
X5659380Y-15498880D02*
G75*
G03X5659380Y-15498880I-150000J0D01*
G01*
X5902237Y-15334594D02*
X6087951Y-15334594D01*
X5987951Y-15448880D01*
X6030808Y-15448880D01*
X6059380Y-15463166D01*
X6073666Y-15477451D01*
X6087951Y-15506023D01*
X6087951Y-15577451D01*
X6073666Y-15606023D01*
X6059380Y-15620309D01*
X6030808Y-15634594D01*
X5945094Y-15634594D01*
X5916523Y-15620309D01*
X5902237Y-15606023D01*
X6216523Y-15606023D02*
X6230808Y-15620309D01*
X6216523Y-15634594D01*
X6202237Y-15620309D01*
X6216523Y-15606023D01*
X6216523Y-15634594D01*
X6416523Y-15334594D02*
X6445094Y-15334594D01*
X6473666Y-15348880D01*
X6487951Y-15363166D01*
X6502237Y-15391737D01*
X6516523Y-15448880D01*
X6516523Y-15520309D01*
X6502237Y-15577451D01*
X6487951Y-15606023D01*
X6473666Y-15620309D01*
X6445094Y-15634594D01*
X6416523Y-15634594D01*
X6387951Y-15620309D01*
X6373666Y-15606023D01*
X6359380Y-15577451D01*
X6345094Y-15520309D01*
X6345094Y-15448880D01*
X6359380Y-15391737D01*
X6373666Y-15363166D01*
X6387951Y-15348880D01*
X6416523Y-15334594D01*
X6702237Y-15334594D02*
X6730808Y-15334594D01*
X6759380Y-15348880D01*
X6773666Y-15363166D01*
X6787951Y-15391737D01*
X6802237Y-15448880D01*
X6802237Y-15520309D01*
X6787951Y-15577451D01*
X6773666Y-15606023D01*
X6759380Y-15620309D01*
X6730808Y-15634594D01*
X6702237Y-15634594D01*
X6673666Y-15620309D01*
X6659380Y-15606023D01*
X6645094Y-15577451D01*
X6630808Y-15520309D01*
X6630808Y-15448880D01*
X6645094Y-15391737D01*
X6659380Y-15363166D01*
X6673666Y-15348880D01*
X6702237Y-15334594D01*
X6930808Y-15634594D02*
X6930808Y-15434594D01*
X6930808Y-15463166D02*
X6945094Y-15448880D01*
X6973666Y-15434594D01*
X7016523Y-15434594D01*
X7045094Y-15448880D01*
X7059380Y-15477451D01*
X7059380Y-15634594D01*
X7059380Y-15477451D02*
X7073666Y-15448880D01*
X7102237Y-15434594D01*
X7145094Y-15434594D01*
X7173666Y-15448880D01*
X7187951Y-15477451D01*
X7187951Y-15634594D01*
X7330808Y-15634594D02*
X7330808Y-15434594D01*
X7330808Y-15463166D02*
X7345094Y-15448880D01*
X7373666Y-15434594D01*
X7416523Y-15434594D01*
X7445094Y-15448880D01*
X7459380Y-15477451D01*
X7459380Y-15634594D01*
X7459380Y-15477451D02*
X7473666Y-15448880D01*
X7502237Y-15434594D01*
X7545094Y-15434594D01*
X7573666Y-15448880D01*
X7587951Y-15477451D01*
X7587951Y-15634594D01*
X8173666Y-15320309D02*
X7916523Y-15706023D01*
X8559380Y-15334594D02*
X8587951Y-15334594D01*
X8616523Y-15348880D01*
X8630808Y-15363166D01*
X8645094Y-15391737D01*
X8659380Y-15448880D01*
X8659380Y-15520309D01*
X8645094Y-15577451D01*
X8630808Y-15606023D01*
X8616523Y-15620309D01*
X8587951Y-15634594D01*
X8559380Y-15634594D01*
X8530808Y-15620309D01*
X8516523Y-15606023D01*
X8502237Y-15577451D01*
X8487951Y-15520309D01*
X8487951Y-15448880D01*
X8502237Y-15391737D01*
X8516523Y-15363166D01*
X8530808Y-15348880D01*
X8559380Y-15334594D01*
X8787951Y-15606023D02*
X8802237Y-15620309D01*
X8787951Y-15634594D01*
X8773666Y-15620309D01*
X8787951Y-15606023D01*
X8787951Y-15634594D01*
X9087951Y-15634594D02*
X8916523Y-15634594D01*
X9002237Y-15634594D02*
X9002237Y-15334594D01*
X8973666Y-15377451D01*
X8945094Y-15406023D01*
X8916523Y-15420309D01*
X9373666Y-15634594D02*
X9202237Y-15634594D01*
X9287951Y-15634594D02*
X9287951Y-15334594D01*
X9259380Y-15377451D01*
X9230808Y-15406023D01*
X9202237Y-15420309D01*
X9545094Y-15463166D02*
X9516523Y-15448880D01*
X9502237Y-15434594D01*
X9487951Y-15406023D01*
X9487951Y-15391737D01*
X9502237Y-15363166D01*
X9516523Y-15348880D01*
X9545094Y-15334594D01*
X9602237Y-15334594D01*
X9630808Y-15348880D01*
X9645094Y-15363166D01*
X9659380Y-15391737D01*
X9659380Y-15406023D01*
X9645094Y-15434594D01*
X9630808Y-15448880D01*
X9602237Y-15463166D01*
X9545094Y-15463166D01*
X9516523Y-15477451D01*
X9502237Y-15491737D01*
X9487951Y-15520309D01*
X9487951Y-15577451D01*
X9502237Y-15606023D01*
X9516523Y-15620309D01*
X9545094Y-15634594D01*
X9602237Y-15634594D01*
X9630808Y-15620309D01*
X9645094Y-15606023D01*
X9659380Y-15577451D01*
X9659380Y-15520309D01*
X9645094Y-15491737D01*
X9630808Y-15477451D01*
X9602237Y-15463166D01*
X9773666Y-15334594D02*
X9773666Y-15391737D01*
X9887951Y-15334594D02*
X9887951Y-15391737D01*
X10330808Y-15748880D02*
X10316523Y-15734594D01*
X10287951Y-15691737D01*
X10273666Y-15663166D01*
X10259380Y-15620309D01*
X10245094Y-15548880D01*
X10245094Y-15491737D01*
X10259380Y-15420309D01*
X10273666Y-15377451D01*
X10287951Y-15348880D01*
X10316523Y-15306023D01*
X10330808Y-15291737D01*
X10416523Y-15334594D02*
X10602237Y-15334594D01*
X10502237Y-15448880D01*
X10545094Y-15448880D01*
X10573666Y-15463166D01*
X10587951Y-15477451D01*
X10602237Y-15506023D01*
X10602237Y-15577451D01*
X10587951Y-15606023D01*
X10573666Y-15620309D01*
X10545094Y-15634594D01*
X10459380Y-15634594D01*
X10430808Y-15620309D01*
X10416523Y-15606023D01*
X10959380Y-15634594D02*
X10959380Y-15334594D01*
X11087951Y-15634594D02*
X11087951Y-15477451D01*
X11073666Y-15448880D01*
X11045094Y-15434594D01*
X11002237Y-15434594D01*
X10973666Y-15448880D01*
X10959380Y-15463166D01*
X11273665Y-15634594D02*
X11245094Y-15620309D01*
X11230808Y-15606023D01*
X11216523Y-15577451D01*
X11216523Y-15491737D01*
X11230808Y-15463166D01*
X11245094Y-15448880D01*
X11273665Y-15434594D01*
X11316523Y-15434594D01*
X11345094Y-15448880D01*
X11359380Y-15463166D01*
X11373665Y-15491737D01*
X11373665Y-15577451D01*
X11359380Y-15606023D01*
X11345094Y-15620309D01*
X11316523Y-15634594D01*
X11273665Y-15634594D01*
X11545094Y-15634594D02*
X11516523Y-15620309D01*
X11502237Y-15591737D01*
X11502237Y-15334594D01*
X11773666Y-15620309D02*
X11745094Y-15634594D01*
X11687951Y-15634594D01*
X11659380Y-15620309D01*
X11645094Y-15591737D01*
X11645094Y-15477451D01*
X11659380Y-15448880D01*
X11687951Y-15434594D01*
X11745094Y-15434594D01*
X11773666Y-15448880D01*
X11787951Y-15477451D01*
X11787951Y-15506023D01*
X11645094Y-15534594D01*
X11902237Y-15620309D02*
X11930808Y-15634594D01*
X11987951Y-15634594D01*
X12016523Y-15620309D01*
X12030808Y-15591737D01*
X12030808Y-15577451D01*
X12016523Y-15548880D01*
X11987951Y-15534594D01*
X11945094Y-15534594D01*
X11916523Y-15520309D01*
X11902237Y-15491737D01*
X11902237Y-15477451D01*
X11916523Y-15448880D01*
X11945094Y-15434594D01*
X11987951Y-15434594D01*
X12016523Y-15448880D01*
X12130808Y-15748880D02*
X12145094Y-15734594D01*
X12173666Y-15691737D01*
X12187951Y-15663166D01*
X12202237Y-15620309D01*
X12216523Y-15548880D01*
X12216523Y-15491737D01*
X12202237Y-15420309D01*
X12187951Y-15377451D01*
X12173666Y-15348880D01*
X12145094Y-15306023D01*
X12130808Y-15291737D01*
M02*
