M48
;DRILL file {KiCad (2015-07-31 BZR 6030)-product} date Sat Sep 12 09:45:06 2015
;FORMAT={-:-/ absolute / inch / decimal}
FMAT,2
INCH,TZ
T1C0.012
T2C0.020
T3C0.022
T4C0.031
T5C0.040
T6C0.118
%
G90
G05
M72
T1
X2.5056Y-3.4485
X2.6896Y-3.6545
X2.7216Y-2.5185
X2.7436Y-2.3665
X2.7636Y-2.6285
X2.8156Y-2.2545
X2.8376Y-1.8885
X2.8956Y-3.7405
X2.9336Y-3.9559
X2.9536Y-3.6765
X2.9916Y-2.2925
X3.0976Y-2.4205
X3.0996Y-4.3919
X3.1001Y-4.0819
X3.1096Y-3.3245
X3.1216Y-3.0425
X3.1256Y-4.2359
X3.1436Y-2.3985
X3.1476Y-3.5545
X3.1481Y-3.6705
X3.1631Y-3.9952
X3.1696Y-3.6045
X3.1776Y-3.1085
X3.1956Y-3.0725
X3.1976Y-3.8425
X3.2056Y-4.1965
X3.2276Y-3.7745
X3.2296Y-4.003
X3.2921Y-4.1365
X3.3396Y-3.6325
X3.3796Y-3.3205
X3.3901Y-4.0325
X3.4336Y-3.5985
X3.4436Y-3.7725
X3.4836Y-4.3525
X3.5596Y-3.6705
X3.5956Y-3.6305
X3.6321Y-3.6485
X3.6696Y-3.6705
X3.6856Y-3.9045
X3.6996Y-3.6965
X3.7456Y-4.1825
X3.8216Y-3.7365
X3.8216Y-3.7785
X3.8776Y-3.8145
X3.9156Y-3.8185
X3.9736Y-3.2685
X4.0596Y-3.3545
X4.1976Y-3.4885
X4.2696Y-2.7325
X4.2796Y-2.7293
X4.3056Y-3.8205
X4.3116Y-3.7045
X4.3836Y-3.4005
X4.6236Y-2.7185
T4
X3.5376Y-2.4109
X3.5376Y-2.7101
X3.6376Y-2.4109
X3.6376Y-2.7101
X3.7376Y-2.4109
X3.7376Y-2.7101
X3.8376Y-2.4109
X3.8376Y-2.7101
T5
X2.6916Y-3.0525
X2.6916Y-3.1525
X2.6916Y-3.2525
X2.6916Y-3.3525
X3.3036Y-2.9465
X3.4036Y-2.9465
X3.5036Y-2.9465
X3.6036Y-2.9465
X3.7036Y-2.9465
X3.7776Y-4.6485
X3.8036Y-2.9465
X3.8776Y-4.6485
X3.9776Y-4.6485
X4.0776Y-4.6485
X4.3936Y-4.0105
X4.3936Y-4.1105
X4.3936Y-4.2105
X4.3936Y-4.3105
T6
X2.5576Y-4.6645
X3.6456Y-1.9845
X4.6056Y-4.6885
T2
X3.021Y-4.7276G85X3.021Y-4.702
G05
X3.2966Y-4.7276G85X3.2966Y-4.702
G05
T3
X3.0544Y-4.6085G85X3.0663Y-4.6085
G05
X3.2513Y-4.6085G85X3.2631Y-4.6085
G05
T0
M30
