G04 #@! TF.FileFunction,Copper,L1,Top,Signal*
%FSLAX46Y46*%
G04 Gerber Fmt 4.6, Leading zero omitted, Abs format (unit mm)*
G04 Created by KiCad (PCBNEW (2015-07-31 BZR 6030)-product) date Sat Sep 12 09:45:10 2015*
%MOMM*%
G01*
G04 APERTURE LIST*
%ADD10C,0.100000*%
%ADD11C,5.000000*%
%ADD12R,5.100000X2.500000*%
%ADD13C,17.800000*%
%ADD14R,1.000000X1.250000*%
%ADD15R,0.750000X0.800000*%
%ADD16R,1.250000X1.000000*%
%ADD17R,0.800000X0.750000*%
%ADD18R,0.400000X1.350000*%
%ADD19O,1.250000X0.950000*%
%ADD20O,1.000000X1.550000*%
%ADD21R,1.597660X1.800860*%
%ADD22R,1.727200X2.032000*%
%ADD23O,1.727200X2.032000*%
%ADD24R,2.032000X1.727200*%
%ADD25O,2.032000X1.727200*%
%ADD26R,1.300000X0.700000*%
%ADD27R,0.900000X0.500000*%
%ADD28R,0.700000X1.300000*%
%ADD29C,1.600000*%
%ADD30R,3.100000X1.000000*%
%ADD31R,0.650000X1.060000*%
%ADD32R,0.250000X1.000000*%
%ADD33R,1.000000X0.250000*%
%ADD34R,1.300000X0.800000*%
%ADD35R,0.800000X1.300000*%
%ADD36R,1.000000X2.000000*%
%ADD37C,1.200000*%
%ADD38R,1.200000X1.400000*%
%ADD39C,0.700000*%
%ADD40C,0.250000*%
%ADD41C,0.800000*%
%ADD42C,0.400000*%
%ADD43C,0.254000*%
G04 APERTURE END LIST*
D10*
D11*
X92598200Y-50407400D03*
X116982200Y-119089000D03*
D12*
X108701800Y-46535000D03*
D13*
X108701800Y-57875000D03*
D12*
X108701800Y-69325000D03*
D14*
X78307400Y-114466200D03*
X76307400Y-114466200D03*
D15*
X75732600Y-110465000D03*
X75732600Y-111965000D03*
D16*
X74513400Y-98480200D03*
X74513400Y-100480200D03*
X73599000Y-93095400D03*
X73599000Y-95095400D03*
D15*
X77053400Y-101930600D03*
X77053400Y-103430600D03*
D17*
X80749800Y-81497000D03*
X79249800Y-81497000D03*
D15*
X82031800Y-103176600D03*
X82031800Y-101676600D03*
D14*
X105365000Y-99886600D03*
X107365000Y-99886600D03*
X78339400Y-71692600D03*
X80339400Y-71692600D03*
D17*
X112117400Y-72353000D03*
X113617400Y-72353000D03*
X105716600Y-97499000D03*
X107216600Y-97499000D03*
D18*
X78933000Y-117057000D03*
X79583000Y-117057000D03*
X80233000Y-117057000D03*
X80883000Y-117057000D03*
X81533000Y-117057000D03*
D19*
X77733000Y-117057000D03*
X82733000Y-117057000D03*
D20*
X76733000Y-119757000D03*
X83733000Y-119757000D03*
D16*
X95747800Y-84783000D03*
X95747800Y-82783000D03*
D21*
X76593660Y-51067800D03*
X73753940Y-51067800D03*
D14*
X75647000Y-106592200D03*
X77647000Y-106592200D03*
D22*
X83911400Y-74842200D03*
D23*
X86451400Y-74842200D03*
X88991400Y-74842200D03*
X91531400Y-74842200D03*
X94071400Y-74842200D03*
X96611400Y-74842200D03*
D24*
X68366600Y-77534600D03*
D25*
X68366600Y-80074600D03*
X68366600Y-82614600D03*
X68366600Y-85154600D03*
D24*
X111597400Y-109487800D03*
D25*
X111597400Y-106947800D03*
X111597400Y-104407800D03*
X111597400Y-101867800D03*
D22*
X95951000Y-118073000D03*
D23*
X98491000Y-118073000D03*
X101031000Y-118073000D03*
X103571000Y-118073000D03*
D26*
X80761800Y-85088600D03*
X80761800Y-83188600D03*
D27*
X72024200Y-75006600D03*
X72024200Y-76506600D03*
D28*
X95915400Y-88609000D03*
X97815400Y-88609000D03*
X112445800Y-94197000D03*
X110545800Y-94197000D03*
X112445800Y-97143400D03*
X110545800Y-97143400D03*
D27*
X97576600Y-56820200D03*
X97576600Y-58320200D03*
X94782600Y-56820200D03*
X94782600Y-58320200D03*
X92242600Y-56820200D03*
X92242600Y-58320200D03*
X89601000Y-56972600D03*
X89601000Y-58472600D03*
D28*
X71856600Y-51067800D03*
X69956600Y-51067800D03*
X88600200Y-110554600D03*
X90500200Y-110554600D03*
D29*
X89855000Y-61237800D03*
X89855000Y-68837800D03*
X92395000Y-61237800D03*
X92395000Y-68837800D03*
X94935000Y-61237800D03*
X94935000Y-68837800D03*
X97475000Y-61237800D03*
X97475000Y-68837800D03*
D30*
X91399400Y-104287400D03*
X91399400Y-108287400D03*
X100299400Y-104287400D03*
X100299400Y-108287400D03*
D31*
X77779800Y-111553000D03*
X78729800Y-111553000D03*
X79679800Y-111553000D03*
X79679800Y-109353000D03*
X77779800Y-109353000D03*
D32*
X86848600Y-87430200D03*
X86348600Y-87430200D03*
X85848600Y-87430200D03*
X85348600Y-87430200D03*
X84848600Y-87430200D03*
X84348600Y-87430200D03*
X83848600Y-87430200D03*
X83348600Y-87430200D03*
X82848600Y-87430200D03*
X82348600Y-87430200D03*
X81848600Y-87430200D03*
X81348600Y-87430200D03*
X80848600Y-87430200D03*
X80348600Y-87430200D03*
X79848600Y-87430200D03*
X79348600Y-87430200D03*
D33*
X77398600Y-89380200D03*
X77398600Y-89880200D03*
X77398600Y-90380200D03*
X77398600Y-90880200D03*
X77398600Y-91380200D03*
X77398600Y-91880200D03*
X77398600Y-92380200D03*
X77398600Y-92880200D03*
X77398600Y-93380200D03*
X77398600Y-93880200D03*
X77398600Y-94380200D03*
X77398600Y-94880200D03*
X77398600Y-95380200D03*
X77398600Y-95880200D03*
X77398600Y-96380200D03*
X77398600Y-96880200D03*
D32*
X79348600Y-98830200D03*
X79848600Y-98830200D03*
X80348600Y-98830200D03*
X80848600Y-98830200D03*
X81348600Y-98830200D03*
X81848600Y-98830200D03*
X82348600Y-98830200D03*
X82848600Y-98830200D03*
X83348600Y-98830200D03*
X83848600Y-98830200D03*
X84348600Y-98830200D03*
X84848600Y-98830200D03*
X85348600Y-98830200D03*
X85848600Y-98830200D03*
X86348600Y-98830200D03*
X86848600Y-98830200D03*
D33*
X88798600Y-96880200D03*
X88798600Y-96380200D03*
X88798600Y-95880200D03*
X88798600Y-95380200D03*
X88798600Y-94880200D03*
X88798600Y-94380200D03*
X88798600Y-93880200D03*
X88798600Y-93380200D03*
X88798600Y-92880200D03*
X88798600Y-92380200D03*
X88798600Y-91880200D03*
X88798600Y-91380200D03*
X88798600Y-90880200D03*
X88798600Y-90380200D03*
X88798600Y-89880200D03*
X88798600Y-89380200D03*
D34*
X82707440Y-58444040D03*
X82707440Y-59444040D03*
X82707440Y-60744040D03*
X82707440Y-61944040D03*
X82707440Y-63144040D03*
X82707440Y-64344040D03*
X82707440Y-65644040D03*
D35*
X79907440Y-55844040D03*
X78707440Y-55844040D03*
X77507440Y-55844040D03*
X76307440Y-55844040D03*
X75107440Y-55844040D03*
X73907440Y-55844040D03*
X72707440Y-55844040D03*
X71507440Y-55844040D03*
X69107440Y-55844040D03*
X70307440Y-55844040D03*
X67907440Y-55844040D03*
X66707440Y-55844040D03*
X66707440Y-69244040D03*
X67907440Y-69244040D03*
X70307440Y-69244040D03*
X69107440Y-69244040D03*
X71507440Y-69244040D03*
X72707440Y-69244040D03*
X73907440Y-69244040D03*
X75107440Y-69244040D03*
X76307440Y-69244040D03*
X77507440Y-69244040D03*
X78707440Y-69244040D03*
X79907440Y-69244040D03*
D34*
X82707440Y-66644040D03*
D36*
X104951800Y-75475000D03*
X112451800Y-75475000D03*
X109451800Y-75475000D03*
X110951800Y-75475000D03*
X107951800Y-75575000D03*
X115451800Y-75475000D03*
X106451800Y-75475000D03*
X103451800Y-75475000D03*
X113951800Y-75475000D03*
X101951800Y-75475000D03*
X101951800Y-91075000D03*
X113951800Y-91075000D03*
X103451800Y-91075000D03*
X106451800Y-91075000D03*
X115451800Y-91075000D03*
X107951800Y-91175000D03*
X110951800Y-91075000D03*
X109451800Y-91075000D03*
X112451800Y-91075000D03*
X104951800Y-91075000D03*
D37*
X107901800Y-83075000D03*
D38*
X80342600Y-103679000D03*
X80342600Y-101479000D03*
X78742600Y-103679000D03*
X78742600Y-101479000D03*
D11*
X64963000Y-118479400D03*
D39*
X79961000Y-93230000D03*
X100929400Y-83021000D03*
X111343400Y-86373800D03*
X85841800Y-84341800D03*
X90413800Y-93231800D03*
X103113800Y-85205400D03*
X95138200Y-106236600D03*
X79288600Y-77280600D03*
X74513400Y-100480200D03*
X73548200Y-95009800D03*
X81981000Y-95873400D03*
X78742600Y-103679000D03*
X80342600Y-101479000D03*
X82031800Y-101676600D03*
X78729800Y-111553000D03*
X68315800Y-92825400D03*
X63642200Y-87593000D03*
X106619000Y-88609000D03*
X108447800Y-69406600D03*
X117439400Y-69051000D03*
X108701800Y-69325000D03*
X86107800Y-102424800D03*
X83618600Y-105066400D03*
X72075000Y-47969000D03*
X69687400Y-60110200D03*
X88483400Y-110554600D03*
X79390200Y-107592202D03*
X75021400Y-93384200D03*
X87213400Y-91403000D03*
X78983800Y-84443400D03*
X81219000Y-97600600D03*
X81422200Y-106592200D03*
X93614200Y-99175400D03*
X91328200Y-92215800D03*
X92254600Y-92671200D03*
X93207800Y-93231800D03*
X93969800Y-93892200D03*
X97068600Y-95975000D03*
X97068600Y-94908200D03*
X98491000Y-96889400D03*
X99456200Y-96991000D03*
X109514600Y-94095400D03*
X79949000Y-90285400D03*
X80507800Y-91555400D03*
X109362200Y-97041800D03*
X84825800Y-92266600D03*
X87467400Y-95822600D03*
X71516200Y-57265400D03*
X75986600Y-58230600D03*
X70195400Y-66765000D03*
X69128600Y-63971000D03*
X81168200Y-78042600D03*
X79847400Y-60923000D03*
X78679000Y-61481800D03*
X80711000Y-78957000D03*
D40*
X79966100Y-93224900D02*
X80006700Y-93224900D01*
X79961000Y-93230000D02*
X79966100Y-93224900D01*
D41*
X96611400Y-74842200D02*
X93055400Y-71286200D01*
X87162600Y-71286200D02*
X83954200Y-68077800D01*
X93055400Y-71286200D02*
X87162600Y-71286200D01*
X77507440Y-55844040D02*
X77507440Y-54271360D01*
D42*
X84673400Y-59145000D02*
X83962200Y-59856200D01*
X84673400Y-54268200D02*
X84673400Y-59145000D01*
X82793800Y-52388600D02*
X84673400Y-54268200D01*
D41*
X79390200Y-52388600D02*
X82793800Y-52388600D01*
X77507440Y-54271360D02*
X79390200Y-52388600D01*
X66707440Y-69244040D02*
X63642200Y-72309280D01*
X63642200Y-72309280D02*
X63642200Y-87593000D01*
X103451800Y-75475000D02*
X103451800Y-80498600D01*
X103451800Y-80498600D02*
X100929400Y-83021000D01*
D42*
X113951800Y-75475000D02*
X113951800Y-72284600D01*
X113951800Y-72284600D02*
X113951800Y-63125000D01*
X113951800Y-63125000D02*
X108701800Y-57875000D01*
X111343400Y-86373800D02*
X113951800Y-83765400D01*
X113951800Y-83765400D02*
X113951800Y-75475000D01*
X112451800Y-87482200D02*
X112451800Y-91075000D01*
X111343400Y-86373800D02*
X112451800Y-87482200D01*
X82707440Y-59444040D02*
X83550040Y-59444040D01*
X83962200Y-59856200D02*
X83962200Y-65644040D01*
X83550040Y-59444040D02*
X83962200Y-59856200D01*
D41*
X73599000Y-95095400D02*
X70585800Y-95095400D01*
D40*
X88798600Y-93880200D02*
X89765400Y-93880200D01*
X85892600Y-84392600D02*
X85994200Y-84392600D01*
X85841800Y-84341800D02*
X85892600Y-84392600D01*
X89765400Y-93880200D02*
X90413800Y-93231800D01*
D42*
X95747800Y-82783000D02*
X87400600Y-82783000D01*
D40*
X85848600Y-84335000D02*
X85848600Y-87430200D01*
X87400600Y-82783000D02*
X85848600Y-84335000D01*
D41*
X96611400Y-74842200D02*
X96611400Y-81919400D01*
X96611400Y-81919400D02*
X95747800Y-82783000D01*
X104951800Y-91075000D02*
X104951800Y-87043400D01*
X104951800Y-87043400D02*
X103113800Y-85205400D01*
D42*
X82707440Y-65644040D02*
X83962200Y-65644040D01*
X83962200Y-65644040D02*
X84009640Y-65644040D01*
X84009640Y-65644040D02*
X84009640Y-68022360D01*
X84009640Y-68022360D02*
X83954200Y-68077800D01*
X83954200Y-68077800D02*
X80339400Y-71692600D01*
D41*
X80339400Y-71692600D02*
X80339400Y-70270200D01*
X80339400Y-70270200D02*
X80339400Y-69676000D01*
X80339400Y-69676000D02*
X79907440Y-69244040D01*
X100299400Y-104287400D02*
X101571000Y-104287400D01*
X101571000Y-104287400D02*
X103571000Y-106287400D01*
X103571000Y-106287400D02*
X103571000Y-118073000D01*
X93189000Y-104287400D02*
X91399400Y-104287400D01*
X95138200Y-106236600D02*
X93189000Y-104287400D01*
X79249800Y-77319400D02*
X79249800Y-81497000D01*
X79288600Y-77280600D02*
X79249800Y-77319400D01*
X74513400Y-102426600D02*
X75517400Y-103430600D01*
X77053400Y-103430600D02*
X75517400Y-103430600D01*
X74513400Y-100480200D02*
X74513400Y-102426600D01*
X73548200Y-95009800D02*
X73548200Y-95044600D01*
X73548200Y-95044600D02*
X73599000Y-95095400D01*
X107365000Y-99886600D02*
X107365000Y-97647400D01*
X107365000Y-97647400D02*
X107216600Y-97499000D01*
X111597400Y-101867800D02*
X111585400Y-101867800D01*
X111585400Y-101867800D02*
X107216600Y-97499000D01*
D40*
X82348600Y-98830200D02*
X82348600Y-96241000D01*
X82348600Y-96241000D02*
X81981000Y-95873400D01*
X80348600Y-98830200D02*
X80348600Y-97505800D01*
X80348600Y-97505800D02*
X81981000Y-95873400D01*
D41*
X100299400Y-104287400D02*
X104910600Y-104287400D01*
X107365000Y-101833000D02*
X107365000Y-97647400D01*
X104910600Y-104287400D02*
X107365000Y-101833000D01*
X107365000Y-97647400D02*
X107365000Y-96365400D01*
X104951800Y-93952200D02*
X104951800Y-91075000D01*
X107365000Y-96365400D02*
X104951800Y-93952200D01*
D40*
X81348600Y-87430200D02*
X81348600Y-91883000D01*
X81348600Y-91883000D02*
X80006700Y-93224900D01*
X80006700Y-93224900D02*
X79644200Y-93587400D01*
X77398600Y-96880200D02*
X78281800Y-96880200D01*
X79644200Y-95517800D02*
X79644200Y-93587400D01*
X78281800Y-96880200D02*
X79644200Y-95517800D01*
D42*
X76307400Y-114466200D02*
X76307400Y-115631400D01*
X76307400Y-115631400D02*
X77733000Y-117057000D01*
D40*
X77301800Y-103679000D02*
X78742600Y-103679000D01*
X81533000Y-117057000D02*
X82733000Y-117057000D01*
X77398600Y-94380200D02*
X78851400Y-94380200D01*
X78851400Y-94380200D02*
X79644200Y-93587400D01*
D42*
X91399400Y-104287400D02*
X100299400Y-104287400D01*
D40*
X77301800Y-103679000D02*
X77053400Y-103430600D01*
D42*
X76307400Y-114466200D02*
X75732600Y-113891400D01*
X75732600Y-113891400D02*
X75732600Y-111965000D01*
D41*
X68315800Y-92774600D02*
X68366600Y-92723800D01*
X68315800Y-92825400D02*
X68315800Y-92774600D01*
X68366600Y-92876200D02*
X68366600Y-92723800D01*
X68366600Y-92723800D02*
X68366600Y-85154600D01*
X70585800Y-95095400D02*
X68366600Y-92876200D01*
X106451800Y-91075000D02*
X106451800Y-88776200D01*
X106451800Y-88776200D02*
X106619000Y-88609000D01*
X108701800Y-46535000D02*
X114278200Y-46535000D01*
X108447800Y-69406600D02*
X108529400Y-69325000D01*
X119369800Y-67120600D02*
X117439400Y-69051000D01*
X119369800Y-51626600D02*
X119369800Y-67120600D01*
X114278200Y-46535000D02*
X119369800Y-51626600D01*
X108529400Y-69325000D02*
X108701800Y-69325000D01*
D42*
X112117400Y-72353000D02*
X110225800Y-72353000D01*
X108701800Y-70829000D02*
X108701800Y-69325000D01*
X110225800Y-72353000D02*
X108701800Y-70829000D01*
D40*
X79679800Y-111553000D02*
X81297600Y-111553000D01*
X85848600Y-102165600D02*
X85848600Y-98830200D01*
X86107800Y-102424800D02*
X85848600Y-102165600D01*
X83618600Y-109232000D02*
X83618600Y-105066400D01*
X81297600Y-111553000D02*
X83618600Y-109232000D01*
X79679800Y-111553000D02*
X79679800Y-110453000D01*
X77779800Y-111553000D02*
X77779800Y-110945800D01*
X78272600Y-110453000D02*
X79679800Y-110453000D01*
X77779800Y-110945800D02*
X78272600Y-110453000D01*
D42*
X78307400Y-114466200D02*
X77779800Y-113938600D01*
X77779800Y-113938600D02*
X77779800Y-111553000D01*
X78933000Y-117057000D02*
X78933000Y-115091800D01*
X78933000Y-115091800D02*
X78307400Y-114466200D01*
D40*
X78707440Y-69244040D02*
X78707440Y-64202640D01*
X73494860Y-47969000D02*
X76593660Y-51067800D01*
X72075000Y-47969000D02*
X73494860Y-47969000D01*
X71109800Y-61532600D02*
X69687400Y-60110200D01*
X76037400Y-61532600D02*
X71109800Y-61532600D01*
X78707440Y-64202640D02*
X76037400Y-61532600D01*
X89601000Y-56972600D02*
X83696200Y-51067800D01*
X83696200Y-51067800D02*
X76593660Y-51067800D01*
X92242600Y-56820200D02*
X92090200Y-56972600D01*
X92090200Y-56972600D02*
X89601000Y-56972600D01*
X94782600Y-56820200D02*
X92242600Y-56820200D01*
X97576600Y-56820200D02*
X94782600Y-56820200D01*
D41*
X68366600Y-77534600D02*
X70996200Y-77534600D01*
X70996200Y-77534600D02*
X72024200Y-76506600D01*
X72024200Y-76506600D02*
X75827400Y-76506600D01*
X75827400Y-76506600D02*
X78339400Y-73994600D01*
X68366600Y-77534600D02*
X66995000Y-77534600D01*
X67299800Y-106592200D02*
X75647000Y-106592200D01*
X65064600Y-104357000D02*
X67299800Y-106592200D01*
X65064600Y-79465000D02*
X65064600Y-104357000D01*
X66995000Y-77534600D02*
X65064600Y-79465000D01*
D40*
X86348600Y-87430200D02*
X86348600Y-92925800D01*
X86348600Y-92925800D02*
X87803000Y-94380200D01*
D41*
X83911400Y-74842200D02*
X79187000Y-74842200D01*
X79187000Y-74842200D02*
X78339400Y-73994600D01*
X77779800Y-109353000D02*
X77779800Y-109202602D01*
X77779800Y-109202602D02*
X79390200Y-107592202D01*
X88483400Y-110554600D02*
X88600200Y-110554600D01*
X95951000Y-118073000D02*
X91887000Y-118073000D01*
X88600200Y-114786200D02*
X88600200Y-110554600D01*
X91887000Y-118073000D02*
X88600200Y-114786200D01*
X95951000Y-118073000D02*
X95951000Y-119343000D01*
X111597400Y-119698600D02*
X111597400Y-109487800D01*
X110225800Y-121070200D02*
X111597400Y-119698600D01*
X97678200Y-121070200D02*
X110225800Y-121070200D01*
X95951000Y-119343000D02*
X97678200Y-121070200D01*
X78339400Y-73994600D02*
X78339400Y-71692600D01*
D40*
X80761800Y-85088600D02*
X80761800Y-85205400D01*
X80761800Y-85205400D02*
X81848600Y-86292200D01*
X81848600Y-86292200D02*
X81848600Y-87430200D01*
D42*
X78339400Y-71692600D02*
X78707440Y-71324560D01*
X78707440Y-71324560D02*
X78707440Y-69244040D01*
X75647000Y-106592200D02*
X74411800Y-106592200D01*
X72684600Y-100309000D02*
X74513400Y-98480200D01*
X72684600Y-104865000D02*
X72684600Y-100309000D01*
X74411800Y-106592200D02*
X72684600Y-104865000D01*
D40*
X88798600Y-94380200D02*
X87803000Y-94380200D01*
X87803000Y-94380200D02*
X83840600Y-94380200D01*
X83840600Y-94380200D02*
X83848600Y-94380200D01*
X81848600Y-87430200D02*
X81848600Y-93455000D01*
X81848600Y-93455000D02*
X82285800Y-93892200D01*
D42*
X74513400Y-98480200D02*
X77697800Y-98480200D01*
X77697800Y-98480200D02*
X82285800Y-93892200D01*
D40*
X83848600Y-94388200D02*
X83848600Y-94380200D01*
X83848600Y-94380200D02*
X83848600Y-98830200D01*
X83352600Y-93892200D02*
X83848600Y-94388200D01*
X82285800Y-93892200D02*
X83352600Y-93892200D01*
D42*
X74513400Y-98480200D02*
X75021400Y-97972200D01*
X75021400Y-97972200D02*
X75021400Y-94349400D01*
D40*
X75021400Y-94349400D02*
X75490600Y-93880200D01*
X75490600Y-93880200D02*
X77398600Y-93880200D01*
D42*
X75647000Y-106592200D02*
X75647000Y-108449000D01*
X75647000Y-108449000D02*
X76697800Y-109499800D01*
X75732600Y-110465000D02*
X76697800Y-109499800D01*
X76697800Y-109499800D02*
X76844600Y-109353000D01*
X76844600Y-109353000D02*
X77779800Y-109353000D01*
D40*
X88798600Y-93380200D02*
X87920600Y-93380200D01*
X75017400Y-93380200D02*
X74411800Y-93380200D01*
X75021400Y-93384200D02*
X75017400Y-93380200D01*
X87213400Y-92673000D02*
X87213400Y-91403000D01*
X87920600Y-93380200D02*
X87213400Y-92673000D01*
X73599000Y-93095400D02*
X73883800Y-93380200D01*
X73883800Y-93380200D02*
X74411800Y-93380200D01*
X74411800Y-93380200D02*
X77398600Y-93380200D01*
X77053400Y-101930600D02*
X77053400Y-100699400D01*
X82898598Y-100035802D02*
X82898598Y-98830200D01*
X82793800Y-100140600D02*
X82898598Y-100035802D01*
X77612200Y-100140600D02*
X82793800Y-100140600D01*
X77053400Y-100699400D02*
X77612200Y-100140600D01*
X82898598Y-98830200D02*
X82848600Y-98830200D01*
X77053400Y-101930600D02*
X77505000Y-101479000D01*
X77505000Y-101479000D02*
X78742600Y-101479000D01*
D41*
X80761800Y-83188600D02*
X80761800Y-81509000D01*
X80761800Y-81509000D02*
X80749800Y-81497000D01*
D40*
X81848600Y-98830200D02*
X81848600Y-98230200D01*
X78983800Y-84443400D02*
X80238600Y-83188600D01*
X81848600Y-98230200D02*
X81219000Y-97600600D01*
X80238600Y-83188600D02*
X80761800Y-83188600D01*
X80761800Y-83188600D02*
X80773800Y-83176600D01*
X83348600Y-101402600D02*
X83348600Y-101859800D01*
X83348600Y-98830200D02*
X83348600Y-101402600D01*
X83297800Y-101910600D02*
X82031800Y-103176600D01*
X83348600Y-101859800D02*
X83297800Y-101910600D01*
X80342600Y-103679000D02*
X81529400Y-103679000D01*
X81529400Y-103679000D02*
X82031800Y-103176600D01*
D41*
X105716600Y-97499000D02*
X102859800Y-97499000D01*
X102859800Y-97499000D02*
X101951800Y-96591000D01*
X77647000Y-106592200D02*
X81422200Y-106592200D01*
X93614200Y-99175400D02*
X99710200Y-99175400D01*
X99710200Y-99175400D02*
X101951800Y-96933800D01*
X101951800Y-96933800D02*
X101951800Y-96591000D01*
X101951800Y-96591000D02*
X101951800Y-91075000D01*
D42*
X105365000Y-99886600D02*
X105716600Y-99535000D01*
X105716600Y-99535000D02*
X105716600Y-97499000D01*
D40*
X79583000Y-117057000D02*
X79583000Y-115086200D01*
X84348600Y-110320600D02*
X84348600Y-98830200D01*
X79583000Y-115086200D02*
X84348600Y-110320600D01*
X80233000Y-117057000D02*
X80233000Y-115096600D01*
X84848600Y-110481000D02*
X84848600Y-98830200D01*
X80233000Y-115096600D02*
X84848600Y-110481000D01*
X80883000Y-117057000D02*
X80883000Y-115361000D01*
X85348600Y-110895400D02*
X85348600Y-98830200D01*
X80883000Y-115361000D02*
X85348600Y-110895400D01*
D42*
X95747800Y-84783000D02*
X95747800Y-88441400D01*
X95747800Y-88441400D02*
X95915400Y-88609000D01*
D40*
X71856600Y-51067800D02*
X73753940Y-51067800D01*
X89508602Y-95380200D02*
X88798600Y-95380200D01*
X91328200Y-93560602D02*
X89508602Y-95380200D01*
X91328200Y-92215800D02*
X91328200Y-93560602D01*
X88798600Y-95880200D02*
X89756800Y-95880200D01*
X92254600Y-93382400D02*
X92254600Y-92671200D01*
X89756800Y-95880200D02*
X92254600Y-93382400D01*
X88798600Y-96380200D02*
X90059400Y-96380200D01*
X90059400Y-96380200D02*
X93207800Y-93231800D01*
X88798600Y-96880200D02*
X90981800Y-96880200D01*
X90981800Y-96880200D02*
X93969800Y-93892200D01*
X77398600Y-89380200D02*
X76605400Y-89380200D01*
X74259400Y-85967400D02*
X68366600Y-80074600D01*
X74259400Y-87034200D02*
X74259400Y-85967400D01*
X76605400Y-89380200D02*
X74259400Y-87034200D01*
X68366600Y-82614600D02*
X69941400Y-82614600D01*
X75581400Y-89880200D02*
X77398600Y-89880200D01*
X73345000Y-87643800D02*
X75581400Y-89880200D01*
X73345000Y-86018200D02*
X73345000Y-87643800D01*
X69941400Y-82614600D02*
X73345000Y-86018200D01*
X88798600Y-90880200D02*
X91973800Y-90880200D01*
X91973800Y-90880200D02*
X97068600Y-95975000D01*
X92490602Y-90330202D02*
X88798600Y-90330202D01*
X97068600Y-94908200D02*
X92490602Y-90330202D01*
X88798600Y-90330202D02*
X88798600Y-90380200D01*
X88798600Y-90330202D02*
X88798600Y-90380200D01*
X88798600Y-89880200D02*
X93005800Y-89880200D01*
X98491000Y-95365400D02*
X98491000Y-96889400D01*
X93005800Y-89880200D02*
X98491000Y-95365400D01*
X93572600Y-89380200D02*
X88798600Y-89380200D01*
X99456200Y-95263800D02*
X93572600Y-89380200D01*
X99456200Y-96991000D02*
X99456200Y-95263800D01*
X72024200Y-75006600D02*
X71507440Y-74489840D01*
X71507440Y-74489840D02*
X71507440Y-69244040D01*
X107951800Y-91175000D02*
X107951800Y-86081000D01*
X102184200Y-84240200D02*
X97815400Y-88609000D01*
X106111000Y-84240200D02*
X102184200Y-84240200D01*
X107951800Y-86081000D02*
X106111000Y-84240200D01*
X113951800Y-91075000D02*
X113951800Y-92691000D01*
X113951800Y-92691000D02*
X112445800Y-94197000D01*
X79348600Y-87430200D02*
X79348600Y-89685000D01*
X109616200Y-94197000D02*
X110545800Y-94197000D01*
X109514600Y-94095400D02*
X109616200Y-94197000D01*
X79348600Y-89685000D02*
X79949000Y-90285400D01*
X115451800Y-91075000D02*
X115451800Y-94137400D01*
X115451800Y-94137400D02*
X112445800Y-97143400D01*
X110545800Y-97143400D02*
X109463800Y-97143400D01*
X79848600Y-89169000D02*
X79848600Y-87430200D01*
X80660200Y-89980600D02*
X79848600Y-89169000D01*
X80660200Y-91403000D02*
X80660200Y-89980600D01*
X80507800Y-91555400D02*
X80660200Y-91403000D01*
X109463800Y-97143400D02*
X109362200Y-97041800D01*
X97475000Y-61237800D02*
X97576600Y-61136200D01*
X97576600Y-61136200D02*
X97576600Y-58320200D01*
X94935000Y-61237800D02*
X94782600Y-61085400D01*
X94782600Y-61085400D02*
X94782600Y-58320200D01*
X92395000Y-61237800D02*
X92242600Y-61085400D01*
X92242600Y-61085400D02*
X92242600Y-58320200D01*
X89855000Y-61237800D02*
X89601000Y-60983800D01*
X89601000Y-60983800D02*
X89601000Y-58472600D01*
X70307440Y-55844040D02*
X70307440Y-51418640D01*
X70307440Y-51418640D02*
X69956600Y-51067800D01*
X91399400Y-108287400D02*
X87467400Y-104355400D01*
X84825800Y-92266600D02*
X84825800Y-87453000D01*
X87467400Y-104355400D02*
X87467400Y-95822600D01*
X84825800Y-87453000D02*
X84848600Y-87430200D01*
X100299400Y-108287400D02*
X91399400Y-108287400D01*
X91399400Y-108287400D02*
X90500200Y-109186600D01*
X90500200Y-109186600D02*
X90500200Y-110554600D01*
X71516200Y-57265400D02*
X71507440Y-57256640D01*
X71507440Y-57256640D02*
X71507440Y-55844040D01*
X69107440Y-57498240D02*
X69107440Y-55844040D01*
X69839800Y-58230600D02*
X69107440Y-57498240D01*
X75986600Y-58230600D02*
X69839800Y-58230600D01*
X70195400Y-66765000D02*
X70195400Y-69132000D01*
X70195400Y-69132000D02*
X70307440Y-69244040D01*
D42*
X69107440Y-69244040D02*
X69128600Y-69222880D01*
D40*
X69128600Y-69222880D02*
X69128600Y-63971000D01*
X79907440Y-55844040D02*
X79907440Y-60862960D01*
X83348600Y-80223000D02*
X83348600Y-87430200D01*
X81168200Y-78042600D02*
X83348600Y-80223000D01*
X79907440Y-60862960D02*
X79847400Y-60923000D01*
X82848600Y-87430200D02*
X82848600Y-81094600D01*
X78707440Y-61453360D02*
X78707440Y-55844040D01*
X78679000Y-61481800D02*
X78707440Y-61453360D01*
X82848600Y-81094600D02*
X80711000Y-78957000D01*
D43*
G36*
X62303727Y-120252915D02*
X63184847Y-121135574D01*
X64336674Y-121613854D01*
X65583854Y-121614943D01*
X66736515Y-121138673D01*
X67619174Y-120257553D01*
X68097454Y-119105726D01*
X68098543Y-117858546D01*
X67622273Y-116705885D01*
X66741153Y-115823226D01*
X65589326Y-115344946D01*
X64342146Y-115343857D01*
X63189485Y-115820127D01*
X62306826Y-116701247D01*
X61838800Y-117828380D01*
X61838800Y-43473200D01*
X119496800Y-43473200D01*
X119496800Y-50289888D01*
X115010058Y-45803147D01*
X115010056Y-45803144D01*
X114674277Y-45578785D01*
X114500359Y-45544190D01*
X114278200Y-45499999D01*
X114278195Y-45500000D01*
X111899240Y-45500000D01*
X111899240Y-45285000D01*
X111854962Y-45049683D01*
X111715890Y-44833559D01*
X111503690Y-44688569D01*
X111251800Y-44637560D01*
X106151800Y-44637560D01*
X105916483Y-44681838D01*
X105700359Y-44820910D01*
X105555369Y-45033110D01*
X105504360Y-45285000D01*
X105504360Y-47785000D01*
X105548638Y-48020317D01*
X105687710Y-48236441D01*
X105899910Y-48381431D01*
X106151800Y-48432440D01*
X106693890Y-48432440D01*
X103514321Y-49652866D01*
X103090701Y-49935920D01*
X102030100Y-51023695D01*
X108701800Y-57695395D01*
X115373500Y-51023695D01*
X114312899Y-49935920D01*
X110936265Y-48432440D01*
X111251800Y-48432440D01*
X111487117Y-48388162D01*
X111703241Y-48249090D01*
X111848231Y-48036890D01*
X111899240Y-47785000D01*
X111899240Y-47570000D01*
X113849489Y-47570000D01*
X118334800Y-52055312D01*
X118334800Y-66691889D01*
X116707544Y-68319144D01*
X116483185Y-68654923D01*
X116404399Y-69051000D01*
X116483185Y-69447077D01*
X116707544Y-69782856D01*
X117043323Y-70007215D01*
X117439400Y-70086001D01*
X117835477Y-70007215D01*
X118171256Y-69782856D01*
X119496800Y-68457311D01*
X119496800Y-117170559D01*
X118760353Y-116432826D01*
X117608526Y-115954546D01*
X116361346Y-115953457D01*
X115208685Y-116429727D01*
X114326026Y-117310847D01*
X113847746Y-118462674D01*
X113846657Y-119709854D01*
X114322927Y-120862515D01*
X115204047Y-121745174D01*
X116355874Y-122223454D01*
X117603054Y-122224543D01*
X118755715Y-121748273D01*
X119496800Y-121008480D01*
X119496800Y-122873600D01*
X97678200Y-122873600D01*
X97678200Y-122105201D01*
X97678205Y-122105200D01*
X110225795Y-122105200D01*
X110225800Y-122105201D01*
X110621877Y-122026415D01*
X110957656Y-121802056D01*
X112329253Y-120430458D01*
X112329256Y-120430456D01*
X112463749Y-120229171D01*
X112553615Y-120094678D01*
X112632400Y-119698600D01*
X112632400Y-110995265D01*
X112848717Y-110954562D01*
X113064841Y-110815490D01*
X113209831Y-110603290D01*
X113260840Y-110351400D01*
X113260840Y-108624200D01*
X113216562Y-108388883D01*
X113077490Y-108172759D01*
X112865290Y-108027769D01*
X112823961Y-108019400D01*
X112841815Y-108007470D01*
X113166671Y-107521289D01*
X113280745Y-106947800D01*
X113166671Y-106374311D01*
X112841815Y-105888130D01*
X112527034Y-105677800D01*
X112841815Y-105467470D01*
X113166671Y-104981289D01*
X113280745Y-104407800D01*
X113166671Y-103834311D01*
X112841815Y-103348130D01*
X112532331Y-103141339D01*
X112948132Y-102769836D01*
X113202109Y-102242591D01*
X113204758Y-102226826D01*
X113083617Y-101994800D01*
X111724400Y-101994800D01*
X111724400Y-101740800D01*
X113083617Y-101740800D01*
X113204758Y-101508774D01*
X113202109Y-101493009D01*
X112948132Y-100965764D01*
X112511720Y-100575846D01*
X111959313Y-100382616D01*
X111724400Y-100526876D01*
X111724400Y-101740800D01*
X111724400Y-101994800D01*
X111724400Y-102014800D01*
X111470400Y-102014800D01*
X111470400Y-101994800D01*
X110111183Y-101994800D01*
X110111183Y-101740800D01*
X111470400Y-101740800D01*
X111470400Y-100526876D01*
X111235487Y-100382616D01*
X110683080Y-100575846D01*
X110246668Y-100965764D01*
X110195800Y-101071363D01*
X110195800Y-98440840D01*
X110895800Y-98440840D01*
X111131117Y-98396562D01*
X111347241Y-98257490D01*
X111492231Y-98045290D01*
X111494881Y-98032203D01*
X111631710Y-98244841D01*
X111843910Y-98389831D01*
X112095800Y-98440840D01*
X112795800Y-98440840D01*
X113031117Y-98396562D01*
X113247241Y-98257490D01*
X113392231Y-98045290D01*
X113443240Y-97793400D01*
X113443240Y-97220762D01*
X115989201Y-94674801D01*
X116153948Y-94428239D01*
X116211800Y-94137400D01*
X116211800Y-92662279D01*
X116403241Y-92539090D01*
X116548231Y-92326890D01*
X116599240Y-92075000D01*
X116599240Y-90075000D01*
X116554962Y-89839683D01*
X116415890Y-89623559D01*
X116203690Y-89478569D01*
X115951800Y-89427560D01*
X114951800Y-89427560D01*
X114951800Y-77122440D01*
X115951800Y-77122440D01*
X116187117Y-77078162D01*
X116403241Y-76939090D01*
X116548231Y-76726890D01*
X116599240Y-76475000D01*
X116599240Y-74475000D01*
X116554962Y-74239683D01*
X116415890Y-74023559D01*
X116203690Y-73878569D01*
X115951800Y-73827560D01*
X115553105Y-73827560D01*
X115553105Y-64546700D01*
X116640880Y-63486099D01*
X118183828Y-60020825D01*
X118283223Y-56228869D01*
X116923934Y-52687521D01*
X116640880Y-52263901D01*
X115553105Y-51203300D01*
X108881405Y-57875000D01*
X115553105Y-64546700D01*
X115553105Y-73827560D01*
X114951800Y-73827560D01*
X114716483Y-73871838D01*
X114692395Y-73887338D01*
X114578110Y-73840000D01*
X114237550Y-73840000D01*
X114078800Y-73998750D01*
X114078800Y-75348000D01*
X114098800Y-75348000D01*
X114098800Y-75602000D01*
X114078800Y-75602000D01*
X114078800Y-76951250D01*
X114237550Y-77110000D01*
X114578110Y-77110000D01*
X114689083Y-77064033D01*
X114699910Y-77071431D01*
X114951800Y-77122440D01*
X114951800Y-89427560D01*
X114716483Y-89471838D01*
X114704821Y-89479342D01*
X114703690Y-89478569D01*
X114451800Y-89427560D01*
X113903150Y-89427560D01*
X113903150Y-73363000D01*
X114143709Y-73363000D01*
X114377098Y-73266327D01*
X114555727Y-73087699D01*
X114652400Y-72854310D01*
X114652400Y-72638750D01*
X114493650Y-72480000D01*
X113744400Y-72480000D01*
X113744400Y-72226000D01*
X114493650Y-72226000D01*
X114652400Y-72067250D01*
X114652400Y-71851690D01*
X114555727Y-71618301D01*
X114377098Y-71439673D01*
X114143709Y-71343000D01*
X113903150Y-71343000D01*
X113744400Y-71501750D01*
X113744400Y-72226000D01*
X113744400Y-72480000D01*
X113744400Y-73204250D01*
X113903150Y-73363000D01*
X113903150Y-89427560D01*
X113451800Y-89427560D01*
X113216483Y-89471838D01*
X113192395Y-89487338D01*
X113078110Y-89440000D01*
X112737550Y-89440000D01*
X112578800Y-89598750D01*
X112578800Y-90948000D01*
X112598800Y-90948000D01*
X112598800Y-91202000D01*
X112578800Y-91202000D01*
X112578800Y-92551250D01*
X112737550Y-92710000D01*
X112857998Y-92710000D01*
X112668438Y-92899560D01*
X112095800Y-92899560D01*
X111860483Y-92943838D01*
X111644359Y-93082910D01*
X111499369Y-93295110D01*
X111496719Y-93308197D01*
X111359890Y-93095559D01*
X111147690Y-92950569D01*
X110895800Y-92899560D01*
X110195800Y-92899560D01*
X109960483Y-92943838D01*
X109744359Y-93082910D01*
X109722349Y-93115123D01*
X109711388Y-93110572D01*
X109319531Y-93110230D01*
X108957371Y-93259871D01*
X108680045Y-93536714D01*
X108529772Y-93898612D01*
X108529430Y-94290469D01*
X108679071Y-94652629D01*
X108955914Y-94929955D01*
X109317812Y-95080228D01*
X109592290Y-95080468D01*
X109592638Y-95082317D01*
X109731710Y-95298441D01*
X109943910Y-95443431D01*
X110195800Y-95494440D01*
X110895800Y-95494440D01*
X111131117Y-95450162D01*
X111347241Y-95311090D01*
X111492231Y-95098890D01*
X111494881Y-95085803D01*
X111631710Y-95298441D01*
X111843910Y-95443431D01*
X112095800Y-95494440D01*
X112795800Y-95494440D01*
X113031117Y-95450162D01*
X113124013Y-95390385D01*
X112668438Y-95845960D01*
X112095800Y-95845960D01*
X111860483Y-95890238D01*
X111644359Y-96029310D01*
X111499369Y-96241510D01*
X111496719Y-96254597D01*
X111359890Y-96041959D01*
X111147690Y-95896969D01*
X110895800Y-95845960D01*
X110195800Y-95845960D01*
X109960483Y-95890238D01*
X109744359Y-96029310D01*
X109688666Y-96110819D01*
X109558988Y-96056972D01*
X109167131Y-96056630D01*
X108804971Y-96206271D01*
X108527645Y-96483114D01*
X108377372Y-96845012D01*
X108377030Y-97236869D01*
X108526671Y-97599029D01*
X108803514Y-97876355D01*
X109165412Y-98026628D01*
X109557269Y-98026970D01*
X109589782Y-98013536D01*
X109592638Y-98028717D01*
X109731710Y-98244841D01*
X109943910Y-98389831D01*
X110195800Y-98440840D01*
X110195800Y-101071363D01*
X109992691Y-101493009D01*
X109990042Y-101508774D01*
X110111183Y-101740800D01*
X110111183Y-101994800D01*
X109990042Y-102226826D01*
X109992691Y-102242591D01*
X110246668Y-102769836D01*
X110662469Y-103141339D01*
X110352985Y-103348130D01*
X110028129Y-103834311D01*
X109914055Y-104407800D01*
X110028129Y-104981289D01*
X110352985Y-105467470D01*
X110667766Y-105677800D01*
X110352985Y-105888130D01*
X110028129Y-106374311D01*
X109914055Y-106947800D01*
X110028129Y-107521289D01*
X110352985Y-108007470D01*
X110367313Y-108017043D01*
X110346083Y-108021038D01*
X110129959Y-108160110D01*
X109984969Y-108372310D01*
X109933960Y-108624200D01*
X109933960Y-110351400D01*
X109978238Y-110586717D01*
X110117310Y-110802841D01*
X110329510Y-110947831D01*
X110562400Y-110994992D01*
X110562400Y-119269889D01*
X109797088Y-120035200D01*
X107650750Y-120035200D01*
X107650750Y-101146600D01*
X107991309Y-101146600D01*
X108224698Y-101049927D01*
X108403327Y-100871299D01*
X108500000Y-100637910D01*
X108500000Y-100172350D01*
X108341250Y-100013600D01*
X107492000Y-100013600D01*
X107492000Y-99759600D01*
X108341250Y-99759600D01*
X108500000Y-99600850D01*
X108500000Y-99135290D01*
X108403327Y-98901901D01*
X108224698Y-98723273D01*
X107991309Y-98626600D01*
X107650750Y-98626600D01*
X107502350Y-98775000D01*
X107502350Y-98509000D01*
X107742909Y-98509000D01*
X107976298Y-98412327D01*
X108154927Y-98233699D01*
X108251600Y-98000310D01*
X108251600Y-97784750D01*
X108092850Y-97626000D01*
X107343600Y-97626000D01*
X107343600Y-97372000D01*
X108092850Y-97372000D01*
X108251600Y-97213250D01*
X108251600Y-96997690D01*
X108154927Y-96764301D01*
X107976298Y-96585673D01*
X107742909Y-96489000D01*
X107502350Y-96489000D01*
X107451800Y-96539550D01*
X107451800Y-92822440D01*
X108451800Y-92822440D01*
X108687117Y-92778162D01*
X108816341Y-92695009D01*
X108951800Y-92722440D01*
X109951800Y-92722440D01*
X110187117Y-92678162D01*
X110198779Y-92670658D01*
X110199910Y-92671431D01*
X110451800Y-92722440D01*
X111451800Y-92722440D01*
X111687117Y-92678162D01*
X111711205Y-92662662D01*
X111825490Y-92710000D01*
X112166050Y-92710000D01*
X112324800Y-92551250D01*
X112324800Y-91202000D01*
X112304800Y-91202000D01*
X112304800Y-90948000D01*
X112324800Y-90948000D01*
X112324800Y-89598750D01*
X112166050Y-89440000D01*
X111825490Y-89440000D01*
X111714517Y-89485967D01*
X111703690Y-89478569D01*
X111451800Y-89427560D01*
X110451800Y-89427560D01*
X110216483Y-89471838D01*
X110204821Y-89479342D01*
X110203690Y-89478569D01*
X109951800Y-89427560D01*
X108951800Y-89427560D01*
X108716483Y-89471838D01*
X108711800Y-89474851D01*
X108711800Y-86081000D01*
X108653948Y-85790161D01*
X108489201Y-85543599D01*
X108146379Y-85200777D01*
X108146379Y-84310214D01*
X108600457Y-84122592D01*
X108948171Y-83775485D01*
X109136585Y-83321734D01*
X109137014Y-82830421D01*
X108949392Y-82376343D01*
X108602285Y-82028629D01*
X108148534Y-81840215D01*
X107657221Y-81839786D01*
X107451800Y-81924664D01*
X107451800Y-77222440D01*
X108451800Y-77222440D01*
X108687117Y-77178162D01*
X108816341Y-77095009D01*
X108951800Y-77122440D01*
X109951800Y-77122440D01*
X110187117Y-77078162D01*
X110198779Y-77070658D01*
X110199910Y-77071431D01*
X110451800Y-77122440D01*
X111451800Y-77122440D01*
X111687117Y-77078162D01*
X111698779Y-77070658D01*
X111699910Y-77071431D01*
X111951800Y-77122440D01*
X112951800Y-77122440D01*
X113187117Y-77078162D01*
X113211205Y-77062662D01*
X113325490Y-77110000D01*
X113666050Y-77110000D01*
X113824800Y-76951250D01*
X113824800Y-75602000D01*
X113804800Y-75602000D01*
X113804800Y-75348000D01*
X113824800Y-75348000D01*
X113824800Y-73998750D01*
X113666050Y-73840000D01*
X113325490Y-73840000D01*
X113214517Y-73885967D01*
X113203690Y-73878569D01*
X112951800Y-73827560D01*
X111951800Y-73827560D01*
X111717400Y-73871665D01*
X111717400Y-73375440D01*
X112517400Y-73375440D01*
X112752717Y-73331162D01*
X112856046Y-73264671D01*
X112857702Y-73266327D01*
X113091091Y-73363000D01*
X113331650Y-73363000D01*
X113490400Y-73204250D01*
X113490400Y-72480000D01*
X113470400Y-72480000D01*
X113470400Y-72226000D01*
X113490400Y-72226000D01*
X113490400Y-71501750D01*
X113331650Y-71343000D01*
X113091091Y-71343000D01*
X112857702Y-71439673D01*
X112856332Y-71441043D01*
X112769290Y-71381569D01*
X112517400Y-71330560D01*
X111717400Y-71330560D01*
X111482083Y-71374838D01*
X111265959Y-71513910D01*
X111263164Y-71518000D01*
X110571668Y-71518000D01*
X110276108Y-71222440D01*
X111251800Y-71222440D01*
X111487117Y-71178162D01*
X111703241Y-71039090D01*
X111848231Y-70826890D01*
X111899240Y-70575000D01*
X111899240Y-68075000D01*
X111854962Y-67839683D01*
X111715890Y-67623559D01*
X111503690Y-67478569D01*
X111251800Y-67427560D01*
X110423128Y-67427560D01*
X113889279Y-66097134D01*
X114312899Y-65814080D01*
X115373500Y-64726305D01*
X108701800Y-58054605D01*
X102030100Y-64726305D01*
X103090701Y-65814080D01*
X106555975Y-67357028D01*
X109246797Y-67427560D01*
X106151800Y-67427560D01*
X105916483Y-67471838D01*
X105700359Y-67610910D01*
X105555369Y-67823110D01*
X105504360Y-68075000D01*
X105504360Y-70575000D01*
X105548638Y-70810317D01*
X105687710Y-71026441D01*
X105899910Y-71171431D01*
X106151800Y-71222440D01*
X107979739Y-71222440D01*
X108051723Y-71330172D01*
X108111366Y-71419434D01*
X109635366Y-72943434D01*
X109906259Y-73124439D01*
X110225800Y-73188000D01*
X111265837Y-73188000D01*
X111465510Y-73324431D01*
X111717400Y-73375440D01*
X111717400Y-73871665D01*
X111716483Y-73871838D01*
X111704821Y-73879342D01*
X111703690Y-73878569D01*
X111451800Y-73827560D01*
X110451800Y-73827560D01*
X110216483Y-73871838D01*
X110204821Y-73879342D01*
X110203690Y-73878569D01*
X109951800Y-73827560D01*
X108951800Y-73827560D01*
X108716483Y-73871838D01*
X108587259Y-73954991D01*
X108451800Y-73927560D01*
X107451800Y-73927560D01*
X107313482Y-73953586D01*
X107203690Y-73878569D01*
X106951800Y-73827560D01*
X105951800Y-73827560D01*
X105716483Y-73871838D01*
X105704821Y-73879342D01*
X105703690Y-73878569D01*
X105451800Y-73827560D01*
X104451800Y-73827560D01*
X104216483Y-73871838D01*
X104192395Y-73887338D01*
X104078110Y-73840000D01*
X103737550Y-73840000D01*
X103578800Y-73998750D01*
X103578800Y-75348000D01*
X103598800Y-75348000D01*
X103598800Y-75602000D01*
X103578800Y-75602000D01*
X103578800Y-76951250D01*
X103737550Y-77110000D01*
X104078110Y-77110000D01*
X104189083Y-77064033D01*
X104199910Y-77071431D01*
X104451800Y-77122440D01*
X105451800Y-77122440D01*
X105687117Y-77078162D01*
X105698779Y-77070658D01*
X105699910Y-77071431D01*
X105951800Y-77122440D01*
X106951800Y-77122440D01*
X107090118Y-77096414D01*
X107199910Y-77171431D01*
X107451800Y-77222440D01*
X107451800Y-81924664D01*
X107203143Y-82027408D01*
X106855429Y-82374515D01*
X106667015Y-82828266D01*
X106666586Y-83319579D01*
X106854208Y-83773657D01*
X107201315Y-84121371D01*
X107655066Y-84309785D01*
X108146379Y-84310214D01*
X108146379Y-85200777D01*
X106648401Y-83702799D01*
X106401840Y-83538052D01*
X106111000Y-83480200D01*
X102184200Y-83480200D01*
X101975709Y-83521672D01*
X101893360Y-83538052D01*
X101646799Y-83702799D01*
X101451800Y-83897798D01*
X101451800Y-77122440D01*
X102451800Y-77122440D01*
X102687117Y-77078162D01*
X102711205Y-77062662D01*
X102825490Y-77110000D01*
X103166050Y-77110000D01*
X103324800Y-76951250D01*
X103324800Y-75602000D01*
X103304800Y-75602000D01*
X103304800Y-75348000D01*
X103324800Y-75348000D01*
X103324800Y-73998750D01*
X103166050Y-73840000D01*
X102825490Y-73840000D01*
X102714517Y-73885967D01*
X102703690Y-73878569D01*
X102451800Y-73827560D01*
X101850495Y-73827560D01*
X101850495Y-64546700D01*
X108522195Y-57875000D01*
X101850495Y-51203300D01*
X100762720Y-52263901D01*
X99219772Y-55729175D01*
X99120377Y-59521131D01*
X100479666Y-63062479D01*
X100762720Y-63486099D01*
X101850495Y-64546700D01*
X101850495Y-73827560D01*
X101451800Y-73827560D01*
X101216483Y-73871838D01*
X101000359Y-74010910D01*
X100855369Y-74223110D01*
X100804360Y-74475000D01*
X100804360Y-76475000D01*
X100848638Y-76710317D01*
X100987710Y-76926441D01*
X101199910Y-77071431D01*
X101451800Y-77122440D01*
X101451800Y-83897798D01*
X98038038Y-87311560D01*
X97465400Y-87311560D01*
X97230083Y-87355838D01*
X97013959Y-87494910D01*
X96868969Y-87707110D01*
X96866319Y-87720197D01*
X96729490Y-87507559D01*
X96582800Y-87407330D01*
X96582800Y-85890926D01*
X96608117Y-85886162D01*
X96824241Y-85747090D01*
X96969231Y-85534890D01*
X97020240Y-85283000D01*
X97020240Y-84283000D01*
X96975962Y-84047683D01*
X96836890Y-83831559D01*
X96768794Y-83785031D01*
X96911127Y-83642698D01*
X97007800Y-83409309D01*
X97007800Y-83068750D01*
X96849050Y-82910000D01*
X95874800Y-82910000D01*
X95874800Y-82656000D01*
X96849050Y-82656000D01*
X97007800Y-82497250D01*
X97007800Y-82156691D01*
X96970426Y-82066463D01*
X96970426Y-76449558D01*
X96986191Y-76446909D01*
X97513436Y-76192932D01*
X97903354Y-75756520D01*
X98096584Y-75204113D01*
X97952324Y-74969200D01*
X96738400Y-74969200D01*
X96738400Y-74715200D01*
X97952324Y-74715200D01*
X98096584Y-74480287D01*
X97903354Y-73927880D01*
X97513436Y-73491468D01*
X96986191Y-73237491D01*
X96970426Y-73234842D01*
X96738400Y-73355983D01*
X96738400Y-74715200D01*
X96738400Y-74969200D01*
X96738400Y-76328417D01*
X96970426Y-76449558D01*
X96970426Y-82066463D01*
X96911127Y-81923302D01*
X96732499Y-81744673D01*
X96499110Y-81648000D01*
X96033550Y-81648000D01*
X95874800Y-81806750D01*
X95874800Y-82656000D01*
X95874800Y-82910000D01*
X95874800Y-82930000D01*
X95620800Y-82930000D01*
X95620800Y-82910000D01*
X94646550Y-82910000D01*
X94646550Y-82656000D01*
X95620800Y-82656000D01*
X95620800Y-81806750D01*
X95462050Y-81648000D01*
X94996490Y-81648000D01*
X94763101Y-81744673D01*
X94584473Y-81923302D01*
X94487800Y-82156691D01*
X94487800Y-82497250D01*
X94646550Y-82656000D01*
X94646550Y-82910000D01*
X94487800Y-83068750D01*
X94487800Y-83409309D01*
X94584473Y-83642698D01*
X94725710Y-83783936D01*
X94671359Y-83818910D01*
X94526369Y-84031110D01*
X94475360Y-84283000D01*
X94475360Y-85283000D01*
X94519638Y-85518317D01*
X94658710Y-85734441D01*
X94870910Y-85879431D01*
X94912800Y-85887914D01*
X94912800Y-88441400D01*
X94917960Y-88467341D01*
X94917960Y-89259000D01*
X94962238Y-89494317D01*
X95101310Y-89710441D01*
X95313510Y-89855431D01*
X95565400Y-89906440D01*
X96265400Y-89906440D01*
X96500717Y-89862162D01*
X96716841Y-89723090D01*
X96861831Y-89510890D01*
X96864481Y-89497803D01*
X97001310Y-89710441D01*
X97213510Y-89855431D01*
X97465400Y-89906440D01*
X98165400Y-89906440D01*
X98400717Y-89862162D01*
X98616841Y-89723090D01*
X98761831Y-89510890D01*
X98812840Y-89259000D01*
X98812840Y-88686362D01*
X102499002Y-85000200D01*
X105796198Y-85000200D01*
X107191800Y-86395802D01*
X107191800Y-87770867D01*
X107015078Y-87652785D01*
X106619000Y-87573999D01*
X106222923Y-87652785D01*
X105887145Y-87877144D01*
X105719944Y-88044344D01*
X105495585Y-88380123D01*
X105416799Y-88776200D01*
X105416800Y-88776205D01*
X105416800Y-89440000D01*
X105237550Y-89440000D01*
X105078800Y-89598750D01*
X105078800Y-90948000D01*
X105098800Y-90948000D01*
X105098800Y-91202000D01*
X105078800Y-91202000D01*
X105078800Y-92551250D01*
X105237550Y-92710000D01*
X105578110Y-92710000D01*
X105689083Y-92664033D01*
X105699910Y-92671431D01*
X105951800Y-92722440D01*
X106951800Y-92722440D01*
X107090118Y-92696414D01*
X107199910Y-92771431D01*
X107451800Y-92822440D01*
X107451800Y-96539550D01*
X107343600Y-96647750D01*
X107343600Y-97372000D01*
X107343600Y-97626000D01*
X107343600Y-98350250D01*
X107502350Y-98509000D01*
X107502350Y-98775000D01*
X107492000Y-98785350D01*
X107492000Y-99759600D01*
X107492000Y-100013600D01*
X107492000Y-100987850D01*
X107650750Y-101146600D01*
X107650750Y-120035200D01*
X103930026Y-120035200D01*
X103930026Y-119680358D01*
X103945791Y-119677709D01*
X104473036Y-119423732D01*
X104862954Y-118987320D01*
X105056184Y-118434913D01*
X104911924Y-118200000D01*
X103698000Y-118200000D01*
X103698000Y-117946000D01*
X104911924Y-117946000D01*
X105056184Y-117711087D01*
X104862954Y-117158680D01*
X104473036Y-116722268D01*
X103945791Y-116468291D01*
X103930026Y-116465642D01*
X103698000Y-116586783D01*
X103698000Y-117946000D01*
X103698000Y-118200000D01*
X103698000Y-119559217D01*
X103930026Y-119680358D01*
X103930026Y-120035200D01*
X98106912Y-120035200D01*
X97411295Y-119339584D01*
X97419400Y-119299561D01*
X97431330Y-119317415D01*
X97917511Y-119642271D01*
X98491000Y-119756345D01*
X99064489Y-119642271D01*
X99550670Y-119317415D01*
X99761000Y-119002634D01*
X99971330Y-119317415D01*
X100457511Y-119642271D01*
X101031000Y-119756345D01*
X101604489Y-119642271D01*
X102090670Y-119317415D01*
X102297461Y-119007931D01*
X102668964Y-119423732D01*
X103196209Y-119677709D01*
X103211974Y-119680358D01*
X103444000Y-119559217D01*
X103444000Y-118200000D01*
X103424000Y-118200000D01*
X103424000Y-117946000D01*
X103444000Y-117946000D01*
X103444000Y-116586783D01*
X103211974Y-116465642D01*
X103196209Y-116468291D01*
X102668964Y-116722268D01*
X102297461Y-117138069D01*
X102090670Y-116828585D01*
X101604489Y-116503729D01*
X101031000Y-116389655D01*
X100457511Y-116503729D01*
X99971330Y-116828585D01*
X99761000Y-117143366D01*
X99550670Y-116828585D01*
X99064489Y-116503729D01*
X98491000Y-116389655D01*
X97917511Y-116503729D01*
X97431330Y-116828585D01*
X97421757Y-116842913D01*
X97417762Y-116821683D01*
X97278690Y-116605559D01*
X97066490Y-116460569D01*
X96814600Y-116409560D01*
X95087400Y-116409560D01*
X94852083Y-116453838D01*
X94635959Y-116592910D01*
X94490969Y-116805110D01*
X94443808Y-117038000D01*
X92315712Y-117038000D01*
X89635200Y-114357489D01*
X89635200Y-111576925D01*
X89686110Y-111656041D01*
X89898310Y-111801031D01*
X90150200Y-111852040D01*
X90850200Y-111852040D01*
X91085517Y-111807762D01*
X91301641Y-111668690D01*
X91446631Y-111456490D01*
X91497640Y-111204600D01*
X91497640Y-109904600D01*
X91453362Y-109669283D01*
X91314290Y-109453159D01*
X91310816Y-109450786D01*
X91326762Y-109434840D01*
X92949400Y-109434840D01*
X93184717Y-109390562D01*
X93400841Y-109251490D01*
X93540290Y-109047400D01*
X98162121Y-109047400D01*
X98285310Y-109238841D01*
X98497510Y-109383831D01*
X98749400Y-109434840D01*
X101849400Y-109434840D01*
X102084717Y-109390562D01*
X102300841Y-109251490D01*
X102445831Y-109039290D01*
X102496840Y-108787400D01*
X102496840Y-107787400D01*
X102452562Y-107552083D01*
X102313490Y-107335959D01*
X102101290Y-107190969D01*
X101849400Y-107139960D01*
X100585150Y-107139960D01*
X100585150Y-105422400D01*
X101975709Y-105422400D01*
X102209098Y-105325727D01*
X102387727Y-105147099D01*
X102484400Y-104913710D01*
X102484400Y-104573150D01*
X102325650Y-104414400D01*
X100426400Y-104414400D01*
X100426400Y-104160400D01*
X102325650Y-104160400D01*
X102484400Y-104001650D01*
X102484400Y-103661090D01*
X102387727Y-103427701D01*
X102209098Y-103249073D01*
X101975709Y-103152400D01*
X100585150Y-103152400D01*
X100426400Y-103311150D01*
X100426400Y-104160400D01*
X100426400Y-104414400D01*
X100426400Y-105263650D01*
X100585150Y-105422400D01*
X100585150Y-107139960D01*
X98749400Y-107139960D01*
X98623091Y-107163726D01*
X98623091Y-105422400D01*
X100013650Y-105422400D01*
X100172400Y-105263650D01*
X100172400Y-104414400D01*
X98273150Y-104414400D01*
X98273150Y-104160400D01*
X100172400Y-104160400D01*
X100172400Y-103311150D01*
X100013650Y-103152400D01*
X98623091Y-103152400D01*
X98389702Y-103249073D01*
X98211073Y-103427701D01*
X98114400Y-103661090D01*
X98114400Y-104001650D01*
X98273150Y-104160400D01*
X98273150Y-104414400D01*
X98114400Y-104573150D01*
X98114400Y-104913710D01*
X98211073Y-105147099D01*
X98389702Y-105325727D01*
X98623091Y-105422400D01*
X98623091Y-107163726D01*
X98514083Y-107184238D01*
X98297959Y-107323310D01*
X98158510Y-107527400D01*
X93536679Y-107527400D01*
X93413490Y-107335959D01*
X93201290Y-107190969D01*
X92949400Y-107139960D01*
X91685150Y-107139960D01*
X91685150Y-105422400D01*
X93075709Y-105422400D01*
X93309098Y-105325727D01*
X93487727Y-105147099D01*
X93584400Y-104913710D01*
X93584400Y-104573150D01*
X93425650Y-104414400D01*
X91526400Y-104414400D01*
X91526400Y-104160400D01*
X93425650Y-104160400D01*
X93584400Y-104001650D01*
X93584400Y-103661090D01*
X93487727Y-103427701D01*
X93309098Y-103249073D01*
X93075709Y-103152400D01*
X91685150Y-103152400D01*
X91526400Y-103311150D01*
X91526400Y-104160400D01*
X91526400Y-104414400D01*
X91526400Y-105263650D01*
X91685150Y-105422400D01*
X91685150Y-107139960D01*
X91326762Y-107139960D01*
X89528670Y-105341868D01*
X89723091Y-105422400D01*
X91113650Y-105422400D01*
X91272400Y-105263650D01*
X91272400Y-104414400D01*
X89373150Y-104414400D01*
X89373150Y-104160400D01*
X91272400Y-104160400D01*
X91272400Y-103311150D01*
X91113650Y-103152400D01*
X89723091Y-103152400D01*
X89489702Y-103249073D01*
X89311073Y-103427701D01*
X89214400Y-103661090D01*
X89214400Y-104001650D01*
X89373150Y-104160400D01*
X89373150Y-104414400D01*
X89214400Y-104573150D01*
X89214400Y-104913710D01*
X89294931Y-105108129D01*
X88227400Y-104040598D01*
X88227400Y-97638222D01*
X88298600Y-97652640D01*
X89298600Y-97652640D01*
X89364713Y-97640200D01*
X90981800Y-97640200D01*
X91272639Y-97582348D01*
X91519201Y-97417601D01*
X94059524Y-94877278D01*
X94164869Y-94877370D01*
X94527029Y-94727729D01*
X94636874Y-94618076D01*
X96083522Y-96064724D01*
X96083430Y-96170069D01*
X96233071Y-96532229D01*
X96509914Y-96809555D01*
X96871812Y-96959828D01*
X97263669Y-96960170D01*
X97506026Y-96860030D01*
X97505830Y-97084469D01*
X97655471Y-97446629D01*
X97932314Y-97723955D01*
X98294212Y-97874228D01*
X98686069Y-97874570D01*
X98870409Y-97798403D01*
X98897514Y-97825555D01*
X99259412Y-97975828D01*
X99445897Y-97975991D01*
X99281488Y-98140400D01*
X93614200Y-98140400D01*
X93218123Y-98219185D01*
X92882344Y-98443544D01*
X92657985Y-98779323D01*
X92579200Y-99175400D01*
X92657985Y-99571477D01*
X92882344Y-99907256D01*
X93218123Y-100131615D01*
X93614200Y-100210400D01*
X99710195Y-100210400D01*
X99710200Y-100210401D01*
X100106277Y-100131615D01*
X100442056Y-99907256D01*
X102123200Y-98226112D01*
X102127944Y-98230856D01*
X102463723Y-98455215D01*
X102859800Y-98534001D01*
X102859805Y-98534000D01*
X104881600Y-98534000D01*
X104881600Y-98614160D01*
X104865000Y-98614160D01*
X104629683Y-98658438D01*
X104413559Y-98797510D01*
X104268569Y-99009710D01*
X104217560Y-99261600D01*
X104217560Y-100511600D01*
X104261838Y-100746917D01*
X104400910Y-100963041D01*
X104613110Y-101108031D01*
X104865000Y-101159040D01*
X105865000Y-101159040D01*
X106100317Y-101114762D01*
X106316441Y-100975690D01*
X106362969Y-100907594D01*
X106505302Y-101049927D01*
X106738691Y-101146600D01*
X107079250Y-101146600D01*
X107238000Y-100987850D01*
X107238000Y-100013600D01*
X107218000Y-100013600D01*
X107218000Y-99759600D01*
X107238000Y-99759600D01*
X107238000Y-98785350D01*
X107079250Y-98626600D01*
X106738691Y-98626600D01*
X106551600Y-98704096D01*
X106551600Y-98451552D01*
X106690291Y-98509000D01*
X106930850Y-98509000D01*
X107089600Y-98350250D01*
X107089600Y-97626000D01*
X107069600Y-97626000D01*
X107069600Y-97372000D01*
X107089600Y-97372000D01*
X107089600Y-96647750D01*
X106930850Y-96489000D01*
X106690291Y-96489000D01*
X106456902Y-96585673D01*
X106455532Y-96587043D01*
X106368490Y-96527569D01*
X106116600Y-96476560D01*
X105779743Y-96476560D01*
X105716600Y-96464000D01*
X103288512Y-96464000D01*
X102986800Y-96162289D01*
X102986800Y-92722440D01*
X103951800Y-92722440D01*
X104187117Y-92678162D01*
X104211205Y-92662662D01*
X104325490Y-92710000D01*
X104666050Y-92710000D01*
X104824800Y-92551250D01*
X104824800Y-91202000D01*
X104804800Y-91202000D01*
X104804800Y-90948000D01*
X104824800Y-90948000D01*
X104824800Y-89598750D01*
X104666050Y-89440000D01*
X104325490Y-89440000D01*
X104214517Y-89485967D01*
X104203690Y-89478569D01*
X103951800Y-89427560D01*
X102951800Y-89427560D01*
X102716483Y-89471838D01*
X102704821Y-89479342D01*
X102703690Y-89478569D01*
X102451800Y-89427560D01*
X101451800Y-89427560D01*
X101216483Y-89471838D01*
X101000359Y-89610910D01*
X100855369Y-89823110D01*
X100804360Y-90075000D01*
X100804360Y-92075000D01*
X100848638Y-92310317D01*
X100916800Y-92416244D01*
X100916800Y-96505089D01*
X100441209Y-96980680D01*
X100441370Y-96795931D01*
X100291729Y-96433771D01*
X100216200Y-96358110D01*
X100216200Y-95263800D01*
X100158348Y-94972961D01*
X99993601Y-94726399D01*
X94110001Y-88842799D01*
X93863439Y-88678052D01*
X93572600Y-88620200D01*
X89360031Y-88620200D01*
X89298600Y-88607760D01*
X88298600Y-88607760D01*
X88063283Y-88652038D01*
X87847159Y-88791110D01*
X87702169Y-89003310D01*
X87651160Y-89255200D01*
X87651160Y-89505200D01*
X87675544Y-89634789D01*
X87651160Y-89755200D01*
X87651160Y-90005200D01*
X87675544Y-90134789D01*
X87651160Y-90255200D01*
X87651160Y-90505200D01*
X87653820Y-90519337D01*
X87410188Y-90418172D01*
X87108600Y-90417909D01*
X87108600Y-88552238D01*
X87208917Y-88533362D01*
X87425041Y-88394290D01*
X87570031Y-88182090D01*
X87621040Y-87930200D01*
X87621040Y-86930200D01*
X87576762Y-86694883D01*
X87437690Y-86478759D01*
X87225490Y-86333769D01*
X86973600Y-86282760D01*
X86723600Y-86282760D01*
X86594011Y-86307144D01*
X86473600Y-86282760D01*
X86223600Y-86282760D01*
X86117895Y-86302650D01*
X86099910Y-86295200D01*
X86069850Y-86295200D01*
X86049538Y-86315512D01*
X85988283Y-86327038D01*
X85847873Y-86417390D01*
X85725490Y-86333769D01*
X85650792Y-86318642D01*
X85627350Y-86295200D01*
X85597290Y-86295200D01*
X85576847Y-86303668D01*
X85473600Y-86282760D01*
X85223600Y-86282760D01*
X85094011Y-86307144D01*
X84973600Y-86282760D01*
X84723600Y-86282760D01*
X84594011Y-86307144D01*
X84473600Y-86282760D01*
X84223600Y-86282760D01*
X84108600Y-86304399D01*
X84108600Y-80223000D01*
X84050748Y-79932161D01*
X83886001Y-79685599D01*
X82153278Y-77952876D01*
X82153370Y-77847531D01*
X82003729Y-77485371D01*
X81726886Y-77208045D01*
X81364988Y-77057772D01*
X80973131Y-77057430D01*
X80610971Y-77207071D01*
X80333645Y-77483914D01*
X80183372Y-77845812D01*
X80183142Y-78109335D01*
X80153771Y-78121471D01*
X79876445Y-78398314D01*
X79726172Y-78760212D01*
X79725830Y-79152069D01*
X79875471Y-79514229D01*
X80152314Y-79791555D01*
X80514212Y-79941828D01*
X80621119Y-79941921D01*
X81154763Y-80475565D01*
X81149800Y-80474560D01*
X80812947Y-80474560D01*
X80749800Y-80461999D01*
X80686653Y-80474560D01*
X80349800Y-80474560D01*
X80114483Y-80518838D01*
X80011154Y-80585329D01*
X80009498Y-80583673D01*
X79776109Y-80487000D01*
X79535550Y-80487000D01*
X79376800Y-80645750D01*
X79376800Y-81370000D01*
X79396800Y-81370000D01*
X79396800Y-81624000D01*
X79376800Y-81624000D01*
X79376800Y-82348250D01*
X79535550Y-82507000D01*
X79569832Y-82507000D01*
X79515369Y-82586710D01*
X79464360Y-82838600D01*
X79464360Y-82888038D01*
X78894076Y-83458322D01*
X78788731Y-83458230D01*
X78723491Y-83485186D01*
X78723491Y-82507000D01*
X78964050Y-82507000D01*
X79122800Y-82348250D01*
X79122800Y-81624000D01*
X78373550Y-81624000D01*
X78373550Y-81370000D01*
X79122800Y-81370000D01*
X79122800Y-80645750D01*
X78964050Y-80487000D01*
X78723491Y-80487000D01*
X78490102Y-80583673D01*
X78311473Y-80762301D01*
X78214800Y-80995690D01*
X78214800Y-81211250D01*
X78373550Y-81370000D01*
X78373550Y-81624000D01*
X78214800Y-81782750D01*
X78214800Y-81998310D01*
X78311473Y-82231699D01*
X78490102Y-82410327D01*
X78723491Y-82507000D01*
X78723491Y-83485186D01*
X78426571Y-83607871D01*
X78149245Y-83884714D01*
X77998972Y-84246612D01*
X77998630Y-84638469D01*
X78148271Y-85000629D01*
X78425114Y-85277955D01*
X78787012Y-85428228D01*
X79178869Y-85428570D01*
X79464360Y-85310608D01*
X79464360Y-85438600D01*
X79508638Y-85673917D01*
X79647710Y-85890041D01*
X79859910Y-86035031D01*
X80111800Y-86086040D01*
X80567638Y-86086040D01*
X80764358Y-86282760D01*
X80723600Y-86282760D01*
X80594011Y-86307144D01*
X80473600Y-86282760D01*
X80223600Y-86282760D01*
X80094011Y-86307144D01*
X79973600Y-86282760D01*
X79723600Y-86282760D01*
X79594011Y-86307144D01*
X79473600Y-86282760D01*
X79223600Y-86282760D01*
X78988283Y-86327038D01*
X78772159Y-86466110D01*
X78627169Y-86678310D01*
X78576160Y-86930200D01*
X78576160Y-87930200D01*
X78588600Y-87996313D01*
X78588600Y-89685000D01*
X78646452Y-89975839D01*
X78811199Y-90222401D01*
X78963922Y-90375124D01*
X78963830Y-90480469D01*
X79113471Y-90842629D01*
X79390314Y-91119955D01*
X79587988Y-91202036D01*
X79522972Y-91358612D01*
X79522630Y-91750469D01*
X79672271Y-92112629D01*
X79949114Y-92389955D01*
X80311012Y-92540228D01*
X80702869Y-92540570D01*
X81065029Y-92390929D01*
X81088600Y-92367399D01*
X81088600Y-93455000D01*
X81146452Y-93745840D01*
X81188445Y-93808687D01*
X78546040Y-96451092D01*
X78546040Y-96255200D01*
X78521656Y-96125611D01*
X78546040Y-96005200D01*
X78546040Y-95755200D01*
X78521656Y-95625611D01*
X78546040Y-95505200D01*
X78546040Y-95255200D01*
X78521656Y-95125611D01*
X78546040Y-95005200D01*
X78546040Y-94755200D01*
X78526150Y-94649495D01*
X78533600Y-94631510D01*
X78533600Y-94601450D01*
X78513288Y-94581138D01*
X78501762Y-94519883D01*
X78411410Y-94379473D01*
X78495031Y-94257090D01*
X78510158Y-94182392D01*
X78533600Y-94158950D01*
X78533600Y-94128890D01*
X78525132Y-94108447D01*
X78546040Y-94005200D01*
X78546040Y-93755200D01*
X78521656Y-93625611D01*
X78546040Y-93505200D01*
X78546040Y-93255200D01*
X78521656Y-93125611D01*
X78546040Y-93005200D01*
X78546040Y-92755200D01*
X78521656Y-92625611D01*
X78546040Y-92505200D01*
X78546040Y-92255200D01*
X78521656Y-92125611D01*
X78546040Y-92005200D01*
X78546040Y-91755200D01*
X78521656Y-91625611D01*
X78546040Y-91505200D01*
X78546040Y-91255200D01*
X78521656Y-91125611D01*
X78546040Y-91005200D01*
X78546040Y-90755200D01*
X78521656Y-90625611D01*
X78546040Y-90505200D01*
X78546040Y-90255200D01*
X78521656Y-90125611D01*
X78546040Y-90005200D01*
X78546040Y-89755200D01*
X78521656Y-89625611D01*
X78546040Y-89505200D01*
X78546040Y-89255200D01*
X78501762Y-89019883D01*
X78362690Y-88803759D01*
X78150490Y-88658769D01*
X77898600Y-88607760D01*
X76907762Y-88607760D01*
X75019400Y-86719398D01*
X75019400Y-85967400D01*
X74961548Y-85676561D01*
X74796801Y-85429999D01*
X69948981Y-80582179D01*
X70049945Y-80074600D01*
X69935871Y-79501111D01*
X69611015Y-79014930D01*
X69596687Y-79005357D01*
X69617917Y-79001362D01*
X69834041Y-78862290D01*
X69979031Y-78650090D01*
X69995331Y-78569600D01*
X70996195Y-78569600D01*
X70996200Y-78569601D01*
X71392277Y-78490815D01*
X71728056Y-78266456D01*
X72452911Y-77541600D01*
X75827395Y-77541600D01*
X75827400Y-77541601D01*
X76223477Y-77462815D01*
X76559256Y-77238456D01*
X78339400Y-75458312D01*
X78455144Y-75574056D01*
X78790923Y-75798415D01*
X79187000Y-75877201D01*
X79187005Y-75877200D01*
X82403935Y-75877200D01*
X82444638Y-76093517D01*
X82583710Y-76309641D01*
X82795910Y-76454631D01*
X83047800Y-76505640D01*
X84775000Y-76505640D01*
X85010317Y-76461362D01*
X85226441Y-76322290D01*
X85371431Y-76110090D01*
X85379800Y-76068761D01*
X85391730Y-76086615D01*
X85877911Y-76411471D01*
X86451400Y-76525545D01*
X87024889Y-76411471D01*
X87511070Y-76086615D01*
X87721400Y-75771834D01*
X87931730Y-76086615D01*
X88417911Y-76411471D01*
X88991400Y-76525545D01*
X89564889Y-76411471D01*
X90051070Y-76086615D01*
X90261400Y-75771834D01*
X90471730Y-76086615D01*
X90957911Y-76411471D01*
X91531400Y-76525545D01*
X92104889Y-76411471D01*
X92591070Y-76086615D01*
X92801400Y-75771834D01*
X93011730Y-76086615D01*
X93497911Y-76411471D01*
X94071400Y-76525545D01*
X94644889Y-76411471D01*
X95131070Y-76086615D01*
X95337861Y-75777131D01*
X95709364Y-76192932D01*
X96236609Y-76446909D01*
X96252374Y-76449558D01*
X96484400Y-76328417D01*
X96484400Y-74969200D01*
X96464400Y-74969200D01*
X96464400Y-74715200D01*
X96484400Y-74715200D01*
X96484400Y-73355983D01*
X96252374Y-73234842D01*
X96236609Y-73237491D01*
X95709364Y-73491468D01*
X95337861Y-73907269D01*
X95131070Y-73597785D01*
X94644889Y-73272929D01*
X94071400Y-73158855D01*
X93497911Y-73272929D01*
X93011730Y-73597785D01*
X92801400Y-73912566D01*
X92591070Y-73597785D01*
X92104889Y-73272929D01*
X91531400Y-73158855D01*
X90957911Y-73272929D01*
X90471730Y-73597785D01*
X90261400Y-73912566D01*
X90139187Y-73729662D01*
X90139187Y-70273048D01*
X90666800Y-70055043D01*
X91070824Y-69651723D01*
X91124862Y-69521585D01*
X91177757Y-69649600D01*
X91581077Y-70053624D01*
X92108309Y-70272550D01*
X92679187Y-70273048D01*
X93206800Y-70055043D01*
X93610824Y-69651723D01*
X93664862Y-69521585D01*
X93717757Y-69649600D01*
X94121077Y-70053624D01*
X94648309Y-70272550D01*
X95219187Y-70273048D01*
X95746800Y-70055043D01*
X96150824Y-69651723D01*
X96204862Y-69521585D01*
X96257757Y-69649600D01*
X96661077Y-70053624D01*
X97188309Y-70272550D01*
X97759187Y-70273048D01*
X98286800Y-70055043D01*
X98690824Y-69651723D01*
X98909750Y-69124491D01*
X98910248Y-68553613D01*
X98692243Y-68026000D01*
X98288923Y-67621976D01*
X97761691Y-67403050D01*
X97190813Y-67402552D01*
X96663200Y-67620557D01*
X96259176Y-68023877D01*
X96205138Y-68154015D01*
X96152243Y-68026000D01*
X95748923Y-67621976D01*
X95221691Y-67403050D01*
X94650813Y-67402552D01*
X94123200Y-67620557D01*
X93719176Y-68023877D01*
X93665138Y-68154015D01*
X93612243Y-68026000D01*
X93208923Y-67621976D01*
X92681691Y-67403050D01*
X92110813Y-67402552D01*
X91583200Y-67620557D01*
X91179176Y-68023877D01*
X91125138Y-68154015D01*
X91072243Y-68026000D01*
X90668923Y-67621976D01*
X90141691Y-67403050D01*
X90139187Y-67403048D01*
X90139187Y-62673048D01*
X90666800Y-62455043D01*
X91070824Y-62051723D01*
X91124862Y-61921585D01*
X91177757Y-62049600D01*
X91581077Y-62453624D01*
X92108309Y-62672550D01*
X92679187Y-62673048D01*
X93206800Y-62455043D01*
X93610824Y-62051723D01*
X93664862Y-61921585D01*
X93717757Y-62049600D01*
X94121077Y-62453624D01*
X94648309Y-62672550D01*
X95219187Y-62673048D01*
X95746800Y-62455043D01*
X96150824Y-62051723D01*
X96204862Y-61921585D01*
X96257757Y-62049600D01*
X96661077Y-62453624D01*
X97188309Y-62672550D01*
X97759187Y-62673048D01*
X98286800Y-62455043D01*
X98690824Y-62051723D01*
X98909750Y-61524491D01*
X98910248Y-60953613D01*
X98692243Y-60426000D01*
X98336600Y-60069736D01*
X98336600Y-59125305D01*
X98478041Y-59034290D01*
X98623031Y-58822090D01*
X98674040Y-58570200D01*
X98674040Y-58070200D01*
X98629762Y-57834883D01*
X98490690Y-57618759D01*
X98420889Y-57571066D01*
X98478041Y-57534290D01*
X98623031Y-57322090D01*
X98674040Y-57070200D01*
X98674040Y-56570200D01*
X98629762Y-56334883D01*
X98490690Y-56118759D01*
X98278490Y-55973769D01*
X98026600Y-55922760D01*
X97126600Y-55922760D01*
X96891283Y-55967038D01*
X96746505Y-56060200D01*
X95610986Y-56060200D01*
X95484490Y-55973769D01*
X95232600Y-55922760D01*
X94332600Y-55922760D01*
X94097283Y-55967038D01*
X93952505Y-56060200D01*
X93219054Y-56060200D01*
X93219054Y-53542943D01*
X94371715Y-53066673D01*
X95254374Y-52185553D01*
X95732654Y-51033726D01*
X95733743Y-49786546D01*
X95257473Y-48633885D01*
X94376353Y-47751226D01*
X93224526Y-47272946D01*
X91977346Y-47271857D01*
X90824685Y-47748127D01*
X89942026Y-48629247D01*
X89463746Y-49781074D01*
X89462657Y-51028254D01*
X89938927Y-52180915D01*
X90820047Y-53063574D01*
X91971874Y-53541854D01*
X93219054Y-53542943D01*
X93219054Y-56060200D01*
X93070986Y-56060200D01*
X92944490Y-55973769D01*
X92692600Y-55922760D01*
X91792600Y-55922760D01*
X91557283Y-55967038D01*
X91341159Y-56106110D01*
X91268398Y-56212600D01*
X90429386Y-56212600D01*
X90302890Y-56126169D01*
X90051000Y-56075160D01*
X89778362Y-56075160D01*
X84233601Y-50530399D01*
X83987040Y-50365652D01*
X83696200Y-50307800D01*
X78039930Y-50307800D01*
X78039930Y-50167370D01*
X77995652Y-49932053D01*
X77856580Y-49715929D01*
X77644380Y-49570939D01*
X77392490Y-49519930D01*
X76120592Y-49519930D01*
X74032261Y-47431599D01*
X73785699Y-47266852D01*
X73494860Y-47209000D01*
X72708111Y-47209000D01*
X72633686Y-47134445D01*
X72271788Y-46984172D01*
X71879931Y-46983830D01*
X71517771Y-47133471D01*
X71240445Y-47410314D01*
X71090172Y-47772212D01*
X71089830Y-48164069D01*
X71239471Y-48526229D01*
X71516314Y-48803555D01*
X71878212Y-48953828D01*
X72270069Y-48954170D01*
X72632229Y-48804529D01*
X72707890Y-48729000D01*
X73180058Y-48729000D01*
X73970988Y-49519930D01*
X72955110Y-49519930D01*
X72719793Y-49564208D01*
X72503669Y-49703280D01*
X72427298Y-49815052D01*
X72206600Y-49770360D01*
X71506600Y-49770360D01*
X71271283Y-49814638D01*
X71055159Y-49953710D01*
X70910169Y-50165910D01*
X70907519Y-50178997D01*
X70770690Y-49966359D01*
X70558490Y-49821369D01*
X70306600Y-49770360D01*
X69606600Y-49770360D01*
X69371283Y-49814638D01*
X69155159Y-49953710D01*
X69010169Y-50165910D01*
X68959160Y-50417800D01*
X68959160Y-51717800D01*
X69003438Y-51953117D01*
X69142510Y-52169241D01*
X69354710Y-52314231D01*
X69547440Y-52353260D01*
X69547440Y-54554700D01*
X69507440Y-54546600D01*
X68707440Y-54546600D01*
X68500098Y-54585614D01*
X68307440Y-54546600D01*
X67507440Y-54546600D01*
X67300098Y-54585614D01*
X67107440Y-54546600D01*
X66307440Y-54546600D01*
X66072123Y-54590878D01*
X65855999Y-54729950D01*
X65711009Y-54942150D01*
X65660000Y-55194040D01*
X65660000Y-56494040D01*
X65704278Y-56729357D01*
X65843350Y-56945481D01*
X66055550Y-57090471D01*
X66307440Y-57141480D01*
X67107440Y-57141480D01*
X67314782Y-57102466D01*
X67507440Y-57141480D01*
X68307440Y-57141480D01*
X68347440Y-57133953D01*
X68347440Y-57498240D01*
X68395694Y-57740826D01*
X68405292Y-57789080D01*
X68570039Y-58035641D01*
X69302399Y-58768001D01*
X69548961Y-58932748D01*
X69839800Y-58990600D01*
X75353489Y-58990600D01*
X75427914Y-59065155D01*
X75789812Y-59215428D01*
X76181669Y-59215770D01*
X76543829Y-59066129D01*
X76821155Y-58789286D01*
X76971428Y-58427388D01*
X76971770Y-58035531D01*
X76822129Y-57673371D01*
X76545286Y-57396045D01*
X76183388Y-57245772D01*
X75791531Y-57245430D01*
X75429371Y-57395071D01*
X75353710Y-57470600D01*
X72497535Y-57470600D01*
X72501028Y-57462188D01*
X72501308Y-57141480D01*
X73107440Y-57141480D01*
X73314782Y-57102466D01*
X73507440Y-57141480D01*
X74307440Y-57141480D01*
X74514782Y-57102466D01*
X74707440Y-57141480D01*
X75507440Y-57141480D01*
X75714782Y-57102466D01*
X75907440Y-57141480D01*
X76707440Y-57141480D01*
X76916290Y-57102182D01*
X76981130Y-57129040D01*
X77221690Y-57129040D01*
X77380440Y-56970290D01*
X77380440Y-55971040D01*
X77360440Y-55971040D01*
X77360440Y-55717040D01*
X77380440Y-55717040D01*
X77380440Y-54717790D01*
X77221690Y-54559040D01*
X76981130Y-54559040D01*
X76911433Y-54587910D01*
X76707440Y-54546600D01*
X75907440Y-54546600D01*
X75700098Y-54585614D01*
X75507440Y-54546600D01*
X74707440Y-54546600D01*
X74500098Y-54585614D01*
X74307440Y-54546600D01*
X73507440Y-54546600D01*
X73300098Y-54585614D01*
X73107440Y-54546600D01*
X72307440Y-54546600D01*
X72100098Y-54585614D01*
X71907440Y-54546600D01*
X71107440Y-54546600D01*
X71067440Y-54554127D01*
X71067440Y-52186275D01*
X71254710Y-52314231D01*
X71506600Y-52365240D01*
X72206600Y-52365240D01*
X72429059Y-52323381D01*
X72491020Y-52419671D01*
X72703220Y-52564661D01*
X72955110Y-52615670D01*
X74552770Y-52615670D01*
X74788087Y-52571392D01*
X75004211Y-52432320D01*
X75149201Y-52220120D01*
X75172830Y-52103434D01*
X75191668Y-52203547D01*
X75330740Y-52419671D01*
X75542940Y-52564661D01*
X75794830Y-52615670D01*
X77392490Y-52615670D01*
X77627807Y-52571392D01*
X77843931Y-52432320D01*
X77988921Y-52220120D01*
X78039930Y-51968230D01*
X78039930Y-51827800D01*
X83381398Y-51827800D01*
X88503560Y-56949962D01*
X88503560Y-57222600D01*
X88547838Y-57457917D01*
X88686910Y-57674041D01*
X88756711Y-57721734D01*
X88699559Y-57758510D01*
X88554569Y-57970710D01*
X88503560Y-58222600D01*
X88503560Y-58722600D01*
X88547838Y-58957917D01*
X88686910Y-59174041D01*
X88841000Y-59279326D01*
X88841000Y-60222405D01*
X88639176Y-60423877D01*
X88420250Y-60951109D01*
X88419752Y-61521987D01*
X88637757Y-62049600D01*
X89041077Y-62453624D01*
X89568309Y-62672550D01*
X90139187Y-62673048D01*
X90139187Y-67403048D01*
X89570813Y-67402552D01*
X89043200Y-67620557D01*
X88639176Y-68023877D01*
X88420250Y-68551109D01*
X88419752Y-69121987D01*
X88637757Y-69649600D01*
X89041077Y-70053624D01*
X89568309Y-70272550D01*
X90139187Y-70273048D01*
X90139187Y-73729662D01*
X90051070Y-73597785D01*
X89564889Y-73272929D01*
X88991400Y-73158855D01*
X88417911Y-73272929D01*
X87931730Y-73597785D01*
X87721400Y-73912566D01*
X87511070Y-73597785D01*
X87024889Y-73272929D01*
X86451400Y-73158855D01*
X85877911Y-73272929D01*
X85391730Y-73597785D01*
X85382157Y-73612113D01*
X85378162Y-73590883D01*
X85239090Y-73374759D01*
X85026890Y-73229769D01*
X84775000Y-73178760D01*
X83047800Y-73178760D01*
X82812483Y-73223038D01*
X82596359Y-73362110D01*
X82451369Y-73574310D01*
X82404208Y-73807200D01*
X82057440Y-73807200D01*
X82057440Y-67691480D01*
X83357440Y-67691480D01*
X83592757Y-67647202D01*
X83808881Y-67508130D01*
X83953871Y-67295930D01*
X84004880Y-67044040D01*
X84004880Y-66244040D01*
X83991459Y-66172716D01*
X83992440Y-66170349D01*
X83992440Y-65929790D01*
X83833690Y-65771040D01*
X83789977Y-65771040D01*
X83609330Y-65647609D01*
X83357440Y-65596600D01*
X82057440Y-65596600D01*
X81822123Y-65640878D01*
X81619846Y-65771040D01*
X81581190Y-65771040D01*
X81581190Y-65517040D01*
X82580440Y-65517040D01*
X82580440Y-65497040D01*
X82834440Y-65497040D01*
X82834440Y-65517040D01*
X83833690Y-65517040D01*
X83992440Y-65358290D01*
X83992440Y-65117731D01*
X83946473Y-65006757D01*
X83953871Y-64995930D01*
X84004880Y-64744040D01*
X84004880Y-63944040D01*
X83965866Y-63736698D01*
X84004880Y-63544040D01*
X84004880Y-62744040D01*
X83965866Y-62536698D01*
X84004880Y-62344040D01*
X84004880Y-61544040D01*
X83965866Y-61336698D01*
X84004880Y-61144040D01*
X84004880Y-60344040D01*
X83960602Y-60108723D01*
X83945101Y-60084634D01*
X83992440Y-59970349D01*
X83992440Y-59729790D01*
X83833690Y-59571040D01*
X82834440Y-59571040D01*
X82834440Y-59591040D01*
X82580440Y-59591040D01*
X82580440Y-59571040D01*
X82057440Y-59571040D01*
X82057440Y-59491480D01*
X83357440Y-59491480D01*
X83592757Y-59447202D01*
X83795034Y-59317040D01*
X83833690Y-59317040D01*
X83992440Y-59158290D01*
X83992440Y-58917731D01*
X83990772Y-58913705D01*
X84004880Y-58844040D01*
X84004880Y-58044040D01*
X83960602Y-57808723D01*
X83821530Y-57592599D01*
X83609330Y-57447609D01*
X83357440Y-57396600D01*
X82057440Y-57396600D01*
X81822123Y-57440878D01*
X81605999Y-57579950D01*
X81461009Y-57792150D01*
X81410000Y-58044040D01*
X81410000Y-58844040D01*
X81423421Y-58915364D01*
X81422440Y-58917731D01*
X81422440Y-59158290D01*
X81581190Y-59317040D01*
X81624903Y-59317040D01*
X81805550Y-59440471D01*
X82057440Y-59491480D01*
X82057440Y-59571040D01*
X81581190Y-59571040D01*
X81422440Y-59729790D01*
X81422440Y-59970349D01*
X81468407Y-60081323D01*
X81461009Y-60092150D01*
X81410000Y-60344040D01*
X81410000Y-61144040D01*
X81449014Y-61351382D01*
X81410000Y-61544040D01*
X81410000Y-62344040D01*
X81449014Y-62551382D01*
X81410000Y-62744040D01*
X81410000Y-63544040D01*
X81449014Y-63751382D01*
X81410000Y-63944040D01*
X81410000Y-64744040D01*
X81454278Y-64979357D01*
X81469779Y-65003446D01*
X81422440Y-65117731D01*
X81422440Y-65358290D01*
X81581190Y-65517040D01*
X81581190Y-65771040D01*
X81422440Y-65929790D01*
X81422440Y-66170349D01*
X81424108Y-66174375D01*
X81410000Y-66244040D01*
X81410000Y-67044040D01*
X81454278Y-67279357D01*
X81593350Y-67495481D01*
X81805550Y-67640471D01*
X82057440Y-67691480D01*
X82057440Y-73807200D01*
X80625150Y-73807200D01*
X80625150Y-72952600D01*
X80965709Y-72952600D01*
X81199098Y-72855927D01*
X81377727Y-72677299D01*
X81474400Y-72443910D01*
X81474400Y-71978350D01*
X81315650Y-71819600D01*
X80466400Y-71819600D01*
X80466400Y-72793850D01*
X80625150Y-72952600D01*
X80625150Y-73807200D01*
X79615712Y-73807200D01*
X79374400Y-73565889D01*
X79374400Y-72750626D01*
X79479702Y-72855927D01*
X79713091Y-72952600D01*
X80053650Y-72952600D01*
X80212400Y-72793850D01*
X80212400Y-71819600D01*
X80192400Y-71819600D01*
X80192400Y-71565600D01*
X80212400Y-71565600D01*
X80212400Y-71545600D01*
X80466400Y-71545600D01*
X80466400Y-71565600D01*
X81315650Y-71565600D01*
X81474400Y-71406850D01*
X81474400Y-70941290D01*
X81377727Y-70707901D01*
X81199098Y-70529273D01*
X80965709Y-70432600D01*
X80666576Y-70432600D01*
X80667139Y-70432367D01*
X80845767Y-70253738D01*
X80942440Y-70020349D01*
X80942440Y-69529790D01*
X80783690Y-69371040D01*
X80034440Y-69371040D01*
X80034440Y-69117040D01*
X80783690Y-69117040D01*
X80942440Y-68958290D01*
X80942440Y-68467731D01*
X80845767Y-68234342D01*
X80667139Y-68055713D01*
X80433750Y-67959040D01*
X80193190Y-67959040D01*
X80034440Y-68117790D01*
X80034440Y-69117040D01*
X80034440Y-69371040D01*
X80034440Y-69391040D01*
X79780440Y-69391040D01*
X79780440Y-69371040D01*
X79760440Y-69371040D01*
X79760440Y-69117040D01*
X79780440Y-69117040D01*
X79780440Y-68117790D01*
X79621690Y-67959040D01*
X79467440Y-67959040D01*
X79467440Y-64202640D01*
X79409588Y-63911801D01*
X79244841Y-63665239D01*
X78874069Y-63294467D01*
X78874069Y-62466970D01*
X79236229Y-62317329D01*
X79513555Y-62040486D01*
X79580695Y-61878796D01*
X79650612Y-61907828D01*
X80042469Y-61908170D01*
X80404629Y-61758529D01*
X80681955Y-61481686D01*
X80832228Y-61119788D01*
X80832570Y-60727931D01*
X80682929Y-60365771D01*
X80667440Y-60350255D01*
X80667440Y-57016971D01*
X80758881Y-56958130D01*
X80903871Y-56745930D01*
X80954880Y-56494040D01*
X80954880Y-55194040D01*
X80910602Y-54958723D01*
X80771530Y-54742599D01*
X80559330Y-54597609D01*
X80307440Y-54546600D01*
X79507440Y-54546600D01*
X79300098Y-54585614D01*
X79107440Y-54546600D01*
X78307440Y-54546600D01*
X78098590Y-54585898D01*
X78033750Y-54559040D01*
X77793190Y-54559040D01*
X77634440Y-54717790D01*
X77634440Y-55717040D01*
X77654440Y-55717040D01*
X77654440Y-55971040D01*
X77634440Y-55971040D01*
X77634440Y-56970290D01*
X77793190Y-57129040D01*
X77947440Y-57129040D01*
X77947440Y-60820298D01*
X77844445Y-60923114D01*
X77694172Y-61285012D01*
X77693830Y-61676869D01*
X77843471Y-62039029D01*
X78120314Y-62316355D01*
X78482212Y-62466628D01*
X78874069Y-62466970D01*
X78874069Y-63294467D01*
X76574801Y-60995199D01*
X76328239Y-60830452D01*
X76037400Y-60772600D01*
X71424602Y-60772600D01*
X70672478Y-60020476D01*
X70672570Y-59915131D01*
X70522929Y-59552971D01*
X70246086Y-59275645D01*
X69884188Y-59125372D01*
X69492331Y-59125030D01*
X69130171Y-59274671D01*
X68852845Y-59551514D01*
X68702572Y-59913412D01*
X68702230Y-60305269D01*
X68851871Y-60667429D01*
X69128714Y-60944755D01*
X69490612Y-61095028D01*
X69597519Y-61095121D01*
X70572399Y-62070001D01*
X70818961Y-62234748D01*
X71109800Y-62292600D01*
X75722598Y-62292600D01*
X77947440Y-64517442D01*
X77947440Y-67954700D01*
X77907440Y-67946600D01*
X77107440Y-67946600D01*
X76900098Y-67985614D01*
X76707440Y-67946600D01*
X75907440Y-67946600D01*
X75700098Y-67985614D01*
X75507440Y-67946600D01*
X74707440Y-67946600D01*
X74500098Y-67985614D01*
X74307440Y-67946600D01*
X73507440Y-67946600D01*
X73300098Y-67985614D01*
X73107440Y-67946600D01*
X72307440Y-67946600D01*
X72100098Y-67985614D01*
X71907440Y-67946600D01*
X71107440Y-67946600D01*
X70955400Y-67975208D01*
X70955400Y-67398111D01*
X71029955Y-67323686D01*
X71180228Y-66961788D01*
X71180570Y-66569931D01*
X71030929Y-66207771D01*
X70754086Y-65930445D01*
X70392188Y-65780172D01*
X70000331Y-65779830D01*
X69888600Y-65825996D01*
X69888600Y-64604111D01*
X69963155Y-64529686D01*
X70113428Y-64167788D01*
X70113770Y-63775931D01*
X69964129Y-63413771D01*
X69687286Y-63136445D01*
X69325388Y-62986172D01*
X68933531Y-62985830D01*
X68571371Y-63135471D01*
X68294045Y-63412314D01*
X68143772Y-63774212D01*
X68143430Y-64166069D01*
X68293071Y-64528229D01*
X68368600Y-64603890D01*
X68368600Y-67958985D01*
X68307440Y-67946600D01*
X67507440Y-67946600D01*
X67298590Y-67985898D01*
X67233750Y-67959040D01*
X66993190Y-67959040D01*
X66834440Y-68117790D01*
X66834440Y-69117040D01*
X66854440Y-69117040D01*
X66854440Y-69371040D01*
X66834440Y-69371040D01*
X66834440Y-70370290D01*
X66993190Y-70529040D01*
X67233750Y-70529040D01*
X67303447Y-70500170D01*
X67507440Y-70541480D01*
X68307440Y-70541480D01*
X68514782Y-70502466D01*
X68707440Y-70541480D01*
X69507440Y-70541480D01*
X69714782Y-70502466D01*
X69907440Y-70541480D01*
X70707440Y-70541480D01*
X70747440Y-70533953D01*
X70747440Y-74489840D01*
X70805292Y-74780679D01*
X70926760Y-74962469D01*
X70926760Y-75256600D01*
X70971038Y-75491917D01*
X71110110Y-75708041D01*
X71179911Y-75755734D01*
X71122759Y-75792510D01*
X70977769Y-76004710D01*
X70956284Y-76110804D01*
X70567488Y-76499600D01*
X69997789Y-76499600D01*
X69985762Y-76435683D01*
X69846690Y-76219559D01*
X69634490Y-76074569D01*
X69382600Y-76023560D01*
X67350600Y-76023560D01*
X67115283Y-76067838D01*
X66899159Y-76206910D01*
X66754169Y-76419110D01*
X66727077Y-76552893D01*
X66598923Y-76578385D01*
X66421690Y-76696808D01*
X66263144Y-76802744D01*
X66263142Y-76802747D01*
X66181130Y-76884758D01*
X66181130Y-70529040D01*
X66421690Y-70529040D01*
X66580440Y-70370290D01*
X66580440Y-69371040D01*
X65831190Y-69371040D01*
X65831190Y-69117040D01*
X66580440Y-69117040D01*
X66580440Y-68117790D01*
X66421690Y-67959040D01*
X66181130Y-67959040D01*
X65947741Y-68055713D01*
X65769113Y-68234342D01*
X65672440Y-68467731D01*
X65672440Y-68958290D01*
X65831190Y-69117040D01*
X65831190Y-69371040D01*
X65672440Y-69529790D01*
X65672440Y-70020349D01*
X65769113Y-70253738D01*
X65947741Y-70432367D01*
X66181130Y-70529040D01*
X66181130Y-76884758D01*
X64332744Y-78733144D01*
X64108385Y-79068923D01*
X64029599Y-79465000D01*
X64029600Y-79465005D01*
X64029600Y-104356995D01*
X64029599Y-104357000D01*
X64108385Y-104753077D01*
X64332744Y-105088856D01*
X64332747Y-105088858D01*
X66567944Y-107324056D01*
X66903723Y-107548415D01*
X67299800Y-107627201D01*
X67299805Y-107627200D01*
X74656243Y-107627200D01*
X74682910Y-107668641D01*
X74812000Y-107756844D01*
X74812000Y-108449000D01*
X74875560Y-108768540D01*
X75056566Y-109039434D01*
X75434692Y-109417560D01*
X75357600Y-109417560D01*
X75122283Y-109461838D01*
X74906159Y-109600910D01*
X74761169Y-109813110D01*
X74710160Y-110065000D01*
X74710160Y-110865000D01*
X74754438Y-111100317D01*
X74820929Y-111203646D01*
X74819273Y-111205302D01*
X74722600Y-111438691D01*
X74722600Y-111679250D01*
X74881350Y-111838000D01*
X75605600Y-111838000D01*
X75605600Y-111818000D01*
X75859600Y-111818000D01*
X75859600Y-111838000D01*
X76583850Y-111838000D01*
X76742600Y-111679250D01*
X76742600Y-111438691D01*
X76645927Y-111205302D01*
X76644557Y-111203932D01*
X76704031Y-111116890D01*
X76755040Y-110865000D01*
X76755040Y-110623428D01*
X77022385Y-110356083D01*
X77166032Y-110454233D01*
X77003359Y-110558910D01*
X76858369Y-110771110D01*
X76807360Y-111023000D01*
X76807360Y-112083000D01*
X76851638Y-112318317D01*
X76944800Y-112463095D01*
X76944800Y-113210794D01*
X76933709Y-113206200D01*
X76593150Y-113206200D01*
X76434400Y-113364950D01*
X76434400Y-114339200D01*
X76454400Y-114339200D01*
X76454400Y-114593200D01*
X76434400Y-114593200D01*
X76434400Y-115567450D01*
X76593150Y-115726200D01*
X76933709Y-115726200D01*
X77167098Y-115629527D01*
X77308336Y-115488290D01*
X77343310Y-115542641D01*
X77555510Y-115687631D01*
X77807400Y-115738640D01*
X78098000Y-115738640D01*
X78098000Y-115977843D01*
X78034131Y-115955771D01*
X77860000Y-116104437D01*
X77860000Y-116930000D01*
X77880000Y-116930000D01*
X77880000Y-117184000D01*
X77860000Y-117184000D01*
X77860000Y-118009563D01*
X78034131Y-118158229D01*
X78212926Y-118096440D01*
X78268910Y-118183441D01*
X78481110Y-118328431D01*
X78733000Y-118379440D01*
X79133000Y-118379440D01*
X79262589Y-118355056D01*
X79383000Y-118379440D01*
X79783000Y-118379440D01*
X79912589Y-118355056D01*
X80033000Y-118379440D01*
X80433000Y-118379440D01*
X80562589Y-118355056D01*
X80683000Y-118379440D01*
X81083000Y-118379440D01*
X81188705Y-118359550D01*
X81206690Y-118367000D01*
X81274250Y-118367000D01*
X81303254Y-118337996D01*
X81318317Y-118335162D01*
X81534441Y-118196090D01*
X81633000Y-118051844D01*
X81633000Y-118208250D01*
X81791750Y-118367000D01*
X81859310Y-118367000D01*
X82092699Y-118270327D01*
X82263115Y-118099910D01*
X82431869Y-118158229D01*
X82606000Y-118009563D01*
X82606000Y-117184000D01*
X82586000Y-117184000D01*
X82586000Y-116930000D01*
X82606000Y-116930000D01*
X82606000Y-116104437D01*
X82431869Y-115955771D01*
X82263115Y-116014090D01*
X82092699Y-115843673D01*
X81859310Y-115747000D01*
X81791750Y-115747000D01*
X81660002Y-115878748D01*
X81660002Y-115747000D01*
X81643000Y-115747000D01*
X81643000Y-115675802D01*
X85886001Y-111432801D01*
X86050748Y-111186239D01*
X86108600Y-110895400D01*
X86108600Y-103409800D01*
X86302869Y-103409970D01*
X86665029Y-103260329D01*
X86707400Y-103218032D01*
X86707400Y-104355400D01*
X86765252Y-104646239D01*
X86929999Y-104892801D01*
X89382757Y-107345559D01*
X89252969Y-107535510D01*
X89201960Y-107787400D01*
X89201960Y-108787400D01*
X89246238Y-109022717D01*
X89385310Y-109238841D01*
X89597510Y-109383831D01*
X89740200Y-109412726D01*
X89740200Y-109413843D01*
X89698759Y-109440510D01*
X89553769Y-109652710D01*
X89551119Y-109665797D01*
X89414290Y-109453159D01*
X89202090Y-109308169D01*
X88950200Y-109257160D01*
X88250200Y-109257160D01*
X88014883Y-109301438D01*
X87798759Y-109440510D01*
X87653769Y-109652710D01*
X87602760Y-109904600D01*
X87602760Y-110045416D01*
X87527185Y-110158523D01*
X87448400Y-110554600D01*
X87527185Y-110950677D01*
X87565200Y-111007571D01*
X87565200Y-114786195D01*
X87565199Y-114786200D01*
X87643985Y-115182277D01*
X87868344Y-115518056D01*
X87868347Y-115518058D01*
X91155144Y-118804856D01*
X91490923Y-119029215D01*
X91887000Y-119108001D01*
X91887005Y-119108000D01*
X94443535Y-119108000D01*
X94484238Y-119324317D01*
X94623310Y-119540441D01*
X94835510Y-119685431D01*
X94990351Y-119716787D01*
X94994785Y-119739077D01*
X95219144Y-120074856D01*
X95219147Y-120074858D01*
X96946344Y-121802056D01*
X97282123Y-122026415D01*
X97678200Y-122105201D01*
X97678200Y-122873600D01*
X84034874Y-122873600D01*
X84034874Y-121126119D01*
X84445763Y-120924368D01*
X84733002Y-120583678D01*
X84868000Y-120159000D01*
X84868000Y-119884000D01*
X83860000Y-119884000D01*
X83860000Y-119630000D01*
X84868000Y-119630000D01*
X84868000Y-119355000D01*
X84733002Y-118930322D01*
X84445763Y-118589632D01*
X84034874Y-118387881D01*
X83860000Y-118514046D01*
X83860000Y-119630000D01*
X83860000Y-119884000D01*
X83860000Y-120999954D01*
X84034874Y-121126119D01*
X84034874Y-122873600D01*
X83431126Y-122873600D01*
X83431126Y-121126119D01*
X83606000Y-120999954D01*
X83606000Y-119884000D01*
X82598000Y-119884000D01*
X82598000Y-119630000D01*
X83606000Y-119630000D01*
X83606000Y-118514046D01*
X83431126Y-118387881D01*
X83034131Y-118582809D01*
X83034131Y-118158229D01*
X83444049Y-118016568D01*
X83768552Y-117728821D01*
X83952268Y-117354938D01*
X83825734Y-117184000D01*
X82860000Y-117184000D01*
X82860000Y-116930000D01*
X83825734Y-116930000D01*
X83952268Y-116759062D01*
X83768552Y-116385179D01*
X83444049Y-116097432D01*
X83034131Y-115955771D01*
X82860000Y-116104437D01*
X82860000Y-116930000D01*
X82860000Y-117184000D01*
X82860000Y-118009563D01*
X83034131Y-118158229D01*
X83034131Y-118582809D01*
X83020237Y-118589632D01*
X82732998Y-118930322D01*
X82598000Y-119355000D01*
X82598000Y-119630000D01*
X82598000Y-119884000D01*
X82598000Y-120159000D01*
X82732998Y-120583678D01*
X83020237Y-120924368D01*
X83431126Y-121126119D01*
X83431126Y-122873600D01*
X77034874Y-122873600D01*
X77034874Y-121126119D01*
X77445763Y-120924368D01*
X77733002Y-120583678D01*
X77868000Y-120159000D01*
X77868000Y-119884000D01*
X76860000Y-119884000D01*
X76860000Y-119630000D01*
X77868000Y-119630000D01*
X77868000Y-119355000D01*
X77733002Y-118930322D01*
X77445763Y-118589632D01*
X77431869Y-118582810D01*
X77431869Y-118158229D01*
X77606000Y-118009563D01*
X77606000Y-117184000D01*
X76640266Y-117184000D01*
X76640266Y-116930000D01*
X77606000Y-116930000D01*
X77606000Y-116104437D01*
X77431869Y-115955771D01*
X77021951Y-116097432D01*
X76697448Y-116385179D01*
X76513732Y-116759062D01*
X76640266Y-116930000D01*
X76640266Y-117184000D01*
X76513732Y-117354938D01*
X76697448Y-117728821D01*
X77021951Y-118016568D01*
X77431869Y-118158229D01*
X77431869Y-118582810D01*
X77034874Y-118387881D01*
X76860000Y-118514046D01*
X76860000Y-119630000D01*
X76860000Y-119884000D01*
X76860000Y-120999954D01*
X77034874Y-121126119D01*
X77034874Y-122873600D01*
X76431126Y-122873600D01*
X76431126Y-121126119D01*
X76606000Y-120999954D01*
X76606000Y-119884000D01*
X75598000Y-119884000D01*
X75598000Y-119630000D01*
X76606000Y-119630000D01*
X76606000Y-118514046D01*
X76431126Y-118387881D01*
X76020237Y-118589632D01*
X75732998Y-118930322D01*
X75681091Y-119093611D01*
X75681091Y-115726200D01*
X76021650Y-115726200D01*
X76180400Y-115567450D01*
X76180400Y-114593200D01*
X75331150Y-114593200D01*
X75331150Y-114339200D01*
X76180400Y-114339200D01*
X76180400Y-113364950D01*
X76021650Y-113206200D01*
X76018350Y-113206200D01*
X76018350Y-113000000D01*
X76233910Y-113000000D01*
X76467299Y-112903327D01*
X76645927Y-112724698D01*
X76742600Y-112491309D01*
X76742600Y-112250750D01*
X76583850Y-112092000D01*
X75859600Y-112092000D01*
X75859600Y-112841250D01*
X76018350Y-113000000D01*
X76018350Y-113206200D01*
X75681091Y-113206200D01*
X75447702Y-113302873D01*
X75269073Y-113481501D01*
X75231290Y-113572717D01*
X75231290Y-113000000D01*
X75446850Y-113000000D01*
X75605600Y-112841250D01*
X75605600Y-112092000D01*
X74881350Y-112092000D01*
X74722600Y-112250750D01*
X74722600Y-112491309D01*
X74819273Y-112724698D01*
X74997901Y-112903327D01*
X75231290Y-113000000D01*
X75231290Y-113572717D01*
X75172400Y-113714890D01*
X75172400Y-114180450D01*
X75331150Y-114339200D01*
X75331150Y-114593200D01*
X75172400Y-114751950D01*
X75172400Y-115217510D01*
X75269073Y-115450899D01*
X75447702Y-115629527D01*
X75681091Y-115726200D01*
X75681091Y-119093611D01*
X75598000Y-119355000D01*
X75598000Y-119630000D01*
X75598000Y-119884000D01*
X75598000Y-120159000D01*
X75732998Y-120583678D01*
X76020237Y-120924368D01*
X76431126Y-121126119D01*
X76431126Y-122873600D01*
X61838800Y-122873600D01*
X61838800Y-119127706D01*
X62303727Y-120252915D01*
X62303727Y-120252915D01*
G37*
X62303727Y-120252915D02*
X63184847Y-121135574D01*
X64336674Y-121613854D01*
X65583854Y-121614943D01*
X66736515Y-121138673D01*
X67619174Y-120257553D01*
X68097454Y-119105726D01*
X68098543Y-117858546D01*
X67622273Y-116705885D01*
X66741153Y-115823226D01*
X65589326Y-115344946D01*
X64342146Y-115343857D01*
X63189485Y-115820127D01*
X62306826Y-116701247D01*
X61838800Y-117828380D01*
X61838800Y-43473200D01*
X119496800Y-43473200D01*
X119496800Y-50289888D01*
X115010058Y-45803147D01*
X115010056Y-45803144D01*
X114674277Y-45578785D01*
X114500359Y-45544190D01*
X114278200Y-45499999D01*
X114278195Y-45500000D01*
X111899240Y-45500000D01*
X111899240Y-45285000D01*
X111854962Y-45049683D01*
X111715890Y-44833559D01*
X111503690Y-44688569D01*
X111251800Y-44637560D01*
X106151800Y-44637560D01*
X105916483Y-44681838D01*
X105700359Y-44820910D01*
X105555369Y-45033110D01*
X105504360Y-45285000D01*
X105504360Y-47785000D01*
X105548638Y-48020317D01*
X105687710Y-48236441D01*
X105899910Y-48381431D01*
X106151800Y-48432440D01*
X106693890Y-48432440D01*
X103514321Y-49652866D01*
X103090701Y-49935920D01*
X102030100Y-51023695D01*
X108701800Y-57695395D01*
X115373500Y-51023695D01*
X114312899Y-49935920D01*
X110936265Y-48432440D01*
X111251800Y-48432440D01*
X111487117Y-48388162D01*
X111703241Y-48249090D01*
X111848231Y-48036890D01*
X111899240Y-47785000D01*
X111899240Y-47570000D01*
X113849489Y-47570000D01*
X118334800Y-52055312D01*
X118334800Y-66691889D01*
X116707544Y-68319144D01*
X116483185Y-68654923D01*
X116404399Y-69051000D01*
X116483185Y-69447077D01*
X116707544Y-69782856D01*
X117043323Y-70007215D01*
X117439400Y-70086001D01*
X117835477Y-70007215D01*
X118171256Y-69782856D01*
X119496800Y-68457311D01*
X119496800Y-117170559D01*
X118760353Y-116432826D01*
X117608526Y-115954546D01*
X116361346Y-115953457D01*
X115208685Y-116429727D01*
X114326026Y-117310847D01*
X113847746Y-118462674D01*
X113846657Y-119709854D01*
X114322927Y-120862515D01*
X115204047Y-121745174D01*
X116355874Y-122223454D01*
X117603054Y-122224543D01*
X118755715Y-121748273D01*
X119496800Y-121008480D01*
X119496800Y-122873600D01*
X97678200Y-122873600D01*
X97678200Y-122105201D01*
X97678205Y-122105200D01*
X110225795Y-122105200D01*
X110225800Y-122105201D01*
X110621877Y-122026415D01*
X110957656Y-121802056D01*
X112329253Y-120430458D01*
X112329256Y-120430456D01*
X112463749Y-120229171D01*
X112553615Y-120094678D01*
X112632400Y-119698600D01*
X112632400Y-110995265D01*
X112848717Y-110954562D01*
X113064841Y-110815490D01*
X113209831Y-110603290D01*
X113260840Y-110351400D01*
X113260840Y-108624200D01*
X113216562Y-108388883D01*
X113077490Y-108172759D01*
X112865290Y-108027769D01*
X112823961Y-108019400D01*
X112841815Y-108007470D01*
X113166671Y-107521289D01*
X113280745Y-106947800D01*
X113166671Y-106374311D01*
X112841815Y-105888130D01*
X112527034Y-105677800D01*
X112841815Y-105467470D01*
X113166671Y-104981289D01*
X113280745Y-104407800D01*
X113166671Y-103834311D01*
X112841815Y-103348130D01*
X112532331Y-103141339D01*
X112948132Y-102769836D01*
X113202109Y-102242591D01*
X113204758Y-102226826D01*
X113083617Y-101994800D01*
X111724400Y-101994800D01*
X111724400Y-101740800D01*
X113083617Y-101740800D01*
X113204758Y-101508774D01*
X113202109Y-101493009D01*
X112948132Y-100965764D01*
X112511720Y-100575846D01*
X111959313Y-100382616D01*
X111724400Y-100526876D01*
X111724400Y-101740800D01*
X111724400Y-101994800D01*
X111724400Y-102014800D01*
X111470400Y-102014800D01*
X111470400Y-101994800D01*
X110111183Y-101994800D01*
X110111183Y-101740800D01*
X111470400Y-101740800D01*
X111470400Y-100526876D01*
X111235487Y-100382616D01*
X110683080Y-100575846D01*
X110246668Y-100965764D01*
X110195800Y-101071363D01*
X110195800Y-98440840D01*
X110895800Y-98440840D01*
X111131117Y-98396562D01*
X111347241Y-98257490D01*
X111492231Y-98045290D01*
X111494881Y-98032203D01*
X111631710Y-98244841D01*
X111843910Y-98389831D01*
X112095800Y-98440840D01*
X112795800Y-98440840D01*
X113031117Y-98396562D01*
X113247241Y-98257490D01*
X113392231Y-98045290D01*
X113443240Y-97793400D01*
X113443240Y-97220762D01*
X115989201Y-94674801D01*
X116153948Y-94428239D01*
X116211800Y-94137400D01*
X116211800Y-92662279D01*
X116403241Y-92539090D01*
X116548231Y-92326890D01*
X116599240Y-92075000D01*
X116599240Y-90075000D01*
X116554962Y-89839683D01*
X116415890Y-89623559D01*
X116203690Y-89478569D01*
X115951800Y-89427560D01*
X114951800Y-89427560D01*
X114951800Y-77122440D01*
X115951800Y-77122440D01*
X116187117Y-77078162D01*
X116403241Y-76939090D01*
X116548231Y-76726890D01*
X116599240Y-76475000D01*
X116599240Y-74475000D01*
X116554962Y-74239683D01*
X116415890Y-74023559D01*
X116203690Y-73878569D01*
X115951800Y-73827560D01*
X115553105Y-73827560D01*
X115553105Y-64546700D01*
X116640880Y-63486099D01*
X118183828Y-60020825D01*
X118283223Y-56228869D01*
X116923934Y-52687521D01*
X116640880Y-52263901D01*
X115553105Y-51203300D01*
X108881405Y-57875000D01*
X115553105Y-64546700D01*
X115553105Y-73827560D01*
X114951800Y-73827560D01*
X114716483Y-73871838D01*
X114692395Y-73887338D01*
X114578110Y-73840000D01*
X114237550Y-73840000D01*
X114078800Y-73998750D01*
X114078800Y-75348000D01*
X114098800Y-75348000D01*
X114098800Y-75602000D01*
X114078800Y-75602000D01*
X114078800Y-76951250D01*
X114237550Y-77110000D01*
X114578110Y-77110000D01*
X114689083Y-77064033D01*
X114699910Y-77071431D01*
X114951800Y-77122440D01*
X114951800Y-89427560D01*
X114716483Y-89471838D01*
X114704821Y-89479342D01*
X114703690Y-89478569D01*
X114451800Y-89427560D01*
X113903150Y-89427560D01*
X113903150Y-73363000D01*
X114143709Y-73363000D01*
X114377098Y-73266327D01*
X114555727Y-73087699D01*
X114652400Y-72854310D01*
X114652400Y-72638750D01*
X114493650Y-72480000D01*
X113744400Y-72480000D01*
X113744400Y-72226000D01*
X114493650Y-72226000D01*
X114652400Y-72067250D01*
X114652400Y-71851690D01*
X114555727Y-71618301D01*
X114377098Y-71439673D01*
X114143709Y-71343000D01*
X113903150Y-71343000D01*
X113744400Y-71501750D01*
X113744400Y-72226000D01*
X113744400Y-72480000D01*
X113744400Y-73204250D01*
X113903150Y-73363000D01*
X113903150Y-89427560D01*
X113451800Y-89427560D01*
X113216483Y-89471838D01*
X113192395Y-89487338D01*
X113078110Y-89440000D01*
X112737550Y-89440000D01*
X112578800Y-89598750D01*
X112578800Y-90948000D01*
X112598800Y-90948000D01*
X112598800Y-91202000D01*
X112578800Y-91202000D01*
X112578800Y-92551250D01*
X112737550Y-92710000D01*
X112857998Y-92710000D01*
X112668438Y-92899560D01*
X112095800Y-92899560D01*
X111860483Y-92943838D01*
X111644359Y-93082910D01*
X111499369Y-93295110D01*
X111496719Y-93308197D01*
X111359890Y-93095559D01*
X111147690Y-92950569D01*
X110895800Y-92899560D01*
X110195800Y-92899560D01*
X109960483Y-92943838D01*
X109744359Y-93082910D01*
X109722349Y-93115123D01*
X109711388Y-93110572D01*
X109319531Y-93110230D01*
X108957371Y-93259871D01*
X108680045Y-93536714D01*
X108529772Y-93898612D01*
X108529430Y-94290469D01*
X108679071Y-94652629D01*
X108955914Y-94929955D01*
X109317812Y-95080228D01*
X109592290Y-95080468D01*
X109592638Y-95082317D01*
X109731710Y-95298441D01*
X109943910Y-95443431D01*
X110195800Y-95494440D01*
X110895800Y-95494440D01*
X111131117Y-95450162D01*
X111347241Y-95311090D01*
X111492231Y-95098890D01*
X111494881Y-95085803D01*
X111631710Y-95298441D01*
X111843910Y-95443431D01*
X112095800Y-95494440D01*
X112795800Y-95494440D01*
X113031117Y-95450162D01*
X113124013Y-95390385D01*
X112668438Y-95845960D01*
X112095800Y-95845960D01*
X111860483Y-95890238D01*
X111644359Y-96029310D01*
X111499369Y-96241510D01*
X111496719Y-96254597D01*
X111359890Y-96041959D01*
X111147690Y-95896969D01*
X110895800Y-95845960D01*
X110195800Y-95845960D01*
X109960483Y-95890238D01*
X109744359Y-96029310D01*
X109688666Y-96110819D01*
X109558988Y-96056972D01*
X109167131Y-96056630D01*
X108804971Y-96206271D01*
X108527645Y-96483114D01*
X108377372Y-96845012D01*
X108377030Y-97236869D01*
X108526671Y-97599029D01*
X108803514Y-97876355D01*
X109165412Y-98026628D01*
X109557269Y-98026970D01*
X109589782Y-98013536D01*
X109592638Y-98028717D01*
X109731710Y-98244841D01*
X109943910Y-98389831D01*
X110195800Y-98440840D01*
X110195800Y-101071363D01*
X109992691Y-101493009D01*
X109990042Y-101508774D01*
X110111183Y-101740800D01*
X110111183Y-101994800D01*
X109990042Y-102226826D01*
X109992691Y-102242591D01*
X110246668Y-102769836D01*
X110662469Y-103141339D01*
X110352985Y-103348130D01*
X110028129Y-103834311D01*
X109914055Y-104407800D01*
X110028129Y-104981289D01*
X110352985Y-105467470D01*
X110667766Y-105677800D01*
X110352985Y-105888130D01*
X110028129Y-106374311D01*
X109914055Y-106947800D01*
X110028129Y-107521289D01*
X110352985Y-108007470D01*
X110367313Y-108017043D01*
X110346083Y-108021038D01*
X110129959Y-108160110D01*
X109984969Y-108372310D01*
X109933960Y-108624200D01*
X109933960Y-110351400D01*
X109978238Y-110586717D01*
X110117310Y-110802841D01*
X110329510Y-110947831D01*
X110562400Y-110994992D01*
X110562400Y-119269889D01*
X109797088Y-120035200D01*
X107650750Y-120035200D01*
X107650750Y-101146600D01*
X107991309Y-101146600D01*
X108224698Y-101049927D01*
X108403327Y-100871299D01*
X108500000Y-100637910D01*
X108500000Y-100172350D01*
X108341250Y-100013600D01*
X107492000Y-100013600D01*
X107492000Y-99759600D01*
X108341250Y-99759600D01*
X108500000Y-99600850D01*
X108500000Y-99135290D01*
X108403327Y-98901901D01*
X108224698Y-98723273D01*
X107991309Y-98626600D01*
X107650750Y-98626600D01*
X107502350Y-98775000D01*
X107502350Y-98509000D01*
X107742909Y-98509000D01*
X107976298Y-98412327D01*
X108154927Y-98233699D01*
X108251600Y-98000310D01*
X108251600Y-97784750D01*
X108092850Y-97626000D01*
X107343600Y-97626000D01*
X107343600Y-97372000D01*
X108092850Y-97372000D01*
X108251600Y-97213250D01*
X108251600Y-96997690D01*
X108154927Y-96764301D01*
X107976298Y-96585673D01*
X107742909Y-96489000D01*
X107502350Y-96489000D01*
X107451800Y-96539550D01*
X107451800Y-92822440D01*
X108451800Y-92822440D01*
X108687117Y-92778162D01*
X108816341Y-92695009D01*
X108951800Y-92722440D01*
X109951800Y-92722440D01*
X110187117Y-92678162D01*
X110198779Y-92670658D01*
X110199910Y-92671431D01*
X110451800Y-92722440D01*
X111451800Y-92722440D01*
X111687117Y-92678162D01*
X111711205Y-92662662D01*
X111825490Y-92710000D01*
X112166050Y-92710000D01*
X112324800Y-92551250D01*
X112324800Y-91202000D01*
X112304800Y-91202000D01*
X112304800Y-90948000D01*
X112324800Y-90948000D01*
X112324800Y-89598750D01*
X112166050Y-89440000D01*
X111825490Y-89440000D01*
X111714517Y-89485967D01*
X111703690Y-89478569D01*
X111451800Y-89427560D01*
X110451800Y-89427560D01*
X110216483Y-89471838D01*
X110204821Y-89479342D01*
X110203690Y-89478569D01*
X109951800Y-89427560D01*
X108951800Y-89427560D01*
X108716483Y-89471838D01*
X108711800Y-89474851D01*
X108711800Y-86081000D01*
X108653948Y-85790161D01*
X108489201Y-85543599D01*
X108146379Y-85200777D01*
X108146379Y-84310214D01*
X108600457Y-84122592D01*
X108948171Y-83775485D01*
X109136585Y-83321734D01*
X109137014Y-82830421D01*
X108949392Y-82376343D01*
X108602285Y-82028629D01*
X108148534Y-81840215D01*
X107657221Y-81839786D01*
X107451800Y-81924664D01*
X107451800Y-77222440D01*
X108451800Y-77222440D01*
X108687117Y-77178162D01*
X108816341Y-77095009D01*
X108951800Y-77122440D01*
X109951800Y-77122440D01*
X110187117Y-77078162D01*
X110198779Y-77070658D01*
X110199910Y-77071431D01*
X110451800Y-77122440D01*
X111451800Y-77122440D01*
X111687117Y-77078162D01*
X111698779Y-77070658D01*
X111699910Y-77071431D01*
X111951800Y-77122440D01*
X112951800Y-77122440D01*
X113187117Y-77078162D01*
X113211205Y-77062662D01*
X113325490Y-77110000D01*
X113666050Y-77110000D01*
X113824800Y-76951250D01*
X113824800Y-75602000D01*
X113804800Y-75602000D01*
X113804800Y-75348000D01*
X113824800Y-75348000D01*
X113824800Y-73998750D01*
X113666050Y-73840000D01*
X113325490Y-73840000D01*
X113214517Y-73885967D01*
X113203690Y-73878569D01*
X112951800Y-73827560D01*
X111951800Y-73827560D01*
X111717400Y-73871665D01*
X111717400Y-73375440D01*
X112517400Y-73375440D01*
X112752717Y-73331162D01*
X112856046Y-73264671D01*
X112857702Y-73266327D01*
X113091091Y-73363000D01*
X113331650Y-73363000D01*
X113490400Y-73204250D01*
X113490400Y-72480000D01*
X113470400Y-72480000D01*
X113470400Y-72226000D01*
X113490400Y-72226000D01*
X113490400Y-71501750D01*
X113331650Y-71343000D01*
X113091091Y-71343000D01*
X112857702Y-71439673D01*
X112856332Y-71441043D01*
X112769290Y-71381569D01*
X112517400Y-71330560D01*
X111717400Y-71330560D01*
X111482083Y-71374838D01*
X111265959Y-71513910D01*
X111263164Y-71518000D01*
X110571668Y-71518000D01*
X110276108Y-71222440D01*
X111251800Y-71222440D01*
X111487117Y-71178162D01*
X111703241Y-71039090D01*
X111848231Y-70826890D01*
X111899240Y-70575000D01*
X111899240Y-68075000D01*
X111854962Y-67839683D01*
X111715890Y-67623559D01*
X111503690Y-67478569D01*
X111251800Y-67427560D01*
X110423128Y-67427560D01*
X113889279Y-66097134D01*
X114312899Y-65814080D01*
X115373500Y-64726305D01*
X108701800Y-58054605D01*
X102030100Y-64726305D01*
X103090701Y-65814080D01*
X106555975Y-67357028D01*
X109246797Y-67427560D01*
X106151800Y-67427560D01*
X105916483Y-67471838D01*
X105700359Y-67610910D01*
X105555369Y-67823110D01*
X105504360Y-68075000D01*
X105504360Y-70575000D01*
X105548638Y-70810317D01*
X105687710Y-71026441D01*
X105899910Y-71171431D01*
X106151800Y-71222440D01*
X107979739Y-71222440D01*
X108051723Y-71330172D01*
X108111366Y-71419434D01*
X109635366Y-72943434D01*
X109906259Y-73124439D01*
X110225800Y-73188000D01*
X111265837Y-73188000D01*
X111465510Y-73324431D01*
X111717400Y-73375440D01*
X111717400Y-73871665D01*
X111716483Y-73871838D01*
X111704821Y-73879342D01*
X111703690Y-73878569D01*
X111451800Y-73827560D01*
X110451800Y-73827560D01*
X110216483Y-73871838D01*
X110204821Y-73879342D01*
X110203690Y-73878569D01*
X109951800Y-73827560D01*
X108951800Y-73827560D01*
X108716483Y-73871838D01*
X108587259Y-73954991D01*
X108451800Y-73927560D01*
X107451800Y-73927560D01*
X107313482Y-73953586D01*
X107203690Y-73878569D01*
X106951800Y-73827560D01*
X105951800Y-73827560D01*
X105716483Y-73871838D01*
X105704821Y-73879342D01*
X105703690Y-73878569D01*
X105451800Y-73827560D01*
X104451800Y-73827560D01*
X104216483Y-73871838D01*
X104192395Y-73887338D01*
X104078110Y-73840000D01*
X103737550Y-73840000D01*
X103578800Y-73998750D01*
X103578800Y-75348000D01*
X103598800Y-75348000D01*
X103598800Y-75602000D01*
X103578800Y-75602000D01*
X103578800Y-76951250D01*
X103737550Y-77110000D01*
X104078110Y-77110000D01*
X104189083Y-77064033D01*
X104199910Y-77071431D01*
X104451800Y-77122440D01*
X105451800Y-77122440D01*
X105687117Y-77078162D01*
X105698779Y-77070658D01*
X105699910Y-77071431D01*
X105951800Y-77122440D01*
X106951800Y-77122440D01*
X107090118Y-77096414D01*
X107199910Y-77171431D01*
X107451800Y-77222440D01*
X107451800Y-81924664D01*
X107203143Y-82027408D01*
X106855429Y-82374515D01*
X106667015Y-82828266D01*
X106666586Y-83319579D01*
X106854208Y-83773657D01*
X107201315Y-84121371D01*
X107655066Y-84309785D01*
X108146379Y-84310214D01*
X108146379Y-85200777D01*
X106648401Y-83702799D01*
X106401840Y-83538052D01*
X106111000Y-83480200D01*
X102184200Y-83480200D01*
X101975709Y-83521672D01*
X101893360Y-83538052D01*
X101646799Y-83702799D01*
X101451800Y-83897798D01*
X101451800Y-77122440D01*
X102451800Y-77122440D01*
X102687117Y-77078162D01*
X102711205Y-77062662D01*
X102825490Y-77110000D01*
X103166050Y-77110000D01*
X103324800Y-76951250D01*
X103324800Y-75602000D01*
X103304800Y-75602000D01*
X103304800Y-75348000D01*
X103324800Y-75348000D01*
X103324800Y-73998750D01*
X103166050Y-73840000D01*
X102825490Y-73840000D01*
X102714517Y-73885967D01*
X102703690Y-73878569D01*
X102451800Y-73827560D01*
X101850495Y-73827560D01*
X101850495Y-64546700D01*
X108522195Y-57875000D01*
X101850495Y-51203300D01*
X100762720Y-52263901D01*
X99219772Y-55729175D01*
X99120377Y-59521131D01*
X100479666Y-63062479D01*
X100762720Y-63486099D01*
X101850495Y-64546700D01*
X101850495Y-73827560D01*
X101451800Y-73827560D01*
X101216483Y-73871838D01*
X101000359Y-74010910D01*
X100855369Y-74223110D01*
X100804360Y-74475000D01*
X100804360Y-76475000D01*
X100848638Y-76710317D01*
X100987710Y-76926441D01*
X101199910Y-77071431D01*
X101451800Y-77122440D01*
X101451800Y-83897798D01*
X98038038Y-87311560D01*
X97465400Y-87311560D01*
X97230083Y-87355838D01*
X97013959Y-87494910D01*
X96868969Y-87707110D01*
X96866319Y-87720197D01*
X96729490Y-87507559D01*
X96582800Y-87407330D01*
X96582800Y-85890926D01*
X96608117Y-85886162D01*
X96824241Y-85747090D01*
X96969231Y-85534890D01*
X97020240Y-85283000D01*
X97020240Y-84283000D01*
X96975962Y-84047683D01*
X96836890Y-83831559D01*
X96768794Y-83785031D01*
X96911127Y-83642698D01*
X97007800Y-83409309D01*
X97007800Y-83068750D01*
X96849050Y-82910000D01*
X95874800Y-82910000D01*
X95874800Y-82656000D01*
X96849050Y-82656000D01*
X97007800Y-82497250D01*
X97007800Y-82156691D01*
X96970426Y-82066463D01*
X96970426Y-76449558D01*
X96986191Y-76446909D01*
X97513436Y-76192932D01*
X97903354Y-75756520D01*
X98096584Y-75204113D01*
X97952324Y-74969200D01*
X96738400Y-74969200D01*
X96738400Y-74715200D01*
X97952324Y-74715200D01*
X98096584Y-74480287D01*
X97903354Y-73927880D01*
X97513436Y-73491468D01*
X96986191Y-73237491D01*
X96970426Y-73234842D01*
X96738400Y-73355983D01*
X96738400Y-74715200D01*
X96738400Y-74969200D01*
X96738400Y-76328417D01*
X96970426Y-76449558D01*
X96970426Y-82066463D01*
X96911127Y-81923302D01*
X96732499Y-81744673D01*
X96499110Y-81648000D01*
X96033550Y-81648000D01*
X95874800Y-81806750D01*
X95874800Y-82656000D01*
X95874800Y-82910000D01*
X95874800Y-82930000D01*
X95620800Y-82930000D01*
X95620800Y-82910000D01*
X94646550Y-82910000D01*
X94646550Y-82656000D01*
X95620800Y-82656000D01*
X95620800Y-81806750D01*
X95462050Y-81648000D01*
X94996490Y-81648000D01*
X94763101Y-81744673D01*
X94584473Y-81923302D01*
X94487800Y-82156691D01*
X94487800Y-82497250D01*
X94646550Y-82656000D01*
X94646550Y-82910000D01*
X94487800Y-83068750D01*
X94487800Y-83409309D01*
X94584473Y-83642698D01*
X94725710Y-83783936D01*
X94671359Y-83818910D01*
X94526369Y-84031110D01*
X94475360Y-84283000D01*
X94475360Y-85283000D01*
X94519638Y-85518317D01*
X94658710Y-85734441D01*
X94870910Y-85879431D01*
X94912800Y-85887914D01*
X94912800Y-88441400D01*
X94917960Y-88467341D01*
X94917960Y-89259000D01*
X94962238Y-89494317D01*
X95101310Y-89710441D01*
X95313510Y-89855431D01*
X95565400Y-89906440D01*
X96265400Y-89906440D01*
X96500717Y-89862162D01*
X96716841Y-89723090D01*
X96861831Y-89510890D01*
X96864481Y-89497803D01*
X97001310Y-89710441D01*
X97213510Y-89855431D01*
X97465400Y-89906440D01*
X98165400Y-89906440D01*
X98400717Y-89862162D01*
X98616841Y-89723090D01*
X98761831Y-89510890D01*
X98812840Y-89259000D01*
X98812840Y-88686362D01*
X102499002Y-85000200D01*
X105796198Y-85000200D01*
X107191800Y-86395802D01*
X107191800Y-87770867D01*
X107015078Y-87652785D01*
X106619000Y-87573999D01*
X106222923Y-87652785D01*
X105887145Y-87877144D01*
X105719944Y-88044344D01*
X105495585Y-88380123D01*
X105416799Y-88776200D01*
X105416800Y-88776205D01*
X105416800Y-89440000D01*
X105237550Y-89440000D01*
X105078800Y-89598750D01*
X105078800Y-90948000D01*
X105098800Y-90948000D01*
X105098800Y-91202000D01*
X105078800Y-91202000D01*
X105078800Y-92551250D01*
X105237550Y-92710000D01*
X105578110Y-92710000D01*
X105689083Y-92664033D01*
X105699910Y-92671431D01*
X105951800Y-92722440D01*
X106951800Y-92722440D01*
X107090118Y-92696414D01*
X107199910Y-92771431D01*
X107451800Y-92822440D01*
X107451800Y-96539550D01*
X107343600Y-96647750D01*
X107343600Y-97372000D01*
X107343600Y-97626000D01*
X107343600Y-98350250D01*
X107502350Y-98509000D01*
X107502350Y-98775000D01*
X107492000Y-98785350D01*
X107492000Y-99759600D01*
X107492000Y-100013600D01*
X107492000Y-100987850D01*
X107650750Y-101146600D01*
X107650750Y-120035200D01*
X103930026Y-120035200D01*
X103930026Y-119680358D01*
X103945791Y-119677709D01*
X104473036Y-119423732D01*
X104862954Y-118987320D01*
X105056184Y-118434913D01*
X104911924Y-118200000D01*
X103698000Y-118200000D01*
X103698000Y-117946000D01*
X104911924Y-117946000D01*
X105056184Y-117711087D01*
X104862954Y-117158680D01*
X104473036Y-116722268D01*
X103945791Y-116468291D01*
X103930026Y-116465642D01*
X103698000Y-116586783D01*
X103698000Y-117946000D01*
X103698000Y-118200000D01*
X103698000Y-119559217D01*
X103930026Y-119680358D01*
X103930026Y-120035200D01*
X98106912Y-120035200D01*
X97411295Y-119339584D01*
X97419400Y-119299561D01*
X97431330Y-119317415D01*
X97917511Y-119642271D01*
X98491000Y-119756345D01*
X99064489Y-119642271D01*
X99550670Y-119317415D01*
X99761000Y-119002634D01*
X99971330Y-119317415D01*
X100457511Y-119642271D01*
X101031000Y-119756345D01*
X101604489Y-119642271D01*
X102090670Y-119317415D01*
X102297461Y-119007931D01*
X102668964Y-119423732D01*
X103196209Y-119677709D01*
X103211974Y-119680358D01*
X103444000Y-119559217D01*
X103444000Y-118200000D01*
X103424000Y-118200000D01*
X103424000Y-117946000D01*
X103444000Y-117946000D01*
X103444000Y-116586783D01*
X103211974Y-116465642D01*
X103196209Y-116468291D01*
X102668964Y-116722268D01*
X102297461Y-117138069D01*
X102090670Y-116828585D01*
X101604489Y-116503729D01*
X101031000Y-116389655D01*
X100457511Y-116503729D01*
X99971330Y-116828585D01*
X99761000Y-117143366D01*
X99550670Y-116828585D01*
X99064489Y-116503729D01*
X98491000Y-116389655D01*
X97917511Y-116503729D01*
X97431330Y-116828585D01*
X97421757Y-116842913D01*
X97417762Y-116821683D01*
X97278690Y-116605559D01*
X97066490Y-116460569D01*
X96814600Y-116409560D01*
X95087400Y-116409560D01*
X94852083Y-116453838D01*
X94635959Y-116592910D01*
X94490969Y-116805110D01*
X94443808Y-117038000D01*
X92315712Y-117038000D01*
X89635200Y-114357489D01*
X89635200Y-111576925D01*
X89686110Y-111656041D01*
X89898310Y-111801031D01*
X90150200Y-111852040D01*
X90850200Y-111852040D01*
X91085517Y-111807762D01*
X91301641Y-111668690D01*
X91446631Y-111456490D01*
X91497640Y-111204600D01*
X91497640Y-109904600D01*
X91453362Y-109669283D01*
X91314290Y-109453159D01*
X91310816Y-109450786D01*
X91326762Y-109434840D01*
X92949400Y-109434840D01*
X93184717Y-109390562D01*
X93400841Y-109251490D01*
X93540290Y-109047400D01*
X98162121Y-109047400D01*
X98285310Y-109238841D01*
X98497510Y-109383831D01*
X98749400Y-109434840D01*
X101849400Y-109434840D01*
X102084717Y-109390562D01*
X102300841Y-109251490D01*
X102445831Y-109039290D01*
X102496840Y-108787400D01*
X102496840Y-107787400D01*
X102452562Y-107552083D01*
X102313490Y-107335959D01*
X102101290Y-107190969D01*
X101849400Y-107139960D01*
X100585150Y-107139960D01*
X100585150Y-105422400D01*
X101975709Y-105422400D01*
X102209098Y-105325727D01*
X102387727Y-105147099D01*
X102484400Y-104913710D01*
X102484400Y-104573150D01*
X102325650Y-104414400D01*
X100426400Y-104414400D01*
X100426400Y-104160400D01*
X102325650Y-104160400D01*
X102484400Y-104001650D01*
X102484400Y-103661090D01*
X102387727Y-103427701D01*
X102209098Y-103249073D01*
X101975709Y-103152400D01*
X100585150Y-103152400D01*
X100426400Y-103311150D01*
X100426400Y-104160400D01*
X100426400Y-104414400D01*
X100426400Y-105263650D01*
X100585150Y-105422400D01*
X100585150Y-107139960D01*
X98749400Y-107139960D01*
X98623091Y-107163726D01*
X98623091Y-105422400D01*
X100013650Y-105422400D01*
X100172400Y-105263650D01*
X100172400Y-104414400D01*
X98273150Y-104414400D01*
X98273150Y-104160400D01*
X100172400Y-104160400D01*
X100172400Y-103311150D01*
X100013650Y-103152400D01*
X98623091Y-103152400D01*
X98389702Y-103249073D01*
X98211073Y-103427701D01*
X98114400Y-103661090D01*
X98114400Y-104001650D01*
X98273150Y-104160400D01*
X98273150Y-104414400D01*
X98114400Y-104573150D01*
X98114400Y-104913710D01*
X98211073Y-105147099D01*
X98389702Y-105325727D01*
X98623091Y-105422400D01*
X98623091Y-107163726D01*
X98514083Y-107184238D01*
X98297959Y-107323310D01*
X98158510Y-107527400D01*
X93536679Y-107527400D01*
X93413490Y-107335959D01*
X93201290Y-107190969D01*
X92949400Y-107139960D01*
X91685150Y-107139960D01*
X91685150Y-105422400D01*
X93075709Y-105422400D01*
X93309098Y-105325727D01*
X93487727Y-105147099D01*
X93584400Y-104913710D01*
X93584400Y-104573150D01*
X93425650Y-104414400D01*
X91526400Y-104414400D01*
X91526400Y-104160400D01*
X93425650Y-104160400D01*
X93584400Y-104001650D01*
X93584400Y-103661090D01*
X93487727Y-103427701D01*
X93309098Y-103249073D01*
X93075709Y-103152400D01*
X91685150Y-103152400D01*
X91526400Y-103311150D01*
X91526400Y-104160400D01*
X91526400Y-104414400D01*
X91526400Y-105263650D01*
X91685150Y-105422400D01*
X91685150Y-107139960D01*
X91326762Y-107139960D01*
X89528670Y-105341868D01*
X89723091Y-105422400D01*
X91113650Y-105422400D01*
X91272400Y-105263650D01*
X91272400Y-104414400D01*
X89373150Y-104414400D01*
X89373150Y-104160400D01*
X91272400Y-104160400D01*
X91272400Y-103311150D01*
X91113650Y-103152400D01*
X89723091Y-103152400D01*
X89489702Y-103249073D01*
X89311073Y-103427701D01*
X89214400Y-103661090D01*
X89214400Y-104001650D01*
X89373150Y-104160400D01*
X89373150Y-104414400D01*
X89214400Y-104573150D01*
X89214400Y-104913710D01*
X89294931Y-105108129D01*
X88227400Y-104040598D01*
X88227400Y-97638222D01*
X88298600Y-97652640D01*
X89298600Y-97652640D01*
X89364713Y-97640200D01*
X90981800Y-97640200D01*
X91272639Y-97582348D01*
X91519201Y-97417601D01*
X94059524Y-94877278D01*
X94164869Y-94877370D01*
X94527029Y-94727729D01*
X94636874Y-94618076D01*
X96083522Y-96064724D01*
X96083430Y-96170069D01*
X96233071Y-96532229D01*
X96509914Y-96809555D01*
X96871812Y-96959828D01*
X97263669Y-96960170D01*
X97506026Y-96860030D01*
X97505830Y-97084469D01*
X97655471Y-97446629D01*
X97932314Y-97723955D01*
X98294212Y-97874228D01*
X98686069Y-97874570D01*
X98870409Y-97798403D01*
X98897514Y-97825555D01*
X99259412Y-97975828D01*
X99445897Y-97975991D01*
X99281488Y-98140400D01*
X93614200Y-98140400D01*
X93218123Y-98219185D01*
X92882344Y-98443544D01*
X92657985Y-98779323D01*
X92579200Y-99175400D01*
X92657985Y-99571477D01*
X92882344Y-99907256D01*
X93218123Y-100131615D01*
X93614200Y-100210400D01*
X99710195Y-100210400D01*
X99710200Y-100210401D01*
X100106277Y-100131615D01*
X100442056Y-99907256D01*
X102123200Y-98226112D01*
X102127944Y-98230856D01*
X102463723Y-98455215D01*
X102859800Y-98534001D01*
X102859805Y-98534000D01*
X104881600Y-98534000D01*
X104881600Y-98614160D01*
X104865000Y-98614160D01*
X104629683Y-98658438D01*
X104413559Y-98797510D01*
X104268569Y-99009710D01*
X104217560Y-99261600D01*
X104217560Y-100511600D01*
X104261838Y-100746917D01*
X104400910Y-100963041D01*
X104613110Y-101108031D01*
X104865000Y-101159040D01*
X105865000Y-101159040D01*
X106100317Y-101114762D01*
X106316441Y-100975690D01*
X106362969Y-100907594D01*
X106505302Y-101049927D01*
X106738691Y-101146600D01*
X107079250Y-101146600D01*
X107238000Y-100987850D01*
X107238000Y-100013600D01*
X107218000Y-100013600D01*
X107218000Y-99759600D01*
X107238000Y-99759600D01*
X107238000Y-98785350D01*
X107079250Y-98626600D01*
X106738691Y-98626600D01*
X106551600Y-98704096D01*
X106551600Y-98451552D01*
X106690291Y-98509000D01*
X106930850Y-98509000D01*
X107089600Y-98350250D01*
X107089600Y-97626000D01*
X107069600Y-97626000D01*
X107069600Y-97372000D01*
X107089600Y-97372000D01*
X107089600Y-96647750D01*
X106930850Y-96489000D01*
X106690291Y-96489000D01*
X106456902Y-96585673D01*
X106455532Y-96587043D01*
X106368490Y-96527569D01*
X106116600Y-96476560D01*
X105779743Y-96476560D01*
X105716600Y-96464000D01*
X103288512Y-96464000D01*
X102986800Y-96162289D01*
X102986800Y-92722440D01*
X103951800Y-92722440D01*
X104187117Y-92678162D01*
X104211205Y-92662662D01*
X104325490Y-92710000D01*
X104666050Y-92710000D01*
X104824800Y-92551250D01*
X104824800Y-91202000D01*
X104804800Y-91202000D01*
X104804800Y-90948000D01*
X104824800Y-90948000D01*
X104824800Y-89598750D01*
X104666050Y-89440000D01*
X104325490Y-89440000D01*
X104214517Y-89485967D01*
X104203690Y-89478569D01*
X103951800Y-89427560D01*
X102951800Y-89427560D01*
X102716483Y-89471838D01*
X102704821Y-89479342D01*
X102703690Y-89478569D01*
X102451800Y-89427560D01*
X101451800Y-89427560D01*
X101216483Y-89471838D01*
X101000359Y-89610910D01*
X100855369Y-89823110D01*
X100804360Y-90075000D01*
X100804360Y-92075000D01*
X100848638Y-92310317D01*
X100916800Y-92416244D01*
X100916800Y-96505089D01*
X100441209Y-96980680D01*
X100441370Y-96795931D01*
X100291729Y-96433771D01*
X100216200Y-96358110D01*
X100216200Y-95263800D01*
X100158348Y-94972961D01*
X99993601Y-94726399D01*
X94110001Y-88842799D01*
X93863439Y-88678052D01*
X93572600Y-88620200D01*
X89360031Y-88620200D01*
X89298600Y-88607760D01*
X88298600Y-88607760D01*
X88063283Y-88652038D01*
X87847159Y-88791110D01*
X87702169Y-89003310D01*
X87651160Y-89255200D01*
X87651160Y-89505200D01*
X87675544Y-89634789D01*
X87651160Y-89755200D01*
X87651160Y-90005200D01*
X87675544Y-90134789D01*
X87651160Y-90255200D01*
X87651160Y-90505200D01*
X87653820Y-90519337D01*
X87410188Y-90418172D01*
X87108600Y-90417909D01*
X87108600Y-88552238D01*
X87208917Y-88533362D01*
X87425041Y-88394290D01*
X87570031Y-88182090D01*
X87621040Y-87930200D01*
X87621040Y-86930200D01*
X87576762Y-86694883D01*
X87437690Y-86478759D01*
X87225490Y-86333769D01*
X86973600Y-86282760D01*
X86723600Y-86282760D01*
X86594011Y-86307144D01*
X86473600Y-86282760D01*
X86223600Y-86282760D01*
X86117895Y-86302650D01*
X86099910Y-86295200D01*
X86069850Y-86295200D01*
X86049538Y-86315512D01*
X85988283Y-86327038D01*
X85847873Y-86417390D01*
X85725490Y-86333769D01*
X85650792Y-86318642D01*
X85627350Y-86295200D01*
X85597290Y-86295200D01*
X85576847Y-86303668D01*
X85473600Y-86282760D01*
X85223600Y-86282760D01*
X85094011Y-86307144D01*
X84973600Y-86282760D01*
X84723600Y-86282760D01*
X84594011Y-86307144D01*
X84473600Y-86282760D01*
X84223600Y-86282760D01*
X84108600Y-86304399D01*
X84108600Y-80223000D01*
X84050748Y-79932161D01*
X83886001Y-79685599D01*
X82153278Y-77952876D01*
X82153370Y-77847531D01*
X82003729Y-77485371D01*
X81726886Y-77208045D01*
X81364988Y-77057772D01*
X80973131Y-77057430D01*
X80610971Y-77207071D01*
X80333645Y-77483914D01*
X80183372Y-77845812D01*
X80183142Y-78109335D01*
X80153771Y-78121471D01*
X79876445Y-78398314D01*
X79726172Y-78760212D01*
X79725830Y-79152069D01*
X79875471Y-79514229D01*
X80152314Y-79791555D01*
X80514212Y-79941828D01*
X80621119Y-79941921D01*
X81154763Y-80475565D01*
X81149800Y-80474560D01*
X80812947Y-80474560D01*
X80749800Y-80461999D01*
X80686653Y-80474560D01*
X80349800Y-80474560D01*
X80114483Y-80518838D01*
X80011154Y-80585329D01*
X80009498Y-80583673D01*
X79776109Y-80487000D01*
X79535550Y-80487000D01*
X79376800Y-80645750D01*
X79376800Y-81370000D01*
X79396800Y-81370000D01*
X79396800Y-81624000D01*
X79376800Y-81624000D01*
X79376800Y-82348250D01*
X79535550Y-82507000D01*
X79569832Y-82507000D01*
X79515369Y-82586710D01*
X79464360Y-82838600D01*
X79464360Y-82888038D01*
X78894076Y-83458322D01*
X78788731Y-83458230D01*
X78723491Y-83485186D01*
X78723491Y-82507000D01*
X78964050Y-82507000D01*
X79122800Y-82348250D01*
X79122800Y-81624000D01*
X78373550Y-81624000D01*
X78373550Y-81370000D01*
X79122800Y-81370000D01*
X79122800Y-80645750D01*
X78964050Y-80487000D01*
X78723491Y-80487000D01*
X78490102Y-80583673D01*
X78311473Y-80762301D01*
X78214800Y-80995690D01*
X78214800Y-81211250D01*
X78373550Y-81370000D01*
X78373550Y-81624000D01*
X78214800Y-81782750D01*
X78214800Y-81998310D01*
X78311473Y-82231699D01*
X78490102Y-82410327D01*
X78723491Y-82507000D01*
X78723491Y-83485186D01*
X78426571Y-83607871D01*
X78149245Y-83884714D01*
X77998972Y-84246612D01*
X77998630Y-84638469D01*
X78148271Y-85000629D01*
X78425114Y-85277955D01*
X78787012Y-85428228D01*
X79178869Y-85428570D01*
X79464360Y-85310608D01*
X79464360Y-85438600D01*
X79508638Y-85673917D01*
X79647710Y-85890041D01*
X79859910Y-86035031D01*
X80111800Y-86086040D01*
X80567638Y-86086040D01*
X80764358Y-86282760D01*
X80723600Y-86282760D01*
X80594011Y-86307144D01*
X80473600Y-86282760D01*
X80223600Y-86282760D01*
X80094011Y-86307144D01*
X79973600Y-86282760D01*
X79723600Y-86282760D01*
X79594011Y-86307144D01*
X79473600Y-86282760D01*
X79223600Y-86282760D01*
X78988283Y-86327038D01*
X78772159Y-86466110D01*
X78627169Y-86678310D01*
X78576160Y-86930200D01*
X78576160Y-87930200D01*
X78588600Y-87996313D01*
X78588600Y-89685000D01*
X78646452Y-89975839D01*
X78811199Y-90222401D01*
X78963922Y-90375124D01*
X78963830Y-90480469D01*
X79113471Y-90842629D01*
X79390314Y-91119955D01*
X79587988Y-91202036D01*
X79522972Y-91358612D01*
X79522630Y-91750469D01*
X79672271Y-92112629D01*
X79949114Y-92389955D01*
X80311012Y-92540228D01*
X80702869Y-92540570D01*
X81065029Y-92390929D01*
X81088600Y-92367399D01*
X81088600Y-93455000D01*
X81146452Y-93745840D01*
X81188445Y-93808687D01*
X78546040Y-96451092D01*
X78546040Y-96255200D01*
X78521656Y-96125611D01*
X78546040Y-96005200D01*
X78546040Y-95755200D01*
X78521656Y-95625611D01*
X78546040Y-95505200D01*
X78546040Y-95255200D01*
X78521656Y-95125611D01*
X78546040Y-95005200D01*
X78546040Y-94755200D01*
X78526150Y-94649495D01*
X78533600Y-94631510D01*
X78533600Y-94601450D01*
X78513288Y-94581138D01*
X78501762Y-94519883D01*
X78411410Y-94379473D01*
X78495031Y-94257090D01*
X78510158Y-94182392D01*
X78533600Y-94158950D01*
X78533600Y-94128890D01*
X78525132Y-94108447D01*
X78546040Y-94005200D01*
X78546040Y-93755200D01*
X78521656Y-93625611D01*
X78546040Y-93505200D01*
X78546040Y-93255200D01*
X78521656Y-93125611D01*
X78546040Y-93005200D01*
X78546040Y-92755200D01*
X78521656Y-92625611D01*
X78546040Y-92505200D01*
X78546040Y-92255200D01*
X78521656Y-92125611D01*
X78546040Y-92005200D01*
X78546040Y-91755200D01*
X78521656Y-91625611D01*
X78546040Y-91505200D01*
X78546040Y-91255200D01*
X78521656Y-91125611D01*
X78546040Y-91005200D01*
X78546040Y-90755200D01*
X78521656Y-90625611D01*
X78546040Y-90505200D01*
X78546040Y-90255200D01*
X78521656Y-90125611D01*
X78546040Y-90005200D01*
X78546040Y-89755200D01*
X78521656Y-89625611D01*
X78546040Y-89505200D01*
X78546040Y-89255200D01*
X78501762Y-89019883D01*
X78362690Y-88803759D01*
X78150490Y-88658769D01*
X77898600Y-88607760D01*
X76907762Y-88607760D01*
X75019400Y-86719398D01*
X75019400Y-85967400D01*
X74961548Y-85676561D01*
X74796801Y-85429999D01*
X69948981Y-80582179D01*
X70049945Y-80074600D01*
X69935871Y-79501111D01*
X69611015Y-79014930D01*
X69596687Y-79005357D01*
X69617917Y-79001362D01*
X69834041Y-78862290D01*
X69979031Y-78650090D01*
X69995331Y-78569600D01*
X70996195Y-78569600D01*
X70996200Y-78569601D01*
X71392277Y-78490815D01*
X71728056Y-78266456D01*
X72452911Y-77541600D01*
X75827395Y-77541600D01*
X75827400Y-77541601D01*
X76223477Y-77462815D01*
X76559256Y-77238456D01*
X78339400Y-75458312D01*
X78455144Y-75574056D01*
X78790923Y-75798415D01*
X79187000Y-75877201D01*
X79187005Y-75877200D01*
X82403935Y-75877200D01*
X82444638Y-76093517D01*
X82583710Y-76309641D01*
X82795910Y-76454631D01*
X83047800Y-76505640D01*
X84775000Y-76505640D01*
X85010317Y-76461362D01*
X85226441Y-76322290D01*
X85371431Y-76110090D01*
X85379800Y-76068761D01*
X85391730Y-76086615D01*
X85877911Y-76411471D01*
X86451400Y-76525545D01*
X87024889Y-76411471D01*
X87511070Y-76086615D01*
X87721400Y-75771834D01*
X87931730Y-76086615D01*
X88417911Y-76411471D01*
X88991400Y-76525545D01*
X89564889Y-76411471D01*
X90051070Y-76086615D01*
X90261400Y-75771834D01*
X90471730Y-76086615D01*
X90957911Y-76411471D01*
X91531400Y-76525545D01*
X92104889Y-76411471D01*
X92591070Y-76086615D01*
X92801400Y-75771834D01*
X93011730Y-76086615D01*
X93497911Y-76411471D01*
X94071400Y-76525545D01*
X94644889Y-76411471D01*
X95131070Y-76086615D01*
X95337861Y-75777131D01*
X95709364Y-76192932D01*
X96236609Y-76446909D01*
X96252374Y-76449558D01*
X96484400Y-76328417D01*
X96484400Y-74969200D01*
X96464400Y-74969200D01*
X96464400Y-74715200D01*
X96484400Y-74715200D01*
X96484400Y-73355983D01*
X96252374Y-73234842D01*
X96236609Y-73237491D01*
X95709364Y-73491468D01*
X95337861Y-73907269D01*
X95131070Y-73597785D01*
X94644889Y-73272929D01*
X94071400Y-73158855D01*
X93497911Y-73272929D01*
X93011730Y-73597785D01*
X92801400Y-73912566D01*
X92591070Y-73597785D01*
X92104889Y-73272929D01*
X91531400Y-73158855D01*
X90957911Y-73272929D01*
X90471730Y-73597785D01*
X90261400Y-73912566D01*
X90139187Y-73729662D01*
X90139187Y-70273048D01*
X90666800Y-70055043D01*
X91070824Y-69651723D01*
X91124862Y-69521585D01*
X91177757Y-69649600D01*
X91581077Y-70053624D01*
X92108309Y-70272550D01*
X92679187Y-70273048D01*
X93206800Y-70055043D01*
X93610824Y-69651723D01*
X93664862Y-69521585D01*
X93717757Y-69649600D01*
X94121077Y-70053624D01*
X94648309Y-70272550D01*
X95219187Y-70273048D01*
X95746800Y-70055043D01*
X96150824Y-69651723D01*
X96204862Y-69521585D01*
X96257757Y-69649600D01*
X96661077Y-70053624D01*
X97188309Y-70272550D01*
X97759187Y-70273048D01*
X98286800Y-70055043D01*
X98690824Y-69651723D01*
X98909750Y-69124491D01*
X98910248Y-68553613D01*
X98692243Y-68026000D01*
X98288923Y-67621976D01*
X97761691Y-67403050D01*
X97190813Y-67402552D01*
X96663200Y-67620557D01*
X96259176Y-68023877D01*
X96205138Y-68154015D01*
X96152243Y-68026000D01*
X95748923Y-67621976D01*
X95221691Y-67403050D01*
X94650813Y-67402552D01*
X94123200Y-67620557D01*
X93719176Y-68023877D01*
X93665138Y-68154015D01*
X93612243Y-68026000D01*
X93208923Y-67621976D01*
X92681691Y-67403050D01*
X92110813Y-67402552D01*
X91583200Y-67620557D01*
X91179176Y-68023877D01*
X91125138Y-68154015D01*
X91072243Y-68026000D01*
X90668923Y-67621976D01*
X90141691Y-67403050D01*
X90139187Y-67403048D01*
X90139187Y-62673048D01*
X90666800Y-62455043D01*
X91070824Y-62051723D01*
X91124862Y-61921585D01*
X91177757Y-62049600D01*
X91581077Y-62453624D01*
X92108309Y-62672550D01*
X92679187Y-62673048D01*
X93206800Y-62455043D01*
X93610824Y-62051723D01*
X93664862Y-61921585D01*
X93717757Y-62049600D01*
X94121077Y-62453624D01*
X94648309Y-62672550D01*
X95219187Y-62673048D01*
X95746800Y-62455043D01*
X96150824Y-62051723D01*
X96204862Y-61921585D01*
X96257757Y-62049600D01*
X96661077Y-62453624D01*
X97188309Y-62672550D01*
X97759187Y-62673048D01*
X98286800Y-62455043D01*
X98690824Y-62051723D01*
X98909750Y-61524491D01*
X98910248Y-60953613D01*
X98692243Y-60426000D01*
X98336600Y-60069736D01*
X98336600Y-59125305D01*
X98478041Y-59034290D01*
X98623031Y-58822090D01*
X98674040Y-58570200D01*
X98674040Y-58070200D01*
X98629762Y-57834883D01*
X98490690Y-57618759D01*
X98420889Y-57571066D01*
X98478041Y-57534290D01*
X98623031Y-57322090D01*
X98674040Y-57070200D01*
X98674040Y-56570200D01*
X98629762Y-56334883D01*
X98490690Y-56118759D01*
X98278490Y-55973769D01*
X98026600Y-55922760D01*
X97126600Y-55922760D01*
X96891283Y-55967038D01*
X96746505Y-56060200D01*
X95610986Y-56060200D01*
X95484490Y-55973769D01*
X95232600Y-55922760D01*
X94332600Y-55922760D01*
X94097283Y-55967038D01*
X93952505Y-56060200D01*
X93219054Y-56060200D01*
X93219054Y-53542943D01*
X94371715Y-53066673D01*
X95254374Y-52185553D01*
X95732654Y-51033726D01*
X95733743Y-49786546D01*
X95257473Y-48633885D01*
X94376353Y-47751226D01*
X93224526Y-47272946D01*
X91977346Y-47271857D01*
X90824685Y-47748127D01*
X89942026Y-48629247D01*
X89463746Y-49781074D01*
X89462657Y-51028254D01*
X89938927Y-52180915D01*
X90820047Y-53063574D01*
X91971874Y-53541854D01*
X93219054Y-53542943D01*
X93219054Y-56060200D01*
X93070986Y-56060200D01*
X92944490Y-55973769D01*
X92692600Y-55922760D01*
X91792600Y-55922760D01*
X91557283Y-55967038D01*
X91341159Y-56106110D01*
X91268398Y-56212600D01*
X90429386Y-56212600D01*
X90302890Y-56126169D01*
X90051000Y-56075160D01*
X89778362Y-56075160D01*
X84233601Y-50530399D01*
X83987040Y-50365652D01*
X83696200Y-50307800D01*
X78039930Y-50307800D01*
X78039930Y-50167370D01*
X77995652Y-49932053D01*
X77856580Y-49715929D01*
X77644380Y-49570939D01*
X77392490Y-49519930D01*
X76120592Y-49519930D01*
X74032261Y-47431599D01*
X73785699Y-47266852D01*
X73494860Y-47209000D01*
X72708111Y-47209000D01*
X72633686Y-47134445D01*
X72271788Y-46984172D01*
X71879931Y-46983830D01*
X71517771Y-47133471D01*
X71240445Y-47410314D01*
X71090172Y-47772212D01*
X71089830Y-48164069D01*
X71239471Y-48526229D01*
X71516314Y-48803555D01*
X71878212Y-48953828D01*
X72270069Y-48954170D01*
X72632229Y-48804529D01*
X72707890Y-48729000D01*
X73180058Y-48729000D01*
X73970988Y-49519930D01*
X72955110Y-49519930D01*
X72719793Y-49564208D01*
X72503669Y-49703280D01*
X72427298Y-49815052D01*
X72206600Y-49770360D01*
X71506600Y-49770360D01*
X71271283Y-49814638D01*
X71055159Y-49953710D01*
X70910169Y-50165910D01*
X70907519Y-50178997D01*
X70770690Y-49966359D01*
X70558490Y-49821369D01*
X70306600Y-49770360D01*
X69606600Y-49770360D01*
X69371283Y-49814638D01*
X69155159Y-49953710D01*
X69010169Y-50165910D01*
X68959160Y-50417800D01*
X68959160Y-51717800D01*
X69003438Y-51953117D01*
X69142510Y-52169241D01*
X69354710Y-52314231D01*
X69547440Y-52353260D01*
X69547440Y-54554700D01*
X69507440Y-54546600D01*
X68707440Y-54546600D01*
X68500098Y-54585614D01*
X68307440Y-54546600D01*
X67507440Y-54546600D01*
X67300098Y-54585614D01*
X67107440Y-54546600D01*
X66307440Y-54546600D01*
X66072123Y-54590878D01*
X65855999Y-54729950D01*
X65711009Y-54942150D01*
X65660000Y-55194040D01*
X65660000Y-56494040D01*
X65704278Y-56729357D01*
X65843350Y-56945481D01*
X66055550Y-57090471D01*
X66307440Y-57141480D01*
X67107440Y-57141480D01*
X67314782Y-57102466D01*
X67507440Y-57141480D01*
X68307440Y-57141480D01*
X68347440Y-57133953D01*
X68347440Y-57498240D01*
X68395694Y-57740826D01*
X68405292Y-57789080D01*
X68570039Y-58035641D01*
X69302399Y-58768001D01*
X69548961Y-58932748D01*
X69839800Y-58990600D01*
X75353489Y-58990600D01*
X75427914Y-59065155D01*
X75789812Y-59215428D01*
X76181669Y-59215770D01*
X76543829Y-59066129D01*
X76821155Y-58789286D01*
X76971428Y-58427388D01*
X76971770Y-58035531D01*
X76822129Y-57673371D01*
X76545286Y-57396045D01*
X76183388Y-57245772D01*
X75791531Y-57245430D01*
X75429371Y-57395071D01*
X75353710Y-57470600D01*
X72497535Y-57470600D01*
X72501028Y-57462188D01*
X72501308Y-57141480D01*
X73107440Y-57141480D01*
X73314782Y-57102466D01*
X73507440Y-57141480D01*
X74307440Y-57141480D01*
X74514782Y-57102466D01*
X74707440Y-57141480D01*
X75507440Y-57141480D01*
X75714782Y-57102466D01*
X75907440Y-57141480D01*
X76707440Y-57141480D01*
X76916290Y-57102182D01*
X76981130Y-57129040D01*
X77221690Y-57129040D01*
X77380440Y-56970290D01*
X77380440Y-55971040D01*
X77360440Y-55971040D01*
X77360440Y-55717040D01*
X77380440Y-55717040D01*
X77380440Y-54717790D01*
X77221690Y-54559040D01*
X76981130Y-54559040D01*
X76911433Y-54587910D01*
X76707440Y-54546600D01*
X75907440Y-54546600D01*
X75700098Y-54585614D01*
X75507440Y-54546600D01*
X74707440Y-54546600D01*
X74500098Y-54585614D01*
X74307440Y-54546600D01*
X73507440Y-54546600D01*
X73300098Y-54585614D01*
X73107440Y-54546600D01*
X72307440Y-54546600D01*
X72100098Y-54585614D01*
X71907440Y-54546600D01*
X71107440Y-54546600D01*
X71067440Y-54554127D01*
X71067440Y-52186275D01*
X71254710Y-52314231D01*
X71506600Y-52365240D01*
X72206600Y-52365240D01*
X72429059Y-52323381D01*
X72491020Y-52419671D01*
X72703220Y-52564661D01*
X72955110Y-52615670D01*
X74552770Y-52615670D01*
X74788087Y-52571392D01*
X75004211Y-52432320D01*
X75149201Y-52220120D01*
X75172830Y-52103434D01*
X75191668Y-52203547D01*
X75330740Y-52419671D01*
X75542940Y-52564661D01*
X75794830Y-52615670D01*
X77392490Y-52615670D01*
X77627807Y-52571392D01*
X77843931Y-52432320D01*
X77988921Y-52220120D01*
X78039930Y-51968230D01*
X78039930Y-51827800D01*
X83381398Y-51827800D01*
X88503560Y-56949962D01*
X88503560Y-57222600D01*
X88547838Y-57457917D01*
X88686910Y-57674041D01*
X88756711Y-57721734D01*
X88699559Y-57758510D01*
X88554569Y-57970710D01*
X88503560Y-58222600D01*
X88503560Y-58722600D01*
X88547838Y-58957917D01*
X88686910Y-59174041D01*
X88841000Y-59279326D01*
X88841000Y-60222405D01*
X88639176Y-60423877D01*
X88420250Y-60951109D01*
X88419752Y-61521987D01*
X88637757Y-62049600D01*
X89041077Y-62453624D01*
X89568309Y-62672550D01*
X90139187Y-62673048D01*
X90139187Y-67403048D01*
X89570813Y-67402552D01*
X89043200Y-67620557D01*
X88639176Y-68023877D01*
X88420250Y-68551109D01*
X88419752Y-69121987D01*
X88637757Y-69649600D01*
X89041077Y-70053624D01*
X89568309Y-70272550D01*
X90139187Y-70273048D01*
X90139187Y-73729662D01*
X90051070Y-73597785D01*
X89564889Y-73272929D01*
X88991400Y-73158855D01*
X88417911Y-73272929D01*
X87931730Y-73597785D01*
X87721400Y-73912566D01*
X87511070Y-73597785D01*
X87024889Y-73272929D01*
X86451400Y-73158855D01*
X85877911Y-73272929D01*
X85391730Y-73597785D01*
X85382157Y-73612113D01*
X85378162Y-73590883D01*
X85239090Y-73374759D01*
X85026890Y-73229769D01*
X84775000Y-73178760D01*
X83047800Y-73178760D01*
X82812483Y-73223038D01*
X82596359Y-73362110D01*
X82451369Y-73574310D01*
X82404208Y-73807200D01*
X82057440Y-73807200D01*
X82057440Y-67691480D01*
X83357440Y-67691480D01*
X83592757Y-67647202D01*
X83808881Y-67508130D01*
X83953871Y-67295930D01*
X84004880Y-67044040D01*
X84004880Y-66244040D01*
X83991459Y-66172716D01*
X83992440Y-66170349D01*
X83992440Y-65929790D01*
X83833690Y-65771040D01*
X83789977Y-65771040D01*
X83609330Y-65647609D01*
X83357440Y-65596600D01*
X82057440Y-65596600D01*
X81822123Y-65640878D01*
X81619846Y-65771040D01*
X81581190Y-65771040D01*
X81581190Y-65517040D01*
X82580440Y-65517040D01*
X82580440Y-65497040D01*
X82834440Y-65497040D01*
X82834440Y-65517040D01*
X83833690Y-65517040D01*
X83992440Y-65358290D01*
X83992440Y-65117731D01*
X83946473Y-65006757D01*
X83953871Y-64995930D01*
X84004880Y-64744040D01*
X84004880Y-63944040D01*
X83965866Y-63736698D01*
X84004880Y-63544040D01*
X84004880Y-62744040D01*
X83965866Y-62536698D01*
X84004880Y-62344040D01*
X84004880Y-61544040D01*
X83965866Y-61336698D01*
X84004880Y-61144040D01*
X84004880Y-60344040D01*
X83960602Y-60108723D01*
X83945101Y-60084634D01*
X83992440Y-59970349D01*
X83992440Y-59729790D01*
X83833690Y-59571040D01*
X82834440Y-59571040D01*
X82834440Y-59591040D01*
X82580440Y-59591040D01*
X82580440Y-59571040D01*
X82057440Y-59571040D01*
X82057440Y-59491480D01*
X83357440Y-59491480D01*
X83592757Y-59447202D01*
X83795034Y-59317040D01*
X83833690Y-59317040D01*
X83992440Y-59158290D01*
X83992440Y-58917731D01*
X83990772Y-58913705D01*
X84004880Y-58844040D01*
X84004880Y-58044040D01*
X83960602Y-57808723D01*
X83821530Y-57592599D01*
X83609330Y-57447609D01*
X83357440Y-57396600D01*
X82057440Y-57396600D01*
X81822123Y-57440878D01*
X81605999Y-57579950D01*
X81461009Y-57792150D01*
X81410000Y-58044040D01*
X81410000Y-58844040D01*
X81423421Y-58915364D01*
X81422440Y-58917731D01*
X81422440Y-59158290D01*
X81581190Y-59317040D01*
X81624903Y-59317040D01*
X81805550Y-59440471D01*
X82057440Y-59491480D01*
X82057440Y-59571040D01*
X81581190Y-59571040D01*
X81422440Y-59729790D01*
X81422440Y-59970349D01*
X81468407Y-60081323D01*
X81461009Y-60092150D01*
X81410000Y-60344040D01*
X81410000Y-61144040D01*
X81449014Y-61351382D01*
X81410000Y-61544040D01*
X81410000Y-62344040D01*
X81449014Y-62551382D01*
X81410000Y-62744040D01*
X81410000Y-63544040D01*
X81449014Y-63751382D01*
X81410000Y-63944040D01*
X81410000Y-64744040D01*
X81454278Y-64979357D01*
X81469779Y-65003446D01*
X81422440Y-65117731D01*
X81422440Y-65358290D01*
X81581190Y-65517040D01*
X81581190Y-65771040D01*
X81422440Y-65929790D01*
X81422440Y-66170349D01*
X81424108Y-66174375D01*
X81410000Y-66244040D01*
X81410000Y-67044040D01*
X81454278Y-67279357D01*
X81593350Y-67495481D01*
X81805550Y-67640471D01*
X82057440Y-67691480D01*
X82057440Y-73807200D01*
X80625150Y-73807200D01*
X80625150Y-72952600D01*
X80965709Y-72952600D01*
X81199098Y-72855927D01*
X81377727Y-72677299D01*
X81474400Y-72443910D01*
X81474400Y-71978350D01*
X81315650Y-71819600D01*
X80466400Y-71819600D01*
X80466400Y-72793850D01*
X80625150Y-72952600D01*
X80625150Y-73807200D01*
X79615712Y-73807200D01*
X79374400Y-73565889D01*
X79374400Y-72750626D01*
X79479702Y-72855927D01*
X79713091Y-72952600D01*
X80053650Y-72952600D01*
X80212400Y-72793850D01*
X80212400Y-71819600D01*
X80192400Y-71819600D01*
X80192400Y-71565600D01*
X80212400Y-71565600D01*
X80212400Y-71545600D01*
X80466400Y-71545600D01*
X80466400Y-71565600D01*
X81315650Y-71565600D01*
X81474400Y-71406850D01*
X81474400Y-70941290D01*
X81377727Y-70707901D01*
X81199098Y-70529273D01*
X80965709Y-70432600D01*
X80666576Y-70432600D01*
X80667139Y-70432367D01*
X80845767Y-70253738D01*
X80942440Y-70020349D01*
X80942440Y-69529790D01*
X80783690Y-69371040D01*
X80034440Y-69371040D01*
X80034440Y-69117040D01*
X80783690Y-69117040D01*
X80942440Y-68958290D01*
X80942440Y-68467731D01*
X80845767Y-68234342D01*
X80667139Y-68055713D01*
X80433750Y-67959040D01*
X80193190Y-67959040D01*
X80034440Y-68117790D01*
X80034440Y-69117040D01*
X80034440Y-69371040D01*
X80034440Y-69391040D01*
X79780440Y-69391040D01*
X79780440Y-69371040D01*
X79760440Y-69371040D01*
X79760440Y-69117040D01*
X79780440Y-69117040D01*
X79780440Y-68117790D01*
X79621690Y-67959040D01*
X79467440Y-67959040D01*
X79467440Y-64202640D01*
X79409588Y-63911801D01*
X79244841Y-63665239D01*
X78874069Y-63294467D01*
X78874069Y-62466970D01*
X79236229Y-62317329D01*
X79513555Y-62040486D01*
X79580695Y-61878796D01*
X79650612Y-61907828D01*
X80042469Y-61908170D01*
X80404629Y-61758529D01*
X80681955Y-61481686D01*
X80832228Y-61119788D01*
X80832570Y-60727931D01*
X80682929Y-60365771D01*
X80667440Y-60350255D01*
X80667440Y-57016971D01*
X80758881Y-56958130D01*
X80903871Y-56745930D01*
X80954880Y-56494040D01*
X80954880Y-55194040D01*
X80910602Y-54958723D01*
X80771530Y-54742599D01*
X80559330Y-54597609D01*
X80307440Y-54546600D01*
X79507440Y-54546600D01*
X79300098Y-54585614D01*
X79107440Y-54546600D01*
X78307440Y-54546600D01*
X78098590Y-54585898D01*
X78033750Y-54559040D01*
X77793190Y-54559040D01*
X77634440Y-54717790D01*
X77634440Y-55717040D01*
X77654440Y-55717040D01*
X77654440Y-55971040D01*
X77634440Y-55971040D01*
X77634440Y-56970290D01*
X77793190Y-57129040D01*
X77947440Y-57129040D01*
X77947440Y-60820298D01*
X77844445Y-60923114D01*
X77694172Y-61285012D01*
X77693830Y-61676869D01*
X77843471Y-62039029D01*
X78120314Y-62316355D01*
X78482212Y-62466628D01*
X78874069Y-62466970D01*
X78874069Y-63294467D01*
X76574801Y-60995199D01*
X76328239Y-60830452D01*
X76037400Y-60772600D01*
X71424602Y-60772600D01*
X70672478Y-60020476D01*
X70672570Y-59915131D01*
X70522929Y-59552971D01*
X70246086Y-59275645D01*
X69884188Y-59125372D01*
X69492331Y-59125030D01*
X69130171Y-59274671D01*
X68852845Y-59551514D01*
X68702572Y-59913412D01*
X68702230Y-60305269D01*
X68851871Y-60667429D01*
X69128714Y-60944755D01*
X69490612Y-61095028D01*
X69597519Y-61095121D01*
X70572399Y-62070001D01*
X70818961Y-62234748D01*
X71109800Y-62292600D01*
X75722598Y-62292600D01*
X77947440Y-64517442D01*
X77947440Y-67954700D01*
X77907440Y-67946600D01*
X77107440Y-67946600D01*
X76900098Y-67985614D01*
X76707440Y-67946600D01*
X75907440Y-67946600D01*
X75700098Y-67985614D01*
X75507440Y-67946600D01*
X74707440Y-67946600D01*
X74500098Y-67985614D01*
X74307440Y-67946600D01*
X73507440Y-67946600D01*
X73300098Y-67985614D01*
X73107440Y-67946600D01*
X72307440Y-67946600D01*
X72100098Y-67985614D01*
X71907440Y-67946600D01*
X71107440Y-67946600D01*
X70955400Y-67975208D01*
X70955400Y-67398111D01*
X71029955Y-67323686D01*
X71180228Y-66961788D01*
X71180570Y-66569931D01*
X71030929Y-66207771D01*
X70754086Y-65930445D01*
X70392188Y-65780172D01*
X70000331Y-65779830D01*
X69888600Y-65825996D01*
X69888600Y-64604111D01*
X69963155Y-64529686D01*
X70113428Y-64167788D01*
X70113770Y-63775931D01*
X69964129Y-63413771D01*
X69687286Y-63136445D01*
X69325388Y-62986172D01*
X68933531Y-62985830D01*
X68571371Y-63135471D01*
X68294045Y-63412314D01*
X68143772Y-63774212D01*
X68143430Y-64166069D01*
X68293071Y-64528229D01*
X68368600Y-64603890D01*
X68368600Y-67958985D01*
X68307440Y-67946600D01*
X67507440Y-67946600D01*
X67298590Y-67985898D01*
X67233750Y-67959040D01*
X66993190Y-67959040D01*
X66834440Y-68117790D01*
X66834440Y-69117040D01*
X66854440Y-69117040D01*
X66854440Y-69371040D01*
X66834440Y-69371040D01*
X66834440Y-70370290D01*
X66993190Y-70529040D01*
X67233750Y-70529040D01*
X67303447Y-70500170D01*
X67507440Y-70541480D01*
X68307440Y-70541480D01*
X68514782Y-70502466D01*
X68707440Y-70541480D01*
X69507440Y-70541480D01*
X69714782Y-70502466D01*
X69907440Y-70541480D01*
X70707440Y-70541480D01*
X70747440Y-70533953D01*
X70747440Y-74489840D01*
X70805292Y-74780679D01*
X70926760Y-74962469D01*
X70926760Y-75256600D01*
X70971038Y-75491917D01*
X71110110Y-75708041D01*
X71179911Y-75755734D01*
X71122759Y-75792510D01*
X70977769Y-76004710D01*
X70956284Y-76110804D01*
X70567488Y-76499600D01*
X69997789Y-76499600D01*
X69985762Y-76435683D01*
X69846690Y-76219559D01*
X69634490Y-76074569D01*
X69382600Y-76023560D01*
X67350600Y-76023560D01*
X67115283Y-76067838D01*
X66899159Y-76206910D01*
X66754169Y-76419110D01*
X66727077Y-76552893D01*
X66598923Y-76578385D01*
X66421690Y-76696808D01*
X66263144Y-76802744D01*
X66263142Y-76802747D01*
X66181130Y-76884758D01*
X66181130Y-70529040D01*
X66421690Y-70529040D01*
X66580440Y-70370290D01*
X66580440Y-69371040D01*
X65831190Y-69371040D01*
X65831190Y-69117040D01*
X66580440Y-69117040D01*
X66580440Y-68117790D01*
X66421690Y-67959040D01*
X66181130Y-67959040D01*
X65947741Y-68055713D01*
X65769113Y-68234342D01*
X65672440Y-68467731D01*
X65672440Y-68958290D01*
X65831190Y-69117040D01*
X65831190Y-69371040D01*
X65672440Y-69529790D01*
X65672440Y-70020349D01*
X65769113Y-70253738D01*
X65947741Y-70432367D01*
X66181130Y-70529040D01*
X66181130Y-76884758D01*
X64332744Y-78733144D01*
X64108385Y-79068923D01*
X64029599Y-79465000D01*
X64029600Y-79465005D01*
X64029600Y-104356995D01*
X64029599Y-104357000D01*
X64108385Y-104753077D01*
X64332744Y-105088856D01*
X64332747Y-105088858D01*
X66567944Y-107324056D01*
X66903723Y-107548415D01*
X67299800Y-107627201D01*
X67299805Y-107627200D01*
X74656243Y-107627200D01*
X74682910Y-107668641D01*
X74812000Y-107756844D01*
X74812000Y-108449000D01*
X74875560Y-108768540D01*
X75056566Y-109039434D01*
X75434692Y-109417560D01*
X75357600Y-109417560D01*
X75122283Y-109461838D01*
X74906159Y-109600910D01*
X74761169Y-109813110D01*
X74710160Y-110065000D01*
X74710160Y-110865000D01*
X74754438Y-111100317D01*
X74820929Y-111203646D01*
X74819273Y-111205302D01*
X74722600Y-111438691D01*
X74722600Y-111679250D01*
X74881350Y-111838000D01*
X75605600Y-111838000D01*
X75605600Y-111818000D01*
X75859600Y-111818000D01*
X75859600Y-111838000D01*
X76583850Y-111838000D01*
X76742600Y-111679250D01*
X76742600Y-111438691D01*
X76645927Y-111205302D01*
X76644557Y-111203932D01*
X76704031Y-111116890D01*
X76755040Y-110865000D01*
X76755040Y-110623428D01*
X77022385Y-110356083D01*
X77166032Y-110454233D01*
X77003359Y-110558910D01*
X76858369Y-110771110D01*
X76807360Y-111023000D01*
X76807360Y-112083000D01*
X76851638Y-112318317D01*
X76944800Y-112463095D01*
X76944800Y-113210794D01*
X76933709Y-113206200D01*
X76593150Y-113206200D01*
X76434400Y-113364950D01*
X76434400Y-114339200D01*
X76454400Y-114339200D01*
X76454400Y-114593200D01*
X76434400Y-114593200D01*
X76434400Y-115567450D01*
X76593150Y-115726200D01*
X76933709Y-115726200D01*
X77167098Y-115629527D01*
X77308336Y-115488290D01*
X77343310Y-115542641D01*
X77555510Y-115687631D01*
X77807400Y-115738640D01*
X78098000Y-115738640D01*
X78098000Y-115977843D01*
X78034131Y-115955771D01*
X77860000Y-116104437D01*
X77860000Y-116930000D01*
X77880000Y-116930000D01*
X77880000Y-117184000D01*
X77860000Y-117184000D01*
X77860000Y-118009563D01*
X78034131Y-118158229D01*
X78212926Y-118096440D01*
X78268910Y-118183441D01*
X78481110Y-118328431D01*
X78733000Y-118379440D01*
X79133000Y-118379440D01*
X79262589Y-118355056D01*
X79383000Y-118379440D01*
X79783000Y-118379440D01*
X79912589Y-118355056D01*
X80033000Y-118379440D01*
X80433000Y-118379440D01*
X80562589Y-118355056D01*
X80683000Y-118379440D01*
X81083000Y-118379440D01*
X81188705Y-118359550D01*
X81206690Y-118367000D01*
X81274250Y-118367000D01*
X81303254Y-118337996D01*
X81318317Y-118335162D01*
X81534441Y-118196090D01*
X81633000Y-118051844D01*
X81633000Y-118208250D01*
X81791750Y-118367000D01*
X81859310Y-118367000D01*
X82092699Y-118270327D01*
X82263115Y-118099910D01*
X82431869Y-118158229D01*
X82606000Y-118009563D01*
X82606000Y-117184000D01*
X82586000Y-117184000D01*
X82586000Y-116930000D01*
X82606000Y-116930000D01*
X82606000Y-116104437D01*
X82431869Y-115955771D01*
X82263115Y-116014090D01*
X82092699Y-115843673D01*
X81859310Y-115747000D01*
X81791750Y-115747000D01*
X81660002Y-115878748D01*
X81660002Y-115747000D01*
X81643000Y-115747000D01*
X81643000Y-115675802D01*
X85886001Y-111432801D01*
X86050748Y-111186239D01*
X86108600Y-110895400D01*
X86108600Y-103409800D01*
X86302869Y-103409970D01*
X86665029Y-103260329D01*
X86707400Y-103218032D01*
X86707400Y-104355400D01*
X86765252Y-104646239D01*
X86929999Y-104892801D01*
X89382757Y-107345559D01*
X89252969Y-107535510D01*
X89201960Y-107787400D01*
X89201960Y-108787400D01*
X89246238Y-109022717D01*
X89385310Y-109238841D01*
X89597510Y-109383831D01*
X89740200Y-109412726D01*
X89740200Y-109413843D01*
X89698759Y-109440510D01*
X89553769Y-109652710D01*
X89551119Y-109665797D01*
X89414290Y-109453159D01*
X89202090Y-109308169D01*
X88950200Y-109257160D01*
X88250200Y-109257160D01*
X88014883Y-109301438D01*
X87798759Y-109440510D01*
X87653769Y-109652710D01*
X87602760Y-109904600D01*
X87602760Y-110045416D01*
X87527185Y-110158523D01*
X87448400Y-110554600D01*
X87527185Y-110950677D01*
X87565200Y-111007571D01*
X87565200Y-114786195D01*
X87565199Y-114786200D01*
X87643985Y-115182277D01*
X87868344Y-115518056D01*
X87868347Y-115518058D01*
X91155144Y-118804856D01*
X91490923Y-119029215D01*
X91887000Y-119108001D01*
X91887005Y-119108000D01*
X94443535Y-119108000D01*
X94484238Y-119324317D01*
X94623310Y-119540441D01*
X94835510Y-119685431D01*
X94990351Y-119716787D01*
X94994785Y-119739077D01*
X95219144Y-120074856D01*
X95219147Y-120074858D01*
X96946344Y-121802056D01*
X97282123Y-122026415D01*
X97678200Y-122105201D01*
X97678200Y-122873600D01*
X84034874Y-122873600D01*
X84034874Y-121126119D01*
X84445763Y-120924368D01*
X84733002Y-120583678D01*
X84868000Y-120159000D01*
X84868000Y-119884000D01*
X83860000Y-119884000D01*
X83860000Y-119630000D01*
X84868000Y-119630000D01*
X84868000Y-119355000D01*
X84733002Y-118930322D01*
X84445763Y-118589632D01*
X84034874Y-118387881D01*
X83860000Y-118514046D01*
X83860000Y-119630000D01*
X83860000Y-119884000D01*
X83860000Y-120999954D01*
X84034874Y-121126119D01*
X84034874Y-122873600D01*
X83431126Y-122873600D01*
X83431126Y-121126119D01*
X83606000Y-120999954D01*
X83606000Y-119884000D01*
X82598000Y-119884000D01*
X82598000Y-119630000D01*
X83606000Y-119630000D01*
X83606000Y-118514046D01*
X83431126Y-118387881D01*
X83034131Y-118582809D01*
X83034131Y-118158229D01*
X83444049Y-118016568D01*
X83768552Y-117728821D01*
X83952268Y-117354938D01*
X83825734Y-117184000D01*
X82860000Y-117184000D01*
X82860000Y-116930000D01*
X83825734Y-116930000D01*
X83952268Y-116759062D01*
X83768552Y-116385179D01*
X83444049Y-116097432D01*
X83034131Y-115955771D01*
X82860000Y-116104437D01*
X82860000Y-116930000D01*
X82860000Y-117184000D01*
X82860000Y-118009563D01*
X83034131Y-118158229D01*
X83034131Y-118582809D01*
X83020237Y-118589632D01*
X82732998Y-118930322D01*
X82598000Y-119355000D01*
X82598000Y-119630000D01*
X82598000Y-119884000D01*
X82598000Y-120159000D01*
X82732998Y-120583678D01*
X83020237Y-120924368D01*
X83431126Y-121126119D01*
X83431126Y-122873600D01*
X77034874Y-122873600D01*
X77034874Y-121126119D01*
X77445763Y-120924368D01*
X77733002Y-120583678D01*
X77868000Y-120159000D01*
X77868000Y-119884000D01*
X76860000Y-119884000D01*
X76860000Y-119630000D01*
X77868000Y-119630000D01*
X77868000Y-119355000D01*
X77733002Y-118930322D01*
X77445763Y-118589632D01*
X77431869Y-118582810D01*
X77431869Y-118158229D01*
X77606000Y-118009563D01*
X77606000Y-117184000D01*
X76640266Y-117184000D01*
X76640266Y-116930000D01*
X77606000Y-116930000D01*
X77606000Y-116104437D01*
X77431869Y-115955771D01*
X77021951Y-116097432D01*
X76697448Y-116385179D01*
X76513732Y-116759062D01*
X76640266Y-116930000D01*
X76640266Y-117184000D01*
X76513732Y-117354938D01*
X76697448Y-117728821D01*
X77021951Y-118016568D01*
X77431869Y-118158229D01*
X77431869Y-118582810D01*
X77034874Y-118387881D01*
X76860000Y-118514046D01*
X76860000Y-119630000D01*
X76860000Y-119884000D01*
X76860000Y-120999954D01*
X77034874Y-121126119D01*
X77034874Y-122873600D01*
X76431126Y-122873600D01*
X76431126Y-121126119D01*
X76606000Y-120999954D01*
X76606000Y-119884000D01*
X75598000Y-119884000D01*
X75598000Y-119630000D01*
X76606000Y-119630000D01*
X76606000Y-118514046D01*
X76431126Y-118387881D01*
X76020237Y-118589632D01*
X75732998Y-118930322D01*
X75681091Y-119093611D01*
X75681091Y-115726200D01*
X76021650Y-115726200D01*
X76180400Y-115567450D01*
X76180400Y-114593200D01*
X75331150Y-114593200D01*
X75331150Y-114339200D01*
X76180400Y-114339200D01*
X76180400Y-113364950D01*
X76021650Y-113206200D01*
X76018350Y-113206200D01*
X76018350Y-113000000D01*
X76233910Y-113000000D01*
X76467299Y-112903327D01*
X76645927Y-112724698D01*
X76742600Y-112491309D01*
X76742600Y-112250750D01*
X76583850Y-112092000D01*
X75859600Y-112092000D01*
X75859600Y-112841250D01*
X76018350Y-113000000D01*
X76018350Y-113206200D01*
X75681091Y-113206200D01*
X75447702Y-113302873D01*
X75269073Y-113481501D01*
X75231290Y-113572717D01*
X75231290Y-113000000D01*
X75446850Y-113000000D01*
X75605600Y-112841250D01*
X75605600Y-112092000D01*
X74881350Y-112092000D01*
X74722600Y-112250750D01*
X74722600Y-112491309D01*
X74819273Y-112724698D01*
X74997901Y-112903327D01*
X75231290Y-113000000D01*
X75231290Y-113572717D01*
X75172400Y-113714890D01*
X75172400Y-114180450D01*
X75331150Y-114339200D01*
X75331150Y-114593200D01*
X75172400Y-114751950D01*
X75172400Y-115217510D01*
X75269073Y-115450899D01*
X75447702Y-115629527D01*
X75681091Y-115726200D01*
X75681091Y-119093611D01*
X75598000Y-119355000D01*
X75598000Y-119630000D01*
X75598000Y-119884000D01*
X75598000Y-120159000D01*
X75732998Y-120583678D01*
X76020237Y-120924368D01*
X76431126Y-121126119D01*
X76431126Y-122873600D01*
X61838800Y-122873600D01*
X61838800Y-119127706D01*
X62303727Y-120252915D01*
G36*
X89895031Y-93757090D02*
X89910158Y-93682392D01*
X89933600Y-93658950D01*
X89933600Y-93628890D01*
X89925132Y-93608447D01*
X89946040Y-93505200D01*
X89946040Y-93255200D01*
X89921656Y-93125611D01*
X89946040Y-93005200D01*
X89946040Y-92755200D01*
X89921656Y-92625611D01*
X89946040Y-92505200D01*
X89946040Y-92255200D01*
X89921656Y-92125611D01*
X89946040Y-92005200D01*
X89946040Y-91755200D01*
X89924401Y-91640200D01*
X90510589Y-91640200D01*
X90493645Y-91657114D01*
X90343372Y-92019012D01*
X90343030Y-92410869D01*
X90492671Y-92773029D01*
X90568200Y-92848690D01*
X90568200Y-93245800D01*
X89859615Y-93954385D01*
X89811410Y-93879473D01*
X89895031Y-93757090D01*
X89895031Y-93757090D01*
G37*
X89895031Y-93757090D02*
X89910158Y-93682392D01*
X89933600Y-93658950D01*
X89933600Y-93628890D01*
X89925132Y-93608447D01*
X89946040Y-93505200D01*
X89946040Y-93255200D01*
X89921656Y-93125611D01*
X89946040Y-93005200D01*
X89946040Y-92755200D01*
X89921656Y-92625611D01*
X89946040Y-92505200D01*
X89946040Y-92255200D01*
X89921656Y-92125611D01*
X89946040Y-92005200D01*
X89946040Y-91755200D01*
X89924401Y-91640200D01*
X90510589Y-91640200D01*
X90493645Y-91657114D01*
X90343372Y-92019012D01*
X90343030Y-92410869D01*
X90492671Y-92773029D01*
X90568200Y-92848690D01*
X90568200Y-93245800D01*
X89859615Y-93954385D01*
X89811410Y-93879473D01*
X89895031Y-93757090D01*
G36*
X73528701Y-101518527D02*
X73762090Y-101615200D01*
X74227650Y-101615200D01*
X74386400Y-101456450D01*
X74386400Y-100607200D01*
X74366400Y-100607200D01*
X74366400Y-100353200D01*
X74386400Y-100353200D01*
X74386400Y-100333200D01*
X74640400Y-100333200D01*
X74640400Y-100353200D01*
X75614650Y-100353200D01*
X75773400Y-100194450D01*
X75773400Y-99853891D01*
X75676727Y-99620502D01*
X75535490Y-99479264D01*
X75589841Y-99444290D01*
X75678044Y-99315200D01*
X77697800Y-99315200D01*
X78017341Y-99251639D01*
X78207148Y-99124814D01*
X78288234Y-99070634D01*
X78576160Y-98782708D01*
X78576160Y-99330200D01*
X78585643Y-99380600D01*
X77612200Y-99380600D01*
X77321361Y-99438452D01*
X77074799Y-99603199D01*
X76515999Y-100161999D01*
X76351252Y-100408561D01*
X76293400Y-100699400D01*
X76293400Y-101023756D01*
X76226959Y-101066510D01*
X76081969Y-101278710D01*
X76030960Y-101530600D01*
X76030960Y-102330600D01*
X76075238Y-102565917D01*
X76141729Y-102669246D01*
X76140073Y-102670902D01*
X76043400Y-102904291D01*
X76043400Y-103144850D01*
X76202150Y-103303600D01*
X76926400Y-103303600D01*
X76926400Y-103283600D01*
X77180400Y-103283600D01*
X77180400Y-103303600D01*
X77200400Y-103303600D01*
X77200400Y-103557600D01*
X77180400Y-103557600D01*
X77180400Y-104306850D01*
X77339150Y-104465600D01*
X77507600Y-104465600D01*
X77507600Y-104505309D01*
X77604273Y-104738698D01*
X77782901Y-104917327D01*
X78016290Y-105014000D01*
X78456850Y-105014000D01*
X78615600Y-104855250D01*
X78615600Y-103806000D01*
X78595600Y-103806000D01*
X78595600Y-103552000D01*
X78615600Y-103552000D01*
X78615600Y-103532000D01*
X78869600Y-103532000D01*
X78869600Y-103552000D01*
X78889600Y-103552000D01*
X78889600Y-103806000D01*
X78869600Y-103806000D01*
X78869600Y-104855250D01*
X79028350Y-105014000D01*
X79468910Y-105014000D01*
X79538607Y-104985130D01*
X79742600Y-105026440D01*
X80942600Y-105026440D01*
X81177917Y-104982162D01*
X81394041Y-104843090D01*
X81539031Y-104630890D01*
X81579925Y-104428950D01*
X81820239Y-104381148D01*
X82055368Y-104224040D01*
X82406800Y-104224040D01*
X82642117Y-104179762D01*
X82858241Y-104040690D01*
X83003231Y-103828490D01*
X83054240Y-103576600D01*
X83054240Y-103228962D01*
X83588600Y-102694602D01*
X83588600Y-104081374D01*
X83423531Y-104081230D01*
X83061371Y-104230871D01*
X82784045Y-104507714D01*
X82633772Y-104869612D01*
X82633430Y-105261469D01*
X82783071Y-105623629D01*
X82858600Y-105699290D01*
X82858600Y-108917198D01*
X80982798Y-110793000D01*
X80608962Y-110793000D01*
X80607962Y-110787683D01*
X80468890Y-110571559D01*
X80439800Y-110551683D01*
X80439800Y-110453000D01*
X80422989Y-110368487D01*
X80456241Y-110347090D01*
X80601231Y-110134890D01*
X80652240Y-109883000D01*
X80652240Y-108823000D01*
X80607962Y-108587683D01*
X80468890Y-108371559D01*
X80256690Y-108226569D01*
X80195478Y-108214173D01*
X80346415Y-107988279D01*
X80418239Y-107627200D01*
X81422200Y-107627200D01*
X81818277Y-107548415D01*
X82154056Y-107324056D01*
X82378415Y-106988277D01*
X82457200Y-106592200D01*
X82378415Y-106196123D01*
X82154056Y-105860344D01*
X81818277Y-105635985D01*
X81422200Y-105557200D01*
X78637757Y-105557200D01*
X78611090Y-105515759D01*
X78398890Y-105370769D01*
X78147000Y-105319760D01*
X77147000Y-105319760D01*
X76911683Y-105364038D01*
X76695559Y-105503110D01*
X76647866Y-105572911D01*
X76611090Y-105515759D01*
X76552090Y-105475447D01*
X76552090Y-104465600D01*
X76767650Y-104465600D01*
X76926400Y-104306850D01*
X76926400Y-103557600D01*
X76202150Y-103557600D01*
X76043400Y-103716350D01*
X76043400Y-103956909D01*
X76140073Y-104190298D01*
X76318701Y-104368927D01*
X76552090Y-104465600D01*
X76552090Y-105475447D01*
X76398890Y-105370769D01*
X76147000Y-105319760D01*
X75147000Y-105319760D01*
X74911683Y-105364038D01*
X74799150Y-105436451D01*
X74799150Y-101615200D01*
X75264710Y-101615200D01*
X75498099Y-101518527D01*
X75676727Y-101339898D01*
X75773400Y-101106509D01*
X75773400Y-100765950D01*
X75614650Y-100607200D01*
X74640400Y-100607200D01*
X74640400Y-101456450D01*
X74799150Y-101615200D01*
X74799150Y-105436451D01*
X74695559Y-105503110D01*
X74658601Y-105557200D01*
X74557668Y-105557200D01*
X73519600Y-104519132D01*
X73519600Y-101509426D01*
X73528701Y-101518527D01*
X73528701Y-101518527D01*
G37*
X73528701Y-101518527D02*
X73762090Y-101615200D01*
X74227650Y-101615200D01*
X74386400Y-101456450D01*
X74386400Y-100607200D01*
X74366400Y-100607200D01*
X74366400Y-100353200D01*
X74386400Y-100353200D01*
X74386400Y-100333200D01*
X74640400Y-100333200D01*
X74640400Y-100353200D01*
X75614650Y-100353200D01*
X75773400Y-100194450D01*
X75773400Y-99853891D01*
X75676727Y-99620502D01*
X75535490Y-99479264D01*
X75589841Y-99444290D01*
X75678044Y-99315200D01*
X77697800Y-99315200D01*
X78017341Y-99251639D01*
X78207148Y-99124814D01*
X78288234Y-99070634D01*
X78576160Y-98782708D01*
X78576160Y-99330200D01*
X78585643Y-99380600D01*
X77612200Y-99380600D01*
X77321361Y-99438452D01*
X77074799Y-99603199D01*
X76515999Y-100161999D01*
X76351252Y-100408561D01*
X76293400Y-100699400D01*
X76293400Y-101023756D01*
X76226959Y-101066510D01*
X76081969Y-101278710D01*
X76030960Y-101530600D01*
X76030960Y-102330600D01*
X76075238Y-102565917D01*
X76141729Y-102669246D01*
X76140073Y-102670902D01*
X76043400Y-102904291D01*
X76043400Y-103144850D01*
X76202150Y-103303600D01*
X76926400Y-103303600D01*
X76926400Y-103283600D01*
X77180400Y-103283600D01*
X77180400Y-103303600D01*
X77200400Y-103303600D01*
X77200400Y-103557600D01*
X77180400Y-103557600D01*
X77180400Y-104306850D01*
X77339150Y-104465600D01*
X77507600Y-104465600D01*
X77507600Y-104505309D01*
X77604273Y-104738698D01*
X77782901Y-104917327D01*
X78016290Y-105014000D01*
X78456850Y-105014000D01*
X78615600Y-104855250D01*
X78615600Y-103806000D01*
X78595600Y-103806000D01*
X78595600Y-103552000D01*
X78615600Y-103552000D01*
X78615600Y-103532000D01*
X78869600Y-103532000D01*
X78869600Y-103552000D01*
X78889600Y-103552000D01*
X78889600Y-103806000D01*
X78869600Y-103806000D01*
X78869600Y-104855250D01*
X79028350Y-105014000D01*
X79468910Y-105014000D01*
X79538607Y-104985130D01*
X79742600Y-105026440D01*
X80942600Y-105026440D01*
X81177917Y-104982162D01*
X81394041Y-104843090D01*
X81539031Y-104630890D01*
X81579925Y-104428950D01*
X81820239Y-104381148D01*
X82055368Y-104224040D01*
X82406800Y-104224040D01*
X82642117Y-104179762D01*
X82858241Y-104040690D01*
X83003231Y-103828490D01*
X83054240Y-103576600D01*
X83054240Y-103228962D01*
X83588600Y-102694602D01*
X83588600Y-104081374D01*
X83423531Y-104081230D01*
X83061371Y-104230871D01*
X82784045Y-104507714D01*
X82633772Y-104869612D01*
X82633430Y-105261469D01*
X82783071Y-105623629D01*
X82858600Y-105699290D01*
X82858600Y-108917198D01*
X80982798Y-110793000D01*
X80608962Y-110793000D01*
X80607962Y-110787683D01*
X80468890Y-110571559D01*
X80439800Y-110551683D01*
X80439800Y-110453000D01*
X80422989Y-110368487D01*
X80456241Y-110347090D01*
X80601231Y-110134890D01*
X80652240Y-109883000D01*
X80652240Y-108823000D01*
X80607962Y-108587683D01*
X80468890Y-108371559D01*
X80256690Y-108226569D01*
X80195478Y-108214173D01*
X80346415Y-107988279D01*
X80418239Y-107627200D01*
X81422200Y-107627200D01*
X81818277Y-107548415D01*
X82154056Y-107324056D01*
X82378415Y-106988277D01*
X82457200Y-106592200D01*
X82378415Y-106196123D01*
X82154056Y-105860344D01*
X81818277Y-105635985D01*
X81422200Y-105557200D01*
X78637757Y-105557200D01*
X78611090Y-105515759D01*
X78398890Y-105370769D01*
X78147000Y-105319760D01*
X77147000Y-105319760D01*
X76911683Y-105364038D01*
X76695559Y-105503110D01*
X76647866Y-105572911D01*
X76611090Y-105515759D01*
X76552090Y-105475447D01*
X76552090Y-104465600D01*
X76767650Y-104465600D01*
X76926400Y-104306850D01*
X76926400Y-103557600D01*
X76202150Y-103557600D01*
X76043400Y-103716350D01*
X76043400Y-103956909D01*
X76140073Y-104190298D01*
X76318701Y-104368927D01*
X76552090Y-104465600D01*
X76552090Y-105475447D01*
X76398890Y-105370769D01*
X76147000Y-105319760D01*
X75147000Y-105319760D01*
X74911683Y-105364038D01*
X74799150Y-105436451D01*
X74799150Y-101615200D01*
X75264710Y-101615200D01*
X75498099Y-101518527D01*
X75676727Y-101339898D01*
X75773400Y-101106509D01*
X75773400Y-100765950D01*
X75614650Y-100607200D01*
X74640400Y-100607200D01*
X74640400Y-101456450D01*
X74799150Y-101615200D01*
X74799150Y-105436451D01*
X74695559Y-105503110D01*
X74658601Y-105557200D01*
X74557668Y-105557200D01*
X73519600Y-104519132D01*
X73519600Y-101509426D01*
X73528701Y-101518527D01*
G36*
X82706668Y-94652200D02*
X83037798Y-94652200D01*
X83088600Y-94703002D01*
X83088600Y-97706048D01*
X82973600Y-97682760D01*
X82723600Y-97682760D01*
X82617895Y-97702650D01*
X82599910Y-97695200D01*
X82569850Y-97695200D01*
X82549538Y-97715512D01*
X82488283Y-97727038D01*
X82475602Y-97735198D01*
X82475602Y-97695200D01*
X82387605Y-97695200D01*
X82386001Y-97692799D01*
X82204078Y-97510876D01*
X82204170Y-97405531D01*
X82054529Y-97043371D01*
X81777686Y-96766045D01*
X81415788Y-96615772D01*
X81023931Y-96615430D01*
X80661771Y-96765071D01*
X80384445Y-97041914D01*
X80234172Y-97403812D01*
X80233918Y-97695200D01*
X80221598Y-97695200D01*
X80221598Y-97732981D01*
X80150792Y-97718642D01*
X80127350Y-97695200D01*
X80097290Y-97695200D01*
X80076847Y-97703668D01*
X79973600Y-97682760D01*
X79723600Y-97682760D01*
X79665101Y-97693767D01*
X82706668Y-94652200D01*
X82706668Y-94652200D01*
G37*
X82706668Y-94652200D02*
X83037798Y-94652200D01*
X83088600Y-94703002D01*
X83088600Y-97706048D01*
X82973600Y-97682760D01*
X82723600Y-97682760D01*
X82617895Y-97702650D01*
X82599910Y-97695200D01*
X82569850Y-97695200D01*
X82549538Y-97715512D01*
X82488283Y-97727038D01*
X82475602Y-97735198D01*
X82475602Y-97695200D01*
X82387605Y-97695200D01*
X82386001Y-97692799D01*
X82204078Y-97510876D01*
X82204170Y-97405531D01*
X82054529Y-97043371D01*
X81777686Y-96766045D01*
X81415788Y-96615772D01*
X81023931Y-96615430D01*
X80661771Y-96765071D01*
X80384445Y-97041914D01*
X80234172Y-97403812D01*
X80233918Y-97695200D01*
X80221598Y-97695200D01*
X80221598Y-97732981D01*
X80150792Y-97718642D01*
X80127350Y-97695200D01*
X80097290Y-97695200D01*
X80076847Y-97703668D01*
X79973600Y-97682760D01*
X79723600Y-97682760D01*
X79665101Y-97693767D01*
X82706668Y-94652200D01*
G36*
X81904800Y-101549600D02*
X81904800Y-101529600D01*
X82158800Y-101529600D01*
X82158800Y-101549600D01*
X82178800Y-101549600D01*
X82178800Y-101803600D01*
X82158800Y-101803600D01*
X82158800Y-101823600D01*
X81904800Y-101823600D01*
X81904800Y-101803600D01*
X81884800Y-101803600D01*
X81884800Y-101549600D01*
X81904800Y-101549600D01*
X81904800Y-101549600D01*
G37*
X81904800Y-101549600D02*
X81904800Y-101529600D01*
X82158800Y-101529600D01*
X82158800Y-101549600D01*
X82178800Y-101549600D01*
X82178800Y-101803600D01*
X82158800Y-101803600D01*
X82158800Y-101823600D01*
X81904800Y-101823600D01*
X81904800Y-101803600D01*
X81884800Y-101803600D01*
X81884800Y-101549600D01*
X81904800Y-101549600D01*
G36*
X80215600Y-101352000D02*
X80215600Y-101332000D01*
X80469600Y-101332000D01*
X80469600Y-101352000D01*
X80489600Y-101352000D01*
X80489600Y-101606000D01*
X80469600Y-101606000D01*
X80469600Y-101626000D01*
X80215600Y-101626000D01*
X80215600Y-101606000D01*
X80195600Y-101606000D01*
X80195600Y-101352000D01*
X80215600Y-101352000D01*
X80215600Y-101352000D01*
G37*
X80215600Y-101352000D02*
X80215600Y-101332000D01*
X80469600Y-101332000D01*
X80469600Y-101352000D01*
X80489600Y-101352000D01*
X80489600Y-101606000D01*
X80469600Y-101606000D01*
X80469600Y-101626000D01*
X80215600Y-101626000D01*
X80215600Y-101606000D01*
X80195600Y-101606000D01*
X80195600Y-101352000D01*
X80215600Y-101352000D01*
G36*
X67039284Y-78954027D02*
X67098710Y-78994631D01*
X67140039Y-79003000D01*
X67122185Y-79014930D01*
X66797329Y-79501111D01*
X66683255Y-80074600D01*
X66797329Y-80648089D01*
X67122185Y-81134270D01*
X67436966Y-81344600D01*
X67122185Y-81554930D01*
X66797329Y-82041111D01*
X66683255Y-82614600D01*
X66797329Y-83188089D01*
X67122185Y-83674270D01*
X67431669Y-83881061D01*
X67015868Y-84252564D01*
X66761891Y-84779809D01*
X66759242Y-84795574D01*
X66880383Y-85027600D01*
X68239600Y-85027600D01*
X68239600Y-85007600D01*
X68493600Y-85007600D01*
X68493600Y-85027600D01*
X69852817Y-85027600D01*
X69973958Y-84795574D01*
X69971309Y-84779809D01*
X69717332Y-84252564D01*
X69301531Y-83881061D01*
X69611015Y-83674270D01*
X69737288Y-83485290D01*
X72585000Y-86333002D01*
X72585000Y-87643800D01*
X72642852Y-87934640D01*
X72807599Y-88181201D01*
X75043999Y-90417601D01*
X75290561Y-90582348D01*
X75581400Y-90640200D01*
X76274448Y-90640200D01*
X76251160Y-90755200D01*
X76251160Y-91005200D01*
X76275544Y-91134789D01*
X76251160Y-91255200D01*
X76251160Y-91505200D01*
X76275544Y-91634789D01*
X76251160Y-91755200D01*
X76251160Y-92005200D01*
X76275544Y-92134789D01*
X76251160Y-92255200D01*
X76251160Y-92505200D01*
X76272799Y-92620200D01*
X75650518Y-92620200D01*
X75580086Y-92549645D01*
X75218188Y-92399372D01*
X74834492Y-92399037D01*
X74827162Y-92360083D01*
X74688090Y-92143959D01*
X74475890Y-91998969D01*
X74224000Y-91947960D01*
X72974000Y-91947960D01*
X72738683Y-91992238D01*
X72522559Y-92131310D01*
X72377569Y-92343510D01*
X72326560Y-92595400D01*
X72326560Y-93595400D01*
X72370838Y-93830717D01*
X72509910Y-94046841D01*
X72578006Y-94093369D01*
X72435673Y-94235702D01*
X72339000Y-94469091D01*
X72339000Y-94809650D01*
X72497750Y-94968400D01*
X73472000Y-94968400D01*
X73472000Y-94948400D01*
X73726000Y-94948400D01*
X73726000Y-94968400D01*
X73746000Y-94968400D01*
X73746000Y-95222400D01*
X73726000Y-95222400D01*
X73726000Y-96071650D01*
X73884750Y-96230400D01*
X74186400Y-96230400D01*
X74186400Y-97332760D01*
X73888400Y-97332760D01*
X73653083Y-97377038D01*
X73436959Y-97516110D01*
X73291969Y-97728310D01*
X73240960Y-97980200D01*
X73240960Y-98571772D01*
X72847690Y-98965042D01*
X72847690Y-96230400D01*
X73313250Y-96230400D01*
X73472000Y-96071650D01*
X73472000Y-95222400D01*
X72497750Y-95222400D01*
X72339000Y-95381150D01*
X72339000Y-95721709D01*
X72435673Y-95955098D01*
X72614301Y-96133727D01*
X72847690Y-96230400D01*
X72847690Y-98965042D01*
X72094166Y-99718566D01*
X72044841Y-99792386D01*
X71913161Y-99989459D01*
X71849600Y-100309000D01*
X71849600Y-104865000D01*
X71913160Y-105184540D01*
X72094166Y-105455434D01*
X72195932Y-105557200D01*
X68728513Y-105557200D01*
X68728513Y-86639784D01*
X69280920Y-86446554D01*
X69717332Y-86056636D01*
X69971309Y-85529391D01*
X69973958Y-85513626D01*
X69852817Y-85281600D01*
X68493600Y-85281600D01*
X68493600Y-86495524D01*
X68728513Y-86639784D01*
X68728513Y-105557200D01*
X68004687Y-105557200D01*
X68004687Y-86639784D01*
X68239600Y-86495524D01*
X68239600Y-85281600D01*
X66880383Y-85281600D01*
X66759242Y-85513626D01*
X66761891Y-85529391D01*
X67015868Y-86056636D01*
X67452280Y-86446554D01*
X68004687Y-86639784D01*
X68004687Y-105557200D01*
X67728512Y-105557200D01*
X66099600Y-103928289D01*
X66099600Y-79893712D01*
X67039284Y-78954027D01*
X67039284Y-78954027D01*
G37*
X67039284Y-78954027D02*
X67098710Y-78994631D01*
X67140039Y-79003000D01*
X67122185Y-79014930D01*
X66797329Y-79501111D01*
X66683255Y-80074600D01*
X66797329Y-80648089D01*
X67122185Y-81134270D01*
X67436966Y-81344600D01*
X67122185Y-81554930D01*
X66797329Y-82041111D01*
X66683255Y-82614600D01*
X66797329Y-83188089D01*
X67122185Y-83674270D01*
X67431669Y-83881061D01*
X67015868Y-84252564D01*
X66761891Y-84779809D01*
X66759242Y-84795574D01*
X66880383Y-85027600D01*
X68239600Y-85027600D01*
X68239600Y-85007600D01*
X68493600Y-85007600D01*
X68493600Y-85027600D01*
X69852817Y-85027600D01*
X69973958Y-84795574D01*
X69971309Y-84779809D01*
X69717332Y-84252564D01*
X69301531Y-83881061D01*
X69611015Y-83674270D01*
X69737288Y-83485290D01*
X72585000Y-86333002D01*
X72585000Y-87643800D01*
X72642852Y-87934640D01*
X72807599Y-88181201D01*
X75043999Y-90417601D01*
X75290561Y-90582348D01*
X75581400Y-90640200D01*
X76274448Y-90640200D01*
X76251160Y-90755200D01*
X76251160Y-91005200D01*
X76275544Y-91134789D01*
X76251160Y-91255200D01*
X76251160Y-91505200D01*
X76275544Y-91634789D01*
X76251160Y-91755200D01*
X76251160Y-92005200D01*
X76275544Y-92134789D01*
X76251160Y-92255200D01*
X76251160Y-92505200D01*
X76272799Y-92620200D01*
X75650518Y-92620200D01*
X75580086Y-92549645D01*
X75218188Y-92399372D01*
X74834492Y-92399037D01*
X74827162Y-92360083D01*
X74688090Y-92143959D01*
X74475890Y-91998969D01*
X74224000Y-91947960D01*
X72974000Y-91947960D01*
X72738683Y-91992238D01*
X72522559Y-92131310D01*
X72377569Y-92343510D01*
X72326560Y-92595400D01*
X72326560Y-93595400D01*
X72370838Y-93830717D01*
X72509910Y-94046841D01*
X72578006Y-94093369D01*
X72435673Y-94235702D01*
X72339000Y-94469091D01*
X72339000Y-94809650D01*
X72497750Y-94968400D01*
X73472000Y-94968400D01*
X73472000Y-94948400D01*
X73726000Y-94948400D01*
X73726000Y-94968400D01*
X73746000Y-94968400D01*
X73746000Y-95222400D01*
X73726000Y-95222400D01*
X73726000Y-96071650D01*
X73884750Y-96230400D01*
X74186400Y-96230400D01*
X74186400Y-97332760D01*
X73888400Y-97332760D01*
X73653083Y-97377038D01*
X73436959Y-97516110D01*
X73291969Y-97728310D01*
X73240960Y-97980200D01*
X73240960Y-98571772D01*
X72847690Y-98965042D01*
X72847690Y-96230400D01*
X73313250Y-96230400D01*
X73472000Y-96071650D01*
X73472000Y-95222400D01*
X72497750Y-95222400D01*
X72339000Y-95381150D01*
X72339000Y-95721709D01*
X72435673Y-95955098D01*
X72614301Y-96133727D01*
X72847690Y-96230400D01*
X72847690Y-98965042D01*
X72094166Y-99718566D01*
X72044841Y-99792386D01*
X71913161Y-99989459D01*
X71849600Y-100309000D01*
X71849600Y-104865000D01*
X71913160Y-105184540D01*
X72094166Y-105455434D01*
X72195932Y-105557200D01*
X68728513Y-105557200D01*
X68728513Y-86639784D01*
X69280920Y-86446554D01*
X69717332Y-86056636D01*
X69971309Y-85529391D01*
X69973958Y-85513626D01*
X69852817Y-85281600D01*
X68493600Y-85281600D01*
X68493600Y-86495524D01*
X68728513Y-86639784D01*
X68728513Y-105557200D01*
X68004687Y-105557200D01*
X68004687Y-86639784D01*
X68239600Y-86495524D01*
X68239600Y-85281600D01*
X66880383Y-85281600D01*
X66759242Y-85513626D01*
X66761891Y-85529391D01*
X67015868Y-86056636D01*
X67452280Y-86446554D01*
X68004687Y-86639784D01*
X68004687Y-105557200D01*
X67728512Y-105557200D01*
X66099600Y-103928289D01*
X66099600Y-79893712D01*
X67039284Y-78954027D01*
M02*
