M48
;DRILL file {KiCad (2015-07-31 BZR 6030)-product} date Sat Sep 12 09:44:35 2015
;FORMAT={-:-/ absolute / inch / decimal}
FMAT,2
INCH,TZ
T1C0.012
T2C0.040
T3C0.118
%
G90
G05
M72
T1
X6.9841Y-1.8865
X7.1201Y-1.9069
X7.1201Y-1.9069
X7.1201Y-2.0649
X7.1201Y-2.0649
X7.1461Y-2.4269
X7.1461Y-2.4269
X7.1761Y-2.5069
X7.1761Y-2.5069
X7.2441Y-2.0349
X7.2441Y-2.0349
X7.3481Y-2.3269
X7.3481Y-2.3269
X7.5421Y-1.9929
X7.5421Y-1.9929
X7.5481Y-2.2229
X7.5481Y-2.2229
X7.5681Y-2.3749
X7.5681Y-2.3749
X7.5861Y-2.0769
X7.5861Y-2.0769
X7.7221Y-2.5669
X7.7221Y-2.5669
X7.7761Y-2.2269
X7.7761Y-2.2269
X7.9681Y-2.0329
X7.9681Y-2.0329
X8.0501Y-2.2809
X8.0501Y-2.2809
X8.2021Y-1.9869
X8.2021Y-1.9869
X8.3281Y-1.9829
X8.3281Y-1.9829
T2
X7.0081Y-2.1169
X7.0081Y-2.1169
X7.0081Y-2.2169
X7.0081Y-2.2169
X7.0081Y-2.3169
X7.0081Y-2.3169
X7.0081Y-2.4169
X7.0081Y-2.4169
X7.4881Y-1.8869
X7.4881Y-1.8869
X7.5881Y-1.8869
X7.5881Y-1.8869
X7.6881Y-1.8869
X7.6881Y-1.8869
X7.7881Y-1.8869
X7.7881Y-1.8869
X7.8881Y-1.8869
X7.8881Y-1.8869
X7.9881Y-1.8869
X7.9881Y-1.8869
X8.1941Y-2.2389
X8.1941Y-2.2389
X8.1941Y-2.3389
X8.1941Y-2.3389
X8.1941Y-2.4389
X8.1941Y-2.4389
X8.1941Y-2.5389
X8.1941Y-2.5389
T3
X6.8421Y-2.6569
X6.8421Y-2.6569
X7.9701Y-2.6889
X7.9701Y-2.6889
X8.2421Y-1.8169
X8.2421Y-1.8169
T0
M30
