%FSLAX45Y45*%
G04 Gerber Fmt 4.5, Leading zero omitted, Abs format (unit mm)*
G04 Created by KiCad (PCBNEW (2015-07-31 BZR 6030)-product) date Sat Sep 12 09:44:35 2015*
%MOMM*%
G01*
G04 APERTURE LIST*
%ADD10C,0.127000*%
%ADD11C,0.100000*%
%ADD12C,0.200000*%
%ADD13C,0.300000*%
G04 APERTURE END LIST*
D10*
D11*
X21559700Y-7351960D02*
X16825140Y-7351960D01*
X21559700Y-4095680D02*
X21559700Y-7351960D01*
X16825140Y-4095680D02*
X21559700Y-4095680D01*
X16825140Y-7351960D02*
X16825140Y-4095680D01*
D12*
X17724540Y-4776640D02*
X17754540Y-4806640D01*
X17754540Y-4776640D02*
X17724540Y-4806640D01*
X18070160Y-4828640D02*
X18100160Y-4858640D01*
X18100160Y-4828640D02*
X18070160Y-4858640D01*
X18070160Y-4828640D02*
X18100160Y-4858640D01*
X18100160Y-4828640D02*
X18070160Y-4858640D01*
X18070160Y-5229960D02*
X18100160Y-5259960D01*
X18100160Y-5229960D02*
X18070160Y-5259960D01*
X18070160Y-5229960D02*
X18100160Y-5259960D01*
X18100160Y-5229960D02*
X18070160Y-5259960D01*
X18136200Y-6149440D02*
X18166200Y-6179440D01*
X18166200Y-6149440D02*
X18136200Y-6179440D01*
X18136200Y-6149440D02*
X18166200Y-6179440D01*
X18166200Y-6149440D02*
X18136200Y-6179440D01*
X18212400Y-6352640D02*
X18242400Y-6382640D01*
X18242400Y-6352640D02*
X18212400Y-6382640D01*
X18212400Y-6352640D02*
X18242400Y-6382640D01*
X18242400Y-6352640D02*
X18212400Y-6382640D01*
X18385120Y-5153760D02*
X18415120Y-5183760D01*
X18415120Y-5153760D02*
X18385120Y-5183760D01*
X18385120Y-5153760D02*
X18415120Y-5183760D01*
X18415120Y-5153760D02*
X18385120Y-5183760D01*
X18649280Y-5895440D02*
X18679280Y-5925440D01*
X18679280Y-5895440D02*
X18649280Y-5925440D01*
X18649280Y-5895440D02*
X18679280Y-5925440D01*
X18679280Y-5895440D02*
X18649280Y-5925440D01*
X19142040Y-5047080D02*
X19172040Y-5077080D01*
X19172040Y-5047080D02*
X19142040Y-5077080D01*
X19142040Y-5047080D02*
X19172040Y-5077080D01*
X19172040Y-5047080D02*
X19142040Y-5077080D01*
X19157280Y-5631280D02*
X19187280Y-5661280D01*
X19187280Y-5631280D02*
X19157280Y-5661280D01*
X19157280Y-5631280D02*
X19187280Y-5661280D01*
X19187280Y-5631280D02*
X19157280Y-5661280D01*
X19208080Y-6017360D02*
X19238080Y-6047360D01*
X19238080Y-6017360D02*
X19208080Y-6047360D01*
X19208080Y-6017360D02*
X19238080Y-6047360D01*
X19238080Y-6017360D02*
X19208080Y-6047360D01*
X19253800Y-5260440D02*
X19283800Y-5290440D01*
X19283800Y-5260440D02*
X19253800Y-5290440D01*
X19253800Y-5260440D02*
X19283800Y-5290440D01*
X19283800Y-5260440D02*
X19253800Y-5290440D01*
X19599240Y-6505040D02*
X19629240Y-6535040D01*
X19629240Y-6505040D02*
X19599240Y-6535040D01*
X19599240Y-6505040D02*
X19629240Y-6535040D01*
X19629240Y-6505040D02*
X19599240Y-6535040D01*
X19736400Y-5641440D02*
X19766400Y-5671440D01*
X19766400Y-5641440D02*
X19736400Y-5671440D01*
X19736400Y-5641440D02*
X19766400Y-5671440D01*
X19766400Y-5641440D02*
X19736400Y-5671440D01*
X20224080Y-5148680D02*
X20254080Y-5178680D01*
X20254080Y-5148680D02*
X20224080Y-5178680D01*
X20224080Y-5148680D02*
X20254080Y-5178680D01*
X20254080Y-5148680D02*
X20224080Y-5178680D01*
X20432360Y-5778600D02*
X20462360Y-5808600D01*
X20462360Y-5778600D02*
X20432360Y-5808600D01*
X20432360Y-5778600D02*
X20462360Y-5808600D01*
X20462360Y-5778600D02*
X20432360Y-5808600D01*
X20818440Y-5031840D02*
X20848440Y-5061840D01*
X20848440Y-5031840D02*
X20818440Y-5061840D01*
X20818440Y-5031840D02*
X20848440Y-5061840D01*
X20848440Y-5031840D02*
X20818440Y-5061840D01*
X21138480Y-5021680D02*
X21168480Y-5051680D01*
X21168480Y-5021680D02*
X21138480Y-5051680D01*
X21138480Y-5021680D02*
X21168480Y-5051680D01*
X21168480Y-5021680D02*
X21138480Y-5051680D01*
X17851480Y-5377040D02*
G75*
G03X17851480Y-5377040I-50800J0D01*
G01*
X17851480Y-5377040D02*
G75*
G03X17851480Y-5377040I-50800J0D01*
G01*
X17851480Y-5631040D02*
G75*
G03X17851480Y-5631040I-50800J0D01*
G01*
X17851480Y-5631040D02*
G75*
G03X17851480Y-5631040I-50800J0D01*
G01*
X17851480Y-5885040D02*
G75*
G03X17851480Y-5885040I-50800J0D01*
G01*
X17851480Y-5885040D02*
G75*
G03X17851480Y-5885040I-50800J0D01*
G01*
X17851480Y-6139040D02*
G75*
G03X17851480Y-6139040I-50800J0D01*
G01*
X17851480Y-6139040D02*
G75*
G03X17851480Y-6139040I-50800J0D01*
G01*
X19070680Y-4792840D02*
G75*
G03X19070680Y-4792840I-50800J0D01*
G01*
X19070680Y-4792840D02*
G75*
G03X19070680Y-4792840I-50800J0D01*
G01*
X19324680Y-4792840D02*
G75*
G03X19324680Y-4792840I-50800J0D01*
G01*
X19324680Y-4792840D02*
G75*
G03X19324680Y-4792840I-50800J0D01*
G01*
X19578680Y-4792840D02*
G75*
G03X19578680Y-4792840I-50800J0D01*
G01*
X19578680Y-4792840D02*
G75*
G03X19578680Y-4792840I-50800J0D01*
G01*
X19832680Y-4792840D02*
G75*
G03X19832680Y-4792840I-50800J0D01*
G01*
X19832680Y-4792840D02*
G75*
G03X19832680Y-4792840I-50800J0D01*
G01*
X20086680Y-4792840D02*
G75*
G03X20086680Y-4792840I-50800J0D01*
G01*
X20086680Y-4792840D02*
G75*
G03X20086680Y-4792840I-50800J0D01*
G01*
X20340680Y-4792840D02*
G75*
G03X20340680Y-4792840I-50800J0D01*
G01*
X20340680Y-4792840D02*
G75*
G03X20340680Y-4792840I-50800J0D01*
G01*
X20863920Y-5686920D02*
G75*
G03X20863920Y-5686920I-50800J0D01*
G01*
X20863920Y-5686920D02*
G75*
G03X20863920Y-5686920I-50800J0D01*
G01*
X20863920Y-5940920D02*
G75*
G03X20863920Y-5940920I-50800J0D01*
G01*
X20863920Y-5940920D02*
G75*
G03X20863920Y-5940920I-50800J0D01*
G01*
X20863920Y-6194920D02*
G75*
G03X20863920Y-6194920I-50800J0D01*
G01*
X20863920Y-6194920D02*
G75*
G03X20863920Y-6194920I-50800J0D01*
G01*
X20863920Y-6448920D02*
G75*
G03X20863920Y-6448920I-50800J0D01*
G01*
X20863920Y-6448920D02*
G75*
G03X20863920Y-6448920I-50800J0D01*
G01*
X17379040Y-6598640D02*
X17379040Y-6898640D01*
X17229040Y-6748640D02*
X17529040Y-6748640D01*
X17379040Y-6598640D02*
X17379040Y-6898640D01*
X17229040Y-6748640D02*
X17529040Y-6748640D01*
X20244160Y-6679920D02*
X20244160Y-6979920D01*
X20094160Y-6829920D02*
X20394160Y-6829920D01*
X20244160Y-6679920D02*
X20244160Y-6979920D01*
X20094160Y-6829920D02*
X20394160Y-6829920D01*
X20935040Y-4465040D02*
X20935040Y-4765040D01*
X20785040Y-4615040D02*
X21085040Y-4615040D01*
X20935040Y-4465040D02*
X20935040Y-4765040D01*
X20785040Y-4615040D02*
X21085040Y-4615040D01*
D13*
X17091569Y-7822674D02*
X17091569Y-7522674D01*
X17162997Y-7522674D01*
X17205854Y-7536960D01*
X17234426Y-7565531D01*
X17248711Y-7594103D01*
X17262997Y-7651246D01*
X17262997Y-7694103D01*
X17248711Y-7751246D01*
X17234426Y-7779817D01*
X17205854Y-7808389D01*
X17162997Y-7822674D01*
X17091569Y-7822674D01*
X17391569Y-7822674D02*
X17391569Y-7622674D01*
X17391569Y-7679817D02*
X17405854Y-7651246D01*
X17420140Y-7636960D01*
X17448711Y-7622674D01*
X17477283Y-7622674D01*
X17577283Y-7822674D02*
X17577283Y-7622674D01*
X17577283Y-7522674D02*
X17562997Y-7536960D01*
X17577283Y-7551246D01*
X17591569Y-7536960D01*
X17577283Y-7522674D01*
X17577283Y-7551246D01*
X17762997Y-7822674D02*
X17734426Y-7808389D01*
X17720140Y-7779817D01*
X17720140Y-7522674D01*
X17920140Y-7822674D02*
X17891569Y-7808389D01*
X17877283Y-7779817D01*
X17877283Y-7522674D01*
X18262997Y-7822674D02*
X18262997Y-7522674D01*
X18362997Y-7736960D01*
X18462997Y-7522674D01*
X18462997Y-7822674D01*
X18734426Y-7822674D02*
X18734426Y-7665531D01*
X18720140Y-7636960D01*
X18691569Y-7622674D01*
X18634426Y-7622674D01*
X18605854Y-7636960D01*
X18734426Y-7808389D02*
X18705854Y-7822674D01*
X18634426Y-7822674D01*
X18605854Y-7808389D01*
X18591569Y-7779817D01*
X18591569Y-7751246D01*
X18605854Y-7722674D01*
X18634426Y-7708389D01*
X18705854Y-7708389D01*
X18734426Y-7694103D01*
X18877283Y-7622674D02*
X18877283Y-7922674D01*
X18877283Y-7636960D02*
X18905854Y-7622674D01*
X18962997Y-7622674D01*
X18991569Y-7636960D01*
X19005854Y-7651246D01*
X19020140Y-7679817D01*
X19020140Y-7765531D01*
X19005854Y-7794103D01*
X18991569Y-7808389D01*
X18962997Y-7822674D01*
X18905854Y-7822674D01*
X18877283Y-7808389D01*
X19148711Y-7794103D02*
X19162997Y-7808389D01*
X19148711Y-7822674D01*
X19134426Y-7808389D01*
X19148711Y-7794103D01*
X19148711Y-7822674D01*
X19148711Y-7636960D02*
X19162997Y-7651246D01*
X19148711Y-7665531D01*
X19134426Y-7651246D01*
X19148711Y-7636960D01*
X19148711Y-7665531D01*
X16790140Y-8301960D02*
X16820140Y-8331960D01*
X16820140Y-8301960D02*
X16790140Y-8331960D01*
X17148711Y-8152674D02*
X17177283Y-8152674D01*
X17205854Y-8166960D01*
X17220140Y-8181246D01*
X17234426Y-8209817D01*
X17248711Y-8266960D01*
X17248711Y-8338389D01*
X17234426Y-8395532D01*
X17220140Y-8424103D01*
X17205854Y-8438389D01*
X17177283Y-8452674D01*
X17148711Y-8452674D01*
X17120140Y-8438389D01*
X17105854Y-8424103D01*
X17091569Y-8395532D01*
X17077283Y-8338389D01*
X17077283Y-8266960D01*
X17091569Y-8209817D01*
X17105854Y-8181246D01*
X17120140Y-8166960D01*
X17148711Y-8152674D01*
X17377283Y-8424103D02*
X17391569Y-8438389D01*
X17377283Y-8452674D01*
X17362997Y-8438389D01*
X17377283Y-8424103D01*
X17377283Y-8452674D01*
X17491568Y-8152674D02*
X17677283Y-8152674D01*
X17577283Y-8266960D01*
X17620140Y-8266960D01*
X17648711Y-8281246D01*
X17662997Y-8295531D01*
X17677283Y-8324103D01*
X17677283Y-8395532D01*
X17662997Y-8424103D01*
X17648711Y-8438389D01*
X17620140Y-8452674D01*
X17534426Y-8452674D01*
X17505854Y-8438389D01*
X17491568Y-8424103D01*
X17862997Y-8152674D02*
X17891569Y-8152674D01*
X17920140Y-8166960D01*
X17934426Y-8181246D01*
X17948711Y-8209817D01*
X17962997Y-8266960D01*
X17962997Y-8338389D01*
X17948711Y-8395532D01*
X17934426Y-8424103D01*
X17920140Y-8438389D01*
X17891569Y-8452674D01*
X17862997Y-8452674D01*
X17834426Y-8438389D01*
X17820140Y-8424103D01*
X17805854Y-8395532D01*
X17791569Y-8338389D01*
X17791569Y-8266960D01*
X17805854Y-8209817D01*
X17820140Y-8181246D01*
X17834426Y-8166960D01*
X17862997Y-8152674D01*
X18091569Y-8452674D02*
X18091569Y-8252674D01*
X18091569Y-8281246D02*
X18105854Y-8266960D01*
X18134426Y-8252674D01*
X18177283Y-8252674D01*
X18205854Y-8266960D01*
X18220140Y-8295531D01*
X18220140Y-8452674D01*
X18220140Y-8295531D02*
X18234426Y-8266960D01*
X18262997Y-8252674D01*
X18305854Y-8252674D01*
X18334426Y-8266960D01*
X18348711Y-8295531D01*
X18348711Y-8452674D01*
X18491569Y-8452674D02*
X18491569Y-8252674D01*
X18491569Y-8281246D02*
X18505854Y-8266960D01*
X18534426Y-8252674D01*
X18577283Y-8252674D01*
X18605854Y-8266960D01*
X18620140Y-8295531D01*
X18620140Y-8452674D01*
X18620140Y-8295531D02*
X18634426Y-8266960D01*
X18662997Y-8252674D01*
X18705854Y-8252674D01*
X18734426Y-8266960D01*
X18748711Y-8295531D01*
X18748711Y-8452674D01*
X19334426Y-8138389D02*
X19077283Y-8524103D01*
X19720140Y-8152674D02*
X19748711Y-8152674D01*
X19777283Y-8166960D01*
X19791568Y-8181246D01*
X19805854Y-8209817D01*
X19820140Y-8266960D01*
X19820140Y-8338389D01*
X19805854Y-8395532D01*
X19791568Y-8424103D01*
X19777283Y-8438389D01*
X19748711Y-8452674D01*
X19720140Y-8452674D01*
X19691568Y-8438389D01*
X19677283Y-8424103D01*
X19662997Y-8395532D01*
X19648711Y-8338389D01*
X19648711Y-8266960D01*
X19662997Y-8209817D01*
X19677283Y-8181246D01*
X19691568Y-8166960D01*
X19720140Y-8152674D01*
X19948711Y-8424103D02*
X19962997Y-8438389D01*
X19948711Y-8452674D01*
X19934426Y-8438389D01*
X19948711Y-8424103D01*
X19948711Y-8452674D01*
X20148711Y-8152674D02*
X20177283Y-8152674D01*
X20205854Y-8166960D01*
X20220140Y-8181246D01*
X20234426Y-8209817D01*
X20248711Y-8266960D01*
X20248711Y-8338389D01*
X20234426Y-8395532D01*
X20220140Y-8424103D01*
X20205854Y-8438389D01*
X20177283Y-8452674D01*
X20148711Y-8452674D01*
X20120140Y-8438389D01*
X20105854Y-8424103D01*
X20091568Y-8395532D01*
X20077283Y-8338389D01*
X20077283Y-8266960D01*
X20091568Y-8209817D01*
X20105854Y-8181246D01*
X20120140Y-8166960D01*
X20148711Y-8152674D01*
X20534426Y-8452674D02*
X20362997Y-8452674D01*
X20448711Y-8452674D02*
X20448711Y-8152674D01*
X20420140Y-8195531D01*
X20391568Y-8224103D01*
X20362997Y-8238389D01*
X20648711Y-8181246D02*
X20662997Y-8166960D01*
X20691568Y-8152674D01*
X20762997Y-8152674D01*
X20791568Y-8166960D01*
X20805854Y-8181246D01*
X20820140Y-8209817D01*
X20820140Y-8238389D01*
X20805854Y-8281246D01*
X20634426Y-8452674D01*
X20820140Y-8452674D01*
X20934426Y-8152674D02*
X20934426Y-8209817D01*
X21048711Y-8152674D02*
X21048711Y-8209817D01*
X21491568Y-8566960D02*
X21477283Y-8552674D01*
X21448711Y-8509817D01*
X21434426Y-8481246D01*
X21420140Y-8438389D01*
X21405854Y-8366960D01*
X21405854Y-8309817D01*
X21420140Y-8238389D01*
X21434426Y-8195531D01*
X21448711Y-8166960D01*
X21477283Y-8124103D01*
X21491568Y-8109817D01*
X21577283Y-8152674D02*
X21762997Y-8152674D01*
X21662997Y-8266960D01*
X21705854Y-8266960D01*
X21734426Y-8281246D01*
X21748711Y-8295531D01*
X21762997Y-8324103D01*
X21762997Y-8395532D01*
X21748711Y-8424103D01*
X21734426Y-8438389D01*
X21705854Y-8452674D01*
X21620140Y-8452674D01*
X21591568Y-8438389D01*
X21577283Y-8424103D01*
X21862997Y-8152674D02*
X22048711Y-8152674D01*
X21948711Y-8266960D01*
X21991568Y-8266960D01*
X22020140Y-8281246D01*
X22034426Y-8295531D01*
X22048711Y-8324103D01*
X22048711Y-8395532D01*
X22034426Y-8424103D01*
X22020140Y-8438389D01*
X21991568Y-8452674D01*
X21905854Y-8452674D01*
X21877283Y-8438389D01*
X21862997Y-8424103D01*
X22405854Y-8452674D02*
X22405854Y-8152674D01*
X22534425Y-8452674D02*
X22534425Y-8295531D01*
X22520140Y-8266960D01*
X22491568Y-8252674D01*
X22448711Y-8252674D01*
X22420140Y-8266960D01*
X22405854Y-8281246D01*
X22720140Y-8452674D02*
X22691568Y-8438389D01*
X22677283Y-8424103D01*
X22662997Y-8395532D01*
X22662997Y-8309817D01*
X22677283Y-8281246D01*
X22691568Y-8266960D01*
X22720140Y-8252674D01*
X22762997Y-8252674D01*
X22791568Y-8266960D01*
X22805854Y-8281246D01*
X22820140Y-8309817D01*
X22820140Y-8395532D01*
X22805854Y-8424103D01*
X22791568Y-8438389D01*
X22762997Y-8452674D01*
X22720140Y-8452674D01*
X22991568Y-8452674D02*
X22962997Y-8438389D01*
X22948711Y-8409817D01*
X22948711Y-8152674D01*
X23220140Y-8438389D02*
X23191568Y-8452674D01*
X23134426Y-8452674D01*
X23105854Y-8438389D01*
X23091568Y-8409817D01*
X23091568Y-8295531D01*
X23105854Y-8266960D01*
X23134426Y-8252674D01*
X23191568Y-8252674D01*
X23220140Y-8266960D01*
X23234426Y-8295531D01*
X23234426Y-8324103D01*
X23091568Y-8352674D01*
X23348711Y-8438389D02*
X23377283Y-8452674D01*
X23434426Y-8452674D01*
X23462997Y-8438389D01*
X23477283Y-8409817D01*
X23477283Y-8395532D01*
X23462997Y-8366960D01*
X23434426Y-8352674D01*
X23391568Y-8352674D01*
X23362997Y-8338389D01*
X23348711Y-8309817D01*
X23348711Y-8295531D01*
X23362997Y-8266960D01*
X23391568Y-8252674D01*
X23434426Y-8252674D01*
X23462997Y-8266960D01*
X23577283Y-8566960D02*
X23591568Y-8552674D01*
X23620140Y-8509817D01*
X23634426Y-8481246D01*
X23648711Y-8438389D01*
X23662997Y-8366960D01*
X23662997Y-8309817D01*
X23648711Y-8238389D01*
X23634426Y-8195531D01*
X23620140Y-8166960D01*
X23591568Y-8124103D01*
X23577283Y-8109817D01*
X16820140Y-8712960D02*
G75*
G03X16820140Y-8712960I-50800J0D01*
G01*
X17248711Y-8848674D02*
X17077283Y-8848674D01*
X17162997Y-8848674D02*
X17162997Y-8548674D01*
X17134426Y-8591532D01*
X17105854Y-8620103D01*
X17077283Y-8634389D01*
X17377283Y-8820103D02*
X17391569Y-8834389D01*
X17377283Y-8848674D01*
X17362997Y-8834389D01*
X17377283Y-8820103D01*
X17377283Y-8848674D01*
X17577283Y-8548674D02*
X17605854Y-8548674D01*
X17634426Y-8562960D01*
X17648711Y-8577246D01*
X17662997Y-8605817D01*
X17677283Y-8662960D01*
X17677283Y-8734389D01*
X17662997Y-8791532D01*
X17648711Y-8820103D01*
X17634426Y-8834389D01*
X17605854Y-8848674D01*
X17577283Y-8848674D01*
X17548711Y-8834389D01*
X17534426Y-8820103D01*
X17520140Y-8791532D01*
X17505854Y-8734389D01*
X17505854Y-8662960D01*
X17520140Y-8605817D01*
X17534426Y-8577246D01*
X17548711Y-8562960D01*
X17577283Y-8548674D01*
X17791569Y-8577246D02*
X17805854Y-8562960D01*
X17834426Y-8548674D01*
X17905854Y-8548674D01*
X17934426Y-8562960D01*
X17948711Y-8577246D01*
X17962997Y-8605817D01*
X17962997Y-8634389D01*
X17948711Y-8677246D01*
X17777283Y-8848674D01*
X17962997Y-8848674D01*
X18091569Y-8848674D02*
X18091569Y-8648674D01*
X18091569Y-8677246D02*
X18105854Y-8662960D01*
X18134426Y-8648674D01*
X18177283Y-8648674D01*
X18205854Y-8662960D01*
X18220140Y-8691532D01*
X18220140Y-8848674D01*
X18220140Y-8691532D02*
X18234426Y-8662960D01*
X18262997Y-8648674D01*
X18305854Y-8648674D01*
X18334426Y-8662960D01*
X18348711Y-8691532D01*
X18348711Y-8848674D01*
X18491569Y-8848674D02*
X18491569Y-8648674D01*
X18491569Y-8677246D02*
X18505854Y-8662960D01*
X18534426Y-8648674D01*
X18577283Y-8648674D01*
X18605854Y-8662960D01*
X18620140Y-8691532D01*
X18620140Y-8848674D01*
X18620140Y-8691532D02*
X18634426Y-8662960D01*
X18662997Y-8648674D01*
X18705854Y-8648674D01*
X18734426Y-8662960D01*
X18748711Y-8691532D01*
X18748711Y-8848674D01*
X19334426Y-8534389D02*
X19077283Y-8920103D01*
X19720140Y-8548674D02*
X19748711Y-8548674D01*
X19777283Y-8562960D01*
X19791568Y-8577246D01*
X19805854Y-8605817D01*
X19820140Y-8662960D01*
X19820140Y-8734389D01*
X19805854Y-8791532D01*
X19791568Y-8820103D01*
X19777283Y-8834389D01*
X19748711Y-8848674D01*
X19720140Y-8848674D01*
X19691568Y-8834389D01*
X19677283Y-8820103D01*
X19662997Y-8791532D01*
X19648711Y-8734389D01*
X19648711Y-8662960D01*
X19662997Y-8605817D01*
X19677283Y-8577246D01*
X19691568Y-8562960D01*
X19720140Y-8548674D01*
X19948711Y-8820103D02*
X19962997Y-8834389D01*
X19948711Y-8848674D01*
X19934426Y-8834389D01*
X19948711Y-8820103D01*
X19948711Y-8848674D01*
X20148711Y-8548674D02*
X20177283Y-8548674D01*
X20205854Y-8562960D01*
X20220140Y-8577246D01*
X20234426Y-8605817D01*
X20248711Y-8662960D01*
X20248711Y-8734389D01*
X20234426Y-8791532D01*
X20220140Y-8820103D01*
X20205854Y-8834389D01*
X20177283Y-8848674D01*
X20148711Y-8848674D01*
X20120140Y-8834389D01*
X20105854Y-8820103D01*
X20091568Y-8791532D01*
X20077283Y-8734389D01*
X20077283Y-8662960D01*
X20091568Y-8605817D01*
X20105854Y-8577246D01*
X20120140Y-8562960D01*
X20148711Y-8548674D01*
X20505854Y-8648674D02*
X20505854Y-8848674D01*
X20434426Y-8534389D02*
X20362997Y-8748674D01*
X20548711Y-8748674D01*
X20720140Y-8548674D02*
X20748711Y-8548674D01*
X20777283Y-8562960D01*
X20791568Y-8577246D01*
X20805854Y-8605817D01*
X20820140Y-8662960D01*
X20820140Y-8734389D01*
X20805854Y-8791532D01*
X20791568Y-8820103D01*
X20777283Y-8834389D01*
X20748711Y-8848674D01*
X20720140Y-8848674D01*
X20691568Y-8834389D01*
X20677283Y-8820103D01*
X20662997Y-8791532D01*
X20648711Y-8734389D01*
X20648711Y-8662960D01*
X20662997Y-8605817D01*
X20677283Y-8577246D01*
X20691568Y-8562960D01*
X20720140Y-8548674D01*
X20934426Y-8548674D02*
X20934426Y-8605817D01*
X21048711Y-8548674D02*
X21048711Y-8605817D01*
X21491568Y-8962960D02*
X21477283Y-8948674D01*
X21448711Y-8905817D01*
X21434426Y-8877246D01*
X21420140Y-8834389D01*
X21405854Y-8762960D01*
X21405854Y-8705817D01*
X21420140Y-8634389D01*
X21434426Y-8591532D01*
X21448711Y-8562960D01*
X21477283Y-8520103D01*
X21491568Y-8505817D01*
X21591568Y-8577246D02*
X21605854Y-8562960D01*
X21634426Y-8548674D01*
X21705854Y-8548674D01*
X21734426Y-8562960D01*
X21748711Y-8577246D01*
X21762997Y-8605817D01*
X21762997Y-8634389D01*
X21748711Y-8677246D01*
X21577283Y-8848674D01*
X21762997Y-8848674D01*
X21934426Y-8677246D02*
X21905854Y-8662960D01*
X21891568Y-8648674D01*
X21877283Y-8620103D01*
X21877283Y-8605817D01*
X21891568Y-8577246D01*
X21905854Y-8562960D01*
X21934426Y-8548674D01*
X21991568Y-8548674D01*
X22020140Y-8562960D01*
X22034426Y-8577246D01*
X22048711Y-8605817D01*
X22048711Y-8620103D01*
X22034426Y-8648674D01*
X22020140Y-8662960D01*
X21991568Y-8677246D01*
X21934426Y-8677246D01*
X21905854Y-8691532D01*
X21891568Y-8705817D01*
X21877283Y-8734389D01*
X21877283Y-8791532D01*
X21891568Y-8820103D01*
X21905854Y-8834389D01*
X21934426Y-8848674D01*
X21991568Y-8848674D01*
X22020140Y-8834389D01*
X22034426Y-8820103D01*
X22048711Y-8791532D01*
X22048711Y-8734389D01*
X22034426Y-8705817D01*
X22020140Y-8691532D01*
X21991568Y-8677246D01*
X22405854Y-8848674D02*
X22405854Y-8548674D01*
X22534425Y-8848674D02*
X22534425Y-8691532D01*
X22520140Y-8662960D01*
X22491568Y-8648674D01*
X22448711Y-8648674D01*
X22420140Y-8662960D01*
X22405854Y-8677246D01*
X22720140Y-8848674D02*
X22691568Y-8834389D01*
X22677283Y-8820103D01*
X22662997Y-8791532D01*
X22662997Y-8705817D01*
X22677283Y-8677246D01*
X22691568Y-8662960D01*
X22720140Y-8648674D01*
X22762997Y-8648674D01*
X22791568Y-8662960D01*
X22805854Y-8677246D01*
X22820140Y-8705817D01*
X22820140Y-8791532D01*
X22805854Y-8820103D01*
X22791568Y-8834389D01*
X22762997Y-8848674D01*
X22720140Y-8848674D01*
X22991568Y-8848674D02*
X22962997Y-8834389D01*
X22948711Y-8805817D01*
X22948711Y-8548674D01*
X23220140Y-8834389D02*
X23191568Y-8848674D01*
X23134426Y-8848674D01*
X23105854Y-8834389D01*
X23091568Y-8805817D01*
X23091568Y-8691532D01*
X23105854Y-8662960D01*
X23134426Y-8648674D01*
X23191568Y-8648674D01*
X23220140Y-8662960D01*
X23234426Y-8691532D01*
X23234426Y-8720103D01*
X23091568Y-8748674D01*
X23348711Y-8834389D02*
X23377283Y-8848674D01*
X23434426Y-8848674D01*
X23462997Y-8834389D01*
X23477283Y-8805817D01*
X23477283Y-8791532D01*
X23462997Y-8762960D01*
X23434426Y-8748674D01*
X23391568Y-8748674D01*
X23362997Y-8734389D01*
X23348711Y-8705817D01*
X23348711Y-8691532D01*
X23362997Y-8662960D01*
X23391568Y-8648674D01*
X23434426Y-8648674D01*
X23462997Y-8662960D01*
X23577283Y-8962960D02*
X23591568Y-8948674D01*
X23620140Y-8905817D01*
X23634426Y-8877246D01*
X23648711Y-8834389D01*
X23662997Y-8762960D01*
X23662997Y-8705817D01*
X23648711Y-8634389D01*
X23634426Y-8591532D01*
X23620140Y-8562960D01*
X23591568Y-8520103D01*
X23577283Y-8505817D01*
X16670140Y-8958960D02*
X16670140Y-9258960D01*
X16520140Y-9108960D02*
X16820140Y-9108960D01*
X17062997Y-8944674D02*
X17248711Y-8944674D01*
X17148711Y-9058960D01*
X17191569Y-9058960D01*
X17220140Y-9073246D01*
X17234426Y-9087532D01*
X17248711Y-9116103D01*
X17248711Y-9187532D01*
X17234426Y-9216103D01*
X17220140Y-9230389D01*
X17191569Y-9244674D01*
X17105854Y-9244674D01*
X17077283Y-9230389D01*
X17062997Y-9216103D01*
X17377283Y-9216103D02*
X17391569Y-9230389D01*
X17377283Y-9244674D01*
X17362997Y-9230389D01*
X17377283Y-9216103D01*
X17377283Y-9244674D01*
X17577283Y-8944674D02*
X17605854Y-8944674D01*
X17634426Y-8958960D01*
X17648711Y-8973246D01*
X17662997Y-9001817D01*
X17677283Y-9058960D01*
X17677283Y-9130389D01*
X17662997Y-9187532D01*
X17648711Y-9216103D01*
X17634426Y-9230389D01*
X17605854Y-9244674D01*
X17577283Y-9244674D01*
X17548711Y-9230389D01*
X17534426Y-9216103D01*
X17520140Y-9187532D01*
X17505854Y-9130389D01*
X17505854Y-9058960D01*
X17520140Y-9001817D01*
X17534426Y-8973246D01*
X17548711Y-8958960D01*
X17577283Y-8944674D01*
X17862997Y-8944674D02*
X17891569Y-8944674D01*
X17920140Y-8958960D01*
X17934426Y-8973246D01*
X17948711Y-9001817D01*
X17962997Y-9058960D01*
X17962997Y-9130389D01*
X17948711Y-9187532D01*
X17934426Y-9216103D01*
X17920140Y-9230389D01*
X17891569Y-9244674D01*
X17862997Y-9244674D01*
X17834426Y-9230389D01*
X17820140Y-9216103D01*
X17805854Y-9187532D01*
X17791569Y-9130389D01*
X17791569Y-9058960D01*
X17805854Y-9001817D01*
X17820140Y-8973246D01*
X17834426Y-8958960D01*
X17862997Y-8944674D01*
X18091569Y-9244674D02*
X18091569Y-9044674D01*
X18091569Y-9073246D02*
X18105854Y-9058960D01*
X18134426Y-9044674D01*
X18177283Y-9044674D01*
X18205854Y-9058960D01*
X18220140Y-9087532D01*
X18220140Y-9244674D01*
X18220140Y-9087532D02*
X18234426Y-9058960D01*
X18262997Y-9044674D01*
X18305854Y-9044674D01*
X18334426Y-9058960D01*
X18348711Y-9087532D01*
X18348711Y-9244674D01*
X18491569Y-9244674D02*
X18491569Y-9044674D01*
X18491569Y-9073246D02*
X18505854Y-9058960D01*
X18534426Y-9044674D01*
X18577283Y-9044674D01*
X18605854Y-9058960D01*
X18620140Y-9087532D01*
X18620140Y-9244674D01*
X18620140Y-9087532D02*
X18634426Y-9058960D01*
X18662997Y-9044674D01*
X18705854Y-9044674D01*
X18734426Y-9058960D01*
X18748711Y-9087532D01*
X18748711Y-9244674D01*
X19334426Y-8930389D02*
X19077283Y-9316103D01*
X19720140Y-8944674D02*
X19748711Y-8944674D01*
X19777283Y-8958960D01*
X19791568Y-8973246D01*
X19805854Y-9001817D01*
X19820140Y-9058960D01*
X19820140Y-9130389D01*
X19805854Y-9187532D01*
X19791568Y-9216103D01*
X19777283Y-9230389D01*
X19748711Y-9244674D01*
X19720140Y-9244674D01*
X19691568Y-9230389D01*
X19677283Y-9216103D01*
X19662997Y-9187532D01*
X19648711Y-9130389D01*
X19648711Y-9058960D01*
X19662997Y-9001817D01*
X19677283Y-8973246D01*
X19691568Y-8958960D01*
X19720140Y-8944674D01*
X19948711Y-9216103D02*
X19962997Y-9230389D01*
X19948711Y-9244674D01*
X19934426Y-9230389D01*
X19948711Y-9216103D01*
X19948711Y-9244674D01*
X20248711Y-9244674D02*
X20077283Y-9244674D01*
X20162997Y-9244674D02*
X20162997Y-8944674D01*
X20134426Y-8987532D01*
X20105854Y-9016103D01*
X20077283Y-9030389D01*
X20534426Y-9244674D02*
X20362997Y-9244674D01*
X20448711Y-9244674D02*
X20448711Y-8944674D01*
X20420140Y-8987532D01*
X20391568Y-9016103D01*
X20362997Y-9030389D01*
X20705854Y-9073246D02*
X20677283Y-9058960D01*
X20662997Y-9044674D01*
X20648711Y-9016103D01*
X20648711Y-9001817D01*
X20662997Y-8973246D01*
X20677283Y-8958960D01*
X20705854Y-8944674D01*
X20762997Y-8944674D01*
X20791568Y-8958960D01*
X20805854Y-8973246D01*
X20820140Y-9001817D01*
X20820140Y-9016103D01*
X20805854Y-9044674D01*
X20791568Y-9058960D01*
X20762997Y-9073246D01*
X20705854Y-9073246D01*
X20677283Y-9087532D01*
X20662997Y-9101817D01*
X20648711Y-9130389D01*
X20648711Y-9187532D01*
X20662997Y-9216103D01*
X20677283Y-9230389D01*
X20705854Y-9244674D01*
X20762997Y-9244674D01*
X20791568Y-9230389D01*
X20805854Y-9216103D01*
X20820140Y-9187532D01*
X20820140Y-9130389D01*
X20805854Y-9101817D01*
X20791568Y-9087532D01*
X20762997Y-9073246D01*
X20934426Y-8944674D02*
X20934426Y-9001817D01*
X21048711Y-8944674D02*
X21048711Y-9001817D01*
X21491568Y-9358960D02*
X21477283Y-9344674D01*
X21448711Y-9301817D01*
X21434426Y-9273246D01*
X21420140Y-9230389D01*
X21405854Y-9158960D01*
X21405854Y-9101817D01*
X21420140Y-9030389D01*
X21434426Y-8987532D01*
X21448711Y-8958960D01*
X21477283Y-8916103D01*
X21491568Y-8901817D01*
X21734426Y-8944674D02*
X21677283Y-8944674D01*
X21648711Y-8958960D01*
X21634426Y-8973246D01*
X21605854Y-9016103D01*
X21591568Y-9073246D01*
X21591568Y-9187532D01*
X21605854Y-9216103D01*
X21620140Y-9230389D01*
X21648711Y-9244674D01*
X21705854Y-9244674D01*
X21734426Y-9230389D01*
X21748711Y-9216103D01*
X21762997Y-9187532D01*
X21762997Y-9116103D01*
X21748711Y-9087532D01*
X21734426Y-9073246D01*
X21705854Y-9058960D01*
X21648711Y-9058960D01*
X21620140Y-9073246D01*
X21605854Y-9087532D01*
X21591568Y-9116103D01*
X22120140Y-9244674D02*
X22120140Y-8944674D01*
X22248711Y-9244674D02*
X22248711Y-9087532D01*
X22234426Y-9058960D01*
X22205854Y-9044674D01*
X22162997Y-9044674D01*
X22134426Y-9058960D01*
X22120140Y-9073246D01*
X22434425Y-9244674D02*
X22405854Y-9230389D01*
X22391568Y-9216103D01*
X22377283Y-9187532D01*
X22377283Y-9101817D01*
X22391568Y-9073246D01*
X22405854Y-9058960D01*
X22434425Y-9044674D01*
X22477283Y-9044674D01*
X22505854Y-9058960D01*
X22520140Y-9073246D01*
X22534425Y-9101817D01*
X22534425Y-9187532D01*
X22520140Y-9216103D01*
X22505854Y-9230389D01*
X22477283Y-9244674D01*
X22434425Y-9244674D01*
X22705854Y-9244674D02*
X22677283Y-9230389D01*
X22662997Y-9201817D01*
X22662997Y-8944674D01*
X22934426Y-9230389D02*
X22905854Y-9244674D01*
X22848711Y-9244674D01*
X22820140Y-9230389D01*
X22805854Y-9201817D01*
X22805854Y-9087532D01*
X22820140Y-9058960D01*
X22848711Y-9044674D01*
X22905854Y-9044674D01*
X22934426Y-9058960D01*
X22948711Y-9087532D01*
X22948711Y-9116103D01*
X22805854Y-9144674D01*
X23062997Y-9230389D02*
X23091568Y-9244674D01*
X23148711Y-9244674D01*
X23177283Y-9230389D01*
X23191568Y-9201817D01*
X23191568Y-9187532D01*
X23177283Y-9158960D01*
X23148711Y-9144674D01*
X23105854Y-9144674D01*
X23077283Y-9130389D01*
X23062997Y-9101817D01*
X23062997Y-9087532D01*
X23077283Y-9058960D01*
X23105854Y-9044674D01*
X23148711Y-9044674D01*
X23177283Y-9058960D01*
X23291568Y-9358960D02*
X23305854Y-9344674D01*
X23334426Y-9301817D01*
X23348711Y-9273246D01*
X23362997Y-9230389D01*
X23377283Y-9158960D01*
X23377283Y-9101817D01*
X23362997Y-9030389D01*
X23348711Y-8987532D01*
X23334426Y-8958960D01*
X23305854Y-8916103D01*
X23291568Y-8901817D01*
M02*
