G04 #@! TF.FileFunction,Legend,Top*
%FSLAX46Y46*%
G04 Gerber Fmt 4.6, Leading zero omitted, Abs format (unit mm)*
G04 Created by KiCad (PCBNEW (2015-07-31 BZR 6030)-product) date Sat Sep 12 09:44:37 2015*
%MOMM*%
G01*
G04 APERTURE LIST*
%ADD10C,0.100000*%
%ADD11C,0.150000*%
G04 APERTURE END LIST*
D10*
D11*
X211636400Y-46150400D02*
G75*
G03X211636400Y-46150400I-2286000J0D01*
G01*
X176076400Y-67486400D02*
G75*
G03X176076400Y-67486400I-2286000J0D01*
G01*
X209184400Y-53406800D02*
X209184400Y-52406800D01*
X207484400Y-52406800D02*
X207484400Y-53406800D01*
X196556800Y-67879200D02*
X197556800Y-67879200D01*
X197556800Y-66179200D02*
X196556800Y-66179200D01*
X199436600Y-63656000D02*
X199436600Y-63541000D01*
X195286600Y-63656000D02*
X195286600Y-63541000D01*
X195286600Y-54756000D02*
X195286600Y-54871000D01*
X199436600Y-54756000D02*
X199436600Y-54871000D01*
X199436600Y-63656000D02*
X195286600Y-63656000D01*
X199436600Y-54756000D02*
X195286600Y-54756000D01*
X199436600Y-63541000D02*
X200811600Y-63541000D01*
X191468800Y-46658400D02*
X204168800Y-46658400D01*
X204168800Y-46658400D02*
X204168800Y-49198400D01*
X204168800Y-49198400D02*
X191468800Y-49198400D01*
X188648800Y-46378400D02*
X190198800Y-46378400D01*
X191468800Y-46658400D02*
X191468800Y-49198400D01*
X190198800Y-49478400D02*
X188648800Y-49478400D01*
X188648800Y-49478400D02*
X188648800Y-46378400D01*
X209401200Y-63219200D02*
X209401200Y-55599200D01*
X206861200Y-63219200D02*
X206861200Y-55599200D01*
X206581200Y-66039200D02*
X206581200Y-64489200D01*
X209401200Y-55599200D02*
X206861200Y-55599200D01*
X206861200Y-63219200D02*
X209401200Y-63219200D01*
X209681200Y-64489200D02*
X209681200Y-66039200D01*
X209681200Y-66039200D02*
X206581200Y-66039200D01*
X179276800Y-60120400D02*
X179276800Y-52500400D01*
X176736800Y-60120400D02*
X176736800Y-52500400D01*
X176456800Y-62940400D02*
X176456800Y-61390400D01*
X179276800Y-52500400D02*
X176736800Y-52500400D01*
X176736800Y-60120400D02*
X179276800Y-60120400D01*
X179556800Y-61390400D02*
X179556800Y-62940400D01*
X179556800Y-62940400D02*
X176456800Y-62940400D01*
X190667400Y-62111200D02*
X190667400Y-63311200D01*
X188917400Y-63311200D02*
X188917400Y-62111200D01*
X189986000Y-60081000D02*
X188786000Y-60081000D01*
X188786000Y-58331000D02*
X189986000Y-58331000D01*
X180283200Y-67599400D02*
X179083200Y-67599400D01*
X179083200Y-65849400D02*
X180283200Y-65849400D01*
X182872200Y-59704400D02*
X182872200Y-58504400D01*
X184622200Y-58504400D02*
X184622200Y-59704400D01*
X188612600Y-55386400D02*
X188612600Y-54186400D01*
X190362600Y-54186400D02*
X190362600Y-55386400D01*
X183075400Y-48731600D02*
X183075400Y-47531600D01*
X184825400Y-47531600D02*
X184825400Y-48731600D01*
X174716200Y-56421600D02*
X174716200Y-57621600D01*
X172966200Y-57621600D02*
X172966200Y-56421600D01*
X184673000Y-53221200D02*
X184673000Y-54421200D01*
X182923000Y-54421200D02*
X182923000Y-53221200D01*
X203497000Y-53456000D02*
X203497000Y-52256000D01*
X205247000Y-52256000D02*
X205247000Y-53456000D01*
X204727600Y-68299200D02*
G75*
G03X204727600Y-68299200I-2286000J0D01*
G01*
X211636400Y-46150400D02*
G75*
G03X211636400Y-46150400I-2286000J0D01*
G01*
X176076400Y-67486400D02*
G75*
G03X176076400Y-67486400I-2286000J0D01*
G01*
X209184400Y-53406800D02*
X209184400Y-52406800D01*
X207484400Y-52406800D02*
X207484400Y-53406800D01*
X196556800Y-67879200D02*
X197556800Y-67879200D01*
X197556800Y-66179200D02*
X196556800Y-66179200D01*
X199436600Y-63656000D02*
X199436600Y-63541000D01*
X195286600Y-63656000D02*
X195286600Y-63541000D01*
X195286600Y-54756000D02*
X195286600Y-54871000D01*
X199436600Y-54756000D02*
X199436600Y-54871000D01*
X199436600Y-63656000D02*
X195286600Y-63656000D01*
X199436600Y-54756000D02*
X195286600Y-54756000D01*
X199436600Y-63541000D02*
X200811600Y-63541000D01*
X191468800Y-46658400D02*
X204168800Y-46658400D01*
X204168800Y-46658400D02*
X204168800Y-49198400D01*
X204168800Y-49198400D02*
X191468800Y-49198400D01*
X188648800Y-46378400D02*
X190198800Y-46378400D01*
X191468800Y-46658400D02*
X191468800Y-49198400D01*
X190198800Y-49478400D02*
X188648800Y-49478400D01*
X188648800Y-49478400D02*
X188648800Y-46378400D01*
X209401200Y-63219200D02*
X209401200Y-55599200D01*
X206861200Y-63219200D02*
X206861200Y-55599200D01*
X206581200Y-66039200D02*
X206581200Y-64489200D01*
X209401200Y-55599200D02*
X206861200Y-55599200D01*
X206861200Y-63219200D02*
X209401200Y-63219200D01*
X209681200Y-64489200D02*
X209681200Y-66039200D01*
X209681200Y-66039200D02*
X206581200Y-66039200D01*
X179276800Y-60120400D02*
X179276800Y-52500400D01*
X176736800Y-60120400D02*
X176736800Y-52500400D01*
X176456800Y-62940400D02*
X176456800Y-61390400D01*
X179276800Y-52500400D02*
X176736800Y-52500400D01*
X176736800Y-60120400D02*
X179276800Y-60120400D01*
X179556800Y-61390400D02*
X179556800Y-62940400D01*
X179556800Y-62940400D02*
X176456800Y-62940400D01*
X190667400Y-62111200D02*
X190667400Y-63311200D01*
X188917400Y-63311200D02*
X188917400Y-62111200D01*
X189986000Y-60081000D02*
X188786000Y-60081000D01*
X188786000Y-58331000D02*
X189986000Y-58331000D01*
X180283200Y-67599400D02*
X179083200Y-67599400D01*
X179083200Y-65849400D02*
X180283200Y-65849400D01*
X182872200Y-59704400D02*
X182872200Y-58504400D01*
X184622200Y-58504400D02*
X184622200Y-59704400D01*
X188612600Y-55386400D02*
X188612600Y-54186400D01*
X190362600Y-54186400D02*
X190362600Y-55386400D01*
X183075400Y-48731600D02*
X183075400Y-47531600D01*
X184825400Y-47531600D02*
X184825400Y-48731600D01*
X174716200Y-56421600D02*
X174716200Y-57621600D01*
X172966200Y-57621600D02*
X172966200Y-56421600D01*
X184673000Y-53221200D02*
X184673000Y-54421200D01*
X182923000Y-54421200D02*
X182923000Y-53221200D01*
X203497000Y-53456000D02*
X203497000Y-52256000D01*
X205247000Y-52256000D02*
X205247000Y-53456000D01*
X204727600Y-68299200D02*
G75*
G03X204727600Y-68299200I-2286000J0D01*
G01*
X210791543Y-53073466D02*
X210839162Y-53121085D01*
X210886781Y-53263942D01*
X210886781Y-53359180D01*
X210839162Y-53502038D01*
X210743924Y-53597276D01*
X210648686Y-53644895D01*
X210458210Y-53692514D01*
X210315352Y-53692514D01*
X210124876Y-53644895D01*
X210029638Y-53597276D01*
X209934400Y-53502038D01*
X209886781Y-53359180D01*
X209886781Y-53263942D01*
X209934400Y-53121085D01*
X209982019Y-53073466D01*
X210886781Y-52121085D02*
X210886781Y-52692514D01*
X210886781Y-52406800D02*
X209886781Y-52406800D01*
X210029638Y-52502038D01*
X210124876Y-52597276D01*
X210172495Y-52692514D01*
X196890134Y-69486343D02*
X196842515Y-69533962D01*
X196699658Y-69581581D01*
X196604420Y-69581581D01*
X196461562Y-69533962D01*
X196366324Y-69438724D01*
X196318705Y-69343486D01*
X196271086Y-69153010D01*
X196271086Y-69010152D01*
X196318705Y-68819676D01*
X196366324Y-68724438D01*
X196461562Y-68629200D01*
X196604420Y-68581581D01*
X196699658Y-68581581D01*
X196842515Y-68629200D01*
X196890134Y-68676819D01*
X197271086Y-68676819D02*
X197318705Y-68629200D01*
X197413943Y-68581581D01*
X197652039Y-68581581D01*
X197747277Y-68629200D01*
X197794896Y-68676819D01*
X197842515Y-68772057D01*
X197842515Y-68867295D01*
X197794896Y-69010152D01*
X197223467Y-69581581D01*
X197842515Y-69581581D01*
X196385410Y-65033381D02*
X196385410Y-64033381D01*
X197433029Y-64938143D02*
X197385410Y-64985762D01*
X197242553Y-65033381D01*
X197147315Y-65033381D01*
X197004457Y-64985762D01*
X196909219Y-64890524D01*
X196861600Y-64795286D01*
X196813981Y-64604810D01*
X196813981Y-64461952D01*
X196861600Y-64271476D01*
X196909219Y-64176238D01*
X197004457Y-64081000D01*
X197147315Y-64033381D01*
X197242553Y-64033381D01*
X197385410Y-64081000D01*
X197433029Y-64128619D01*
X198385410Y-65033381D02*
X197813981Y-65033381D01*
X198099695Y-65033381D02*
X198099695Y-64033381D01*
X198004457Y-64176238D01*
X197909219Y-64271476D01*
X197813981Y-64319095D01*
X185551181Y-48666495D02*
X184551181Y-48666495D01*
X184551181Y-48285542D01*
X184598800Y-48190304D01*
X184646419Y-48142685D01*
X184741657Y-48095066D01*
X184884514Y-48095066D01*
X184979752Y-48142685D01*
X185027371Y-48190304D01*
X185074990Y-48285542D01*
X185074990Y-48666495D01*
X185551181Y-47142685D02*
X185551181Y-47714114D01*
X185551181Y-47428400D02*
X184551181Y-47428400D01*
X184694038Y-47523638D01*
X184789276Y-47618876D01*
X184836895Y-47714114D01*
X207393105Y-70041581D02*
X207393105Y-69041581D01*
X207774058Y-69041581D01*
X207869296Y-69089200D01*
X207916915Y-69136819D01*
X207964534Y-69232057D01*
X207964534Y-69374914D01*
X207916915Y-69470152D01*
X207869296Y-69517771D01*
X207774058Y-69565390D01*
X207393105Y-69565390D01*
X208345486Y-69136819D02*
X208393105Y-69089200D01*
X208488343Y-69041581D01*
X208726439Y-69041581D01*
X208821677Y-69089200D01*
X208869296Y-69136819D01*
X208916915Y-69232057D01*
X208916915Y-69327295D01*
X208869296Y-69470152D01*
X208297867Y-70041581D01*
X208916915Y-70041581D01*
X177268705Y-66942781D02*
X177268705Y-65942781D01*
X177649658Y-65942781D01*
X177744896Y-65990400D01*
X177792515Y-66038019D01*
X177840134Y-66133257D01*
X177840134Y-66276114D01*
X177792515Y-66371352D01*
X177744896Y-66418971D01*
X177649658Y-66466590D01*
X177268705Y-66466590D01*
X178173467Y-65942781D02*
X178792515Y-65942781D01*
X178459181Y-66323733D01*
X178602039Y-66323733D01*
X178697277Y-66371352D01*
X178744896Y-66418971D01*
X178792515Y-66514210D01*
X178792515Y-66752305D01*
X178744896Y-66847543D01*
X178697277Y-66895162D01*
X178602039Y-66942781D01*
X178316324Y-66942781D01*
X178221086Y-66895162D01*
X178173467Y-66847543D01*
X188479219Y-66362438D02*
X188431600Y-66457676D01*
X188336362Y-66552914D01*
X188193505Y-66695771D01*
X188145886Y-66791010D01*
X188145886Y-66886248D01*
X188383981Y-66838629D02*
X188336362Y-66933867D01*
X188241124Y-67029105D01*
X188050648Y-67076724D01*
X187717314Y-67076724D01*
X187526838Y-67029105D01*
X187431600Y-66933867D01*
X187383981Y-66838629D01*
X187383981Y-66648152D01*
X187431600Y-66552914D01*
X187526838Y-66457676D01*
X187717314Y-66410057D01*
X188050648Y-66410057D01*
X188241124Y-66457676D01*
X188336362Y-66552914D01*
X188383981Y-66648152D01*
X188383981Y-66838629D01*
X188383981Y-65457676D02*
X188383981Y-66029105D01*
X188383981Y-65743391D02*
X187383981Y-65743391D01*
X187526838Y-65838629D01*
X187622076Y-65933867D01*
X187669695Y-66029105D01*
X180554419Y-49293638D02*
X180506800Y-49388876D01*
X180411562Y-49484114D01*
X180268705Y-49626971D01*
X180221086Y-49722210D01*
X180221086Y-49817448D01*
X180459181Y-49769829D02*
X180411562Y-49865067D01*
X180316324Y-49960305D01*
X180125848Y-50007924D01*
X179792514Y-50007924D01*
X179602038Y-49960305D01*
X179506800Y-49865067D01*
X179459181Y-49769829D01*
X179459181Y-49579352D01*
X179506800Y-49484114D01*
X179602038Y-49388876D01*
X179792514Y-49341257D01*
X180125848Y-49341257D01*
X180316324Y-49388876D01*
X180411562Y-49484114D01*
X180459181Y-49579352D01*
X180459181Y-49769829D01*
X179554419Y-48960305D02*
X179506800Y-48912686D01*
X179459181Y-48817448D01*
X179459181Y-48579352D01*
X179506800Y-48484114D01*
X179554419Y-48436495D01*
X179649657Y-48388876D01*
X179744895Y-48388876D01*
X179887752Y-48436495D01*
X180459181Y-49007924D01*
X180459181Y-48388876D01*
X188144781Y-62877866D02*
X187668590Y-63211200D01*
X188144781Y-63449295D02*
X187144781Y-63449295D01*
X187144781Y-63068342D01*
X187192400Y-62973104D01*
X187240019Y-62925485D01*
X187335257Y-62877866D01*
X187478114Y-62877866D01*
X187573352Y-62925485D01*
X187620971Y-62973104D01*
X187668590Y-63068342D01*
X187668590Y-63449295D01*
X188144781Y-61925485D02*
X188144781Y-62496914D01*
X188144781Y-62211200D02*
X187144781Y-62211200D01*
X187287638Y-62306438D01*
X187382876Y-62401676D01*
X187430495Y-62496914D01*
X189219334Y-57558381D02*
X188886000Y-57082190D01*
X188647905Y-57558381D02*
X188647905Y-56558381D01*
X189028858Y-56558381D01*
X189124096Y-56606000D01*
X189171715Y-56653619D01*
X189219334Y-56748857D01*
X189219334Y-56891714D01*
X189171715Y-56986952D01*
X189124096Y-57034571D01*
X189028858Y-57082190D01*
X188647905Y-57082190D01*
X189600286Y-56653619D02*
X189647905Y-56606000D01*
X189743143Y-56558381D01*
X189981239Y-56558381D01*
X190076477Y-56606000D01*
X190124096Y-56653619D01*
X190171715Y-56748857D01*
X190171715Y-56844095D01*
X190124096Y-56986952D01*
X189552667Y-57558381D01*
X190171715Y-57558381D01*
X179516534Y-65076781D02*
X179183200Y-64600590D01*
X178945105Y-65076781D02*
X178945105Y-64076781D01*
X179326058Y-64076781D01*
X179421296Y-64124400D01*
X179468915Y-64172019D01*
X179516534Y-64267257D01*
X179516534Y-64410114D01*
X179468915Y-64505352D01*
X179421296Y-64552971D01*
X179326058Y-64600590D01*
X178945105Y-64600590D01*
X179849867Y-64076781D02*
X180468915Y-64076781D01*
X180135581Y-64457733D01*
X180278439Y-64457733D01*
X180373677Y-64505352D01*
X180421296Y-64552971D01*
X180468915Y-64648210D01*
X180468915Y-64886305D01*
X180421296Y-64981543D01*
X180373677Y-65029162D01*
X180278439Y-65076781D01*
X179992724Y-65076781D01*
X179897486Y-65029162D01*
X179849867Y-64981543D01*
X186299581Y-59271066D02*
X185823390Y-59604400D01*
X186299581Y-59842495D02*
X185299581Y-59842495D01*
X185299581Y-59461542D01*
X185347200Y-59366304D01*
X185394819Y-59318685D01*
X185490057Y-59271066D01*
X185632914Y-59271066D01*
X185728152Y-59318685D01*
X185775771Y-59366304D01*
X185823390Y-59461542D01*
X185823390Y-59842495D01*
X185632914Y-58413923D02*
X186299581Y-58413923D01*
X185251962Y-58652019D02*
X185966248Y-58890114D01*
X185966248Y-58271066D01*
X192039981Y-54953066D02*
X191563790Y-55286400D01*
X192039981Y-55524495D02*
X191039981Y-55524495D01*
X191039981Y-55143542D01*
X191087600Y-55048304D01*
X191135219Y-55000685D01*
X191230457Y-54953066D01*
X191373314Y-54953066D01*
X191468552Y-55000685D01*
X191516171Y-55048304D01*
X191563790Y-55143542D01*
X191563790Y-55524495D01*
X191039981Y-54048304D02*
X191039981Y-54524495D01*
X191516171Y-54572114D01*
X191468552Y-54524495D01*
X191420933Y-54429257D01*
X191420933Y-54191161D01*
X191468552Y-54095923D01*
X191516171Y-54048304D01*
X191611410Y-54000685D01*
X191849505Y-54000685D01*
X191944743Y-54048304D01*
X191992362Y-54095923D01*
X192039981Y-54191161D01*
X192039981Y-54429257D01*
X191992362Y-54524495D01*
X191944743Y-54572114D01*
X186502781Y-48298266D02*
X186026590Y-48631600D01*
X186502781Y-48869695D02*
X185502781Y-48869695D01*
X185502781Y-48488742D01*
X185550400Y-48393504D01*
X185598019Y-48345885D01*
X185693257Y-48298266D01*
X185836114Y-48298266D01*
X185931352Y-48345885D01*
X185978971Y-48393504D01*
X186026590Y-48488742D01*
X186026590Y-48869695D01*
X185502781Y-47441123D02*
X185502781Y-47631600D01*
X185550400Y-47726838D01*
X185598019Y-47774457D01*
X185740876Y-47869695D01*
X185931352Y-47917314D01*
X186312305Y-47917314D01*
X186407543Y-47869695D01*
X186455162Y-47822076D01*
X186502781Y-47726838D01*
X186502781Y-47536361D01*
X186455162Y-47441123D01*
X186407543Y-47393504D01*
X186312305Y-47345885D01*
X186074210Y-47345885D01*
X185978971Y-47393504D01*
X185931352Y-47441123D01*
X185883733Y-47536361D01*
X185883733Y-47726838D01*
X185931352Y-47822076D01*
X185978971Y-47869695D01*
X186074210Y-47917314D01*
X172193581Y-57188266D02*
X171717390Y-57521600D01*
X172193581Y-57759695D02*
X171193581Y-57759695D01*
X171193581Y-57378742D01*
X171241200Y-57283504D01*
X171288819Y-57235885D01*
X171384057Y-57188266D01*
X171526914Y-57188266D01*
X171622152Y-57235885D01*
X171669771Y-57283504D01*
X171717390Y-57378742D01*
X171717390Y-57759695D01*
X171193581Y-56854933D02*
X171193581Y-56188266D01*
X172193581Y-56616838D01*
X182150381Y-53987866D02*
X181674190Y-54321200D01*
X182150381Y-54559295D02*
X181150381Y-54559295D01*
X181150381Y-54178342D01*
X181198000Y-54083104D01*
X181245619Y-54035485D01*
X181340857Y-53987866D01*
X181483714Y-53987866D01*
X181578952Y-54035485D01*
X181626571Y-54083104D01*
X181674190Y-54178342D01*
X181674190Y-54559295D01*
X181578952Y-53416438D02*
X181531333Y-53511676D01*
X181483714Y-53559295D01*
X181388476Y-53606914D01*
X181340857Y-53606914D01*
X181245619Y-53559295D01*
X181198000Y-53511676D01*
X181150381Y-53416438D01*
X181150381Y-53225961D01*
X181198000Y-53130723D01*
X181245619Y-53083104D01*
X181340857Y-53035485D01*
X181388476Y-53035485D01*
X181483714Y-53083104D01*
X181531333Y-53130723D01*
X181578952Y-53225961D01*
X181578952Y-53416438D01*
X181626571Y-53511676D01*
X181674190Y-53559295D01*
X181769429Y-53606914D01*
X181959905Y-53606914D01*
X182055143Y-53559295D01*
X182102762Y-53511676D01*
X182150381Y-53416438D01*
X182150381Y-53225961D01*
X182102762Y-53130723D01*
X182055143Y-53083104D01*
X181959905Y-53035485D01*
X181769429Y-53035485D01*
X181674190Y-53083104D01*
X181626571Y-53130723D01*
X181578952Y-53225961D01*
X206924381Y-53022666D02*
X206448190Y-53356000D01*
X206924381Y-53594095D02*
X205924381Y-53594095D01*
X205924381Y-53213142D01*
X205972000Y-53117904D01*
X206019619Y-53070285D01*
X206114857Y-53022666D01*
X206257714Y-53022666D01*
X206352952Y-53070285D01*
X206400571Y-53117904D01*
X206448190Y-53213142D01*
X206448190Y-53594095D01*
X206924381Y-52546476D02*
X206924381Y-52356000D01*
X206876762Y-52260761D01*
X206829143Y-52213142D01*
X206686286Y-52117904D01*
X206495810Y-52070285D01*
X206114857Y-52070285D01*
X206019619Y-52117904D01*
X205972000Y-52165523D01*
X205924381Y-52260761D01*
X205924381Y-52451238D01*
X205972000Y-52546476D01*
X206019619Y-52594095D01*
X206114857Y-52641714D01*
X206352952Y-52641714D01*
X206448190Y-52594095D01*
X206495810Y-52546476D01*
X206543429Y-52451238D01*
X206543429Y-52260761D01*
X206495810Y-52165523D01*
X206448190Y-52117904D01*
X206352952Y-52070285D01*
X210791543Y-53073466D02*
X210839162Y-53121085D01*
X210886781Y-53263942D01*
X210886781Y-53359180D01*
X210839162Y-53502038D01*
X210743924Y-53597276D01*
X210648686Y-53644895D01*
X210458210Y-53692514D01*
X210315352Y-53692514D01*
X210124876Y-53644895D01*
X210029638Y-53597276D01*
X209934400Y-53502038D01*
X209886781Y-53359180D01*
X209886781Y-53263942D01*
X209934400Y-53121085D01*
X209982019Y-53073466D01*
X210886781Y-52121085D02*
X210886781Y-52692514D01*
X210886781Y-52406800D02*
X209886781Y-52406800D01*
X210029638Y-52502038D01*
X210124876Y-52597276D01*
X210172495Y-52692514D01*
X196890134Y-69486343D02*
X196842515Y-69533962D01*
X196699658Y-69581581D01*
X196604420Y-69581581D01*
X196461562Y-69533962D01*
X196366324Y-69438724D01*
X196318705Y-69343486D01*
X196271086Y-69153010D01*
X196271086Y-69010152D01*
X196318705Y-68819676D01*
X196366324Y-68724438D01*
X196461562Y-68629200D01*
X196604420Y-68581581D01*
X196699658Y-68581581D01*
X196842515Y-68629200D01*
X196890134Y-68676819D01*
X197271086Y-68676819D02*
X197318705Y-68629200D01*
X197413943Y-68581581D01*
X197652039Y-68581581D01*
X197747277Y-68629200D01*
X197794896Y-68676819D01*
X197842515Y-68772057D01*
X197842515Y-68867295D01*
X197794896Y-69010152D01*
X197223467Y-69581581D01*
X197842515Y-69581581D01*
X196385410Y-65033381D02*
X196385410Y-64033381D01*
X197433029Y-64938143D02*
X197385410Y-64985762D01*
X197242553Y-65033381D01*
X197147315Y-65033381D01*
X197004457Y-64985762D01*
X196909219Y-64890524D01*
X196861600Y-64795286D01*
X196813981Y-64604810D01*
X196813981Y-64461952D01*
X196861600Y-64271476D01*
X196909219Y-64176238D01*
X197004457Y-64081000D01*
X197147315Y-64033381D01*
X197242553Y-64033381D01*
X197385410Y-64081000D01*
X197433029Y-64128619D01*
X198385410Y-65033381D02*
X197813981Y-65033381D01*
X198099695Y-65033381D02*
X198099695Y-64033381D01*
X198004457Y-64176238D01*
X197909219Y-64271476D01*
X197813981Y-64319095D01*
X185551181Y-48666495D02*
X184551181Y-48666495D01*
X184551181Y-48285542D01*
X184598800Y-48190304D01*
X184646419Y-48142685D01*
X184741657Y-48095066D01*
X184884514Y-48095066D01*
X184979752Y-48142685D01*
X185027371Y-48190304D01*
X185074990Y-48285542D01*
X185074990Y-48666495D01*
X185551181Y-47142685D02*
X185551181Y-47714114D01*
X185551181Y-47428400D02*
X184551181Y-47428400D01*
X184694038Y-47523638D01*
X184789276Y-47618876D01*
X184836895Y-47714114D01*
X207393105Y-70041581D02*
X207393105Y-69041581D01*
X207774058Y-69041581D01*
X207869296Y-69089200D01*
X207916915Y-69136819D01*
X207964534Y-69232057D01*
X207964534Y-69374914D01*
X207916915Y-69470152D01*
X207869296Y-69517771D01*
X207774058Y-69565390D01*
X207393105Y-69565390D01*
X208345486Y-69136819D02*
X208393105Y-69089200D01*
X208488343Y-69041581D01*
X208726439Y-69041581D01*
X208821677Y-69089200D01*
X208869296Y-69136819D01*
X208916915Y-69232057D01*
X208916915Y-69327295D01*
X208869296Y-69470152D01*
X208297867Y-70041581D01*
X208916915Y-70041581D01*
X177268705Y-66942781D02*
X177268705Y-65942781D01*
X177649658Y-65942781D01*
X177744896Y-65990400D01*
X177792515Y-66038019D01*
X177840134Y-66133257D01*
X177840134Y-66276114D01*
X177792515Y-66371352D01*
X177744896Y-66418971D01*
X177649658Y-66466590D01*
X177268705Y-66466590D01*
X178173467Y-65942781D02*
X178792515Y-65942781D01*
X178459181Y-66323733D01*
X178602039Y-66323733D01*
X178697277Y-66371352D01*
X178744896Y-66418971D01*
X178792515Y-66514210D01*
X178792515Y-66752305D01*
X178744896Y-66847543D01*
X178697277Y-66895162D01*
X178602039Y-66942781D01*
X178316324Y-66942781D01*
X178221086Y-66895162D01*
X178173467Y-66847543D01*
X188479219Y-66362438D02*
X188431600Y-66457676D01*
X188336362Y-66552914D01*
X188193505Y-66695771D01*
X188145886Y-66791010D01*
X188145886Y-66886248D01*
X188383981Y-66838629D02*
X188336362Y-66933867D01*
X188241124Y-67029105D01*
X188050648Y-67076724D01*
X187717314Y-67076724D01*
X187526838Y-67029105D01*
X187431600Y-66933867D01*
X187383981Y-66838629D01*
X187383981Y-66648152D01*
X187431600Y-66552914D01*
X187526838Y-66457676D01*
X187717314Y-66410057D01*
X188050648Y-66410057D01*
X188241124Y-66457676D01*
X188336362Y-66552914D01*
X188383981Y-66648152D01*
X188383981Y-66838629D01*
X188383981Y-65457676D02*
X188383981Y-66029105D01*
X188383981Y-65743391D02*
X187383981Y-65743391D01*
X187526838Y-65838629D01*
X187622076Y-65933867D01*
X187669695Y-66029105D01*
X180554419Y-49293638D02*
X180506800Y-49388876D01*
X180411562Y-49484114D01*
X180268705Y-49626971D01*
X180221086Y-49722210D01*
X180221086Y-49817448D01*
X180459181Y-49769829D02*
X180411562Y-49865067D01*
X180316324Y-49960305D01*
X180125848Y-50007924D01*
X179792514Y-50007924D01*
X179602038Y-49960305D01*
X179506800Y-49865067D01*
X179459181Y-49769829D01*
X179459181Y-49579352D01*
X179506800Y-49484114D01*
X179602038Y-49388876D01*
X179792514Y-49341257D01*
X180125848Y-49341257D01*
X180316324Y-49388876D01*
X180411562Y-49484114D01*
X180459181Y-49579352D01*
X180459181Y-49769829D01*
X179554419Y-48960305D02*
X179506800Y-48912686D01*
X179459181Y-48817448D01*
X179459181Y-48579352D01*
X179506800Y-48484114D01*
X179554419Y-48436495D01*
X179649657Y-48388876D01*
X179744895Y-48388876D01*
X179887752Y-48436495D01*
X180459181Y-49007924D01*
X180459181Y-48388876D01*
X188144781Y-62877866D02*
X187668590Y-63211200D01*
X188144781Y-63449295D02*
X187144781Y-63449295D01*
X187144781Y-63068342D01*
X187192400Y-62973104D01*
X187240019Y-62925485D01*
X187335257Y-62877866D01*
X187478114Y-62877866D01*
X187573352Y-62925485D01*
X187620971Y-62973104D01*
X187668590Y-63068342D01*
X187668590Y-63449295D01*
X188144781Y-61925485D02*
X188144781Y-62496914D01*
X188144781Y-62211200D02*
X187144781Y-62211200D01*
X187287638Y-62306438D01*
X187382876Y-62401676D01*
X187430495Y-62496914D01*
X189219334Y-57558381D02*
X188886000Y-57082190D01*
X188647905Y-57558381D02*
X188647905Y-56558381D01*
X189028858Y-56558381D01*
X189124096Y-56606000D01*
X189171715Y-56653619D01*
X189219334Y-56748857D01*
X189219334Y-56891714D01*
X189171715Y-56986952D01*
X189124096Y-57034571D01*
X189028858Y-57082190D01*
X188647905Y-57082190D01*
X189600286Y-56653619D02*
X189647905Y-56606000D01*
X189743143Y-56558381D01*
X189981239Y-56558381D01*
X190076477Y-56606000D01*
X190124096Y-56653619D01*
X190171715Y-56748857D01*
X190171715Y-56844095D01*
X190124096Y-56986952D01*
X189552667Y-57558381D01*
X190171715Y-57558381D01*
X179516534Y-65076781D02*
X179183200Y-64600590D01*
X178945105Y-65076781D02*
X178945105Y-64076781D01*
X179326058Y-64076781D01*
X179421296Y-64124400D01*
X179468915Y-64172019D01*
X179516534Y-64267257D01*
X179516534Y-64410114D01*
X179468915Y-64505352D01*
X179421296Y-64552971D01*
X179326058Y-64600590D01*
X178945105Y-64600590D01*
X179849867Y-64076781D02*
X180468915Y-64076781D01*
X180135581Y-64457733D01*
X180278439Y-64457733D01*
X180373677Y-64505352D01*
X180421296Y-64552971D01*
X180468915Y-64648210D01*
X180468915Y-64886305D01*
X180421296Y-64981543D01*
X180373677Y-65029162D01*
X180278439Y-65076781D01*
X179992724Y-65076781D01*
X179897486Y-65029162D01*
X179849867Y-64981543D01*
X186299581Y-59271066D02*
X185823390Y-59604400D01*
X186299581Y-59842495D02*
X185299581Y-59842495D01*
X185299581Y-59461542D01*
X185347200Y-59366304D01*
X185394819Y-59318685D01*
X185490057Y-59271066D01*
X185632914Y-59271066D01*
X185728152Y-59318685D01*
X185775771Y-59366304D01*
X185823390Y-59461542D01*
X185823390Y-59842495D01*
X185632914Y-58413923D02*
X186299581Y-58413923D01*
X185251962Y-58652019D02*
X185966248Y-58890114D01*
X185966248Y-58271066D01*
X192039981Y-54953066D02*
X191563790Y-55286400D01*
X192039981Y-55524495D02*
X191039981Y-55524495D01*
X191039981Y-55143542D01*
X191087600Y-55048304D01*
X191135219Y-55000685D01*
X191230457Y-54953066D01*
X191373314Y-54953066D01*
X191468552Y-55000685D01*
X191516171Y-55048304D01*
X191563790Y-55143542D01*
X191563790Y-55524495D01*
X191039981Y-54048304D02*
X191039981Y-54524495D01*
X191516171Y-54572114D01*
X191468552Y-54524495D01*
X191420933Y-54429257D01*
X191420933Y-54191161D01*
X191468552Y-54095923D01*
X191516171Y-54048304D01*
X191611410Y-54000685D01*
X191849505Y-54000685D01*
X191944743Y-54048304D01*
X191992362Y-54095923D01*
X192039981Y-54191161D01*
X192039981Y-54429257D01*
X191992362Y-54524495D01*
X191944743Y-54572114D01*
X186502781Y-48298266D02*
X186026590Y-48631600D01*
X186502781Y-48869695D02*
X185502781Y-48869695D01*
X185502781Y-48488742D01*
X185550400Y-48393504D01*
X185598019Y-48345885D01*
X185693257Y-48298266D01*
X185836114Y-48298266D01*
X185931352Y-48345885D01*
X185978971Y-48393504D01*
X186026590Y-48488742D01*
X186026590Y-48869695D01*
X185502781Y-47441123D02*
X185502781Y-47631600D01*
X185550400Y-47726838D01*
X185598019Y-47774457D01*
X185740876Y-47869695D01*
X185931352Y-47917314D01*
X186312305Y-47917314D01*
X186407543Y-47869695D01*
X186455162Y-47822076D01*
X186502781Y-47726838D01*
X186502781Y-47536361D01*
X186455162Y-47441123D01*
X186407543Y-47393504D01*
X186312305Y-47345885D01*
X186074210Y-47345885D01*
X185978971Y-47393504D01*
X185931352Y-47441123D01*
X185883733Y-47536361D01*
X185883733Y-47726838D01*
X185931352Y-47822076D01*
X185978971Y-47869695D01*
X186074210Y-47917314D01*
X172193581Y-57188266D02*
X171717390Y-57521600D01*
X172193581Y-57759695D02*
X171193581Y-57759695D01*
X171193581Y-57378742D01*
X171241200Y-57283504D01*
X171288819Y-57235885D01*
X171384057Y-57188266D01*
X171526914Y-57188266D01*
X171622152Y-57235885D01*
X171669771Y-57283504D01*
X171717390Y-57378742D01*
X171717390Y-57759695D01*
X171193581Y-56854933D02*
X171193581Y-56188266D01*
X172193581Y-56616838D01*
X182150381Y-53987866D02*
X181674190Y-54321200D01*
X182150381Y-54559295D02*
X181150381Y-54559295D01*
X181150381Y-54178342D01*
X181198000Y-54083104D01*
X181245619Y-54035485D01*
X181340857Y-53987866D01*
X181483714Y-53987866D01*
X181578952Y-54035485D01*
X181626571Y-54083104D01*
X181674190Y-54178342D01*
X181674190Y-54559295D01*
X181578952Y-53416438D02*
X181531333Y-53511676D01*
X181483714Y-53559295D01*
X181388476Y-53606914D01*
X181340857Y-53606914D01*
X181245619Y-53559295D01*
X181198000Y-53511676D01*
X181150381Y-53416438D01*
X181150381Y-53225961D01*
X181198000Y-53130723D01*
X181245619Y-53083104D01*
X181340857Y-53035485D01*
X181388476Y-53035485D01*
X181483714Y-53083104D01*
X181531333Y-53130723D01*
X181578952Y-53225961D01*
X181578952Y-53416438D01*
X181626571Y-53511676D01*
X181674190Y-53559295D01*
X181769429Y-53606914D01*
X181959905Y-53606914D01*
X182055143Y-53559295D01*
X182102762Y-53511676D01*
X182150381Y-53416438D01*
X182150381Y-53225961D01*
X182102762Y-53130723D01*
X182055143Y-53083104D01*
X181959905Y-53035485D01*
X181769429Y-53035485D01*
X181674190Y-53083104D01*
X181626571Y-53130723D01*
X181578952Y-53225961D01*
X206924381Y-53022666D02*
X206448190Y-53356000D01*
X206924381Y-53594095D02*
X205924381Y-53594095D01*
X205924381Y-53213142D01*
X205972000Y-53117904D01*
X206019619Y-53070285D01*
X206114857Y-53022666D01*
X206257714Y-53022666D01*
X206352952Y-53070285D01*
X206400571Y-53117904D01*
X206448190Y-53213142D01*
X206448190Y-53594095D01*
X206924381Y-52546476D02*
X206924381Y-52356000D01*
X206876762Y-52260761D01*
X206829143Y-52213142D01*
X206686286Y-52117904D01*
X206495810Y-52070285D01*
X206114857Y-52070285D01*
X206019619Y-52117904D01*
X205972000Y-52165523D01*
X205924381Y-52260761D01*
X205924381Y-52451238D01*
X205972000Y-52546476D01*
X206019619Y-52594095D01*
X206114857Y-52641714D01*
X206352952Y-52641714D01*
X206448190Y-52594095D01*
X206495810Y-52546476D01*
X206543429Y-52451238D01*
X206543429Y-52260761D01*
X206495810Y-52165523D01*
X206448190Y-52117904D01*
X206352952Y-52070285D01*
M02*
