G04 #@! TF.FileFunction,Legend,Top*
%FSLAX46Y46*%
G04 Gerber Fmt 4.6, Leading zero omitted, Abs format (unit mm)*
G04 Created by KiCad (PCBNEW (2015-07-31 BZR 6030)-product) date Mon Sep 14 17:18:50 2015*
%MOMM*%
G01*
G04 APERTURE LIST*
%ADD10C,0.100000*%
%ADD11C,0.150000*%
G04 APERTURE END LIST*
D10*
D11*
X211636400Y-46150400D02*
G75*
G03X211636400Y-46150400I-2286000J0D01*
G01*
X176076400Y-67486400D02*
G75*
G03X176076400Y-67486400I-2286000J0D01*
G01*
X209184400Y-53406800D02*
X209184400Y-52406800D01*
X207484400Y-52406800D02*
X207484400Y-53406800D01*
X196556800Y-67879200D02*
X197556800Y-67879200D01*
X197556800Y-66179200D02*
X196556800Y-66179200D01*
X199436600Y-63656000D02*
X199436600Y-63541000D01*
X195286600Y-63656000D02*
X195286600Y-63541000D01*
X195286600Y-54756000D02*
X195286600Y-54871000D01*
X199436600Y-54756000D02*
X199436600Y-54871000D01*
X199436600Y-63656000D02*
X195286600Y-63656000D01*
X199436600Y-54756000D02*
X195286600Y-54756000D01*
X199436600Y-63541000D02*
X200811600Y-63541000D01*
X191468800Y-46658400D02*
X204168800Y-46658400D01*
X204168800Y-46658400D02*
X204168800Y-49198400D01*
X204168800Y-49198400D02*
X191468800Y-49198400D01*
X188648800Y-46378400D02*
X190198800Y-46378400D01*
X191468800Y-46658400D02*
X191468800Y-49198400D01*
X190198800Y-49478400D02*
X188648800Y-49478400D01*
X188648800Y-49478400D02*
X188648800Y-46378400D01*
X209401200Y-63219200D02*
X209401200Y-55599200D01*
X206861200Y-63219200D02*
X206861200Y-55599200D01*
X206581200Y-66039200D02*
X206581200Y-64489200D01*
X209401200Y-55599200D02*
X206861200Y-55599200D01*
X206861200Y-63219200D02*
X209401200Y-63219200D01*
X209681200Y-64489200D02*
X209681200Y-66039200D01*
X209681200Y-66039200D02*
X206581200Y-66039200D01*
X179276800Y-60120400D02*
X179276800Y-52500400D01*
X176736800Y-60120400D02*
X176736800Y-52500400D01*
X176456800Y-62940400D02*
X176456800Y-61390400D01*
X179276800Y-52500400D02*
X176736800Y-52500400D01*
X176736800Y-60120400D02*
X179276800Y-60120400D01*
X179556800Y-61390400D02*
X179556800Y-62940400D01*
X179556800Y-62940400D02*
X176456800Y-62940400D01*
X190667400Y-62111200D02*
X190667400Y-63311200D01*
X188917400Y-63311200D02*
X188917400Y-62111200D01*
X189986000Y-60081000D02*
X188786000Y-60081000D01*
X188786000Y-58331000D02*
X189986000Y-58331000D01*
X180283200Y-67599400D02*
X179083200Y-67599400D01*
X179083200Y-65849400D02*
X180283200Y-65849400D01*
X182872200Y-59704400D02*
X182872200Y-58504400D01*
X184622200Y-58504400D02*
X184622200Y-59704400D01*
X188612600Y-55386400D02*
X188612600Y-54186400D01*
X190362600Y-54186400D02*
X190362600Y-55386400D01*
X183075400Y-48731600D02*
X183075400Y-47531600D01*
X184825400Y-47531600D02*
X184825400Y-48731600D01*
X174716200Y-56421600D02*
X174716200Y-57621600D01*
X172966200Y-57621600D02*
X172966200Y-56421600D01*
X184673000Y-53221200D02*
X184673000Y-54421200D01*
X182923000Y-54421200D02*
X182923000Y-53221200D01*
X203497000Y-53456000D02*
X203497000Y-52256000D01*
X205247000Y-52256000D02*
X205247000Y-53456000D01*
X204727600Y-68299200D02*
G75*
G03X204727600Y-68299200I-2286000J0D01*
G01*
X211636400Y-46150400D02*
G75*
G03X211636400Y-46150400I-2286000J0D01*
G01*
X176076400Y-67486400D02*
G75*
G03X176076400Y-67486400I-2286000J0D01*
G01*
X209184400Y-53406800D02*
X209184400Y-52406800D01*
X207484400Y-52406800D02*
X207484400Y-53406800D01*
X196556800Y-67879200D02*
X197556800Y-67879200D01*
X197556800Y-66179200D02*
X196556800Y-66179200D01*
X199436600Y-63656000D02*
X199436600Y-63541000D01*
X195286600Y-63656000D02*
X195286600Y-63541000D01*
X195286600Y-54756000D02*
X195286600Y-54871000D01*
X199436600Y-54756000D02*
X199436600Y-54871000D01*
X199436600Y-63656000D02*
X195286600Y-63656000D01*
X199436600Y-54756000D02*
X195286600Y-54756000D01*
X199436600Y-63541000D02*
X200811600Y-63541000D01*
X191468800Y-46658400D02*
X204168800Y-46658400D01*
X204168800Y-46658400D02*
X204168800Y-49198400D01*
X204168800Y-49198400D02*
X191468800Y-49198400D01*
X188648800Y-46378400D02*
X190198800Y-46378400D01*
X191468800Y-46658400D02*
X191468800Y-49198400D01*
X190198800Y-49478400D02*
X188648800Y-49478400D01*
X188648800Y-49478400D02*
X188648800Y-46378400D01*
X209401200Y-63219200D02*
X209401200Y-55599200D01*
X206861200Y-63219200D02*
X206861200Y-55599200D01*
X206581200Y-66039200D02*
X206581200Y-64489200D01*
X209401200Y-55599200D02*
X206861200Y-55599200D01*
X206861200Y-63219200D02*
X209401200Y-63219200D01*
X209681200Y-64489200D02*
X209681200Y-66039200D01*
X209681200Y-66039200D02*
X206581200Y-66039200D01*
X179276800Y-60120400D02*
X179276800Y-52500400D01*
X176736800Y-60120400D02*
X176736800Y-52500400D01*
X176456800Y-62940400D02*
X176456800Y-61390400D01*
X179276800Y-52500400D02*
X176736800Y-52500400D01*
X176736800Y-60120400D02*
X179276800Y-60120400D01*
X179556800Y-61390400D02*
X179556800Y-62940400D01*
X179556800Y-62940400D02*
X176456800Y-62940400D01*
X190667400Y-62111200D02*
X190667400Y-63311200D01*
X188917400Y-63311200D02*
X188917400Y-62111200D01*
X189986000Y-60081000D02*
X188786000Y-60081000D01*
X188786000Y-58331000D02*
X189986000Y-58331000D01*
X180283200Y-67599400D02*
X179083200Y-67599400D01*
X179083200Y-65849400D02*
X180283200Y-65849400D01*
X182872200Y-59704400D02*
X182872200Y-58504400D01*
X184622200Y-58504400D02*
X184622200Y-59704400D01*
X188612600Y-55386400D02*
X188612600Y-54186400D01*
X190362600Y-54186400D02*
X190362600Y-55386400D01*
X183075400Y-48731600D02*
X183075400Y-47531600D01*
X184825400Y-47531600D02*
X184825400Y-48731600D01*
X174716200Y-56421600D02*
X174716200Y-57621600D01*
X172966200Y-57621600D02*
X172966200Y-56421600D01*
X184673000Y-53221200D02*
X184673000Y-54421200D01*
X182923000Y-54421200D02*
X182923000Y-53221200D01*
X203497000Y-53456000D02*
X203497000Y-52256000D01*
X205247000Y-52256000D02*
X205247000Y-53456000D01*
X204727600Y-68299200D02*
G75*
G03X204727600Y-68299200I-2286000J0D01*
G01*
X94884200Y-50407400D02*
G75*
G03X94884200Y-50407400I-2286000J0D01*
G01*
X119268200Y-119089000D02*
G75*
G03X119268200Y-119089000I-2286000J0D01*
G01*
X76807400Y-115316200D02*
X77807400Y-115316200D01*
X77807400Y-113616200D02*
X76807400Y-113616200D01*
X76332600Y-110865000D02*
X76332600Y-111565000D01*
X75132600Y-111565000D02*
X75132600Y-110865000D01*
X75363400Y-99980200D02*
X75363400Y-98980200D01*
X73663400Y-98980200D02*
X73663400Y-99980200D01*
X74449000Y-94595400D02*
X74449000Y-93595400D01*
X72749000Y-93595400D02*
X72749000Y-94595400D01*
X77653400Y-102330600D02*
X77653400Y-103030600D01*
X76453400Y-103030600D02*
X76453400Y-102330600D01*
X80349800Y-82097000D02*
X79649800Y-82097000D01*
X79649800Y-80897000D02*
X80349800Y-80897000D01*
X81431800Y-102776600D02*
X81431800Y-102076600D01*
X82631800Y-102076600D02*
X82631800Y-102776600D01*
X106865000Y-99036600D02*
X105865000Y-99036600D01*
X105865000Y-100736600D02*
X106865000Y-100736600D01*
X79839400Y-70842600D02*
X78839400Y-70842600D01*
X78839400Y-72542600D02*
X79839400Y-72542600D01*
X112517400Y-71753000D02*
X113217400Y-71753000D01*
X113217400Y-72953000D02*
X112517400Y-72953000D01*
X106116600Y-96899000D02*
X106816600Y-96899000D01*
X106816600Y-98099000D02*
X106116600Y-98099000D01*
X75883000Y-122437000D02*
X84583000Y-122437000D01*
X75883000Y-116032000D02*
X84583000Y-116032000D01*
X84583000Y-116032000D02*
X84583000Y-122437000D01*
X84583000Y-121207000D02*
X75883000Y-121207000D01*
X75883000Y-122437000D02*
X75883000Y-116032000D01*
X94897800Y-83283000D02*
X94897800Y-84283000D01*
X96597800Y-84283000D02*
X96597800Y-83283000D01*
X75272860Y-50968740D02*
X75074740Y-50968740D01*
X75074740Y-50968740D02*
X75074740Y-51166860D01*
X75272860Y-51166860D02*
X75074740Y-51166860D01*
X75272860Y-50968740D02*
X75272860Y-51166860D01*
X74724220Y-50369300D02*
X74376240Y-50369300D01*
X74376240Y-50369300D02*
X74376240Y-50618220D01*
X74724220Y-50618220D02*
X74376240Y-50618220D01*
X74724220Y-50369300D02*
X74724220Y-50618220D01*
X74376240Y-50369300D02*
X74274640Y-50369300D01*
X74274640Y-50369300D02*
X74274640Y-51565640D01*
X74376240Y-51565640D02*
X74274640Y-51565640D01*
X74376240Y-50369300D02*
X74376240Y-51565640D01*
X74376240Y-51616440D02*
X74274640Y-51616440D01*
X74274640Y-51616440D02*
X74274640Y-51766300D01*
X74376240Y-51766300D02*
X74274640Y-51766300D01*
X74376240Y-51616440D02*
X74376240Y-51766300D01*
X76072960Y-50369300D02*
X75971360Y-50369300D01*
X75971360Y-50369300D02*
X75971360Y-51565640D01*
X76072960Y-51565640D02*
X75971360Y-51565640D01*
X76072960Y-50369300D02*
X76072960Y-51565640D01*
X76072960Y-51616440D02*
X75971360Y-51616440D01*
X75971360Y-51616440D02*
X75971360Y-51766300D01*
X76072960Y-51766300D02*
X75971360Y-51766300D01*
X76072960Y-51616440D02*
X76072960Y-51766300D01*
X74724220Y-50369300D02*
X74574360Y-50369300D01*
X74574360Y-50369300D02*
X74574360Y-50618220D01*
X74724220Y-50618220D02*
X74574360Y-50618220D01*
X74724220Y-50369300D02*
X74724220Y-50618220D01*
X73624400Y-50318500D02*
X76723200Y-50318500D01*
X76723200Y-50318500D02*
X76723200Y-51817100D01*
X76723200Y-51817100D02*
X73624400Y-51817100D01*
X73624400Y-51817100D02*
X73624400Y-50318500D01*
X75721062Y-50568446D02*
G75*
G03X74625160Y-50569960I-547262J-499354D01*
G01*
X75721933Y-51566198D02*
G75*
G03X75722440Y-50569960I-548133J498398D01*
G01*
X74626538Y-51567154D02*
G75*
G03X75722440Y-51565640I547262J499354D01*
G01*
X74625667Y-50569402D02*
G75*
G03X74625160Y-51565640I548133J-498398D01*
G01*
X77147000Y-105742200D02*
X76147000Y-105742200D01*
X76147000Y-107442200D02*
X77147000Y-107442200D01*
X85181400Y-73572200D02*
X97881400Y-73572200D01*
X97881400Y-73572200D02*
X97881400Y-76112200D01*
X97881400Y-76112200D02*
X85181400Y-76112200D01*
X82361400Y-73292200D02*
X83911400Y-73292200D01*
X85181400Y-73572200D02*
X85181400Y-76112200D01*
X83911400Y-76392200D02*
X82361400Y-76392200D01*
X82361400Y-76392200D02*
X82361400Y-73292200D01*
X67096600Y-78804600D02*
X67096600Y-86424600D01*
X69636600Y-78804600D02*
X69636600Y-86424600D01*
X69916600Y-75984600D02*
X69916600Y-77534600D01*
X67096600Y-86424600D02*
X69636600Y-86424600D01*
X69636600Y-78804600D02*
X67096600Y-78804600D01*
X66816600Y-77534600D02*
X66816600Y-75984600D01*
X66816600Y-75984600D02*
X69916600Y-75984600D01*
X112867400Y-108217800D02*
X112867400Y-100597800D01*
X110327400Y-108217800D02*
X110327400Y-100597800D01*
X110047400Y-111037800D02*
X110047400Y-109487800D01*
X112867400Y-100597800D02*
X110327400Y-100597800D01*
X110327400Y-108217800D02*
X112867400Y-108217800D01*
X113147400Y-109487800D02*
X113147400Y-111037800D01*
X113147400Y-111037800D02*
X110047400Y-111037800D01*
X97221000Y-119343000D02*
X104841000Y-119343000D01*
X97221000Y-116803000D02*
X104841000Y-116803000D01*
X94401000Y-116523000D02*
X95951000Y-116523000D01*
X104841000Y-119343000D02*
X104841000Y-116803000D01*
X97221000Y-116803000D02*
X97221000Y-119343000D01*
X95951000Y-119623000D02*
X94401000Y-119623000D01*
X94401000Y-119623000D02*
X94401000Y-116523000D01*
X81636800Y-83538600D02*
X81636800Y-84738600D01*
X79886800Y-84738600D02*
X79886800Y-83538600D01*
X71349200Y-76256600D02*
X71349200Y-75256600D01*
X72699200Y-75256600D02*
X72699200Y-76256600D01*
X97465400Y-89484000D02*
X96265400Y-89484000D01*
X96265400Y-87734000D02*
X97465400Y-87734000D01*
X110895800Y-93322000D02*
X112095800Y-93322000D01*
X112095800Y-95072000D02*
X110895800Y-95072000D01*
X110895800Y-96268400D02*
X112095800Y-96268400D01*
X112095800Y-98018400D02*
X110895800Y-98018400D01*
X96901600Y-58070200D02*
X96901600Y-57070200D01*
X98251600Y-57070200D02*
X98251600Y-58070200D01*
X94107600Y-58070200D02*
X94107600Y-57070200D01*
X95457600Y-57070200D02*
X95457600Y-58070200D01*
X91567600Y-58070200D02*
X91567600Y-57070200D01*
X92917600Y-57070200D02*
X92917600Y-58070200D01*
X88926000Y-58222600D02*
X88926000Y-57222600D01*
X90276000Y-57222600D02*
X90276000Y-58222600D01*
X70306600Y-50192800D02*
X71506600Y-50192800D01*
X71506600Y-51942800D02*
X70306600Y-51942800D01*
X90150200Y-111429600D02*
X88950200Y-111429600D01*
X88950200Y-109679600D02*
X90150200Y-109679600D01*
X77129800Y-110753000D02*
G75*
G03X77129800Y-110753000I-100000J0D01*
G01*
X77279800Y-110203000D02*
X77279800Y-110703000D01*
X80179800Y-110203000D02*
X77279800Y-110203000D01*
X80179800Y-110703000D02*
X80179800Y-110203000D01*
X77279800Y-110703000D02*
X80179800Y-110703000D01*
X88273600Y-87955200D02*
X87198600Y-87955200D01*
X88273600Y-98305200D02*
X87198600Y-98305200D01*
X77923600Y-98305200D02*
X78998600Y-98305200D01*
X77923600Y-87955200D02*
X78998600Y-87955200D01*
X88273600Y-87955200D02*
X88273600Y-89030200D01*
X77923600Y-87955200D02*
X77923600Y-89030200D01*
X77923600Y-98305200D02*
X77923600Y-97230200D01*
X88273600Y-98305200D02*
X88273600Y-97230200D01*
X87198600Y-87955200D02*
X87198600Y-86930200D01*
X66157440Y-69244040D02*
X62607440Y-69244040D01*
X62607440Y-69244040D02*
X62607440Y-55844040D01*
X62607440Y-55844040D02*
X66157440Y-55844040D01*
X82707440Y-55844040D02*
X80457440Y-55844040D01*
X82707440Y-57894040D02*
X82707440Y-55844040D01*
X80457440Y-69244040D02*
X82707440Y-69244040D01*
X82707440Y-69244040D02*
X82707440Y-67194040D01*
X100701800Y-75275000D02*
X101301800Y-75275000D01*
X116701800Y-75275000D02*
X116101800Y-75275000D01*
X116701800Y-91275000D02*
X116101800Y-91275000D01*
X100701800Y-91275000D02*
X101301800Y-91275000D01*
X100701800Y-75275000D02*
X100701800Y-91275000D01*
X116701800Y-91275000D02*
X116701800Y-75275000D01*
X102442785Y-88723300D02*
G75*
G03X102442785Y-88723300I-339905J0D01*
G01*
X78242600Y-104179000D02*
X78242600Y-100979000D01*
X78242600Y-100979000D02*
X80842600Y-100979000D01*
X80842600Y-100979000D02*
X80842600Y-104179000D01*
X80842600Y-104179000D02*
X78242600Y-104179000D01*
X67249000Y-118479400D02*
G75*
G03X67249000Y-118479400I-2286000J0D01*
G01*
X171363600Y-118454000D02*
G75*
G03X171363600Y-118454000I-2286000J0D01*
G01*
X177713600Y-89244000D02*
G75*
G03X177713600Y-89244000I-2286000J0D01*
G01*
X133314400Y-88786800D02*
G75*
G03X133314400Y-88786800I-2286000J0D01*
G01*
X138335600Y-101246400D02*
X137335600Y-101246400D01*
X137335600Y-102946400D02*
X138335600Y-102946400D01*
X152405600Y-114446400D02*
X152405600Y-115146400D01*
X151205600Y-115146400D02*
X151205600Y-114446400D01*
X157485600Y-114446400D02*
X157485600Y-115146400D01*
X156285600Y-115146400D02*
X156285600Y-114446400D01*
X157555600Y-107526400D02*
X157555600Y-106826400D01*
X158755600Y-106826400D02*
X158755600Y-107526400D01*
X140795600Y-107946400D02*
X140795600Y-108946400D01*
X142495600Y-108946400D02*
X142495600Y-107946400D01*
X157555600Y-103716400D02*
X157555600Y-103016400D01*
X158755600Y-103016400D02*
X158755600Y-103716400D01*
X131905600Y-107946400D02*
X131905600Y-108946400D01*
X133605600Y-108946400D02*
X133605600Y-107946400D01*
X143675600Y-123986400D02*
X152375600Y-123986400D01*
X143675600Y-117581400D02*
X152375600Y-117581400D01*
X152375600Y-117581400D02*
X152375600Y-123986400D01*
X152375600Y-122756400D02*
X143675600Y-122756400D01*
X143675600Y-123986400D02*
X143675600Y-117581400D01*
X143510600Y-114026400D02*
X143510600Y-113026400D01*
X144860600Y-113026400D02*
X144860600Y-114026400D01*
X174030600Y-107659000D02*
X174030600Y-115279000D01*
X176570600Y-107659000D02*
X176570600Y-115279000D01*
X176850600Y-104839000D02*
X176850600Y-106389000D01*
X174030600Y-115279000D02*
X176570600Y-115279000D01*
X176570600Y-107659000D02*
X174030600Y-107659000D01*
X173750600Y-106389000D02*
X173750600Y-104839000D01*
X173750600Y-104839000D02*
X176850600Y-104839000D01*
X153345600Y-108641400D02*
X155345600Y-108641400D01*
X155345600Y-110791400D02*
X153345600Y-110791400D01*
X148265600Y-108641400D02*
X150265600Y-108641400D01*
X150265600Y-110791400D02*
X148265600Y-110791400D01*
X159030600Y-110386400D02*
X159030600Y-111586400D01*
X157280600Y-111586400D02*
X157280600Y-110386400D01*
X152855600Y-101741400D02*
X150755600Y-101741400D01*
X153630600Y-104991400D02*
X150755600Y-104991400D01*
X139715200Y-93003200D02*
X140985200Y-93003200D01*
X140985200Y-93003200D02*
X140985200Y-95543200D01*
X140985200Y-95543200D02*
X139715200Y-95543200D01*
X139715200Y-91733200D02*
X167655200Y-91733200D01*
X167655200Y-91733200D02*
X167655200Y-96813200D01*
X167655200Y-96813200D02*
X139715200Y-96813200D01*
X139715200Y-96813200D02*
X139715200Y-91733200D01*
X139285600Y-107846400D02*
X136385600Y-107846400D01*
X139285600Y-109046400D02*
X136385600Y-109046400D01*
X136385600Y-109046400D02*
X136385600Y-107846400D01*
X139285600Y-107846400D02*
X139285600Y-109046400D01*
X171190600Y-104019000D02*
X171190600Y-104319000D01*
X171190600Y-104319000D02*
X170890600Y-104319000D01*
X172090600Y-106219000D02*
X172090600Y-104019000D01*
X172090600Y-104019000D02*
X170890600Y-104019000D01*
X170890600Y-104019000D02*
X170890600Y-106219000D01*
X170890600Y-106219000D02*
X172090600Y-106219000D01*
X166110600Y-107829000D02*
X166110600Y-108129000D01*
X166110600Y-108129000D02*
X165810600Y-108129000D01*
X167010600Y-110029000D02*
X167010600Y-107829000D01*
X167010600Y-107829000D02*
X165810600Y-107829000D01*
X165810600Y-107829000D02*
X165810600Y-110029000D01*
X165810600Y-110029000D02*
X167010600Y-110029000D01*
X134025600Y-119876400D02*
G75*
G03X134025600Y-119876400I-2286000J0D01*
G01*
X133097800Y-46265400D02*
G75*
G03X133097800Y-46265400I-2286000J0D01*
G01*
X133097800Y-72300400D02*
G75*
G03X133097800Y-72300400I-2286000J0D01*
G01*
X160402800Y-72300400D02*
G75*
G03X160402800Y-72300400I-2286000J0D01*
G01*
X137816800Y-55800400D02*
X138816800Y-55800400D01*
X138816800Y-54100400D02*
X137816800Y-54100400D01*
X137816800Y-58975400D02*
X138816800Y-58975400D01*
X138816800Y-57275400D02*
X137816800Y-57275400D01*
X145031800Y-52020400D02*
X143031800Y-52020400D01*
X143031800Y-54070400D02*
X145031800Y-54070400D01*
X141626800Y-60880400D02*
X142626800Y-60880400D01*
X142626800Y-59180400D02*
X141626800Y-59180400D01*
X154064800Y-60792400D02*
X154064800Y-74889400D01*
X139078800Y-74889400D02*
X139078800Y-60792400D01*
X154064800Y-60792400D02*
X139078800Y-60792400D01*
X154064800Y-74889400D02*
X139078800Y-74889400D01*
X145841800Y-56125400D02*
X149841800Y-56125400D01*
X145841800Y-56125400D02*
X145841800Y-60125400D01*
X145841800Y-60125400D02*
X149841800Y-60125400D01*
X149841800Y-60125400D02*
X149841800Y-56125400D01*
X151691800Y-56355400D02*
X151691800Y-57355400D01*
X150341800Y-57355400D02*
X150341800Y-56355400D01*
X141771800Y-58480400D02*
X141771800Y-57980400D01*
X145021800Y-55230400D02*
X145021800Y-55730400D01*
X141771800Y-55230400D02*
X141771800Y-55730400D01*
X145021800Y-58480400D02*
X144521800Y-58480400D01*
X145021800Y-55230400D02*
X144521800Y-55230400D01*
X141771800Y-55230400D02*
X142271800Y-55230400D01*
X141771800Y-58480400D02*
X142271800Y-58480400D01*
X152782800Y-46265400D02*
G75*
G03X152782800Y-46265400I-2286000J0D01*
G01*
X141872800Y-46060400D02*
G75*
G03X141872800Y-46060400I-2286000J0D01*
G01*
X160402800Y-46265400D02*
G75*
G03X160402800Y-46265400I-2286000J0D01*
G01*
X210791543Y-53073466D02*
X210839162Y-53121085D01*
X210886781Y-53263942D01*
X210886781Y-53359180D01*
X210839162Y-53502038D01*
X210743924Y-53597276D01*
X210648686Y-53644895D01*
X210458210Y-53692514D01*
X210315352Y-53692514D01*
X210124876Y-53644895D01*
X210029638Y-53597276D01*
X209934400Y-53502038D01*
X209886781Y-53359180D01*
X209886781Y-53263942D01*
X209934400Y-53121085D01*
X209982019Y-53073466D01*
X210886781Y-52121085D02*
X210886781Y-52692514D01*
X210886781Y-52406800D02*
X209886781Y-52406800D01*
X210029638Y-52502038D01*
X210124876Y-52597276D01*
X210172495Y-52692514D01*
X196890134Y-69486343D02*
X196842515Y-69533962D01*
X196699658Y-69581581D01*
X196604420Y-69581581D01*
X196461562Y-69533962D01*
X196366324Y-69438724D01*
X196318705Y-69343486D01*
X196271086Y-69153010D01*
X196271086Y-69010152D01*
X196318705Y-68819676D01*
X196366324Y-68724438D01*
X196461562Y-68629200D01*
X196604420Y-68581581D01*
X196699658Y-68581581D01*
X196842515Y-68629200D01*
X196890134Y-68676819D01*
X197271086Y-68676819D02*
X197318705Y-68629200D01*
X197413943Y-68581581D01*
X197652039Y-68581581D01*
X197747277Y-68629200D01*
X197794896Y-68676819D01*
X197842515Y-68772057D01*
X197842515Y-68867295D01*
X197794896Y-69010152D01*
X197223467Y-69581581D01*
X197842515Y-69581581D01*
X196385410Y-65033381D02*
X196385410Y-64033381D01*
X197433029Y-64938143D02*
X197385410Y-64985762D01*
X197242553Y-65033381D01*
X197147315Y-65033381D01*
X197004457Y-64985762D01*
X196909219Y-64890524D01*
X196861600Y-64795286D01*
X196813981Y-64604810D01*
X196813981Y-64461952D01*
X196861600Y-64271476D01*
X196909219Y-64176238D01*
X197004457Y-64081000D01*
X197147315Y-64033381D01*
X197242553Y-64033381D01*
X197385410Y-64081000D01*
X197433029Y-64128619D01*
X198385410Y-65033381D02*
X197813981Y-65033381D01*
X198099695Y-65033381D02*
X198099695Y-64033381D01*
X198004457Y-64176238D01*
X197909219Y-64271476D01*
X197813981Y-64319095D01*
X185551181Y-48666495D02*
X184551181Y-48666495D01*
X184551181Y-48285542D01*
X184598800Y-48190304D01*
X184646419Y-48142685D01*
X184741657Y-48095066D01*
X184884514Y-48095066D01*
X184979752Y-48142685D01*
X185027371Y-48190304D01*
X185074990Y-48285542D01*
X185074990Y-48666495D01*
X185551181Y-47142685D02*
X185551181Y-47714114D01*
X185551181Y-47428400D02*
X184551181Y-47428400D01*
X184694038Y-47523638D01*
X184789276Y-47618876D01*
X184836895Y-47714114D01*
X207393105Y-70041581D02*
X207393105Y-69041581D01*
X207774058Y-69041581D01*
X207869296Y-69089200D01*
X207916915Y-69136819D01*
X207964534Y-69232057D01*
X207964534Y-69374914D01*
X207916915Y-69470152D01*
X207869296Y-69517771D01*
X207774058Y-69565390D01*
X207393105Y-69565390D01*
X208345486Y-69136819D02*
X208393105Y-69089200D01*
X208488343Y-69041581D01*
X208726439Y-69041581D01*
X208821677Y-69089200D01*
X208869296Y-69136819D01*
X208916915Y-69232057D01*
X208916915Y-69327295D01*
X208869296Y-69470152D01*
X208297867Y-70041581D01*
X208916915Y-70041581D01*
X177268705Y-66942781D02*
X177268705Y-65942781D01*
X177649658Y-65942781D01*
X177744896Y-65990400D01*
X177792515Y-66038019D01*
X177840134Y-66133257D01*
X177840134Y-66276114D01*
X177792515Y-66371352D01*
X177744896Y-66418971D01*
X177649658Y-66466590D01*
X177268705Y-66466590D01*
X178173467Y-65942781D02*
X178792515Y-65942781D01*
X178459181Y-66323733D01*
X178602039Y-66323733D01*
X178697277Y-66371352D01*
X178744896Y-66418971D01*
X178792515Y-66514210D01*
X178792515Y-66752305D01*
X178744896Y-66847543D01*
X178697277Y-66895162D01*
X178602039Y-66942781D01*
X178316324Y-66942781D01*
X178221086Y-66895162D01*
X178173467Y-66847543D01*
X188479219Y-66362438D02*
X188431600Y-66457676D01*
X188336362Y-66552914D01*
X188193505Y-66695771D01*
X188145886Y-66791010D01*
X188145886Y-66886248D01*
X188383981Y-66838629D02*
X188336362Y-66933867D01*
X188241124Y-67029105D01*
X188050648Y-67076724D01*
X187717314Y-67076724D01*
X187526838Y-67029105D01*
X187431600Y-66933867D01*
X187383981Y-66838629D01*
X187383981Y-66648152D01*
X187431600Y-66552914D01*
X187526838Y-66457676D01*
X187717314Y-66410057D01*
X188050648Y-66410057D01*
X188241124Y-66457676D01*
X188336362Y-66552914D01*
X188383981Y-66648152D01*
X188383981Y-66838629D01*
X188383981Y-65457676D02*
X188383981Y-66029105D01*
X188383981Y-65743391D02*
X187383981Y-65743391D01*
X187526838Y-65838629D01*
X187622076Y-65933867D01*
X187669695Y-66029105D01*
X180554419Y-49293638D02*
X180506800Y-49388876D01*
X180411562Y-49484114D01*
X180268705Y-49626971D01*
X180221086Y-49722210D01*
X180221086Y-49817448D01*
X180459181Y-49769829D02*
X180411562Y-49865067D01*
X180316324Y-49960305D01*
X180125848Y-50007924D01*
X179792514Y-50007924D01*
X179602038Y-49960305D01*
X179506800Y-49865067D01*
X179459181Y-49769829D01*
X179459181Y-49579352D01*
X179506800Y-49484114D01*
X179602038Y-49388876D01*
X179792514Y-49341257D01*
X180125848Y-49341257D01*
X180316324Y-49388876D01*
X180411562Y-49484114D01*
X180459181Y-49579352D01*
X180459181Y-49769829D01*
X179554419Y-48960305D02*
X179506800Y-48912686D01*
X179459181Y-48817448D01*
X179459181Y-48579352D01*
X179506800Y-48484114D01*
X179554419Y-48436495D01*
X179649657Y-48388876D01*
X179744895Y-48388876D01*
X179887752Y-48436495D01*
X180459181Y-49007924D01*
X180459181Y-48388876D01*
X188144781Y-62877866D02*
X187668590Y-63211200D01*
X188144781Y-63449295D02*
X187144781Y-63449295D01*
X187144781Y-63068342D01*
X187192400Y-62973104D01*
X187240019Y-62925485D01*
X187335257Y-62877866D01*
X187478114Y-62877866D01*
X187573352Y-62925485D01*
X187620971Y-62973104D01*
X187668590Y-63068342D01*
X187668590Y-63449295D01*
X188144781Y-61925485D02*
X188144781Y-62496914D01*
X188144781Y-62211200D02*
X187144781Y-62211200D01*
X187287638Y-62306438D01*
X187382876Y-62401676D01*
X187430495Y-62496914D01*
X189219334Y-57558381D02*
X188886000Y-57082190D01*
X188647905Y-57558381D02*
X188647905Y-56558381D01*
X189028858Y-56558381D01*
X189124096Y-56606000D01*
X189171715Y-56653619D01*
X189219334Y-56748857D01*
X189219334Y-56891714D01*
X189171715Y-56986952D01*
X189124096Y-57034571D01*
X189028858Y-57082190D01*
X188647905Y-57082190D01*
X189600286Y-56653619D02*
X189647905Y-56606000D01*
X189743143Y-56558381D01*
X189981239Y-56558381D01*
X190076477Y-56606000D01*
X190124096Y-56653619D01*
X190171715Y-56748857D01*
X190171715Y-56844095D01*
X190124096Y-56986952D01*
X189552667Y-57558381D01*
X190171715Y-57558381D01*
X179516534Y-65076781D02*
X179183200Y-64600590D01*
X178945105Y-65076781D02*
X178945105Y-64076781D01*
X179326058Y-64076781D01*
X179421296Y-64124400D01*
X179468915Y-64172019D01*
X179516534Y-64267257D01*
X179516534Y-64410114D01*
X179468915Y-64505352D01*
X179421296Y-64552971D01*
X179326058Y-64600590D01*
X178945105Y-64600590D01*
X179849867Y-64076781D02*
X180468915Y-64076781D01*
X180135581Y-64457733D01*
X180278439Y-64457733D01*
X180373677Y-64505352D01*
X180421296Y-64552971D01*
X180468915Y-64648210D01*
X180468915Y-64886305D01*
X180421296Y-64981543D01*
X180373677Y-65029162D01*
X180278439Y-65076781D01*
X179992724Y-65076781D01*
X179897486Y-65029162D01*
X179849867Y-64981543D01*
X186299581Y-59271066D02*
X185823390Y-59604400D01*
X186299581Y-59842495D02*
X185299581Y-59842495D01*
X185299581Y-59461542D01*
X185347200Y-59366304D01*
X185394819Y-59318685D01*
X185490057Y-59271066D01*
X185632914Y-59271066D01*
X185728152Y-59318685D01*
X185775771Y-59366304D01*
X185823390Y-59461542D01*
X185823390Y-59842495D01*
X185632914Y-58413923D02*
X186299581Y-58413923D01*
X185251962Y-58652019D02*
X185966248Y-58890114D01*
X185966248Y-58271066D01*
X192039981Y-54953066D02*
X191563790Y-55286400D01*
X192039981Y-55524495D02*
X191039981Y-55524495D01*
X191039981Y-55143542D01*
X191087600Y-55048304D01*
X191135219Y-55000685D01*
X191230457Y-54953066D01*
X191373314Y-54953066D01*
X191468552Y-55000685D01*
X191516171Y-55048304D01*
X191563790Y-55143542D01*
X191563790Y-55524495D01*
X191039981Y-54048304D02*
X191039981Y-54524495D01*
X191516171Y-54572114D01*
X191468552Y-54524495D01*
X191420933Y-54429257D01*
X191420933Y-54191161D01*
X191468552Y-54095923D01*
X191516171Y-54048304D01*
X191611410Y-54000685D01*
X191849505Y-54000685D01*
X191944743Y-54048304D01*
X191992362Y-54095923D01*
X192039981Y-54191161D01*
X192039981Y-54429257D01*
X191992362Y-54524495D01*
X191944743Y-54572114D01*
X186502781Y-48298266D02*
X186026590Y-48631600D01*
X186502781Y-48869695D02*
X185502781Y-48869695D01*
X185502781Y-48488742D01*
X185550400Y-48393504D01*
X185598019Y-48345885D01*
X185693257Y-48298266D01*
X185836114Y-48298266D01*
X185931352Y-48345885D01*
X185978971Y-48393504D01*
X186026590Y-48488742D01*
X186026590Y-48869695D01*
X185502781Y-47441123D02*
X185502781Y-47631600D01*
X185550400Y-47726838D01*
X185598019Y-47774457D01*
X185740876Y-47869695D01*
X185931352Y-47917314D01*
X186312305Y-47917314D01*
X186407543Y-47869695D01*
X186455162Y-47822076D01*
X186502781Y-47726838D01*
X186502781Y-47536361D01*
X186455162Y-47441123D01*
X186407543Y-47393504D01*
X186312305Y-47345885D01*
X186074210Y-47345885D01*
X185978971Y-47393504D01*
X185931352Y-47441123D01*
X185883733Y-47536361D01*
X185883733Y-47726838D01*
X185931352Y-47822076D01*
X185978971Y-47869695D01*
X186074210Y-47917314D01*
X172193581Y-57188266D02*
X171717390Y-57521600D01*
X172193581Y-57759695D02*
X171193581Y-57759695D01*
X171193581Y-57378742D01*
X171241200Y-57283504D01*
X171288819Y-57235885D01*
X171384057Y-57188266D01*
X171526914Y-57188266D01*
X171622152Y-57235885D01*
X171669771Y-57283504D01*
X171717390Y-57378742D01*
X171717390Y-57759695D01*
X171193581Y-56854933D02*
X171193581Y-56188266D01*
X172193581Y-56616838D01*
X182150381Y-53987866D02*
X181674190Y-54321200D01*
X182150381Y-54559295D02*
X181150381Y-54559295D01*
X181150381Y-54178342D01*
X181198000Y-54083104D01*
X181245619Y-54035485D01*
X181340857Y-53987866D01*
X181483714Y-53987866D01*
X181578952Y-54035485D01*
X181626571Y-54083104D01*
X181674190Y-54178342D01*
X181674190Y-54559295D01*
X181578952Y-53416438D02*
X181531333Y-53511676D01*
X181483714Y-53559295D01*
X181388476Y-53606914D01*
X181340857Y-53606914D01*
X181245619Y-53559295D01*
X181198000Y-53511676D01*
X181150381Y-53416438D01*
X181150381Y-53225961D01*
X181198000Y-53130723D01*
X181245619Y-53083104D01*
X181340857Y-53035485D01*
X181388476Y-53035485D01*
X181483714Y-53083104D01*
X181531333Y-53130723D01*
X181578952Y-53225961D01*
X181578952Y-53416438D01*
X181626571Y-53511676D01*
X181674190Y-53559295D01*
X181769429Y-53606914D01*
X181959905Y-53606914D01*
X182055143Y-53559295D01*
X182102762Y-53511676D01*
X182150381Y-53416438D01*
X182150381Y-53225961D01*
X182102762Y-53130723D01*
X182055143Y-53083104D01*
X181959905Y-53035485D01*
X181769429Y-53035485D01*
X181674190Y-53083104D01*
X181626571Y-53130723D01*
X181578952Y-53225961D01*
X206924381Y-53022666D02*
X206448190Y-53356000D01*
X206924381Y-53594095D02*
X205924381Y-53594095D01*
X205924381Y-53213142D01*
X205972000Y-53117904D01*
X206019619Y-53070285D01*
X206114857Y-53022666D01*
X206257714Y-53022666D01*
X206352952Y-53070285D01*
X206400571Y-53117904D01*
X206448190Y-53213142D01*
X206448190Y-53594095D01*
X206924381Y-52546476D02*
X206924381Y-52356000D01*
X206876762Y-52260761D01*
X206829143Y-52213142D01*
X206686286Y-52117904D01*
X206495810Y-52070285D01*
X206114857Y-52070285D01*
X206019619Y-52117904D01*
X205972000Y-52165523D01*
X205924381Y-52260761D01*
X205924381Y-52451238D01*
X205972000Y-52546476D01*
X206019619Y-52594095D01*
X206114857Y-52641714D01*
X206352952Y-52641714D01*
X206448190Y-52594095D01*
X206495810Y-52546476D01*
X206543429Y-52451238D01*
X206543429Y-52260761D01*
X206495810Y-52165523D01*
X206448190Y-52117904D01*
X206352952Y-52070285D01*
X210791543Y-53073466D02*
X210839162Y-53121085D01*
X210886781Y-53263942D01*
X210886781Y-53359180D01*
X210839162Y-53502038D01*
X210743924Y-53597276D01*
X210648686Y-53644895D01*
X210458210Y-53692514D01*
X210315352Y-53692514D01*
X210124876Y-53644895D01*
X210029638Y-53597276D01*
X209934400Y-53502038D01*
X209886781Y-53359180D01*
X209886781Y-53263942D01*
X209934400Y-53121085D01*
X209982019Y-53073466D01*
X210886781Y-52121085D02*
X210886781Y-52692514D01*
X210886781Y-52406800D02*
X209886781Y-52406800D01*
X210029638Y-52502038D01*
X210124876Y-52597276D01*
X210172495Y-52692514D01*
X196890134Y-69486343D02*
X196842515Y-69533962D01*
X196699658Y-69581581D01*
X196604420Y-69581581D01*
X196461562Y-69533962D01*
X196366324Y-69438724D01*
X196318705Y-69343486D01*
X196271086Y-69153010D01*
X196271086Y-69010152D01*
X196318705Y-68819676D01*
X196366324Y-68724438D01*
X196461562Y-68629200D01*
X196604420Y-68581581D01*
X196699658Y-68581581D01*
X196842515Y-68629200D01*
X196890134Y-68676819D01*
X197271086Y-68676819D02*
X197318705Y-68629200D01*
X197413943Y-68581581D01*
X197652039Y-68581581D01*
X197747277Y-68629200D01*
X197794896Y-68676819D01*
X197842515Y-68772057D01*
X197842515Y-68867295D01*
X197794896Y-69010152D01*
X197223467Y-69581581D01*
X197842515Y-69581581D01*
X196385410Y-65033381D02*
X196385410Y-64033381D01*
X197433029Y-64938143D02*
X197385410Y-64985762D01*
X197242553Y-65033381D01*
X197147315Y-65033381D01*
X197004457Y-64985762D01*
X196909219Y-64890524D01*
X196861600Y-64795286D01*
X196813981Y-64604810D01*
X196813981Y-64461952D01*
X196861600Y-64271476D01*
X196909219Y-64176238D01*
X197004457Y-64081000D01*
X197147315Y-64033381D01*
X197242553Y-64033381D01*
X197385410Y-64081000D01*
X197433029Y-64128619D01*
X198385410Y-65033381D02*
X197813981Y-65033381D01*
X198099695Y-65033381D02*
X198099695Y-64033381D01*
X198004457Y-64176238D01*
X197909219Y-64271476D01*
X197813981Y-64319095D01*
X185551181Y-48666495D02*
X184551181Y-48666495D01*
X184551181Y-48285542D01*
X184598800Y-48190304D01*
X184646419Y-48142685D01*
X184741657Y-48095066D01*
X184884514Y-48095066D01*
X184979752Y-48142685D01*
X185027371Y-48190304D01*
X185074990Y-48285542D01*
X185074990Y-48666495D01*
X185551181Y-47142685D02*
X185551181Y-47714114D01*
X185551181Y-47428400D02*
X184551181Y-47428400D01*
X184694038Y-47523638D01*
X184789276Y-47618876D01*
X184836895Y-47714114D01*
X207393105Y-70041581D02*
X207393105Y-69041581D01*
X207774058Y-69041581D01*
X207869296Y-69089200D01*
X207916915Y-69136819D01*
X207964534Y-69232057D01*
X207964534Y-69374914D01*
X207916915Y-69470152D01*
X207869296Y-69517771D01*
X207774058Y-69565390D01*
X207393105Y-69565390D01*
X208345486Y-69136819D02*
X208393105Y-69089200D01*
X208488343Y-69041581D01*
X208726439Y-69041581D01*
X208821677Y-69089200D01*
X208869296Y-69136819D01*
X208916915Y-69232057D01*
X208916915Y-69327295D01*
X208869296Y-69470152D01*
X208297867Y-70041581D01*
X208916915Y-70041581D01*
X177268705Y-66942781D02*
X177268705Y-65942781D01*
X177649658Y-65942781D01*
X177744896Y-65990400D01*
X177792515Y-66038019D01*
X177840134Y-66133257D01*
X177840134Y-66276114D01*
X177792515Y-66371352D01*
X177744896Y-66418971D01*
X177649658Y-66466590D01*
X177268705Y-66466590D01*
X178173467Y-65942781D02*
X178792515Y-65942781D01*
X178459181Y-66323733D01*
X178602039Y-66323733D01*
X178697277Y-66371352D01*
X178744896Y-66418971D01*
X178792515Y-66514210D01*
X178792515Y-66752305D01*
X178744896Y-66847543D01*
X178697277Y-66895162D01*
X178602039Y-66942781D01*
X178316324Y-66942781D01*
X178221086Y-66895162D01*
X178173467Y-66847543D01*
X188479219Y-66362438D02*
X188431600Y-66457676D01*
X188336362Y-66552914D01*
X188193505Y-66695771D01*
X188145886Y-66791010D01*
X188145886Y-66886248D01*
X188383981Y-66838629D02*
X188336362Y-66933867D01*
X188241124Y-67029105D01*
X188050648Y-67076724D01*
X187717314Y-67076724D01*
X187526838Y-67029105D01*
X187431600Y-66933867D01*
X187383981Y-66838629D01*
X187383981Y-66648152D01*
X187431600Y-66552914D01*
X187526838Y-66457676D01*
X187717314Y-66410057D01*
X188050648Y-66410057D01*
X188241124Y-66457676D01*
X188336362Y-66552914D01*
X188383981Y-66648152D01*
X188383981Y-66838629D01*
X188383981Y-65457676D02*
X188383981Y-66029105D01*
X188383981Y-65743391D02*
X187383981Y-65743391D01*
X187526838Y-65838629D01*
X187622076Y-65933867D01*
X187669695Y-66029105D01*
X180554419Y-49293638D02*
X180506800Y-49388876D01*
X180411562Y-49484114D01*
X180268705Y-49626971D01*
X180221086Y-49722210D01*
X180221086Y-49817448D01*
X180459181Y-49769829D02*
X180411562Y-49865067D01*
X180316324Y-49960305D01*
X180125848Y-50007924D01*
X179792514Y-50007924D01*
X179602038Y-49960305D01*
X179506800Y-49865067D01*
X179459181Y-49769829D01*
X179459181Y-49579352D01*
X179506800Y-49484114D01*
X179602038Y-49388876D01*
X179792514Y-49341257D01*
X180125848Y-49341257D01*
X180316324Y-49388876D01*
X180411562Y-49484114D01*
X180459181Y-49579352D01*
X180459181Y-49769829D01*
X179554419Y-48960305D02*
X179506800Y-48912686D01*
X179459181Y-48817448D01*
X179459181Y-48579352D01*
X179506800Y-48484114D01*
X179554419Y-48436495D01*
X179649657Y-48388876D01*
X179744895Y-48388876D01*
X179887752Y-48436495D01*
X180459181Y-49007924D01*
X180459181Y-48388876D01*
X188144781Y-62877866D02*
X187668590Y-63211200D01*
X188144781Y-63449295D02*
X187144781Y-63449295D01*
X187144781Y-63068342D01*
X187192400Y-62973104D01*
X187240019Y-62925485D01*
X187335257Y-62877866D01*
X187478114Y-62877866D01*
X187573352Y-62925485D01*
X187620971Y-62973104D01*
X187668590Y-63068342D01*
X187668590Y-63449295D01*
X188144781Y-61925485D02*
X188144781Y-62496914D01*
X188144781Y-62211200D02*
X187144781Y-62211200D01*
X187287638Y-62306438D01*
X187382876Y-62401676D01*
X187430495Y-62496914D01*
X189219334Y-57558381D02*
X188886000Y-57082190D01*
X188647905Y-57558381D02*
X188647905Y-56558381D01*
X189028858Y-56558381D01*
X189124096Y-56606000D01*
X189171715Y-56653619D01*
X189219334Y-56748857D01*
X189219334Y-56891714D01*
X189171715Y-56986952D01*
X189124096Y-57034571D01*
X189028858Y-57082190D01*
X188647905Y-57082190D01*
X189600286Y-56653619D02*
X189647905Y-56606000D01*
X189743143Y-56558381D01*
X189981239Y-56558381D01*
X190076477Y-56606000D01*
X190124096Y-56653619D01*
X190171715Y-56748857D01*
X190171715Y-56844095D01*
X190124096Y-56986952D01*
X189552667Y-57558381D01*
X190171715Y-57558381D01*
X179516534Y-65076781D02*
X179183200Y-64600590D01*
X178945105Y-65076781D02*
X178945105Y-64076781D01*
X179326058Y-64076781D01*
X179421296Y-64124400D01*
X179468915Y-64172019D01*
X179516534Y-64267257D01*
X179516534Y-64410114D01*
X179468915Y-64505352D01*
X179421296Y-64552971D01*
X179326058Y-64600590D01*
X178945105Y-64600590D01*
X179849867Y-64076781D02*
X180468915Y-64076781D01*
X180135581Y-64457733D01*
X180278439Y-64457733D01*
X180373677Y-64505352D01*
X180421296Y-64552971D01*
X180468915Y-64648210D01*
X180468915Y-64886305D01*
X180421296Y-64981543D01*
X180373677Y-65029162D01*
X180278439Y-65076781D01*
X179992724Y-65076781D01*
X179897486Y-65029162D01*
X179849867Y-64981543D01*
X186299581Y-59271066D02*
X185823390Y-59604400D01*
X186299581Y-59842495D02*
X185299581Y-59842495D01*
X185299581Y-59461542D01*
X185347200Y-59366304D01*
X185394819Y-59318685D01*
X185490057Y-59271066D01*
X185632914Y-59271066D01*
X185728152Y-59318685D01*
X185775771Y-59366304D01*
X185823390Y-59461542D01*
X185823390Y-59842495D01*
X185632914Y-58413923D02*
X186299581Y-58413923D01*
X185251962Y-58652019D02*
X185966248Y-58890114D01*
X185966248Y-58271066D01*
X192039981Y-54953066D02*
X191563790Y-55286400D01*
X192039981Y-55524495D02*
X191039981Y-55524495D01*
X191039981Y-55143542D01*
X191087600Y-55048304D01*
X191135219Y-55000685D01*
X191230457Y-54953066D01*
X191373314Y-54953066D01*
X191468552Y-55000685D01*
X191516171Y-55048304D01*
X191563790Y-55143542D01*
X191563790Y-55524495D01*
X191039981Y-54048304D02*
X191039981Y-54524495D01*
X191516171Y-54572114D01*
X191468552Y-54524495D01*
X191420933Y-54429257D01*
X191420933Y-54191161D01*
X191468552Y-54095923D01*
X191516171Y-54048304D01*
X191611410Y-54000685D01*
X191849505Y-54000685D01*
X191944743Y-54048304D01*
X191992362Y-54095923D01*
X192039981Y-54191161D01*
X192039981Y-54429257D01*
X191992362Y-54524495D01*
X191944743Y-54572114D01*
X186502781Y-48298266D02*
X186026590Y-48631600D01*
X186502781Y-48869695D02*
X185502781Y-48869695D01*
X185502781Y-48488742D01*
X185550400Y-48393504D01*
X185598019Y-48345885D01*
X185693257Y-48298266D01*
X185836114Y-48298266D01*
X185931352Y-48345885D01*
X185978971Y-48393504D01*
X186026590Y-48488742D01*
X186026590Y-48869695D01*
X185502781Y-47441123D02*
X185502781Y-47631600D01*
X185550400Y-47726838D01*
X185598019Y-47774457D01*
X185740876Y-47869695D01*
X185931352Y-47917314D01*
X186312305Y-47917314D01*
X186407543Y-47869695D01*
X186455162Y-47822076D01*
X186502781Y-47726838D01*
X186502781Y-47536361D01*
X186455162Y-47441123D01*
X186407543Y-47393504D01*
X186312305Y-47345885D01*
X186074210Y-47345885D01*
X185978971Y-47393504D01*
X185931352Y-47441123D01*
X185883733Y-47536361D01*
X185883733Y-47726838D01*
X185931352Y-47822076D01*
X185978971Y-47869695D01*
X186074210Y-47917314D01*
X172193581Y-57188266D02*
X171717390Y-57521600D01*
X172193581Y-57759695D02*
X171193581Y-57759695D01*
X171193581Y-57378742D01*
X171241200Y-57283504D01*
X171288819Y-57235885D01*
X171384057Y-57188266D01*
X171526914Y-57188266D01*
X171622152Y-57235885D01*
X171669771Y-57283504D01*
X171717390Y-57378742D01*
X171717390Y-57759695D01*
X171193581Y-56854933D02*
X171193581Y-56188266D01*
X172193581Y-56616838D01*
X182150381Y-53987866D02*
X181674190Y-54321200D01*
X182150381Y-54559295D02*
X181150381Y-54559295D01*
X181150381Y-54178342D01*
X181198000Y-54083104D01*
X181245619Y-54035485D01*
X181340857Y-53987866D01*
X181483714Y-53987866D01*
X181578952Y-54035485D01*
X181626571Y-54083104D01*
X181674190Y-54178342D01*
X181674190Y-54559295D01*
X181578952Y-53416438D02*
X181531333Y-53511676D01*
X181483714Y-53559295D01*
X181388476Y-53606914D01*
X181340857Y-53606914D01*
X181245619Y-53559295D01*
X181198000Y-53511676D01*
X181150381Y-53416438D01*
X181150381Y-53225961D01*
X181198000Y-53130723D01*
X181245619Y-53083104D01*
X181340857Y-53035485D01*
X181388476Y-53035485D01*
X181483714Y-53083104D01*
X181531333Y-53130723D01*
X181578952Y-53225961D01*
X181578952Y-53416438D01*
X181626571Y-53511676D01*
X181674190Y-53559295D01*
X181769429Y-53606914D01*
X181959905Y-53606914D01*
X182055143Y-53559295D01*
X182102762Y-53511676D01*
X182150381Y-53416438D01*
X182150381Y-53225961D01*
X182102762Y-53130723D01*
X182055143Y-53083104D01*
X181959905Y-53035485D01*
X181769429Y-53035485D01*
X181674190Y-53083104D01*
X181626571Y-53130723D01*
X181578952Y-53225961D01*
X206924381Y-53022666D02*
X206448190Y-53356000D01*
X206924381Y-53594095D02*
X205924381Y-53594095D01*
X205924381Y-53213142D01*
X205972000Y-53117904D01*
X206019619Y-53070285D01*
X206114857Y-53022666D01*
X206257714Y-53022666D01*
X206352952Y-53070285D01*
X206400571Y-53117904D01*
X206448190Y-53213142D01*
X206448190Y-53594095D01*
X206924381Y-52546476D02*
X206924381Y-52356000D01*
X206876762Y-52260761D01*
X206829143Y-52213142D01*
X206686286Y-52117904D01*
X206495810Y-52070285D01*
X206114857Y-52070285D01*
X206019619Y-52117904D01*
X205972000Y-52165523D01*
X205924381Y-52260761D01*
X205924381Y-52451238D01*
X205972000Y-52546476D01*
X206019619Y-52594095D01*
X206114857Y-52641714D01*
X206352952Y-52641714D01*
X206448190Y-52594095D01*
X206495810Y-52546476D01*
X206543429Y-52451238D01*
X206543429Y-52260761D01*
X206495810Y-52165523D01*
X206448190Y-52117904D01*
X206352952Y-52070285D01*
X90002581Y-51740733D02*
X89526390Y-52074067D01*
X90002581Y-52312162D02*
X89002581Y-52312162D01*
X89002581Y-51931209D01*
X89050200Y-51835971D01*
X89097819Y-51788352D01*
X89193057Y-51740733D01*
X89335914Y-51740733D01*
X89431152Y-51788352D01*
X89478771Y-51835971D01*
X89526390Y-51931209D01*
X89526390Y-52312162D01*
X89478771Y-51312162D02*
X89478771Y-50978828D01*
X90002581Y-50835971D02*
X90002581Y-51312162D01*
X89002581Y-51312162D01*
X89002581Y-50835971D01*
X89478771Y-50074066D02*
X89478771Y-50407400D01*
X90002581Y-50407400D02*
X89002581Y-50407400D01*
X89002581Y-49931209D01*
X89002581Y-49407400D02*
X89240676Y-49407400D01*
X89145438Y-49645495D02*
X89240676Y-49407400D01*
X89145438Y-49169304D01*
X89431152Y-49550257D02*
X89240676Y-49407400D01*
X89431152Y-49264542D01*
X89002581Y-48645495D02*
X89240676Y-48645495D01*
X89145438Y-48883590D02*
X89240676Y-48645495D01*
X89145438Y-48407399D01*
X89431152Y-48788352D02*
X89240676Y-48645495D01*
X89431152Y-48502637D01*
X114386581Y-120422333D02*
X113910390Y-120755667D01*
X114386581Y-120993762D02*
X113386581Y-120993762D01*
X113386581Y-120612809D01*
X113434200Y-120517571D01*
X113481819Y-120469952D01*
X113577057Y-120422333D01*
X113719914Y-120422333D01*
X113815152Y-120469952D01*
X113862771Y-120517571D01*
X113910390Y-120612809D01*
X113910390Y-120993762D01*
X113862771Y-119993762D02*
X113862771Y-119660428D01*
X114386581Y-119517571D02*
X114386581Y-119993762D01*
X113386581Y-119993762D01*
X113386581Y-119517571D01*
X113862771Y-118755666D02*
X113862771Y-119089000D01*
X114386581Y-119089000D02*
X113386581Y-119089000D01*
X113386581Y-118612809D01*
X113386581Y-118089000D02*
X113624676Y-118089000D01*
X113529438Y-118327095D02*
X113624676Y-118089000D01*
X113529438Y-117850904D01*
X113815152Y-118231857D02*
X113624676Y-118089000D01*
X113815152Y-117946142D01*
X113386581Y-117327095D02*
X113624676Y-117327095D01*
X113529438Y-117565190D02*
X113624676Y-117327095D01*
X113529438Y-117088999D01*
X113815152Y-117469952D02*
X113624676Y-117327095D01*
X113815152Y-117184237D01*
X108130371Y-58660714D02*
X108177990Y-58517857D01*
X108225610Y-58470238D01*
X108320848Y-58422619D01*
X108463705Y-58422619D01*
X108558943Y-58470238D01*
X108606562Y-58517857D01*
X108654181Y-58613095D01*
X108654181Y-58994048D01*
X107654181Y-58994048D01*
X107654181Y-58660714D01*
X107701800Y-58565476D01*
X107749419Y-58517857D01*
X107844657Y-58470238D01*
X107939895Y-58470238D01*
X108035133Y-58517857D01*
X108082752Y-58565476D01*
X108130371Y-58660714D01*
X108130371Y-58994048D01*
X107654181Y-58136905D02*
X107654181Y-57565476D01*
X108654181Y-57851191D02*
X107654181Y-57851191D01*
X108654181Y-56708333D02*
X108654181Y-57279762D01*
X108654181Y-56994048D02*
X107654181Y-56994048D01*
X107797038Y-57089286D01*
X107892276Y-57184524D01*
X107939895Y-57279762D01*
X77140734Y-116923343D02*
X77093115Y-116970962D01*
X76950258Y-117018581D01*
X76855020Y-117018581D01*
X76712162Y-116970962D01*
X76616924Y-116875724D01*
X76569305Y-116780486D01*
X76521686Y-116590010D01*
X76521686Y-116447152D01*
X76569305Y-116256676D01*
X76616924Y-116161438D01*
X76712162Y-116066200D01*
X76855020Y-116018581D01*
X76950258Y-116018581D01*
X77093115Y-116066200D01*
X77140734Y-116113819D01*
X78093115Y-117018581D02*
X77521686Y-117018581D01*
X77807400Y-117018581D02*
X77807400Y-116018581D01*
X77712162Y-116161438D01*
X77616924Y-116256676D01*
X77521686Y-116304295D01*
X77989743Y-111381666D02*
X78037362Y-111429285D01*
X78084981Y-111572142D01*
X78084981Y-111667380D01*
X78037362Y-111810238D01*
X77942124Y-111905476D01*
X77846886Y-111953095D01*
X77656410Y-112000714D01*
X77513552Y-112000714D01*
X77323076Y-111953095D01*
X77227838Y-111905476D01*
X77132600Y-111810238D01*
X77084981Y-111667380D01*
X77084981Y-111572142D01*
X77132600Y-111429285D01*
X77180219Y-111381666D01*
X77180219Y-111000714D02*
X77132600Y-110953095D01*
X77084981Y-110857857D01*
X77084981Y-110619761D01*
X77132600Y-110524523D01*
X77180219Y-110476904D01*
X77275457Y-110429285D01*
X77370695Y-110429285D01*
X77513552Y-110476904D01*
X78084981Y-111048333D01*
X78084981Y-110429285D01*
X73092543Y-99697666D02*
X73140162Y-99745285D01*
X73187781Y-99888142D01*
X73187781Y-99983380D01*
X73140162Y-100126238D01*
X73044924Y-100221476D01*
X72949686Y-100269095D01*
X72759210Y-100316714D01*
X72616352Y-100316714D01*
X72425876Y-100269095D01*
X72330638Y-100221476D01*
X72235400Y-100126238D01*
X72187781Y-99983380D01*
X72187781Y-99888142D01*
X72235400Y-99745285D01*
X72283019Y-99697666D01*
X72187781Y-99364333D02*
X72187781Y-98745285D01*
X72568733Y-99078619D01*
X72568733Y-98935761D01*
X72616352Y-98840523D01*
X72663971Y-98792904D01*
X72759210Y-98745285D01*
X72997305Y-98745285D01*
X73092543Y-98792904D01*
X73140162Y-98840523D01*
X73187781Y-98935761D01*
X73187781Y-99221476D01*
X73140162Y-99316714D01*
X73092543Y-99364333D01*
X72330543Y-94414466D02*
X72378162Y-94462085D01*
X72425781Y-94604942D01*
X72425781Y-94700180D01*
X72378162Y-94843038D01*
X72282924Y-94938276D01*
X72187686Y-94985895D01*
X71997210Y-95033514D01*
X71854352Y-95033514D01*
X71663876Y-94985895D01*
X71568638Y-94938276D01*
X71473400Y-94843038D01*
X71425781Y-94700180D01*
X71425781Y-94604942D01*
X71473400Y-94462085D01*
X71521019Y-94414466D01*
X71759114Y-93557323D02*
X72425781Y-93557323D01*
X71378162Y-93795419D02*
X72092448Y-94033514D01*
X72092448Y-93414466D01*
X75937343Y-102948866D02*
X75984962Y-102996485D01*
X76032581Y-103139342D01*
X76032581Y-103234580D01*
X75984962Y-103377438D01*
X75889724Y-103472676D01*
X75794486Y-103520295D01*
X75604010Y-103567914D01*
X75461152Y-103567914D01*
X75270676Y-103520295D01*
X75175438Y-103472676D01*
X75080200Y-103377438D01*
X75032581Y-103234580D01*
X75032581Y-103139342D01*
X75080200Y-102996485D01*
X75127819Y-102948866D01*
X75032581Y-102044104D02*
X75032581Y-102520295D01*
X75508771Y-102567914D01*
X75461152Y-102520295D01*
X75413533Y-102425057D01*
X75413533Y-102186961D01*
X75461152Y-102091723D01*
X75508771Y-102044104D01*
X75604010Y-101996485D01*
X75842105Y-101996485D01*
X75937343Y-102044104D01*
X75984962Y-102091723D01*
X76032581Y-102186961D01*
X76032581Y-102425057D01*
X75984962Y-102520295D01*
X75937343Y-102567914D01*
X77445534Y-81752543D02*
X77397915Y-81800162D01*
X77255058Y-81847781D01*
X77159820Y-81847781D01*
X77016962Y-81800162D01*
X76921724Y-81704924D01*
X76874105Y-81609686D01*
X76826486Y-81419210D01*
X76826486Y-81276352D01*
X76874105Y-81085876D01*
X76921724Y-80990638D01*
X77016962Y-80895400D01*
X77159820Y-80847781D01*
X77255058Y-80847781D01*
X77397915Y-80895400D01*
X77445534Y-80943019D01*
X78302677Y-80847781D02*
X78112200Y-80847781D01*
X78016962Y-80895400D01*
X77969343Y-80943019D01*
X77874105Y-81085876D01*
X77826486Y-81276352D01*
X77826486Y-81657305D01*
X77874105Y-81752543D01*
X77921724Y-81800162D01*
X78016962Y-81847781D01*
X78207439Y-81847781D01*
X78302677Y-81800162D01*
X78350296Y-81752543D01*
X78397915Y-81657305D01*
X78397915Y-81419210D01*
X78350296Y-81323971D01*
X78302677Y-81276352D01*
X78207439Y-81228733D01*
X78016962Y-81228733D01*
X77921724Y-81276352D01*
X77874105Y-81323971D01*
X77826486Y-81419210D01*
X84014543Y-102694866D02*
X84062162Y-102742485D01*
X84109781Y-102885342D01*
X84109781Y-102980580D01*
X84062162Y-103123438D01*
X83966924Y-103218676D01*
X83871686Y-103266295D01*
X83681210Y-103313914D01*
X83538352Y-103313914D01*
X83347876Y-103266295D01*
X83252638Y-103218676D01*
X83157400Y-103123438D01*
X83109781Y-102980580D01*
X83109781Y-102885342D01*
X83157400Y-102742485D01*
X83205019Y-102694866D01*
X83109781Y-102361533D02*
X83109781Y-101694866D01*
X84109781Y-102123438D01*
X103099534Y-100192943D02*
X103051915Y-100240562D01*
X102909058Y-100288181D01*
X102813820Y-100288181D01*
X102670962Y-100240562D01*
X102575724Y-100145324D01*
X102528105Y-100050086D01*
X102480486Y-99859610D01*
X102480486Y-99716752D01*
X102528105Y-99526276D01*
X102575724Y-99431038D01*
X102670962Y-99335800D01*
X102813820Y-99288181D01*
X102909058Y-99288181D01*
X103051915Y-99335800D01*
X103099534Y-99383419D01*
X103670962Y-99716752D02*
X103575724Y-99669133D01*
X103528105Y-99621514D01*
X103480486Y-99526276D01*
X103480486Y-99478657D01*
X103528105Y-99383419D01*
X103575724Y-99335800D01*
X103670962Y-99288181D01*
X103861439Y-99288181D01*
X103956677Y-99335800D01*
X104004296Y-99383419D01*
X104051915Y-99478657D01*
X104051915Y-99526276D01*
X104004296Y-99621514D01*
X103956677Y-99669133D01*
X103861439Y-99716752D01*
X103670962Y-99716752D01*
X103575724Y-99764371D01*
X103528105Y-99811990D01*
X103480486Y-99907229D01*
X103480486Y-100097705D01*
X103528105Y-100192943D01*
X103575724Y-100240562D01*
X103670962Y-100288181D01*
X103861439Y-100288181D01*
X103956677Y-100240562D01*
X104004296Y-100192943D01*
X104051915Y-100097705D01*
X104051915Y-99907229D01*
X104004296Y-99811990D01*
X103956677Y-99764371D01*
X103861439Y-99716752D01*
X82169934Y-71897343D02*
X82122315Y-71944962D01*
X81979458Y-71992581D01*
X81884220Y-71992581D01*
X81741362Y-71944962D01*
X81646124Y-71849724D01*
X81598505Y-71754486D01*
X81550886Y-71564010D01*
X81550886Y-71421152D01*
X81598505Y-71230676D01*
X81646124Y-71135438D01*
X81741362Y-71040200D01*
X81884220Y-70992581D01*
X81979458Y-70992581D01*
X82122315Y-71040200D01*
X82169934Y-71087819D01*
X82646124Y-71992581D02*
X82836600Y-71992581D01*
X82931839Y-71944962D01*
X82979458Y-71897343D01*
X83074696Y-71754486D01*
X83122315Y-71564010D01*
X83122315Y-71183057D01*
X83074696Y-71087819D01*
X83027077Y-71040200D01*
X82931839Y-70992581D01*
X82741362Y-70992581D01*
X82646124Y-71040200D01*
X82598505Y-71087819D01*
X82550886Y-71183057D01*
X82550886Y-71421152D01*
X82598505Y-71516390D01*
X82646124Y-71564010D01*
X82741362Y-71611629D01*
X82931839Y-71611629D01*
X83027077Y-71564010D01*
X83074696Y-71516390D01*
X83122315Y-71421152D01*
X112224543Y-70810143D02*
X112176924Y-70857762D01*
X112034067Y-70905381D01*
X111938829Y-70905381D01*
X111795971Y-70857762D01*
X111700733Y-70762524D01*
X111653114Y-70667286D01*
X111605495Y-70476810D01*
X111605495Y-70333952D01*
X111653114Y-70143476D01*
X111700733Y-70048238D01*
X111795971Y-69953000D01*
X111938829Y-69905381D01*
X112034067Y-69905381D01*
X112176924Y-69953000D01*
X112224543Y-70000619D01*
X113176924Y-70905381D02*
X112605495Y-70905381D01*
X112891209Y-70905381D02*
X112891209Y-69905381D01*
X112795971Y-70048238D01*
X112700733Y-70143476D01*
X112605495Y-70191095D01*
X113795971Y-69905381D02*
X113891210Y-69905381D01*
X113986448Y-69953000D01*
X114034067Y-70000619D01*
X114081686Y-70095857D01*
X114129305Y-70286333D01*
X114129305Y-70524429D01*
X114081686Y-70714905D01*
X114034067Y-70810143D01*
X113986448Y-70857762D01*
X113891210Y-70905381D01*
X113795971Y-70905381D01*
X113700733Y-70857762D01*
X113653114Y-70810143D01*
X113605495Y-70714905D01*
X113557876Y-70524429D01*
X113557876Y-70286333D01*
X113605495Y-70095857D01*
X113653114Y-70000619D01*
X113700733Y-69953000D01*
X113795971Y-69905381D01*
X102826543Y-97957743D02*
X102778924Y-98005362D01*
X102636067Y-98052981D01*
X102540829Y-98052981D01*
X102397971Y-98005362D01*
X102302733Y-97910124D01*
X102255114Y-97814886D01*
X102207495Y-97624410D01*
X102207495Y-97481552D01*
X102255114Y-97291076D01*
X102302733Y-97195838D01*
X102397971Y-97100600D01*
X102540829Y-97052981D01*
X102636067Y-97052981D01*
X102778924Y-97100600D01*
X102826543Y-97148219D01*
X103778924Y-98052981D02*
X103207495Y-98052981D01*
X103493209Y-98052981D02*
X103493209Y-97052981D01*
X103397971Y-97195838D01*
X103302733Y-97291076D01*
X103207495Y-97338695D01*
X104731305Y-98052981D02*
X104159876Y-98052981D01*
X104445590Y-98052981D02*
X104445590Y-97052981D01*
X104350352Y-97195838D01*
X104255114Y-97291076D01*
X104159876Y-97338695D01*
X74715143Y-121396285D02*
X74762762Y-121443904D01*
X74810381Y-121586761D01*
X74810381Y-121681999D01*
X74762762Y-121824857D01*
X74667524Y-121920095D01*
X74572286Y-121967714D01*
X74381810Y-122015333D01*
X74238952Y-122015333D01*
X74048476Y-121967714D01*
X73953238Y-121920095D01*
X73858000Y-121824857D01*
X73810381Y-121681999D01*
X73810381Y-121586761D01*
X73858000Y-121443904D01*
X73905619Y-121396285D01*
X73810381Y-120777238D02*
X73810381Y-120586761D01*
X73858000Y-120491523D01*
X73953238Y-120396285D01*
X74143714Y-120348666D01*
X74477048Y-120348666D01*
X74667524Y-120396285D01*
X74762762Y-120491523D01*
X74810381Y-120586761D01*
X74810381Y-120777238D01*
X74762762Y-120872476D01*
X74667524Y-120967714D01*
X74477048Y-121015333D01*
X74143714Y-121015333D01*
X73953238Y-120967714D01*
X73858000Y-120872476D01*
X73810381Y-120777238D01*
X74810381Y-119920095D02*
X73810381Y-119920095D01*
X74810381Y-119348666D01*
X73810381Y-119348666D01*
X74810381Y-118348666D02*
X74810381Y-118920095D01*
X74810381Y-118634381D02*
X73810381Y-118634381D01*
X73953238Y-118729619D01*
X74048476Y-118824857D01*
X74096095Y-118920095D01*
X94100181Y-84521095D02*
X93100181Y-84521095D01*
X93100181Y-84283000D01*
X93147800Y-84140142D01*
X93243038Y-84044904D01*
X93338276Y-83997285D01*
X93528752Y-83949666D01*
X93671610Y-83949666D01*
X93862086Y-83997285D01*
X93957324Y-84044904D01*
X94052562Y-84140142D01*
X94100181Y-84283000D01*
X94100181Y-84521095D01*
X94100181Y-82997285D02*
X94100181Y-83568714D01*
X94100181Y-83283000D02*
X93100181Y-83283000D01*
X93243038Y-83378238D01*
X93338276Y-83473476D01*
X93385895Y-83568714D01*
X74181705Y-53044181D02*
X74181705Y-52044181D01*
X74419800Y-52044181D01*
X74562658Y-52091800D01*
X74657896Y-52187038D01*
X74705515Y-52282276D01*
X74753134Y-52472752D01*
X74753134Y-52615610D01*
X74705515Y-52806086D01*
X74657896Y-52901324D01*
X74562658Y-52996562D01*
X74419800Y-53044181D01*
X74181705Y-53044181D01*
X75134086Y-52139419D02*
X75181705Y-52091800D01*
X75276943Y-52044181D01*
X75515039Y-52044181D01*
X75610277Y-52091800D01*
X75657896Y-52139419D01*
X75705515Y-52234657D01*
X75705515Y-52329895D01*
X75657896Y-52472752D01*
X75086467Y-53044181D01*
X75705515Y-53044181D01*
X72613267Y-106419171D02*
X72279933Y-106419171D01*
X72279933Y-106942981D02*
X72279933Y-105942981D01*
X72756124Y-105942981D01*
X73470410Y-106419171D02*
X73613267Y-106466790D01*
X73660886Y-106514410D01*
X73708505Y-106609648D01*
X73708505Y-106752505D01*
X73660886Y-106847743D01*
X73613267Y-106895362D01*
X73518029Y-106942981D01*
X73137076Y-106942981D01*
X73137076Y-105942981D01*
X73470410Y-105942981D01*
X73565648Y-105990600D01*
X73613267Y-106038219D01*
X73660886Y-106133457D01*
X73660886Y-106228695D01*
X73613267Y-106323933D01*
X73565648Y-106371552D01*
X73470410Y-106419171D01*
X73137076Y-106419171D01*
X74660886Y-106942981D02*
X74089457Y-106942981D01*
X74375171Y-106942981D02*
X74375171Y-105942981D01*
X74279933Y-106085838D01*
X74184695Y-106181076D01*
X74089457Y-106228695D01*
X79263781Y-75580295D02*
X78263781Y-75580295D01*
X78263781Y-75199342D01*
X78311400Y-75104104D01*
X78359019Y-75056485D01*
X78454257Y-75008866D01*
X78597114Y-75008866D01*
X78692352Y-75056485D01*
X78739971Y-75104104D01*
X78787590Y-75199342D01*
X78787590Y-75580295D01*
X79263781Y-74056485D02*
X79263781Y-74627914D01*
X79263781Y-74342200D02*
X78263781Y-74342200D01*
X78406638Y-74437438D01*
X78501876Y-74532676D01*
X78549495Y-74627914D01*
X67628505Y-72886981D02*
X67628505Y-71886981D01*
X68009458Y-71886981D01*
X68104696Y-71934600D01*
X68152315Y-71982219D01*
X68199934Y-72077457D01*
X68199934Y-72220314D01*
X68152315Y-72315552D01*
X68104696Y-72363171D01*
X68009458Y-72410790D01*
X67628505Y-72410790D01*
X68580886Y-71982219D02*
X68628505Y-71934600D01*
X68723743Y-71886981D01*
X68961839Y-71886981D01*
X69057077Y-71934600D01*
X69104696Y-71982219D01*
X69152315Y-72077457D01*
X69152315Y-72172695D01*
X69104696Y-72315552D01*
X68533267Y-72886981D01*
X69152315Y-72886981D01*
X110859305Y-115040181D02*
X110859305Y-114040181D01*
X111240258Y-114040181D01*
X111335496Y-114087800D01*
X111383115Y-114135419D01*
X111430734Y-114230657D01*
X111430734Y-114373514D01*
X111383115Y-114468752D01*
X111335496Y-114516371D01*
X111240258Y-114563990D01*
X110859305Y-114563990D01*
X111764067Y-114040181D02*
X112383115Y-114040181D01*
X112049781Y-114421133D01*
X112192639Y-114421133D01*
X112287877Y-114468752D01*
X112335496Y-114516371D01*
X112383115Y-114611610D01*
X112383115Y-114849705D01*
X112335496Y-114944943D01*
X112287877Y-114992562D01*
X112192639Y-115040181D01*
X111906924Y-115040181D01*
X111811686Y-114992562D01*
X111764067Y-114944943D01*
X91303381Y-118811095D02*
X90303381Y-118811095D01*
X90303381Y-118430142D01*
X90351000Y-118334904D01*
X90398619Y-118287285D01*
X90493857Y-118239666D01*
X90636714Y-118239666D01*
X90731952Y-118287285D01*
X90779571Y-118334904D01*
X90827190Y-118430142D01*
X90827190Y-118811095D01*
X90636714Y-117382523D02*
X91303381Y-117382523D01*
X90255762Y-117620619D02*
X90970048Y-117858714D01*
X90970048Y-117239666D01*
X79114181Y-84305266D02*
X78637990Y-84638600D01*
X79114181Y-84876695D02*
X78114181Y-84876695D01*
X78114181Y-84495742D01*
X78161800Y-84400504D01*
X78209419Y-84352885D01*
X78304657Y-84305266D01*
X78447514Y-84305266D01*
X78542752Y-84352885D01*
X78590371Y-84400504D01*
X78637990Y-84495742D01*
X78637990Y-84876695D01*
X79114181Y-83352885D02*
X79114181Y-83924314D01*
X79114181Y-83638600D02*
X78114181Y-83638600D01*
X78257038Y-83733838D01*
X78352276Y-83829076D01*
X78399895Y-83924314D01*
X74376581Y-75923266D02*
X73900390Y-76256600D01*
X74376581Y-76494695D02*
X73376581Y-76494695D01*
X73376581Y-76113742D01*
X73424200Y-76018504D01*
X73471819Y-75970885D01*
X73567057Y-75923266D01*
X73709914Y-75923266D01*
X73805152Y-75970885D01*
X73852771Y-76018504D01*
X73900390Y-76113742D01*
X73900390Y-76494695D01*
X73471819Y-75542314D02*
X73424200Y-75494695D01*
X73376581Y-75399457D01*
X73376581Y-75161361D01*
X73424200Y-75066123D01*
X73471819Y-75018504D01*
X73567057Y-74970885D01*
X73662295Y-74970885D01*
X73805152Y-75018504D01*
X74376581Y-75589933D01*
X74376581Y-74970885D01*
X96698734Y-86961381D02*
X96365400Y-86485190D01*
X96127305Y-86961381D02*
X96127305Y-85961381D01*
X96508258Y-85961381D01*
X96603496Y-86009000D01*
X96651115Y-86056619D01*
X96698734Y-86151857D01*
X96698734Y-86294714D01*
X96651115Y-86389952D01*
X96603496Y-86437571D01*
X96508258Y-86485190D01*
X96127305Y-86485190D01*
X97032067Y-85961381D02*
X97651115Y-85961381D01*
X97317781Y-86342333D01*
X97460639Y-86342333D01*
X97555877Y-86389952D01*
X97603496Y-86437571D01*
X97651115Y-86532810D01*
X97651115Y-86770905D01*
X97603496Y-86866143D01*
X97555877Y-86913762D01*
X97460639Y-86961381D01*
X97174924Y-86961381D01*
X97079686Y-86913762D01*
X97032067Y-86866143D01*
X113970734Y-94750981D02*
X113637400Y-94274790D01*
X113399305Y-94750981D02*
X113399305Y-93750981D01*
X113780258Y-93750981D01*
X113875496Y-93798600D01*
X113923115Y-93846219D01*
X113970734Y-93941457D01*
X113970734Y-94084314D01*
X113923115Y-94179552D01*
X113875496Y-94227171D01*
X113780258Y-94274790D01*
X113399305Y-94274790D01*
X114827877Y-94084314D02*
X114827877Y-94750981D01*
X114589781Y-93703362D02*
X114351686Y-94417648D01*
X114970734Y-94417648D01*
X113919934Y-97443381D02*
X113586600Y-96967190D01*
X113348505Y-97443381D02*
X113348505Y-96443381D01*
X113729458Y-96443381D01*
X113824696Y-96491000D01*
X113872315Y-96538619D01*
X113919934Y-96633857D01*
X113919934Y-96776714D01*
X113872315Y-96871952D01*
X113824696Y-96919571D01*
X113729458Y-96967190D01*
X113348505Y-96967190D01*
X114824696Y-96443381D02*
X114348505Y-96443381D01*
X114300886Y-96919571D01*
X114348505Y-96871952D01*
X114443743Y-96824333D01*
X114681839Y-96824333D01*
X114777077Y-96871952D01*
X114824696Y-96919571D01*
X114872315Y-97014810D01*
X114872315Y-97252905D01*
X114824696Y-97348143D01*
X114777077Y-97395762D01*
X114681839Y-97443381D01*
X114443743Y-97443381D01*
X114348505Y-97395762D01*
X114300886Y-97348143D01*
X98028981Y-55349266D02*
X97552790Y-55682600D01*
X98028981Y-55920695D02*
X97028981Y-55920695D01*
X97028981Y-55539742D01*
X97076600Y-55444504D01*
X97124219Y-55396885D01*
X97219457Y-55349266D01*
X97362314Y-55349266D01*
X97457552Y-55396885D01*
X97505171Y-55444504D01*
X97552790Y-55539742D01*
X97552790Y-55920695D01*
X97028981Y-54492123D02*
X97028981Y-54682600D01*
X97076600Y-54777838D01*
X97124219Y-54825457D01*
X97267076Y-54920695D01*
X97457552Y-54968314D01*
X97838505Y-54968314D01*
X97933743Y-54920695D01*
X97981362Y-54873076D01*
X98028981Y-54777838D01*
X98028981Y-54587361D01*
X97981362Y-54492123D01*
X97933743Y-54444504D01*
X97838505Y-54396885D01*
X97600410Y-54396885D01*
X97505171Y-54444504D01*
X97457552Y-54492123D01*
X97409933Y-54587361D01*
X97409933Y-54777838D01*
X97457552Y-54873076D01*
X97505171Y-54920695D01*
X97600410Y-54968314D01*
X95082581Y-55298466D02*
X94606390Y-55631800D01*
X95082581Y-55869895D02*
X94082581Y-55869895D01*
X94082581Y-55488942D01*
X94130200Y-55393704D01*
X94177819Y-55346085D01*
X94273057Y-55298466D01*
X94415914Y-55298466D01*
X94511152Y-55346085D01*
X94558771Y-55393704D01*
X94606390Y-55488942D01*
X94606390Y-55869895D01*
X94082581Y-54965133D02*
X94082581Y-54298466D01*
X95082581Y-54727038D01*
X92644181Y-55349266D02*
X92167990Y-55682600D01*
X92644181Y-55920695D02*
X91644181Y-55920695D01*
X91644181Y-55539742D01*
X91691800Y-55444504D01*
X91739419Y-55396885D01*
X91834657Y-55349266D01*
X91977514Y-55349266D01*
X92072752Y-55396885D01*
X92120371Y-55444504D01*
X92167990Y-55539742D01*
X92167990Y-55920695D01*
X92072752Y-54777838D02*
X92025133Y-54873076D01*
X91977514Y-54920695D01*
X91882276Y-54968314D01*
X91834657Y-54968314D01*
X91739419Y-54920695D01*
X91691800Y-54873076D01*
X91644181Y-54777838D01*
X91644181Y-54587361D01*
X91691800Y-54492123D01*
X91739419Y-54444504D01*
X91834657Y-54396885D01*
X91882276Y-54396885D01*
X91977514Y-54444504D01*
X92025133Y-54492123D01*
X92072752Y-54587361D01*
X92072752Y-54777838D01*
X92120371Y-54873076D01*
X92167990Y-54920695D01*
X92263229Y-54968314D01*
X92453705Y-54968314D01*
X92548943Y-54920695D01*
X92596562Y-54873076D01*
X92644181Y-54777838D01*
X92644181Y-54587361D01*
X92596562Y-54492123D01*
X92548943Y-54444504D01*
X92453705Y-54396885D01*
X92263229Y-54396885D01*
X92167990Y-54444504D01*
X92120371Y-54492123D01*
X92072752Y-54587361D01*
X90307381Y-55654066D02*
X89831190Y-55987400D01*
X90307381Y-56225495D02*
X89307381Y-56225495D01*
X89307381Y-55844542D01*
X89355000Y-55749304D01*
X89402619Y-55701685D01*
X89497857Y-55654066D01*
X89640714Y-55654066D01*
X89735952Y-55701685D01*
X89783571Y-55749304D01*
X89831190Y-55844542D01*
X89831190Y-56225495D01*
X90307381Y-55177876D02*
X90307381Y-54987400D01*
X90259762Y-54892161D01*
X90212143Y-54844542D01*
X90069286Y-54749304D01*
X89878810Y-54701685D01*
X89497857Y-54701685D01*
X89402619Y-54749304D01*
X89355000Y-54796923D01*
X89307381Y-54892161D01*
X89307381Y-55082638D01*
X89355000Y-55177876D01*
X89402619Y-55225495D01*
X89497857Y-55273114D01*
X89735952Y-55273114D01*
X89831190Y-55225495D01*
X89878810Y-55177876D01*
X89926429Y-55082638D01*
X89926429Y-54892161D01*
X89878810Y-54796923D01*
X89831190Y-54749304D01*
X89735952Y-54701685D01*
X70263743Y-53620181D02*
X69930409Y-53143990D01*
X69692314Y-53620181D02*
X69692314Y-52620181D01*
X70073267Y-52620181D01*
X70168505Y-52667800D01*
X70216124Y-52715419D01*
X70263743Y-52810657D01*
X70263743Y-52953514D01*
X70216124Y-53048752D01*
X70168505Y-53096371D01*
X70073267Y-53143990D01*
X69692314Y-53143990D01*
X71216124Y-53620181D02*
X70644695Y-53620181D01*
X70930409Y-53620181D02*
X70930409Y-52620181D01*
X70835171Y-52763038D01*
X70739933Y-52858276D01*
X70644695Y-52905895D01*
X71835171Y-52620181D02*
X71930410Y-52620181D01*
X72025648Y-52667800D01*
X72073267Y-52715419D01*
X72120886Y-52810657D01*
X72168505Y-53001133D01*
X72168505Y-53239229D01*
X72120886Y-53429705D01*
X72073267Y-53524943D01*
X72025648Y-53572562D01*
X71930410Y-53620181D01*
X71835171Y-53620181D01*
X71739933Y-53572562D01*
X71692314Y-53524943D01*
X71644695Y-53429705D01*
X71597076Y-53239229D01*
X71597076Y-53001133D01*
X71644695Y-52810657D01*
X71692314Y-52715419D01*
X71739933Y-52667800D01*
X71835171Y-52620181D01*
X88907343Y-108906981D02*
X88574009Y-108430790D01*
X88335914Y-108906981D02*
X88335914Y-107906981D01*
X88716867Y-107906981D01*
X88812105Y-107954600D01*
X88859724Y-108002219D01*
X88907343Y-108097457D01*
X88907343Y-108240314D01*
X88859724Y-108335552D01*
X88812105Y-108383171D01*
X88716867Y-108430790D01*
X88335914Y-108430790D01*
X89859724Y-108906981D02*
X89288295Y-108906981D01*
X89574009Y-108906981D02*
X89574009Y-107906981D01*
X89478771Y-108049838D01*
X89383533Y-108145076D01*
X89288295Y-108192695D01*
X90812105Y-108906981D02*
X90240676Y-108906981D01*
X90526390Y-108906981D02*
X90526390Y-107906981D01*
X90431152Y-108049838D01*
X90335914Y-108145076D01*
X90240676Y-108192695D01*
X92331667Y-64942562D02*
X92474524Y-64990181D01*
X92712620Y-64990181D01*
X92807858Y-64942562D01*
X92855477Y-64894943D01*
X92903096Y-64799705D01*
X92903096Y-64704467D01*
X92855477Y-64609229D01*
X92807858Y-64561610D01*
X92712620Y-64513990D01*
X92522143Y-64466371D01*
X92426905Y-64418752D01*
X92379286Y-64371133D01*
X92331667Y-64275895D01*
X92331667Y-64180657D01*
X92379286Y-64085419D01*
X92426905Y-64037800D01*
X92522143Y-63990181D01*
X92760239Y-63990181D01*
X92903096Y-64037800D01*
X93236429Y-63990181D02*
X93474524Y-64990181D01*
X93665001Y-64275895D01*
X93855477Y-64990181D01*
X94093572Y-63990181D01*
X94998334Y-64990181D02*
X94426905Y-64990181D01*
X94712619Y-64990181D02*
X94712619Y-63990181D01*
X94617381Y-64133038D01*
X94522143Y-64228276D01*
X94426905Y-64275895D01*
X94516067Y-106192162D02*
X94658924Y-106239781D01*
X94897020Y-106239781D01*
X94992258Y-106192162D01*
X95039877Y-106144543D01*
X95087496Y-106049305D01*
X95087496Y-105954067D01*
X95039877Y-105858829D01*
X94992258Y-105811210D01*
X94897020Y-105763590D01*
X94706543Y-105715971D01*
X94611305Y-105668352D01*
X94563686Y-105620733D01*
X94516067Y-105525495D01*
X94516067Y-105430257D01*
X94563686Y-105335019D01*
X94611305Y-105287400D01*
X94706543Y-105239781D01*
X94944639Y-105239781D01*
X95087496Y-105287400D01*
X95420829Y-105239781D02*
X95658924Y-106239781D01*
X95849401Y-105525495D01*
X96039877Y-106239781D01*
X96277972Y-105239781D01*
X96611305Y-105335019D02*
X96658924Y-105287400D01*
X96754162Y-105239781D01*
X96992258Y-105239781D01*
X97087496Y-105287400D01*
X97135115Y-105335019D01*
X97182734Y-105430257D01*
X97182734Y-105525495D01*
X97135115Y-105668352D01*
X96563686Y-106239781D01*
X97182734Y-106239781D01*
X75282181Y-111214905D02*
X76091705Y-111214905D01*
X76186943Y-111167286D01*
X76234562Y-111119667D01*
X76282181Y-111024429D01*
X76282181Y-110833952D01*
X76234562Y-110738714D01*
X76186943Y-110691095D01*
X76091705Y-110643476D01*
X75282181Y-110643476D01*
X76282181Y-109643476D02*
X76282181Y-110214905D01*
X76282181Y-109929191D02*
X75282181Y-109929191D01*
X75425038Y-110024429D01*
X75520276Y-110119667D01*
X75567895Y-110214905D01*
X89750981Y-93892105D02*
X90560505Y-93892105D01*
X90655743Y-93844486D01*
X90703362Y-93796867D01*
X90750981Y-93701629D01*
X90750981Y-93511152D01*
X90703362Y-93415914D01*
X90655743Y-93368295D01*
X90560505Y-93320676D01*
X89750981Y-93320676D01*
X89846219Y-92892105D02*
X89798600Y-92844486D01*
X89750981Y-92749248D01*
X89750981Y-92511152D01*
X89798600Y-92415914D01*
X89846219Y-92368295D01*
X89941457Y-92320676D01*
X90036695Y-92320676D01*
X90179552Y-92368295D01*
X90750981Y-92939724D01*
X90750981Y-92320676D01*
X73305381Y-63310505D02*
X74114905Y-63310505D01*
X74210143Y-63262886D01*
X74257762Y-63215267D01*
X74305381Y-63120029D01*
X74305381Y-62929552D01*
X74257762Y-62834314D01*
X74210143Y-62786695D01*
X74114905Y-62739076D01*
X73305381Y-62739076D01*
X73305381Y-62358124D02*
X73305381Y-61739076D01*
X73686333Y-62072410D01*
X73686333Y-61929552D01*
X73733952Y-61834314D01*
X73781571Y-61786695D01*
X73876810Y-61739076D01*
X74114905Y-61739076D01*
X74210143Y-61786695D01*
X74257762Y-61834314D01*
X74305381Y-61929552D01*
X74305381Y-62215267D01*
X74257762Y-62310505D01*
X74210143Y-62358124D01*
X101834661Y-84064845D02*
X102644185Y-84064845D01*
X102739423Y-84017226D01*
X102787042Y-83969607D01*
X102834661Y-83874369D01*
X102834661Y-83683892D01*
X102787042Y-83588654D01*
X102739423Y-83541035D01*
X102644185Y-83493416D01*
X101834661Y-83493416D01*
X102167994Y-82588654D02*
X102834661Y-82588654D01*
X101787042Y-82826750D02*
X102501328Y-83064845D01*
X102501328Y-82445797D01*
X79045781Y-106334924D02*
X80045781Y-105668257D01*
X79045781Y-105668257D02*
X80045781Y-106334924D01*
X80045781Y-104763495D02*
X80045781Y-105334924D01*
X80045781Y-105049210D02*
X79045781Y-105049210D01*
X79188638Y-105144448D01*
X79283876Y-105239686D01*
X79331495Y-105334924D01*
X62367381Y-119812733D02*
X61891190Y-120146067D01*
X62367381Y-120384162D02*
X61367381Y-120384162D01*
X61367381Y-120003209D01*
X61415000Y-119907971D01*
X61462619Y-119860352D01*
X61557857Y-119812733D01*
X61700714Y-119812733D01*
X61795952Y-119860352D01*
X61843571Y-119907971D01*
X61891190Y-120003209D01*
X61891190Y-120384162D01*
X61843571Y-119384162D02*
X61843571Y-119050828D01*
X62367381Y-118907971D02*
X62367381Y-119384162D01*
X61367381Y-119384162D01*
X61367381Y-118907971D01*
X61843571Y-118146066D02*
X61843571Y-118479400D01*
X62367381Y-118479400D02*
X61367381Y-118479400D01*
X61367381Y-118003209D01*
X61367381Y-117479400D02*
X61605476Y-117479400D01*
X61510238Y-117717495D02*
X61605476Y-117479400D01*
X61510238Y-117241304D01*
X61795952Y-117622257D02*
X61605476Y-117479400D01*
X61795952Y-117336542D01*
X61367381Y-116717495D02*
X61605476Y-116717495D01*
X61510238Y-116955590D02*
X61605476Y-116717495D01*
X61510238Y-116479399D01*
X61795952Y-116860352D02*
X61605476Y-116717495D01*
X61795952Y-116574637D01*
X166481981Y-119787333D02*
X166005790Y-120120667D01*
X166481981Y-120358762D02*
X165481981Y-120358762D01*
X165481981Y-119977809D01*
X165529600Y-119882571D01*
X165577219Y-119834952D01*
X165672457Y-119787333D01*
X165815314Y-119787333D01*
X165910552Y-119834952D01*
X165958171Y-119882571D01*
X166005790Y-119977809D01*
X166005790Y-120358762D01*
X165958171Y-119358762D02*
X165958171Y-119025428D01*
X166481981Y-118882571D02*
X166481981Y-119358762D01*
X165481981Y-119358762D01*
X165481981Y-118882571D01*
X165958171Y-118120666D02*
X165958171Y-118454000D01*
X166481981Y-118454000D02*
X165481981Y-118454000D01*
X165481981Y-117977809D01*
X165481981Y-117454000D02*
X165720076Y-117454000D01*
X165624838Y-117692095D02*
X165720076Y-117454000D01*
X165624838Y-117215904D01*
X165910552Y-117596857D02*
X165720076Y-117454000D01*
X165910552Y-117311142D01*
X165481981Y-116692095D02*
X165720076Y-116692095D01*
X165624838Y-116930190D02*
X165720076Y-116692095D01*
X165624838Y-116453999D01*
X165910552Y-116834952D02*
X165720076Y-116692095D01*
X165910552Y-116549237D01*
X172831981Y-90577333D02*
X172355790Y-90910667D01*
X172831981Y-91148762D02*
X171831981Y-91148762D01*
X171831981Y-90767809D01*
X171879600Y-90672571D01*
X171927219Y-90624952D01*
X172022457Y-90577333D01*
X172165314Y-90577333D01*
X172260552Y-90624952D01*
X172308171Y-90672571D01*
X172355790Y-90767809D01*
X172355790Y-91148762D01*
X172308171Y-90148762D02*
X172308171Y-89815428D01*
X172831981Y-89672571D02*
X172831981Y-90148762D01*
X171831981Y-90148762D01*
X171831981Y-89672571D01*
X172308171Y-88910666D02*
X172308171Y-89244000D01*
X172831981Y-89244000D02*
X171831981Y-89244000D01*
X171831981Y-88767809D01*
X171831981Y-88244000D02*
X172070076Y-88244000D01*
X171974838Y-88482095D02*
X172070076Y-88244000D01*
X171974838Y-88005904D01*
X172260552Y-88386857D02*
X172070076Y-88244000D01*
X172260552Y-88101142D01*
X171831981Y-87482095D02*
X172070076Y-87482095D01*
X171974838Y-87720190D02*
X172070076Y-87482095D01*
X171974838Y-87243999D01*
X172260552Y-87624952D02*
X172070076Y-87482095D01*
X172260552Y-87339237D01*
X128432781Y-90120133D02*
X127956590Y-90453467D01*
X128432781Y-90691562D02*
X127432781Y-90691562D01*
X127432781Y-90310609D01*
X127480400Y-90215371D01*
X127528019Y-90167752D01*
X127623257Y-90120133D01*
X127766114Y-90120133D01*
X127861352Y-90167752D01*
X127908971Y-90215371D01*
X127956590Y-90310609D01*
X127956590Y-90691562D01*
X127908971Y-89691562D02*
X127908971Y-89358228D01*
X128432781Y-89215371D02*
X128432781Y-89691562D01*
X127432781Y-89691562D01*
X127432781Y-89215371D01*
X127908971Y-88453466D02*
X127908971Y-88786800D01*
X128432781Y-88786800D02*
X127432781Y-88786800D01*
X127432781Y-88310609D01*
X127432781Y-87786800D02*
X127670876Y-87786800D01*
X127575638Y-88024895D02*
X127670876Y-87786800D01*
X127575638Y-87548704D01*
X127861352Y-87929657D02*
X127670876Y-87786800D01*
X127861352Y-87643942D01*
X127432781Y-87024895D02*
X127670876Y-87024895D01*
X127575638Y-87262990D02*
X127670876Y-87024895D01*
X127575638Y-86786799D01*
X127861352Y-87167752D02*
X127670876Y-87024895D01*
X127861352Y-86882037D01*
X140208934Y-102453543D02*
X140161315Y-102501162D01*
X140018458Y-102548781D01*
X139923220Y-102548781D01*
X139780362Y-102501162D01*
X139685124Y-102405924D01*
X139637505Y-102310686D01*
X139589886Y-102120210D01*
X139589886Y-101977352D01*
X139637505Y-101786876D01*
X139685124Y-101691638D01*
X139780362Y-101596400D01*
X139923220Y-101548781D01*
X140018458Y-101548781D01*
X140161315Y-101596400D01*
X140208934Y-101644019D01*
X141161315Y-102548781D02*
X140589886Y-102548781D01*
X140875600Y-102548781D02*
X140875600Y-101548781D01*
X140780362Y-101691638D01*
X140685124Y-101786876D01*
X140589886Y-101834495D01*
X154062743Y-114963066D02*
X154110362Y-115010685D01*
X154157981Y-115153542D01*
X154157981Y-115248780D01*
X154110362Y-115391638D01*
X154015124Y-115486876D01*
X153919886Y-115534495D01*
X153729410Y-115582114D01*
X153586552Y-115582114D01*
X153396076Y-115534495D01*
X153300838Y-115486876D01*
X153205600Y-115391638D01*
X153157981Y-115248780D01*
X153157981Y-115153542D01*
X153205600Y-115010685D01*
X153253219Y-114963066D01*
X153253219Y-114582114D02*
X153205600Y-114534495D01*
X153157981Y-114439257D01*
X153157981Y-114201161D01*
X153205600Y-114105923D01*
X153253219Y-114058304D01*
X153348457Y-114010685D01*
X153443695Y-114010685D01*
X153586552Y-114058304D01*
X154157981Y-114629733D01*
X154157981Y-114010685D01*
X159142743Y-114963066D02*
X159190362Y-115010685D01*
X159237981Y-115153542D01*
X159237981Y-115248780D01*
X159190362Y-115391638D01*
X159095124Y-115486876D01*
X158999886Y-115534495D01*
X158809410Y-115582114D01*
X158666552Y-115582114D01*
X158476076Y-115534495D01*
X158380838Y-115486876D01*
X158285600Y-115391638D01*
X158237981Y-115248780D01*
X158237981Y-115153542D01*
X158285600Y-115010685D01*
X158333219Y-114963066D01*
X158237981Y-114629733D02*
X158237981Y-114010685D01*
X158618933Y-114344019D01*
X158618933Y-114201161D01*
X158666552Y-114105923D01*
X158714171Y-114058304D01*
X158809410Y-114010685D01*
X159047505Y-114010685D01*
X159142743Y-114058304D01*
X159190362Y-114105923D01*
X159237981Y-114201161D01*
X159237981Y-114486876D01*
X159190362Y-114582114D01*
X159142743Y-114629733D01*
X156612743Y-107343066D02*
X156660362Y-107390685D01*
X156707981Y-107533542D01*
X156707981Y-107628780D01*
X156660362Y-107771638D01*
X156565124Y-107866876D01*
X156469886Y-107914495D01*
X156279410Y-107962114D01*
X156136552Y-107962114D01*
X155946076Y-107914495D01*
X155850838Y-107866876D01*
X155755600Y-107771638D01*
X155707981Y-107628780D01*
X155707981Y-107533542D01*
X155755600Y-107390685D01*
X155803219Y-107343066D01*
X156041314Y-106485923D02*
X156707981Y-106485923D01*
X155660362Y-106724019D02*
X156374648Y-106962114D01*
X156374648Y-106343066D01*
X144542743Y-106073066D02*
X144590362Y-106120685D01*
X144637981Y-106263542D01*
X144637981Y-106358780D01*
X144590362Y-106501638D01*
X144495124Y-106596876D01*
X144399886Y-106644495D01*
X144209410Y-106692114D01*
X144066552Y-106692114D01*
X143876076Y-106644495D01*
X143780838Y-106596876D01*
X143685600Y-106501638D01*
X143637981Y-106358780D01*
X143637981Y-106263542D01*
X143685600Y-106120685D01*
X143733219Y-106073066D01*
X143637981Y-105168304D02*
X143637981Y-105644495D01*
X144114171Y-105692114D01*
X144066552Y-105644495D01*
X144018933Y-105549257D01*
X144018933Y-105311161D01*
X144066552Y-105215923D01*
X144114171Y-105168304D01*
X144209410Y-105120685D01*
X144447505Y-105120685D01*
X144542743Y-105168304D01*
X144590362Y-105215923D01*
X144637981Y-105311161D01*
X144637981Y-105549257D01*
X144590362Y-105644495D01*
X144542743Y-105692114D01*
X159782743Y-103533066D02*
X159830362Y-103580685D01*
X159877981Y-103723542D01*
X159877981Y-103818780D01*
X159830362Y-103961638D01*
X159735124Y-104056876D01*
X159639886Y-104104495D01*
X159449410Y-104152114D01*
X159306552Y-104152114D01*
X159116076Y-104104495D01*
X159020838Y-104056876D01*
X158925600Y-103961638D01*
X158877981Y-103818780D01*
X158877981Y-103723542D01*
X158925600Y-103580685D01*
X158973219Y-103533066D01*
X158877981Y-102675923D02*
X158877981Y-102866400D01*
X158925600Y-102961638D01*
X158973219Y-103009257D01*
X159116076Y-103104495D01*
X159306552Y-103152114D01*
X159687505Y-103152114D01*
X159782743Y-103104495D01*
X159830362Y-103056876D01*
X159877981Y-102961638D01*
X159877981Y-102771161D01*
X159830362Y-102675923D01*
X159782743Y-102628304D01*
X159687505Y-102580685D01*
X159449410Y-102580685D01*
X159354171Y-102628304D01*
X159306552Y-102675923D01*
X159258933Y-102771161D01*
X159258933Y-102961638D01*
X159306552Y-103056876D01*
X159354171Y-103104495D01*
X159449410Y-103152114D01*
X131012743Y-108613066D02*
X131060362Y-108660685D01*
X131107981Y-108803542D01*
X131107981Y-108898780D01*
X131060362Y-109041638D01*
X130965124Y-109136876D01*
X130869886Y-109184495D01*
X130679410Y-109232114D01*
X130536552Y-109232114D01*
X130346076Y-109184495D01*
X130250838Y-109136876D01*
X130155600Y-109041638D01*
X130107981Y-108898780D01*
X130107981Y-108803542D01*
X130155600Y-108660685D01*
X130203219Y-108613066D01*
X130107981Y-108279733D02*
X130107981Y-107613066D01*
X131107981Y-108041638D01*
X142507743Y-122945685D02*
X142555362Y-122993304D01*
X142602981Y-123136161D01*
X142602981Y-123231399D01*
X142555362Y-123374257D01*
X142460124Y-123469495D01*
X142364886Y-123517114D01*
X142174410Y-123564733D01*
X142031552Y-123564733D01*
X141841076Y-123517114D01*
X141745838Y-123469495D01*
X141650600Y-123374257D01*
X141602981Y-123231399D01*
X141602981Y-123136161D01*
X141650600Y-122993304D01*
X141698219Y-122945685D01*
X141602981Y-122326638D02*
X141602981Y-122136161D01*
X141650600Y-122040923D01*
X141745838Y-121945685D01*
X141936314Y-121898066D01*
X142269648Y-121898066D01*
X142460124Y-121945685D01*
X142555362Y-122040923D01*
X142602981Y-122136161D01*
X142602981Y-122326638D01*
X142555362Y-122421876D01*
X142460124Y-122517114D01*
X142269648Y-122564733D01*
X141936314Y-122564733D01*
X141745838Y-122517114D01*
X141650600Y-122421876D01*
X141602981Y-122326638D01*
X142602981Y-121469495D02*
X141602981Y-121469495D01*
X142602981Y-120898066D01*
X141602981Y-120898066D01*
X142602981Y-119898066D02*
X142602981Y-120469495D01*
X142602981Y-120183781D02*
X141602981Y-120183781D01*
X141745838Y-120279019D01*
X141841076Y-120374257D01*
X141888695Y-120469495D01*
X142844171Y-114359733D02*
X142844171Y-114693067D01*
X143367981Y-114693067D02*
X142367981Y-114693067D01*
X142367981Y-114216876D01*
X142844171Y-113502590D02*
X142891790Y-113359733D01*
X142939410Y-113312114D01*
X143034648Y-113264495D01*
X143177505Y-113264495D01*
X143272743Y-113312114D01*
X143320362Y-113359733D01*
X143367981Y-113454971D01*
X143367981Y-113835924D01*
X142367981Y-113835924D01*
X142367981Y-113502590D01*
X142415600Y-113407352D01*
X142463219Y-113359733D01*
X142558457Y-113312114D01*
X142653695Y-113312114D01*
X142748933Y-113359733D01*
X142796552Y-113407352D01*
X142844171Y-113502590D01*
X142844171Y-113835924D01*
X143367981Y-112312114D02*
X143367981Y-112883543D01*
X143367981Y-112597829D02*
X142367981Y-112597829D01*
X142510838Y-112693067D01*
X142606076Y-112788305D01*
X142653695Y-112883543D01*
X174562505Y-101741381D02*
X174562505Y-100741381D01*
X174943458Y-100741381D01*
X175038696Y-100789000D01*
X175086315Y-100836619D01*
X175133934Y-100931857D01*
X175133934Y-101074714D01*
X175086315Y-101169952D01*
X175038696Y-101217571D01*
X174943458Y-101265190D01*
X174562505Y-101265190D01*
X176086315Y-101741381D02*
X175514886Y-101741381D01*
X175800600Y-101741381D02*
X175800600Y-100741381D01*
X175705362Y-100884238D01*
X175610124Y-100979476D01*
X175514886Y-101027095D01*
X154178934Y-112468781D02*
X153845600Y-111992590D01*
X153607505Y-112468781D02*
X153607505Y-111468781D01*
X153988458Y-111468781D01*
X154083696Y-111516400D01*
X154131315Y-111564019D01*
X154178934Y-111659257D01*
X154178934Y-111802114D01*
X154131315Y-111897352D01*
X154083696Y-111944971D01*
X153988458Y-111992590D01*
X153607505Y-111992590D01*
X155131315Y-112468781D02*
X154559886Y-112468781D01*
X154845600Y-112468781D02*
X154845600Y-111468781D01*
X154750362Y-111611638D01*
X154655124Y-111706876D01*
X154559886Y-111754495D01*
X149098934Y-112468781D02*
X148765600Y-111992590D01*
X148527505Y-112468781D02*
X148527505Y-111468781D01*
X148908458Y-111468781D01*
X149003696Y-111516400D01*
X149051315Y-111564019D01*
X149098934Y-111659257D01*
X149098934Y-111802114D01*
X149051315Y-111897352D01*
X149003696Y-111944971D01*
X148908458Y-111992590D01*
X148527505Y-111992590D01*
X149479886Y-111564019D02*
X149527505Y-111516400D01*
X149622743Y-111468781D01*
X149860839Y-111468781D01*
X149956077Y-111516400D01*
X150003696Y-111564019D01*
X150051315Y-111659257D01*
X150051315Y-111754495D01*
X150003696Y-111897352D01*
X149432267Y-112468781D01*
X150051315Y-112468781D01*
X156507981Y-111153066D02*
X156031790Y-111486400D01*
X156507981Y-111724495D02*
X155507981Y-111724495D01*
X155507981Y-111343542D01*
X155555600Y-111248304D01*
X155603219Y-111200685D01*
X155698457Y-111153066D01*
X155841314Y-111153066D01*
X155936552Y-111200685D01*
X155984171Y-111248304D01*
X156031790Y-111343542D01*
X156031790Y-111724495D01*
X155507981Y-110819733D02*
X155507981Y-110200685D01*
X155888933Y-110534019D01*
X155888933Y-110391161D01*
X155936552Y-110295923D01*
X155984171Y-110248304D01*
X156079410Y-110200685D01*
X156317505Y-110200685D01*
X156412743Y-110248304D01*
X156460362Y-110295923D01*
X156507981Y-110391161D01*
X156507981Y-110676876D01*
X156460362Y-110772114D01*
X156412743Y-110819733D01*
X151043695Y-105368781D02*
X151043695Y-106178305D01*
X151091314Y-106273543D01*
X151138933Y-106321162D01*
X151234171Y-106368781D01*
X151424648Y-106368781D01*
X151519886Y-106321162D01*
X151567505Y-106273543D01*
X151615124Y-106178305D01*
X151615124Y-105368781D01*
X152615124Y-106368781D02*
X152043695Y-106368781D01*
X152329409Y-106368781D02*
X152329409Y-105368781D01*
X152234171Y-105511638D01*
X152138933Y-105606876D01*
X152043695Y-105654495D01*
X144033295Y-92455581D02*
X144033295Y-93265105D01*
X144080914Y-93360343D01*
X144128533Y-93407962D01*
X144223771Y-93455581D01*
X144414248Y-93455581D01*
X144509486Y-93407962D01*
X144557105Y-93360343D01*
X144604724Y-93265105D01*
X144604724Y-92455581D01*
X145033295Y-92550819D02*
X145080914Y-92503200D01*
X145176152Y-92455581D01*
X145414248Y-92455581D01*
X145509486Y-92503200D01*
X145557105Y-92550819D01*
X145604724Y-92646057D01*
X145604724Y-92741295D01*
X145557105Y-92884152D01*
X144985676Y-93455581D01*
X145604724Y-93455581D01*
X134747981Y-109208305D02*
X135557505Y-109208305D01*
X135652743Y-109160686D01*
X135700362Y-109113067D01*
X135747981Y-109017829D01*
X135747981Y-108827352D01*
X135700362Y-108732114D01*
X135652743Y-108684495D01*
X135557505Y-108636876D01*
X134747981Y-108636876D01*
X134747981Y-108255924D02*
X134747981Y-107636876D01*
X135128933Y-107970210D01*
X135128933Y-107827352D01*
X135176552Y-107732114D01*
X135224171Y-107684495D01*
X135319410Y-107636876D01*
X135557505Y-107636876D01*
X135652743Y-107684495D01*
X135700362Y-107732114D01*
X135747981Y-107827352D01*
X135747981Y-108113067D01*
X135700362Y-108208305D01*
X135652743Y-108255924D01*
X171128695Y-106071381D02*
X171128695Y-106880905D01*
X171176314Y-106976143D01*
X171223933Y-107023762D01*
X171319171Y-107071381D01*
X171509648Y-107071381D01*
X171604886Y-107023762D01*
X171652505Y-106976143D01*
X171700124Y-106880905D01*
X171700124Y-106071381D01*
X172652505Y-106071381D02*
X172176314Y-106071381D01*
X172128695Y-106547571D01*
X172176314Y-106499952D01*
X172271552Y-106452333D01*
X172509648Y-106452333D01*
X172604886Y-106499952D01*
X172652505Y-106547571D01*
X172700124Y-106642810D01*
X172700124Y-106880905D01*
X172652505Y-106976143D01*
X172604886Y-107023762D01*
X172509648Y-107071381D01*
X172271552Y-107071381D01*
X172176314Y-107023762D01*
X172128695Y-106976143D01*
X166262981Y-111190905D02*
X167072505Y-111190905D01*
X167167743Y-111143286D01*
X167215362Y-111095667D01*
X167262981Y-111000429D01*
X167262981Y-110809952D01*
X167215362Y-110714714D01*
X167167743Y-110667095D01*
X167072505Y-110619476D01*
X166262981Y-110619476D01*
X166262981Y-109714714D02*
X166262981Y-109905191D01*
X166310600Y-110000429D01*
X166358219Y-110048048D01*
X166501076Y-110143286D01*
X166691552Y-110190905D01*
X167072505Y-110190905D01*
X167167743Y-110143286D01*
X167215362Y-110095667D01*
X167262981Y-110000429D01*
X167262981Y-109809952D01*
X167215362Y-109714714D01*
X167167743Y-109667095D01*
X167072505Y-109619476D01*
X166834410Y-109619476D01*
X166739171Y-109667095D01*
X166691552Y-109714714D01*
X166643933Y-109809952D01*
X166643933Y-110000429D01*
X166691552Y-110095667D01*
X166739171Y-110143286D01*
X166834410Y-110190905D01*
X129143981Y-121209733D02*
X128667790Y-121543067D01*
X129143981Y-121781162D02*
X128143981Y-121781162D01*
X128143981Y-121400209D01*
X128191600Y-121304971D01*
X128239219Y-121257352D01*
X128334457Y-121209733D01*
X128477314Y-121209733D01*
X128572552Y-121257352D01*
X128620171Y-121304971D01*
X128667790Y-121400209D01*
X128667790Y-121781162D01*
X128620171Y-120781162D02*
X128620171Y-120447828D01*
X129143981Y-120304971D02*
X129143981Y-120781162D01*
X128143981Y-120781162D01*
X128143981Y-120304971D01*
X128620171Y-119543066D02*
X128620171Y-119876400D01*
X129143981Y-119876400D02*
X128143981Y-119876400D01*
X128143981Y-119400209D01*
X128143981Y-118876400D02*
X128382076Y-118876400D01*
X128286838Y-119114495D02*
X128382076Y-118876400D01*
X128286838Y-118638304D01*
X128572552Y-119019257D02*
X128382076Y-118876400D01*
X128572552Y-118733542D01*
X128143981Y-118114495D02*
X128382076Y-118114495D01*
X128286838Y-118352590D02*
X128382076Y-118114495D01*
X128286838Y-117876399D01*
X128572552Y-118257352D02*
X128382076Y-118114495D01*
X128572552Y-117971637D01*
X134312181Y-47598733D02*
X133835990Y-47932067D01*
X134312181Y-48170162D02*
X133312181Y-48170162D01*
X133312181Y-47789209D01*
X133359800Y-47693971D01*
X133407419Y-47646352D01*
X133502657Y-47598733D01*
X133645514Y-47598733D01*
X133740752Y-47646352D01*
X133788371Y-47693971D01*
X133835990Y-47789209D01*
X133835990Y-48170162D01*
X133788371Y-47170162D02*
X133788371Y-46836828D01*
X134312181Y-46693971D02*
X134312181Y-47170162D01*
X133312181Y-47170162D01*
X133312181Y-46693971D01*
X133788371Y-45932066D02*
X133788371Y-46265400D01*
X134312181Y-46265400D02*
X133312181Y-46265400D01*
X133312181Y-45789209D01*
X133312181Y-45265400D02*
X133550276Y-45265400D01*
X133455038Y-45503495D02*
X133550276Y-45265400D01*
X133455038Y-45027304D01*
X133740752Y-45408257D02*
X133550276Y-45265400D01*
X133740752Y-45122542D01*
X133312181Y-44503495D02*
X133550276Y-44503495D01*
X133455038Y-44741590D02*
X133550276Y-44503495D01*
X133455038Y-44265399D01*
X133740752Y-44646352D02*
X133550276Y-44503495D01*
X133740752Y-44360637D01*
X134312181Y-73633733D02*
X133835990Y-73967067D01*
X134312181Y-74205162D02*
X133312181Y-74205162D01*
X133312181Y-73824209D01*
X133359800Y-73728971D01*
X133407419Y-73681352D01*
X133502657Y-73633733D01*
X133645514Y-73633733D01*
X133740752Y-73681352D01*
X133788371Y-73728971D01*
X133835990Y-73824209D01*
X133835990Y-74205162D01*
X133788371Y-73205162D02*
X133788371Y-72871828D01*
X134312181Y-72728971D02*
X134312181Y-73205162D01*
X133312181Y-73205162D01*
X133312181Y-72728971D01*
X133788371Y-71967066D02*
X133788371Y-72300400D01*
X134312181Y-72300400D02*
X133312181Y-72300400D01*
X133312181Y-71824209D01*
X133312181Y-71300400D02*
X133550276Y-71300400D01*
X133455038Y-71538495D02*
X133550276Y-71300400D01*
X133455038Y-71062304D01*
X133740752Y-71443257D02*
X133550276Y-71300400D01*
X133740752Y-71157542D01*
X133312181Y-70538495D02*
X133550276Y-70538495D01*
X133455038Y-70776590D02*
X133550276Y-70538495D01*
X133455038Y-70300399D01*
X133740752Y-70681352D02*
X133550276Y-70538495D01*
X133740752Y-70395637D01*
X161617181Y-73633733D02*
X161140990Y-73967067D01*
X161617181Y-74205162D02*
X160617181Y-74205162D01*
X160617181Y-73824209D01*
X160664800Y-73728971D01*
X160712419Y-73681352D01*
X160807657Y-73633733D01*
X160950514Y-73633733D01*
X161045752Y-73681352D01*
X161093371Y-73728971D01*
X161140990Y-73824209D01*
X161140990Y-74205162D01*
X161093371Y-73205162D02*
X161093371Y-72871828D01*
X161617181Y-72728971D02*
X161617181Y-73205162D01*
X160617181Y-73205162D01*
X160617181Y-72728971D01*
X161093371Y-71967066D02*
X161093371Y-72300400D01*
X161617181Y-72300400D02*
X160617181Y-72300400D01*
X160617181Y-71824209D01*
X160617181Y-71300400D02*
X160855276Y-71300400D01*
X160760038Y-71538495D02*
X160855276Y-71300400D01*
X160760038Y-71062304D01*
X161045752Y-71443257D02*
X160855276Y-71300400D01*
X161045752Y-71157542D01*
X160617181Y-70538495D02*
X160855276Y-70538495D01*
X160760038Y-70776590D02*
X160855276Y-70538495D01*
X160760038Y-70300399D01*
X161045752Y-70681352D02*
X160855276Y-70538495D01*
X161045752Y-70395637D01*
X138150134Y-53402543D02*
X138102515Y-53450162D01*
X137959658Y-53497781D01*
X137864420Y-53497781D01*
X137721562Y-53450162D01*
X137626324Y-53354924D01*
X137578705Y-53259686D01*
X137531086Y-53069210D01*
X137531086Y-52926352D01*
X137578705Y-52735876D01*
X137626324Y-52640638D01*
X137721562Y-52545400D01*
X137864420Y-52497781D01*
X137959658Y-52497781D01*
X138102515Y-52545400D01*
X138150134Y-52593019D01*
X139102515Y-53497781D02*
X138531086Y-53497781D01*
X138816800Y-53497781D02*
X138816800Y-52497781D01*
X138721562Y-52640638D01*
X138626324Y-52735876D01*
X138531086Y-52783495D01*
X138150134Y-60582543D02*
X138102515Y-60630162D01*
X137959658Y-60677781D01*
X137864420Y-60677781D01*
X137721562Y-60630162D01*
X137626324Y-60534924D01*
X137578705Y-60439686D01*
X137531086Y-60249210D01*
X137531086Y-60106352D01*
X137578705Y-59915876D01*
X137626324Y-59820638D01*
X137721562Y-59725400D01*
X137864420Y-59677781D01*
X137959658Y-59677781D01*
X138102515Y-59725400D01*
X138150134Y-59773019D01*
X138531086Y-59773019D02*
X138578705Y-59725400D01*
X138673943Y-59677781D01*
X138912039Y-59677781D01*
X139007277Y-59725400D01*
X139054896Y-59773019D01*
X139102515Y-59868257D01*
X139102515Y-59963495D01*
X139054896Y-60106352D01*
X138483467Y-60677781D01*
X139102515Y-60677781D01*
X143865134Y-51102543D02*
X143817515Y-51150162D01*
X143674658Y-51197781D01*
X143579420Y-51197781D01*
X143436562Y-51150162D01*
X143341324Y-51054924D01*
X143293705Y-50959686D01*
X143246086Y-50769210D01*
X143246086Y-50626352D01*
X143293705Y-50435876D01*
X143341324Y-50340638D01*
X143436562Y-50245400D01*
X143579420Y-50197781D01*
X143674658Y-50197781D01*
X143817515Y-50245400D01*
X143865134Y-50293019D01*
X144198467Y-50197781D02*
X144817515Y-50197781D01*
X144484181Y-50578733D01*
X144627039Y-50578733D01*
X144722277Y-50626352D01*
X144769896Y-50673971D01*
X144817515Y-50769210D01*
X144817515Y-51007305D01*
X144769896Y-51102543D01*
X144722277Y-51150162D01*
X144627039Y-51197781D01*
X144341324Y-51197781D01*
X144246086Y-51150162D01*
X144198467Y-51102543D01*
X140170134Y-62497543D02*
X140122515Y-62545162D01*
X139979658Y-62592781D01*
X139884420Y-62592781D01*
X139741562Y-62545162D01*
X139646324Y-62449924D01*
X139598705Y-62354686D01*
X139551086Y-62164210D01*
X139551086Y-62021352D01*
X139598705Y-61830876D01*
X139646324Y-61735638D01*
X139741562Y-61640400D01*
X139884420Y-61592781D01*
X139979658Y-61592781D01*
X140122515Y-61640400D01*
X140170134Y-61688019D01*
X141027277Y-61926114D02*
X141027277Y-62592781D01*
X140789181Y-61545162D02*
X140551086Y-62259448D01*
X141170134Y-62259448D01*
X143484181Y-69888733D02*
X144198467Y-69888733D01*
X144341324Y-69936353D01*
X144436562Y-70031591D01*
X144484181Y-70174448D01*
X144484181Y-70269686D01*
X144484181Y-68888733D02*
X144484181Y-69460162D01*
X144484181Y-69174448D02*
X143484181Y-69174448D01*
X143627038Y-69269686D01*
X143722276Y-69364924D01*
X143769895Y-69460162D01*
X151584181Y-59767066D02*
X151584181Y-60243257D01*
X150584181Y-60243257D01*
X151584181Y-58909923D02*
X151584181Y-59481352D01*
X151584181Y-59195638D02*
X150584181Y-59195638D01*
X150727038Y-59290876D01*
X150822276Y-59386114D01*
X150869895Y-59481352D01*
X151584181Y-54687066D02*
X151107990Y-55020400D01*
X151584181Y-55258495D02*
X150584181Y-55258495D01*
X150584181Y-54877542D01*
X150631800Y-54782304D01*
X150679419Y-54734685D01*
X150774657Y-54687066D01*
X150917514Y-54687066D01*
X151012752Y-54734685D01*
X151060371Y-54782304D01*
X151107990Y-54877542D01*
X151107990Y-55258495D01*
X151584181Y-53734685D02*
X151584181Y-54306114D01*
X151584181Y-54020400D02*
X150584181Y-54020400D01*
X150727038Y-54115638D01*
X150822276Y-54210876D01*
X150869895Y-54306114D01*
X146774181Y-55282305D02*
X147583705Y-55282305D01*
X147678943Y-55234686D01*
X147726562Y-55187067D01*
X147774181Y-55091829D01*
X147774181Y-54901352D01*
X147726562Y-54806114D01*
X147678943Y-54758495D01*
X147583705Y-54710876D01*
X146774181Y-54710876D01*
X147774181Y-53710876D02*
X147774181Y-54282305D01*
X147774181Y-53996591D02*
X146774181Y-53996591D01*
X146917038Y-54091829D01*
X147012276Y-54187067D01*
X147059895Y-54282305D01*
X153997181Y-47003495D02*
X152997181Y-47003495D01*
X152997181Y-46622542D01*
X153044800Y-46527304D01*
X153092419Y-46479685D01*
X153187657Y-46432066D01*
X153330514Y-46432066D01*
X153425752Y-46479685D01*
X153473371Y-46527304D01*
X153520990Y-46622542D01*
X153520990Y-47003495D01*
X153997181Y-45479685D02*
X153997181Y-46051114D01*
X153997181Y-45765400D02*
X152997181Y-45765400D01*
X153140038Y-45860638D01*
X153235276Y-45955876D01*
X153282895Y-46051114D01*
X143087181Y-46798495D02*
X142087181Y-46798495D01*
X142087181Y-46417542D01*
X142134800Y-46322304D01*
X142182419Y-46274685D01*
X142277657Y-46227066D01*
X142420514Y-46227066D01*
X142515752Y-46274685D01*
X142563371Y-46322304D01*
X142610990Y-46417542D01*
X142610990Y-46798495D01*
X142182419Y-45846114D02*
X142134800Y-45798495D01*
X142087181Y-45703257D01*
X142087181Y-45465161D01*
X142134800Y-45369923D01*
X142182419Y-45322304D01*
X142277657Y-45274685D01*
X142372895Y-45274685D01*
X142515752Y-45322304D01*
X143087181Y-45893733D01*
X143087181Y-45274685D01*
X161617181Y-47598733D02*
X161140990Y-47932067D01*
X161617181Y-48170162D02*
X160617181Y-48170162D01*
X160617181Y-47789209D01*
X160664800Y-47693971D01*
X160712419Y-47646352D01*
X160807657Y-47598733D01*
X160950514Y-47598733D01*
X161045752Y-47646352D01*
X161093371Y-47693971D01*
X161140990Y-47789209D01*
X161140990Y-48170162D01*
X161093371Y-47170162D02*
X161093371Y-46836828D01*
X161617181Y-46693971D02*
X161617181Y-47170162D01*
X160617181Y-47170162D01*
X160617181Y-46693971D01*
X161093371Y-45932066D02*
X161093371Y-46265400D01*
X161617181Y-46265400D02*
X160617181Y-46265400D01*
X160617181Y-45789209D01*
X160617181Y-45265400D02*
X160855276Y-45265400D01*
X160760038Y-45503495D02*
X160855276Y-45265400D01*
X160760038Y-45027304D01*
X161045752Y-45408257D02*
X160855276Y-45265400D01*
X161045752Y-45122542D01*
X160617181Y-44503495D02*
X160855276Y-44503495D01*
X160760038Y-44741590D02*
X160855276Y-44503495D01*
X160760038Y-44265399D01*
X161045752Y-44646352D02*
X160855276Y-44503495D01*
X161045752Y-44360637D01*
M02*
