G04 #@! TF.FileFunction,Copper,L2,Bot,Signal*
%FSLAX46Y46*%
G04 Gerber Fmt 4.6, Leading zero omitted, Abs format (unit mm)*
G04 Created by KiCad (PCBNEW (2015-07-31 BZR 6030)-product) date Fri Sep 11 18:22:56 2015*
%MOMM*%
G01*
G04 APERTURE LIST*
%ADD10C,0.100000*%
%ADD11C,4.000000*%
%ADD12R,1.727200X2.032000*%
%ADD13O,1.727200X2.032000*%
%ADD14R,2.032000X1.727200*%
%ADD15O,2.032000X1.727200*%
%ADD16C,5.000000*%
%ADD17O,1.250000X0.950000*%
%ADD18O,1.000000X1.550000*%
%ADD19C,1.600000*%
%ADD20R,1.397000X1.397000*%
%ADD21C,1.397000*%
%ADD22C,1.501140*%
%ADD23C,2.999740*%
%ADD24C,4.064000*%
%ADD25C,0.700000*%
%ADD26C,0.635000*%
%ADD27C,0.400000*%
%ADD28C,0.250000*%
%ADD29C,0.800000*%
%ADD30C,0.254000*%
G04 APERTURE END LIST*
D10*
D11*
X209350400Y-46150400D03*
X173790400Y-67486400D03*
D12*
X190198800Y-47928400D03*
D13*
X192738800Y-47928400D03*
X195278800Y-47928400D03*
X197818800Y-47928400D03*
X200358800Y-47928400D03*
X202898800Y-47928400D03*
D14*
X208131200Y-64489200D03*
D15*
X208131200Y-61949200D03*
X208131200Y-59409200D03*
X208131200Y-56869200D03*
D14*
X178006800Y-61390400D03*
D15*
X178006800Y-58850400D03*
X178006800Y-56310400D03*
X178006800Y-53770400D03*
D11*
X202441600Y-68299200D03*
X209350400Y-46150400D03*
X173790400Y-67486400D03*
D12*
X190198800Y-47928400D03*
D13*
X192738800Y-47928400D03*
X195278800Y-47928400D03*
X197818800Y-47928400D03*
X200358800Y-47928400D03*
X202898800Y-47928400D03*
D14*
X208131200Y-64489200D03*
D15*
X208131200Y-61949200D03*
X208131200Y-59409200D03*
X208131200Y-56869200D03*
D14*
X178006800Y-61390400D03*
D15*
X178006800Y-58850400D03*
X178006800Y-56310400D03*
X178006800Y-53770400D03*
D11*
X202441600Y-68299200D03*
D16*
X92598200Y-50407400D03*
X116982200Y-119089000D03*
D17*
X77733000Y-117057000D03*
X82733000Y-117057000D03*
D18*
X76733000Y-119757000D03*
X83733000Y-119757000D03*
D12*
X83911400Y-74842200D03*
D13*
X86451400Y-74842200D03*
X88991400Y-74842200D03*
X91531400Y-74842200D03*
X94071400Y-74842200D03*
X96611400Y-74842200D03*
D14*
X68366600Y-77534600D03*
D15*
X68366600Y-80074600D03*
X68366600Y-82614600D03*
X68366600Y-85154600D03*
D14*
X111597400Y-109487800D03*
D15*
X111597400Y-106947800D03*
X111597400Y-104407800D03*
X111597400Y-101867800D03*
D12*
X95951000Y-118073000D03*
D13*
X98491000Y-118073000D03*
X101031000Y-118073000D03*
X103571000Y-118073000D03*
D19*
X89855000Y-61237800D03*
X89855000Y-68837800D03*
X92395000Y-61237800D03*
X92395000Y-68837800D03*
X94935000Y-61237800D03*
X94935000Y-68837800D03*
X97475000Y-61237800D03*
X97475000Y-68837800D03*
D16*
X64963000Y-118479400D03*
D11*
X169077600Y-118454000D03*
X175427600Y-89244000D03*
X131028400Y-88786800D03*
D17*
X145525600Y-118606400D03*
X150525600Y-118606400D03*
D18*
X144525600Y-121306400D03*
X151525600Y-121306400D03*
D14*
X175300600Y-106389000D03*
D15*
X175300600Y-108929000D03*
X175300600Y-111469000D03*
X175300600Y-114009000D03*
D20*
X142255200Y-98083200D03*
D21*
X144795200Y-98083200D03*
X147335200Y-98083200D03*
X149875200Y-98083200D03*
X152415200Y-98083200D03*
X154955200Y-98083200D03*
X157495200Y-98083200D03*
X160035200Y-98083200D03*
X162575200Y-98083200D03*
X165115200Y-98083200D03*
X165115200Y-90463200D03*
X162575200Y-90463200D03*
X160035200Y-90463200D03*
X157495200Y-90463200D03*
X154955200Y-90463200D03*
X152415200Y-90463200D03*
X149875200Y-90463200D03*
X147335200Y-90463200D03*
X144795200Y-90463200D03*
X142255200Y-90463200D03*
D11*
X131739600Y-119876400D03*
D16*
X130811800Y-46265400D03*
X130811800Y-72300400D03*
X158116800Y-72300400D03*
D22*
X150127800Y-61935400D03*
X147587800Y-61935400D03*
X145555800Y-61935400D03*
X143015800Y-61935400D03*
D23*
X153175800Y-64602400D03*
X139459800Y-64602400D03*
D24*
X150496800Y-46265400D03*
X139586800Y-46060400D03*
D16*
X158116800Y-46265400D03*
D25*
X211534800Y-50366800D03*
X211534800Y-50366800D03*
X156846800Y-104126600D03*
X168950600Y-108292200D03*
X208334400Y-50468400D03*
X202390800Y-51636800D03*
X191570400Y-50620800D03*
X208334400Y-50468400D03*
X202390800Y-51636800D03*
X191570400Y-50620800D03*
X172760600Y-103849000D03*
X145455600Y-110986400D03*
X159425600Y-113526400D03*
X79961000Y-93230000D03*
X177395400Y-47916400D03*
X196142400Y-65200400D03*
X204473600Y-57936000D03*
X180851600Y-52449600D03*
X181512000Y-61644400D03*
X196142400Y-65200400D03*
X204473600Y-57936000D03*
X180851600Y-52449600D03*
X181512000Y-61644400D03*
X100929400Y-83021000D03*
X111343400Y-86373800D03*
X85841800Y-84341800D03*
X90413800Y-93231800D03*
X103113800Y-85205400D03*
X95138200Y-106236600D03*
X79288600Y-77280600D03*
X74513400Y-100480200D03*
X73548200Y-95009800D03*
X81981000Y-95873400D03*
X78742600Y-103679000D03*
X80342600Y-101479000D03*
X82031800Y-101676600D03*
X78729800Y-111553000D03*
X68315800Y-92825400D03*
X63642200Y-87593000D03*
X131485600Y-107176400D03*
X151805600Y-103366400D03*
X159425600Y-105906400D03*
X141645600Y-104636400D03*
X137835600Y-105906400D03*
X167680600Y-106389000D03*
X163870600Y-110199000D03*
X142946800Y-57305400D03*
X142946800Y-56405400D03*
X143846800Y-56405400D03*
X143846800Y-57305400D03*
X197514000Y-56564400D03*
X192688000Y-52754400D03*
X197514000Y-56564400D03*
X192688000Y-52754400D03*
X192230800Y-60323600D03*
X191722800Y-56462800D03*
X192230800Y-60323600D03*
X191722800Y-56462800D03*
X182274000Y-63676400D03*
X186642800Y-59104400D03*
X182274000Y-63676400D03*
X186642800Y-59104400D03*
X180851600Y-48436400D03*
X180851600Y-48436400D03*
X184001200Y-51687600D03*
X184001200Y-51687600D03*
X106619000Y-88609000D03*
X108447800Y-69406600D03*
X117439400Y-69051000D03*
X108701800Y-69325000D03*
X86107800Y-102424800D03*
X83618600Y-105066400D03*
X140375600Y-114500718D03*
X140375600Y-105906400D03*
X72075000Y-47969000D03*
X69687400Y-60110200D03*
X88483400Y-110554600D03*
X79390200Y-107592202D03*
X75021400Y-93384200D03*
X87213400Y-91403000D03*
X78983800Y-84443400D03*
X81219000Y-97600600D03*
X81422200Y-106592200D03*
X93614200Y-99175400D03*
X91328200Y-92215800D03*
X92254600Y-92671200D03*
X93207800Y-93231800D03*
X93969800Y-93892200D03*
X97068600Y-95975000D03*
X97068600Y-94908200D03*
X98491000Y-96889400D03*
X99456200Y-96991000D03*
X109514600Y-94095400D03*
X79949000Y-90285400D03*
X80507800Y-91555400D03*
X109362200Y-97041800D03*
X84825800Y-92266600D03*
X87467400Y-95822600D03*
X71516200Y-57265400D03*
X75986600Y-58230600D03*
X70195400Y-66765000D03*
X69128600Y-63971000D03*
X81168200Y-78042600D03*
X79847400Y-60923000D03*
X78679000Y-61481800D03*
X80711000Y-78957000D03*
X155615600Y-107176400D03*
X150535600Y-105906400D03*
X155615600Y-104636400D03*
X147995600Y-103366400D03*
X149316400Y-100521600D03*
X148198800Y-104585600D03*
D26*
X156885600Y-113526400D02*
X156885600Y-104165400D01*
X156885600Y-104165400D02*
X156846800Y-104126600D01*
D27*
X208436000Y-50366800D02*
X211534800Y-50366800D01*
X208334400Y-50468400D02*
X208436000Y-50366800D01*
X192586400Y-51636800D02*
X202390800Y-51636800D01*
X191570400Y-50620800D02*
X192586400Y-51636800D01*
X208436000Y-50366800D02*
X211534800Y-50366800D01*
X208334400Y-50468400D02*
X208436000Y-50366800D01*
X192586400Y-51636800D02*
X202390800Y-51636800D01*
X191570400Y-50620800D02*
X192586400Y-51636800D01*
D26*
X159425600Y-113526400D02*
X164353200Y-113526400D01*
X164353200Y-113526400D02*
X168950600Y-108929000D01*
X172760600Y-103849000D02*
X168950600Y-107659000D01*
X168950600Y-107659000D02*
X168950600Y-108292200D01*
X168950600Y-108292200D02*
X168950600Y-108929000D01*
X145455600Y-110986400D02*
X147995600Y-113526400D01*
X147995600Y-113526400D02*
X156885600Y-113526400D01*
X156885600Y-113526400D02*
X159425600Y-113526400D01*
D28*
X81981000Y-95871600D02*
X81981000Y-95250000D01*
X81981000Y-95250000D02*
X79961000Y-93230000D01*
D27*
X203406800Y-65200400D02*
X196142400Y-65200400D01*
X203762400Y-64844800D02*
X203406800Y-65200400D01*
X203762400Y-58647200D02*
X203762400Y-64844800D01*
X204473600Y-57936000D02*
X203762400Y-58647200D01*
X180851600Y-52449600D02*
X181512000Y-53110000D01*
X181512000Y-53110000D02*
X181512000Y-61644400D01*
X203406800Y-65200400D02*
X196142400Y-65200400D01*
X203762400Y-64844800D02*
X203406800Y-65200400D01*
X203762400Y-58647200D02*
X203762400Y-64844800D01*
X204473600Y-57936000D02*
X203762400Y-58647200D01*
X180851600Y-52449600D02*
X181512000Y-53110000D01*
X181512000Y-53110000D02*
X181512000Y-61644400D01*
X103113800Y-85205400D02*
X110175000Y-85205400D01*
X110175000Y-85205400D02*
X111343400Y-86373800D01*
D28*
X85841800Y-88659800D02*
X85841800Y-84341800D01*
X90413800Y-93231800D02*
X85841800Y-88659800D01*
D29*
X96611400Y-78703000D02*
X96611400Y-74842200D01*
X103113800Y-85205400D02*
X100929400Y-83021000D01*
X100929400Y-83021000D02*
X96611400Y-78703000D01*
X82733000Y-117057000D02*
X90210600Y-117057000D01*
X95138200Y-112129400D02*
X95138200Y-106236600D01*
X90210600Y-117057000D02*
X95138200Y-112129400D01*
X73548200Y-95009800D02*
X73548200Y-82360600D01*
X78628200Y-77280600D02*
X79288600Y-77280600D01*
X73548200Y-82360600D02*
X78628200Y-77280600D01*
X74513400Y-95975000D02*
X73548200Y-95009800D01*
X74513400Y-100480200D02*
X74513400Y-95975000D01*
D28*
X81981000Y-95873400D02*
X81981000Y-95871600D01*
X81981000Y-95871600D02*
X81981000Y-95924200D01*
D27*
X78628200Y-111215000D02*
X78475800Y-111215000D01*
X77815400Y-106744600D02*
X79441000Y-105119000D01*
X77815400Y-110554600D02*
X77815400Y-106744600D01*
X78475800Y-111215000D02*
X77815400Y-110554600D01*
D28*
X78742600Y-103679000D02*
X78742600Y-104420600D01*
X78742600Y-104420600D02*
X79441000Y-105119000D01*
X81981000Y-101625800D02*
X82031800Y-101676600D01*
X81981000Y-100547000D02*
X81981000Y-101625800D01*
X80540200Y-101676600D02*
X82031800Y-101676600D01*
X80540200Y-101676600D02*
X80342600Y-101479000D01*
D27*
X77733000Y-117057000D02*
X77733000Y-119057400D01*
X77733000Y-119057400D02*
X78432600Y-119757000D01*
X76733000Y-119757000D02*
X78432600Y-119757000D01*
X78432600Y-119757000D02*
X81733000Y-119757000D01*
X81733000Y-119757000D02*
X82733000Y-118757000D01*
X82733000Y-117057000D02*
X82733000Y-118757000D01*
X82733000Y-118757000D02*
X83733000Y-119757000D01*
X78628200Y-111215000D02*
X78628200Y-111451400D01*
X78628200Y-111451400D02*
X78729800Y-111553000D01*
X78628200Y-112952200D02*
X82733000Y-117057000D01*
X78628200Y-111215000D02*
X78628200Y-112952200D01*
X81981000Y-102579000D02*
X79441000Y-105119000D01*
X81981000Y-100547000D02*
X81981000Y-102579000D01*
X81981000Y-95924200D02*
X81981000Y-100547000D01*
D29*
X63642200Y-88151800D02*
X68315800Y-92825400D01*
X63642200Y-87593000D02*
X63642200Y-88151800D01*
D28*
X142876800Y-57060400D02*
X142876800Y-57235400D01*
X142876800Y-57235400D02*
X142946800Y-57305400D01*
X142876800Y-56425400D02*
X142926800Y-56425400D01*
X142926800Y-56425400D02*
X142946800Y-56405400D01*
X143826800Y-56425400D02*
X143511800Y-56425400D01*
X143846800Y-56405400D02*
X143826800Y-56425400D01*
X143511800Y-57060400D02*
X143601800Y-57060400D01*
X143601800Y-57060400D02*
X143846800Y-57305400D01*
D27*
X197514000Y-53922800D02*
X197514000Y-56564400D01*
X197006000Y-53414800D02*
X197514000Y-53922800D01*
X193348400Y-53414800D02*
X197006000Y-53414800D01*
X192688000Y-52754400D02*
X193348400Y-53414800D01*
X197514000Y-53922800D02*
X197514000Y-56564400D01*
X197006000Y-53414800D02*
X197514000Y-53922800D01*
X193348400Y-53414800D02*
X197006000Y-53414800D01*
X192688000Y-52754400D02*
X193348400Y-53414800D01*
X192230800Y-56970800D02*
X192230800Y-60323600D01*
X191722800Y-56462800D02*
X192230800Y-56970800D01*
X192230800Y-56970800D02*
X192230800Y-60323600D01*
X191722800Y-56462800D02*
X192230800Y-56970800D01*
X182274000Y-63473200D02*
X182274000Y-63676400D01*
X186642800Y-59104400D02*
X182274000Y-63473200D01*
X182274000Y-63473200D02*
X182274000Y-63676400D01*
X186642800Y-59104400D02*
X182274000Y-63473200D01*
X180851600Y-48436400D02*
X184001200Y-51586000D01*
X180851600Y-48436400D02*
X184001200Y-51586000D01*
X184001200Y-51586000D02*
X184001200Y-51687600D01*
X184001200Y-51586000D02*
X184001200Y-51687600D01*
D29*
X117439400Y-84087800D02*
X117439400Y-69051000D01*
X113172200Y-88355000D02*
X117439400Y-84087800D01*
X106873000Y-88355000D02*
X113172200Y-88355000D01*
X106619000Y-88609000D02*
X106873000Y-88355000D01*
X117083800Y-69406600D02*
X108447800Y-69406600D01*
X117439400Y-69051000D02*
X117083800Y-69406600D01*
X108701800Y-69325000D02*
X108631000Y-69254200D01*
X108631000Y-69254200D02*
X108346200Y-69254200D01*
D28*
X86107800Y-102577200D02*
X86107800Y-102424800D01*
X83618600Y-105066400D02*
X86107800Y-102577200D01*
D26*
X140375600Y-105906400D02*
X140375600Y-114500718D01*
D28*
X69687400Y-50356600D02*
X72075000Y-47969000D01*
X69687400Y-60110200D02*
X69687400Y-50356600D01*
D29*
X82352598Y-110554600D02*
X88483400Y-110554600D01*
X79390200Y-107592202D02*
X82352598Y-110554600D01*
D28*
X75021400Y-85713400D02*
X75021400Y-93384200D01*
X77561400Y-83173400D02*
X75021400Y-85713400D01*
X78983800Y-83173400D02*
X77561400Y-83173400D01*
X87213400Y-91403000D02*
X78983800Y-83173400D01*
X78983800Y-95365400D02*
X78983800Y-84443400D01*
X81219000Y-97600600D02*
X78983800Y-95365400D01*
D29*
X81422200Y-106592200D02*
X86197400Y-106592200D01*
X86197400Y-106592200D02*
X93614200Y-99175400D01*
D28*
X86451400Y-74842200D02*
X91328200Y-79719000D01*
X91328200Y-79719000D02*
X91328200Y-92215800D01*
X92254600Y-78105400D02*
X88991400Y-74842200D01*
X92254600Y-92671200D02*
X92254600Y-78105400D01*
X93207800Y-76518600D02*
X91531400Y-74842200D01*
X93207800Y-93231800D02*
X93207800Y-76518600D01*
X94071400Y-93790600D02*
X94071400Y-74842200D01*
X93969800Y-93892200D02*
X94071400Y-93790600D01*
X100624600Y-95975000D02*
X111597400Y-106947800D01*
X97068600Y-95975000D02*
X100624600Y-95975000D01*
X111597400Y-104407800D02*
X102097800Y-94908200D01*
X102097800Y-94908200D02*
X97068600Y-94908200D01*
X98491000Y-96889400D02*
X98491000Y-118073000D01*
X101031000Y-118073000D02*
X101031000Y-98565800D01*
X101031000Y-98565800D02*
X99456200Y-96991000D01*
X108651000Y-93231800D02*
X109514600Y-94095400D01*
X95697000Y-93231800D02*
X108651000Y-93231800D01*
X90109000Y-98819800D02*
X95697000Y-93231800D01*
X89093000Y-98819800D02*
X90109000Y-98819800D01*
X80660200Y-90387000D02*
X89093000Y-98819800D01*
X80050600Y-90387000D02*
X80660200Y-90387000D01*
X79949000Y-90285400D02*
X80050600Y-90387000D01*
X89042200Y-100089800D02*
X80507800Y-91555400D01*
X90515400Y-100089800D02*
X89042200Y-100089800D01*
X96560600Y-94044600D02*
X90515400Y-100089800D01*
X106365000Y-94044600D02*
X96560600Y-94044600D01*
X109362200Y-97041800D02*
X106365000Y-94044600D01*
X87467400Y-94908200D02*
X84825800Y-92266600D01*
X87467400Y-95822600D02*
X87467400Y-94908200D01*
X89855000Y-68837800D02*
X89133800Y-68837800D01*
X89133800Y-68837800D02*
X79237800Y-58941800D01*
X79237800Y-58941800D02*
X73192600Y-58941800D01*
X73192600Y-58941800D02*
X71516200Y-57265400D01*
X92395000Y-68837800D02*
X81787800Y-58230600D01*
X81787800Y-58230600D02*
X75986600Y-58230600D01*
X94935000Y-68837800D02*
X94935000Y-70117800D01*
X94935000Y-70117800D02*
X96713000Y-71895800D01*
X96713000Y-71895800D02*
X102707400Y-71895800D01*
X102707400Y-71895800D02*
X104739400Y-69863800D01*
X104739400Y-69863800D02*
X104739400Y-46953000D01*
X104739400Y-46953000D02*
X102859800Y-45073400D01*
X102859800Y-45073400D02*
X66385400Y-45073400D01*
X66385400Y-45073400D02*
X66385400Y-62955000D01*
X66385400Y-62955000D02*
X70195400Y-66765000D01*
X99212200Y-70575000D02*
X97475000Y-68837800D01*
X102047000Y-70575000D02*
X99212200Y-70575000D01*
X103367800Y-69254200D02*
X102047000Y-70575000D01*
X103367800Y-48324600D02*
X103367800Y-69254200D01*
X101437400Y-46394200D02*
X103367800Y-48324600D01*
X69281000Y-46394200D02*
X101437400Y-46394200D01*
X67198200Y-48477000D02*
X69281000Y-46394200D01*
X67198200Y-62040600D02*
X67198200Y-48477000D01*
X69128600Y-63971000D02*
X67198200Y-62040600D01*
X81168200Y-62243800D02*
X81168200Y-78042600D01*
X79847400Y-60923000D02*
X81168200Y-62243800D01*
X80203000Y-63005800D02*
X78679000Y-61481800D01*
X80203000Y-78449000D02*
X80203000Y-63005800D01*
X80711000Y-78957000D02*
X80203000Y-78449000D01*
X151805600Y-107176400D02*
X155615600Y-107176400D01*
X150535600Y-105906400D02*
X151805600Y-107176400D01*
X149265600Y-104636400D02*
X155615600Y-104636400D01*
X147995600Y-103366400D02*
X149265600Y-104636400D01*
X147741600Y-100521600D02*
X149316400Y-100521600D01*
X146522400Y-101740800D02*
X147741600Y-100521600D01*
X146522400Y-102909200D02*
X146522400Y-101740800D01*
X148198800Y-104585600D02*
X146522400Y-102909200D01*
D30*
G36*
X203932258Y-70534347D02*
X204674142Y-69793757D01*
X205076142Y-68825633D01*
X205077057Y-67777366D01*
X204676747Y-66808542D01*
X203936157Y-66066658D01*
X202968033Y-65664658D01*
X201919766Y-65663743D01*
X200950942Y-66064053D01*
X200209058Y-66804643D01*
X200142653Y-66964566D01*
X176425857Y-66964566D01*
X176025547Y-65995742D01*
X175284957Y-65253858D01*
X174316833Y-64851858D01*
X173268566Y-64850943D01*
X172299742Y-65251253D01*
X171557858Y-65991843D01*
X171155858Y-66959967D01*
X171154943Y-68008234D01*
X171555253Y-68977058D01*
X172295843Y-69718942D01*
X173263967Y-70120942D01*
X174312234Y-70121857D01*
X175281058Y-69721547D01*
X176022942Y-68980957D01*
X176424942Y-68012833D01*
X176425857Y-66964566D01*
X200142653Y-66964566D01*
X199807058Y-67772767D01*
X199806143Y-68821034D01*
X200206453Y-69789858D01*
X200947043Y-70531742D01*
X201748654Y-70864600D01*
X170920200Y-70864600D01*
X170920200Y-43635800D01*
X208524831Y-43635800D01*
X207875753Y-43904657D01*
X207654984Y-44275378D01*
X209350400Y-45970795D01*
X211045816Y-44275378D01*
X210825047Y-43904657D01*
X210160956Y-43635800D01*
X212932034Y-43635800D01*
X212937611Y-46653388D01*
X211989519Y-46653388D01*
X211981113Y-45605153D01*
X211596143Y-44675753D01*
X211225422Y-44454984D01*
X209530005Y-46150400D01*
X209170795Y-46150400D01*
X207475378Y-44454984D01*
X207104657Y-44675753D01*
X206711281Y-45647412D01*
X206719687Y-46695647D01*
X207080400Y-47566487D01*
X204383984Y-47566487D01*
X204190754Y-47014080D01*
X203800836Y-46577668D01*
X203273591Y-46323691D01*
X203257826Y-46321042D01*
X203025800Y-46442183D01*
X203025800Y-47801400D01*
X204239724Y-47801400D01*
X204383984Y-47566487D01*
X207080400Y-47566487D01*
X207104657Y-47625047D01*
X207475378Y-47845816D01*
X209170795Y-46150400D01*
X209530005Y-46150400D01*
X211225422Y-47845816D01*
X211596143Y-47625047D01*
X211989519Y-46653388D01*
X212937611Y-46653388D01*
X212940147Y-48025422D01*
X211045816Y-48025422D01*
X209350400Y-46330005D01*
X207654984Y-48025422D01*
X207812729Y-48290313D01*
X204383984Y-48290313D01*
X204239724Y-48055400D01*
X203025800Y-48055400D01*
X203025800Y-49414617D01*
X202771800Y-49414617D01*
X202771800Y-48055400D01*
X202751800Y-48055400D01*
X202751800Y-47801400D01*
X202771800Y-47801400D01*
X202771800Y-46442183D01*
X202539774Y-46321042D01*
X202524009Y-46323691D01*
X201996764Y-46577668D01*
X201625261Y-46993469D01*
X201418470Y-46683985D01*
X200932289Y-46359129D01*
X200358800Y-46245055D01*
X199785311Y-46359129D01*
X199299130Y-46683985D01*
X199088800Y-46998766D01*
X198878470Y-46683985D01*
X198392289Y-46359129D01*
X197818800Y-46245055D01*
X197245311Y-46359129D01*
X196759130Y-46683985D01*
X196548800Y-46998766D01*
X196338470Y-46683985D01*
X195852289Y-46359129D01*
X195278800Y-46245055D01*
X194705311Y-46359129D01*
X194219130Y-46683985D01*
X194008800Y-46998766D01*
X193798470Y-46683985D01*
X193312289Y-46359129D01*
X192738800Y-46245055D01*
X192165311Y-46359129D01*
X191679130Y-46683985D01*
X191669557Y-46698313D01*
X191665562Y-46677083D01*
X191526490Y-46460959D01*
X191314290Y-46315969D01*
X191062400Y-46264960D01*
X189335200Y-46264960D01*
X189099883Y-46309238D01*
X188883759Y-46448310D01*
X188738769Y-46660510D01*
X188687760Y-46912400D01*
X188687760Y-48944400D01*
X188732038Y-49179717D01*
X188871110Y-49395841D01*
X189083310Y-49540831D01*
X189335200Y-49591840D01*
X191062400Y-49591840D01*
X191297717Y-49547562D01*
X191513841Y-49408490D01*
X191658831Y-49196290D01*
X191667200Y-49154961D01*
X191679130Y-49172815D01*
X192165311Y-49497671D01*
X192738800Y-49611745D01*
X193312289Y-49497671D01*
X193798470Y-49172815D01*
X194008800Y-48858034D01*
X194219130Y-49172815D01*
X194705311Y-49497671D01*
X195278800Y-49611745D01*
X195852289Y-49497671D01*
X196338470Y-49172815D01*
X196548800Y-48858034D01*
X196759130Y-49172815D01*
X197245311Y-49497671D01*
X197818800Y-49611745D01*
X198392289Y-49497671D01*
X198878470Y-49172815D01*
X199088800Y-48858034D01*
X199299130Y-49172815D01*
X199785311Y-49497671D01*
X200358800Y-49611745D01*
X200932289Y-49497671D01*
X201418470Y-49172815D01*
X201625261Y-48863331D01*
X201996764Y-49279132D01*
X202524009Y-49533109D01*
X202539774Y-49535758D01*
X202771800Y-49414617D01*
X203025800Y-49414617D01*
X203257826Y-49535758D01*
X203273591Y-49533109D01*
X203800836Y-49279132D01*
X204190754Y-48842720D01*
X204383984Y-48290313D01*
X207812729Y-48290313D01*
X207875753Y-48396143D01*
X208847412Y-48789519D01*
X209895647Y-48781113D01*
X210825047Y-48396143D01*
X211045816Y-48025422D01*
X212940147Y-48025422D01*
X212944115Y-50171731D01*
X212519970Y-50171731D01*
X212370329Y-49809571D01*
X212093486Y-49532245D01*
X211731588Y-49381972D01*
X211339731Y-49381630D01*
X210977571Y-49531271D01*
X210977041Y-49531800D01*
X208647334Y-49531800D01*
X208531188Y-49483572D01*
X208139331Y-49483230D01*
X207777171Y-49632871D01*
X207499845Y-49909714D01*
X207349572Y-50271612D01*
X207349230Y-50663469D01*
X207498871Y-51025629D01*
X207775714Y-51302955D01*
X208109924Y-51441731D01*
X203375970Y-51441731D01*
X203226329Y-51079571D01*
X202949486Y-50802245D01*
X202587588Y-50651972D01*
X202195731Y-50651630D01*
X201833571Y-50801271D01*
X201833041Y-50801800D01*
X192932268Y-50801800D01*
X192555127Y-50424659D01*
X192405929Y-50063571D01*
X192129086Y-49786245D01*
X191767188Y-49635972D01*
X191375331Y-49635630D01*
X191013171Y-49785271D01*
X190735845Y-50062114D01*
X190585572Y-50424012D01*
X190585230Y-50815869D01*
X190734871Y-51178029D01*
X191011714Y-51455355D01*
X191101243Y-51492531D01*
X184986370Y-51492531D01*
X184836729Y-51130371D01*
X184559886Y-50853045D01*
X184370454Y-50774386D01*
X181836327Y-48240259D01*
X181687129Y-47879171D01*
X181410286Y-47601845D01*
X181048388Y-47451572D01*
X180656531Y-47451230D01*
X180294371Y-47600871D01*
X180017045Y-47877714D01*
X179866772Y-48239612D01*
X179866430Y-48631469D01*
X180016071Y-48993629D01*
X180292914Y-49270955D01*
X180654812Y-49421228D01*
X180655561Y-49421229D01*
X183016118Y-51781786D01*
X183016030Y-51882669D01*
X183165671Y-52244829D01*
X183442514Y-52522155D01*
X183804412Y-52672428D01*
X184196269Y-52672770D01*
X184558429Y-52523129D01*
X184835755Y-52246286D01*
X184986028Y-51884388D01*
X184986370Y-51492531D01*
X191101243Y-51492531D01*
X191373612Y-51605628D01*
X191374361Y-51605629D01*
X191908994Y-52140262D01*
X191853445Y-52195714D01*
X191703172Y-52557612D01*
X191702830Y-52949469D01*
X191852471Y-53311629D01*
X192129314Y-53588955D01*
X192491212Y-53739228D01*
X192491961Y-53739229D01*
X192757967Y-54005235D01*
X193028859Y-54186239D01*
X193348400Y-54249800D01*
X196660131Y-54249800D01*
X196679000Y-54268668D01*
X196679000Y-56006786D01*
X196529172Y-56367612D01*
X196528830Y-56759469D01*
X196678471Y-57121629D01*
X196955314Y-57398955D01*
X197317212Y-57549228D01*
X197709069Y-57549570D01*
X198071229Y-57399929D01*
X198348555Y-57123086D01*
X198498828Y-56761188D01*
X198499170Y-56369331D01*
X198349529Y-56007171D01*
X198349000Y-56006641D01*
X198349000Y-53922800D01*
X198285439Y-53603259D01*
X198112765Y-53344834D01*
X198104434Y-53332366D01*
X197596435Y-52824366D01*
X197491723Y-52754400D01*
X197325541Y-52643361D01*
X197006000Y-52579800D01*
X193694268Y-52579800D01*
X193672727Y-52558259D01*
X193637003Y-52471800D01*
X201833186Y-52471800D01*
X202194012Y-52621628D01*
X202585869Y-52621970D01*
X202948029Y-52472329D01*
X203225355Y-52195486D01*
X203375628Y-51833588D01*
X203375970Y-51441731D01*
X208109924Y-51441731D01*
X208137612Y-51453228D01*
X208529469Y-51453570D01*
X208891629Y-51303929D01*
X208993936Y-51201800D01*
X210977186Y-51201800D01*
X211338012Y-51351628D01*
X211729869Y-51351970D01*
X212092029Y-51202329D01*
X212369355Y-50925486D01*
X212519628Y-50563588D01*
X212519970Y-50171731D01*
X212944115Y-50171731D01*
X212955831Y-56510174D01*
X209738558Y-56510174D01*
X209735909Y-56494409D01*
X209481932Y-55967164D01*
X209045520Y-55577246D01*
X208493113Y-55384016D01*
X208258200Y-55528276D01*
X208258200Y-56742200D01*
X208004200Y-56742200D01*
X208004200Y-55528276D01*
X207769287Y-55384016D01*
X207216880Y-55577246D01*
X206780468Y-55967164D01*
X206526491Y-56494409D01*
X206523842Y-56510174D01*
X206644983Y-56742200D01*
X208004200Y-56742200D01*
X208258200Y-56742200D01*
X209617417Y-56742200D01*
X209738558Y-56510174D01*
X212955831Y-56510174D01*
X212965885Y-61949200D01*
X209814545Y-61949200D01*
X209700471Y-61375711D01*
X209375615Y-60889530D01*
X209060834Y-60679200D01*
X209375615Y-60468870D01*
X209700471Y-59982689D01*
X209814545Y-59409200D01*
X209700471Y-58835711D01*
X209375615Y-58349530D01*
X209066131Y-58142739D01*
X209481932Y-57771236D01*
X209735909Y-57243991D01*
X209738558Y-57228226D01*
X209617417Y-56996200D01*
X208258200Y-56996200D01*
X208258200Y-57016200D01*
X208004200Y-57016200D01*
X208004200Y-56996200D01*
X206644983Y-56996200D01*
X206523842Y-57228226D01*
X206526491Y-57243991D01*
X206780468Y-57771236D01*
X207196269Y-58142739D01*
X206886785Y-58349530D01*
X206561929Y-58835711D01*
X206447855Y-59409200D01*
X206561929Y-59982689D01*
X206659377Y-60128531D01*
X193215970Y-60128531D01*
X193066329Y-59766371D01*
X193065800Y-59765841D01*
X193065800Y-56970800D01*
X193002239Y-56651259D01*
X192821234Y-56380366D01*
X192707527Y-56266659D01*
X192558329Y-55905571D01*
X192281486Y-55628245D01*
X191919588Y-55477972D01*
X191527731Y-55477630D01*
X191165571Y-55627271D01*
X190888245Y-55904114D01*
X190737972Y-56266012D01*
X190737630Y-56657869D01*
X190887271Y-57020029D01*
X191164114Y-57297355D01*
X191395800Y-57393559D01*
X191395800Y-58909331D01*
X187627970Y-58909331D01*
X187478329Y-58547171D01*
X187201486Y-58269845D01*
X186839588Y-58119572D01*
X186447731Y-58119230D01*
X186085571Y-58268871D01*
X185808245Y-58545714D01*
X185681729Y-58850400D01*
X179690145Y-58850400D01*
X179576071Y-58276911D01*
X179251215Y-57790730D01*
X178936434Y-57580400D01*
X179251215Y-57370070D01*
X179576071Y-56883889D01*
X179690145Y-56310400D01*
X179576071Y-55736911D01*
X179251215Y-55250730D01*
X178936434Y-55040400D01*
X179251215Y-54830070D01*
X179576071Y-54343889D01*
X179690145Y-53770400D01*
X179576071Y-53196911D01*
X179251215Y-52710730D01*
X178765034Y-52385874D01*
X178191545Y-52271800D01*
X177822055Y-52271800D01*
X177248566Y-52385874D01*
X176762385Y-52710730D01*
X176437529Y-53196911D01*
X176323455Y-53770400D01*
X176437529Y-54343889D01*
X176762385Y-54830070D01*
X177077166Y-55040400D01*
X176762385Y-55250730D01*
X176437529Y-55736911D01*
X176323455Y-56310400D01*
X176437529Y-56883889D01*
X176762385Y-57370070D01*
X177077166Y-57580400D01*
X176762385Y-57790730D01*
X176437529Y-58276911D01*
X176323455Y-58850400D01*
X176437529Y-59423889D01*
X176762385Y-59910070D01*
X176776713Y-59919643D01*
X176755483Y-59923638D01*
X176539359Y-60062710D01*
X176394369Y-60274910D01*
X176343360Y-60526800D01*
X176343360Y-62254000D01*
X176387638Y-62489317D01*
X176526710Y-62705441D01*
X176738910Y-62850431D01*
X176990800Y-62901440D01*
X179022800Y-62901440D01*
X179258117Y-62857162D01*
X179474241Y-62718090D01*
X179619231Y-62505890D01*
X179670240Y-62254000D01*
X179670240Y-60526800D01*
X179625962Y-60291483D01*
X179486890Y-60075359D01*
X179274690Y-59930369D01*
X179233361Y-59922000D01*
X179251215Y-59910070D01*
X179576071Y-59423889D01*
X179690145Y-58850400D01*
X185681729Y-58850400D01*
X185657972Y-58907612D01*
X185657971Y-58908361D01*
X181731580Y-62834752D01*
X181716771Y-62840871D01*
X181439445Y-63117714D01*
X181289172Y-63479612D01*
X181288830Y-63871469D01*
X181438471Y-64233629D01*
X181715314Y-64510955D01*
X182077212Y-64661228D01*
X182469069Y-64661570D01*
X182831229Y-64511929D01*
X183108555Y-64235086D01*
X183258828Y-63873188D01*
X183259006Y-63669062D01*
X186838941Y-60089127D01*
X187200029Y-59939929D01*
X187477355Y-59663086D01*
X187627628Y-59301188D01*
X187627970Y-58909331D01*
X191395800Y-58909331D01*
X191395800Y-59765986D01*
X191245972Y-60126812D01*
X191245630Y-60518669D01*
X191395271Y-60880829D01*
X191672114Y-61158155D01*
X192034012Y-61308428D01*
X192425869Y-61308770D01*
X192788029Y-61159129D01*
X193065355Y-60882286D01*
X193215628Y-60520388D01*
X193215970Y-60128531D01*
X206659377Y-60128531D01*
X206886785Y-60468870D01*
X207201566Y-60679200D01*
X206886785Y-60889530D01*
X206561929Y-61375711D01*
X206447855Y-61949200D01*
X206561929Y-62522689D01*
X206886785Y-63008870D01*
X206901113Y-63018443D01*
X206879883Y-63022438D01*
X206663759Y-63161510D01*
X206518769Y-63373710D01*
X206467760Y-63625600D01*
X206467760Y-65352800D01*
X206512038Y-65588117D01*
X206651110Y-65804241D01*
X206863310Y-65949231D01*
X207115200Y-66000240D01*
X209147200Y-66000240D01*
X209382517Y-65955962D01*
X209598641Y-65816890D01*
X209743631Y-65604690D01*
X209794640Y-65352800D01*
X209794640Y-63625600D01*
X209750362Y-63390283D01*
X209611290Y-63174159D01*
X209399090Y-63029169D01*
X209357761Y-63020800D01*
X209375615Y-63008870D01*
X209700471Y-62522689D01*
X209814545Y-61949200D01*
X212965885Y-61949200D01*
X212982365Y-70864600D01*
X203132985Y-70864600D01*
X203932258Y-70534347D01*
X203932258Y-70534347D01*
G37*
X203932258Y-70534347D02*
X204674142Y-69793757D01*
X205076142Y-68825633D01*
X205077057Y-67777366D01*
X204676747Y-66808542D01*
X203936157Y-66066658D01*
X202968033Y-65664658D01*
X201919766Y-65663743D01*
X200950942Y-66064053D01*
X200209058Y-66804643D01*
X200142653Y-66964566D01*
X176425857Y-66964566D01*
X176025547Y-65995742D01*
X175284957Y-65253858D01*
X174316833Y-64851858D01*
X173268566Y-64850943D01*
X172299742Y-65251253D01*
X171557858Y-65991843D01*
X171155858Y-66959967D01*
X171154943Y-68008234D01*
X171555253Y-68977058D01*
X172295843Y-69718942D01*
X173263967Y-70120942D01*
X174312234Y-70121857D01*
X175281058Y-69721547D01*
X176022942Y-68980957D01*
X176424942Y-68012833D01*
X176425857Y-66964566D01*
X200142653Y-66964566D01*
X199807058Y-67772767D01*
X199806143Y-68821034D01*
X200206453Y-69789858D01*
X200947043Y-70531742D01*
X201748654Y-70864600D01*
X170920200Y-70864600D01*
X170920200Y-43635800D01*
X208524831Y-43635800D01*
X207875753Y-43904657D01*
X207654984Y-44275378D01*
X209350400Y-45970795D01*
X211045816Y-44275378D01*
X210825047Y-43904657D01*
X210160956Y-43635800D01*
X212932034Y-43635800D01*
X212937611Y-46653388D01*
X211989519Y-46653388D01*
X211981113Y-45605153D01*
X211596143Y-44675753D01*
X211225422Y-44454984D01*
X209530005Y-46150400D01*
X209170795Y-46150400D01*
X207475378Y-44454984D01*
X207104657Y-44675753D01*
X206711281Y-45647412D01*
X206719687Y-46695647D01*
X207080400Y-47566487D01*
X204383984Y-47566487D01*
X204190754Y-47014080D01*
X203800836Y-46577668D01*
X203273591Y-46323691D01*
X203257826Y-46321042D01*
X203025800Y-46442183D01*
X203025800Y-47801400D01*
X204239724Y-47801400D01*
X204383984Y-47566487D01*
X207080400Y-47566487D01*
X207104657Y-47625047D01*
X207475378Y-47845816D01*
X209170795Y-46150400D01*
X209530005Y-46150400D01*
X211225422Y-47845816D01*
X211596143Y-47625047D01*
X211989519Y-46653388D01*
X212937611Y-46653388D01*
X212940147Y-48025422D01*
X211045816Y-48025422D01*
X209350400Y-46330005D01*
X207654984Y-48025422D01*
X207812729Y-48290313D01*
X204383984Y-48290313D01*
X204239724Y-48055400D01*
X203025800Y-48055400D01*
X203025800Y-49414617D01*
X202771800Y-49414617D01*
X202771800Y-48055400D01*
X202751800Y-48055400D01*
X202751800Y-47801400D01*
X202771800Y-47801400D01*
X202771800Y-46442183D01*
X202539774Y-46321042D01*
X202524009Y-46323691D01*
X201996764Y-46577668D01*
X201625261Y-46993469D01*
X201418470Y-46683985D01*
X200932289Y-46359129D01*
X200358800Y-46245055D01*
X199785311Y-46359129D01*
X199299130Y-46683985D01*
X199088800Y-46998766D01*
X198878470Y-46683985D01*
X198392289Y-46359129D01*
X197818800Y-46245055D01*
X197245311Y-46359129D01*
X196759130Y-46683985D01*
X196548800Y-46998766D01*
X196338470Y-46683985D01*
X195852289Y-46359129D01*
X195278800Y-46245055D01*
X194705311Y-46359129D01*
X194219130Y-46683985D01*
X194008800Y-46998766D01*
X193798470Y-46683985D01*
X193312289Y-46359129D01*
X192738800Y-46245055D01*
X192165311Y-46359129D01*
X191679130Y-46683985D01*
X191669557Y-46698313D01*
X191665562Y-46677083D01*
X191526490Y-46460959D01*
X191314290Y-46315969D01*
X191062400Y-46264960D01*
X189335200Y-46264960D01*
X189099883Y-46309238D01*
X188883759Y-46448310D01*
X188738769Y-46660510D01*
X188687760Y-46912400D01*
X188687760Y-48944400D01*
X188732038Y-49179717D01*
X188871110Y-49395841D01*
X189083310Y-49540831D01*
X189335200Y-49591840D01*
X191062400Y-49591840D01*
X191297717Y-49547562D01*
X191513841Y-49408490D01*
X191658831Y-49196290D01*
X191667200Y-49154961D01*
X191679130Y-49172815D01*
X192165311Y-49497671D01*
X192738800Y-49611745D01*
X193312289Y-49497671D01*
X193798470Y-49172815D01*
X194008800Y-48858034D01*
X194219130Y-49172815D01*
X194705311Y-49497671D01*
X195278800Y-49611745D01*
X195852289Y-49497671D01*
X196338470Y-49172815D01*
X196548800Y-48858034D01*
X196759130Y-49172815D01*
X197245311Y-49497671D01*
X197818800Y-49611745D01*
X198392289Y-49497671D01*
X198878470Y-49172815D01*
X199088800Y-48858034D01*
X199299130Y-49172815D01*
X199785311Y-49497671D01*
X200358800Y-49611745D01*
X200932289Y-49497671D01*
X201418470Y-49172815D01*
X201625261Y-48863331D01*
X201996764Y-49279132D01*
X202524009Y-49533109D01*
X202539774Y-49535758D01*
X202771800Y-49414617D01*
X203025800Y-49414617D01*
X203257826Y-49535758D01*
X203273591Y-49533109D01*
X203800836Y-49279132D01*
X204190754Y-48842720D01*
X204383984Y-48290313D01*
X207812729Y-48290313D01*
X207875753Y-48396143D01*
X208847412Y-48789519D01*
X209895647Y-48781113D01*
X210825047Y-48396143D01*
X211045816Y-48025422D01*
X212940147Y-48025422D01*
X212944115Y-50171731D01*
X212519970Y-50171731D01*
X212370329Y-49809571D01*
X212093486Y-49532245D01*
X211731588Y-49381972D01*
X211339731Y-49381630D01*
X210977571Y-49531271D01*
X210977041Y-49531800D01*
X208647334Y-49531800D01*
X208531188Y-49483572D01*
X208139331Y-49483230D01*
X207777171Y-49632871D01*
X207499845Y-49909714D01*
X207349572Y-50271612D01*
X207349230Y-50663469D01*
X207498871Y-51025629D01*
X207775714Y-51302955D01*
X208109924Y-51441731D01*
X203375970Y-51441731D01*
X203226329Y-51079571D01*
X202949486Y-50802245D01*
X202587588Y-50651972D01*
X202195731Y-50651630D01*
X201833571Y-50801271D01*
X201833041Y-50801800D01*
X192932268Y-50801800D01*
X192555127Y-50424659D01*
X192405929Y-50063571D01*
X192129086Y-49786245D01*
X191767188Y-49635972D01*
X191375331Y-49635630D01*
X191013171Y-49785271D01*
X190735845Y-50062114D01*
X190585572Y-50424012D01*
X190585230Y-50815869D01*
X190734871Y-51178029D01*
X191011714Y-51455355D01*
X191101243Y-51492531D01*
X184986370Y-51492531D01*
X184836729Y-51130371D01*
X184559886Y-50853045D01*
X184370454Y-50774386D01*
X181836327Y-48240259D01*
X181687129Y-47879171D01*
X181410286Y-47601845D01*
X181048388Y-47451572D01*
X180656531Y-47451230D01*
X180294371Y-47600871D01*
X180017045Y-47877714D01*
X179866772Y-48239612D01*
X179866430Y-48631469D01*
X180016071Y-48993629D01*
X180292914Y-49270955D01*
X180654812Y-49421228D01*
X180655561Y-49421229D01*
X183016118Y-51781786D01*
X183016030Y-51882669D01*
X183165671Y-52244829D01*
X183442514Y-52522155D01*
X183804412Y-52672428D01*
X184196269Y-52672770D01*
X184558429Y-52523129D01*
X184835755Y-52246286D01*
X184986028Y-51884388D01*
X184986370Y-51492531D01*
X191101243Y-51492531D01*
X191373612Y-51605628D01*
X191374361Y-51605629D01*
X191908994Y-52140262D01*
X191853445Y-52195714D01*
X191703172Y-52557612D01*
X191702830Y-52949469D01*
X191852471Y-53311629D01*
X192129314Y-53588955D01*
X192491212Y-53739228D01*
X192491961Y-53739229D01*
X192757967Y-54005235D01*
X193028859Y-54186239D01*
X193348400Y-54249800D01*
X196660131Y-54249800D01*
X196679000Y-54268668D01*
X196679000Y-56006786D01*
X196529172Y-56367612D01*
X196528830Y-56759469D01*
X196678471Y-57121629D01*
X196955314Y-57398955D01*
X197317212Y-57549228D01*
X197709069Y-57549570D01*
X198071229Y-57399929D01*
X198348555Y-57123086D01*
X198498828Y-56761188D01*
X198499170Y-56369331D01*
X198349529Y-56007171D01*
X198349000Y-56006641D01*
X198349000Y-53922800D01*
X198285439Y-53603259D01*
X198112765Y-53344834D01*
X198104434Y-53332366D01*
X197596435Y-52824366D01*
X197491723Y-52754400D01*
X197325541Y-52643361D01*
X197006000Y-52579800D01*
X193694268Y-52579800D01*
X193672727Y-52558259D01*
X193637003Y-52471800D01*
X201833186Y-52471800D01*
X202194012Y-52621628D01*
X202585869Y-52621970D01*
X202948029Y-52472329D01*
X203225355Y-52195486D01*
X203375628Y-51833588D01*
X203375970Y-51441731D01*
X208109924Y-51441731D01*
X208137612Y-51453228D01*
X208529469Y-51453570D01*
X208891629Y-51303929D01*
X208993936Y-51201800D01*
X210977186Y-51201800D01*
X211338012Y-51351628D01*
X211729869Y-51351970D01*
X212092029Y-51202329D01*
X212369355Y-50925486D01*
X212519628Y-50563588D01*
X212519970Y-50171731D01*
X212944115Y-50171731D01*
X212955831Y-56510174D01*
X209738558Y-56510174D01*
X209735909Y-56494409D01*
X209481932Y-55967164D01*
X209045520Y-55577246D01*
X208493113Y-55384016D01*
X208258200Y-55528276D01*
X208258200Y-56742200D01*
X208004200Y-56742200D01*
X208004200Y-55528276D01*
X207769287Y-55384016D01*
X207216880Y-55577246D01*
X206780468Y-55967164D01*
X206526491Y-56494409D01*
X206523842Y-56510174D01*
X206644983Y-56742200D01*
X208004200Y-56742200D01*
X208258200Y-56742200D01*
X209617417Y-56742200D01*
X209738558Y-56510174D01*
X212955831Y-56510174D01*
X212965885Y-61949200D01*
X209814545Y-61949200D01*
X209700471Y-61375711D01*
X209375615Y-60889530D01*
X209060834Y-60679200D01*
X209375615Y-60468870D01*
X209700471Y-59982689D01*
X209814545Y-59409200D01*
X209700471Y-58835711D01*
X209375615Y-58349530D01*
X209066131Y-58142739D01*
X209481932Y-57771236D01*
X209735909Y-57243991D01*
X209738558Y-57228226D01*
X209617417Y-56996200D01*
X208258200Y-56996200D01*
X208258200Y-57016200D01*
X208004200Y-57016200D01*
X208004200Y-56996200D01*
X206644983Y-56996200D01*
X206523842Y-57228226D01*
X206526491Y-57243991D01*
X206780468Y-57771236D01*
X207196269Y-58142739D01*
X206886785Y-58349530D01*
X206561929Y-58835711D01*
X206447855Y-59409200D01*
X206561929Y-59982689D01*
X206659377Y-60128531D01*
X193215970Y-60128531D01*
X193066329Y-59766371D01*
X193065800Y-59765841D01*
X193065800Y-56970800D01*
X193002239Y-56651259D01*
X192821234Y-56380366D01*
X192707527Y-56266659D01*
X192558329Y-55905571D01*
X192281486Y-55628245D01*
X191919588Y-55477972D01*
X191527731Y-55477630D01*
X191165571Y-55627271D01*
X190888245Y-55904114D01*
X190737972Y-56266012D01*
X190737630Y-56657869D01*
X190887271Y-57020029D01*
X191164114Y-57297355D01*
X191395800Y-57393559D01*
X191395800Y-58909331D01*
X187627970Y-58909331D01*
X187478329Y-58547171D01*
X187201486Y-58269845D01*
X186839588Y-58119572D01*
X186447731Y-58119230D01*
X186085571Y-58268871D01*
X185808245Y-58545714D01*
X185681729Y-58850400D01*
X179690145Y-58850400D01*
X179576071Y-58276911D01*
X179251215Y-57790730D01*
X178936434Y-57580400D01*
X179251215Y-57370070D01*
X179576071Y-56883889D01*
X179690145Y-56310400D01*
X179576071Y-55736911D01*
X179251215Y-55250730D01*
X178936434Y-55040400D01*
X179251215Y-54830070D01*
X179576071Y-54343889D01*
X179690145Y-53770400D01*
X179576071Y-53196911D01*
X179251215Y-52710730D01*
X178765034Y-52385874D01*
X178191545Y-52271800D01*
X177822055Y-52271800D01*
X177248566Y-52385874D01*
X176762385Y-52710730D01*
X176437529Y-53196911D01*
X176323455Y-53770400D01*
X176437529Y-54343889D01*
X176762385Y-54830070D01*
X177077166Y-55040400D01*
X176762385Y-55250730D01*
X176437529Y-55736911D01*
X176323455Y-56310400D01*
X176437529Y-56883889D01*
X176762385Y-57370070D01*
X177077166Y-57580400D01*
X176762385Y-57790730D01*
X176437529Y-58276911D01*
X176323455Y-58850400D01*
X176437529Y-59423889D01*
X176762385Y-59910070D01*
X176776713Y-59919643D01*
X176755483Y-59923638D01*
X176539359Y-60062710D01*
X176394369Y-60274910D01*
X176343360Y-60526800D01*
X176343360Y-62254000D01*
X176387638Y-62489317D01*
X176526710Y-62705441D01*
X176738910Y-62850431D01*
X176990800Y-62901440D01*
X179022800Y-62901440D01*
X179258117Y-62857162D01*
X179474241Y-62718090D01*
X179619231Y-62505890D01*
X179670240Y-62254000D01*
X179670240Y-60526800D01*
X179625962Y-60291483D01*
X179486890Y-60075359D01*
X179274690Y-59930369D01*
X179233361Y-59922000D01*
X179251215Y-59910070D01*
X179576071Y-59423889D01*
X179690145Y-58850400D01*
X185681729Y-58850400D01*
X185657972Y-58907612D01*
X185657971Y-58908361D01*
X181731580Y-62834752D01*
X181716771Y-62840871D01*
X181439445Y-63117714D01*
X181289172Y-63479612D01*
X181288830Y-63871469D01*
X181438471Y-64233629D01*
X181715314Y-64510955D01*
X182077212Y-64661228D01*
X182469069Y-64661570D01*
X182831229Y-64511929D01*
X183108555Y-64235086D01*
X183258828Y-63873188D01*
X183259006Y-63669062D01*
X186838941Y-60089127D01*
X187200029Y-59939929D01*
X187477355Y-59663086D01*
X187627628Y-59301188D01*
X187627970Y-58909331D01*
X191395800Y-58909331D01*
X191395800Y-59765986D01*
X191245972Y-60126812D01*
X191245630Y-60518669D01*
X191395271Y-60880829D01*
X191672114Y-61158155D01*
X192034012Y-61308428D01*
X192425869Y-61308770D01*
X192788029Y-61159129D01*
X193065355Y-60882286D01*
X193215628Y-60520388D01*
X193215970Y-60128531D01*
X206659377Y-60128531D01*
X206886785Y-60468870D01*
X207201566Y-60679200D01*
X206886785Y-60889530D01*
X206561929Y-61375711D01*
X206447855Y-61949200D01*
X206561929Y-62522689D01*
X206886785Y-63008870D01*
X206901113Y-63018443D01*
X206879883Y-63022438D01*
X206663759Y-63161510D01*
X206518769Y-63373710D01*
X206467760Y-63625600D01*
X206467760Y-65352800D01*
X206512038Y-65588117D01*
X206651110Y-65804241D01*
X206863310Y-65949231D01*
X207115200Y-66000240D01*
X209147200Y-66000240D01*
X209382517Y-65955962D01*
X209598641Y-65816890D01*
X209743631Y-65604690D01*
X209794640Y-65352800D01*
X209794640Y-63625600D01*
X209750362Y-63390283D01*
X209611290Y-63174159D01*
X209399090Y-63029169D01*
X209357761Y-63020800D01*
X209375615Y-63008870D01*
X209700471Y-62522689D01*
X209814545Y-61949200D01*
X212965885Y-61949200D01*
X212982365Y-70864600D01*
X203132985Y-70864600D01*
X203932258Y-70534347D01*
G36*
X203932258Y-70534347D02*
X204674142Y-69793757D01*
X205076142Y-68825633D01*
X205077057Y-67777366D01*
X204676747Y-66808542D01*
X203936157Y-66066658D01*
X202968033Y-65664658D01*
X201919766Y-65663743D01*
X200950942Y-66064053D01*
X200209058Y-66804643D01*
X200142653Y-66964566D01*
X176425857Y-66964566D01*
X176025547Y-65995742D01*
X175284957Y-65253858D01*
X174316833Y-64851858D01*
X173268566Y-64850943D01*
X172299742Y-65251253D01*
X171557858Y-65991843D01*
X171155858Y-66959967D01*
X171154943Y-68008234D01*
X171555253Y-68977058D01*
X172295843Y-69718942D01*
X173263967Y-70120942D01*
X174312234Y-70121857D01*
X175281058Y-69721547D01*
X176022942Y-68980957D01*
X176424942Y-68012833D01*
X176425857Y-66964566D01*
X200142653Y-66964566D01*
X199807058Y-67772767D01*
X199806143Y-68821034D01*
X200206453Y-69789858D01*
X200947043Y-70531742D01*
X201748654Y-70864600D01*
X170920200Y-70864600D01*
X170920200Y-43635800D01*
X208524831Y-43635800D01*
X207875753Y-43904657D01*
X207654984Y-44275378D01*
X209350400Y-45970795D01*
X211045816Y-44275378D01*
X210825047Y-43904657D01*
X210160956Y-43635800D01*
X212932034Y-43635800D01*
X212937611Y-46653388D01*
X211989519Y-46653388D01*
X211981113Y-45605153D01*
X211596143Y-44675753D01*
X211225422Y-44454984D01*
X209530005Y-46150400D01*
X209170795Y-46150400D01*
X207475378Y-44454984D01*
X207104657Y-44675753D01*
X206711281Y-45647412D01*
X206719687Y-46695647D01*
X207080400Y-47566487D01*
X204383984Y-47566487D01*
X204190754Y-47014080D01*
X203800836Y-46577668D01*
X203273591Y-46323691D01*
X203257826Y-46321042D01*
X203025800Y-46442183D01*
X203025800Y-47801400D01*
X204239724Y-47801400D01*
X204383984Y-47566487D01*
X207080400Y-47566487D01*
X207104657Y-47625047D01*
X207475378Y-47845816D01*
X209170795Y-46150400D01*
X209530005Y-46150400D01*
X211225422Y-47845816D01*
X211596143Y-47625047D01*
X211989519Y-46653388D01*
X212937611Y-46653388D01*
X212940147Y-48025422D01*
X211045816Y-48025422D01*
X209350400Y-46330005D01*
X207654984Y-48025422D01*
X207812729Y-48290313D01*
X204383984Y-48290313D01*
X204239724Y-48055400D01*
X203025800Y-48055400D01*
X203025800Y-49414617D01*
X202771800Y-49414617D01*
X202771800Y-48055400D01*
X202751800Y-48055400D01*
X202751800Y-47801400D01*
X202771800Y-47801400D01*
X202771800Y-46442183D01*
X202539774Y-46321042D01*
X202524009Y-46323691D01*
X201996764Y-46577668D01*
X201625261Y-46993469D01*
X201418470Y-46683985D01*
X200932289Y-46359129D01*
X200358800Y-46245055D01*
X199785311Y-46359129D01*
X199299130Y-46683985D01*
X199088800Y-46998766D01*
X198878470Y-46683985D01*
X198392289Y-46359129D01*
X197818800Y-46245055D01*
X197245311Y-46359129D01*
X196759130Y-46683985D01*
X196548800Y-46998766D01*
X196338470Y-46683985D01*
X195852289Y-46359129D01*
X195278800Y-46245055D01*
X194705311Y-46359129D01*
X194219130Y-46683985D01*
X194008800Y-46998766D01*
X193798470Y-46683985D01*
X193312289Y-46359129D01*
X192738800Y-46245055D01*
X192165311Y-46359129D01*
X191679130Y-46683985D01*
X191669557Y-46698313D01*
X191665562Y-46677083D01*
X191526490Y-46460959D01*
X191314290Y-46315969D01*
X191062400Y-46264960D01*
X189335200Y-46264960D01*
X189099883Y-46309238D01*
X188883759Y-46448310D01*
X188738769Y-46660510D01*
X188687760Y-46912400D01*
X188687760Y-48944400D01*
X188732038Y-49179717D01*
X188871110Y-49395841D01*
X189083310Y-49540831D01*
X189335200Y-49591840D01*
X191062400Y-49591840D01*
X191297717Y-49547562D01*
X191513841Y-49408490D01*
X191658831Y-49196290D01*
X191667200Y-49154961D01*
X191679130Y-49172815D01*
X192165311Y-49497671D01*
X192738800Y-49611745D01*
X193312289Y-49497671D01*
X193798470Y-49172815D01*
X194008800Y-48858034D01*
X194219130Y-49172815D01*
X194705311Y-49497671D01*
X195278800Y-49611745D01*
X195852289Y-49497671D01*
X196338470Y-49172815D01*
X196548800Y-48858034D01*
X196759130Y-49172815D01*
X197245311Y-49497671D01*
X197818800Y-49611745D01*
X198392289Y-49497671D01*
X198878470Y-49172815D01*
X199088800Y-48858034D01*
X199299130Y-49172815D01*
X199785311Y-49497671D01*
X200358800Y-49611745D01*
X200932289Y-49497671D01*
X201418470Y-49172815D01*
X201625261Y-48863331D01*
X201996764Y-49279132D01*
X202524009Y-49533109D01*
X202539774Y-49535758D01*
X202771800Y-49414617D01*
X203025800Y-49414617D01*
X203257826Y-49535758D01*
X203273591Y-49533109D01*
X203800836Y-49279132D01*
X204190754Y-48842720D01*
X204383984Y-48290313D01*
X207812729Y-48290313D01*
X207875753Y-48396143D01*
X208847412Y-48789519D01*
X209895647Y-48781113D01*
X210825047Y-48396143D01*
X211045816Y-48025422D01*
X212940147Y-48025422D01*
X212944115Y-50171731D01*
X212519970Y-50171731D01*
X212370329Y-49809571D01*
X212093486Y-49532245D01*
X211731588Y-49381972D01*
X211339731Y-49381630D01*
X210977571Y-49531271D01*
X210977041Y-49531800D01*
X208647334Y-49531800D01*
X208531188Y-49483572D01*
X208139331Y-49483230D01*
X207777171Y-49632871D01*
X207499845Y-49909714D01*
X207349572Y-50271612D01*
X207349230Y-50663469D01*
X207498871Y-51025629D01*
X207775714Y-51302955D01*
X208109924Y-51441731D01*
X203375970Y-51441731D01*
X203226329Y-51079571D01*
X202949486Y-50802245D01*
X202587588Y-50651972D01*
X202195731Y-50651630D01*
X201833571Y-50801271D01*
X201833041Y-50801800D01*
X192932268Y-50801800D01*
X192555127Y-50424659D01*
X192405929Y-50063571D01*
X192129086Y-49786245D01*
X191767188Y-49635972D01*
X191375331Y-49635630D01*
X191013171Y-49785271D01*
X190735845Y-50062114D01*
X190585572Y-50424012D01*
X190585230Y-50815869D01*
X190734871Y-51178029D01*
X191011714Y-51455355D01*
X191101243Y-51492531D01*
X184986370Y-51492531D01*
X184836729Y-51130371D01*
X184559886Y-50853045D01*
X184370454Y-50774386D01*
X181836327Y-48240259D01*
X181687129Y-47879171D01*
X181410286Y-47601845D01*
X181048388Y-47451572D01*
X180656531Y-47451230D01*
X180294371Y-47600871D01*
X180017045Y-47877714D01*
X179866772Y-48239612D01*
X179866430Y-48631469D01*
X180016071Y-48993629D01*
X180292914Y-49270955D01*
X180654812Y-49421228D01*
X180655561Y-49421229D01*
X183016118Y-51781786D01*
X183016030Y-51882669D01*
X183165671Y-52244829D01*
X183442514Y-52522155D01*
X183804412Y-52672428D01*
X184196269Y-52672770D01*
X184558429Y-52523129D01*
X184835755Y-52246286D01*
X184986028Y-51884388D01*
X184986370Y-51492531D01*
X191101243Y-51492531D01*
X191373612Y-51605628D01*
X191374361Y-51605629D01*
X191908994Y-52140262D01*
X191853445Y-52195714D01*
X191703172Y-52557612D01*
X191702830Y-52949469D01*
X191852471Y-53311629D01*
X192129314Y-53588955D01*
X192491212Y-53739228D01*
X192491961Y-53739229D01*
X192757967Y-54005235D01*
X193028859Y-54186239D01*
X193348400Y-54249800D01*
X196660131Y-54249800D01*
X196679000Y-54268668D01*
X196679000Y-56006786D01*
X196529172Y-56367612D01*
X196528830Y-56759469D01*
X196678471Y-57121629D01*
X196955314Y-57398955D01*
X197317212Y-57549228D01*
X197709069Y-57549570D01*
X198071229Y-57399929D01*
X198348555Y-57123086D01*
X198498828Y-56761188D01*
X198499170Y-56369331D01*
X198349529Y-56007171D01*
X198349000Y-56006641D01*
X198349000Y-53922800D01*
X198285439Y-53603259D01*
X198112765Y-53344834D01*
X198104434Y-53332366D01*
X197596435Y-52824366D01*
X197491723Y-52754400D01*
X197325541Y-52643361D01*
X197006000Y-52579800D01*
X193694268Y-52579800D01*
X193672727Y-52558259D01*
X193637003Y-52471800D01*
X201833186Y-52471800D01*
X202194012Y-52621628D01*
X202585869Y-52621970D01*
X202948029Y-52472329D01*
X203225355Y-52195486D01*
X203375628Y-51833588D01*
X203375970Y-51441731D01*
X208109924Y-51441731D01*
X208137612Y-51453228D01*
X208529469Y-51453570D01*
X208891629Y-51303929D01*
X208993936Y-51201800D01*
X210977186Y-51201800D01*
X211338012Y-51351628D01*
X211729869Y-51351970D01*
X212092029Y-51202329D01*
X212369355Y-50925486D01*
X212519628Y-50563588D01*
X212519970Y-50171731D01*
X212944115Y-50171731D01*
X212955831Y-56510174D01*
X209738558Y-56510174D01*
X209735909Y-56494409D01*
X209481932Y-55967164D01*
X209045520Y-55577246D01*
X208493113Y-55384016D01*
X208258200Y-55528276D01*
X208258200Y-56742200D01*
X208004200Y-56742200D01*
X208004200Y-55528276D01*
X207769287Y-55384016D01*
X207216880Y-55577246D01*
X206780468Y-55967164D01*
X206526491Y-56494409D01*
X206523842Y-56510174D01*
X206644983Y-56742200D01*
X208004200Y-56742200D01*
X208258200Y-56742200D01*
X209617417Y-56742200D01*
X209738558Y-56510174D01*
X212955831Y-56510174D01*
X212965885Y-61949200D01*
X209814545Y-61949200D01*
X209700471Y-61375711D01*
X209375615Y-60889530D01*
X209060834Y-60679200D01*
X209375615Y-60468870D01*
X209700471Y-59982689D01*
X209814545Y-59409200D01*
X209700471Y-58835711D01*
X209375615Y-58349530D01*
X209066131Y-58142739D01*
X209481932Y-57771236D01*
X209735909Y-57243991D01*
X209738558Y-57228226D01*
X209617417Y-56996200D01*
X208258200Y-56996200D01*
X208258200Y-57016200D01*
X208004200Y-57016200D01*
X208004200Y-56996200D01*
X206644983Y-56996200D01*
X206523842Y-57228226D01*
X206526491Y-57243991D01*
X206780468Y-57771236D01*
X207196269Y-58142739D01*
X206886785Y-58349530D01*
X206561929Y-58835711D01*
X206447855Y-59409200D01*
X206561929Y-59982689D01*
X206659377Y-60128531D01*
X193215970Y-60128531D01*
X193066329Y-59766371D01*
X193065800Y-59765841D01*
X193065800Y-56970800D01*
X193002239Y-56651259D01*
X192821234Y-56380366D01*
X192707527Y-56266659D01*
X192558329Y-55905571D01*
X192281486Y-55628245D01*
X191919588Y-55477972D01*
X191527731Y-55477630D01*
X191165571Y-55627271D01*
X190888245Y-55904114D01*
X190737972Y-56266012D01*
X190737630Y-56657869D01*
X190887271Y-57020029D01*
X191164114Y-57297355D01*
X191395800Y-57393559D01*
X191395800Y-58909331D01*
X187627970Y-58909331D01*
X187478329Y-58547171D01*
X187201486Y-58269845D01*
X186839588Y-58119572D01*
X186447731Y-58119230D01*
X186085571Y-58268871D01*
X185808245Y-58545714D01*
X185681729Y-58850400D01*
X179690145Y-58850400D01*
X179576071Y-58276911D01*
X179251215Y-57790730D01*
X178936434Y-57580400D01*
X179251215Y-57370070D01*
X179576071Y-56883889D01*
X179690145Y-56310400D01*
X179576071Y-55736911D01*
X179251215Y-55250730D01*
X178936434Y-55040400D01*
X179251215Y-54830070D01*
X179576071Y-54343889D01*
X179690145Y-53770400D01*
X179576071Y-53196911D01*
X179251215Y-52710730D01*
X178765034Y-52385874D01*
X178191545Y-52271800D01*
X177822055Y-52271800D01*
X177248566Y-52385874D01*
X176762385Y-52710730D01*
X176437529Y-53196911D01*
X176323455Y-53770400D01*
X176437529Y-54343889D01*
X176762385Y-54830070D01*
X177077166Y-55040400D01*
X176762385Y-55250730D01*
X176437529Y-55736911D01*
X176323455Y-56310400D01*
X176437529Y-56883889D01*
X176762385Y-57370070D01*
X177077166Y-57580400D01*
X176762385Y-57790730D01*
X176437529Y-58276911D01*
X176323455Y-58850400D01*
X176437529Y-59423889D01*
X176762385Y-59910070D01*
X176776713Y-59919643D01*
X176755483Y-59923638D01*
X176539359Y-60062710D01*
X176394369Y-60274910D01*
X176343360Y-60526800D01*
X176343360Y-62254000D01*
X176387638Y-62489317D01*
X176526710Y-62705441D01*
X176738910Y-62850431D01*
X176990800Y-62901440D01*
X179022800Y-62901440D01*
X179258117Y-62857162D01*
X179474241Y-62718090D01*
X179619231Y-62505890D01*
X179670240Y-62254000D01*
X179670240Y-60526800D01*
X179625962Y-60291483D01*
X179486890Y-60075359D01*
X179274690Y-59930369D01*
X179233361Y-59922000D01*
X179251215Y-59910070D01*
X179576071Y-59423889D01*
X179690145Y-58850400D01*
X185681729Y-58850400D01*
X185657972Y-58907612D01*
X185657971Y-58908361D01*
X181731580Y-62834752D01*
X181716771Y-62840871D01*
X181439445Y-63117714D01*
X181289172Y-63479612D01*
X181288830Y-63871469D01*
X181438471Y-64233629D01*
X181715314Y-64510955D01*
X182077212Y-64661228D01*
X182469069Y-64661570D01*
X182831229Y-64511929D01*
X183108555Y-64235086D01*
X183258828Y-63873188D01*
X183259006Y-63669062D01*
X186838941Y-60089127D01*
X187200029Y-59939929D01*
X187477355Y-59663086D01*
X187627628Y-59301188D01*
X187627970Y-58909331D01*
X191395800Y-58909331D01*
X191395800Y-59765986D01*
X191245972Y-60126812D01*
X191245630Y-60518669D01*
X191395271Y-60880829D01*
X191672114Y-61158155D01*
X192034012Y-61308428D01*
X192425869Y-61308770D01*
X192788029Y-61159129D01*
X193065355Y-60882286D01*
X193215628Y-60520388D01*
X193215970Y-60128531D01*
X206659377Y-60128531D01*
X206886785Y-60468870D01*
X207201566Y-60679200D01*
X206886785Y-60889530D01*
X206561929Y-61375711D01*
X206447855Y-61949200D01*
X206561929Y-62522689D01*
X206886785Y-63008870D01*
X206901113Y-63018443D01*
X206879883Y-63022438D01*
X206663759Y-63161510D01*
X206518769Y-63373710D01*
X206467760Y-63625600D01*
X206467760Y-65352800D01*
X206512038Y-65588117D01*
X206651110Y-65804241D01*
X206863310Y-65949231D01*
X207115200Y-66000240D01*
X209147200Y-66000240D01*
X209382517Y-65955962D01*
X209598641Y-65816890D01*
X209743631Y-65604690D01*
X209794640Y-65352800D01*
X209794640Y-63625600D01*
X209750362Y-63390283D01*
X209611290Y-63174159D01*
X209399090Y-63029169D01*
X209357761Y-63020800D01*
X209375615Y-63008870D01*
X209700471Y-62522689D01*
X209814545Y-61949200D01*
X212965885Y-61949200D01*
X212982365Y-70864600D01*
X203132985Y-70864600D01*
X203932258Y-70534347D01*
X203932258Y-70534347D01*
G37*
X203932258Y-70534347D02*
X204674142Y-69793757D01*
X205076142Y-68825633D01*
X205077057Y-67777366D01*
X204676747Y-66808542D01*
X203936157Y-66066658D01*
X202968033Y-65664658D01*
X201919766Y-65663743D01*
X200950942Y-66064053D01*
X200209058Y-66804643D01*
X200142653Y-66964566D01*
X176425857Y-66964566D01*
X176025547Y-65995742D01*
X175284957Y-65253858D01*
X174316833Y-64851858D01*
X173268566Y-64850943D01*
X172299742Y-65251253D01*
X171557858Y-65991843D01*
X171155858Y-66959967D01*
X171154943Y-68008234D01*
X171555253Y-68977058D01*
X172295843Y-69718942D01*
X173263967Y-70120942D01*
X174312234Y-70121857D01*
X175281058Y-69721547D01*
X176022942Y-68980957D01*
X176424942Y-68012833D01*
X176425857Y-66964566D01*
X200142653Y-66964566D01*
X199807058Y-67772767D01*
X199806143Y-68821034D01*
X200206453Y-69789858D01*
X200947043Y-70531742D01*
X201748654Y-70864600D01*
X170920200Y-70864600D01*
X170920200Y-43635800D01*
X208524831Y-43635800D01*
X207875753Y-43904657D01*
X207654984Y-44275378D01*
X209350400Y-45970795D01*
X211045816Y-44275378D01*
X210825047Y-43904657D01*
X210160956Y-43635800D01*
X212932034Y-43635800D01*
X212937611Y-46653388D01*
X211989519Y-46653388D01*
X211981113Y-45605153D01*
X211596143Y-44675753D01*
X211225422Y-44454984D01*
X209530005Y-46150400D01*
X209170795Y-46150400D01*
X207475378Y-44454984D01*
X207104657Y-44675753D01*
X206711281Y-45647412D01*
X206719687Y-46695647D01*
X207080400Y-47566487D01*
X204383984Y-47566487D01*
X204190754Y-47014080D01*
X203800836Y-46577668D01*
X203273591Y-46323691D01*
X203257826Y-46321042D01*
X203025800Y-46442183D01*
X203025800Y-47801400D01*
X204239724Y-47801400D01*
X204383984Y-47566487D01*
X207080400Y-47566487D01*
X207104657Y-47625047D01*
X207475378Y-47845816D01*
X209170795Y-46150400D01*
X209530005Y-46150400D01*
X211225422Y-47845816D01*
X211596143Y-47625047D01*
X211989519Y-46653388D01*
X212937611Y-46653388D01*
X212940147Y-48025422D01*
X211045816Y-48025422D01*
X209350400Y-46330005D01*
X207654984Y-48025422D01*
X207812729Y-48290313D01*
X204383984Y-48290313D01*
X204239724Y-48055400D01*
X203025800Y-48055400D01*
X203025800Y-49414617D01*
X202771800Y-49414617D01*
X202771800Y-48055400D01*
X202751800Y-48055400D01*
X202751800Y-47801400D01*
X202771800Y-47801400D01*
X202771800Y-46442183D01*
X202539774Y-46321042D01*
X202524009Y-46323691D01*
X201996764Y-46577668D01*
X201625261Y-46993469D01*
X201418470Y-46683985D01*
X200932289Y-46359129D01*
X200358800Y-46245055D01*
X199785311Y-46359129D01*
X199299130Y-46683985D01*
X199088800Y-46998766D01*
X198878470Y-46683985D01*
X198392289Y-46359129D01*
X197818800Y-46245055D01*
X197245311Y-46359129D01*
X196759130Y-46683985D01*
X196548800Y-46998766D01*
X196338470Y-46683985D01*
X195852289Y-46359129D01*
X195278800Y-46245055D01*
X194705311Y-46359129D01*
X194219130Y-46683985D01*
X194008800Y-46998766D01*
X193798470Y-46683985D01*
X193312289Y-46359129D01*
X192738800Y-46245055D01*
X192165311Y-46359129D01*
X191679130Y-46683985D01*
X191669557Y-46698313D01*
X191665562Y-46677083D01*
X191526490Y-46460959D01*
X191314290Y-46315969D01*
X191062400Y-46264960D01*
X189335200Y-46264960D01*
X189099883Y-46309238D01*
X188883759Y-46448310D01*
X188738769Y-46660510D01*
X188687760Y-46912400D01*
X188687760Y-48944400D01*
X188732038Y-49179717D01*
X188871110Y-49395841D01*
X189083310Y-49540831D01*
X189335200Y-49591840D01*
X191062400Y-49591840D01*
X191297717Y-49547562D01*
X191513841Y-49408490D01*
X191658831Y-49196290D01*
X191667200Y-49154961D01*
X191679130Y-49172815D01*
X192165311Y-49497671D01*
X192738800Y-49611745D01*
X193312289Y-49497671D01*
X193798470Y-49172815D01*
X194008800Y-48858034D01*
X194219130Y-49172815D01*
X194705311Y-49497671D01*
X195278800Y-49611745D01*
X195852289Y-49497671D01*
X196338470Y-49172815D01*
X196548800Y-48858034D01*
X196759130Y-49172815D01*
X197245311Y-49497671D01*
X197818800Y-49611745D01*
X198392289Y-49497671D01*
X198878470Y-49172815D01*
X199088800Y-48858034D01*
X199299130Y-49172815D01*
X199785311Y-49497671D01*
X200358800Y-49611745D01*
X200932289Y-49497671D01*
X201418470Y-49172815D01*
X201625261Y-48863331D01*
X201996764Y-49279132D01*
X202524009Y-49533109D01*
X202539774Y-49535758D01*
X202771800Y-49414617D01*
X203025800Y-49414617D01*
X203257826Y-49535758D01*
X203273591Y-49533109D01*
X203800836Y-49279132D01*
X204190754Y-48842720D01*
X204383984Y-48290313D01*
X207812729Y-48290313D01*
X207875753Y-48396143D01*
X208847412Y-48789519D01*
X209895647Y-48781113D01*
X210825047Y-48396143D01*
X211045816Y-48025422D01*
X212940147Y-48025422D01*
X212944115Y-50171731D01*
X212519970Y-50171731D01*
X212370329Y-49809571D01*
X212093486Y-49532245D01*
X211731588Y-49381972D01*
X211339731Y-49381630D01*
X210977571Y-49531271D01*
X210977041Y-49531800D01*
X208647334Y-49531800D01*
X208531188Y-49483572D01*
X208139331Y-49483230D01*
X207777171Y-49632871D01*
X207499845Y-49909714D01*
X207349572Y-50271612D01*
X207349230Y-50663469D01*
X207498871Y-51025629D01*
X207775714Y-51302955D01*
X208109924Y-51441731D01*
X203375970Y-51441731D01*
X203226329Y-51079571D01*
X202949486Y-50802245D01*
X202587588Y-50651972D01*
X202195731Y-50651630D01*
X201833571Y-50801271D01*
X201833041Y-50801800D01*
X192932268Y-50801800D01*
X192555127Y-50424659D01*
X192405929Y-50063571D01*
X192129086Y-49786245D01*
X191767188Y-49635972D01*
X191375331Y-49635630D01*
X191013171Y-49785271D01*
X190735845Y-50062114D01*
X190585572Y-50424012D01*
X190585230Y-50815869D01*
X190734871Y-51178029D01*
X191011714Y-51455355D01*
X191101243Y-51492531D01*
X184986370Y-51492531D01*
X184836729Y-51130371D01*
X184559886Y-50853045D01*
X184370454Y-50774386D01*
X181836327Y-48240259D01*
X181687129Y-47879171D01*
X181410286Y-47601845D01*
X181048388Y-47451572D01*
X180656531Y-47451230D01*
X180294371Y-47600871D01*
X180017045Y-47877714D01*
X179866772Y-48239612D01*
X179866430Y-48631469D01*
X180016071Y-48993629D01*
X180292914Y-49270955D01*
X180654812Y-49421228D01*
X180655561Y-49421229D01*
X183016118Y-51781786D01*
X183016030Y-51882669D01*
X183165671Y-52244829D01*
X183442514Y-52522155D01*
X183804412Y-52672428D01*
X184196269Y-52672770D01*
X184558429Y-52523129D01*
X184835755Y-52246286D01*
X184986028Y-51884388D01*
X184986370Y-51492531D01*
X191101243Y-51492531D01*
X191373612Y-51605628D01*
X191374361Y-51605629D01*
X191908994Y-52140262D01*
X191853445Y-52195714D01*
X191703172Y-52557612D01*
X191702830Y-52949469D01*
X191852471Y-53311629D01*
X192129314Y-53588955D01*
X192491212Y-53739228D01*
X192491961Y-53739229D01*
X192757967Y-54005235D01*
X193028859Y-54186239D01*
X193348400Y-54249800D01*
X196660131Y-54249800D01*
X196679000Y-54268668D01*
X196679000Y-56006786D01*
X196529172Y-56367612D01*
X196528830Y-56759469D01*
X196678471Y-57121629D01*
X196955314Y-57398955D01*
X197317212Y-57549228D01*
X197709069Y-57549570D01*
X198071229Y-57399929D01*
X198348555Y-57123086D01*
X198498828Y-56761188D01*
X198499170Y-56369331D01*
X198349529Y-56007171D01*
X198349000Y-56006641D01*
X198349000Y-53922800D01*
X198285439Y-53603259D01*
X198112765Y-53344834D01*
X198104434Y-53332366D01*
X197596435Y-52824366D01*
X197491723Y-52754400D01*
X197325541Y-52643361D01*
X197006000Y-52579800D01*
X193694268Y-52579800D01*
X193672727Y-52558259D01*
X193637003Y-52471800D01*
X201833186Y-52471800D01*
X202194012Y-52621628D01*
X202585869Y-52621970D01*
X202948029Y-52472329D01*
X203225355Y-52195486D01*
X203375628Y-51833588D01*
X203375970Y-51441731D01*
X208109924Y-51441731D01*
X208137612Y-51453228D01*
X208529469Y-51453570D01*
X208891629Y-51303929D01*
X208993936Y-51201800D01*
X210977186Y-51201800D01*
X211338012Y-51351628D01*
X211729869Y-51351970D01*
X212092029Y-51202329D01*
X212369355Y-50925486D01*
X212519628Y-50563588D01*
X212519970Y-50171731D01*
X212944115Y-50171731D01*
X212955831Y-56510174D01*
X209738558Y-56510174D01*
X209735909Y-56494409D01*
X209481932Y-55967164D01*
X209045520Y-55577246D01*
X208493113Y-55384016D01*
X208258200Y-55528276D01*
X208258200Y-56742200D01*
X208004200Y-56742200D01*
X208004200Y-55528276D01*
X207769287Y-55384016D01*
X207216880Y-55577246D01*
X206780468Y-55967164D01*
X206526491Y-56494409D01*
X206523842Y-56510174D01*
X206644983Y-56742200D01*
X208004200Y-56742200D01*
X208258200Y-56742200D01*
X209617417Y-56742200D01*
X209738558Y-56510174D01*
X212955831Y-56510174D01*
X212965885Y-61949200D01*
X209814545Y-61949200D01*
X209700471Y-61375711D01*
X209375615Y-60889530D01*
X209060834Y-60679200D01*
X209375615Y-60468870D01*
X209700471Y-59982689D01*
X209814545Y-59409200D01*
X209700471Y-58835711D01*
X209375615Y-58349530D01*
X209066131Y-58142739D01*
X209481932Y-57771236D01*
X209735909Y-57243991D01*
X209738558Y-57228226D01*
X209617417Y-56996200D01*
X208258200Y-56996200D01*
X208258200Y-57016200D01*
X208004200Y-57016200D01*
X208004200Y-56996200D01*
X206644983Y-56996200D01*
X206523842Y-57228226D01*
X206526491Y-57243991D01*
X206780468Y-57771236D01*
X207196269Y-58142739D01*
X206886785Y-58349530D01*
X206561929Y-58835711D01*
X206447855Y-59409200D01*
X206561929Y-59982689D01*
X206659377Y-60128531D01*
X193215970Y-60128531D01*
X193066329Y-59766371D01*
X193065800Y-59765841D01*
X193065800Y-56970800D01*
X193002239Y-56651259D01*
X192821234Y-56380366D01*
X192707527Y-56266659D01*
X192558329Y-55905571D01*
X192281486Y-55628245D01*
X191919588Y-55477972D01*
X191527731Y-55477630D01*
X191165571Y-55627271D01*
X190888245Y-55904114D01*
X190737972Y-56266012D01*
X190737630Y-56657869D01*
X190887271Y-57020029D01*
X191164114Y-57297355D01*
X191395800Y-57393559D01*
X191395800Y-58909331D01*
X187627970Y-58909331D01*
X187478329Y-58547171D01*
X187201486Y-58269845D01*
X186839588Y-58119572D01*
X186447731Y-58119230D01*
X186085571Y-58268871D01*
X185808245Y-58545714D01*
X185681729Y-58850400D01*
X179690145Y-58850400D01*
X179576071Y-58276911D01*
X179251215Y-57790730D01*
X178936434Y-57580400D01*
X179251215Y-57370070D01*
X179576071Y-56883889D01*
X179690145Y-56310400D01*
X179576071Y-55736911D01*
X179251215Y-55250730D01*
X178936434Y-55040400D01*
X179251215Y-54830070D01*
X179576071Y-54343889D01*
X179690145Y-53770400D01*
X179576071Y-53196911D01*
X179251215Y-52710730D01*
X178765034Y-52385874D01*
X178191545Y-52271800D01*
X177822055Y-52271800D01*
X177248566Y-52385874D01*
X176762385Y-52710730D01*
X176437529Y-53196911D01*
X176323455Y-53770400D01*
X176437529Y-54343889D01*
X176762385Y-54830070D01*
X177077166Y-55040400D01*
X176762385Y-55250730D01*
X176437529Y-55736911D01*
X176323455Y-56310400D01*
X176437529Y-56883889D01*
X176762385Y-57370070D01*
X177077166Y-57580400D01*
X176762385Y-57790730D01*
X176437529Y-58276911D01*
X176323455Y-58850400D01*
X176437529Y-59423889D01*
X176762385Y-59910070D01*
X176776713Y-59919643D01*
X176755483Y-59923638D01*
X176539359Y-60062710D01*
X176394369Y-60274910D01*
X176343360Y-60526800D01*
X176343360Y-62254000D01*
X176387638Y-62489317D01*
X176526710Y-62705441D01*
X176738910Y-62850431D01*
X176990800Y-62901440D01*
X179022800Y-62901440D01*
X179258117Y-62857162D01*
X179474241Y-62718090D01*
X179619231Y-62505890D01*
X179670240Y-62254000D01*
X179670240Y-60526800D01*
X179625962Y-60291483D01*
X179486890Y-60075359D01*
X179274690Y-59930369D01*
X179233361Y-59922000D01*
X179251215Y-59910070D01*
X179576071Y-59423889D01*
X179690145Y-58850400D01*
X185681729Y-58850400D01*
X185657972Y-58907612D01*
X185657971Y-58908361D01*
X181731580Y-62834752D01*
X181716771Y-62840871D01*
X181439445Y-63117714D01*
X181289172Y-63479612D01*
X181288830Y-63871469D01*
X181438471Y-64233629D01*
X181715314Y-64510955D01*
X182077212Y-64661228D01*
X182469069Y-64661570D01*
X182831229Y-64511929D01*
X183108555Y-64235086D01*
X183258828Y-63873188D01*
X183259006Y-63669062D01*
X186838941Y-60089127D01*
X187200029Y-59939929D01*
X187477355Y-59663086D01*
X187627628Y-59301188D01*
X187627970Y-58909331D01*
X191395800Y-58909331D01*
X191395800Y-59765986D01*
X191245972Y-60126812D01*
X191245630Y-60518669D01*
X191395271Y-60880829D01*
X191672114Y-61158155D01*
X192034012Y-61308428D01*
X192425869Y-61308770D01*
X192788029Y-61159129D01*
X193065355Y-60882286D01*
X193215628Y-60520388D01*
X193215970Y-60128531D01*
X206659377Y-60128531D01*
X206886785Y-60468870D01*
X207201566Y-60679200D01*
X206886785Y-60889530D01*
X206561929Y-61375711D01*
X206447855Y-61949200D01*
X206561929Y-62522689D01*
X206886785Y-63008870D01*
X206901113Y-63018443D01*
X206879883Y-63022438D01*
X206663759Y-63161510D01*
X206518769Y-63373710D01*
X206467760Y-63625600D01*
X206467760Y-65352800D01*
X206512038Y-65588117D01*
X206651110Y-65804241D01*
X206863310Y-65949231D01*
X207115200Y-66000240D01*
X209147200Y-66000240D01*
X209382517Y-65955962D01*
X209598641Y-65816890D01*
X209743631Y-65604690D01*
X209794640Y-65352800D01*
X209794640Y-63625600D01*
X209750362Y-63390283D01*
X209611290Y-63174159D01*
X209399090Y-63029169D01*
X209357761Y-63020800D01*
X209375615Y-63008870D01*
X209700471Y-62522689D01*
X209814545Y-61949200D01*
X212965885Y-61949200D01*
X212982365Y-70864600D01*
X203132985Y-70864600D01*
X203932258Y-70534347D01*
G36*
X119496800Y-43422400D02*
X119496800Y-117170559D01*
X118760353Y-116432826D01*
X117608526Y-115954546D01*
X116361346Y-115953457D01*
X115208685Y-116429727D01*
X114326026Y-117310847D01*
X113847746Y-118462674D01*
X113846657Y-119709854D01*
X114322927Y-120862515D01*
X115204047Y-121745174D01*
X116355874Y-122223454D01*
X117603054Y-122224543D01*
X118755715Y-121748273D01*
X119496800Y-121008480D01*
X119496800Y-122873600D01*
X103930026Y-122873600D01*
X103930026Y-119680358D01*
X103945791Y-119677709D01*
X104473036Y-119423732D01*
X104862954Y-118987320D01*
X105056184Y-118434913D01*
X104911924Y-118200000D01*
X103698000Y-118200000D01*
X103698000Y-117946000D01*
X104911924Y-117946000D01*
X105056184Y-117711087D01*
X104862954Y-117158680D01*
X104473036Y-116722268D01*
X103945791Y-116468291D01*
X103930026Y-116465642D01*
X103698000Y-116586783D01*
X103698000Y-117946000D01*
X103698000Y-118200000D01*
X103698000Y-119559217D01*
X103930026Y-119680358D01*
X103930026Y-122873600D01*
X98491000Y-122873600D01*
X98491000Y-119756345D01*
X99064489Y-119642271D01*
X99550670Y-119317415D01*
X99761000Y-119002634D01*
X99971330Y-119317415D01*
X100457511Y-119642271D01*
X101031000Y-119756345D01*
X101604489Y-119642271D01*
X102090670Y-119317415D01*
X102297461Y-119007931D01*
X102668964Y-119423732D01*
X103196209Y-119677709D01*
X103211974Y-119680358D01*
X103444000Y-119559217D01*
X103444000Y-118200000D01*
X103424000Y-118200000D01*
X103424000Y-117946000D01*
X103444000Y-117946000D01*
X103444000Y-116586783D01*
X103211974Y-116465642D01*
X103196209Y-116468291D01*
X102668964Y-116722268D01*
X102297461Y-117138069D01*
X102090670Y-116828585D01*
X101791000Y-116628352D01*
X101791000Y-98565800D01*
X101733148Y-98274961D01*
X101568401Y-98028399D01*
X100441278Y-96901276D01*
X100441308Y-96866510D01*
X110015019Y-106440221D01*
X109914055Y-106947800D01*
X110028129Y-107521289D01*
X110352985Y-108007470D01*
X110367313Y-108017043D01*
X110346083Y-108021038D01*
X110129959Y-108160110D01*
X109984969Y-108372310D01*
X109933960Y-108624200D01*
X109933960Y-110351400D01*
X109978238Y-110586717D01*
X110117310Y-110802841D01*
X110329510Y-110947831D01*
X110581400Y-110998840D01*
X112613400Y-110998840D01*
X112848717Y-110954562D01*
X113064841Y-110815490D01*
X113209831Y-110603290D01*
X113260840Y-110351400D01*
X113260840Y-108624200D01*
X113216562Y-108388883D01*
X113077490Y-108172759D01*
X112865290Y-108027769D01*
X112823961Y-108019400D01*
X112841815Y-108007470D01*
X113166671Y-107521289D01*
X113280745Y-106947800D01*
X113166671Y-106374311D01*
X112841815Y-105888130D01*
X112527034Y-105677800D01*
X112841815Y-105467470D01*
X113166671Y-104981289D01*
X113280745Y-104407800D01*
X113166671Y-103834311D01*
X112841815Y-103348130D01*
X112532331Y-103141339D01*
X112948132Y-102769836D01*
X113202109Y-102242591D01*
X113204758Y-102226826D01*
X113083617Y-101994800D01*
X111724400Y-101994800D01*
X111724400Y-101740800D01*
X113083617Y-101740800D01*
X113204758Y-101508774D01*
X113202109Y-101493009D01*
X112948132Y-100965764D01*
X112511720Y-100575846D01*
X111959313Y-100382616D01*
X111724400Y-100526876D01*
X111724400Y-101740800D01*
X111724400Y-101994800D01*
X111724400Y-102014800D01*
X111470400Y-102014800D01*
X111470400Y-101994800D01*
X111450400Y-101994800D01*
X111450400Y-101740800D01*
X111470400Y-101740800D01*
X111470400Y-100526876D01*
X111235487Y-100382616D01*
X110683080Y-100575846D01*
X110246668Y-100965764D01*
X109992691Y-101493009D01*
X109990042Y-101508774D01*
X110111182Y-101740798D01*
X110005200Y-101740798D01*
X103069002Y-94804600D01*
X106050198Y-94804600D01*
X108377122Y-97131524D01*
X108377030Y-97236869D01*
X108526671Y-97599029D01*
X108803514Y-97876355D01*
X109165412Y-98026628D01*
X109557269Y-98026970D01*
X109919429Y-97877329D01*
X110196755Y-97600486D01*
X110347028Y-97238588D01*
X110347370Y-96846731D01*
X110197729Y-96484571D01*
X109920886Y-96207245D01*
X109558988Y-96056972D01*
X109452081Y-96056879D01*
X107387002Y-93991800D01*
X108336198Y-93991800D01*
X108529522Y-94185124D01*
X108529430Y-94290469D01*
X108679071Y-94652629D01*
X108955914Y-94929955D01*
X109317812Y-95080228D01*
X109709669Y-95080570D01*
X110071829Y-94930929D01*
X110349155Y-94654086D01*
X110499428Y-94292188D01*
X110499770Y-93900331D01*
X110350129Y-93538171D01*
X110073286Y-93260845D01*
X109711388Y-93110572D01*
X109604481Y-93110479D01*
X109188401Y-92694399D01*
X108941839Y-92529652D01*
X108651000Y-92471800D01*
X106619000Y-92471800D01*
X106619000Y-89644001D01*
X107015077Y-89565215D01*
X107277306Y-89390000D01*
X113172195Y-89390000D01*
X113172200Y-89390001D01*
X113568277Y-89311215D01*
X113904056Y-89086856D01*
X118171253Y-84819658D01*
X118171256Y-84819656D01*
X118274929Y-84664497D01*
X118395615Y-84483877D01*
X118474401Y-84087800D01*
X118474400Y-84087795D01*
X118474400Y-69051000D01*
X118395615Y-68654923D01*
X118171256Y-68319144D01*
X117835477Y-68094785D01*
X117439400Y-68016000D01*
X117242612Y-68055144D01*
X117043322Y-68094785D01*
X116880714Y-68203436D01*
X116707544Y-68319144D01*
X116707542Y-68319147D01*
X116655089Y-68371600D01*
X109137250Y-68371600D01*
X109027078Y-68297985D01*
X108631000Y-68219200D01*
X108346200Y-68219200D01*
X107950123Y-68297985D01*
X107614344Y-68522344D01*
X107389985Y-68858123D01*
X107311200Y-69254200D01*
X107389985Y-69650277D01*
X107491488Y-69802187D01*
X107491585Y-69802677D01*
X107715944Y-70138456D01*
X108051723Y-70362815D01*
X108447800Y-70441600D01*
X116404400Y-70441600D01*
X116404400Y-83659089D01*
X112743488Y-87320000D01*
X106873005Y-87320000D01*
X106873000Y-87319999D01*
X106476922Y-87398785D01*
X106342429Y-87488651D01*
X106141144Y-87623144D01*
X106141142Y-87623147D01*
X105887144Y-87877144D01*
X105662785Y-88212923D01*
X105583999Y-88609000D01*
X105662785Y-89005077D01*
X105887144Y-89340856D01*
X106222923Y-89565215D01*
X106619000Y-89644001D01*
X106619000Y-92471800D01*
X96970426Y-92471800D01*
X96970426Y-76449558D01*
X96986191Y-76446909D01*
X97513436Y-76192932D01*
X97903354Y-75756520D01*
X98096584Y-75204113D01*
X97952324Y-74969200D01*
X96738400Y-74969200D01*
X96738400Y-74715200D01*
X97952324Y-74715200D01*
X98096584Y-74480287D01*
X97903354Y-73927880D01*
X97513436Y-73491468D01*
X96986191Y-73237491D01*
X96970426Y-73234842D01*
X96738400Y-73355983D01*
X96738400Y-74715200D01*
X96738400Y-74969200D01*
X96738400Y-76328417D01*
X96970426Y-76449558D01*
X96970426Y-92471800D01*
X95697000Y-92471800D01*
X95406161Y-92529652D01*
X95406160Y-92529652D01*
X95159599Y-92694399D01*
X94831400Y-93022598D01*
X94831400Y-76286848D01*
X95131070Y-76086615D01*
X95337861Y-75777131D01*
X95709364Y-76192932D01*
X96236609Y-76446909D01*
X96252374Y-76449558D01*
X96484400Y-76328417D01*
X96484400Y-74969200D01*
X96464400Y-74969200D01*
X96464400Y-74715200D01*
X96484400Y-74715200D01*
X96484400Y-73355983D01*
X96252374Y-73234842D01*
X96236609Y-73237491D01*
X95709364Y-73491468D01*
X95337861Y-73907269D01*
X95131070Y-73597785D01*
X94644889Y-73272929D01*
X94071400Y-73158855D01*
X93497911Y-73272929D01*
X93011730Y-73597785D01*
X92801400Y-73912566D01*
X92591070Y-73597785D01*
X92104889Y-73272929D01*
X91531400Y-73158855D01*
X90957911Y-73272929D01*
X90471730Y-73597785D01*
X90261400Y-73912566D01*
X90051070Y-73597785D01*
X89564889Y-73272929D01*
X88991400Y-73158855D01*
X88417911Y-73272929D01*
X87931730Y-73597785D01*
X87721400Y-73912566D01*
X87511070Y-73597785D01*
X87024889Y-73272929D01*
X86451400Y-73158855D01*
X85877911Y-73272929D01*
X85391730Y-73597785D01*
X85382157Y-73612113D01*
X85378162Y-73590883D01*
X85239090Y-73374759D01*
X85026890Y-73229769D01*
X84775000Y-73178760D01*
X83047800Y-73178760D01*
X82812483Y-73223038D01*
X82596359Y-73362110D01*
X82451369Y-73574310D01*
X82400360Y-73826200D01*
X82400360Y-75858200D01*
X82444638Y-76093517D01*
X82583710Y-76309641D01*
X82795910Y-76454631D01*
X83047800Y-76505640D01*
X84775000Y-76505640D01*
X85010317Y-76461362D01*
X85226441Y-76322290D01*
X85371431Y-76110090D01*
X85379800Y-76068761D01*
X85391730Y-76086615D01*
X85877911Y-76411471D01*
X86451400Y-76525545D01*
X86958979Y-76424581D01*
X90568200Y-80033802D01*
X90568200Y-91582689D01*
X90493645Y-91657114D01*
X90343372Y-92019012D01*
X90343030Y-92410869D01*
X90492671Y-92773029D01*
X90769514Y-93050355D01*
X91131412Y-93200628D01*
X91407684Y-93200869D01*
X91419071Y-93228429D01*
X91695914Y-93505755D01*
X92057812Y-93656028D01*
X92317410Y-93656255D01*
X92372271Y-93789029D01*
X92649114Y-94066355D01*
X93011012Y-94216628D01*
X93038090Y-94216652D01*
X93134271Y-94449429D01*
X93269302Y-94584696D01*
X89794198Y-98059800D01*
X89407802Y-98059800D01*
X88011539Y-96663537D01*
X88024629Y-96658129D01*
X88301955Y-96381286D01*
X88452228Y-96019388D01*
X88452570Y-95627531D01*
X88302929Y-95265371D01*
X88227400Y-95189710D01*
X88227400Y-94908200D01*
X88169548Y-94617361D01*
X88004801Y-94370799D01*
X85810878Y-92176876D01*
X85810970Y-92071531D01*
X85661329Y-91709371D01*
X85384486Y-91432045D01*
X85022588Y-91281772D01*
X84630731Y-91281430D01*
X84268571Y-91431071D01*
X83991245Y-91707914D01*
X83840972Y-92069812D01*
X83840630Y-92461669D01*
X83862429Y-92514427D01*
X81197601Y-89849599D01*
X80951039Y-89684852D01*
X80689316Y-89632792D01*
X80507686Y-89450845D01*
X80145788Y-89300572D01*
X79753931Y-89300230D01*
X79743800Y-89304416D01*
X79743800Y-85076511D01*
X79777984Y-85042386D01*
X86228322Y-91492724D01*
X86228230Y-91598069D01*
X86377871Y-91960229D01*
X86654714Y-92237555D01*
X87016612Y-92387828D01*
X87408469Y-92388170D01*
X87770629Y-92238529D01*
X88047955Y-91961686D01*
X88198228Y-91599788D01*
X88198570Y-91207931D01*
X88048929Y-90845771D01*
X87772086Y-90568445D01*
X87410188Y-90418172D01*
X87303281Y-90418079D01*
X80906069Y-84020867D01*
X80906069Y-79942170D01*
X81268229Y-79792529D01*
X81545555Y-79515686D01*
X81695828Y-79153788D01*
X81696058Y-78890265D01*
X81725429Y-78878129D01*
X82002755Y-78601286D01*
X82153028Y-78239388D01*
X82153370Y-77847531D01*
X82003729Y-77485371D01*
X81928200Y-77409710D01*
X81928200Y-62707002D01*
X88473665Y-69252467D01*
X88637757Y-69649600D01*
X89041077Y-70053624D01*
X89568309Y-70272550D01*
X90139187Y-70273048D01*
X90666800Y-70055043D01*
X91070824Y-69651723D01*
X91124862Y-69521585D01*
X91177757Y-69649600D01*
X91581077Y-70053624D01*
X92108309Y-70272550D01*
X92679187Y-70273048D01*
X93206800Y-70055043D01*
X93610824Y-69651723D01*
X93664862Y-69521585D01*
X93717757Y-69649600D01*
X94121077Y-70053624D01*
X94175000Y-70076015D01*
X94175000Y-70117800D01*
X94232852Y-70408639D01*
X94397599Y-70655201D01*
X96175599Y-72433201D01*
X96422161Y-72597948D01*
X96713000Y-72655800D01*
X102707400Y-72655800D01*
X102998239Y-72597948D01*
X103244801Y-72433201D01*
X105276801Y-70401201D01*
X105441548Y-70154639D01*
X105499400Y-69863800D01*
X105499400Y-46953000D01*
X105441548Y-46662161D01*
X105276801Y-46415599D01*
X103397201Y-44535999D01*
X103150639Y-44371252D01*
X102859800Y-44313400D01*
X66385400Y-44313400D01*
X66094561Y-44371252D01*
X65847999Y-44535999D01*
X65683252Y-44782561D01*
X65625400Y-45073400D01*
X65625400Y-62955000D01*
X65683252Y-63245839D01*
X65847999Y-63492401D01*
X69210322Y-66854724D01*
X69210230Y-66960069D01*
X69359871Y-67322229D01*
X69636714Y-67599555D01*
X69998612Y-67749828D01*
X70390469Y-67750170D01*
X70752629Y-67600529D01*
X71029955Y-67323686D01*
X71180228Y-66961788D01*
X71180570Y-66569931D01*
X71030929Y-66207771D01*
X70754086Y-65930445D01*
X70392188Y-65780172D01*
X70285281Y-65780079D01*
X69421110Y-64915908D01*
X69685829Y-64806529D01*
X69963155Y-64529686D01*
X70113428Y-64167788D01*
X70113770Y-63775931D01*
X69964129Y-63413771D01*
X69687286Y-63136445D01*
X69325388Y-62986172D01*
X69218481Y-62986079D01*
X67958200Y-61725798D01*
X67958200Y-48791802D01*
X69595802Y-47154200D01*
X71497006Y-47154200D01*
X71240445Y-47410314D01*
X71090172Y-47772212D01*
X71090079Y-47879119D01*
X69149999Y-49819199D01*
X68985252Y-50065761D01*
X68927400Y-50356600D01*
X68927400Y-59477089D01*
X68852845Y-59551514D01*
X68702572Y-59913412D01*
X68702230Y-60305269D01*
X68851871Y-60667429D01*
X69128714Y-60944755D01*
X69490612Y-61095028D01*
X69882469Y-61095370D01*
X70244629Y-60945729D01*
X70521955Y-60668886D01*
X70672228Y-60306988D01*
X70672570Y-59915131D01*
X70522929Y-59552971D01*
X70447400Y-59477310D01*
X70447400Y-50671402D01*
X72164724Y-48954078D01*
X72270069Y-48954170D01*
X72632229Y-48804529D01*
X72909555Y-48527686D01*
X73059828Y-48165788D01*
X73060170Y-47773931D01*
X72910529Y-47411771D01*
X72653407Y-47154200D01*
X101122598Y-47154200D01*
X102607800Y-48639402D01*
X102607800Y-68939398D01*
X101732198Y-69815000D01*
X99527002Y-69815000D01*
X98888256Y-69176254D01*
X98909750Y-69124491D01*
X98910248Y-68553613D01*
X98692243Y-68026000D01*
X98288923Y-67621976D01*
X97761691Y-67403050D01*
X97190813Y-67402552D01*
X96663200Y-67620557D01*
X96259176Y-68023877D01*
X96205138Y-68154015D01*
X96152243Y-68026000D01*
X95748923Y-67621976D01*
X95221691Y-67403050D01*
X94650813Y-67402552D01*
X94123200Y-67620557D01*
X93719176Y-68023877D01*
X93665138Y-68154015D01*
X93612243Y-68026000D01*
X93208923Y-67621976D01*
X92681691Y-67403050D01*
X92110813Y-67402552D01*
X92056851Y-67424849D01*
X90139187Y-65507185D01*
X90139187Y-62673048D01*
X90666800Y-62455043D01*
X91070824Y-62051723D01*
X91124862Y-61921585D01*
X91177757Y-62049600D01*
X91581077Y-62453624D01*
X92108309Y-62672550D01*
X92679187Y-62673048D01*
X93206800Y-62455043D01*
X93610824Y-62051723D01*
X93664862Y-61921585D01*
X93717757Y-62049600D01*
X94121077Y-62453624D01*
X94648309Y-62672550D01*
X95219187Y-62673048D01*
X95746800Y-62455043D01*
X96150824Y-62051723D01*
X96204862Y-61921585D01*
X96257757Y-62049600D01*
X96661077Y-62453624D01*
X97188309Y-62672550D01*
X97759187Y-62673048D01*
X98286800Y-62455043D01*
X98690824Y-62051723D01*
X98909750Y-61524491D01*
X98910248Y-60953613D01*
X98692243Y-60426000D01*
X98288923Y-60021976D01*
X97761691Y-59803050D01*
X97190813Y-59802552D01*
X96663200Y-60020557D01*
X96259176Y-60423877D01*
X96205138Y-60554015D01*
X96152243Y-60426000D01*
X95748923Y-60021976D01*
X95221691Y-59803050D01*
X94650813Y-59802552D01*
X94123200Y-60020557D01*
X93719176Y-60423877D01*
X93665138Y-60554015D01*
X93612243Y-60426000D01*
X93219054Y-60032125D01*
X93219054Y-53542943D01*
X94371715Y-53066673D01*
X95254374Y-52185553D01*
X95732654Y-51033726D01*
X95733743Y-49786546D01*
X95257473Y-48633885D01*
X94376353Y-47751226D01*
X93224526Y-47272946D01*
X91977346Y-47271857D01*
X90824685Y-47748127D01*
X89942026Y-48629247D01*
X89463746Y-49781074D01*
X89462657Y-51028254D01*
X89938927Y-52180915D01*
X90820047Y-53063574D01*
X91971874Y-53541854D01*
X93219054Y-53542943D01*
X93219054Y-60032125D01*
X93208923Y-60021976D01*
X92681691Y-59803050D01*
X92110813Y-59802552D01*
X91583200Y-60020557D01*
X91179176Y-60423877D01*
X91125138Y-60554015D01*
X91072243Y-60426000D01*
X90668923Y-60021976D01*
X90141691Y-59803050D01*
X89570813Y-59802552D01*
X89043200Y-60020557D01*
X88639176Y-60423877D01*
X88420250Y-60951109D01*
X88419752Y-61521987D01*
X88637757Y-62049600D01*
X89041077Y-62453624D01*
X89568309Y-62672550D01*
X90139187Y-62673048D01*
X90139187Y-65507185D01*
X82325201Y-57693199D01*
X82078639Y-57528452D01*
X81787800Y-57470600D01*
X76619711Y-57470600D01*
X76545286Y-57396045D01*
X76183388Y-57245772D01*
X75791531Y-57245430D01*
X75429371Y-57395071D01*
X75152045Y-57671914D01*
X75001772Y-58033812D01*
X75001643Y-58181800D01*
X73507402Y-58181800D01*
X72501278Y-57175676D01*
X72501370Y-57070331D01*
X72351729Y-56708171D01*
X72074886Y-56430845D01*
X71712988Y-56280572D01*
X71321131Y-56280230D01*
X70958971Y-56429871D01*
X70681645Y-56706714D01*
X70531372Y-57068612D01*
X70531030Y-57460469D01*
X70680671Y-57822629D01*
X70957514Y-58099955D01*
X71319412Y-58250228D01*
X71426319Y-58250321D01*
X72655199Y-59479201D01*
X72901761Y-59643948D01*
X73192600Y-59701800D01*
X78922998Y-59701800D01*
X79303261Y-60082063D01*
X79290171Y-60087471D01*
X79012845Y-60364314D01*
X78945705Y-60526004D01*
X78875788Y-60496972D01*
X78483931Y-60496630D01*
X78121771Y-60646271D01*
X77844445Y-60923114D01*
X77694172Y-61285012D01*
X77693830Y-61676869D01*
X77843471Y-62039029D01*
X78120314Y-62316355D01*
X78482212Y-62466628D01*
X78589119Y-62466721D01*
X79443000Y-63320602D01*
X79443000Y-78449000D01*
X79500852Y-78739839D01*
X79664170Y-78984262D01*
X79665599Y-78986401D01*
X79725922Y-79046724D01*
X79725830Y-79152069D01*
X79875471Y-79514229D01*
X80152314Y-79791555D01*
X80514212Y-79941828D01*
X80906069Y-79942170D01*
X80906069Y-84020867D01*
X79521201Y-82635999D01*
X79274639Y-82471252D01*
X78983800Y-82413400D01*
X77561400Y-82413400D01*
X77270561Y-82471252D01*
X77270560Y-82471252D01*
X77023999Y-82635999D01*
X74483999Y-85175999D01*
X74319252Y-85422561D01*
X74261400Y-85713400D01*
X74261400Y-92751089D01*
X74186845Y-92825514D01*
X74036572Y-93187412D01*
X74036230Y-93579269D01*
X74185871Y-93941429D01*
X74462714Y-94218755D01*
X74824612Y-94369028D01*
X75216469Y-94369370D01*
X75578629Y-94219729D01*
X75855955Y-93942886D01*
X76006228Y-93580988D01*
X76006570Y-93189131D01*
X75856929Y-92826971D01*
X75781400Y-92751310D01*
X75781400Y-86028202D01*
X77876202Y-83933400D01*
X78129029Y-83933400D01*
X77998972Y-84246612D01*
X77998630Y-84638469D01*
X78148271Y-85000629D01*
X78223800Y-85076290D01*
X78223800Y-95365400D01*
X78281652Y-95656239D01*
X78446399Y-95902801D01*
X80233922Y-97690324D01*
X80233830Y-97795669D01*
X80383471Y-98157829D01*
X80660314Y-98435155D01*
X81022212Y-98585428D01*
X81414069Y-98585770D01*
X81776229Y-98436129D01*
X82053555Y-98159286D01*
X82203828Y-97797388D01*
X82204170Y-97405531D01*
X82054529Y-97043371D01*
X81777686Y-96766045D01*
X81415788Y-96615772D01*
X81308881Y-96615679D01*
X79743800Y-95050598D01*
X79743800Y-92184283D01*
X79949114Y-92389955D01*
X80311012Y-92540228D01*
X80417919Y-92540321D01*
X88504799Y-100627201D01*
X88751361Y-100791948D01*
X89042200Y-100849800D01*
X90476089Y-100849800D01*
X85768688Y-105557200D01*
X84481344Y-105557200D01*
X84603428Y-105263188D01*
X84603521Y-105156281D01*
X86382900Y-103376902D01*
X86665029Y-103260329D01*
X86942355Y-102983486D01*
X87092628Y-102621588D01*
X87092970Y-102229731D01*
X86943329Y-101867571D01*
X86666486Y-101590245D01*
X86304588Y-101439972D01*
X85912731Y-101439630D01*
X85550571Y-101589271D01*
X85273245Y-101866114D01*
X85122972Y-102228012D01*
X85122746Y-102487452D01*
X83528876Y-104081322D01*
X83423531Y-104081230D01*
X83061371Y-104230871D01*
X82784045Y-104507714D01*
X82633772Y-104869612D01*
X82633430Y-105261469D01*
X82755623Y-105557200D01*
X81422200Y-105557200D01*
X81026123Y-105635985D01*
X80690344Y-105860344D01*
X80465985Y-106196123D01*
X80387200Y-106592200D01*
X80465985Y-106988277D01*
X80690344Y-107324056D01*
X81026123Y-107548415D01*
X81422200Y-107627200D01*
X86197395Y-107627200D01*
X86197400Y-107627201D01*
X86593477Y-107548415D01*
X86929256Y-107324056D01*
X94346055Y-99907256D01*
X94570415Y-99571477D01*
X94649201Y-99175400D01*
X94570415Y-98779323D01*
X94346055Y-98443545D01*
X94010277Y-98219185D01*
X93614200Y-98140399D01*
X93521080Y-98158922D01*
X96212996Y-95467006D01*
X96083772Y-95778212D01*
X96083430Y-96170069D01*
X96233071Y-96532229D01*
X96509914Y-96809555D01*
X96871812Y-96959828D01*
X97263669Y-96960170D01*
X97506026Y-96860030D01*
X97505830Y-97084469D01*
X97655471Y-97446629D01*
X97731000Y-97522290D01*
X97731000Y-116628352D01*
X97431330Y-116828585D01*
X97421757Y-116842913D01*
X97417762Y-116821683D01*
X97278690Y-116605559D01*
X97066490Y-116460569D01*
X96814600Y-116409560D01*
X95087400Y-116409560D01*
X94852083Y-116453838D01*
X94635959Y-116592910D01*
X94490969Y-116805110D01*
X94439960Y-117057000D01*
X94439960Y-119089000D01*
X94484238Y-119324317D01*
X94623310Y-119540441D01*
X94835510Y-119685431D01*
X95087400Y-119736440D01*
X96814600Y-119736440D01*
X97049917Y-119692162D01*
X97266041Y-119553090D01*
X97411031Y-119340890D01*
X97419400Y-119299561D01*
X97431330Y-119317415D01*
X97917511Y-119642271D01*
X98491000Y-119756345D01*
X98491000Y-122873600D01*
X84034874Y-122873600D01*
X84034874Y-121126119D01*
X84445763Y-120924368D01*
X84733002Y-120583678D01*
X84868000Y-120159000D01*
X84868000Y-119884000D01*
X83860000Y-119884000D01*
X83860000Y-119630000D01*
X84868000Y-119630000D01*
X84868000Y-119355000D01*
X84733002Y-118930322D01*
X84445763Y-118589632D01*
X84034874Y-118387881D01*
X83860000Y-118514046D01*
X83860000Y-119630000D01*
X83860000Y-119884000D01*
X83860000Y-120999954D01*
X84034874Y-121126119D01*
X84034874Y-122873600D01*
X83431126Y-122873600D01*
X83431126Y-121126119D01*
X83606000Y-120999954D01*
X83606000Y-119884000D01*
X82598000Y-119884000D01*
X82598000Y-119630000D01*
X83606000Y-119630000D01*
X83606000Y-118514046D01*
X83431126Y-118387881D01*
X83034131Y-118582809D01*
X83034131Y-118158229D01*
X83444049Y-118016568D01*
X83768552Y-117728821D01*
X83952268Y-117354938D01*
X83825734Y-117184000D01*
X82860000Y-117184000D01*
X82860000Y-116930000D01*
X83825734Y-116930000D01*
X83952268Y-116759062D01*
X83768552Y-116385179D01*
X83444049Y-116097432D01*
X83034131Y-115955771D01*
X82860000Y-116104437D01*
X82860000Y-116930000D01*
X82860000Y-117184000D01*
X82860000Y-118009563D01*
X83034131Y-118158229D01*
X83034131Y-118582809D01*
X83020237Y-118589632D01*
X82732998Y-118930322D01*
X82598000Y-119355000D01*
X82598000Y-119630000D01*
X82598000Y-119884000D01*
X82598000Y-120159000D01*
X82732998Y-120583678D01*
X83020237Y-120924368D01*
X83431126Y-121126119D01*
X83431126Y-122873600D01*
X82431869Y-122873600D01*
X82431869Y-118158229D01*
X82606000Y-118009563D01*
X82606000Y-117184000D01*
X81640266Y-117184000D01*
X81640266Y-116930000D01*
X82606000Y-116930000D01*
X82606000Y-116104437D01*
X82431869Y-115955771D01*
X82352598Y-115983165D01*
X82352598Y-111589601D01*
X82352603Y-111589600D01*
X88483400Y-111589600D01*
X88879477Y-111510815D01*
X89215256Y-111286456D01*
X89439615Y-110950677D01*
X89518400Y-110554600D01*
X89439615Y-110158523D01*
X89215256Y-109822744D01*
X88879477Y-109598385D01*
X88483400Y-109519600D01*
X82781310Y-109519600D01*
X80122056Y-106860347D01*
X79786278Y-106635987D01*
X79390200Y-106557202D01*
X78994123Y-106635987D01*
X78658345Y-106860347D01*
X78433985Y-107196125D01*
X78355200Y-107592202D01*
X78433985Y-107988280D01*
X78658345Y-108324058D01*
X81620742Y-111286456D01*
X81956521Y-111510815D01*
X82352598Y-111589601D01*
X82352598Y-115983165D01*
X82021951Y-116097432D01*
X81697448Y-116385179D01*
X81513732Y-116759062D01*
X81640266Y-116930000D01*
X81640266Y-117184000D01*
X81513732Y-117354938D01*
X81697448Y-117728821D01*
X82021951Y-118016568D01*
X82431869Y-118158229D01*
X82431869Y-122873600D01*
X78034131Y-122873600D01*
X78034131Y-118158229D01*
X78444049Y-118016568D01*
X78768552Y-117728821D01*
X78952268Y-117354938D01*
X78825734Y-117184000D01*
X77860000Y-117184000D01*
X77860000Y-116930000D01*
X78825734Y-116930000D01*
X78952268Y-116759062D01*
X78768552Y-116385179D01*
X78444049Y-116097432D01*
X78034131Y-115955771D01*
X77860000Y-116104437D01*
X77860000Y-116930000D01*
X77860000Y-117184000D01*
X77860000Y-118009563D01*
X78034131Y-118158229D01*
X78034131Y-122873600D01*
X77034874Y-122873600D01*
X77034874Y-121126119D01*
X77445763Y-120924368D01*
X77733002Y-120583678D01*
X77868000Y-120159000D01*
X77868000Y-119884000D01*
X76860000Y-119884000D01*
X76860000Y-119630000D01*
X77868000Y-119630000D01*
X77868000Y-119355000D01*
X77733002Y-118930322D01*
X77445763Y-118589632D01*
X77431869Y-118582810D01*
X77431869Y-118158229D01*
X77606000Y-118009563D01*
X77606000Y-117184000D01*
X76640266Y-117184000D01*
X76640266Y-116930000D01*
X77606000Y-116930000D01*
X77606000Y-116104437D01*
X77431869Y-115955771D01*
X77021951Y-116097432D01*
X76697448Y-116385179D01*
X76513732Y-116759062D01*
X76640266Y-116930000D01*
X76640266Y-117184000D01*
X76513732Y-117354938D01*
X76697448Y-117728821D01*
X77021951Y-118016568D01*
X77431869Y-118158229D01*
X77431869Y-118582810D01*
X77034874Y-118387881D01*
X76860000Y-118514046D01*
X76860000Y-119630000D01*
X76860000Y-119884000D01*
X76860000Y-120999954D01*
X77034874Y-121126119D01*
X77034874Y-122873600D01*
X76431126Y-122873600D01*
X76431126Y-121126119D01*
X76606000Y-120999954D01*
X76606000Y-119884000D01*
X75598000Y-119884000D01*
X75598000Y-119630000D01*
X76606000Y-119630000D01*
X76606000Y-118514046D01*
X76431126Y-118387881D01*
X76020237Y-118589632D01*
X75732998Y-118930322D01*
X75598000Y-119355000D01*
X75598000Y-119630000D01*
X75598000Y-119884000D01*
X75598000Y-120159000D01*
X75732998Y-120583678D01*
X76020237Y-120924368D01*
X76431126Y-121126119D01*
X76431126Y-122873600D01*
X68728513Y-122873600D01*
X68728513Y-86639784D01*
X69280920Y-86446554D01*
X69717332Y-86056636D01*
X69971309Y-85529391D01*
X69973958Y-85513626D01*
X69852817Y-85281600D01*
X68493600Y-85281600D01*
X68493600Y-86495524D01*
X68728513Y-86639784D01*
X68728513Y-122873600D01*
X65583854Y-122873600D01*
X65583854Y-121614943D01*
X66736515Y-121138673D01*
X67619174Y-120257553D01*
X68097454Y-119105726D01*
X68098543Y-117858546D01*
X68004687Y-117631398D01*
X68004687Y-86639784D01*
X68239600Y-86495524D01*
X68239600Y-85281600D01*
X66880383Y-85281600D01*
X66880383Y-85027600D01*
X68239600Y-85027600D01*
X68239600Y-85007600D01*
X68493600Y-85007600D01*
X68493600Y-85027600D01*
X69852817Y-85027600D01*
X69973958Y-84795574D01*
X69971309Y-84779809D01*
X69717332Y-84252564D01*
X69301531Y-83881061D01*
X69611015Y-83674270D01*
X69935871Y-83188089D01*
X70049945Y-82614600D01*
X69935871Y-82041111D01*
X69611015Y-81554930D01*
X69296234Y-81344600D01*
X69611015Y-81134270D01*
X69935871Y-80648089D01*
X70049945Y-80074600D01*
X69935871Y-79501111D01*
X69611015Y-79014930D01*
X69596687Y-79005357D01*
X69617917Y-79001362D01*
X69834041Y-78862290D01*
X69979031Y-78650090D01*
X70030040Y-78398200D01*
X70030040Y-76671000D01*
X69985762Y-76435683D01*
X69846690Y-76219559D01*
X69634490Y-76074569D01*
X69382600Y-76023560D01*
X67350600Y-76023560D01*
X67115283Y-76067838D01*
X66899159Y-76206910D01*
X66754169Y-76419110D01*
X66703160Y-76671000D01*
X66703160Y-78398200D01*
X66747438Y-78633517D01*
X66886510Y-78849641D01*
X67098710Y-78994631D01*
X67140039Y-79003000D01*
X67122185Y-79014930D01*
X66797329Y-79501111D01*
X66683255Y-80074600D01*
X66797329Y-80648089D01*
X67122185Y-81134270D01*
X67436966Y-81344600D01*
X67122185Y-81554930D01*
X66797329Y-82041111D01*
X66683255Y-82614600D01*
X66797329Y-83188089D01*
X67122185Y-83674270D01*
X67431669Y-83881061D01*
X67015868Y-84252564D01*
X66761891Y-84779809D01*
X66759242Y-84795574D01*
X66880383Y-85027600D01*
X66880383Y-85281600D01*
X66759242Y-85513626D01*
X66761891Y-85529391D01*
X67015868Y-86056636D01*
X67452280Y-86446554D01*
X68004687Y-86639784D01*
X68004687Y-117631398D01*
X67622273Y-116705885D01*
X66741153Y-115823226D01*
X65589326Y-115344946D01*
X64342146Y-115343857D01*
X63189485Y-115820127D01*
X62306826Y-116701247D01*
X61828546Y-117853074D01*
X61827457Y-119100254D01*
X62303727Y-120252915D01*
X63184847Y-121135574D01*
X64336674Y-121613854D01*
X65583854Y-121614943D01*
X65583854Y-122873600D01*
X61787919Y-122873600D01*
X61737346Y-43422400D01*
X119496800Y-43422400D01*
X119496800Y-43422400D01*
G37*
X119496800Y-43422400D02*
X119496800Y-117170559D01*
X118760353Y-116432826D01*
X117608526Y-115954546D01*
X116361346Y-115953457D01*
X115208685Y-116429727D01*
X114326026Y-117310847D01*
X113847746Y-118462674D01*
X113846657Y-119709854D01*
X114322927Y-120862515D01*
X115204047Y-121745174D01*
X116355874Y-122223454D01*
X117603054Y-122224543D01*
X118755715Y-121748273D01*
X119496800Y-121008480D01*
X119496800Y-122873600D01*
X103930026Y-122873600D01*
X103930026Y-119680358D01*
X103945791Y-119677709D01*
X104473036Y-119423732D01*
X104862954Y-118987320D01*
X105056184Y-118434913D01*
X104911924Y-118200000D01*
X103698000Y-118200000D01*
X103698000Y-117946000D01*
X104911924Y-117946000D01*
X105056184Y-117711087D01*
X104862954Y-117158680D01*
X104473036Y-116722268D01*
X103945791Y-116468291D01*
X103930026Y-116465642D01*
X103698000Y-116586783D01*
X103698000Y-117946000D01*
X103698000Y-118200000D01*
X103698000Y-119559217D01*
X103930026Y-119680358D01*
X103930026Y-122873600D01*
X98491000Y-122873600D01*
X98491000Y-119756345D01*
X99064489Y-119642271D01*
X99550670Y-119317415D01*
X99761000Y-119002634D01*
X99971330Y-119317415D01*
X100457511Y-119642271D01*
X101031000Y-119756345D01*
X101604489Y-119642271D01*
X102090670Y-119317415D01*
X102297461Y-119007931D01*
X102668964Y-119423732D01*
X103196209Y-119677709D01*
X103211974Y-119680358D01*
X103444000Y-119559217D01*
X103444000Y-118200000D01*
X103424000Y-118200000D01*
X103424000Y-117946000D01*
X103444000Y-117946000D01*
X103444000Y-116586783D01*
X103211974Y-116465642D01*
X103196209Y-116468291D01*
X102668964Y-116722268D01*
X102297461Y-117138069D01*
X102090670Y-116828585D01*
X101791000Y-116628352D01*
X101791000Y-98565800D01*
X101733148Y-98274961D01*
X101568401Y-98028399D01*
X100441278Y-96901276D01*
X100441308Y-96866510D01*
X110015019Y-106440221D01*
X109914055Y-106947800D01*
X110028129Y-107521289D01*
X110352985Y-108007470D01*
X110367313Y-108017043D01*
X110346083Y-108021038D01*
X110129959Y-108160110D01*
X109984969Y-108372310D01*
X109933960Y-108624200D01*
X109933960Y-110351400D01*
X109978238Y-110586717D01*
X110117310Y-110802841D01*
X110329510Y-110947831D01*
X110581400Y-110998840D01*
X112613400Y-110998840D01*
X112848717Y-110954562D01*
X113064841Y-110815490D01*
X113209831Y-110603290D01*
X113260840Y-110351400D01*
X113260840Y-108624200D01*
X113216562Y-108388883D01*
X113077490Y-108172759D01*
X112865290Y-108027769D01*
X112823961Y-108019400D01*
X112841815Y-108007470D01*
X113166671Y-107521289D01*
X113280745Y-106947800D01*
X113166671Y-106374311D01*
X112841815Y-105888130D01*
X112527034Y-105677800D01*
X112841815Y-105467470D01*
X113166671Y-104981289D01*
X113280745Y-104407800D01*
X113166671Y-103834311D01*
X112841815Y-103348130D01*
X112532331Y-103141339D01*
X112948132Y-102769836D01*
X113202109Y-102242591D01*
X113204758Y-102226826D01*
X113083617Y-101994800D01*
X111724400Y-101994800D01*
X111724400Y-101740800D01*
X113083617Y-101740800D01*
X113204758Y-101508774D01*
X113202109Y-101493009D01*
X112948132Y-100965764D01*
X112511720Y-100575846D01*
X111959313Y-100382616D01*
X111724400Y-100526876D01*
X111724400Y-101740800D01*
X111724400Y-101994800D01*
X111724400Y-102014800D01*
X111470400Y-102014800D01*
X111470400Y-101994800D01*
X111450400Y-101994800D01*
X111450400Y-101740800D01*
X111470400Y-101740800D01*
X111470400Y-100526876D01*
X111235487Y-100382616D01*
X110683080Y-100575846D01*
X110246668Y-100965764D01*
X109992691Y-101493009D01*
X109990042Y-101508774D01*
X110111182Y-101740798D01*
X110005200Y-101740798D01*
X103069002Y-94804600D01*
X106050198Y-94804600D01*
X108377122Y-97131524D01*
X108377030Y-97236869D01*
X108526671Y-97599029D01*
X108803514Y-97876355D01*
X109165412Y-98026628D01*
X109557269Y-98026970D01*
X109919429Y-97877329D01*
X110196755Y-97600486D01*
X110347028Y-97238588D01*
X110347370Y-96846731D01*
X110197729Y-96484571D01*
X109920886Y-96207245D01*
X109558988Y-96056972D01*
X109452081Y-96056879D01*
X107387002Y-93991800D01*
X108336198Y-93991800D01*
X108529522Y-94185124D01*
X108529430Y-94290469D01*
X108679071Y-94652629D01*
X108955914Y-94929955D01*
X109317812Y-95080228D01*
X109709669Y-95080570D01*
X110071829Y-94930929D01*
X110349155Y-94654086D01*
X110499428Y-94292188D01*
X110499770Y-93900331D01*
X110350129Y-93538171D01*
X110073286Y-93260845D01*
X109711388Y-93110572D01*
X109604481Y-93110479D01*
X109188401Y-92694399D01*
X108941839Y-92529652D01*
X108651000Y-92471800D01*
X106619000Y-92471800D01*
X106619000Y-89644001D01*
X107015077Y-89565215D01*
X107277306Y-89390000D01*
X113172195Y-89390000D01*
X113172200Y-89390001D01*
X113568277Y-89311215D01*
X113904056Y-89086856D01*
X118171253Y-84819658D01*
X118171256Y-84819656D01*
X118274929Y-84664497D01*
X118395615Y-84483877D01*
X118474401Y-84087800D01*
X118474400Y-84087795D01*
X118474400Y-69051000D01*
X118395615Y-68654923D01*
X118171256Y-68319144D01*
X117835477Y-68094785D01*
X117439400Y-68016000D01*
X117242612Y-68055144D01*
X117043322Y-68094785D01*
X116880714Y-68203436D01*
X116707544Y-68319144D01*
X116707542Y-68319147D01*
X116655089Y-68371600D01*
X109137250Y-68371600D01*
X109027078Y-68297985D01*
X108631000Y-68219200D01*
X108346200Y-68219200D01*
X107950123Y-68297985D01*
X107614344Y-68522344D01*
X107389985Y-68858123D01*
X107311200Y-69254200D01*
X107389985Y-69650277D01*
X107491488Y-69802187D01*
X107491585Y-69802677D01*
X107715944Y-70138456D01*
X108051723Y-70362815D01*
X108447800Y-70441600D01*
X116404400Y-70441600D01*
X116404400Y-83659089D01*
X112743488Y-87320000D01*
X106873005Y-87320000D01*
X106873000Y-87319999D01*
X106476922Y-87398785D01*
X106342429Y-87488651D01*
X106141144Y-87623144D01*
X106141142Y-87623147D01*
X105887144Y-87877144D01*
X105662785Y-88212923D01*
X105583999Y-88609000D01*
X105662785Y-89005077D01*
X105887144Y-89340856D01*
X106222923Y-89565215D01*
X106619000Y-89644001D01*
X106619000Y-92471800D01*
X96970426Y-92471800D01*
X96970426Y-76449558D01*
X96986191Y-76446909D01*
X97513436Y-76192932D01*
X97903354Y-75756520D01*
X98096584Y-75204113D01*
X97952324Y-74969200D01*
X96738400Y-74969200D01*
X96738400Y-74715200D01*
X97952324Y-74715200D01*
X98096584Y-74480287D01*
X97903354Y-73927880D01*
X97513436Y-73491468D01*
X96986191Y-73237491D01*
X96970426Y-73234842D01*
X96738400Y-73355983D01*
X96738400Y-74715200D01*
X96738400Y-74969200D01*
X96738400Y-76328417D01*
X96970426Y-76449558D01*
X96970426Y-92471800D01*
X95697000Y-92471800D01*
X95406161Y-92529652D01*
X95406160Y-92529652D01*
X95159599Y-92694399D01*
X94831400Y-93022598D01*
X94831400Y-76286848D01*
X95131070Y-76086615D01*
X95337861Y-75777131D01*
X95709364Y-76192932D01*
X96236609Y-76446909D01*
X96252374Y-76449558D01*
X96484400Y-76328417D01*
X96484400Y-74969200D01*
X96464400Y-74969200D01*
X96464400Y-74715200D01*
X96484400Y-74715200D01*
X96484400Y-73355983D01*
X96252374Y-73234842D01*
X96236609Y-73237491D01*
X95709364Y-73491468D01*
X95337861Y-73907269D01*
X95131070Y-73597785D01*
X94644889Y-73272929D01*
X94071400Y-73158855D01*
X93497911Y-73272929D01*
X93011730Y-73597785D01*
X92801400Y-73912566D01*
X92591070Y-73597785D01*
X92104889Y-73272929D01*
X91531400Y-73158855D01*
X90957911Y-73272929D01*
X90471730Y-73597785D01*
X90261400Y-73912566D01*
X90051070Y-73597785D01*
X89564889Y-73272929D01*
X88991400Y-73158855D01*
X88417911Y-73272929D01*
X87931730Y-73597785D01*
X87721400Y-73912566D01*
X87511070Y-73597785D01*
X87024889Y-73272929D01*
X86451400Y-73158855D01*
X85877911Y-73272929D01*
X85391730Y-73597785D01*
X85382157Y-73612113D01*
X85378162Y-73590883D01*
X85239090Y-73374759D01*
X85026890Y-73229769D01*
X84775000Y-73178760D01*
X83047800Y-73178760D01*
X82812483Y-73223038D01*
X82596359Y-73362110D01*
X82451369Y-73574310D01*
X82400360Y-73826200D01*
X82400360Y-75858200D01*
X82444638Y-76093517D01*
X82583710Y-76309641D01*
X82795910Y-76454631D01*
X83047800Y-76505640D01*
X84775000Y-76505640D01*
X85010317Y-76461362D01*
X85226441Y-76322290D01*
X85371431Y-76110090D01*
X85379800Y-76068761D01*
X85391730Y-76086615D01*
X85877911Y-76411471D01*
X86451400Y-76525545D01*
X86958979Y-76424581D01*
X90568200Y-80033802D01*
X90568200Y-91582689D01*
X90493645Y-91657114D01*
X90343372Y-92019012D01*
X90343030Y-92410869D01*
X90492671Y-92773029D01*
X90769514Y-93050355D01*
X91131412Y-93200628D01*
X91407684Y-93200869D01*
X91419071Y-93228429D01*
X91695914Y-93505755D01*
X92057812Y-93656028D01*
X92317410Y-93656255D01*
X92372271Y-93789029D01*
X92649114Y-94066355D01*
X93011012Y-94216628D01*
X93038090Y-94216652D01*
X93134271Y-94449429D01*
X93269302Y-94584696D01*
X89794198Y-98059800D01*
X89407802Y-98059800D01*
X88011539Y-96663537D01*
X88024629Y-96658129D01*
X88301955Y-96381286D01*
X88452228Y-96019388D01*
X88452570Y-95627531D01*
X88302929Y-95265371D01*
X88227400Y-95189710D01*
X88227400Y-94908200D01*
X88169548Y-94617361D01*
X88004801Y-94370799D01*
X85810878Y-92176876D01*
X85810970Y-92071531D01*
X85661329Y-91709371D01*
X85384486Y-91432045D01*
X85022588Y-91281772D01*
X84630731Y-91281430D01*
X84268571Y-91431071D01*
X83991245Y-91707914D01*
X83840972Y-92069812D01*
X83840630Y-92461669D01*
X83862429Y-92514427D01*
X81197601Y-89849599D01*
X80951039Y-89684852D01*
X80689316Y-89632792D01*
X80507686Y-89450845D01*
X80145788Y-89300572D01*
X79753931Y-89300230D01*
X79743800Y-89304416D01*
X79743800Y-85076511D01*
X79777984Y-85042386D01*
X86228322Y-91492724D01*
X86228230Y-91598069D01*
X86377871Y-91960229D01*
X86654714Y-92237555D01*
X87016612Y-92387828D01*
X87408469Y-92388170D01*
X87770629Y-92238529D01*
X88047955Y-91961686D01*
X88198228Y-91599788D01*
X88198570Y-91207931D01*
X88048929Y-90845771D01*
X87772086Y-90568445D01*
X87410188Y-90418172D01*
X87303281Y-90418079D01*
X80906069Y-84020867D01*
X80906069Y-79942170D01*
X81268229Y-79792529D01*
X81545555Y-79515686D01*
X81695828Y-79153788D01*
X81696058Y-78890265D01*
X81725429Y-78878129D01*
X82002755Y-78601286D01*
X82153028Y-78239388D01*
X82153370Y-77847531D01*
X82003729Y-77485371D01*
X81928200Y-77409710D01*
X81928200Y-62707002D01*
X88473665Y-69252467D01*
X88637757Y-69649600D01*
X89041077Y-70053624D01*
X89568309Y-70272550D01*
X90139187Y-70273048D01*
X90666800Y-70055043D01*
X91070824Y-69651723D01*
X91124862Y-69521585D01*
X91177757Y-69649600D01*
X91581077Y-70053624D01*
X92108309Y-70272550D01*
X92679187Y-70273048D01*
X93206800Y-70055043D01*
X93610824Y-69651723D01*
X93664862Y-69521585D01*
X93717757Y-69649600D01*
X94121077Y-70053624D01*
X94175000Y-70076015D01*
X94175000Y-70117800D01*
X94232852Y-70408639D01*
X94397599Y-70655201D01*
X96175599Y-72433201D01*
X96422161Y-72597948D01*
X96713000Y-72655800D01*
X102707400Y-72655800D01*
X102998239Y-72597948D01*
X103244801Y-72433201D01*
X105276801Y-70401201D01*
X105441548Y-70154639D01*
X105499400Y-69863800D01*
X105499400Y-46953000D01*
X105441548Y-46662161D01*
X105276801Y-46415599D01*
X103397201Y-44535999D01*
X103150639Y-44371252D01*
X102859800Y-44313400D01*
X66385400Y-44313400D01*
X66094561Y-44371252D01*
X65847999Y-44535999D01*
X65683252Y-44782561D01*
X65625400Y-45073400D01*
X65625400Y-62955000D01*
X65683252Y-63245839D01*
X65847999Y-63492401D01*
X69210322Y-66854724D01*
X69210230Y-66960069D01*
X69359871Y-67322229D01*
X69636714Y-67599555D01*
X69998612Y-67749828D01*
X70390469Y-67750170D01*
X70752629Y-67600529D01*
X71029955Y-67323686D01*
X71180228Y-66961788D01*
X71180570Y-66569931D01*
X71030929Y-66207771D01*
X70754086Y-65930445D01*
X70392188Y-65780172D01*
X70285281Y-65780079D01*
X69421110Y-64915908D01*
X69685829Y-64806529D01*
X69963155Y-64529686D01*
X70113428Y-64167788D01*
X70113770Y-63775931D01*
X69964129Y-63413771D01*
X69687286Y-63136445D01*
X69325388Y-62986172D01*
X69218481Y-62986079D01*
X67958200Y-61725798D01*
X67958200Y-48791802D01*
X69595802Y-47154200D01*
X71497006Y-47154200D01*
X71240445Y-47410314D01*
X71090172Y-47772212D01*
X71090079Y-47879119D01*
X69149999Y-49819199D01*
X68985252Y-50065761D01*
X68927400Y-50356600D01*
X68927400Y-59477089D01*
X68852845Y-59551514D01*
X68702572Y-59913412D01*
X68702230Y-60305269D01*
X68851871Y-60667429D01*
X69128714Y-60944755D01*
X69490612Y-61095028D01*
X69882469Y-61095370D01*
X70244629Y-60945729D01*
X70521955Y-60668886D01*
X70672228Y-60306988D01*
X70672570Y-59915131D01*
X70522929Y-59552971D01*
X70447400Y-59477310D01*
X70447400Y-50671402D01*
X72164724Y-48954078D01*
X72270069Y-48954170D01*
X72632229Y-48804529D01*
X72909555Y-48527686D01*
X73059828Y-48165788D01*
X73060170Y-47773931D01*
X72910529Y-47411771D01*
X72653407Y-47154200D01*
X101122598Y-47154200D01*
X102607800Y-48639402D01*
X102607800Y-68939398D01*
X101732198Y-69815000D01*
X99527002Y-69815000D01*
X98888256Y-69176254D01*
X98909750Y-69124491D01*
X98910248Y-68553613D01*
X98692243Y-68026000D01*
X98288923Y-67621976D01*
X97761691Y-67403050D01*
X97190813Y-67402552D01*
X96663200Y-67620557D01*
X96259176Y-68023877D01*
X96205138Y-68154015D01*
X96152243Y-68026000D01*
X95748923Y-67621976D01*
X95221691Y-67403050D01*
X94650813Y-67402552D01*
X94123200Y-67620557D01*
X93719176Y-68023877D01*
X93665138Y-68154015D01*
X93612243Y-68026000D01*
X93208923Y-67621976D01*
X92681691Y-67403050D01*
X92110813Y-67402552D01*
X92056851Y-67424849D01*
X90139187Y-65507185D01*
X90139187Y-62673048D01*
X90666800Y-62455043D01*
X91070824Y-62051723D01*
X91124862Y-61921585D01*
X91177757Y-62049600D01*
X91581077Y-62453624D01*
X92108309Y-62672550D01*
X92679187Y-62673048D01*
X93206800Y-62455043D01*
X93610824Y-62051723D01*
X93664862Y-61921585D01*
X93717757Y-62049600D01*
X94121077Y-62453624D01*
X94648309Y-62672550D01*
X95219187Y-62673048D01*
X95746800Y-62455043D01*
X96150824Y-62051723D01*
X96204862Y-61921585D01*
X96257757Y-62049600D01*
X96661077Y-62453624D01*
X97188309Y-62672550D01*
X97759187Y-62673048D01*
X98286800Y-62455043D01*
X98690824Y-62051723D01*
X98909750Y-61524491D01*
X98910248Y-60953613D01*
X98692243Y-60426000D01*
X98288923Y-60021976D01*
X97761691Y-59803050D01*
X97190813Y-59802552D01*
X96663200Y-60020557D01*
X96259176Y-60423877D01*
X96205138Y-60554015D01*
X96152243Y-60426000D01*
X95748923Y-60021976D01*
X95221691Y-59803050D01*
X94650813Y-59802552D01*
X94123200Y-60020557D01*
X93719176Y-60423877D01*
X93665138Y-60554015D01*
X93612243Y-60426000D01*
X93219054Y-60032125D01*
X93219054Y-53542943D01*
X94371715Y-53066673D01*
X95254374Y-52185553D01*
X95732654Y-51033726D01*
X95733743Y-49786546D01*
X95257473Y-48633885D01*
X94376353Y-47751226D01*
X93224526Y-47272946D01*
X91977346Y-47271857D01*
X90824685Y-47748127D01*
X89942026Y-48629247D01*
X89463746Y-49781074D01*
X89462657Y-51028254D01*
X89938927Y-52180915D01*
X90820047Y-53063574D01*
X91971874Y-53541854D01*
X93219054Y-53542943D01*
X93219054Y-60032125D01*
X93208923Y-60021976D01*
X92681691Y-59803050D01*
X92110813Y-59802552D01*
X91583200Y-60020557D01*
X91179176Y-60423877D01*
X91125138Y-60554015D01*
X91072243Y-60426000D01*
X90668923Y-60021976D01*
X90141691Y-59803050D01*
X89570813Y-59802552D01*
X89043200Y-60020557D01*
X88639176Y-60423877D01*
X88420250Y-60951109D01*
X88419752Y-61521987D01*
X88637757Y-62049600D01*
X89041077Y-62453624D01*
X89568309Y-62672550D01*
X90139187Y-62673048D01*
X90139187Y-65507185D01*
X82325201Y-57693199D01*
X82078639Y-57528452D01*
X81787800Y-57470600D01*
X76619711Y-57470600D01*
X76545286Y-57396045D01*
X76183388Y-57245772D01*
X75791531Y-57245430D01*
X75429371Y-57395071D01*
X75152045Y-57671914D01*
X75001772Y-58033812D01*
X75001643Y-58181800D01*
X73507402Y-58181800D01*
X72501278Y-57175676D01*
X72501370Y-57070331D01*
X72351729Y-56708171D01*
X72074886Y-56430845D01*
X71712988Y-56280572D01*
X71321131Y-56280230D01*
X70958971Y-56429871D01*
X70681645Y-56706714D01*
X70531372Y-57068612D01*
X70531030Y-57460469D01*
X70680671Y-57822629D01*
X70957514Y-58099955D01*
X71319412Y-58250228D01*
X71426319Y-58250321D01*
X72655199Y-59479201D01*
X72901761Y-59643948D01*
X73192600Y-59701800D01*
X78922998Y-59701800D01*
X79303261Y-60082063D01*
X79290171Y-60087471D01*
X79012845Y-60364314D01*
X78945705Y-60526004D01*
X78875788Y-60496972D01*
X78483931Y-60496630D01*
X78121771Y-60646271D01*
X77844445Y-60923114D01*
X77694172Y-61285012D01*
X77693830Y-61676869D01*
X77843471Y-62039029D01*
X78120314Y-62316355D01*
X78482212Y-62466628D01*
X78589119Y-62466721D01*
X79443000Y-63320602D01*
X79443000Y-78449000D01*
X79500852Y-78739839D01*
X79664170Y-78984262D01*
X79665599Y-78986401D01*
X79725922Y-79046724D01*
X79725830Y-79152069D01*
X79875471Y-79514229D01*
X80152314Y-79791555D01*
X80514212Y-79941828D01*
X80906069Y-79942170D01*
X80906069Y-84020867D01*
X79521201Y-82635999D01*
X79274639Y-82471252D01*
X78983800Y-82413400D01*
X77561400Y-82413400D01*
X77270561Y-82471252D01*
X77270560Y-82471252D01*
X77023999Y-82635999D01*
X74483999Y-85175999D01*
X74319252Y-85422561D01*
X74261400Y-85713400D01*
X74261400Y-92751089D01*
X74186845Y-92825514D01*
X74036572Y-93187412D01*
X74036230Y-93579269D01*
X74185871Y-93941429D01*
X74462714Y-94218755D01*
X74824612Y-94369028D01*
X75216469Y-94369370D01*
X75578629Y-94219729D01*
X75855955Y-93942886D01*
X76006228Y-93580988D01*
X76006570Y-93189131D01*
X75856929Y-92826971D01*
X75781400Y-92751310D01*
X75781400Y-86028202D01*
X77876202Y-83933400D01*
X78129029Y-83933400D01*
X77998972Y-84246612D01*
X77998630Y-84638469D01*
X78148271Y-85000629D01*
X78223800Y-85076290D01*
X78223800Y-95365400D01*
X78281652Y-95656239D01*
X78446399Y-95902801D01*
X80233922Y-97690324D01*
X80233830Y-97795669D01*
X80383471Y-98157829D01*
X80660314Y-98435155D01*
X81022212Y-98585428D01*
X81414069Y-98585770D01*
X81776229Y-98436129D01*
X82053555Y-98159286D01*
X82203828Y-97797388D01*
X82204170Y-97405531D01*
X82054529Y-97043371D01*
X81777686Y-96766045D01*
X81415788Y-96615772D01*
X81308881Y-96615679D01*
X79743800Y-95050598D01*
X79743800Y-92184283D01*
X79949114Y-92389955D01*
X80311012Y-92540228D01*
X80417919Y-92540321D01*
X88504799Y-100627201D01*
X88751361Y-100791948D01*
X89042200Y-100849800D01*
X90476089Y-100849800D01*
X85768688Y-105557200D01*
X84481344Y-105557200D01*
X84603428Y-105263188D01*
X84603521Y-105156281D01*
X86382900Y-103376902D01*
X86665029Y-103260329D01*
X86942355Y-102983486D01*
X87092628Y-102621588D01*
X87092970Y-102229731D01*
X86943329Y-101867571D01*
X86666486Y-101590245D01*
X86304588Y-101439972D01*
X85912731Y-101439630D01*
X85550571Y-101589271D01*
X85273245Y-101866114D01*
X85122972Y-102228012D01*
X85122746Y-102487452D01*
X83528876Y-104081322D01*
X83423531Y-104081230D01*
X83061371Y-104230871D01*
X82784045Y-104507714D01*
X82633772Y-104869612D01*
X82633430Y-105261469D01*
X82755623Y-105557200D01*
X81422200Y-105557200D01*
X81026123Y-105635985D01*
X80690344Y-105860344D01*
X80465985Y-106196123D01*
X80387200Y-106592200D01*
X80465985Y-106988277D01*
X80690344Y-107324056D01*
X81026123Y-107548415D01*
X81422200Y-107627200D01*
X86197395Y-107627200D01*
X86197400Y-107627201D01*
X86593477Y-107548415D01*
X86929256Y-107324056D01*
X94346055Y-99907256D01*
X94570415Y-99571477D01*
X94649201Y-99175400D01*
X94570415Y-98779323D01*
X94346055Y-98443545D01*
X94010277Y-98219185D01*
X93614200Y-98140399D01*
X93521080Y-98158922D01*
X96212996Y-95467006D01*
X96083772Y-95778212D01*
X96083430Y-96170069D01*
X96233071Y-96532229D01*
X96509914Y-96809555D01*
X96871812Y-96959828D01*
X97263669Y-96960170D01*
X97506026Y-96860030D01*
X97505830Y-97084469D01*
X97655471Y-97446629D01*
X97731000Y-97522290D01*
X97731000Y-116628352D01*
X97431330Y-116828585D01*
X97421757Y-116842913D01*
X97417762Y-116821683D01*
X97278690Y-116605559D01*
X97066490Y-116460569D01*
X96814600Y-116409560D01*
X95087400Y-116409560D01*
X94852083Y-116453838D01*
X94635959Y-116592910D01*
X94490969Y-116805110D01*
X94439960Y-117057000D01*
X94439960Y-119089000D01*
X94484238Y-119324317D01*
X94623310Y-119540441D01*
X94835510Y-119685431D01*
X95087400Y-119736440D01*
X96814600Y-119736440D01*
X97049917Y-119692162D01*
X97266041Y-119553090D01*
X97411031Y-119340890D01*
X97419400Y-119299561D01*
X97431330Y-119317415D01*
X97917511Y-119642271D01*
X98491000Y-119756345D01*
X98491000Y-122873600D01*
X84034874Y-122873600D01*
X84034874Y-121126119D01*
X84445763Y-120924368D01*
X84733002Y-120583678D01*
X84868000Y-120159000D01*
X84868000Y-119884000D01*
X83860000Y-119884000D01*
X83860000Y-119630000D01*
X84868000Y-119630000D01*
X84868000Y-119355000D01*
X84733002Y-118930322D01*
X84445763Y-118589632D01*
X84034874Y-118387881D01*
X83860000Y-118514046D01*
X83860000Y-119630000D01*
X83860000Y-119884000D01*
X83860000Y-120999954D01*
X84034874Y-121126119D01*
X84034874Y-122873600D01*
X83431126Y-122873600D01*
X83431126Y-121126119D01*
X83606000Y-120999954D01*
X83606000Y-119884000D01*
X82598000Y-119884000D01*
X82598000Y-119630000D01*
X83606000Y-119630000D01*
X83606000Y-118514046D01*
X83431126Y-118387881D01*
X83034131Y-118582809D01*
X83034131Y-118158229D01*
X83444049Y-118016568D01*
X83768552Y-117728821D01*
X83952268Y-117354938D01*
X83825734Y-117184000D01*
X82860000Y-117184000D01*
X82860000Y-116930000D01*
X83825734Y-116930000D01*
X83952268Y-116759062D01*
X83768552Y-116385179D01*
X83444049Y-116097432D01*
X83034131Y-115955771D01*
X82860000Y-116104437D01*
X82860000Y-116930000D01*
X82860000Y-117184000D01*
X82860000Y-118009563D01*
X83034131Y-118158229D01*
X83034131Y-118582809D01*
X83020237Y-118589632D01*
X82732998Y-118930322D01*
X82598000Y-119355000D01*
X82598000Y-119630000D01*
X82598000Y-119884000D01*
X82598000Y-120159000D01*
X82732998Y-120583678D01*
X83020237Y-120924368D01*
X83431126Y-121126119D01*
X83431126Y-122873600D01*
X82431869Y-122873600D01*
X82431869Y-118158229D01*
X82606000Y-118009563D01*
X82606000Y-117184000D01*
X81640266Y-117184000D01*
X81640266Y-116930000D01*
X82606000Y-116930000D01*
X82606000Y-116104437D01*
X82431869Y-115955771D01*
X82352598Y-115983165D01*
X82352598Y-111589601D01*
X82352603Y-111589600D01*
X88483400Y-111589600D01*
X88879477Y-111510815D01*
X89215256Y-111286456D01*
X89439615Y-110950677D01*
X89518400Y-110554600D01*
X89439615Y-110158523D01*
X89215256Y-109822744D01*
X88879477Y-109598385D01*
X88483400Y-109519600D01*
X82781310Y-109519600D01*
X80122056Y-106860347D01*
X79786278Y-106635987D01*
X79390200Y-106557202D01*
X78994123Y-106635987D01*
X78658345Y-106860347D01*
X78433985Y-107196125D01*
X78355200Y-107592202D01*
X78433985Y-107988280D01*
X78658345Y-108324058D01*
X81620742Y-111286456D01*
X81956521Y-111510815D01*
X82352598Y-111589601D01*
X82352598Y-115983165D01*
X82021951Y-116097432D01*
X81697448Y-116385179D01*
X81513732Y-116759062D01*
X81640266Y-116930000D01*
X81640266Y-117184000D01*
X81513732Y-117354938D01*
X81697448Y-117728821D01*
X82021951Y-118016568D01*
X82431869Y-118158229D01*
X82431869Y-122873600D01*
X78034131Y-122873600D01*
X78034131Y-118158229D01*
X78444049Y-118016568D01*
X78768552Y-117728821D01*
X78952268Y-117354938D01*
X78825734Y-117184000D01*
X77860000Y-117184000D01*
X77860000Y-116930000D01*
X78825734Y-116930000D01*
X78952268Y-116759062D01*
X78768552Y-116385179D01*
X78444049Y-116097432D01*
X78034131Y-115955771D01*
X77860000Y-116104437D01*
X77860000Y-116930000D01*
X77860000Y-117184000D01*
X77860000Y-118009563D01*
X78034131Y-118158229D01*
X78034131Y-122873600D01*
X77034874Y-122873600D01*
X77034874Y-121126119D01*
X77445763Y-120924368D01*
X77733002Y-120583678D01*
X77868000Y-120159000D01*
X77868000Y-119884000D01*
X76860000Y-119884000D01*
X76860000Y-119630000D01*
X77868000Y-119630000D01*
X77868000Y-119355000D01*
X77733002Y-118930322D01*
X77445763Y-118589632D01*
X77431869Y-118582810D01*
X77431869Y-118158229D01*
X77606000Y-118009563D01*
X77606000Y-117184000D01*
X76640266Y-117184000D01*
X76640266Y-116930000D01*
X77606000Y-116930000D01*
X77606000Y-116104437D01*
X77431869Y-115955771D01*
X77021951Y-116097432D01*
X76697448Y-116385179D01*
X76513732Y-116759062D01*
X76640266Y-116930000D01*
X76640266Y-117184000D01*
X76513732Y-117354938D01*
X76697448Y-117728821D01*
X77021951Y-118016568D01*
X77431869Y-118158229D01*
X77431869Y-118582810D01*
X77034874Y-118387881D01*
X76860000Y-118514046D01*
X76860000Y-119630000D01*
X76860000Y-119884000D01*
X76860000Y-120999954D01*
X77034874Y-121126119D01*
X77034874Y-122873600D01*
X76431126Y-122873600D01*
X76431126Y-121126119D01*
X76606000Y-120999954D01*
X76606000Y-119884000D01*
X75598000Y-119884000D01*
X75598000Y-119630000D01*
X76606000Y-119630000D01*
X76606000Y-118514046D01*
X76431126Y-118387881D01*
X76020237Y-118589632D01*
X75732998Y-118930322D01*
X75598000Y-119355000D01*
X75598000Y-119630000D01*
X75598000Y-119884000D01*
X75598000Y-120159000D01*
X75732998Y-120583678D01*
X76020237Y-120924368D01*
X76431126Y-121126119D01*
X76431126Y-122873600D01*
X68728513Y-122873600D01*
X68728513Y-86639784D01*
X69280920Y-86446554D01*
X69717332Y-86056636D01*
X69971309Y-85529391D01*
X69973958Y-85513626D01*
X69852817Y-85281600D01*
X68493600Y-85281600D01*
X68493600Y-86495524D01*
X68728513Y-86639784D01*
X68728513Y-122873600D01*
X65583854Y-122873600D01*
X65583854Y-121614943D01*
X66736515Y-121138673D01*
X67619174Y-120257553D01*
X68097454Y-119105726D01*
X68098543Y-117858546D01*
X68004687Y-117631398D01*
X68004687Y-86639784D01*
X68239600Y-86495524D01*
X68239600Y-85281600D01*
X66880383Y-85281600D01*
X66880383Y-85027600D01*
X68239600Y-85027600D01*
X68239600Y-85007600D01*
X68493600Y-85007600D01*
X68493600Y-85027600D01*
X69852817Y-85027600D01*
X69973958Y-84795574D01*
X69971309Y-84779809D01*
X69717332Y-84252564D01*
X69301531Y-83881061D01*
X69611015Y-83674270D01*
X69935871Y-83188089D01*
X70049945Y-82614600D01*
X69935871Y-82041111D01*
X69611015Y-81554930D01*
X69296234Y-81344600D01*
X69611015Y-81134270D01*
X69935871Y-80648089D01*
X70049945Y-80074600D01*
X69935871Y-79501111D01*
X69611015Y-79014930D01*
X69596687Y-79005357D01*
X69617917Y-79001362D01*
X69834041Y-78862290D01*
X69979031Y-78650090D01*
X70030040Y-78398200D01*
X70030040Y-76671000D01*
X69985762Y-76435683D01*
X69846690Y-76219559D01*
X69634490Y-76074569D01*
X69382600Y-76023560D01*
X67350600Y-76023560D01*
X67115283Y-76067838D01*
X66899159Y-76206910D01*
X66754169Y-76419110D01*
X66703160Y-76671000D01*
X66703160Y-78398200D01*
X66747438Y-78633517D01*
X66886510Y-78849641D01*
X67098710Y-78994631D01*
X67140039Y-79003000D01*
X67122185Y-79014930D01*
X66797329Y-79501111D01*
X66683255Y-80074600D01*
X66797329Y-80648089D01*
X67122185Y-81134270D01*
X67436966Y-81344600D01*
X67122185Y-81554930D01*
X66797329Y-82041111D01*
X66683255Y-82614600D01*
X66797329Y-83188089D01*
X67122185Y-83674270D01*
X67431669Y-83881061D01*
X67015868Y-84252564D01*
X66761891Y-84779809D01*
X66759242Y-84795574D01*
X66880383Y-85027600D01*
X66880383Y-85281600D01*
X66759242Y-85513626D01*
X66761891Y-85529391D01*
X67015868Y-86056636D01*
X67452280Y-86446554D01*
X68004687Y-86639784D01*
X68004687Y-117631398D01*
X67622273Y-116705885D01*
X66741153Y-115823226D01*
X65589326Y-115344946D01*
X64342146Y-115343857D01*
X63189485Y-115820127D01*
X62306826Y-116701247D01*
X61828546Y-117853074D01*
X61827457Y-119100254D01*
X62303727Y-120252915D01*
X63184847Y-121135574D01*
X64336674Y-121613854D01*
X65583854Y-121614943D01*
X65583854Y-122873600D01*
X61787919Y-122873600D01*
X61737346Y-43422400D01*
X119496800Y-43422400D01*
G36*
X127853226Y-86119293D02*
X178348073Y-85917112D01*
X178196722Y-122645000D01*
X175115855Y-122645000D01*
X175115855Y-115507600D01*
X175485345Y-115507600D01*
X176058834Y-115393526D01*
X176545015Y-115068670D01*
X176869871Y-114582489D01*
X176983945Y-114009000D01*
X176869871Y-113435511D01*
X176545015Y-112949330D01*
X176230234Y-112739000D01*
X176545015Y-112528670D01*
X176869871Y-112042489D01*
X176983945Y-111469000D01*
X176869871Y-110895511D01*
X176545015Y-110409330D01*
X176230234Y-110199000D01*
X176545015Y-109988670D01*
X176869871Y-109502489D01*
X176983945Y-108929000D01*
X176869871Y-108355511D01*
X176545015Y-107869330D01*
X176530687Y-107859757D01*
X176551917Y-107855762D01*
X176768041Y-107716690D01*
X176913031Y-107504490D01*
X176964040Y-107252600D01*
X176964040Y-105525400D01*
X176919762Y-105290083D01*
X176780690Y-105073959D01*
X176568490Y-104928969D01*
X176316600Y-104877960D01*
X175949434Y-104877960D01*
X175949434Y-91879457D01*
X176918258Y-91479147D01*
X177660142Y-90738557D01*
X178062142Y-89770433D01*
X178063057Y-88722166D01*
X177662747Y-87753342D01*
X176922157Y-87011458D01*
X175954033Y-86609458D01*
X174905766Y-86608543D01*
X173936942Y-87008853D01*
X173195058Y-87749443D01*
X172793058Y-88717567D01*
X172792143Y-89765834D01*
X173192453Y-90734658D01*
X173933043Y-91476542D01*
X174901167Y-91878542D01*
X175949434Y-91879457D01*
X175949434Y-104877960D01*
X174284600Y-104877960D01*
X174049283Y-104922238D01*
X173833159Y-105061310D01*
X173688169Y-105273510D01*
X173637160Y-105525400D01*
X173637160Y-107252600D01*
X173681438Y-107487917D01*
X173820510Y-107704041D01*
X174032710Y-107849031D01*
X174074039Y-107857400D01*
X174056185Y-107869330D01*
X173731329Y-108355511D01*
X173617255Y-108929000D01*
X173731329Y-109502489D01*
X174056185Y-109988670D01*
X174370966Y-110199000D01*
X174056185Y-110409330D01*
X173731329Y-110895511D01*
X173617255Y-111469000D01*
X173731329Y-112042489D01*
X174056185Y-112528670D01*
X174370966Y-112739000D01*
X174056185Y-112949330D01*
X173731329Y-113435511D01*
X173617255Y-114009000D01*
X173731329Y-114582489D01*
X174056185Y-115068670D01*
X174542366Y-115393526D01*
X175115855Y-115507600D01*
X175115855Y-122645000D01*
X169599434Y-122645000D01*
X169599434Y-121089457D01*
X170568258Y-120689147D01*
X171310142Y-119948557D01*
X171712142Y-118980433D01*
X171713057Y-117932166D01*
X171312747Y-116963342D01*
X170572157Y-116221458D01*
X169604033Y-115819458D01*
X168555766Y-115818543D01*
X167586942Y-116218853D01*
X166845058Y-116959443D01*
X166443058Y-117927567D01*
X166442143Y-118975834D01*
X166842453Y-119944658D01*
X167583043Y-120686542D01*
X168551167Y-121088542D01*
X169599434Y-121089457D01*
X169599434Y-122645000D01*
X159620669Y-122645000D01*
X159620669Y-114511570D01*
X159699737Y-114478900D01*
X164353200Y-114478900D01*
X164717706Y-114406395D01*
X165026719Y-114199919D01*
X169624119Y-109602520D01*
X169785155Y-109361512D01*
X169830595Y-109293506D01*
X169903100Y-108929000D01*
X169903100Y-108566843D01*
X169935428Y-108488988D01*
X169935770Y-108097131D01*
X169913472Y-108043166D01*
X173239916Y-104716722D01*
X173317829Y-104684529D01*
X173595155Y-104407686D01*
X173745428Y-104045788D01*
X173745770Y-103653931D01*
X173596129Y-103291771D01*
X173319286Y-103014445D01*
X172957388Y-102864172D01*
X172565531Y-102863830D01*
X172203371Y-103013471D01*
X171926045Y-103290314D01*
X171893237Y-103369325D01*
X168277081Y-106985481D01*
X168070605Y-107294494D01*
X167998100Y-107659000D01*
X167998100Y-108017557D01*
X167965772Y-108095412D01*
X167965430Y-108487269D01*
X167988780Y-108543781D01*
X163958662Y-112573900D01*
X159700243Y-112573900D01*
X159622388Y-112541572D01*
X159230531Y-112541230D01*
X159151463Y-112573900D01*
X157838100Y-112573900D01*
X157838100Y-104165400D01*
X157831794Y-104133695D01*
X157831970Y-103931531D01*
X157682329Y-103569371D01*
X157405486Y-103292045D01*
X157043588Y-103141772D01*
X156651731Y-103141430D01*
X156289571Y-103291071D01*
X156012245Y-103567914D01*
X155953224Y-103710052D01*
X155812388Y-103651572D01*
X155420531Y-103651230D01*
X155058371Y-103800871D01*
X154982710Y-103876400D01*
X149580402Y-103876400D01*
X148980678Y-103276676D01*
X148980770Y-103171331D01*
X148831129Y-102809171D01*
X148554286Y-102531845D01*
X148192388Y-102381572D01*
X147800531Y-102381230D01*
X147438371Y-102530871D01*
X147328526Y-102640524D01*
X147282400Y-102594398D01*
X147282400Y-102055602D01*
X148056402Y-101281600D01*
X148683289Y-101281600D01*
X148757714Y-101356155D01*
X149119612Y-101506428D01*
X149511469Y-101506770D01*
X149873629Y-101357129D01*
X150150955Y-101080286D01*
X150301228Y-100718388D01*
X150301570Y-100326531D01*
X150151929Y-99964371D01*
X149875086Y-99687045D01*
X149513188Y-99536772D01*
X149121331Y-99536430D01*
X148759171Y-99686071D01*
X148683510Y-99761600D01*
X147741600Y-99761600D01*
X147450761Y-99819452D01*
X147450760Y-99819452D01*
X147204199Y-99984199D01*
X145984999Y-101203399D01*
X145820252Y-101449961D01*
X145762400Y-101740800D01*
X145762400Y-102909200D01*
X145820252Y-103200039D01*
X145984999Y-103446601D01*
X147213722Y-104675324D01*
X147213630Y-104780669D01*
X147363271Y-105142829D01*
X147640114Y-105420155D01*
X148002012Y-105570428D01*
X148393869Y-105570770D01*
X148756029Y-105421129D01*
X148893288Y-105284109D01*
X148974761Y-105338548D01*
X149265600Y-105396400D01*
X149680829Y-105396400D01*
X149550772Y-105709612D01*
X149550430Y-106101469D01*
X149700071Y-106463629D01*
X149976914Y-106740955D01*
X150338812Y-106891228D01*
X150445719Y-106891321D01*
X151268199Y-107713801D01*
X151514761Y-107878548D01*
X151805600Y-107936400D01*
X154982489Y-107936400D01*
X155056914Y-108010955D01*
X155418812Y-108161228D01*
X155810669Y-108161570D01*
X155933100Y-108110983D01*
X155933100Y-112573900D01*
X148390138Y-112573900D01*
X146323321Y-110507082D01*
X146291129Y-110429171D01*
X146014286Y-110151845D01*
X145652388Y-110001572D01*
X145260531Y-110001230D01*
X144898371Y-110150871D01*
X144621045Y-110427714D01*
X144470772Y-110789612D01*
X144470430Y-111181469D01*
X144620071Y-111543629D01*
X144896914Y-111820955D01*
X144975924Y-111853763D01*
X147322081Y-114199919D01*
X147631094Y-114406395D01*
X147995600Y-114478900D01*
X159150957Y-114478900D01*
X159228812Y-114511228D01*
X159620669Y-114511570D01*
X159620669Y-122645000D01*
X151889629Y-122645000D01*
X152238363Y-122473768D01*
X152525602Y-122133078D01*
X152660600Y-121708400D01*
X152660600Y-121433400D01*
X151652600Y-121433400D01*
X151652600Y-121179400D01*
X152660600Y-121179400D01*
X152660600Y-120904400D01*
X152525602Y-120479722D01*
X152238363Y-120139032D01*
X151827474Y-119937281D01*
X151652600Y-120063446D01*
X151652600Y-121179400D01*
X151652600Y-121433400D01*
X151652600Y-121453400D01*
X151398600Y-121453400D01*
X151398600Y-121433400D01*
X150390600Y-121433400D01*
X150390600Y-121179400D01*
X151398600Y-121179400D01*
X151398600Y-120063446D01*
X151223726Y-119937281D01*
X150826731Y-120132209D01*
X150826731Y-119707629D01*
X151236649Y-119565968D01*
X151561152Y-119278221D01*
X151744868Y-118904338D01*
X151618334Y-118733400D01*
X150652600Y-118733400D01*
X150652600Y-118479400D01*
X151618334Y-118479400D01*
X151744868Y-118308462D01*
X151561152Y-117934579D01*
X151236649Y-117646832D01*
X150826731Y-117505171D01*
X150652600Y-117653837D01*
X150652600Y-118479400D01*
X150652600Y-118733400D01*
X150652600Y-119558963D01*
X150826731Y-119707629D01*
X150826731Y-120132209D01*
X150812837Y-120139032D01*
X150525598Y-120479722D01*
X150390600Y-120904400D01*
X150390600Y-121179400D01*
X150390600Y-121433400D01*
X150390600Y-121708400D01*
X150525598Y-122133078D01*
X150812837Y-122473768D01*
X151161571Y-122645000D01*
X150224469Y-122645000D01*
X150224469Y-119707629D01*
X150398600Y-119558963D01*
X150398600Y-118733400D01*
X149432866Y-118733400D01*
X149432866Y-118479400D01*
X150398600Y-118479400D01*
X150398600Y-117653837D01*
X150224469Y-117505171D01*
X149814551Y-117646832D01*
X149490048Y-117934579D01*
X149306332Y-118308462D01*
X149432866Y-118479400D01*
X149432866Y-118733400D01*
X149306332Y-118904338D01*
X149490048Y-119278221D01*
X149814551Y-119565968D01*
X150224469Y-119707629D01*
X150224469Y-122645000D01*
X145826731Y-122645000D01*
X145826731Y-119707629D01*
X146236649Y-119565968D01*
X146561152Y-119278221D01*
X146744868Y-118904338D01*
X146618334Y-118733400D01*
X145652600Y-118733400D01*
X145652600Y-118479400D01*
X146618334Y-118479400D01*
X146744868Y-118308462D01*
X146561152Y-117934579D01*
X146236649Y-117646832D01*
X145826731Y-117505171D01*
X145652600Y-117653837D01*
X145652600Y-118479400D01*
X145652600Y-118733400D01*
X145652600Y-119558963D01*
X145826731Y-119707629D01*
X145826731Y-122645000D01*
X144889629Y-122645000D01*
X145238363Y-122473768D01*
X145525602Y-122133078D01*
X145660600Y-121708400D01*
X145660600Y-121433400D01*
X144652600Y-121433400D01*
X144652600Y-121179400D01*
X145660600Y-121179400D01*
X145660600Y-120904400D01*
X145525602Y-120479722D01*
X145238363Y-120139032D01*
X145224469Y-120132210D01*
X145224469Y-119707629D01*
X145398600Y-119558963D01*
X145398600Y-118733400D01*
X144432866Y-118733400D01*
X144432866Y-118479400D01*
X145398600Y-118479400D01*
X145398600Y-117653837D01*
X145224469Y-117505171D01*
X144814551Y-117646832D01*
X144490048Y-117934579D01*
X144306332Y-118308462D01*
X144432866Y-118479400D01*
X144432866Y-118733400D01*
X144306332Y-118904338D01*
X144490048Y-119278221D01*
X144814551Y-119565968D01*
X145224469Y-119707629D01*
X145224469Y-120132210D01*
X144827474Y-119937281D01*
X144652600Y-120063446D01*
X144652600Y-121179400D01*
X144652600Y-121433400D01*
X144652600Y-121453400D01*
X144398600Y-121453400D01*
X144398600Y-121433400D01*
X143390600Y-121433400D01*
X143390600Y-121179400D01*
X144398600Y-121179400D01*
X144398600Y-120063446D01*
X144223726Y-119937281D01*
X143812837Y-120139032D01*
X143525598Y-120479722D01*
X143390600Y-120904400D01*
X143390600Y-121179400D01*
X143390600Y-121433400D01*
X143390600Y-121708400D01*
X143525598Y-122133078D01*
X143812837Y-122473768D01*
X144161571Y-122645000D01*
X141556700Y-122645000D01*
X141556700Y-99429140D01*
X142953700Y-99429140D01*
X143189017Y-99384862D01*
X143405141Y-99245790D01*
X143550131Y-99033590D01*
X143601140Y-98781700D01*
X143601140Y-98685316D01*
X143664054Y-98837580D01*
X144038847Y-99213027D01*
X144528787Y-99416468D01*
X145059286Y-99416931D01*
X145549580Y-99214346D01*
X145925027Y-98839553D01*
X146065294Y-98501754D01*
X146204054Y-98837580D01*
X146578847Y-99213027D01*
X147068787Y-99416468D01*
X147599286Y-99416931D01*
X148089580Y-99214346D01*
X148465027Y-98839553D01*
X148605294Y-98501754D01*
X148744054Y-98837580D01*
X149118847Y-99213027D01*
X149608787Y-99416468D01*
X150139286Y-99416931D01*
X150629580Y-99214346D01*
X151005027Y-98839553D01*
X151145294Y-98501754D01*
X151284054Y-98837580D01*
X151658847Y-99213027D01*
X152148787Y-99416468D01*
X152679286Y-99416931D01*
X153169580Y-99214346D01*
X153545027Y-98839553D01*
X153685294Y-98501754D01*
X153824054Y-98837580D01*
X154198847Y-99213027D01*
X154688787Y-99416468D01*
X155219286Y-99416931D01*
X155709580Y-99214346D01*
X156085027Y-98839553D01*
X156225294Y-98501754D01*
X156364054Y-98837580D01*
X156738847Y-99213027D01*
X157228787Y-99416468D01*
X157759286Y-99416931D01*
X158249580Y-99214346D01*
X158625027Y-98839553D01*
X158765294Y-98501754D01*
X158904054Y-98837580D01*
X159278847Y-99213027D01*
X159768787Y-99416468D01*
X160299286Y-99416931D01*
X160789580Y-99214346D01*
X161165027Y-98839553D01*
X161305294Y-98501754D01*
X161444054Y-98837580D01*
X161818847Y-99213027D01*
X162308787Y-99416468D01*
X162839286Y-99416931D01*
X163329580Y-99214346D01*
X163705027Y-98839553D01*
X163845294Y-98501754D01*
X163984054Y-98837580D01*
X164358847Y-99213027D01*
X164848787Y-99416468D01*
X165379286Y-99416931D01*
X165869580Y-99214346D01*
X166245027Y-98839553D01*
X166448468Y-98349613D01*
X166448931Y-97819114D01*
X166246346Y-97328820D01*
X165871553Y-96953373D01*
X165381613Y-96749932D01*
X164851114Y-96749469D01*
X164360820Y-96952054D01*
X163985373Y-97326847D01*
X163845106Y-97664646D01*
X163706346Y-97328820D01*
X163331553Y-96953373D01*
X162841613Y-96749932D01*
X162311114Y-96749469D01*
X161820820Y-96952054D01*
X161445373Y-97326847D01*
X161305106Y-97664646D01*
X161166346Y-97328820D01*
X160791553Y-96953373D01*
X160301613Y-96749932D01*
X159771114Y-96749469D01*
X159280820Y-96952054D01*
X158905373Y-97326847D01*
X158765106Y-97664646D01*
X158626346Y-97328820D01*
X158251553Y-96953373D01*
X157761613Y-96749932D01*
X157231114Y-96749469D01*
X156740820Y-96952054D01*
X156365373Y-97326847D01*
X156225106Y-97664646D01*
X156086346Y-97328820D01*
X155711553Y-96953373D01*
X155221613Y-96749932D01*
X154691114Y-96749469D01*
X154200820Y-96952054D01*
X153825373Y-97326847D01*
X153685106Y-97664646D01*
X153546346Y-97328820D01*
X153171553Y-96953373D01*
X152681613Y-96749932D01*
X152151114Y-96749469D01*
X151660820Y-96952054D01*
X151285373Y-97326847D01*
X151145106Y-97664646D01*
X151006346Y-97328820D01*
X150631553Y-96953373D01*
X150141613Y-96749932D01*
X149611114Y-96749469D01*
X149120820Y-96952054D01*
X148745373Y-97326847D01*
X148605106Y-97664646D01*
X148466346Y-97328820D01*
X148091553Y-96953373D01*
X147601613Y-96749932D01*
X147071114Y-96749469D01*
X146580820Y-96952054D01*
X146205373Y-97326847D01*
X146065106Y-97664646D01*
X145926346Y-97328820D01*
X145551553Y-96953373D01*
X145061613Y-96749932D01*
X145059286Y-96749930D01*
X145059286Y-91796931D01*
X145549580Y-91594346D01*
X145925027Y-91219553D01*
X146065294Y-90881754D01*
X146204054Y-91217580D01*
X146578847Y-91593027D01*
X147068787Y-91796468D01*
X147599286Y-91796931D01*
X148089580Y-91594346D01*
X148465027Y-91219553D01*
X148605294Y-90881754D01*
X148744054Y-91217580D01*
X149118847Y-91593027D01*
X149608787Y-91796468D01*
X150139286Y-91796931D01*
X150629580Y-91594346D01*
X151005027Y-91219553D01*
X151145294Y-90881754D01*
X151284054Y-91217580D01*
X151658847Y-91593027D01*
X152148787Y-91796468D01*
X152679286Y-91796931D01*
X153169580Y-91594346D01*
X153545027Y-91219553D01*
X153685294Y-90881754D01*
X153824054Y-91217580D01*
X154198847Y-91593027D01*
X154688787Y-91796468D01*
X155219286Y-91796931D01*
X155709580Y-91594346D01*
X156085027Y-91219553D01*
X156225294Y-90881754D01*
X156364054Y-91217580D01*
X156738847Y-91593027D01*
X157228787Y-91796468D01*
X157759286Y-91796931D01*
X158249580Y-91594346D01*
X158625027Y-91219553D01*
X158765294Y-90881754D01*
X158904054Y-91217580D01*
X159278847Y-91593027D01*
X159768787Y-91796468D01*
X160299286Y-91796931D01*
X160789580Y-91594346D01*
X161165027Y-91219553D01*
X161305294Y-90881754D01*
X161444054Y-91217580D01*
X161818847Y-91593027D01*
X162308787Y-91796468D01*
X162839286Y-91796931D01*
X163329580Y-91594346D01*
X163705027Y-91219553D01*
X163845294Y-90881754D01*
X163984054Y-91217580D01*
X164358847Y-91593027D01*
X164848787Y-91796468D01*
X165379286Y-91796931D01*
X165869580Y-91594346D01*
X166245027Y-91219553D01*
X166448468Y-90729613D01*
X166448931Y-90199114D01*
X166246346Y-89708820D01*
X165871553Y-89333373D01*
X165381613Y-89129932D01*
X164851114Y-89129469D01*
X164360820Y-89332054D01*
X163985373Y-89706847D01*
X163845106Y-90044646D01*
X163706346Y-89708820D01*
X163331553Y-89333373D01*
X162841613Y-89129932D01*
X162311114Y-89129469D01*
X161820820Y-89332054D01*
X161445373Y-89706847D01*
X161305106Y-90044646D01*
X161166346Y-89708820D01*
X160791553Y-89333373D01*
X160301613Y-89129932D01*
X159771114Y-89129469D01*
X159280820Y-89332054D01*
X158905373Y-89706847D01*
X158765106Y-90044646D01*
X158626346Y-89708820D01*
X158251553Y-89333373D01*
X157761613Y-89129932D01*
X157231114Y-89129469D01*
X156740820Y-89332054D01*
X156365373Y-89706847D01*
X156225106Y-90044646D01*
X156086346Y-89708820D01*
X155711553Y-89333373D01*
X155221613Y-89129932D01*
X154691114Y-89129469D01*
X154200820Y-89332054D01*
X153825373Y-89706847D01*
X153685106Y-90044646D01*
X153546346Y-89708820D01*
X153171553Y-89333373D01*
X152681613Y-89129932D01*
X152151114Y-89129469D01*
X151660820Y-89332054D01*
X151285373Y-89706847D01*
X151145106Y-90044646D01*
X151006346Y-89708820D01*
X150631553Y-89333373D01*
X150141613Y-89129932D01*
X149611114Y-89129469D01*
X149120820Y-89332054D01*
X148745373Y-89706847D01*
X148605106Y-90044646D01*
X148466346Y-89708820D01*
X148091553Y-89333373D01*
X147601613Y-89129932D01*
X147071114Y-89129469D01*
X146580820Y-89332054D01*
X146205373Y-89706847D01*
X146065106Y-90044646D01*
X145926346Y-89708820D01*
X145551553Y-89333373D01*
X145061613Y-89129932D01*
X144531114Y-89129469D01*
X144040820Y-89332054D01*
X143665373Y-89706847D01*
X143531886Y-90028318D01*
X143425000Y-89770271D01*
X143189388Y-89708617D01*
X142434805Y-90463200D01*
X143189388Y-91217783D01*
X143425000Y-91156129D01*
X143523283Y-90876888D01*
X143664054Y-91217580D01*
X144038847Y-91593027D01*
X144528787Y-91796468D01*
X145059286Y-91796931D01*
X145059286Y-96749930D01*
X144531114Y-96749469D01*
X144040820Y-96952054D01*
X143665373Y-97326847D01*
X143601140Y-97481537D01*
X143601140Y-97384700D01*
X143556862Y-97149383D01*
X143417790Y-96933259D01*
X143205590Y-96788269D01*
X142953700Y-96737260D01*
X142062680Y-96737260D01*
X142062680Y-91809127D01*
X142592399Y-91780348D01*
X142948129Y-91633000D01*
X143009783Y-91397388D01*
X142255200Y-90642805D01*
X142255200Y-90283595D01*
X143009783Y-89529012D01*
X142948129Y-89293400D01*
X142447720Y-89117273D01*
X141918001Y-89146052D01*
X141562271Y-89293400D01*
X141500617Y-89529012D01*
X142255200Y-90283595D01*
X142255200Y-90642805D01*
X141500617Y-91397388D01*
X141562271Y-91633000D01*
X142062680Y-91809127D01*
X142062680Y-96737260D01*
X141556700Y-96737260D01*
X141321383Y-96781538D01*
X141321012Y-96781776D01*
X141321012Y-91217783D01*
X142075595Y-90463200D01*
X141321012Y-89708617D01*
X141085400Y-89770271D01*
X140909273Y-90270680D01*
X140938052Y-90800399D01*
X141085400Y-91156129D01*
X141321012Y-91217783D01*
X141321012Y-96781776D01*
X141105259Y-96920610D01*
X140960269Y-97132810D01*
X140909260Y-97384700D01*
X140909260Y-98781700D01*
X140953538Y-99017017D01*
X141092610Y-99233141D01*
X141304810Y-99378131D01*
X141556700Y-99429140D01*
X141556700Y-122645000D01*
X140570669Y-122645000D01*
X140570669Y-115485888D01*
X140932829Y-115336247D01*
X141210155Y-115059404D01*
X141360428Y-114697506D01*
X141360770Y-114305649D01*
X141328100Y-114226581D01*
X141328100Y-106181043D01*
X141360428Y-106103188D01*
X141360770Y-105711331D01*
X141211129Y-105349171D01*
X140934286Y-105071845D01*
X140572388Y-104921572D01*
X140180531Y-104921230D01*
X139818371Y-105070871D01*
X139541045Y-105347714D01*
X139390772Y-105709612D01*
X139390430Y-106101469D01*
X139423100Y-106180537D01*
X139423100Y-114226075D01*
X139390772Y-114303930D01*
X139390430Y-114695787D01*
X139540071Y-115057947D01*
X139816914Y-115335273D01*
X140178812Y-115485546D01*
X140570669Y-115485888D01*
X140570669Y-122645000D01*
X132261434Y-122645000D01*
X132261434Y-122511857D01*
X133230258Y-122111547D01*
X133972142Y-121370957D01*
X134374142Y-120402833D01*
X134375057Y-119354566D01*
X133974747Y-118385742D01*
X133234157Y-117643858D01*
X132266033Y-117241858D01*
X131550234Y-117241234D01*
X131550234Y-91422257D01*
X132519058Y-91021947D01*
X133260942Y-90281357D01*
X133662942Y-89313233D01*
X133663857Y-88264966D01*
X133263547Y-87296142D01*
X132522957Y-86554258D01*
X131554833Y-86152258D01*
X130506566Y-86151343D01*
X129537742Y-86551653D01*
X128795858Y-87292243D01*
X128393858Y-88260367D01*
X128392943Y-89308634D01*
X128793253Y-90277458D01*
X129533843Y-91019342D01*
X130501967Y-91421342D01*
X131550234Y-91422257D01*
X131550234Y-117241234D01*
X131217766Y-117240943D01*
X130248942Y-117641253D01*
X129507058Y-118381843D01*
X129105058Y-119349967D01*
X129104143Y-120398234D01*
X129504453Y-121367058D01*
X130245043Y-122108942D01*
X131213167Y-122510942D01*
X132261434Y-122511857D01*
X132261434Y-122645000D01*
X127802776Y-122645000D01*
X127853226Y-86119293D01*
X127853226Y-86119293D01*
G37*
X127853226Y-86119293D02*
X178348073Y-85917112D01*
X178196722Y-122645000D01*
X175115855Y-122645000D01*
X175115855Y-115507600D01*
X175485345Y-115507600D01*
X176058834Y-115393526D01*
X176545015Y-115068670D01*
X176869871Y-114582489D01*
X176983945Y-114009000D01*
X176869871Y-113435511D01*
X176545015Y-112949330D01*
X176230234Y-112739000D01*
X176545015Y-112528670D01*
X176869871Y-112042489D01*
X176983945Y-111469000D01*
X176869871Y-110895511D01*
X176545015Y-110409330D01*
X176230234Y-110199000D01*
X176545015Y-109988670D01*
X176869871Y-109502489D01*
X176983945Y-108929000D01*
X176869871Y-108355511D01*
X176545015Y-107869330D01*
X176530687Y-107859757D01*
X176551917Y-107855762D01*
X176768041Y-107716690D01*
X176913031Y-107504490D01*
X176964040Y-107252600D01*
X176964040Y-105525400D01*
X176919762Y-105290083D01*
X176780690Y-105073959D01*
X176568490Y-104928969D01*
X176316600Y-104877960D01*
X175949434Y-104877960D01*
X175949434Y-91879457D01*
X176918258Y-91479147D01*
X177660142Y-90738557D01*
X178062142Y-89770433D01*
X178063057Y-88722166D01*
X177662747Y-87753342D01*
X176922157Y-87011458D01*
X175954033Y-86609458D01*
X174905766Y-86608543D01*
X173936942Y-87008853D01*
X173195058Y-87749443D01*
X172793058Y-88717567D01*
X172792143Y-89765834D01*
X173192453Y-90734658D01*
X173933043Y-91476542D01*
X174901167Y-91878542D01*
X175949434Y-91879457D01*
X175949434Y-104877960D01*
X174284600Y-104877960D01*
X174049283Y-104922238D01*
X173833159Y-105061310D01*
X173688169Y-105273510D01*
X173637160Y-105525400D01*
X173637160Y-107252600D01*
X173681438Y-107487917D01*
X173820510Y-107704041D01*
X174032710Y-107849031D01*
X174074039Y-107857400D01*
X174056185Y-107869330D01*
X173731329Y-108355511D01*
X173617255Y-108929000D01*
X173731329Y-109502489D01*
X174056185Y-109988670D01*
X174370966Y-110199000D01*
X174056185Y-110409330D01*
X173731329Y-110895511D01*
X173617255Y-111469000D01*
X173731329Y-112042489D01*
X174056185Y-112528670D01*
X174370966Y-112739000D01*
X174056185Y-112949330D01*
X173731329Y-113435511D01*
X173617255Y-114009000D01*
X173731329Y-114582489D01*
X174056185Y-115068670D01*
X174542366Y-115393526D01*
X175115855Y-115507600D01*
X175115855Y-122645000D01*
X169599434Y-122645000D01*
X169599434Y-121089457D01*
X170568258Y-120689147D01*
X171310142Y-119948557D01*
X171712142Y-118980433D01*
X171713057Y-117932166D01*
X171312747Y-116963342D01*
X170572157Y-116221458D01*
X169604033Y-115819458D01*
X168555766Y-115818543D01*
X167586942Y-116218853D01*
X166845058Y-116959443D01*
X166443058Y-117927567D01*
X166442143Y-118975834D01*
X166842453Y-119944658D01*
X167583043Y-120686542D01*
X168551167Y-121088542D01*
X169599434Y-121089457D01*
X169599434Y-122645000D01*
X159620669Y-122645000D01*
X159620669Y-114511570D01*
X159699737Y-114478900D01*
X164353200Y-114478900D01*
X164717706Y-114406395D01*
X165026719Y-114199919D01*
X169624119Y-109602520D01*
X169785155Y-109361512D01*
X169830595Y-109293506D01*
X169903100Y-108929000D01*
X169903100Y-108566843D01*
X169935428Y-108488988D01*
X169935770Y-108097131D01*
X169913472Y-108043166D01*
X173239916Y-104716722D01*
X173317829Y-104684529D01*
X173595155Y-104407686D01*
X173745428Y-104045788D01*
X173745770Y-103653931D01*
X173596129Y-103291771D01*
X173319286Y-103014445D01*
X172957388Y-102864172D01*
X172565531Y-102863830D01*
X172203371Y-103013471D01*
X171926045Y-103290314D01*
X171893237Y-103369325D01*
X168277081Y-106985481D01*
X168070605Y-107294494D01*
X167998100Y-107659000D01*
X167998100Y-108017557D01*
X167965772Y-108095412D01*
X167965430Y-108487269D01*
X167988780Y-108543781D01*
X163958662Y-112573900D01*
X159700243Y-112573900D01*
X159622388Y-112541572D01*
X159230531Y-112541230D01*
X159151463Y-112573900D01*
X157838100Y-112573900D01*
X157838100Y-104165400D01*
X157831794Y-104133695D01*
X157831970Y-103931531D01*
X157682329Y-103569371D01*
X157405486Y-103292045D01*
X157043588Y-103141772D01*
X156651731Y-103141430D01*
X156289571Y-103291071D01*
X156012245Y-103567914D01*
X155953224Y-103710052D01*
X155812388Y-103651572D01*
X155420531Y-103651230D01*
X155058371Y-103800871D01*
X154982710Y-103876400D01*
X149580402Y-103876400D01*
X148980678Y-103276676D01*
X148980770Y-103171331D01*
X148831129Y-102809171D01*
X148554286Y-102531845D01*
X148192388Y-102381572D01*
X147800531Y-102381230D01*
X147438371Y-102530871D01*
X147328526Y-102640524D01*
X147282400Y-102594398D01*
X147282400Y-102055602D01*
X148056402Y-101281600D01*
X148683289Y-101281600D01*
X148757714Y-101356155D01*
X149119612Y-101506428D01*
X149511469Y-101506770D01*
X149873629Y-101357129D01*
X150150955Y-101080286D01*
X150301228Y-100718388D01*
X150301570Y-100326531D01*
X150151929Y-99964371D01*
X149875086Y-99687045D01*
X149513188Y-99536772D01*
X149121331Y-99536430D01*
X148759171Y-99686071D01*
X148683510Y-99761600D01*
X147741600Y-99761600D01*
X147450761Y-99819452D01*
X147450760Y-99819452D01*
X147204199Y-99984199D01*
X145984999Y-101203399D01*
X145820252Y-101449961D01*
X145762400Y-101740800D01*
X145762400Y-102909200D01*
X145820252Y-103200039D01*
X145984999Y-103446601D01*
X147213722Y-104675324D01*
X147213630Y-104780669D01*
X147363271Y-105142829D01*
X147640114Y-105420155D01*
X148002012Y-105570428D01*
X148393869Y-105570770D01*
X148756029Y-105421129D01*
X148893288Y-105284109D01*
X148974761Y-105338548D01*
X149265600Y-105396400D01*
X149680829Y-105396400D01*
X149550772Y-105709612D01*
X149550430Y-106101469D01*
X149700071Y-106463629D01*
X149976914Y-106740955D01*
X150338812Y-106891228D01*
X150445719Y-106891321D01*
X151268199Y-107713801D01*
X151514761Y-107878548D01*
X151805600Y-107936400D01*
X154982489Y-107936400D01*
X155056914Y-108010955D01*
X155418812Y-108161228D01*
X155810669Y-108161570D01*
X155933100Y-108110983D01*
X155933100Y-112573900D01*
X148390138Y-112573900D01*
X146323321Y-110507082D01*
X146291129Y-110429171D01*
X146014286Y-110151845D01*
X145652388Y-110001572D01*
X145260531Y-110001230D01*
X144898371Y-110150871D01*
X144621045Y-110427714D01*
X144470772Y-110789612D01*
X144470430Y-111181469D01*
X144620071Y-111543629D01*
X144896914Y-111820955D01*
X144975924Y-111853763D01*
X147322081Y-114199919D01*
X147631094Y-114406395D01*
X147995600Y-114478900D01*
X159150957Y-114478900D01*
X159228812Y-114511228D01*
X159620669Y-114511570D01*
X159620669Y-122645000D01*
X151889629Y-122645000D01*
X152238363Y-122473768D01*
X152525602Y-122133078D01*
X152660600Y-121708400D01*
X152660600Y-121433400D01*
X151652600Y-121433400D01*
X151652600Y-121179400D01*
X152660600Y-121179400D01*
X152660600Y-120904400D01*
X152525602Y-120479722D01*
X152238363Y-120139032D01*
X151827474Y-119937281D01*
X151652600Y-120063446D01*
X151652600Y-121179400D01*
X151652600Y-121433400D01*
X151652600Y-121453400D01*
X151398600Y-121453400D01*
X151398600Y-121433400D01*
X150390600Y-121433400D01*
X150390600Y-121179400D01*
X151398600Y-121179400D01*
X151398600Y-120063446D01*
X151223726Y-119937281D01*
X150826731Y-120132209D01*
X150826731Y-119707629D01*
X151236649Y-119565968D01*
X151561152Y-119278221D01*
X151744868Y-118904338D01*
X151618334Y-118733400D01*
X150652600Y-118733400D01*
X150652600Y-118479400D01*
X151618334Y-118479400D01*
X151744868Y-118308462D01*
X151561152Y-117934579D01*
X151236649Y-117646832D01*
X150826731Y-117505171D01*
X150652600Y-117653837D01*
X150652600Y-118479400D01*
X150652600Y-118733400D01*
X150652600Y-119558963D01*
X150826731Y-119707629D01*
X150826731Y-120132209D01*
X150812837Y-120139032D01*
X150525598Y-120479722D01*
X150390600Y-120904400D01*
X150390600Y-121179400D01*
X150390600Y-121433400D01*
X150390600Y-121708400D01*
X150525598Y-122133078D01*
X150812837Y-122473768D01*
X151161571Y-122645000D01*
X150224469Y-122645000D01*
X150224469Y-119707629D01*
X150398600Y-119558963D01*
X150398600Y-118733400D01*
X149432866Y-118733400D01*
X149432866Y-118479400D01*
X150398600Y-118479400D01*
X150398600Y-117653837D01*
X150224469Y-117505171D01*
X149814551Y-117646832D01*
X149490048Y-117934579D01*
X149306332Y-118308462D01*
X149432866Y-118479400D01*
X149432866Y-118733400D01*
X149306332Y-118904338D01*
X149490048Y-119278221D01*
X149814551Y-119565968D01*
X150224469Y-119707629D01*
X150224469Y-122645000D01*
X145826731Y-122645000D01*
X145826731Y-119707629D01*
X146236649Y-119565968D01*
X146561152Y-119278221D01*
X146744868Y-118904338D01*
X146618334Y-118733400D01*
X145652600Y-118733400D01*
X145652600Y-118479400D01*
X146618334Y-118479400D01*
X146744868Y-118308462D01*
X146561152Y-117934579D01*
X146236649Y-117646832D01*
X145826731Y-117505171D01*
X145652600Y-117653837D01*
X145652600Y-118479400D01*
X145652600Y-118733400D01*
X145652600Y-119558963D01*
X145826731Y-119707629D01*
X145826731Y-122645000D01*
X144889629Y-122645000D01*
X145238363Y-122473768D01*
X145525602Y-122133078D01*
X145660600Y-121708400D01*
X145660600Y-121433400D01*
X144652600Y-121433400D01*
X144652600Y-121179400D01*
X145660600Y-121179400D01*
X145660600Y-120904400D01*
X145525602Y-120479722D01*
X145238363Y-120139032D01*
X145224469Y-120132210D01*
X145224469Y-119707629D01*
X145398600Y-119558963D01*
X145398600Y-118733400D01*
X144432866Y-118733400D01*
X144432866Y-118479400D01*
X145398600Y-118479400D01*
X145398600Y-117653837D01*
X145224469Y-117505171D01*
X144814551Y-117646832D01*
X144490048Y-117934579D01*
X144306332Y-118308462D01*
X144432866Y-118479400D01*
X144432866Y-118733400D01*
X144306332Y-118904338D01*
X144490048Y-119278221D01*
X144814551Y-119565968D01*
X145224469Y-119707629D01*
X145224469Y-120132210D01*
X144827474Y-119937281D01*
X144652600Y-120063446D01*
X144652600Y-121179400D01*
X144652600Y-121433400D01*
X144652600Y-121453400D01*
X144398600Y-121453400D01*
X144398600Y-121433400D01*
X143390600Y-121433400D01*
X143390600Y-121179400D01*
X144398600Y-121179400D01*
X144398600Y-120063446D01*
X144223726Y-119937281D01*
X143812837Y-120139032D01*
X143525598Y-120479722D01*
X143390600Y-120904400D01*
X143390600Y-121179400D01*
X143390600Y-121433400D01*
X143390600Y-121708400D01*
X143525598Y-122133078D01*
X143812837Y-122473768D01*
X144161571Y-122645000D01*
X141556700Y-122645000D01*
X141556700Y-99429140D01*
X142953700Y-99429140D01*
X143189017Y-99384862D01*
X143405141Y-99245790D01*
X143550131Y-99033590D01*
X143601140Y-98781700D01*
X143601140Y-98685316D01*
X143664054Y-98837580D01*
X144038847Y-99213027D01*
X144528787Y-99416468D01*
X145059286Y-99416931D01*
X145549580Y-99214346D01*
X145925027Y-98839553D01*
X146065294Y-98501754D01*
X146204054Y-98837580D01*
X146578847Y-99213027D01*
X147068787Y-99416468D01*
X147599286Y-99416931D01*
X148089580Y-99214346D01*
X148465027Y-98839553D01*
X148605294Y-98501754D01*
X148744054Y-98837580D01*
X149118847Y-99213027D01*
X149608787Y-99416468D01*
X150139286Y-99416931D01*
X150629580Y-99214346D01*
X151005027Y-98839553D01*
X151145294Y-98501754D01*
X151284054Y-98837580D01*
X151658847Y-99213027D01*
X152148787Y-99416468D01*
X152679286Y-99416931D01*
X153169580Y-99214346D01*
X153545027Y-98839553D01*
X153685294Y-98501754D01*
X153824054Y-98837580D01*
X154198847Y-99213027D01*
X154688787Y-99416468D01*
X155219286Y-99416931D01*
X155709580Y-99214346D01*
X156085027Y-98839553D01*
X156225294Y-98501754D01*
X156364054Y-98837580D01*
X156738847Y-99213027D01*
X157228787Y-99416468D01*
X157759286Y-99416931D01*
X158249580Y-99214346D01*
X158625027Y-98839553D01*
X158765294Y-98501754D01*
X158904054Y-98837580D01*
X159278847Y-99213027D01*
X159768787Y-99416468D01*
X160299286Y-99416931D01*
X160789580Y-99214346D01*
X161165027Y-98839553D01*
X161305294Y-98501754D01*
X161444054Y-98837580D01*
X161818847Y-99213027D01*
X162308787Y-99416468D01*
X162839286Y-99416931D01*
X163329580Y-99214346D01*
X163705027Y-98839553D01*
X163845294Y-98501754D01*
X163984054Y-98837580D01*
X164358847Y-99213027D01*
X164848787Y-99416468D01*
X165379286Y-99416931D01*
X165869580Y-99214346D01*
X166245027Y-98839553D01*
X166448468Y-98349613D01*
X166448931Y-97819114D01*
X166246346Y-97328820D01*
X165871553Y-96953373D01*
X165381613Y-96749932D01*
X164851114Y-96749469D01*
X164360820Y-96952054D01*
X163985373Y-97326847D01*
X163845106Y-97664646D01*
X163706346Y-97328820D01*
X163331553Y-96953373D01*
X162841613Y-96749932D01*
X162311114Y-96749469D01*
X161820820Y-96952054D01*
X161445373Y-97326847D01*
X161305106Y-97664646D01*
X161166346Y-97328820D01*
X160791553Y-96953373D01*
X160301613Y-96749932D01*
X159771114Y-96749469D01*
X159280820Y-96952054D01*
X158905373Y-97326847D01*
X158765106Y-97664646D01*
X158626346Y-97328820D01*
X158251553Y-96953373D01*
X157761613Y-96749932D01*
X157231114Y-96749469D01*
X156740820Y-96952054D01*
X156365373Y-97326847D01*
X156225106Y-97664646D01*
X156086346Y-97328820D01*
X155711553Y-96953373D01*
X155221613Y-96749932D01*
X154691114Y-96749469D01*
X154200820Y-96952054D01*
X153825373Y-97326847D01*
X153685106Y-97664646D01*
X153546346Y-97328820D01*
X153171553Y-96953373D01*
X152681613Y-96749932D01*
X152151114Y-96749469D01*
X151660820Y-96952054D01*
X151285373Y-97326847D01*
X151145106Y-97664646D01*
X151006346Y-97328820D01*
X150631553Y-96953373D01*
X150141613Y-96749932D01*
X149611114Y-96749469D01*
X149120820Y-96952054D01*
X148745373Y-97326847D01*
X148605106Y-97664646D01*
X148466346Y-97328820D01*
X148091553Y-96953373D01*
X147601613Y-96749932D01*
X147071114Y-96749469D01*
X146580820Y-96952054D01*
X146205373Y-97326847D01*
X146065106Y-97664646D01*
X145926346Y-97328820D01*
X145551553Y-96953373D01*
X145061613Y-96749932D01*
X145059286Y-96749930D01*
X145059286Y-91796931D01*
X145549580Y-91594346D01*
X145925027Y-91219553D01*
X146065294Y-90881754D01*
X146204054Y-91217580D01*
X146578847Y-91593027D01*
X147068787Y-91796468D01*
X147599286Y-91796931D01*
X148089580Y-91594346D01*
X148465027Y-91219553D01*
X148605294Y-90881754D01*
X148744054Y-91217580D01*
X149118847Y-91593027D01*
X149608787Y-91796468D01*
X150139286Y-91796931D01*
X150629580Y-91594346D01*
X151005027Y-91219553D01*
X151145294Y-90881754D01*
X151284054Y-91217580D01*
X151658847Y-91593027D01*
X152148787Y-91796468D01*
X152679286Y-91796931D01*
X153169580Y-91594346D01*
X153545027Y-91219553D01*
X153685294Y-90881754D01*
X153824054Y-91217580D01*
X154198847Y-91593027D01*
X154688787Y-91796468D01*
X155219286Y-91796931D01*
X155709580Y-91594346D01*
X156085027Y-91219553D01*
X156225294Y-90881754D01*
X156364054Y-91217580D01*
X156738847Y-91593027D01*
X157228787Y-91796468D01*
X157759286Y-91796931D01*
X158249580Y-91594346D01*
X158625027Y-91219553D01*
X158765294Y-90881754D01*
X158904054Y-91217580D01*
X159278847Y-91593027D01*
X159768787Y-91796468D01*
X160299286Y-91796931D01*
X160789580Y-91594346D01*
X161165027Y-91219553D01*
X161305294Y-90881754D01*
X161444054Y-91217580D01*
X161818847Y-91593027D01*
X162308787Y-91796468D01*
X162839286Y-91796931D01*
X163329580Y-91594346D01*
X163705027Y-91219553D01*
X163845294Y-90881754D01*
X163984054Y-91217580D01*
X164358847Y-91593027D01*
X164848787Y-91796468D01*
X165379286Y-91796931D01*
X165869580Y-91594346D01*
X166245027Y-91219553D01*
X166448468Y-90729613D01*
X166448931Y-90199114D01*
X166246346Y-89708820D01*
X165871553Y-89333373D01*
X165381613Y-89129932D01*
X164851114Y-89129469D01*
X164360820Y-89332054D01*
X163985373Y-89706847D01*
X163845106Y-90044646D01*
X163706346Y-89708820D01*
X163331553Y-89333373D01*
X162841613Y-89129932D01*
X162311114Y-89129469D01*
X161820820Y-89332054D01*
X161445373Y-89706847D01*
X161305106Y-90044646D01*
X161166346Y-89708820D01*
X160791553Y-89333373D01*
X160301613Y-89129932D01*
X159771114Y-89129469D01*
X159280820Y-89332054D01*
X158905373Y-89706847D01*
X158765106Y-90044646D01*
X158626346Y-89708820D01*
X158251553Y-89333373D01*
X157761613Y-89129932D01*
X157231114Y-89129469D01*
X156740820Y-89332054D01*
X156365373Y-89706847D01*
X156225106Y-90044646D01*
X156086346Y-89708820D01*
X155711553Y-89333373D01*
X155221613Y-89129932D01*
X154691114Y-89129469D01*
X154200820Y-89332054D01*
X153825373Y-89706847D01*
X153685106Y-90044646D01*
X153546346Y-89708820D01*
X153171553Y-89333373D01*
X152681613Y-89129932D01*
X152151114Y-89129469D01*
X151660820Y-89332054D01*
X151285373Y-89706847D01*
X151145106Y-90044646D01*
X151006346Y-89708820D01*
X150631553Y-89333373D01*
X150141613Y-89129932D01*
X149611114Y-89129469D01*
X149120820Y-89332054D01*
X148745373Y-89706847D01*
X148605106Y-90044646D01*
X148466346Y-89708820D01*
X148091553Y-89333373D01*
X147601613Y-89129932D01*
X147071114Y-89129469D01*
X146580820Y-89332054D01*
X146205373Y-89706847D01*
X146065106Y-90044646D01*
X145926346Y-89708820D01*
X145551553Y-89333373D01*
X145061613Y-89129932D01*
X144531114Y-89129469D01*
X144040820Y-89332054D01*
X143665373Y-89706847D01*
X143531886Y-90028318D01*
X143425000Y-89770271D01*
X143189388Y-89708617D01*
X142434805Y-90463200D01*
X143189388Y-91217783D01*
X143425000Y-91156129D01*
X143523283Y-90876888D01*
X143664054Y-91217580D01*
X144038847Y-91593027D01*
X144528787Y-91796468D01*
X145059286Y-91796931D01*
X145059286Y-96749930D01*
X144531114Y-96749469D01*
X144040820Y-96952054D01*
X143665373Y-97326847D01*
X143601140Y-97481537D01*
X143601140Y-97384700D01*
X143556862Y-97149383D01*
X143417790Y-96933259D01*
X143205590Y-96788269D01*
X142953700Y-96737260D01*
X142062680Y-96737260D01*
X142062680Y-91809127D01*
X142592399Y-91780348D01*
X142948129Y-91633000D01*
X143009783Y-91397388D01*
X142255200Y-90642805D01*
X142255200Y-90283595D01*
X143009783Y-89529012D01*
X142948129Y-89293400D01*
X142447720Y-89117273D01*
X141918001Y-89146052D01*
X141562271Y-89293400D01*
X141500617Y-89529012D01*
X142255200Y-90283595D01*
X142255200Y-90642805D01*
X141500617Y-91397388D01*
X141562271Y-91633000D01*
X142062680Y-91809127D01*
X142062680Y-96737260D01*
X141556700Y-96737260D01*
X141321383Y-96781538D01*
X141321012Y-96781776D01*
X141321012Y-91217783D01*
X142075595Y-90463200D01*
X141321012Y-89708617D01*
X141085400Y-89770271D01*
X140909273Y-90270680D01*
X140938052Y-90800399D01*
X141085400Y-91156129D01*
X141321012Y-91217783D01*
X141321012Y-96781776D01*
X141105259Y-96920610D01*
X140960269Y-97132810D01*
X140909260Y-97384700D01*
X140909260Y-98781700D01*
X140953538Y-99017017D01*
X141092610Y-99233141D01*
X141304810Y-99378131D01*
X141556700Y-99429140D01*
X141556700Y-122645000D01*
X140570669Y-122645000D01*
X140570669Y-115485888D01*
X140932829Y-115336247D01*
X141210155Y-115059404D01*
X141360428Y-114697506D01*
X141360770Y-114305649D01*
X141328100Y-114226581D01*
X141328100Y-106181043D01*
X141360428Y-106103188D01*
X141360770Y-105711331D01*
X141211129Y-105349171D01*
X140934286Y-105071845D01*
X140572388Y-104921572D01*
X140180531Y-104921230D01*
X139818371Y-105070871D01*
X139541045Y-105347714D01*
X139390772Y-105709612D01*
X139390430Y-106101469D01*
X139423100Y-106180537D01*
X139423100Y-114226075D01*
X139390772Y-114303930D01*
X139390430Y-114695787D01*
X139540071Y-115057947D01*
X139816914Y-115335273D01*
X140178812Y-115485546D01*
X140570669Y-115485888D01*
X140570669Y-122645000D01*
X132261434Y-122645000D01*
X132261434Y-122511857D01*
X133230258Y-122111547D01*
X133972142Y-121370957D01*
X134374142Y-120402833D01*
X134375057Y-119354566D01*
X133974747Y-118385742D01*
X133234157Y-117643858D01*
X132266033Y-117241858D01*
X131550234Y-117241234D01*
X131550234Y-91422257D01*
X132519058Y-91021947D01*
X133260942Y-90281357D01*
X133662942Y-89313233D01*
X133663857Y-88264966D01*
X133263547Y-87296142D01*
X132522957Y-86554258D01*
X131554833Y-86152258D01*
X130506566Y-86151343D01*
X129537742Y-86551653D01*
X128795858Y-87292243D01*
X128393858Y-88260367D01*
X128392943Y-89308634D01*
X128793253Y-90277458D01*
X129533843Y-91019342D01*
X130501967Y-91421342D01*
X131550234Y-91422257D01*
X131550234Y-117241234D01*
X131217766Y-117240943D01*
X130248942Y-117641253D01*
X129507058Y-118381843D01*
X129105058Y-119349967D01*
X129104143Y-120398234D01*
X129504453Y-121367058D01*
X130245043Y-122108942D01*
X131213167Y-122510942D01*
X132261434Y-122511857D01*
X132261434Y-122645000D01*
X127802776Y-122645000D01*
X127853226Y-86119293D01*
G36*
X156343285Y-43606127D02*
X155460626Y-44487247D01*
X154982346Y-45639074D01*
X154981257Y-46886254D01*
X155457527Y-48038915D01*
X156338647Y-48921574D01*
X157490474Y-49399854D01*
X158737654Y-49400943D01*
X159890315Y-48924673D01*
X160772974Y-48043553D01*
X161164800Y-47099931D01*
X161164800Y-50589520D01*
X161063543Y-50741062D01*
X161011400Y-51003200D01*
X161063543Y-51265338D01*
X161164800Y-51416880D01*
X161164800Y-71467676D01*
X160776073Y-70526885D01*
X159894953Y-69644226D01*
X158743126Y-69165946D01*
X157495946Y-69164857D01*
X156343285Y-69641127D01*
X155460626Y-70522247D01*
X154982346Y-71674074D01*
X154981257Y-72921254D01*
X155457527Y-74073915D01*
X156338647Y-74956574D01*
X157282269Y-75348400D01*
X131644524Y-75348400D01*
X132585315Y-74959673D01*
X133467974Y-74078553D01*
X133946254Y-72926726D01*
X133947343Y-71679546D01*
X133471073Y-70526885D01*
X132589953Y-69644226D01*
X131438126Y-69165946D01*
X130190946Y-69164857D01*
X129038285Y-69641127D01*
X128155626Y-70522247D01*
X127763800Y-71465869D01*
X127763800Y-66116277D01*
X138125528Y-66116277D01*
X138285295Y-66435032D01*
X139076017Y-66744995D01*
X139925166Y-66728767D01*
X140634305Y-66435032D01*
X140794072Y-66116277D01*
X151841528Y-66116277D01*
X152001295Y-66435032D01*
X152792017Y-66744995D01*
X153641166Y-66728767D01*
X154350305Y-66435032D01*
X154510072Y-66116277D01*
X153175800Y-64782005D01*
X151841528Y-66116277D01*
X140794072Y-66116277D01*
X139459800Y-64782005D01*
X138125528Y-66116277D01*
X127763800Y-66116277D01*
X127763800Y-64218617D01*
X137317205Y-64218617D01*
X137333433Y-65067766D01*
X137627168Y-65776905D01*
X137945923Y-65936672D01*
X139280195Y-64602400D01*
X139639405Y-64602400D01*
X140973677Y-65936672D01*
X141292432Y-65776905D01*
X141602395Y-64986183D01*
X141587727Y-64218617D01*
X151033205Y-64218617D01*
X151049433Y-65067766D01*
X151343168Y-65776905D01*
X151661923Y-65936672D01*
X152996195Y-64602400D01*
X153355405Y-64602400D01*
X154689677Y-65936672D01*
X155008432Y-65776905D01*
X155318395Y-64986183D01*
X155302167Y-64137034D01*
X155008432Y-63427895D01*
X154689677Y-63268128D01*
X153355405Y-64602400D01*
X152996195Y-64602400D01*
X151661923Y-63268128D01*
X151343168Y-63427895D01*
X151033205Y-64218617D01*
X141587727Y-64218617D01*
X141586167Y-64137034D01*
X141292432Y-63427895D01*
X140973677Y-63268128D01*
X139639405Y-64602400D01*
X139280195Y-64602400D01*
X137945923Y-63268128D01*
X137627168Y-63427895D01*
X137317205Y-64218617D01*
X127763800Y-64218617D01*
X127763800Y-63088523D01*
X138125528Y-63088523D01*
X139459800Y-64422795D01*
X140794072Y-63088523D01*
X140634305Y-62769768D01*
X139843583Y-62459805D01*
X138994434Y-62476033D01*
X138285295Y-62769768D01*
X138125528Y-63088523D01*
X127763800Y-63088523D01*
X127763800Y-62209798D01*
X141629990Y-62209798D01*
X141840486Y-62719237D01*
X142229913Y-63109344D01*
X142738984Y-63320729D01*
X143290198Y-63321210D01*
X143799637Y-63110714D01*
X144189744Y-62721287D01*
X144285775Y-62490019D01*
X144380486Y-62719237D01*
X144769913Y-63109344D01*
X145278984Y-63320729D01*
X145830198Y-63321210D01*
X146339637Y-63110714D01*
X146571863Y-62878893D01*
X146801913Y-63109344D01*
X147310984Y-63320729D01*
X147862198Y-63321210D01*
X148371637Y-63110714D01*
X148575376Y-62907330D01*
X149335475Y-62907330D01*
X149403535Y-63148331D01*
X149922834Y-63333167D01*
X150473338Y-63305205D01*
X150852065Y-63148331D01*
X150868955Y-63088523D01*
X151841528Y-63088523D01*
X153175800Y-64422795D01*
X154510072Y-63088523D01*
X154429515Y-62927800D01*
X159108200Y-62927800D01*
X159108200Y-66102800D01*
X159160343Y-66364938D01*
X159308832Y-66587168D01*
X159531062Y-66735657D01*
X159793200Y-66787800D01*
X160055338Y-66735657D01*
X160277568Y-66587168D01*
X160426057Y-66364938D01*
X160478200Y-66102800D01*
X160478200Y-62927800D01*
X160426057Y-62665662D01*
X160277568Y-62443432D01*
X160055338Y-62294943D01*
X159793200Y-62242800D01*
X159531062Y-62294943D01*
X159308832Y-62443432D01*
X159160343Y-62665662D01*
X159108200Y-62927800D01*
X154429515Y-62927800D01*
X154350305Y-62769768D01*
X153559583Y-62459805D01*
X152710434Y-62476033D01*
X152001295Y-62769768D01*
X151841528Y-63088523D01*
X150868955Y-63088523D01*
X150920125Y-62907330D01*
X150127800Y-62115005D01*
X149335475Y-62907330D01*
X148575376Y-62907330D01*
X148761744Y-62721287D01*
X148851179Y-62505904D01*
X148914869Y-62659665D01*
X149155870Y-62727725D01*
X149948195Y-61935400D01*
X150307405Y-61935400D01*
X151099730Y-62727725D01*
X151340731Y-62659665D01*
X151525567Y-62140366D01*
X151497605Y-61589862D01*
X151340731Y-61211135D01*
X151099730Y-61143075D01*
X150307405Y-61935400D01*
X149948195Y-61935400D01*
X149155870Y-61143075D01*
X148914869Y-61211135D01*
X148856031Y-61376440D01*
X148763114Y-61151563D01*
X148575349Y-60963470D01*
X149335475Y-60963470D01*
X150127800Y-61755795D01*
X150920125Y-60963470D01*
X150852065Y-60722469D01*
X150332766Y-60537633D01*
X149782262Y-60565595D01*
X149403535Y-60722469D01*
X149335475Y-60963470D01*
X148575349Y-60963470D01*
X148373687Y-60761456D01*
X147864616Y-60550071D01*
X147313402Y-60549590D01*
X146803963Y-60760086D01*
X146571737Y-60991907D01*
X146341687Y-60761456D01*
X145832616Y-60550071D01*
X145281402Y-60549590D01*
X144771963Y-60760086D01*
X144381856Y-61149513D01*
X144285825Y-61380781D01*
X144191114Y-61151563D01*
X143801687Y-60761456D01*
X143292616Y-60550071D01*
X142741402Y-60549590D01*
X142231963Y-60760086D01*
X141841856Y-61149513D01*
X141630471Y-61658584D01*
X141629990Y-62209798D01*
X127763800Y-62209798D01*
X127763800Y-47098124D01*
X128152527Y-48038915D01*
X129033647Y-48921574D01*
X130185474Y-49399854D01*
X131432654Y-49400943D01*
X132585315Y-48924673D01*
X133467974Y-48043553D01*
X133946254Y-46891726D01*
X133946518Y-46588572D01*
X136919338Y-46588572D01*
X137324509Y-47569161D01*
X138074093Y-48320055D01*
X139053973Y-48726936D01*
X140114972Y-48727862D01*
X141095561Y-48322691D01*
X141255009Y-48163521D01*
X148778284Y-48163521D01*
X149002954Y-48537568D01*
X149986188Y-48936280D01*
X151047157Y-48928375D01*
X151990646Y-48537568D01*
X152215316Y-48163521D01*
X150496800Y-46445005D01*
X148778284Y-48163521D01*
X141255009Y-48163521D01*
X141846455Y-47573107D01*
X142253336Y-46593227D01*
X142254067Y-45754788D01*
X147825920Y-45754788D01*
X147833825Y-46815757D01*
X148224632Y-47759246D01*
X148598679Y-47983916D01*
X150317195Y-46265400D01*
X150676405Y-46265400D01*
X152394921Y-47983916D01*
X152768968Y-47759246D01*
X153167680Y-46776012D01*
X153159775Y-45715043D01*
X152768968Y-44771554D01*
X152394921Y-44546884D01*
X150676405Y-46265400D01*
X150317195Y-46265400D01*
X148598679Y-44546884D01*
X148224632Y-44771554D01*
X147825920Y-45754788D01*
X142254067Y-45754788D01*
X142254262Y-45532228D01*
X141849091Y-44551639D01*
X141665053Y-44367279D01*
X148778284Y-44367279D01*
X150496800Y-46085795D01*
X152215316Y-44367279D01*
X151990646Y-43993232D01*
X151007412Y-43594520D01*
X149946443Y-43602425D01*
X149002954Y-43993232D01*
X148778284Y-44367279D01*
X141665053Y-44367279D01*
X141099507Y-43800745D01*
X140119627Y-43393864D01*
X139058628Y-43392938D01*
X138078039Y-43798109D01*
X137327145Y-44547693D01*
X136920264Y-45527573D01*
X136919338Y-46588572D01*
X133946518Y-46588572D01*
X133947343Y-45644546D01*
X133471073Y-44491885D01*
X132589953Y-43609226D01*
X131646331Y-43217400D01*
X157284076Y-43217400D01*
X156343285Y-43606127D01*
X156343285Y-43606127D01*
G37*
X156343285Y-43606127D02*
X155460626Y-44487247D01*
X154982346Y-45639074D01*
X154981257Y-46886254D01*
X155457527Y-48038915D01*
X156338647Y-48921574D01*
X157490474Y-49399854D01*
X158737654Y-49400943D01*
X159890315Y-48924673D01*
X160772974Y-48043553D01*
X161164800Y-47099931D01*
X161164800Y-50589520D01*
X161063543Y-50741062D01*
X161011400Y-51003200D01*
X161063543Y-51265338D01*
X161164800Y-51416880D01*
X161164800Y-71467676D01*
X160776073Y-70526885D01*
X159894953Y-69644226D01*
X158743126Y-69165946D01*
X157495946Y-69164857D01*
X156343285Y-69641127D01*
X155460626Y-70522247D01*
X154982346Y-71674074D01*
X154981257Y-72921254D01*
X155457527Y-74073915D01*
X156338647Y-74956574D01*
X157282269Y-75348400D01*
X131644524Y-75348400D01*
X132585315Y-74959673D01*
X133467974Y-74078553D01*
X133946254Y-72926726D01*
X133947343Y-71679546D01*
X133471073Y-70526885D01*
X132589953Y-69644226D01*
X131438126Y-69165946D01*
X130190946Y-69164857D01*
X129038285Y-69641127D01*
X128155626Y-70522247D01*
X127763800Y-71465869D01*
X127763800Y-66116277D01*
X138125528Y-66116277D01*
X138285295Y-66435032D01*
X139076017Y-66744995D01*
X139925166Y-66728767D01*
X140634305Y-66435032D01*
X140794072Y-66116277D01*
X151841528Y-66116277D01*
X152001295Y-66435032D01*
X152792017Y-66744995D01*
X153641166Y-66728767D01*
X154350305Y-66435032D01*
X154510072Y-66116277D01*
X153175800Y-64782005D01*
X151841528Y-66116277D01*
X140794072Y-66116277D01*
X139459800Y-64782005D01*
X138125528Y-66116277D01*
X127763800Y-66116277D01*
X127763800Y-64218617D01*
X137317205Y-64218617D01*
X137333433Y-65067766D01*
X137627168Y-65776905D01*
X137945923Y-65936672D01*
X139280195Y-64602400D01*
X139639405Y-64602400D01*
X140973677Y-65936672D01*
X141292432Y-65776905D01*
X141602395Y-64986183D01*
X141587727Y-64218617D01*
X151033205Y-64218617D01*
X151049433Y-65067766D01*
X151343168Y-65776905D01*
X151661923Y-65936672D01*
X152996195Y-64602400D01*
X153355405Y-64602400D01*
X154689677Y-65936672D01*
X155008432Y-65776905D01*
X155318395Y-64986183D01*
X155302167Y-64137034D01*
X155008432Y-63427895D01*
X154689677Y-63268128D01*
X153355405Y-64602400D01*
X152996195Y-64602400D01*
X151661923Y-63268128D01*
X151343168Y-63427895D01*
X151033205Y-64218617D01*
X141587727Y-64218617D01*
X141586167Y-64137034D01*
X141292432Y-63427895D01*
X140973677Y-63268128D01*
X139639405Y-64602400D01*
X139280195Y-64602400D01*
X137945923Y-63268128D01*
X137627168Y-63427895D01*
X137317205Y-64218617D01*
X127763800Y-64218617D01*
X127763800Y-63088523D01*
X138125528Y-63088523D01*
X139459800Y-64422795D01*
X140794072Y-63088523D01*
X140634305Y-62769768D01*
X139843583Y-62459805D01*
X138994434Y-62476033D01*
X138285295Y-62769768D01*
X138125528Y-63088523D01*
X127763800Y-63088523D01*
X127763800Y-62209798D01*
X141629990Y-62209798D01*
X141840486Y-62719237D01*
X142229913Y-63109344D01*
X142738984Y-63320729D01*
X143290198Y-63321210D01*
X143799637Y-63110714D01*
X144189744Y-62721287D01*
X144285775Y-62490019D01*
X144380486Y-62719237D01*
X144769913Y-63109344D01*
X145278984Y-63320729D01*
X145830198Y-63321210D01*
X146339637Y-63110714D01*
X146571863Y-62878893D01*
X146801913Y-63109344D01*
X147310984Y-63320729D01*
X147862198Y-63321210D01*
X148371637Y-63110714D01*
X148575376Y-62907330D01*
X149335475Y-62907330D01*
X149403535Y-63148331D01*
X149922834Y-63333167D01*
X150473338Y-63305205D01*
X150852065Y-63148331D01*
X150868955Y-63088523D01*
X151841528Y-63088523D01*
X153175800Y-64422795D01*
X154510072Y-63088523D01*
X154429515Y-62927800D01*
X159108200Y-62927800D01*
X159108200Y-66102800D01*
X159160343Y-66364938D01*
X159308832Y-66587168D01*
X159531062Y-66735657D01*
X159793200Y-66787800D01*
X160055338Y-66735657D01*
X160277568Y-66587168D01*
X160426057Y-66364938D01*
X160478200Y-66102800D01*
X160478200Y-62927800D01*
X160426057Y-62665662D01*
X160277568Y-62443432D01*
X160055338Y-62294943D01*
X159793200Y-62242800D01*
X159531062Y-62294943D01*
X159308832Y-62443432D01*
X159160343Y-62665662D01*
X159108200Y-62927800D01*
X154429515Y-62927800D01*
X154350305Y-62769768D01*
X153559583Y-62459805D01*
X152710434Y-62476033D01*
X152001295Y-62769768D01*
X151841528Y-63088523D01*
X150868955Y-63088523D01*
X150920125Y-62907330D01*
X150127800Y-62115005D01*
X149335475Y-62907330D01*
X148575376Y-62907330D01*
X148761744Y-62721287D01*
X148851179Y-62505904D01*
X148914869Y-62659665D01*
X149155870Y-62727725D01*
X149948195Y-61935400D01*
X150307405Y-61935400D01*
X151099730Y-62727725D01*
X151340731Y-62659665D01*
X151525567Y-62140366D01*
X151497605Y-61589862D01*
X151340731Y-61211135D01*
X151099730Y-61143075D01*
X150307405Y-61935400D01*
X149948195Y-61935400D01*
X149155870Y-61143075D01*
X148914869Y-61211135D01*
X148856031Y-61376440D01*
X148763114Y-61151563D01*
X148575349Y-60963470D01*
X149335475Y-60963470D01*
X150127800Y-61755795D01*
X150920125Y-60963470D01*
X150852065Y-60722469D01*
X150332766Y-60537633D01*
X149782262Y-60565595D01*
X149403535Y-60722469D01*
X149335475Y-60963470D01*
X148575349Y-60963470D01*
X148373687Y-60761456D01*
X147864616Y-60550071D01*
X147313402Y-60549590D01*
X146803963Y-60760086D01*
X146571737Y-60991907D01*
X146341687Y-60761456D01*
X145832616Y-60550071D01*
X145281402Y-60549590D01*
X144771963Y-60760086D01*
X144381856Y-61149513D01*
X144285825Y-61380781D01*
X144191114Y-61151563D01*
X143801687Y-60761456D01*
X143292616Y-60550071D01*
X142741402Y-60549590D01*
X142231963Y-60760086D01*
X141841856Y-61149513D01*
X141630471Y-61658584D01*
X141629990Y-62209798D01*
X127763800Y-62209798D01*
X127763800Y-47098124D01*
X128152527Y-48038915D01*
X129033647Y-48921574D01*
X130185474Y-49399854D01*
X131432654Y-49400943D01*
X132585315Y-48924673D01*
X133467974Y-48043553D01*
X133946254Y-46891726D01*
X133946518Y-46588572D01*
X136919338Y-46588572D01*
X137324509Y-47569161D01*
X138074093Y-48320055D01*
X139053973Y-48726936D01*
X140114972Y-48727862D01*
X141095561Y-48322691D01*
X141255009Y-48163521D01*
X148778284Y-48163521D01*
X149002954Y-48537568D01*
X149986188Y-48936280D01*
X151047157Y-48928375D01*
X151990646Y-48537568D01*
X152215316Y-48163521D01*
X150496800Y-46445005D01*
X148778284Y-48163521D01*
X141255009Y-48163521D01*
X141846455Y-47573107D01*
X142253336Y-46593227D01*
X142254067Y-45754788D01*
X147825920Y-45754788D01*
X147833825Y-46815757D01*
X148224632Y-47759246D01*
X148598679Y-47983916D01*
X150317195Y-46265400D01*
X150676405Y-46265400D01*
X152394921Y-47983916D01*
X152768968Y-47759246D01*
X153167680Y-46776012D01*
X153159775Y-45715043D01*
X152768968Y-44771554D01*
X152394921Y-44546884D01*
X150676405Y-46265400D01*
X150317195Y-46265400D01*
X148598679Y-44546884D01*
X148224632Y-44771554D01*
X147825920Y-45754788D01*
X142254067Y-45754788D01*
X142254262Y-45532228D01*
X141849091Y-44551639D01*
X141665053Y-44367279D01*
X148778284Y-44367279D01*
X150496800Y-46085795D01*
X152215316Y-44367279D01*
X151990646Y-43993232D01*
X151007412Y-43594520D01*
X149946443Y-43602425D01*
X149002954Y-43993232D01*
X148778284Y-44367279D01*
X141665053Y-44367279D01*
X141099507Y-43800745D01*
X140119627Y-43393864D01*
X139058628Y-43392938D01*
X138078039Y-43798109D01*
X137327145Y-44547693D01*
X136920264Y-45527573D01*
X136919338Y-46588572D01*
X133946518Y-46588572D01*
X133947343Y-45644546D01*
X133471073Y-44491885D01*
X132589953Y-43609226D01*
X131646331Y-43217400D01*
X157284076Y-43217400D01*
X156343285Y-43606127D01*
M02*
