%FSLAX45Y45*%
G04 Gerber Fmt 4.5, Leading zero omitted, Abs format (unit mm)*
G04 Created by KiCad (PCBNEW (2015-07-31 BZR 6030)-product) date Fri Sep 11 13:47:43 2015*
%MOMM*%
G01*
G04 APERTURE LIST*
%ADD10C,0.127000*%
%ADD11C,0.100000*%
%ADD12C,0.200000*%
%ADD13C,0.300000*%
G04 APERTURE END LIST*
D10*
D11*
X13863500Y-10963840D02*
X13863500Y-10958760D01*
X18227220Y-10963840D02*
X13863500Y-10963840D01*
X13863320Y-8077200D02*
X13873480Y-8087360D01*
X13863320Y-10957560D02*
X13863320Y-8077200D01*
X13878560Y-8082280D02*
X18206720Y-8082280D01*
X13863320Y-8077200D02*
X13873480Y-8087360D01*
X13863320Y-10957560D02*
X13863320Y-8077200D01*
X13878560Y-8082280D02*
X18206720Y-8082280D01*
X22153880Y-17145000D02*
X22158960Y-17150080D01*
X22189440Y-17145000D02*
X22153880Y-17145000D01*
X22240240Y-17145000D02*
X22189440Y-17145000D01*
X22240240Y-10967720D02*
X22240240Y-17145000D01*
X13888720Y-17145000D02*
X13888720Y-10967720D01*
X22158960Y-17145000D02*
X13888720Y-17145000D01*
X18221960Y-5562600D02*
X18232120Y-5572760D01*
X18221960Y-10967720D02*
X18221960Y-5562600D01*
X22240240Y-10967720D02*
X18221960Y-10967720D01*
X22240240Y-5552440D02*
X22240240Y-10967720D01*
X18201640Y-5552440D02*
X22240240Y-5552440D01*
X14737260Y-4702740D02*
X18229760Y-4702740D01*
X14732180Y-8063160D02*
X14732180Y-4697660D01*
X18011320Y-6744900D02*
X18011320Y-7062400D01*
X18229760Y-4702740D02*
X18229760Y-7750740D01*
D12*
X14061760Y-10180640D02*
X14101760Y-10220640D01*
X14101760Y-10180640D02*
X14061760Y-10220640D01*
X14061760Y-10180640D02*
X14101760Y-10220640D01*
X14101760Y-10180640D02*
X14061760Y-10220640D01*
X14381800Y-10170480D02*
X14421800Y-10210480D01*
X14421800Y-10170480D02*
X14381800Y-10210480D01*
X14381800Y-10170480D02*
X14421800Y-10210480D01*
X14421800Y-10170480D02*
X14381800Y-10210480D01*
X14767880Y-9423720D02*
X14807880Y-9463720D01*
X14807880Y-9423720D02*
X14767880Y-9463720D01*
X14767880Y-9423720D02*
X14807880Y-9463720D01*
X14807880Y-9423720D02*
X14767880Y-9463720D01*
X14976160Y-10053640D02*
X15016160Y-10093640D01*
X15016160Y-10053640D02*
X14976160Y-10093640D01*
X14976160Y-10053640D02*
X15016160Y-10093640D01*
X15016160Y-10053640D02*
X14976160Y-10093640D01*
X15211600Y-12812080D02*
X15251600Y-12852080D01*
X15251600Y-12812080D02*
X15211600Y-12852080D01*
X15311440Y-13787440D02*
X15351440Y-13827440D01*
X15351440Y-13787440D02*
X15311440Y-13827440D01*
X15463840Y-9560880D02*
X15503840Y-9600880D01*
X15503840Y-9560880D02*
X15463840Y-9600880D01*
X15463840Y-9560880D02*
X15503840Y-9600880D01*
X15503840Y-9560880D02*
X15463840Y-9600880D01*
X15601000Y-8697280D02*
X15641000Y-8737280D01*
X15641000Y-8697280D02*
X15601000Y-8737280D01*
X15601000Y-8697280D02*
X15641000Y-8737280D01*
X15641000Y-8697280D02*
X15601000Y-8737280D01*
X15607680Y-12878120D02*
X15647680Y-12918120D01*
X15647680Y-12878120D02*
X15607680Y-12918120D01*
X15707680Y-13081320D02*
X15747680Y-13121320D01*
X15747680Y-13081320D02*
X15707680Y-13121320D01*
X15743240Y-14452920D02*
X15783240Y-14492920D01*
X15783240Y-14452920D02*
X15743240Y-14492920D01*
X15844840Y-13304840D02*
X15884840Y-13344840D01*
X15884840Y-13304840D02*
X15844840Y-13344840D01*
X15946440Y-9941880D02*
X15986440Y-9981880D01*
X15986440Y-9941880D02*
X15946440Y-9981880D01*
X15946440Y-9941880D02*
X15986440Y-9981880D01*
X15986440Y-9941880D02*
X15946440Y-9981880D01*
X15992160Y-9184960D02*
X16032160Y-9224960D01*
X16032160Y-9184960D02*
X15992160Y-9224960D01*
X15992160Y-9184960D02*
X16032160Y-9224960D01*
X16032160Y-9184960D02*
X15992160Y-9224960D01*
X15999000Y-12813360D02*
X16039000Y-12853360D01*
X16039000Y-12813360D02*
X15999000Y-12853360D01*
X16042960Y-9571040D02*
X16082960Y-9611040D01*
X16082960Y-9571040D02*
X16042960Y-9611040D01*
X16042960Y-9571040D02*
X16082960Y-9611040D01*
X16082960Y-9571040D02*
X16042960Y-9611040D01*
X16058200Y-10155240D02*
X16098200Y-10195240D01*
X16098200Y-10155240D02*
X16058200Y-10195240D01*
X16058200Y-10155240D02*
X16098200Y-10195240D01*
X16098200Y-10155240D02*
X16058200Y-10195240D01*
X16159800Y-13538520D02*
X16199800Y-13578520D01*
X16199800Y-13538520D02*
X16159800Y-13578520D01*
X16199240Y-13142280D02*
X16239240Y-13182280D01*
X16239240Y-13142280D02*
X16199240Y-13182280D01*
X16219000Y-12973360D02*
X16259000Y-13013360D01*
X16259000Y-12973360D02*
X16219000Y-13013360D01*
X16306680Y-6072660D02*
X16346680Y-6112660D01*
X16346680Y-6072660D02*
X16306680Y-6112660D01*
X16306680Y-6162660D02*
X16346680Y-6202660D01*
X16346680Y-6162660D02*
X16306680Y-6202660D01*
X16318880Y-12390440D02*
X16358880Y-12430440D01*
X16358880Y-12390440D02*
X16318880Y-12430440D01*
X16396680Y-6072660D02*
X16436680Y-6112660D01*
X16436680Y-6072660D02*
X16396680Y-6112660D01*
X16396680Y-6162660D02*
X16436680Y-6202660D01*
X16436680Y-6162660D02*
X16396680Y-6202660D01*
X16449360Y-14300520D02*
X16489360Y-14340520D01*
X16489360Y-14300520D02*
X16449360Y-14340520D01*
X16550960Y-9306880D02*
X16590960Y-9346880D01*
X16590960Y-9306880D02*
X16550960Y-9346880D01*
X16550960Y-9306880D02*
X16590960Y-9346880D01*
X16590960Y-9306880D02*
X16550960Y-9346880D01*
X16606840Y-13061000D02*
X16646840Y-13101000D01*
X16646840Y-13061000D02*
X16606840Y-13101000D01*
X16662720Y-15875320D02*
X16702720Y-15915320D01*
X16702720Y-15875320D02*
X16662720Y-15915320D01*
X16667800Y-14884720D02*
X16707800Y-14924720D01*
X16707800Y-14884720D02*
X16667800Y-14924720D01*
X16677960Y-14788200D02*
X16717960Y-14828200D01*
X16717960Y-14788200D02*
X16677960Y-14828200D01*
X16769400Y-14645960D02*
X16809400Y-14685960D01*
X16809400Y-14645960D02*
X16769400Y-14685960D01*
X16779560Y-13137200D02*
X16819560Y-13177200D01*
X16819560Y-13137200D02*
X16779560Y-13177200D01*
X16784640Y-13685840D02*
X16824640Y-13725840D01*
X16824640Y-13685840D02*
X16784640Y-13725840D01*
X16815120Y-10048560D02*
X16855120Y-10088560D01*
X16855120Y-10048560D02*
X16815120Y-10088560D01*
X16815120Y-10048560D02*
X16855120Y-10088560D01*
X16855120Y-10048560D02*
X16815120Y-10088560D01*
X16865920Y-12293920D02*
X16905920Y-12333920D01*
X16905920Y-12293920D02*
X16865920Y-12333920D01*
X16876080Y-14645960D02*
X16916080Y-14685960D01*
X16916080Y-14645960D02*
X16876080Y-14685960D01*
X16957360Y-15890560D02*
X16997360Y-15930560D01*
X16997360Y-15890560D02*
X16957360Y-15930560D01*
X16977680Y-14336080D02*
X17017680Y-14376080D01*
X17017680Y-14336080D02*
X16977680Y-14376080D01*
X16987840Y-8849680D02*
X17027840Y-8889680D01*
X17027840Y-8849680D02*
X16987840Y-8889680D01*
X16987840Y-8849680D02*
X17027840Y-8889680D01*
X17027840Y-8849680D02*
X16987840Y-8889680D01*
X17008160Y-12903520D02*
X17048160Y-12943520D01*
X17048160Y-12903520D02*
X17008160Y-12943520D01*
X17023400Y-14148120D02*
X17063400Y-14188120D01*
X17063400Y-14148120D02*
X17023400Y-14188120D01*
X17028480Y-12441240D02*
X17068480Y-12481240D01*
X17068480Y-12441240D02*
X17028480Y-12481240D01*
X17043720Y-13980480D02*
X17083720Y-14020480D01*
X17083720Y-13980480D02*
X17043720Y-14020480D01*
X17043720Y-14259880D02*
X17083720Y-14299880D01*
X17083720Y-14259880D02*
X17043720Y-14299880D01*
X17064040Y-9052880D02*
X17104040Y-9092880D01*
X17104040Y-9052880D02*
X17064040Y-9092880D01*
X17064040Y-9052880D02*
X17104040Y-9092880D01*
X17104040Y-9052880D02*
X17064040Y-9092880D01*
X17084360Y-11770680D02*
X17124360Y-11810680D01*
X17124360Y-11770680D02*
X17084360Y-11810680D01*
X17130080Y-9972360D02*
X17170080Y-10012360D01*
X17170080Y-9972360D02*
X17130080Y-10012360D01*
X17130080Y-9972360D02*
X17170080Y-10012360D01*
X17170080Y-9972360D02*
X17130080Y-10012360D01*
X17130080Y-10373680D02*
X17170080Y-10413680D01*
X17170080Y-10373680D02*
X17130080Y-10413680D01*
X17130080Y-10373680D02*
X17170080Y-10413680D01*
X17170080Y-10373680D02*
X17130080Y-10413680D01*
X17140240Y-13421680D02*
X17180240Y-13461680D01*
X17180240Y-13421680D02*
X17140240Y-13461680D01*
X17145320Y-14071920D02*
X17185320Y-14111920D01*
X17185320Y-14071920D02*
X17145320Y-14111920D01*
X17211360Y-12989880D02*
X17251360Y-13029880D01*
X17251360Y-12989880D02*
X17211360Y-13029880D01*
X17226600Y-13660440D02*
X17266600Y-13700440D01*
X17266600Y-13660440D02*
X17226600Y-13700440D01*
X17338360Y-12934000D02*
X17378360Y-12974000D01*
X17378360Y-12934000D02*
X17338360Y-12974000D01*
X17414560Y-10241600D02*
X17454560Y-10281600D01*
X17454560Y-10241600D02*
X17414560Y-10281600D01*
X17414560Y-10241600D02*
X17454560Y-10281600D01*
X17454560Y-10241600D02*
X17414560Y-10281600D01*
X17506000Y-15601000D02*
X17546000Y-15641000D01*
X17546000Y-15601000D02*
X17506000Y-15641000D01*
X17511080Y-10434640D02*
X17551080Y-10474640D01*
X17551080Y-10434640D02*
X17511080Y-10474640D01*
X17511080Y-10434640D02*
X17551080Y-10474640D01*
X17551080Y-10434640D02*
X17511080Y-10474640D01*
X17607600Y-11303320D02*
X17647600Y-11343320D01*
X17647600Y-11303320D02*
X17607600Y-11343320D01*
X17729520Y-16073440D02*
X17769520Y-16113440D01*
X17769520Y-16073440D02*
X17729520Y-16113440D01*
X17846360Y-15250480D02*
X17886360Y-15290480D01*
X17886360Y-15250480D02*
X17846360Y-15290480D01*
X17922560Y-12837480D02*
X17962560Y-12877480D01*
X17962560Y-12837480D02*
X17922560Y-12877480D01*
X17932720Y-13523280D02*
X17972720Y-13563280D01*
X17972720Y-13523280D02*
X17932720Y-13563280D01*
X18064800Y-15032040D02*
X18104800Y-15072040D01*
X18104800Y-15032040D02*
X18064800Y-15072040D01*
X18471200Y-13010200D02*
X18511200Y-13050200D01*
X18511200Y-13010200D02*
X18471200Y-13050200D01*
X18562640Y-13055920D02*
X18602640Y-13095920D01*
X18602640Y-13055920D02*
X18562640Y-13095920D01*
X18638840Y-12867960D02*
X18678840Y-12907960D01*
X18678840Y-12867960D02*
X18638840Y-12907960D01*
X19211968Y-6985320D02*
X19251968Y-7025320D01*
X19251968Y-6985320D02*
X19211968Y-7025320D01*
X19309400Y-8890320D02*
X19349400Y-8930320D01*
X19349400Y-8890320D02*
X19309400Y-8930320D01*
X19426240Y-15783880D02*
X19466240Y-15823880D01*
X19466240Y-15783880D02*
X19426240Y-15823880D01*
X19434400Y-15809280D02*
X19474400Y-15849280D01*
X19474400Y-15809280D02*
X19434400Y-15849280D01*
X19461800Y-16683040D02*
X19501800Y-16723040D01*
X19501800Y-16683040D02*
X19461800Y-16723040D01*
X19563400Y-7493320D02*
X19603400Y-7533320D01*
X19603400Y-7493320D02*
X19563400Y-7533320D01*
X19642140Y-9334820D02*
X19682140Y-9374820D01*
X19682140Y-9334820D02*
X19642140Y-9374820D01*
X19690400Y-11958640D02*
X19730400Y-11998640D01*
X19730400Y-11958640D02*
X19690400Y-11998640D01*
X19769140Y-9842820D02*
X19809140Y-9882820D01*
X19809140Y-9842820D02*
X19769140Y-9882820D01*
X19944400Y-6096320D02*
X19984400Y-6136320D01*
X19984400Y-6096320D02*
X19944400Y-6136320D01*
X19944400Y-8509320D02*
X19984400Y-8549320D01*
X19984400Y-8509320D02*
X19944400Y-8549320D01*
X19969800Y-11851960D02*
X20009800Y-11891960D01*
X20009800Y-11851960D02*
X19969800Y-11891960D01*
X20023140Y-9715820D02*
X20063140Y-9755820D01*
X20063140Y-9715820D02*
X20023140Y-9755820D01*
X20071400Y-6731320D02*
X20111400Y-6771320D01*
X20111400Y-6731320D02*
X20071400Y-6771320D01*
X20071400Y-6985320D02*
X20111400Y-7025320D01*
X20111400Y-6985320D02*
X20071400Y-7025320D01*
X20071400Y-8001320D02*
X20111400Y-8041320D01*
X20111400Y-8001320D02*
X20071400Y-8041320D01*
X20071400Y-8890320D02*
X20111400Y-8930320D01*
X20111400Y-8890320D02*
X20071400Y-8930320D01*
X20198400Y-7112320D02*
X20238400Y-7152320D01*
X20238400Y-7112320D02*
X20198400Y-7152320D01*
X20198400Y-8509320D02*
X20238400Y-8549320D01*
X20238400Y-8509320D02*
X20198400Y-8549320D01*
X20203480Y-7767640D02*
X20243480Y-7807640D01*
X20243480Y-7767640D02*
X20203480Y-7807640D01*
X20218720Y-12807000D02*
X20258720Y-12847000D01*
X20258720Y-12807000D02*
X20218720Y-12847000D01*
X20274600Y-12923840D02*
X20314600Y-12963840D01*
X20314600Y-12923840D02*
X20274600Y-12963840D01*
X20277140Y-10223820D02*
X20317140Y-10263820D01*
X20317140Y-10223820D02*
X20277140Y-10263820D01*
X20325400Y-7747320D02*
X20365400Y-7787320D01*
X20365400Y-7747320D02*
X20325400Y-7787320D01*
X20325400Y-8128320D02*
X20365400Y-8168320D01*
X20365400Y-8128320D02*
X20325400Y-8168320D01*
X20325400Y-8509320D02*
X20365400Y-8549320D01*
X20365400Y-8509320D02*
X20325400Y-8549320D01*
X20355880Y-11907840D02*
X20395880Y-11947840D01*
X20395880Y-11907840D02*
X20355880Y-11947840D01*
X20543840Y-12537760D02*
X20583840Y-12577760D01*
X20583840Y-12537760D02*
X20543840Y-12577760D01*
X20609880Y-7879400D02*
X20649880Y-7919400D01*
X20649880Y-7879400D02*
X20609880Y-7919400D01*
X20640360Y-12090720D02*
X20680360Y-12130720D01*
X20680360Y-12090720D02*
X20640360Y-12130720D01*
X21570000Y-12146600D02*
X21610000Y-12186600D01*
X21610000Y-12146600D02*
X21570000Y-12186600D01*
X14436200Y-12632400D02*
G75*
G03X14436200Y-12632400I-25000J0D01*
G01*
X14378700Y-12647400D02*
X14443700Y-12647400D01*
X14378700Y-12617400D02*
X14443700Y-12617400D01*
X14443700Y-12647400D02*
G75*
G03X14443700Y-12617400I0J15000D01*
G01*
X14378700Y-12617400D02*
G75*
G03X14378700Y-12647400I0J-15000D01*
G01*
X14436200Y-13332400D02*
G75*
G03X14436200Y-13332400I-25000J0D01*
G01*
X14378700Y-13347400D02*
X14443700Y-13347400D01*
X14378700Y-13317400D02*
X14443700Y-13317400D01*
X14443700Y-13347400D02*
G75*
G03X14443700Y-13317400I0J15000D01*
G01*
X14378700Y-13317400D02*
G75*
G03X14378700Y-13347400I0J-15000D01*
G01*
X18576400Y-7420320D02*
G75*
G03X18576400Y-7420320I-25000J0D01*
G01*
X18518900Y-7435320D02*
X18583900Y-7435320D01*
X18518900Y-7405320D02*
X18583900Y-7405320D01*
X18583900Y-7435320D02*
G75*
G03X18583900Y-7405320I0J15000D01*
G01*
X18518900Y-7405320D02*
G75*
G03X18518900Y-7435320I0J-15000D01*
G01*
X18576400Y-8120320D02*
G75*
G03X18576400Y-8120320I-25000J0D01*
G01*
X18518900Y-8135320D02*
X18583900Y-8135320D01*
X18518900Y-8105320D02*
X18583900Y-8105320D01*
X18583900Y-8135320D02*
G75*
G03X18583900Y-8105320I0J15000D01*
G01*
X18518900Y-8105320D02*
G75*
G03X18518900Y-8135320I0J-15000D01*
G01*
X14681200Y-12704900D02*
X14681200Y-12759900D01*
X14653700Y-12732400D02*
X14708700Y-12732400D01*
X14663700Y-12717400D02*
X14663700Y-12747400D01*
X14698700Y-12717400D02*
X14698700Y-12747400D01*
X14663700Y-12747400D02*
G75*
G03X14698700Y-12747400I17500J0D01*
G01*
X14698700Y-12717400D02*
G75*
G03X14663700Y-12717400I-17500J0D01*
G01*
X14681200Y-13204900D02*
X14681200Y-13259900D01*
X14653700Y-13232400D02*
X14708700Y-13232400D01*
X14663700Y-13217400D02*
X14663700Y-13247400D01*
X14698700Y-13217400D02*
X14698700Y-13247400D01*
X14663700Y-13247400D02*
G75*
G03X14698700Y-13247400I17500J0D01*
G01*
X14698700Y-13217400D02*
G75*
G03X14663700Y-13217400I-17500J0D01*
G01*
X18821400Y-7492820D02*
X18821400Y-7547820D01*
X18793900Y-7520320D02*
X18848900Y-7520320D01*
X18803900Y-7505320D02*
X18803900Y-7535320D01*
X18838900Y-7505320D02*
X18838900Y-7535320D01*
X18803900Y-7535320D02*
G75*
G03X18838900Y-7535320I17500J0D01*
G01*
X18838900Y-7505320D02*
G75*
G03X18803900Y-7505320I-17500J0D01*
G01*
X18821400Y-7992820D02*
X18821400Y-8047820D01*
X18793900Y-8020320D02*
X18848900Y-8020320D01*
X18803900Y-8005320D02*
X18803900Y-8035320D01*
X18838900Y-8005320D02*
X18838900Y-8035320D01*
X18803900Y-8035320D02*
G75*
G03X18838900Y-8035320I17500J0D01*
G01*
X18838900Y-8005320D02*
G75*
G03X18803900Y-8005320I-17500J0D01*
G01*
X19531405Y-13972884D02*
X19531405Y-13916315D01*
X19474836Y-13916315D01*
X19474836Y-13972884D01*
X19531405Y-13972884D01*
X19531405Y-14226884D02*
X19531405Y-14170315D01*
X19474836Y-14170315D01*
X19474836Y-14226884D01*
X19531405Y-14226884D01*
X19531405Y-14480884D02*
X19531405Y-14424315D01*
X19474836Y-14424315D01*
X19474836Y-14480884D01*
X19531405Y-14480884D01*
X19531405Y-14734884D02*
X19531405Y-14678315D01*
X19474836Y-14678315D01*
X19474836Y-14734884D01*
X19531405Y-14734884D01*
X20291405Y-13972884D02*
X20291405Y-13916315D01*
X20234836Y-13916315D01*
X20234836Y-13972884D01*
X20291405Y-13972884D01*
X20291405Y-14226884D02*
X20291405Y-14170315D01*
X20234836Y-14170315D01*
X20234836Y-14226884D01*
X20291405Y-14226884D01*
X20291405Y-14480884D02*
X20291405Y-14424315D01*
X20234836Y-14424315D01*
X20234836Y-14480884D01*
X20291405Y-14480884D01*
X20291405Y-14734884D02*
X20291405Y-14678315D01*
X20234836Y-14678315D01*
X20234836Y-14734884D01*
X20291405Y-14734884D01*
X20873720Y-7233920D02*
X20914360Y-7193280D01*
X20873720Y-7152640D01*
X20833080Y-7193280D01*
X20873720Y-7233920D01*
X20873720Y-7487920D02*
X20914360Y-7447280D01*
X20873720Y-7406640D01*
X20833080Y-7447280D01*
X20873720Y-7487920D01*
X20873720Y-7741920D02*
X20914360Y-7701280D01*
X20873720Y-7660640D01*
X20833080Y-7701280D01*
X20873720Y-7741920D01*
X20873720Y-7995920D02*
X20914360Y-7955280D01*
X20873720Y-7914640D01*
X20833080Y-7955280D01*
X20873720Y-7995920D01*
X20873720Y-8249920D02*
X20914360Y-8209280D01*
X20873720Y-8168640D01*
X20833080Y-8209280D01*
X20873720Y-8249920D01*
X20873720Y-8503920D02*
X20914360Y-8463280D01*
X20873720Y-8422640D01*
X20833080Y-8463280D01*
X20873720Y-8503920D01*
X20873720Y-8757920D02*
X20914360Y-8717280D01*
X20873720Y-8676640D01*
X20833080Y-8717280D01*
X20873720Y-8757920D01*
X20873720Y-9011920D02*
X20914360Y-8971280D01*
X20873720Y-8930640D01*
X20833080Y-8971280D01*
X20873720Y-9011920D01*
X20873720Y-9265920D02*
X20914360Y-9225280D01*
X20873720Y-9184640D01*
X20833080Y-9225280D01*
X20873720Y-9265920D01*
X20873720Y-9519920D02*
X20914360Y-9479280D01*
X20873720Y-9438640D01*
X20833080Y-9479280D01*
X20873720Y-9519920D01*
X21635720Y-7233920D02*
X21676360Y-7193280D01*
X21635720Y-7152640D01*
X21595080Y-7193280D01*
X21635720Y-7233920D01*
X21635720Y-7487920D02*
X21676360Y-7447280D01*
X21635720Y-7406640D01*
X21595080Y-7447280D01*
X21635720Y-7487920D01*
X21635720Y-7741920D02*
X21676360Y-7701280D01*
X21635720Y-7660640D01*
X21595080Y-7701280D01*
X21635720Y-7741920D01*
X21635720Y-7995920D02*
X21676360Y-7955280D01*
X21635720Y-7914640D01*
X21595080Y-7955280D01*
X21635720Y-7995920D01*
X21635720Y-8249920D02*
X21676360Y-8209280D01*
X21635720Y-8168640D01*
X21595080Y-8209280D01*
X21635720Y-8249920D01*
X21635720Y-8503920D02*
X21676360Y-8463280D01*
X21635720Y-8422640D01*
X21595080Y-8463280D01*
X21635720Y-8503920D01*
X21635720Y-8757920D02*
X21676360Y-8717280D01*
X21635720Y-8676640D01*
X21595080Y-8717280D01*
X21635720Y-8757920D01*
X21635720Y-9011920D02*
X21676360Y-8971280D01*
X21635720Y-8930640D01*
X21595080Y-8971280D01*
X21635720Y-9011920D01*
X21635720Y-9265920D02*
X21676360Y-9225280D01*
X21635720Y-9184640D01*
X21595080Y-9225280D01*
X21635720Y-9265920D01*
X21635720Y-9519920D02*
X21676360Y-9479280D01*
X21635720Y-9438640D01*
X21595080Y-9479280D01*
X21635720Y-9519920D01*
X16283542Y-6595622D02*
X16383618Y-6695698D01*
X16383618Y-6595622D02*
X16283542Y-6695698D01*
X16383618Y-6645660D02*
G75*
G03X16383618Y-6645660I-50038J0D01*
G01*
X16537542Y-6595622D02*
X16637618Y-6695698D01*
X16637618Y-6595622D02*
X16537542Y-6695698D01*
X16637618Y-6645660D02*
G75*
G03X16637618Y-6645660I-50038J0D01*
G01*
X16740742Y-6595622D02*
X16840818Y-6695698D01*
X16840818Y-6595622D02*
X16740742Y-6695698D01*
X16840818Y-6645660D02*
G75*
G03X16840818Y-6645660I-50038J0D01*
G01*
X16994742Y-6595622D02*
X17094818Y-6695698D01*
X17094818Y-6595622D02*
X16994742Y-6695698D01*
X17094818Y-6645660D02*
G75*
G03X17094818Y-6645660I-50038J0D01*
G01*
X14371320Y-8737600D02*
X14472920Y-8839200D01*
X14472920Y-8737600D02*
X14371320Y-8839200D01*
X14422120Y-8737600D02*
X14422120Y-8839200D01*
X14371320Y-8788400D02*
X14472920Y-8788400D01*
X14371320Y-8737600D02*
X14472920Y-8839200D01*
X14472920Y-8737600D02*
X14371320Y-8839200D01*
X14422120Y-8737600D02*
X14422120Y-8839200D01*
X14371320Y-8788400D02*
X14472920Y-8788400D01*
X14371320Y-8991600D02*
X14472920Y-9093200D01*
X14472920Y-8991600D02*
X14371320Y-9093200D01*
X14422120Y-8991600D02*
X14422120Y-9093200D01*
X14371320Y-9042400D02*
X14472920Y-9042400D01*
X14371320Y-8991600D02*
X14472920Y-9093200D01*
X14472920Y-8991600D02*
X14371320Y-9093200D01*
X14422120Y-8991600D02*
X14422120Y-9093200D01*
X14371320Y-9042400D02*
X14472920Y-9042400D01*
X14371320Y-9245600D02*
X14472920Y-9347200D01*
X14472920Y-9245600D02*
X14371320Y-9347200D01*
X14422120Y-9245600D02*
X14422120Y-9347200D01*
X14371320Y-9296400D02*
X14472920Y-9296400D01*
X14371320Y-9245600D02*
X14472920Y-9347200D01*
X14472920Y-9245600D02*
X14371320Y-9347200D01*
X14422120Y-9245600D02*
X14422120Y-9347200D01*
X14371320Y-9296400D02*
X14472920Y-9296400D01*
X14371320Y-9499600D02*
X14472920Y-9601200D01*
X14472920Y-9499600D02*
X14371320Y-9601200D01*
X14422120Y-9499600D02*
X14422120Y-9601200D01*
X14371320Y-9550400D02*
X14472920Y-9550400D01*
X14371320Y-9499600D02*
X14472920Y-9601200D01*
X14472920Y-9499600D02*
X14371320Y-9601200D01*
X14422120Y-9499600D02*
X14422120Y-9601200D01*
X14371320Y-9550400D02*
X14472920Y-9550400D01*
X14528800Y-14503400D02*
X14630400Y-14605000D01*
X14630400Y-14503400D02*
X14528800Y-14605000D01*
X14579600Y-14503400D02*
X14579600Y-14605000D01*
X14528800Y-14554200D02*
X14630400Y-14554200D01*
X14528800Y-14757400D02*
X14630400Y-14859000D01*
X14630400Y-14757400D02*
X14528800Y-14859000D01*
X14579600Y-14757400D02*
X14579600Y-14859000D01*
X14528800Y-14808200D02*
X14630400Y-14808200D01*
X14528800Y-15011400D02*
X14630400Y-15113000D01*
X14630400Y-15011400D02*
X14528800Y-15113000D01*
X14579600Y-15011400D02*
X14579600Y-15113000D01*
X14528800Y-15062200D02*
X14630400Y-15062200D01*
X14528800Y-15265400D02*
X14630400Y-15367000D01*
X14630400Y-15265400D02*
X14528800Y-15367000D01*
X14579600Y-15265400D02*
X14579600Y-15367000D01*
X14528800Y-15316200D02*
X14630400Y-15316200D01*
X14894560Y-10393680D02*
X14996160Y-10495280D01*
X14996160Y-10393680D02*
X14894560Y-10495280D01*
X14945360Y-10393680D02*
X14945360Y-10495280D01*
X14894560Y-10444480D02*
X14996160Y-10444480D01*
X14894560Y-10393680D02*
X14996160Y-10495280D01*
X14996160Y-10393680D02*
X14894560Y-10495280D01*
X14945360Y-10393680D02*
X14945360Y-10495280D01*
X14894560Y-10444480D02*
X14996160Y-10444480D01*
X15148560Y-10393680D02*
X15250160Y-10495280D01*
X15250160Y-10393680D02*
X15148560Y-10495280D01*
X15199360Y-10393680D02*
X15199360Y-10495280D01*
X15148560Y-10444480D02*
X15250160Y-10444480D01*
X15148560Y-10393680D02*
X15250160Y-10495280D01*
X15250160Y-10393680D02*
X15148560Y-10495280D01*
X15199360Y-10393680D02*
X15199360Y-10495280D01*
X15148560Y-10444480D02*
X15250160Y-10444480D01*
X15387320Y-16068040D02*
X15488920Y-16169640D01*
X15488920Y-16068040D02*
X15387320Y-16169640D01*
X15438120Y-16068040D02*
X15438120Y-16169640D01*
X15387320Y-16118840D02*
X15488920Y-16118840D01*
X15402560Y-10393680D02*
X15504160Y-10495280D01*
X15504160Y-10393680D02*
X15402560Y-10495280D01*
X15453360Y-10393680D02*
X15453360Y-10495280D01*
X15402560Y-10444480D02*
X15504160Y-10444480D01*
X15402560Y-10393680D02*
X15504160Y-10495280D01*
X15504160Y-10393680D02*
X15402560Y-10495280D01*
X15453360Y-10393680D02*
X15453360Y-10495280D01*
X15402560Y-10444480D02*
X15504160Y-10444480D01*
X15641320Y-16068040D02*
X15742920Y-16169640D01*
X15742920Y-16068040D02*
X15641320Y-16169640D01*
X15692120Y-16068040D02*
X15692120Y-16169640D01*
X15641320Y-16118840D02*
X15742920Y-16118840D01*
X15656560Y-10393680D02*
X15758160Y-10495280D01*
X15758160Y-10393680D02*
X15656560Y-10495280D01*
X15707360Y-10393680D02*
X15707360Y-10495280D01*
X15656560Y-10444480D02*
X15758160Y-10444480D01*
X15656560Y-10393680D02*
X15758160Y-10495280D01*
X15758160Y-10393680D02*
X15656560Y-10495280D01*
X15707360Y-10393680D02*
X15707360Y-10495280D01*
X15656560Y-10444480D02*
X15758160Y-10444480D01*
X15895320Y-16068040D02*
X15996920Y-16169640D01*
X15996920Y-16068040D02*
X15895320Y-16169640D01*
X15946120Y-16068040D02*
X15946120Y-16169640D01*
X15895320Y-16118840D02*
X15996920Y-16118840D01*
X15910560Y-10393680D02*
X16012160Y-10495280D01*
X16012160Y-10393680D02*
X15910560Y-10495280D01*
X15961360Y-10393680D02*
X15961360Y-10495280D01*
X15910560Y-10444480D02*
X16012160Y-10444480D01*
X15910560Y-10393680D02*
X16012160Y-10495280D01*
X16012160Y-10393680D02*
X15910560Y-10495280D01*
X15961360Y-10393680D02*
X15961360Y-10495280D01*
X15910560Y-10444480D02*
X16012160Y-10444480D01*
X16149320Y-16068040D02*
X16250920Y-16169640D01*
X16250920Y-16068040D02*
X16149320Y-16169640D01*
X16200120Y-16068040D02*
X16200120Y-16169640D01*
X16149320Y-16118840D02*
X16250920Y-16118840D01*
X16164560Y-10393680D02*
X16266160Y-10495280D01*
X16266160Y-10393680D02*
X16164560Y-10495280D01*
X16215360Y-10393680D02*
X16215360Y-10495280D01*
X16164560Y-10444480D02*
X16266160Y-10444480D01*
X16164560Y-10393680D02*
X16266160Y-10495280D01*
X16266160Y-10393680D02*
X16164560Y-10495280D01*
X16215360Y-10393680D02*
X16215360Y-10495280D01*
X16164560Y-10444480D02*
X16266160Y-10444480D01*
X17383760Y-9047480D02*
X17485360Y-9149080D01*
X17485360Y-9047480D02*
X17383760Y-9149080D01*
X17434560Y-9047480D02*
X17434560Y-9149080D01*
X17383760Y-9098280D02*
X17485360Y-9098280D01*
X17383760Y-9047480D02*
X17485360Y-9149080D01*
X17485360Y-9047480D02*
X17383760Y-9149080D01*
X17434560Y-9047480D02*
X17434560Y-9149080D01*
X17383760Y-9098280D02*
X17485360Y-9098280D01*
X17383760Y-9301480D02*
X17485360Y-9403080D01*
X17485360Y-9301480D02*
X17383760Y-9403080D01*
X17434560Y-9301480D02*
X17434560Y-9403080D01*
X17383760Y-9352280D02*
X17485360Y-9352280D01*
X17383760Y-9301480D02*
X17485360Y-9403080D01*
X17485360Y-9301480D02*
X17383760Y-9403080D01*
X17434560Y-9301480D02*
X17434560Y-9403080D01*
X17383760Y-9352280D02*
X17485360Y-9352280D01*
X17383760Y-9555480D02*
X17485360Y-9657080D01*
X17485360Y-9555480D02*
X17383760Y-9657080D01*
X17434560Y-9555480D02*
X17434560Y-9657080D01*
X17383760Y-9606280D02*
X17485360Y-9606280D01*
X17383760Y-9555480D02*
X17485360Y-9657080D01*
X17485360Y-9555480D02*
X17383760Y-9657080D01*
X17434560Y-9555480D02*
X17434560Y-9657080D01*
X17383760Y-9606280D02*
X17485360Y-9606280D01*
X17383760Y-9809480D02*
X17485360Y-9911080D01*
X17485360Y-9809480D02*
X17383760Y-9911080D01*
X17434560Y-9809480D02*
X17434560Y-9911080D01*
X17383760Y-9860280D02*
X17485360Y-9860280D01*
X17383760Y-9809480D02*
X17485360Y-9911080D01*
X17485360Y-9809480D02*
X17383760Y-9911080D01*
X17434560Y-9809480D02*
X17434560Y-9911080D01*
X17383760Y-9860280D02*
X17485360Y-9860280D01*
X17820640Y-11744960D02*
X17922240Y-11846560D01*
X17922240Y-11744960D02*
X17820640Y-11846560D01*
X17871440Y-11744960D02*
X17871440Y-11846560D01*
X17820640Y-11795760D02*
X17922240Y-11795760D01*
X18074640Y-11744960D02*
X18176240Y-11846560D01*
X18176240Y-11744960D02*
X18074640Y-11846560D01*
X18125440Y-11744960D02*
X18125440Y-11846560D01*
X18074640Y-11795760D02*
X18176240Y-11795760D01*
X18328640Y-11744960D02*
X18430240Y-11846560D01*
X18430240Y-11744960D02*
X18328640Y-11846560D01*
X18379440Y-11744960D02*
X18379440Y-11846560D01*
X18328640Y-11795760D02*
X18430240Y-11795760D01*
X18582640Y-11744960D02*
X18684240Y-11846560D01*
X18684240Y-11744960D02*
X18582640Y-11846560D01*
X18633440Y-11744960D02*
X18633440Y-11846560D01*
X18582640Y-11795760D02*
X18684240Y-11795760D01*
X18851880Y-13299440D02*
X18953480Y-13401040D01*
X18953480Y-13299440D02*
X18851880Y-13401040D01*
X18902680Y-13299440D02*
X18902680Y-13401040D01*
X18851880Y-13350240D02*
X18953480Y-13350240D01*
X18851880Y-13553440D02*
X18953480Y-13655040D01*
X18953480Y-13553440D02*
X18851880Y-13655040D01*
X18902680Y-13553440D02*
X18902680Y-13655040D01*
X18851880Y-13604240D02*
X18953480Y-13604240D01*
X18851880Y-13807440D02*
X18953480Y-13909040D01*
X18953480Y-13807440D02*
X18851880Y-13909040D01*
X18902680Y-13807440D02*
X18902680Y-13909040D01*
X18851880Y-13858240D02*
X18953480Y-13858240D01*
X18851880Y-14061440D02*
X18953480Y-14163040D01*
X18953480Y-14061440D02*
X18851880Y-14163040D01*
X18902680Y-14061440D02*
X18902680Y-14163040D01*
X18851880Y-14112240D02*
X18953480Y-14112240D01*
X18851880Y-14315440D02*
X18953480Y-14417040D01*
X18953480Y-14315440D02*
X18851880Y-14417040D01*
X18902680Y-14315440D02*
X18902680Y-14417040D01*
X18851880Y-14366240D02*
X18953480Y-14366240D01*
X18851880Y-14569440D02*
X18953480Y-14671040D01*
X18953480Y-14569440D02*
X18851880Y-14671040D01*
X18902680Y-14569440D02*
X18902680Y-14671040D01*
X18851880Y-14620240D02*
X18953480Y-14620240D01*
X19230340Y-10447020D02*
X19331940Y-10548620D01*
X19331940Y-10447020D02*
X19230340Y-10548620D01*
X19281140Y-10447020D02*
X19281140Y-10548620D01*
X19230340Y-10497820D02*
X19331940Y-10497820D01*
X19484340Y-10447020D02*
X19585940Y-10548620D01*
X19585940Y-10447020D02*
X19484340Y-10548620D01*
X19535140Y-10447020D02*
X19535140Y-10548620D01*
X19484340Y-10497820D02*
X19585940Y-10497820D01*
X19738340Y-10447020D02*
X19839940Y-10548620D01*
X19839940Y-10447020D02*
X19738340Y-10548620D01*
X19789140Y-10447020D02*
X19789140Y-10548620D01*
X19738340Y-10497820D02*
X19839940Y-10497820D01*
X19992340Y-10447020D02*
X20093940Y-10548620D01*
X20093940Y-10447020D02*
X19992340Y-10548620D01*
X20043140Y-10447020D02*
X20043140Y-10548620D01*
X19992340Y-10497820D02*
X20093940Y-10497820D01*
X15862918Y-6797298D02*
X16093042Y-7027422D01*
X16093042Y-6797298D02*
X15862918Y-7027422D01*
X16059342Y-6993722D02*
X16059342Y-6830998D01*
X15896618Y-6830998D01*
X15896618Y-6993722D01*
X16059342Y-6993722D01*
X17234518Y-6797298D02*
X17464642Y-7027422D01*
X17464642Y-6797298D02*
X17234518Y-7027422D01*
X17430942Y-6993722D02*
X17430942Y-6830998D01*
X17268218Y-6830998D01*
X17268218Y-6993722D01*
X17430942Y-6993722D01*
X14150200Y-10472280D02*
X14450200Y-10772280D01*
X14450200Y-10472280D02*
X14150200Y-10772280D01*
X14300200Y-10772280D02*
X14450200Y-10622280D01*
X14300200Y-10472280D01*
X14150200Y-10622280D01*
X14300200Y-10772280D01*
X14150200Y-10472280D02*
X14450200Y-10772280D01*
X14450200Y-10472280D02*
X14150200Y-10772280D01*
X14300200Y-10772280D02*
X14450200Y-10622280D01*
X14300200Y-10472280D01*
X14150200Y-10622280D01*
X14300200Y-10772280D01*
X14328000Y-16507320D02*
X14628000Y-16807320D01*
X14628000Y-16507320D02*
X14328000Y-16807320D01*
X14478000Y-16807320D02*
X14628000Y-16657320D01*
X14478000Y-16507320D01*
X14328000Y-16657320D01*
X14478000Y-16807320D01*
X14388960Y-11305400D02*
X14688960Y-11605400D01*
X14688960Y-11305400D02*
X14388960Y-11605400D01*
X14538960Y-11605400D02*
X14688960Y-11455400D01*
X14538960Y-11305400D01*
X14388960Y-11455400D01*
X14538960Y-11605400D01*
X14841080Y-8257400D02*
X15141080Y-8557400D01*
X15141080Y-8257400D02*
X14841080Y-8557400D01*
X14991080Y-8557400D02*
X15141080Y-8407400D01*
X14991080Y-8257400D01*
X14841080Y-8407400D01*
X14991080Y-8557400D01*
X14841080Y-8257400D02*
X15141080Y-8557400D01*
X15141080Y-8257400D02*
X14841080Y-8557400D01*
X14991080Y-8557400D02*
X15141080Y-8407400D01*
X14991080Y-8257400D01*
X14841080Y-8407400D01*
X14991080Y-8557400D01*
X14963180Y-4928660D02*
X15263180Y-5228660D01*
X15263180Y-4928660D02*
X14963180Y-5228660D01*
X15113180Y-5228660D02*
X15263180Y-5078660D01*
X15113180Y-4928660D01*
X14963180Y-5078660D01*
X15113180Y-5228660D01*
X14963180Y-7532160D02*
X15263180Y-7832160D01*
X15263180Y-7532160D02*
X14963180Y-7832160D01*
X15113180Y-7832160D02*
X15263180Y-7682160D01*
X15113180Y-7532160D01*
X14963180Y-7682160D01*
X15113180Y-7832160D01*
X17693680Y-4928660D02*
X17993680Y-5228660D01*
X17993680Y-4928660D02*
X17693680Y-5228660D01*
X17843680Y-5228660D02*
X17993680Y-5078660D01*
X17843680Y-4928660D01*
X17693680Y-5078660D01*
X17843680Y-5228660D01*
X17693680Y-7532160D02*
X17993680Y-7832160D01*
X17993680Y-7532160D02*
X17693680Y-7832160D01*
X17843680Y-7832160D02*
X17993680Y-7682160D01*
X17843680Y-7532160D01*
X17693680Y-7682160D01*
X17843680Y-7832160D01*
X17706200Y-8338680D02*
X18006200Y-8638680D01*
X18006200Y-8338680D02*
X17706200Y-8638680D01*
X17856200Y-8638680D02*
X18006200Y-8488680D01*
X17856200Y-8338680D01*
X17706200Y-8488680D01*
X17856200Y-8638680D01*
X17706200Y-8338680D02*
X18006200Y-8638680D01*
X18006200Y-8338680D02*
X17706200Y-8638680D01*
X17856200Y-8638680D02*
X18006200Y-8488680D01*
X17856200Y-8338680D01*
X17706200Y-8488680D01*
X17856200Y-8638680D01*
X18544400Y-5991720D02*
X18844400Y-6291720D01*
X18844400Y-5991720D02*
X18544400Y-6291720D01*
X18694400Y-6291720D02*
X18844400Y-6141720D01*
X18694400Y-5991720D01*
X18544400Y-6141720D01*
X18694400Y-6291720D01*
X18686640Y-9725520D02*
X18986640Y-10025520D01*
X18986640Y-9725520D02*
X18686640Y-10025520D01*
X18836640Y-10025520D02*
X18986640Y-9875520D01*
X18836640Y-9725520D01*
X18686640Y-9875520D01*
X18836640Y-10025520D01*
X21196160Y-14068920D02*
X21496160Y-14368920D01*
X21496160Y-14068920D02*
X21196160Y-14368920D01*
X21346160Y-14368920D02*
X21496160Y-14218920D01*
X21346160Y-14068920D01*
X21196160Y-14218920D01*
X21346160Y-14368920D01*
X21607640Y-10360520D02*
X21907640Y-10660520D01*
X21907640Y-10360520D02*
X21607640Y-10660520D01*
X21757640Y-10660520D02*
X21907640Y-10510520D01*
X21757640Y-10360520D01*
X21607640Y-10510520D01*
X21757640Y-10660520D01*
X21653360Y-5920600D02*
X21953360Y-6220600D01*
X21953360Y-5920600D02*
X21653360Y-6220600D01*
X21803360Y-6220600D02*
X21953360Y-6070600D01*
X21803360Y-5920600D01*
X21653360Y-6070600D01*
X21803360Y-6220600D01*
X15990680Y-4905760D02*
X15990680Y-5210560D01*
X15838280Y-5058160D02*
X16143080Y-5058160D01*
X16143080Y-5058160D02*
G75*
G03X16143080Y-5058160I-152400J0D01*
G01*
X17081680Y-4926260D02*
X17081680Y-5231060D01*
X16929280Y-5078660D02*
X17234080Y-5078660D01*
X17234080Y-5078660D02*
G75*
G03X17234080Y-5078660I-152400J0D01*
G01*
D13*
X14129748Y-17620794D02*
X14129748Y-17320794D01*
X14201177Y-17320794D01*
X14244034Y-17335080D01*
X14272606Y-17363652D01*
X14286891Y-17392223D01*
X14301177Y-17449366D01*
X14301177Y-17492223D01*
X14286891Y-17549366D01*
X14272606Y-17577937D01*
X14244034Y-17606509D01*
X14201177Y-17620794D01*
X14129748Y-17620794D01*
X14429748Y-17620794D02*
X14429748Y-17420794D01*
X14429748Y-17477937D02*
X14444034Y-17449366D01*
X14458320Y-17435080D01*
X14486891Y-17420794D01*
X14515463Y-17420794D01*
X14615463Y-17620794D02*
X14615463Y-17420794D01*
X14615463Y-17320794D02*
X14601177Y-17335080D01*
X14615463Y-17349366D01*
X14629748Y-17335080D01*
X14615463Y-17320794D01*
X14615463Y-17349366D01*
X14801177Y-17620794D02*
X14772606Y-17606509D01*
X14758320Y-17577937D01*
X14758320Y-17320794D01*
X14958320Y-17620794D02*
X14929748Y-17606509D01*
X14915463Y-17577937D01*
X14915463Y-17320794D01*
X15301177Y-17620794D02*
X15301177Y-17320794D01*
X15401177Y-17535080D01*
X15501177Y-17320794D01*
X15501177Y-17620794D01*
X15772606Y-17620794D02*
X15772606Y-17463652D01*
X15758320Y-17435080D01*
X15729748Y-17420794D01*
X15672606Y-17420794D01*
X15644034Y-17435080D01*
X15772606Y-17606509D02*
X15744034Y-17620794D01*
X15672606Y-17620794D01*
X15644034Y-17606509D01*
X15629748Y-17577937D01*
X15629748Y-17549366D01*
X15644034Y-17520794D01*
X15672606Y-17506509D01*
X15744034Y-17506509D01*
X15772606Y-17492223D01*
X15915463Y-17420794D02*
X15915463Y-17720794D01*
X15915463Y-17435080D02*
X15944034Y-17420794D01*
X16001177Y-17420794D01*
X16029748Y-17435080D01*
X16044034Y-17449366D01*
X16058320Y-17477937D01*
X16058320Y-17563652D01*
X16044034Y-17592223D01*
X16029748Y-17606509D01*
X16001177Y-17620794D01*
X15944034Y-17620794D01*
X15915463Y-17606509D01*
X16186891Y-17592223D02*
X16201177Y-17606509D01*
X16186891Y-17620794D01*
X16172606Y-17606509D01*
X16186891Y-17592223D01*
X16186891Y-17620794D01*
X16186891Y-17435080D02*
X16201177Y-17449366D01*
X16186891Y-17463652D01*
X16172606Y-17449366D01*
X16186891Y-17435080D01*
X16186891Y-17463652D01*
X13818320Y-18095080D02*
X13858320Y-18135080D01*
X13858320Y-18095080D02*
X13818320Y-18135080D01*
X14186891Y-17950794D02*
X14215463Y-17950794D01*
X14244034Y-17965080D01*
X14258320Y-17979366D01*
X14272606Y-18007937D01*
X14286891Y-18065080D01*
X14286891Y-18136509D01*
X14272606Y-18193652D01*
X14258320Y-18222223D01*
X14244034Y-18236509D01*
X14215463Y-18250794D01*
X14186891Y-18250794D01*
X14158320Y-18236509D01*
X14144034Y-18222223D01*
X14129748Y-18193652D01*
X14115463Y-18136509D01*
X14115463Y-18065080D01*
X14129748Y-18007937D01*
X14144034Y-17979366D01*
X14158320Y-17965080D01*
X14186891Y-17950794D01*
X14415463Y-18222223D02*
X14429748Y-18236509D01*
X14415463Y-18250794D01*
X14401177Y-18236509D01*
X14415463Y-18222223D01*
X14415463Y-18250794D01*
X14686891Y-18050794D02*
X14686891Y-18250794D01*
X14615463Y-17936509D02*
X14544034Y-18150794D01*
X14729748Y-18150794D01*
X14901177Y-17950794D02*
X14929748Y-17950794D01*
X14958320Y-17965080D01*
X14972606Y-17979366D01*
X14986891Y-18007937D01*
X15001177Y-18065080D01*
X15001177Y-18136509D01*
X14986891Y-18193652D01*
X14972606Y-18222223D01*
X14958320Y-18236509D01*
X14929748Y-18250794D01*
X14901177Y-18250794D01*
X14872606Y-18236509D01*
X14858320Y-18222223D01*
X14844034Y-18193652D01*
X14829748Y-18136509D01*
X14829748Y-18065080D01*
X14844034Y-18007937D01*
X14858320Y-17979366D01*
X14872606Y-17965080D01*
X14901177Y-17950794D01*
X15129748Y-18250794D02*
X15129748Y-18050794D01*
X15129748Y-18079366D02*
X15144034Y-18065080D01*
X15172606Y-18050794D01*
X15215463Y-18050794D01*
X15244034Y-18065080D01*
X15258320Y-18093652D01*
X15258320Y-18250794D01*
X15258320Y-18093652D02*
X15272606Y-18065080D01*
X15301177Y-18050794D01*
X15344034Y-18050794D01*
X15372606Y-18065080D01*
X15386891Y-18093652D01*
X15386891Y-18250794D01*
X15529748Y-18250794D02*
X15529748Y-18050794D01*
X15529748Y-18079366D02*
X15544034Y-18065080D01*
X15572606Y-18050794D01*
X15615463Y-18050794D01*
X15644034Y-18065080D01*
X15658320Y-18093652D01*
X15658320Y-18250794D01*
X15658320Y-18093652D02*
X15672606Y-18065080D01*
X15701177Y-18050794D01*
X15744034Y-18050794D01*
X15772606Y-18065080D01*
X15786891Y-18093652D01*
X15786891Y-18250794D01*
X16372606Y-17936509D02*
X16115463Y-18322223D01*
X16758320Y-17950794D02*
X16786891Y-17950794D01*
X16815463Y-17965080D01*
X16829748Y-17979366D01*
X16844034Y-18007937D01*
X16858320Y-18065080D01*
X16858320Y-18136509D01*
X16844034Y-18193652D01*
X16829748Y-18222223D01*
X16815463Y-18236509D01*
X16786891Y-18250794D01*
X16758320Y-18250794D01*
X16729748Y-18236509D01*
X16715463Y-18222223D01*
X16701177Y-18193652D01*
X16686891Y-18136509D01*
X16686891Y-18065080D01*
X16701177Y-18007937D01*
X16715463Y-17979366D01*
X16729748Y-17965080D01*
X16758320Y-17950794D01*
X16986891Y-18222223D02*
X17001177Y-18236509D01*
X16986891Y-18250794D01*
X16972606Y-18236509D01*
X16986891Y-18222223D01*
X16986891Y-18250794D01*
X17186891Y-17950794D02*
X17215463Y-17950794D01*
X17244034Y-17965080D01*
X17258320Y-17979366D01*
X17272606Y-18007937D01*
X17286891Y-18065080D01*
X17286891Y-18136509D01*
X17272606Y-18193652D01*
X17258320Y-18222223D01*
X17244034Y-18236509D01*
X17215463Y-18250794D01*
X17186891Y-18250794D01*
X17158320Y-18236509D01*
X17144034Y-18222223D01*
X17129748Y-18193652D01*
X17115463Y-18136509D01*
X17115463Y-18065080D01*
X17129748Y-18007937D01*
X17144034Y-17979366D01*
X17158320Y-17965080D01*
X17186891Y-17950794D01*
X17572606Y-18250794D02*
X17401177Y-18250794D01*
X17486891Y-18250794D02*
X17486891Y-17950794D01*
X17458320Y-17993652D01*
X17429748Y-18022223D01*
X17401177Y-18036509D01*
X17829748Y-17950794D02*
X17772606Y-17950794D01*
X17744034Y-17965080D01*
X17729748Y-17979366D01*
X17701177Y-18022223D01*
X17686891Y-18079366D01*
X17686891Y-18193652D01*
X17701177Y-18222223D01*
X17715463Y-18236509D01*
X17744034Y-18250794D01*
X17801177Y-18250794D01*
X17829748Y-18236509D01*
X17844034Y-18222223D01*
X17858320Y-18193652D01*
X17858320Y-18122223D01*
X17844034Y-18093652D01*
X17829748Y-18079366D01*
X17801177Y-18065080D01*
X17744034Y-18065080D01*
X17715463Y-18079366D01*
X17701177Y-18093652D01*
X17686891Y-18122223D01*
X17972606Y-17950794D02*
X17972606Y-18007937D01*
X18086891Y-17950794D02*
X18086891Y-18007937D01*
X18529748Y-18365080D02*
X18515463Y-18350794D01*
X18486891Y-18307937D01*
X18472606Y-18279366D01*
X18458320Y-18236509D01*
X18444034Y-18165080D01*
X18444034Y-18107937D01*
X18458320Y-18036509D01*
X18472606Y-17993652D01*
X18486891Y-17965080D01*
X18515463Y-17922223D01*
X18529748Y-17907937D01*
X18801177Y-18250794D02*
X18629748Y-18250794D01*
X18715463Y-18250794D02*
X18715463Y-17950794D01*
X18686891Y-17993652D01*
X18658320Y-18022223D01*
X18629748Y-18036509D01*
X19086891Y-18250794D02*
X18915463Y-18250794D01*
X19001177Y-18250794D02*
X19001177Y-17950794D01*
X18972606Y-17993652D01*
X18944034Y-18022223D01*
X18915463Y-18036509D01*
X19358320Y-17950794D02*
X19215463Y-17950794D01*
X19201177Y-18093652D01*
X19215463Y-18079366D01*
X19244034Y-18065080D01*
X19315463Y-18065080D01*
X19344034Y-18079366D01*
X19358320Y-18093652D01*
X19372606Y-18122223D01*
X19372606Y-18193652D01*
X19358320Y-18222223D01*
X19344034Y-18236509D01*
X19315463Y-18250794D01*
X19244034Y-18250794D01*
X19215463Y-18236509D01*
X19201177Y-18222223D01*
X19729748Y-18250794D02*
X19729748Y-17950794D01*
X19858320Y-18250794D02*
X19858320Y-18093652D01*
X19844034Y-18065080D01*
X19815463Y-18050794D01*
X19772606Y-18050794D01*
X19744034Y-18065080D01*
X19729748Y-18079366D01*
X20044034Y-18250794D02*
X20015463Y-18236509D01*
X20001177Y-18222223D01*
X19986891Y-18193652D01*
X19986891Y-18107937D01*
X20001177Y-18079366D01*
X20015463Y-18065080D01*
X20044034Y-18050794D01*
X20086891Y-18050794D01*
X20115463Y-18065080D01*
X20129748Y-18079366D01*
X20144034Y-18107937D01*
X20144034Y-18193652D01*
X20129748Y-18222223D01*
X20115463Y-18236509D01*
X20086891Y-18250794D01*
X20044034Y-18250794D01*
X20315463Y-18250794D02*
X20286891Y-18236509D01*
X20272606Y-18207937D01*
X20272606Y-17950794D01*
X20544034Y-18236509D02*
X20515463Y-18250794D01*
X20458320Y-18250794D01*
X20429749Y-18236509D01*
X20415463Y-18207937D01*
X20415463Y-18093652D01*
X20429749Y-18065080D01*
X20458320Y-18050794D01*
X20515463Y-18050794D01*
X20544034Y-18065080D01*
X20558320Y-18093652D01*
X20558320Y-18122223D01*
X20415463Y-18150794D01*
X20672606Y-18236509D02*
X20701177Y-18250794D01*
X20758320Y-18250794D01*
X20786891Y-18236509D01*
X20801177Y-18207937D01*
X20801177Y-18193652D01*
X20786891Y-18165080D01*
X20758320Y-18150794D01*
X20715463Y-18150794D01*
X20686891Y-18136509D01*
X20672606Y-18107937D01*
X20672606Y-18093652D01*
X20686891Y-18065080D01*
X20715463Y-18050794D01*
X20758320Y-18050794D01*
X20786891Y-18065080D01*
X20901177Y-18365080D02*
X20915463Y-18350794D01*
X20944034Y-18307937D01*
X20958320Y-18279366D01*
X20972606Y-18236509D01*
X20986891Y-18165080D01*
X20986891Y-18107937D01*
X20972606Y-18036509D01*
X20958320Y-17993652D01*
X20944034Y-17965080D01*
X20915463Y-17922223D01*
X20901177Y-17907937D01*
X13858320Y-18511080D02*
G75*
G03X13858320Y-18511080I-25000J0D01*
G01*
X14186891Y-18346794D02*
X14215463Y-18346794D01*
X14244034Y-18361080D01*
X14258320Y-18375366D01*
X14272606Y-18403937D01*
X14286891Y-18461080D01*
X14286891Y-18532509D01*
X14272606Y-18589652D01*
X14258320Y-18618223D01*
X14244034Y-18632509D01*
X14215463Y-18646794D01*
X14186891Y-18646794D01*
X14158320Y-18632509D01*
X14144034Y-18618223D01*
X14129748Y-18589652D01*
X14115463Y-18532509D01*
X14115463Y-18461080D01*
X14129748Y-18403937D01*
X14144034Y-18375366D01*
X14158320Y-18361080D01*
X14186891Y-18346794D01*
X14415463Y-18618223D02*
X14429748Y-18632509D01*
X14415463Y-18646794D01*
X14401177Y-18632509D01*
X14415463Y-18618223D01*
X14415463Y-18646794D01*
X14701177Y-18346794D02*
X14558320Y-18346794D01*
X14544034Y-18489652D01*
X14558320Y-18475366D01*
X14586891Y-18461080D01*
X14658320Y-18461080D01*
X14686891Y-18475366D01*
X14701177Y-18489652D01*
X14715463Y-18518223D01*
X14715463Y-18589652D01*
X14701177Y-18618223D01*
X14686891Y-18632509D01*
X14658320Y-18646794D01*
X14586891Y-18646794D01*
X14558320Y-18632509D01*
X14544034Y-18618223D01*
X14901177Y-18346794D02*
X14929748Y-18346794D01*
X14958320Y-18361080D01*
X14972606Y-18375366D01*
X14986891Y-18403937D01*
X15001177Y-18461080D01*
X15001177Y-18532509D01*
X14986891Y-18589652D01*
X14972606Y-18618223D01*
X14958320Y-18632509D01*
X14929748Y-18646794D01*
X14901177Y-18646794D01*
X14872606Y-18632509D01*
X14858320Y-18618223D01*
X14844034Y-18589652D01*
X14829748Y-18532509D01*
X14829748Y-18461080D01*
X14844034Y-18403937D01*
X14858320Y-18375366D01*
X14872606Y-18361080D01*
X14901177Y-18346794D01*
X15129748Y-18646794D02*
X15129748Y-18446794D01*
X15129748Y-18475366D02*
X15144034Y-18461080D01*
X15172606Y-18446794D01*
X15215463Y-18446794D01*
X15244034Y-18461080D01*
X15258320Y-18489652D01*
X15258320Y-18646794D01*
X15258320Y-18489652D02*
X15272606Y-18461080D01*
X15301177Y-18446794D01*
X15344034Y-18446794D01*
X15372606Y-18461080D01*
X15386891Y-18489652D01*
X15386891Y-18646794D01*
X15529748Y-18646794D02*
X15529748Y-18446794D01*
X15529748Y-18475366D02*
X15544034Y-18461080D01*
X15572606Y-18446794D01*
X15615463Y-18446794D01*
X15644034Y-18461080D01*
X15658320Y-18489652D01*
X15658320Y-18646794D01*
X15658320Y-18489652D02*
X15672606Y-18461080D01*
X15701177Y-18446794D01*
X15744034Y-18446794D01*
X15772606Y-18461080D01*
X15786891Y-18489652D01*
X15786891Y-18646794D01*
X16372606Y-18332509D02*
X16115463Y-18718223D01*
X16758320Y-18346794D02*
X16786891Y-18346794D01*
X16815463Y-18361080D01*
X16829748Y-18375366D01*
X16844034Y-18403937D01*
X16858320Y-18461080D01*
X16858320Y-18532509D01*
X16844034Y-18589652D01*
X16829748Y-18618223D01*
X16815463Y-18632509D01*
X16786891Y-18646794D01*
X16758320Y-18646794D01*
X16729748Y-18632509D01*
X16715463Y-18618223D01*
X16701177Y-18589652D01*
X16686891Y-18532509D01*
X16686891Y-18461080D01*
X16701177Y-18403937D01*
X16715463Y-18375366D01*
X16729748Y-18361080D01*
X16758320Y-18346794D01*
X16986891Y-18618223D02*
X17001177Y-18632509D01*
X16986891Y-18646794D01*
X16972606Y-18632509D01*
X16986891Y-18618223D01*
X16986891Y-18646794D01*
X17186891Y-18346794D02*
X17215463Y-18346794D01*
X17244034Y-18361080D01*
X17258320Y-18375366D01*
X17272606Y-18403937D01*
X17286891Y-18461080D01*
X17286891Y-18532509D01*
X17272606Y-18589652D01*
X17258320Y-18618223D01*
X17244034Y-18632509D01*
X17215463Y-18646794D01*
X17186891Y-18646794D01*
X17158320Y-18632509D01*
X17144034Y-18618223D01*
X17129748Y-18589652D01*
X17115463Y-18532509D01*
X17115463Y-18461080D01*
X17129748Y-18403937D01*
X17144034Y-18375366D01*
X17158320Y-18361080D01*
X17186891Y-18346794D01*
X17401177Y-18375366D02*
X17415463Y-18361080D01*
X17444034Y-18346794D01*
X17515463Y-18346794D01*
X17544034Y-18361080D01*
X17558320Y-18375366D01*
X17572606Y-18403937D01*
X17572606Y-18432509D01*
X17558320Y-18475366D01*
X17386891Y-18646794D01*
X17572606Y-18646794D01*
X17758320Y-18346794D02*
X17786891Y-18346794D01*
X17815463Y-18361080D01*
X17829748Y-18375366D01*
X17844034Y-18403937D01*
X17858320Y-18461080D01*
X17858320Y-18532509D01*
X17844034Y-18589652D01*
X17829748Y-18618223D01*
X17815463Y-18632509D01*
X17786891Y-18646794D01*
X17758320Y-18646794D01*
X17729748Y-18632509D01*
X17715463Y-18618223D01*
X17701177Y-18589652D01*
X17686891Y-18532509D01*
X17686891Y-18461080D01*
X17701177Y-18403937D01*
X17715463Y-18375366D01*
X17729748Y-18361080D01*
X17758320Y-18346794D01*
X17972606Y-18346794D02*
X17972606Y-18403937D01*
X18086891Y-18346794D02*
X18086891Y-18403937D01*
X18529748Y-18761080D02*
X18515463Y-18746794D01*
X18486891Y-18703937D01*
X18472606Y-18675366D01*
X18458320Y-18632509D01*
X18444034Y-18561080D01*
X18444034Y-18503937D01*
X18458320Y-18432509D01*
X18472606Y-18389652D01*
X18486891Y-18361080D01*
X18515463Y-18318223D01*
X18529748Y-18303937D01*
X18701177Y-18346794D02*
X18729748Y-18346794D01*
X18758320Y-18361080D01*
X18772606Y-18375366D01*
X18786891Y-18403937D01*
X18801177Y-18461080D01*
X18801177Y-18532509D01*
X18786891Y-18589652D01*
X18772606Y-18618223D01*
X18758320Y-18632509D01*
X18729748Y-18646794D01*
X18701177Y-18646794D01*
X18672606Y-18632509D01*
X18658320Y-18618223D01*
X18644034Y-18589652D01*
X18629748Y-18532509D01*
X18629748Y-18461080D01*
X18644034Y-18403937D01*
X18658320Y-18375366D01*
X18672606Y-18361080D01*
X18701177Y-18346794D01*
X19158320Y-18646794D02*
X19158320Y-18346794D01*
X19286891Y-18646794D02*
X19286891Y-18489652D01*
X19272606Y-18461080D01*
X19244034Y-18446794D01*
X19201177Y-18446794D01*
X19172606Y-18461080D01*
X19158320Y-18475366D01*
X19472606Y-18646794D02*
X19444034Y-18632509D01*
X19429748Y-18618223D01*
X19415463Y-18589652D01*
X19415463Y-18503937D01*
X19429748Y-18475366D01*
X19444034Y-18461080D01*
X19472606Y-18446794D01*
X19515463Y-18446794D01*
X19544034Y-18461080D01*
X19558320Y-18475366D01*
X19572606Y-18503937D01*
X19572606Y-18589652D01*
X19558320Y-18618223D01*
X19544034Y-18632509D01*
X19515463Y-18646794D01*
X19472606Y-18646794D01*
X19744034Y-18646794D02*
X19715463Y-18632509D01*
X19701177Y-18603937D01*
X19701177Y-18346794D01*
X19972606Y-18632509D02*
X19944034Y-18646794D01*
X19886891Y-18646794D01*
X19858320Y-18632509D01*
X19844034Y-18603937D01*
X19844034Y-18489652D01*
X19858320Y-18461080D01*
X19886891Y-18446794D01*
X19944034Y-18446794D01*
X19972606Y-18461080D01*
X19986891Y-18489652D01*
X19986891Y-18518223D01*
X19844034Y-18546794D01*
X20101177Y-18632509D02*
X20129749Y-18646794D01*
X20186891Y-18646794D01*
X20215463Y-18632509D01*
X20229749Y-18603937D01*
X20229749Y-18589652D01*
X20215463Y-18561080D01*
X20186891Y-18546794D01*
X20144034Y-18546794D01*
X20115463Y-18532509D01*
X20101177Y-18503937D01*
X20101177Y-18489652D01*
X20115463Y-18461080D01*
X20144034Y-18446794D01*
X20186891Y-18446794D01*
X20215463Y-18461080D01*
X20586891Y-18532509D02*
X20815463Y-18532509D01*
X20701177Y-18646794D02*
X20701177Y-18418223D01*
X21315463Y-18446794D02*
X21315463Y-18646794D01*
X21244034Y-18332509D02*
X21172606Y-18546794D01*
X21358320Y-18546794D01*
X21686891Y-18632509D02*
X21715463Y-18646794D01*
X21772606Y-18646794D01*
X21801177Y-18632509D01*
X21815463Y-18603937D01*
X21815463Y-18589652D01*
X21801177Y-18561080D01*
X21772606Y-18546794D01*
X21729748Y-18546794D01*
X21701177Y-18532509D01*
X21686891Y-18503937D01*
X21686891Y-18489652D01*
X21701177Y-18461080D01*
X21729748Y-18446794D01*
X21772606Y-18446794D01*
X21801177Y-18461080D01*
X21986891Y-18646794D02*
X21958320Y-18632509D01*
X21944034Y-18603937D01*
X21944034Y-18346794D01*
X22144034Y-18646794D02*
X22115463Y-18632509D01*
X22101177Y-18618223D01*
X22086891Y-18589652D01*
X22086891Y-18503937D01*
X22101177Y-18475366D01*
X22115463Y-18461080D01*
X22144034Y-18446794D01*
X22186891Y-18446794D01*
X22215463Y-18461080D01*
X22229748Y-18475366D01*
X22244034Y-18503937D01*
X22244034Y-18589652D01*
X22229748Y-18618223D01*
X22215463Y-18632509D01*
X22186891Y-18646794D01*
X22144034Y-18646794D01*
X22329748Y-18446794D02*
X22444034Y-18446794D01*
X22372606Y-18346794D02*
X22372606Y-18603937D01*
X22386891Y-18632509D01*
X22415463Y-18646794D01*
X22444034Y-18646794D01*
X22529748Y-18632509D02*
X22558320Y-18646794D01*
X22615463Y-18646794D01*
X22644034Y-18632509D01*
X22658320Y-18603937D01*
X22658320Y-18589652D01*
X22644034Y-18561080D01*
X22615463Y-18546794D01*
X22572606Y-18546794D01*
X22544034Y-18532509D01*
X22529748Y-18503937D01*
X22529748Y-18489652D01*
X22544034Y-18461080D01*
X22572606Y-18446794D01*
X22615463Y-18446794D01*
X22644034Y-18461080D01*
X22758320Y-18761080D02*
X22772606Y-18746794D01*
X22801177Y-18703937D01*
X22815463Y-18675366D01*
X22829748Y-18632509D01*
X22844034Y-18561080D01*
X22844034Y-18503937D01*
X22829748Y-18432509D01*
X22815463Y-18389652D01*
X22801177Y-18361080D01*
X22772606Y-18318223D01*
X22758320Y-18303937D01*
X13830820Y-18879580D02*
X13830820Y-18934580D01*
X13803320Y-18907080D02*
X13858320Y-18907080D01*
X14186891Y-18742794D02*
X14215463Y-18742794D01*
X14244034Y-18757080D01*
X14258320Y-18771366D01*
X14272606Y-18799937D01*
X14286891Y-18857080D01*
X14286891Y-18928509D01*
X14272606Y-18985652D01*
X14258320Y-19014223D01*
X14244034Y-19028509D01*
X14215463Y-19042794D01*
X14186891Y-19042794D01*
X14158320Y-19028509D01*
X14144034Y-19014223D01*
X14129748Y-18985652D01*
X14115463Y-18928509D01*
X14115463Y-18857080D01*
X14129748Y-18799937D01*
X14144034Y-18771366D01*
X14158320Y-18757080D01*
X14186891Y-18742794D01*
X14415463Y-19014223D02*
X14429748Y-19028509D01*
X14415463Y-19042794D01*
X14401177Y-19028509D01*
X14415463Y-19014223D01*
X14415463Y-19042794D01*
X14701177Y-18742794D02*
X14558320Y-18742794D01*
X14544034Y-18885652D01*
X14558320Y-18871366D01*
X14586891Y-18857080D01*
X14658320Y-18857080D01*
X14686891Y-18871366D01*
X14701177Y-18885652D01*
X14715463Y-18914223D01*
X14715463Y-18985652D01*
X14701177Y-19014223D01*
X14686891Y-19028509D01*
X14658320Y-19042794D01*
X14586891Y-19042794D01*
X14558320Y-19028509D01*
X14544034Y-19014223D01*
X14986891Y-18742794D02*
X14844034Y-18742794D01*
X14829748Y-18885652D01*
X14844034Y-18871366D01*
X14872606Y-18857080D01*
X14944034Y-18857080D01*
X14972606Y-18871366D01*
X14986891Y-18885652D01*
X15001177Y-18914223D01*
X15001177Y-18985652D01*
X14986891Y-19014223D01*
X14972606Y-19028509D01*
X14944034Y-19042794D01*
X14872606Y-19042794D01*
X14844034Y-19028509D01*
X14829748Y-19014223D01*
X15129748Y-19042794D02*
X15129748Y-18842794D01*
X15129748Y-18871366D02*
X15144034Y-18857080D01*
X15172606Y-18842794D01*
X15215463Y-18842794D01*
X15244034Y-18857080D01*
X15258320Y-18885652D01*
X15258320Y-19042794D01*
X15258320Y-18885652D02*
X15272606Y-18857080D01*
X15301177Y-18842794D01*
X15344034Y-18842794D01*
X15372606Y-18857080D01*
X15386891Y-18885652D01*
X15386891Y-19042794D01*
X15529748Y-19042794D02*
X15529748Y-18842794D01*
X15529748Y-18871366D02*
X15544034Y-18857080D01*
X15572606Y-18842794D01*
X15615463Y-18842794D01*
X15644034Y-18857080D01*
X15658320Y-18885652D01*
X15658320Y-19042794D01*
X15658320Y-18885652D02*
X15672606Y-18857080D01*
X15701177Y-18842794D01*
X15744034Y-18842794D01*
X15772606Y-18857080D01*
X15786891Y-18885652D01*
X15786891Y-19042794D01*
X16372606Y-18728509D02*
X16115463Y-19114223D01*
X16758320Y-18742794D02*
X16786891Y-18742794D01*
X16815463Y-18757080D01*
X16829748Y-18771366D01*
X16844034Y-18799937D01*
X16858320Y-18857080D01*
X16858320Y-18928509D01*
X16844034Y-18985652D01*
X16829748Y-19014223D01*
X16815463Y-19028509D01*
X16786891Y-19042794D01*
X16758320Y-19042794D01*
X16729748Y-19028509D01*
X16715463Y-19014223D01*
X16701177Y-18985652D01*
X16686891Y-18928509D01*
X16686891Y-18857080D01*
X16701177Y-18799937D01*
X16715463Y-18771366D01*
X16729748Y-18757080D01*
X16758320Y-18742794D01*
X16986891Y-19014223D02*
X17001177Y-19028509D01*
X16986891Y-19042794D01*
X16972606Y-19028509D01*
X16986891Y-19014223D01*
X16986891Y-19042794D01*
X17186891Y-18742794D02*
X17215463Y-18742794D01*
X17244034Y-18757080D01*
X17258320Y-18771366D01*
X17272606Y-18799937D01*
X17286891Y-18857080D01*
X17286891Y-18928509D01*
X17272606Y-18985652D01*
X17258320Y-19014223D01*
X17244034Y-19028509D01*
X17215463Y-19042794D01*
X17186891Y-19042794D01*
X17158320Y-19028509D01*
X17144034Y-19014223D01*
X17129748Y-18985652D01*
X17115463Y-18928509D01*
X17115463Y-18857080D01*
X17129748Y-18799937D01*
X17144034Y-18771366D01*
X17158320Y-18757080D01*
X17186891Y-18742794D01*
X17401177Y-18771366D02*
X17415463Y-18757080D01*
X17444034Y-18742794D01*
X17515463Y-18742794D01*
X17544034Y-18757080D01*
X17558320Y-18771366D01*
X17572606Y-18799937D01*
X17572606Y-18828509D01*
X17558320Y-18871366D01*
X17386891Y-19042794D01*
X17572606Y-19042794D01*
X17686891Y-18771366D02*
X17701177Y-18757080D01*
X17729748Y-18742794D01*
X17801177Y-18742794D01*
X17829748Y-18757080D01*
X17844034Y-18771366D01*
X17858320Y-18799937D01*
X17858320Y-18828509D01*
X17844034Y-18871366D01*
X17672606Y-19042794D01*
X17858320Y-19042794D01*
X17972606Y-18742794D02*
X17972606Y-18799937D01*
X18086891Y-18742794D02*
X18086891Y-18799937D01*
X18529748Y-19157080D02*
X18515463Y-19142794D01*
X18486891Y-19099937D01*
X18472606Y-19071366D01*
X18458320Y-19028509D01*
X18444034Y-18957080D01*
X18444034Y-18899937D01*
X18458320Y-18828509D01*
X18472606Y-18785652D01*
X18486891Y-18757080D01*
X18515463Y-18714223D01*
X18529748Y-18699937D01*
X18701177Y-18742794D02*
X18729748Y-18742794D01*
X18758320Y-18757080D01*
X18772606Y-18771366D01*
X18786891Y-18799937D01*
X18801177Y-18857080D01*
X18801177Y-18928509D01*
X18786891Y-18985652D01*
X18772606Y-19014223D01*
X18758320Y-19028509D01*
X18729748Y-19042794D01*
X18701177Y-19042794D01*
X18672606Y-19028509D01*
X18658320Y-19014223D01*
X18644034Y-18985652D01*
X18629748Y-18928509D01*
X18629748Y-18857080D01*
X18644034Y-18799937D01*
X18658320Y-18771366D01*
X18672606Y-18757080D01*
X18701177Y-18742794D01*
X19158320Y-19042794D02*
X19158320Y-18742794D01*
X19286891Y-19042794D02*
X19286891Y-18885652D01*
X19272606Y-18857080D01*
X19244034Y-18842794D01*
X19201177Y-18842794D01*
X19172606Y-18857080D01*
X19158320Y-18871366D01*
X19472606Y-19042794D02*
X19444034Y-19028509D01*
X19429748Y-19014223D01*
X19415463Y-18985652D01*
X19415463Y-18899937D01*
X19429748Y-18871366D01*
X19444034Y-18857080D01*
X19472606Y-18842794D01*
X19515463Y-18842794D01*
X19544034Y-18857080D01*
X19558320Y-18871366D01*
X19572606Y-18899937D01*
X19572606Y-18985652D01*
X19558320Y-19014223D01*
X19544034Y-19028509D01*
X19515463Y-19042794D01*
X19472606Y-19042794D01*
X19744034Y-19042794D02*
X19715463Y-19028509D01*
X19701177Y-18999937D01*
X19701177Y-18742794D01*
X19972606Y-19028509D02*
X19944034Y-19042794D01*
X19886891Y-19042794D01*
X19858320Y-19028509D01*
X19844034Y-18999937D01*
X19844034Y-18885652D01*
X19858320Y-18857080D01*
X19886891Y-18842794D01*
X19944034Y-18842794D01*
X19972606Y-18857080D01*
X19986891Y-18885652D01*
X19986891Y-18914223D01*
X19844034Y-18942794D01*
X20101177Y-19028509D02*
X20129749Y-19042794D01*
X20186891Y-19042794D01*
X20215463Y-19028509D01*
X20229749Y-18999937D01*
X20229749Y-18985652D01*
X20215463Y-18957080D01*
X20186891Y-18942794D01*
X20144034Y-18942794D01*
X20115463Y-18928509D01*
X20101177Y-18899937D01*
X20101177Y-18885652D01*
X20115463Y-18857080D01*
X20144034Y-18842794D01*
X20186891Y-18842794D01*
X20215463Y-18857080D01*
X20586891Y-18928509D02*
X20815463Y-18928509D01*
X20701177Y-19042794D02*
X20701177Y-18814223D01*
X21315463Y-18842794D02*
X21315463Y-19042794D01*
X21244034Y-18728509D02*
X21172606Y-18942794D01*
X21358320Y-18942794D01*
X21686891Y-19028509D02*
X21715463Y-19042794D01*
X21772606Y-19042794D01*
X21801177Y-19028509D01*
X21815463Y-18999937D01*
X21815463Y-18985652D01*
X21801177Y-18957080D01*
X21772606Y-18942794D01*
X21729748Y-18942794D01*
X21701177Y-18928509D01*
X21686891Y-18899937D01*
X21686891Y-18885652D01*
X21701177Y-18857080D01*
X21729748Y-18842794D01*
X21772606Y-18842794D01*
X21801177Y-18857080D01*
X21986891Y-19042794D02*
X21958320Y-19028509D01*
X21944034Y-18999937D01*
X21944034Y-18742794D01*
X22144034Y-19042794D02*
X22115463Y-19028509D01*
X22101177Y-19014223D01*
X22086891Y-18985652D01*
X22086891Y-18899937D01*
X22101177Y-18871366D01*
X22115463Y-18857080D01*
X22144034Y-18842794D01*
X22186891Y-18842794D01*
X22215463Y-18857080D01*
X22229748Y-18871366D01*
X22244034Y-18899937D01*
X22244034Y-18985652D01*
X22229748Y-19014223D01*
X22215463Y-19028509D01*
X22186891Y-19042794D01*
X22144034Y-19042794D01*
X22329748Y-18842794D02*
X22444034Y-18842794D01*
X22372606Y-18742794D02*
X22372606Y-18999937D01*
X22386891Y-19028509D01*
X22415463Y-19042794D01*
X22444034Y-19042794D01*
X22529748Y-19028509D02*
X22558320Y-19042794D01*
X22615463Y-19042794D01*
X22644034Y-19028509D01*
X22658320Y-18999937D01*
X22658320Y-18985652D01*
X22644034Y-18957080D01*
X22615463Y-18942794D01*
X22572606Y-18942794D01*
X22544034Y-18928509D01*
X22529748Y-18899937D01*
X22529748Y-18885652D01*
X22544034Y-18857080D01*
X22572606Y-18842794D01*
X22615463Y-18842794D01*
X22644034Y-18857080D01*
X22758320Y-19157080D02*
X22772606Y-19142794D01*
X22801177Y-19099937D01*
X22815463Y-19071366D01*
X22829748Y-19028509D01*
X22844034Y-18957080D01*
X22844034Y-18899937D01*
X22829748Y-18828509D01*
X22815463Y-18785652D01*
X22801177Y-18757080D01*
X22772606Y-18714223D01*
X22758320Y-18699937D01*
X13846604Y-19331365D02*
X13846604Y-19274796D01*
X13790035Y-19274796D01*
X13790035Y-19331365D01*
X13846604Y-19331365D01*
X14186891Y-19138794D02*
X14215463Y-19138794D01*
X14244034Y-19153080D01*
X14258320Y-19167366D01*
X14272606Y-19195937D01*
X14286891Y-19253080D01*
X14286891Y-19324509D01*
X14272606Y-19381652D01*
X14258320Y-19410223D01*
X14244034Y-19424509D01*
X14215463Y-19438794D01*
X14186891Y-19438794D01*
X14158320Y-19424509D01*
X14144034Y-19410223D01*
X14129748Y-19381652D01*
X14115463Y-19324509D01*
X14115463Y-19253080D01*
X14129748Y-19195937D01*
X14144034Y-19167366D01*
X14158320Y-19153080D01*
X14186891Y-19138794D01*
X14415463Y-19410223D02*
X14429748Y-19424509D01*
X14415463Y-19438794D01*
X14401177Y-19424509D01*
X14415463Y-19410223D01*
X14415463Y-19438794D01*
X14601177Y-19267366D02*
X14572606Y-19253080D01*
X14558320Y-19238794D01*
X14544034Y-19210223D01*
X14544034Y-19195937D01*
X14558320Y-19167366D01*
X14572606Y-19153080D01*
X14601177Y-19138794D01*
X14658320Y-19138794D01*
X14686891Y-19153080D01*
X14701177Y-19167366D01*
X14715463Y-19195937D01*
X14715463Y-19210223D01*
X14701177Y-19238794D01*
X14686891Y-19253080D01*
X14658320Y-19267366D01*
X14601177Y-19267366D01*
X14572606Y-19281652D01*
X14558320Y-19295937D01*
X14544034Y-19324509D01*
X14544034Y-19381652D01*
X14558320Y-19410223D01*
X14572606Y-19424509D01*
X14601177Y-19438794D01*
X14658320Y-19438794D01*
X14686891Y-19424509D01*
X14701177Y-19410223D01*
X14715463Y-19381652D01*
X14715463Y-19324509D01*
X14701177Y-19295937D01*
X14686891Y-19281652D01*
X14658320Y-19267366D01*
X14901177Y-19138794D02*
X14929748Y-19138794D01*
X14958320Y-19153080D01*
X14972606Y-19167366D01*
X14986891Y-19195937D01*
X15001177Y-19253080D01*
X15001177Y-19324509D01*
X14986891Y-19381652D01*
X14972606Y-19410223D01*
X14958320Y-19424509D01*
X14929748Y-19438794D01*
X14901177Y-19438794D01*
X14872606Y-19424509D01*
X14858320Y-19410223D01*
X14844034Y-19381652D01*
X14829748Y-19324509D01*
X14829748Y-19253080D01*
X14844034Y-19195937D01*
X14858320Y-19167366D01*
X14872606Y-19153080D01*
X14901177Y-19138794D01*
X15129748Y-19438794D02*
X15129748Y-19238794D01*
X15129748Y-19267366D02*
X15144034Y-19253080D01*
X15172606Y-19238794D01*
X15215463Y-19238794D01*
X15244034Y-19253080D01*
X15258320Y-19281652D01*
X15258320Y-19438794D01*
X15258320Y-19281652D02*
X15272606Y-19253080D01*
X15301177Y-19238794D01*
X15344034Y-19238794D01*
X15372606Y-19253080D01*
X15386891Y-19281652D01*
X15386891Y-19438794D01*
X15529748Y-19438794D02*
X15529748Y-19238794D01*
X15529748Y-19267366D02*
X15544034Y-19253080D01*
X15572606Y-19238794D01*
X15615463Y-19238794D01*
X15644034Y-19253080D01*
X15658320Y-19281652D01*
X15658320Y-19438794D01*
X15658320Y-19281652D02*
X15672606Y-19253080D01*
X15701177Y-19238794D01*
X15744034Y-19238794D01*
X15772606Y-19253080D01*
X15786891Y-19281652D01*
X15786891Y-19438794D01*
X16372606Y-19124509D02*
X16115463Y-19510223D01*
X16758320Y-19138794D02*
X16786891Y-19138794D01*
X16815463Y-19153080D01*
X16829748Y-19167366D01*
X16844034Y-19195937D01*
X16858320Y-19253080D01*
X16858320Y-19324509D01*
X16844034Y-19381652D01*
X16829748Y-19410223D01*
X16815463Y-19424509D01*
X16786891Y-19438794D01*
X16758320Y-19438794D01*
X16729748Y-19424509D01*
X16715463Y-19410223D01*
X16701177Y-19381652D01*
X16686891Y-19324509D01*
X16686891Y-19253080D01*
X16701177Y-19195937D01*
X16715463Y-19167366D01*
X16729748Y-19153080D01*
X16758320Y-19138794D01*
X16986891Y-19410223D02*
X17001177Y-19424509D01*
X16986891Y-19438794D01*
X16972606Y-19424509D01*
X16986891Y-19410223D01*
X16986891Y-19438794D01*
X17186891Y-19138794D02*
X17215463Y-19138794D01*
X17244034Y-19153080D01*
X17258320Y-19167366D01*
X17272606Y-19195937D01*
X17286891Y-19253080D01*
X17286891Y-19324509D01*
X17272606Y-19381652D01*
X17258320Y-19410223D01*
X17244034Y-19424509D01*
X17215463Y-19438794D01*
X17186891Y-19438794D01*
X17158320Y-19424509D01*
X17144034Y-19410223D01*
X17129748Y-19381652D01*
X17115463Y-19324509D01*
X17115463Y-19253080D01*
X17129748Y-19195937D01*
X17144034Y-19167366D01*
X17158320Y-19153080D01*
X17186891Y-19138794D01*
X17386891Y-19138794D02*
X17572606Y-19138794D01*
X17472606Y-19253080D01*
X17515463Y-19253080D01*
X17544034Y-19267366D01*
X17558320Y-19281652D01*
X17572606Y-19310223D01*
X17572606Y-19381652D01*
X17558320Y-19410223D01*
X17544034Y-19424509D01*
X17515463Y-19438794D01*
X17429748Y-19438794D01*
X17401177Y-19424509D01*
X17386891Y-19410223D01*
X17858320Y-19438794D02*
X17686891Y-19438794D01*
X17772606Y-19438794D02*
X17772606Y-19138794D01*
X17744034Y-19181652D01*
X17715463Y-19210223D01*
X17686891Y-19224509D01*
X17972606Y-19138794D02*
X17972606Y-19195937D01*
X18086891Y-19138794D02*
X18086891Y-19195937D01*
X18529748Y-19553080D02*
X18515463Y-19538794D01*
X18486891Y-19495937D01*
X18472606Y-19467366D01*
X18458320Y-19424509D01*
X18444034Y-19353080D01*
X18444034Y-19295937D01*
X18458320Y-19224509D01*
X18472606Y-19181652D01*
X18486891Y-19153080D01*
X18515463Y-19110223D01*
X18529748Y-19095937D01*
X18686891Y-19267366D02*
X18658320Y-19253080D01*
X18644034Y-19238794D01*
X18629748Y-19210223D01*
X18629748Y-19195937D01*
X18644034Y-19167366D01*
X18658320Y-19153080D01*
X18686891Y-19138794D01*
X18744034Y-19138794D01*
X18772606Y-19153080D01*
X18786891Y-19167366D01*
X18801177Y-19195937D01*
X18801177Y-19210223D01*
X18786891Y-19238794D01*
X18772606Y-19253080D01*
X18744034Y-19267366D01*
X18686891Y-19267366D01*
X18658320Y-19281652D01*
X18644034Y-19295937D01*
X18629748Y-19324509D01*
X18629748Y-19381652D01*
X18644034Y-19410223D01*
X18658320Y-19424509D01*
X18686891Y-19438794D01*
X18744034Y-19438794D01*
X18772606Y-19424509D01*
X18786891Y-19410223D01*
X18801177Y-19381652D01*
X18801177Y-19324509D01*
X18786891Y-19295937D01*
X18772606Y-19281652D01*
X18744034Y-19267366D01*
X19158320Y-19438794D02*
X19158320Y-19138794D01*
X19286891Y-19438794D02*
X19286891Y-19281652D01*
X19272606Y-19253080D01*
X19244034Y-19238794D01*
X19201177Y-19238794D01*
X19172606Y-19253080D01*
X19158320Y-19267366D01*
X19472606Y-19438794D02*
X19444034Y-19424509D01*
X19429748Y-19410223D01*
X19415463Y-19381652D01*
X19415463Y-19295937D01*
X19429748Y-19267366D01*
X19444034Y-19253080D01*
X19472606Y-19238794D01*
X19515463Y-19238794D01*
X19544034Y-19253080D01*
X19558320Y-19267366D01*
X19572606Y-19295937D01*
X19572606Y-19381652D01*
X19558320Y-19410223D01*
X19544034Y-19424509D01*
X19515463Y-19438794D01*
X19472606Y-19438794D01*
X19744034Y-19438794D02*
X19715463Y-19424509D01*
X19701177Y-19395937D01*
X19701177Y-19138794D01*
X19972606Y-19424509D02*
X19944034Y-19438794D01*
X19886891Y-19438794D01*
X19858320Y-19424509D01*
X19844034Y-19395937D01*
X19844034Y-19281652D01*
X19858320Y-19253080D01*
X19886891Y-19238794D01*
X19944034Y-19238794D01*
X19972606Y-19253080D01*
X19986891Y-19281652D01*
X19986891Y-19310223D01*
X19844034Y-19338794D01*
X20101177Y-19424509D02*
X20129749Y-19438794D01*
X20186891Y-19438794D01*
X20215463Y-19424509D01*
X20229749Y-19395937D01*
X20229749Y-19381652D01*
X20215463Y-19353080D01*
X20186891Y-19338794D01*
X20144034Y-19338794D01*
X20115463Y-19324509D01*
X20101177Y-19295937D01*
X20101177Y-19281652D01*
X20115463Y-19253080D01*
X20144034Y-19238794D01*
X20186891Y-19238794D01*
X20215463Y-19253080D01*
X20329748Y-19553080D02*
X20344034Y-19538794D01*
X20372606Y-19495937D01*
X20386891Y-19467366D01*
X20401177Y-19424509D01*
X20415463Y-19353080D01*
X20415463Y-19295937D01*
X20401177Y-19224509D01*
X20386891Y-19181652D01*
X20372606Y-19153080D01*
X20344034Y-19110223D01*
X20329748Y-19095937D01*
X13817680Y-19739720D02*
X13858320Y-19699080D01*
X13817680Y-19658440D01*
X13777040Y-19699080D01*
X13817680Y-19739720D01*
X14186891Y-19534794D02*
X14215463Y-19534794D01*
X14244034Y-19549080D01*
X14258320Y-19563366D01*
X14272606Y-19591937D01*
X14286891Y-19649080D01*
X14286891Y-19720509D01*
X14272606Y-19777652D01*
X14258320Y-19806223D01*
X14244034Y-19820509D01*
X14215463Y-19834794D01*
X14186891Y-19834794D01*
X14158320Y-19820509D01*
X14144034Y-19806223D01*
X14129748Y-19777652D01*
X14115463Y-19720509D01*
X14115463Y-19649080D01*
X14129748Y-19591937D01*
X14144034Y-19563366D01*
X14158320Y-19549080D01*
X14186891Y-19534794D01*
X14415463Y-19806223D02*
X14429748Y-19820509D01*
X14415463Y-19834794D01*
X14401177Y-19820509D01*
X14415463Y-19806223D01*
X14415463Y-19834794D01*
X14601177Y-19663366D02*
X14572606Y-19649080D01*
X14558320Y-19634794D01*
X14544034Y-19606223D01*
X14544034Y-19591937D01*
X14558320Y-19563366D01*
X14572606Y-19549080D01*
X14601177Y-19534794D01*
X14658320Y-19534794D01*
X14686891Y-19549080D01*
X14701177Y-19563366D01*
X14715463Y-19591937D01*
X14715463Y-19606223D01*
X14701177Y-19634794D01*
X14686891Y-19649080D01*
X14658320Y-19663366D01*
X14601177Y-19663366D01*
X14572606Y-19677652D01*
X14558320Y-19691937D01*
X14544034Y-19720509D01*
X14544034Y-19777652D01*
X14558320Y-19806223D01*
X14572606Y-19820509D01*
X14601177Y-19834794D01*
X14658320Y-19834794D01*
X14686891Y-19820509D01*
X14701177Y-19806223D01*
X14715463Y-19777652D01*
X14715463Y-19720509D01*
X14701177Y-19691937D01*
X14686891Y-19677652D01*
X14658320Y-19663366D01*
X15001177Y-19834794D02*
X14829748Y-19834794D01*
X14915463Y-19834794D02*
X14915463Y-19534794D01*
X14886891Y-19577652D01*
X14858320Y-19606223D01*
X14829748Y-19620509D01*
X15129748Y-19834794D02*
X15129748Y-19634794D01*
X15129748Y-19663366D02*
X15144034Y-19649080D01*
X15172606Y-19634794D01*
X15215463Y-19634794D01*
X15244034Y-19649080D01*
X15258320Y-19677652D01*
X15258320Y-19834794D01*
X15258320Y-19677652D02*
X15272606Y-19649080D01*
X15301177Y-19634794D01*
X15344034Y-19634794D01*
X15372606Y-19649080D01*
X15386891Y-19677652D01*
X15386891Y-19834794D01*
X15529748Y-19834794D02*
X15529748Y-19634794D01*
X15529748Y-19663366D02*
X15544034Y-19649080D01*
X15572606Y-19634794D01*
X15615463Y-19634794D01*
X15644034Y-19649080D01*
X15658320Y-19677652D01*
X15658320Y-19834794D01*
X15658320Y-19677652D02*
X15672606Y-19649080D01*
X15701177Y-19634794D01*
X15744034Y-19634794D01*
X15772606Y-19649080D01*
X15786891Y-19677652D01*
X15786891Y-19834794D01*
X16372606Y-19520509D02*
X16115463Y-19906223D01*
X16758320Y-19534794D02*
X16786891Y-19534794D01*
X16815463Y-19549080D01*
X16829748Y-19563366D01*
X16844034Y-19591937D01*
X16858320Y-19649080D01*
X16858320Y-19720509D01*
X16844034Y-19777652D01*
X16829748Y-19806223D01*
X16815463Y-19820509D01*
X16786891Y-19834794D01*
X16758320Y-19834794D01*
X16729748Y-19820509D01*
X16715463Y-19806223D01*
X16701177Y-19777652D01*
X16686891Y-19720509D01*
X16686891Y-19649080D01*
X16701177Y-19591937D01*
X16715463Y-19563366D01*
X16729748Y-19549080D01*
X16758320Y-19534794D01*
X16986891Y-19806223D02*
X17001177Y-19820509D01*
X16986891Y-19834794D01*
X16972606Y-19820509D01*
X16986891Y-19806223D01*
X16986891Y-19834794D01*
X17186891Y-19534794D02*
X17215463Y-19534794D01*
X17244034Y-19549080D01*
X17258320Y-19563366D01*
X17272606Y-19591937D01*
X17286891Y-19649080D01*
X17286891Y-19720509D01*
X17272606Y-19777652D01*
X17258320Y-19806223D01*
X17244034Y-19820509D01*
X17215463Y-19834794D01*
X17186891Y-19834794D01*
X17158320Y-19820509D01*
X17144034Y-19806223D01*
X17129748Y-19777652D01*
X17115463Y-19720509D01*
X17115463Y-19649080D01*
X17129748Y-19591937D01*
X17144034Y-19563366D01*
X17158320Y-19549080D01*
X17186891Y-19534794D01*
X17386891Y-19534794D02*
X17572606Y-19534794D01*
X17472606Y-19649080D01*
X17515463Y-19649080D01*
X17544034Y-19663366D01*
X17558320Y-19677652D01*
X17572606Y-19706223D01*
X17572606Y-19777652D01*
X17558320Y-19806223D01*
X17544034Y-19820509D01*
X17515463Y-19834794D01*
X17429748Y-19834794D01*
X17401177Y-19820509D01*
X17386891Y-19806223D01*
X17686891Y-19563366D02*
X17701177Y-19549080D01*
X17729748Y-19534794D01*
X17801177Y-19534794D01*
X17829748Y-19549080D01*
X17844034Y-19563366D01*
X17858320Y-19591937D01*
X17858320Y-19620509D01*
X17844034Y-19663366D01*
X17672606Y-19834794D01*
X17858320Y-19834794D01*
X17972606Y-19534794D02*
X17972606Y-19591937D01*
X18086891Y-19534794D02*
X18086891Y-19591937D01*
X18529748Y-19949080D02*
X18515463Y-19934794D01*
X18486891Y-19891937D01*
X18472606Y-19863366D01*
X18458320Y-19820509D01*
X18444034Y-19749080D01*
X18444034Y-19691937D01*
X18458320Y-19620509D01*
X18472606Y-19577652D01*
X18486891Y-19549080D01*
X18515463Y-19506223D01*
X18529748Y-19491937D01*
X18629748Y-19563366D02*
X18644034Y-19549080D01*
X18672606Y-19534794D01*
X18744034Y-19534794D01*
X18772606Y-19549080D01*
X18786891Y-19563366D01*
X18801177Y-19591937D01*
X18801177Y-19620509D01*
X18786891Y-19663366D01*
X18615463Y-19834794D01*
X18801177Y-19834794D01*
X18986891Y-19534794D02*
X19015463Y-19534794D01*
X19044034Y-19549080D01*
X19058320Y-19563366D01*
X19072606Y-19591937D01*
X19086891Y-19649080D01*
X19086891Y-19720509D01*
X19072606Y-19777652D01*
X19058320Y-19806223D01*
X19044034Y-19820509D01*
X19015463Y-19834794D01*
X18986891Y-19834794D01*
X18958320Y-19820509D01*
X18944034Y-19806223D01*
X18929748Y-19777652D01*
X18915463Y-19720509D01*
X18915463Y-19649080D01*
X18929748Y-19591937D01*
X18944034Y-19563366D01*
X18958320Y-19549080D01*
X18986891Y-19534794D01*
X19444034Y-19834794D02*
X19444034Y-19534794D01*
X19572606Y-19834794D02*
X19572606Y-19677652D01*
X19558320Y-19649080D01*
X19529748Y-19634794D01*
X19486891Y-19634794D01*
X19458320Y-19649080D01*
X19444034Y-19663366D01*
X19758320Y-19834794D02*
X19729748Y-19820509D01*
X19715463Y-19806223D01*
X19701177Y-19777652D01*
X19701177Y-19691937D01*
X19715463Y-19663366D01*
X19729748Y-19649080D01*
X19758320Y-19634794D01*
X19801177Y-19634794D01*
X19829748Y-19649080D01*
X19844034Y-19663366D01*
X19858320Y-19691937D01*
X19858320Y-19777652D01*
X19844034Y-19806223D01*
X19829748Y-19820509D01*
X19801177Y-19834794D01*
X19758320Y-19834794D01*
X20029748Y-19834794D02*
X20001177Y-19820509D01*
X19986891Y-19791937D01*
X19986891Y-19534794D01*
X20258320Y-19820509D02*
X20229749Y-19834794D01*
X20172606Y-19834794D01*
X20144034Y-19820509D01*
X20129749Y-19791937D01*
X20129749Y-19677652D01*
X20144034Y-19649080D01*
X20172606Y-19634794D01*
X20229749Y-19634794D01*
X20258320Y-19649080D01*
X20272606Y-19677652D01*
X20272606Y-19706223D01*
X20129749Y-19734794D01*
X20386891Y-19820509D02*
X20415463Y-19834794D01*
X20472606Y-19834794D01*
X20501177Y-19820509D01*
X20515463Y-19791937D01*
X20515463Y-19777652D01*
X20501177Y-19749080D01*
X20472606Y-19734794D01*
X20429749Y-19734794D01*
X20401177Y-19720509D01*
X20386891Y-19691937D01*
X20386891Y-19677652D01*
X20401177Y-19649080D01*
X20429749Y-19634794D01*
X20472606Y-19634794D01*
X20501177Y-19649080D01*
X20615463Y-19949080D02*
X20629749Y-19934794D01*
X20658320Y-19891937D01*
X20672606Y-19863366D01*
X20686891Y-19820509D01*
X20701177Y-19749080D01*
X20701177Y-19691937D01*
X20686891Y-19620509D01*
X20672606Y-19577652D01*
X20658320Y-19549080D01*
X20629749Y-19506223D01*
X20615463Y-19491937D01*
X13758244Y-20045042D02*
X13858320Y-20145118D01*
X13858320Y-20045042D02*
X13758244Y-20145118D01*
X13858320Y-20095080D02*
G75*
G03X13858320Y-20095080I-50038J0D01*
G01*
X14286891Y-20230794D02*
X14115463Y-20230794D01*
X14201177Y-20230794D02*
X14201177Y-19930794D01*
X14172606Y-19973652D01*
X14144034Y-20002223D01*
X14115463Y-20016509D01*
X14415463Y-20202223D02*
X14429748Y-20216509D01*
X14415463Y-20230794D01*
X14401177Y-20216509D01*
X14415463Y-20202223D01*
X14415463Y-20230794D01*
X14615463Y-19930794D02*
X14644034Y-19930794D01*
X14672606Y-19945080D01*
X14686891Y-19959366D01*
X14701177Y-19987937D01*
X14715463Y-20045080D01*
X14715463Y-20116509D01*
X14701177Y-20173652D01*
X14686891Y-20202223D01*
X14672606Y-20216509D01*
X14644034Y-20230794D01*
X14615463Y-20230794D01*
X14586891Y-20216509D01*
X14572606Y-20202223D01*
X14558320Y-20173652D01*
X14544034Y-20116509D01*
X14544034Y-20045080D01*
X14558320Y-19987937D01*
X14572606Y-19959366D01*
X14586891Y-19945080D01*
X14615463Y-19930794D01*
X14901177Y-19930794D02*
X14929748Y-19930794D01*
X14958320Y-19945080D01*
X14972606Y-19959366D01*
X14986891Y-19987937D01*
X15001177Y-20045080D01*
X15001177Y-20116509D01*
X14986891Y-20173652D01*
X14972606Y-20202223D01*
X14958320Y-20216509D01*
X14929748Y-20230794D01*
X14901177Y-20230794D01*
X14872606Y-20216509D01*
X14858320Y-20202223D01*
X14844034Y-20173652D01*
X14829748Y-20116509D01*
X14829748Y-20045080D01*
X14844034Y-19987937D01*
X14858320Y-19959366D01*
X14872606Y-19945080D01*
X14901177Y-19930794D01*
X15129748Y-20230794D02*
X15129748Y-20030794D01*
X15129748Y-20059366D02*
X15144034Y-20045080D01*
X15172606Y-20030794D01*
X15215463Y-20030794D01*
X15244034Y-20045080D01*
X15258320Y-20073652D01*
X15258320Y-20230794D01*
X15258320Y-20073652D02*
X15272606Y-20045080D01*
X15301177Y-20030794D01*
X15344034Y-20030794D01*
X15372606Y-20045080D01*
X15386891Y-20073652D01*
X15386891Y-20230794D01*
X15529748Y-20230794D02*
X15529748Y-20030794D01*
X15529748Y-20059366D02*
X15544034Y-20045080D01*
X15572606Y-20030794D01*
X15615463Y-20030794D01*
X15644034Y-20045080D01*
X15658320Y-20073652D01*
X15658320Y-20230794D01*
X15658320Y-20073652D02*
X15672606Y-20045080D01*
X15701177Y-20030794D01*
X15744034Y-20030794D01*
X15772606Y-20045080D01*
X15786891Y-20073652D01*
X15786891Y-20230794D01*
X16372606Y-19916509D02*
X16115463Y-20302223D01*
X16758320Y-19930794D02*
X16786891Y-19930794D01*
X16815463Y-19945080D01*
X16829748Y-19959366D01*
X16844034Y-19987937D01*
X16858320Y-20045080D01*
X16858320Y-20116509D01*
X16844034Y-20173652D01*
X16829748Y-20202223D01*
X16815463Y-20216509D01*
X16786891Y-20230794D01*
X16758320Y-20230794D01*
X16729748Y-20216509D01*
X16715463Y-20202223D01*
X16701177Y-20173652D01*
X16686891Y-20116509D01*
X16686891Y-20045080D01*
X16701177Y-19987937D01*
X16715463Y-19959366D01*
X16729748Y-19945080D01*
X16758320Y-19930794D01*
X16986891Y-20202223D02*
X17001177Y-20216509D01*
X16986891Y-20230794D01*
X16972606Y-20216509D01*
X16986891Y-20202223D01*
X16986891Y-20230794D01*
X17186891Y-19930794D02*
X17215463Y-19930794D01*
X17244034Y-19945080D01*
X17258320Y-19959366D01*
X17272606Y-19987937D01*
X17286891Y-20045080D01*
X17286891Y-20116509D01*
X17272606Y-20173652D01*
X17258320Y-20202223D01*
X17244034Y-20216509D01*
X17215463Y-20230794D01*
X17186891Y-20230794D01*
X17158320Y-20216509D01*
X17144034Y-20202223D01*
X17129748Y-20173652D01*
X17115463Y-20116509D01*
X17115463Y-20045080D01*
X17129748Y-19987937D01*
X17144034Y-19959366D01*
X17158320Y-19945080D01*
X17186891Y-19930794D01*
X17386891Y-19930794D02*
X17572606Y-19930794D01*
X17472606Y-20045080D01*
X17515463Y-20045080D01*
X17544034Y-20059366D01*
X17558320Y-20073652D01*
X17572606Y-20102223D01*
X17572606Y-20173652D01*
X17558320Y-20202223D01*
X17544034Y-20216509D01*
X17515463Y-20230794D01*
X17429748Y-20230794D01*
X17401177Y-20216509D01*
X17386891Y-20202223D01*
X17715463Y-20230794D02*
X17772606Y-20230794D01*
X17801177Y-20216509D01*
X17815463Y-20202223D01*
X17844034Y-20159366D01*
X17858320Y-20102223D01*
X17858320Y-19987937D01*
X17844034Y-19959366D01*
X17829748Y-19945080D01*
X17801177Y-19930794D01*
X17744034Y-19930794D01*
X17715463Y-19945080D01*
X17701177Y-19959366D01*
X17686891Y-19987937D01*
X17686891Y-20059366D01*
X17701177Y-20087937D01*
X17715463Y-20102223D01*
X17744034Y-20116509D01*
X17801177Y-20116509D01*
X17829748Y-20102223D01*
X17844034Y-20087937D01*
X17858320Y-20059366D01*
X17972606Y-19930794D02*
X17972606Y-19987937D01*
X18086891Y-19930794D02*
X18086891Y-19987937D01*
X18529748Y-20345080D02*
X18515463Y-20330794D01*
X18486891Y-20287937D01*
X18472606Y-20259366D01*
X18458320Y-20216509D01*
X18444034Y-20145080D01*
X18444034Y-20087937D01*
X18458320Y-20016509D01*
X18472606Y-19973652D01*
X18486891Y-19945080D01*
X18515463Y-19902223D01*
X18529748Y-19887937D01*
X18772606Y-20030794D02*
X18772606Y-20230794D01*
X18701177Y-19916509D02*
X18629748Y-20130794D01*
X18815463Y-20130794D01*
X19158320Y-20230794D02*
X19158320Y-19930794D01*
X19286891Y-20230794D02*
X19286891Y-20073652D01*
X19272606Y-20045080D01*
X19244034Y-20030794D01*
X19201177Y-20030794D01*
X19172606Y-20045080D01*
X19158320Y-20059366D01*
X19472606Y-20230794D02*
X19444034Y-20216509D01*
X19429748Y-20202223D01*
X19415463Y-20173652D01*
X19415463Y-20087937D01*
X19429748Y-20059366D01*
X19444034Y-20045080D01*
X19472606Y-20030794D01*
X19515463Y-20030794D01*
X19544034Y-20045080D01*
X19558320Y-20059366D01*
X19572606Y-20087937D01*
X19572606Y-20173652D01*
X19558320Y-20202223D01*
X19544034Y-20216509D01*
X19515463Y-20230794D01*
X19472606Y-20230794D01*
X19744034Y-20230794D02*
X19715463Y-20216509D01*
X19701177Y-20187937D01*
X19701177Y-19930794D01*
X19972606Y-20216509D02*
X19944034Y-20230794D01*
X19886891Y-20230794D01*
X19858320Y-20216509D01*
X19844034Y-20187937D01*
X19844034Y-20073652D01*
X19858320Y-20045080D01*
X19886891Y-20030794D01*
X19944034Y-20030794D01*
X19972606Y-20045080D01*
X19986891Y-20073652D01*
X19986891Y-20102223D01*
X19844034Y-20130794D01*
X20101177Y-20216509D02*
X20129749Y-20230794D01*
X20186891Y-20230794D01*
X20215463Y-20216509D01*
X20229749Y-20187937D01*
X20229749Y-20173652D01*
X20215463Y-20145080D01*
X20186891Y-20130794D01*
X20144034Y-20130794D01*
X20115463Y-20116509D01*
X20101177Y-20087937D01*
X20101177Y-20073652D01*
X20115463Y-20045080D01*
X20144034Y-20030794D01*
X20186891Y-20030794D01*
X20215463Y-20045080D01*
X20329748Y-20345080D02*
X20344034Y-20330794D01*
X20372606Y-20287937D01*
X20386891Y-20259366D01*
X20401177Y-20216509D01*
X20415463Y-20145080D01*
X20415463Y-20087937D01*
X20401177Y-20016509D01*
X20386891Y-19973652D01*
X20372606Y-19945080D01*
X20344034Y-19902223D01*
X20329748Y-19887937D01*
X13756720Y-20440280D02*
X13858320Y-20541880D01*
X13858320Y-20440280D02*
X13756720Y-20541880D01*
X13807520Y-20440280D02*
X13807520Y-20541880D01*
X13756720Y-20491080D02*
X13858320Y-20491080D01*
X14286891Y-20626794D02*
X14115463Y-20626794D01*
X14201177Y-20626794D02*
X14201177Y-20326794D01*
X14172606Y-20369652D01*
X14144034Y-20398223D01*
X14115463Y-20412509D01*
X14415463Y-20598223D02*
X14429748Y-20612509D01*
X14415463Y-20626794D01*
X14401177Y-20612509D01*
X14415463Y-20598223D01*
X14415463Y-20626794D01*
X14615463Y-20326794D02*
X14644034Y-20326794D01*
X14672606Y-20341080D01*
X14686891Y-20355366D01*
X14701177Y-20383937D01*
X14715463Y-20441080D01*
X14715463Y-20512509D01*
X14701177Y-20569652D01*
X14686891Y-20598223D01*
X14672606Y-20612509D01*
X14644034Y-20626794D01*
X14615463Y-20626794D01*
X14586891Y-20612509D01*
X14572606Y-20598223D01*
X14558320Y-20569652D01*
X14544034Y-20512509D01*
X14544034Y-20441080D01*
X14558320Y-20383937D01*
X14572606Y-20355366D01*
X14586891Y-20341080D01*
X14615463Y-20326794D01*
X14829748Y-20355366D02*
X14844034Y-20341080D01*
X14872606Y-20326794D01*
X14944034Y-20326794D01*
X14972606Y-20341080D01*
X14986891Y-20355366D01*
X15001177Y-20383937D01*
X15001177Y-20412509D01*
X14986891Y-20455366D01*
X14815463Y-20626794D01*
X15001177Y-20626794D01*
X15129748Y-20626794D02*
X15129748Y-20426794D01*
X15129748Y-20455366D02*
X15144034Y-20441080D01*
X15172606Y-20426794D01*
X15215463Y-20426794D01*
X15244034Y-20441080D01*
X15258320Y-20469652D01*
X15258320Y-20626794D01*
X15258320Y-20469652D02*
X15272606Y-20441080D01*
X15301177Y-20426794D01*
X15344034Y-20426794D01*
X15372606Y-20441080D01*
X15386891Y-20469652D01*
X15386891Y-20626794D01*
X15529748Y-20626794D02*
X15529748Y-20426794D01*
X15529748Y-20455366D02*
X15544034Y-20441080D01*
X15572606Y-20426794D01*
X15615463Y-20426794D01*
X15644034Y-20441080D01*
X15658320Y-20469652D01*
X15658320Y-20626794D01*
X15658320Y-20469652D02*
X15672606Y-20441080D01*
X15701177Y-20426794D01*
X15744034Y-20426794D01*
X15772606Y-20441080D01*
X15786891Y-20469652D01*
X15786891Y-20626794D01*
X16372606Y-20312509D02*
X16115463Y-20698223D01*
X16758320Y-20326794D02*
X16786891Y-20326794D01*
X16815463Y-20341080D01*
X16829748Y-20355366D01*
X16844034Y-20383937D01*
X16858320Y-20441080D01*
X16858320Y-20512509D01*
X16844034Y-20569652D01*
X16829748Y-20598223D01*
X16815463Y-20612509D01*
X16786891Y-20626794D01*
X16758320Y-20626794D01*
X16729748Y-20612509D01*
X16715463Y-20598223D01*
X16701177Y-20569652D01*
X16686891Y-20512509D01*
X16686891Y-20441080D01*
X16701177Y-20383937D01*
X16715463Y-20355366D01*
X16729748Y-20341080D01*
X16758320Y-20326794D01*
X16986891Y-20598223D02*
X17001177Y-20612509D01*
X16986891Y-20626794D01*
X16972606Y-20612509D01*
X16986891Y-20598223D01*
X16986891Y-20626794D01*
X17186891Y-20326794D02*
X17215463Y-20326794D01*
X17244034Y-20341080D01*
X17258320Y-20355366D01*
X17272606Y-20383937D01*
X17286891Y-20441080D01*
X17286891Y-20512509D01*
X17272606Y-20569652D01*
X17258320Y-20598223D01*
X17244034Y-20612509D01*
X17215463Y-20626794D01*
X17186891Y-20626794D01*
X17158320Y-20612509D01*
X17144034Y-20598223D01*
X17129748Y-20569652D01*
X17115463Y-20512509D01*
X17115463Y-20441080D01*
X17129748Y-20383937D01*
X17144034Y-20355366D01*
X17158320Y-20341080D01*
X17186891Y-20326794D01*
X17544034Y-20426794D02*
X17544034Y-20626794D01*
X17472606Y-20312509D02*
X17401177Y-20526794D01*
X17586891Y-20526794D01*
X17758320Y-20326794D02*
X17786891Y-20326794D01*
X17815463Y-20341080D01*
X17829748Y-20355366D01*
X17844034Y-20383937D01*
X17858320Y-20441080D01*
X17858320Y-20512509D01*
X17844034Y-20569652D01*
X17829748Y-20598223D01*
X17815463Y-20612509D01*
X17786891Y-20626794D01*
X17758320Y-20626794D01*
X17729748Y-20612509D01*
X17715463Y-20598223D01*
X17701177Y-20569652D01*
X17686891Y-20512509D01*
X17686891Y-20441080D01*
X17701177Y-20383937D01*
X17715463Y-20355366D01*
X17729748Y-20341080D01*
X17758320Y-20326794D01*
X17972606Y-20326794D02*
X17972606Y-20383937D01*
X18086891Y-20326794D02*
X18086891Y-20383937D01*
X18529748Y-20741080D02*
X18515463Y-20726794D01*
X18486891Y-20683937D01*
X18472606Y-20655366D01*
X18458320Y-20612509D01*
X18444034Y-20541080D01*
X18444034Y-20483937D01*
X18458320Y-20412509D01*
X18472606Y-20369652D01*
X18486891Y-20341080D01*
X18515463Y-20298223D01*
X18529748Y-20283937D01*
X18786891Y-20326794D02*
X18644034Y-20326794D01*
X18629748Y-20469652D01*
X18644034Y-20455366D01*
X18672606Y-20441080D01*
X18744034Y-20441080D01*
X18772606Y-20455366D01*
X18786891Y-20469652D01*
X18801177Y-20498223D01*
X18801177Y-20569652D01*
X18786891Y-20598223D01*
X18772606Y-20612509D01*
X18744034Y-20626794D01*
X18672606Y-20626794D01*
X18644034Y-20612509D01*
X18629748Y-20598223D01*
X18986891Y-20326794D02*
X19015463Y-20326794D01*
X19044034Y-20341080D01*
X19058320Y-20355366D01*
X19072606Y-20383937D01*
X19086891Y-20441080D01*
X19086891Y-20512509D01*
X19072606Y-20569652D01*
X19058320Y-20598223D01*
X19044034Y-20612509D01*
X19015463Y-20626794D01*
X18986891Y-20626794D01*
X18958320Y-20612509D01*
X18944034Y-20598223D01*
X18929748Y-20569652D01*
X18915463Y-20512509D01*
X18915463Y-20441080D01*
X18929748Y-20383937D01*
X18944034Y-20355366D01*
X18958320Y-20341080D01*
X18986891Y-20326794D01*
X19444034Y-20626794D02*
X19444034Y-20326794D01*
X19572606Y-20626794D02*
X19572606Y-20469652D01*
X19558320Y-20441080D01*
X19529748Y-20426794D01*
X19486891Y-20426794D01*
X19458320Y-20441080D01*
X19444034Y-20455366D01*
X19758320Y-20626794D02*
X19729748Y-20612509D01*
X19715463Y-20598223D01*
X19701177Y-20569652D01*
X19701177Y-20483937D01*
X19715463Y-20455366D01*
X19729748Y-20441080D01*
X19758320Y-20426794D01*
X19801177Y-20426794D01*
X19829748Y-20441080D01*
X19844034Y-20455366D01*
X19858320Y-20483937D01*
X19858320Y-20569652D01*
X19844034Y-20598223D01*
X19829748Y-20612509D01*
X19801177Y-20626794D01*
X19758320Y-20626794D01*
X20029748Y-20626794D02*
X20001177Y-20612509D01*
X19986891Y-20583937D01*
X19986891Y-20326794D01*
X20258320Y-20612509D02*
X20229749Y-20626794D01*
X20172606Y-20626794D01*
X20144034Y-20612509D01*
X20129749Y-20583937D01*
X20129749Y-20469652D01*
X20144034Y-20441080D01*
X20172606Y-20426794D01*
X20229749Y-20426794D01*
X20258320Y-20441080D01*
X20272606Y-20469652D01*
X20272606Y-20498223D01*
X20129749Y-20526794D01*
X20386891Y-20612509D02*
X20415463Y-20626794D01*
X20472606Y-20626794D01*
X20501177Y-20612509D01*
X20515463Y-20583937D01*
X20515463Y-20569652D01*
X20501177Y-20541080D01*
X20472606Y-20526794D01*
X20429749Y-20526794D01*
X20401177Y-20512509D01*
X20386891Y-20483937D01*
X20386891Y-20469652D01*
X20401177Y-20441080D01*
X20429749Y-20426794D01*
X20472606Y-20426794D01*
X20501177Y-20441080D01*
X20615463Y-20741080D02*
X20629749Y-20726794D01*
X20658320Y-20683937D01*
X20672606Y-20655366D01*
X20686891Y-20612509D01*
X20701177Y-20541080D01*
X20701177Y-20483937D01*
X20686891Y-20412509D01*
X20672606Y-20369652D01*
X20658320Y-20341080D01*
X20629749Y-20298223D01*
X20615463Y-20283937D01*
X13628196Y-20772018D02*
X13858320Y-21002142D01*
X13858320Y-20772018D02*
X13628196Y-21002142D01*
X13824620Y-20968442D02*
X13824620Y-20805718D01*
X13661896Y-20805718D01*
X13661896Y-20968442D01*
X13824620Y-20968442D01*
X14115463Y-20751366D02*
X14129748Y-20737080D01*
X14158320Y-20722794D01*
X14229748Y-20722794D01*
X14258320Y-20737080D01*
X14272606Y-20751366D01*
X14286891Y-20779937D01*
X14286891Y-20808509D01*
X14272606Y-20851366D01*
X14101177Y-21022794D01*
X14286891Y-21022794D01*
X14415463Y-20994223D02*
X14429748Y-21008509D01*
X14415463Y-21022794D01*
X14401177Y-21008509D01*
X14415463Y-20994223D01*
X14415463Y-21022794D01*
X14529748Y-20722794D02*
X14715463Y-20722794D01*
X14615463Y-20837080D01*
X14658320Y-20837080D01*
X14686891Y-20851366D01*
X14701177Y-20865652D01*
X14715463Y-20894223D01*
X14715463Y-20965652D01*
X14701177Y-20994223D01*
X14686891Y-21008509D01*
X14658320Y-21022794D01*
X14572606Y-21022794D01*
X14544034Y-21008509D01*
X14529748Y-20994223D01*
X14901177Y-20722794D02*
X14929748Y-20722794D01*
X14958320Y-20737080D01*
X14972606Y-20751366D01*
X14986891Y-20779937D01*
X15001177Y-20837080D01*
X15001177Y-20908509D01*
X14986891Y-20965652D01*
X14972606Y-20994223D01*
X14958320Y-21008509D01*
X14929748Y-21022794D01*
X14901177Y-21022794D01*
X14872606Y-21008509D01*
X14858320Y-20994223D01*
X14844034Y-20965652D01*
X14829748Y-20908509D01*
X14829748Y-20837080D01*
X14844034Y-20779937D01*
X14858320Y-20751366D01*
X14872606Y-20737080D01*
X14901177Y-20722794D01*
X15129748Y-21022794D02*
X15129748Y-20822794D01*
X15129748Y-20851366D02*
X15144034Y-20837080D01*
X15172606Y-20822794D01*
X15215463Y-20822794D01*
X15244034Y-20837080D01*
X15258320Y-20865652D01*
X15258320Y-21022794D01*
X15258320Y-20865652D02*
X15272606Y-20837080D01*
X15301177Y-20822794D01*
X15344034Y-20822794D01*
X15372606Y-20837080D01*
X15386891Y-20865652D01*
X15386891Y-21022794D01*
X15529748Y-21022794D02*
X15529748Y-20822794D01*
X15529748Y-20851366D02*
X15544034Y-20837080D01*
X15572606Y-20822794D01*
X15615463Y-20822794D01*
X15644034Y-20837080D01*
X15658320Y-20865652D01*
X15658320Y-21022794D01*
X15658320Y-20865652D02*
X15672606Y-20837080D01*
X15701177Y-20822794D01*
X15744034Y-20822794D01*
X15772606Y-20837080D01*
X15786891Y-20865652D01*
X15786891Y-21022794D01*
X16372606Y-20708509D02*
X16115463Y-21094223D01*
X16758320Y-20722794D02*
X16786891Y-20722794D01*
X16815463Y-20737080D01*
X16829748Y-20751366D01*
X16844034Y-20779937D01*
X16858320Y-20837080D01*
X16858320Y-20908509D01*
X16844034Y-20965652D01*
X16829748Y-20994223D01*
X16815463Y-21008509D01*
X16786891Y-21022794D01*
X16758320Y-21022794D01*
X16729748Y-21008509D01*
X16715463Y-20994223D01*
X16701177Y-20965652D01*
X16686891Y-20908509D01*
X16686891Y-20837080D01*
X16701177Y-20779937D01*
X16715463Y-20751366D01*
X16729748Y-20737080D01*
X16758320Y-20722794D01*
X16986891Y-20994223D02*
X17001177Y-21008509D01*
X16986891Y-21022794D01*
X16972606Y-21008509D01*
X16986891Y-20994223D01*
X16986891Y-21022794D01*
X17186891Y-20722794D02*
X17215463Y-20722794D01*
X17244034Y-20737080D01*
X17258320Y-20751366D01*
X17272606Y-20779937D01*
X17286891Y-20837080D01*
X17286891Y-20908509D01*
X17272606Y-20965652D01*
X17258320Y-20994223D01*
X17244034Y-21008509D01*
X17215463Y-21022794D01*
X17186891Y-21022794D01*
X17158320Y-21008509D01*
X17144034Y-20994223D01*
X17129748Y-20965652D01*
X17115463Y-20908509D01*
X17115463Y-20837080D01*
X17129748Y-20779937D01*
X17144034Y-20751366D01*
X17158320Y-20737080D01*
X17186891Y-20722794D01*
X17429748Y-21022794D02*
X17486891Y-21022794D01*
X17515463Y-21008509D01*
X17529748Y-20994223D01*
X17558320Y-20951366D01*
X17572606Y-20894223D01*
X17572606Y-20779937D01*
X17558320Y-20751366D01*
X17544034Y-20737080D01*
X17515463Y-20722794D01*
X17458320Y-20722794D01*
X17429748Y-20737080D01*
X17415463Y-20751366D01*
X17401177Y-20779937D01*
X17401177Y-20851366D01*
X17415463Y-20879937D01*
X17429748Y-20894223D01*
X17458320Y-20908509D01*
X17515463Y-20908509D01*
X17544034Y-20894223D01*
X17558320Y-20879937D01*
X17572606Y-20851366D01*
X17858320Y-21022794D02*
X17686891Y-21022794D01*
X17772606Y-21022794D02*
X17772606Y-20722794D01*
X17744034Y-20765652D01*
X17715463Y-20794223D01*
X17686891Y-20808509D01*
X17972606Y-20722794D02*
X17972606Y-20779937D01*
X18086891Y-20722794D02*
X18086891Y-20779937D01*
X18529748Y-21137080D02*
X18515463Y-21122794D01*
X18486891Y-21079937D01*
X18472606Y-21051366D01*
X18458320Y-21008509D01*
X18444034Y-20937080D01*
X18444034Y-20879937D01*
X18458320Y-20808509D01*
X18472606Y-20765652D01*
X18486891Y-20737080D01*
X18515463Y-20694223D01*
X18529748Y-20679937D01*
X18629748Y-20751366D02*
X18644034Y-20737080D01*
X18672606Y-20722794D01*
X18744034Y-20722794D01*
X18772606Y-20737080D01*
X18786891Y-20751366D01*
X18801177Y-20779937D01*
X18801177Y-20808509D01*
X18786891Y-20851366D01*
X18615463Y-21022794D01*
X18801177Y-21022794D01*
X19158320Y-21022794D02*
X19158320Y-20722794D01*
X19286891Y-21022794D02*
X19286891Y-20865652D01*
X19272606Y-20837080D01*
X19244034Y-20822794D01*
X19201177Y-20822794D01*
X19172606Y-20837080D01*
X19158320Y-20851366D01*
X19472606Y-21022794D02*
X19444034Y-21008509D01*
X19429748Y-20994223D01*
X19415463Y-20965652D01*
X19415463Y-20879937D01*
X19429748Y-20851366D01*
X19444034Y-20837080D01*
X19472606Y-20822794D01*
X19515463Y-20822794D01*
X19544034Y-20837080D01*
X19558320Y-20851366D01*
X19572606Y-20879937D01*
X19572606Y-20965652D01*
X19558320Y-20994223D01*
X19544034Y-21008509D01*
X19515463Y-21022794D01*
X19472606Y-21022794D01*
X19744034Y-21022794D02*
X19715463Y-21008509D01*
X19701177Y-20979937D01*
X19701177Y-20722794D01*
X19972606Y-21008509D02*
X19944034Y-21022794D01*
X19886891Y-21022794D01*
X19858320Y-21008509D01*
X19844034Y-20979937D01*
X19844034Y-20865652D01*
X19858320Y-20837080D01*
X19886891Y-20822794D01*
X19944034Y-20822794D01*
X19972606Y-20837080D01*
X19986891Y-20865652D01*
X19986891Y-20894223D01*
X19844034Y-20922794D01*
X20101177Y-21008509D02*
X20129749Y-21022794D01*
X20186891Y-21022794D01*
X20215463Y-21008509D01*
X20229749Y-20979937D01*
X20229749Y-20965652D01*
X20215463Y-20937080D01*
X20186891Y-20922794D01*
X20144034Y-20922794D01*
X20115463Y-20908509D01*
X20101177Y-20879937D01*
X20101177Y-20865652D01*
X20115463Y-20837080D01*
X20144034Y-20822794D01*
X20186891Y-20822794D01*
X20215463Y-20837080D01*
X20329748Y-21137080D02*
X20344034Y-21122794D01*
X20372606Y-21079937D01*
X20386891Y-21051366D01*
X20401177Y-21008509D01*
X20415463Y-20937080D01*
X20415463Y-20879937D01*
X20401177Y-20808509D01*
X20386891Y-20765652D01*
X20372606Y-20737080D01*
X20344034Y-20694223D01*
X20329748Y-20679937D01*
X13558320Y-21133080D02*
X13858320Y-21433080D01*
X13858320Y-21133080D02*
X13558320Y-21433080D01*
X13708320Y-21433080D02*
X13858320Y-21283080D01*
X13708320Y-21133080D01*
X13558320Y-21283080D01*
X13708320Y-21433080D01*
X14101177Y-21118794D02*
X14286891Y-21118794D01*
X14186891Y-21233080D01*
X14229748Y-21233080D01*
X14258320Y-21247366D01*
X14272606Y-21261652D01*
X14286891Y-21290223D01*
X14286891Y-21361652D01*
X14272606Y-21390223D01*
X14258320Y-21404509D01*
X14229748Y-21418794D01*
X14144034Y-21418794D01*
X14115463Y-21404509D01*
X14101177Y-21390223D01*
X14415463Y-21390223D02*
X14429748Y-21404509D01*
X14415463Y-21418794D01*
X14401177Y-21404509D01*
X14415463Y-21390223D01*
X14415463Y-21418794D01*
X14615463Y-21118794D02*
X14644034Y-21118794D01*
X14672606Y-21133080D01*
X14686891Y-21147366D01*
X14701177Y-21175937D01*
X14715463Y-21233080D01*
X14715463Y-21304509D01*
X14701177Y-21361652D01*
X14686891Y-21390223D01*
X14672606Y-21404509D01*
X14644034Y-21418794D01*
X14615463Y-21418794D01*
X14586891Y-21404509D01*
X14572606Y-21390223D01*
X14558320Y-21361652D01*
X14544034Y-21304509D01*
X14544034Y-21233080D01*
X14558320Y-21175937D01*
X14572606Y-21147366D01*
X14586891Y-21133080D01*
X14615463Y-21118794D01*
X14901177Y-21118794D02*
X14929748Y-21118794D01*
X14958320Y-21133080D01*
X14972606Y-21147366D01*
X14986891Y-21175937D01*
X15001177Y-21233080D01*
X15001177Y-21304509D01*
X14986891Y-21361652D01*
X14972606Y-21390223D01*
X14958320Y-21404509D01*
X14929748Y-21418794D01*
X14901177Y-21418794D01*
X14872606Y-21404509D01*
X14858320Y-21390223D01*
X14844034Y-21361652D01*
X14829748Y-21304509D01*
X14829748Y-21233080D01*
X14844034Y-21175937D01*
X14858320Y-21147366D01*
X14872606Y-21133080D01*
X14901177Y-21118794D01*
X15129748Y-21418794D02*
X15129748Y-21218794D01*
X15129748Y-21247366D02*
X15144034Y-21233080D01*
X15172606Y-21218794D01*
X15215463Y-21218794D01*
X15244034Y-21233080D01*
X15258320Y-21261652D01*
X15258320Y-21418794D01*
X15258320Y-21261652D02*
X15272606Y-21233080D01*
X15301177Y-21218794D01*
X15344034Y-21218794D01*
X15372606Y-21233080D01*
X15386891Y-21261652D01*
X15386891Y-21418794D01*
X15529748Y-21418794D02*
X15529748Y-21218794D01*
X15529748Y-21247366D02*
X15544034Y-21233080D01*
X15572606Y-21218794D01*
X15615463Y-21218794D01*
X15644034Y-21233080D01*
X15658320Y-21261652D01*
X15658320Y-21418794D01*
X15658320Y-21261652D02*
X15672606Y-21233080D01*
X15701177Y-21218794D01*
X15744034Y-21218794D01*
X15772606Y-21233080D01*
X15786891Y-21261652D01*
X15786891Y-21418794D01*
X16372606Y-21104509D02*
X16115463Y-21490223D01*
X16758320Y-21118794D02*
X16786891Y-21118794D01*
X16815463Y-21133080D01*
X16829748Y-21147366D01*
X16844034Y-21175937D01*
X16858320Y-21233080D01*
X16858320Y-21304509D01*
X16844034Y-21361652D01*
X16829748Y-21390223D01*
X16815463Y-21404509D01*
X16786891Y-21418794D01*
X16758320Y-21418794D01*
X16729748Y-21404509D01*
X16715463Y-21390223D01*
X16701177Y-21361652D01*
X16686891Y-21304509D01*
X16686891Y-21233080D01*
X16701177Y-21175937D01*
X16715463Y-21147366D01*
X16729748Y-21133080D01*
X16758320Y-21118794D01*
X16986891Y-21390223D02*
X17001177Y-21404509D01*
X16986891Y-21418794D01*
X16972606Y-21404509D01*
X16986891Y-21390223D01*
X16986891Y-21418794D01*
X17286891Y-21418794D02*
X17115463Y-21418794D01*
X17201177Y-21418794D02*
X17201177Y-21118794D01*
X17172606Y-21161652D01*
X17144034Y-21190223D01*
X17115463Y-21204509D01*
X17572606Y-21418794D02*
X17401177Y-21418794D01*
X17486891Y-21418794D02*
X17486891Y-21118794D01*
X17458320Y-21161652D01*
X17429748Y-21190223D01*
X17401177Y-21204509D01*
X17744034Y-21247366D02*
X17715463Y-21233080D01*
X17701177Y-21218794D01*
X17686891Y-21190223D01*
X17686891Y-21175937D01*
X17701177Y-21147366D01*
X17715463Y-21133080D01*
X17744034Y-21118794D01*
X17801177Y-21118794D01*
X17829748Y-21133080D01*
X17844034Y-21147366D01*
X17858320Y-21175937D01*
X17858320Y-21190223D01*
X17844034Y-21218794D01*
X17829748Y-21233080D01*
X17801177Y-21247366D01*
X17744034Y-21247366D01*
X17715463Y-21261652D01*
X17701177Y-21275937D01*
X17686891Y-21304509D01*
X17686891Y-21361652D01*
X17701177Y-21390223D01*
X17715463Y-21404509D01*
X17744034Y-21418794D01*
X17801177Y-21418794D01*
X17829748Y-21404509D01*
X17844034Y-21390223D01*
X17858320Y-21361652D01*
X17858320Y-21304509D01*
X17844034Y-21275937D01*
X17829748Y-21261652D01*
X17801177Y-21247366D01*
X17972606Y-21118794D02*
X17972606Y-21175937D01*
X18086891Y-21118794D02*
X18086891Y-21175937D01*
X18529748Y-21533080D02*
X18515463Y-21518794D01*
X18486891Y-21475937D01*
X18472606Y-21447366D01*
X18458320Y-21404509D01*
X18444034Y-21333080D01*
X18444034Y-21275937D01*
X18458320Y-21204509D01*
X18472606Y-21161652D01*
X18486891Y-21133080D01*
X18515463Y-21090223D01*
X18529748Y-21075937D01*
X18801177Y-21418794D02*
X18629748Y-21418794D01*
X18715463Y-21418794D02*
X18715463Y-21118794D01*
X18686891Y-21161652D01*
X18658320Y-21190223D01*
X18629748Y-21204509D01*
X18901177Y-21118794D02*
X19101177Y-21118794D01*
X18972606Y-21418794D01*
X19444034Y-21418794D02*
X19444034Y-21118794D01*
X19572606Y-21418794D02*
X19572606Y-21261652D01*
X19558320Y-21233080D01*
X19529748Y-21218794D01*
X19486891Y-21218794D01*
X19458320Y-21233080D01*
X19444034Y-21247366D01*
X19758320Y-21418794D02*
X19729748Y-21404509D01*
X19715463Y-21390223D01*
X19701177Y-21361652D01*
X19701177Y-21275937D01*
X19715463Y-21247366D01*
X19729748Y-21233080D01*
X19758320Y-21218794D01*
X19801177Y-21218794D01*
X19829748Y-21233080D01*
X19844034Y-21247366D01*
X19858320Y-21275937D01*
X19858320Y-21361652D01*
X19844034Y-21390223D01*
X19829748Y-21404509D01*
X19801177Y-21418794D01*
X19758320Y-21418794D01*
X20029748Y-21418794D02*
X20001177Y-21404509D01*
X19986891Y-21375937D01*
X19986891Y-21118794D01*
X20258320Y-21404509D02*
X20229749Y-21418794D01*
X20172606Y-21418794D01*
X20144034Y-21404509D01*
X20129749Y-21375937D01*
X20129749Y-21261652D01*
X20144034Y-21233080D01*
X20172606Y-21218794D01*
X20229749Y-21218794D01*
X20258320Y-21233080D01*
X20272606Y-21261652D01*
X20272606Y-21290223D01*
X20129749Y-21318794D01*
X20386891Y-21404509D02*
X20415463Y-21418794D01*
X20472606Y-21418794D01*
X20501177Y-21404509D01*
X20515463Y-21375937D01*
X20515463Y-21361652D01*
X20501177Y-21333080D01*
X20472606Y-21318794D01*
X20429749Y-21318794D01*
X20401177Y-21304509D01*
X20386891Y-21275937D01*
X20386891Y-21261652D01*
X20401177Y-21233080D01*
X20429749Y-21218794D01*
X20472606Y-21218794D01*
X20501177Y-21233080D01*
X20615463Y-21533080D02*
X20629749Y-21518794D01*
X20658320Y-21475937D01*
X20672606Y-21447366D01*
X20686891Y-21404509D01*
X20701177Y-21333080D01*
X20701177Y-21275937D01*
X20686891Y-21204509D01*
X20672606Y-21161652D01*
X20658320Y-21133080D01*
X20629749Y-21090223D01*
X20615463Y-21075937D01*
X13705920Y-21560680D02*
X13705920Y-21865480D01*
X13553520Y-21713080D02*
X13858320Y-21713080D01*
X13858320Y-21713080D02*
G75*
G03X13858320Y-21713080I-152400J0D01*
G01*
X14101177Y-21548794D02*
X14286891Y-21548794D01*
X14186891Y-21663080D01*
X14229748Y-21663080D01*
X14258320Y-21677366D01*
X14272606Y-21691652D01*
X14286891Y-21720223D01*
X14286891Y-21791652D01*
X14272606Y-21820223D01*
X14258320Y-21834509D01*
X14229748Y-21848794D01*
X14144034Y-21848794D01*
X14115463Y-21834509D01*
X14101177Y-21820223D01*
X14415463Y-21820223D02*
X14429748Y-21834509D01*
X14415463Y-21848794D01*
X14401177Y-21834509D01*
X14415463Y-21820223D01*
X14415463Y-21848794D01*
X14615463Y-21548794D02*
X14644034Y-21548794D01*
X14672606Y-21563080D01*
X14686891Y-21577366D01*
X14701177Y-21605937D01*
X14715463Y-21663080D01*
X14715463Y-21734509D01*
X14701177Y-21791652D01*
X14686891Y-21820223D01*
X14672606Y-21834509D01*
X14644034Y-21848794D01*
X14615463Y-21848794D01*
X14586891Y-21834509D01*
X14572606Y-21820223D01*
X14558320Y-21791652D01*
X14544034Y-21734509D01*
X14544034Y-21663080D01*
X14558320Y-21605937D01*
X14572606Y-21577366D01*
X14586891Y-21563080D01*
X14615463Y-21548794D01*
X14986891Y-21548794D02*
X14844034Y-21548794D01*
X14829748Y-21691652D01*
X14844034Y-21677366D01*
X14872606Y-21663080D01*
X14944034Y-21663080D01*
X14972606Y-21677366D01*
X14986891Y-21691652D01*
X15001177Y-21720223D01*
X15001177Y-21791652D01*
X14986891Y-21820223D01*
X14972606Y-21834509D01*
X14944034Y-21848794D01*
X14872606Y-21848794D01*
X14844034Y-21834509D01*
X14829748Y-21820223D01*
X15129748Y-21848794D02*
X15129748Y-21648794D01*
X15129748Y-21677366D02*
X15144034Y-21663080D01*
X15172606Y-21648794D01*
X15215463Y-21648794D01*
X15244034Y-21663080D01*
X15258320Y-21691652D01*
X15258320Y-21848794D01*
X15258320Y-21691652D02*
X15272606Y-21663080D01*
X15301177Y-21648794D01*
X15344034Y-21648794D01*
X15372606Y-21663080D01*
X15386891Y-21691652D01*
X15386891Y-21848794D01*
X15529748Y-21848794D02*
X15529748Y-21648794D01*
X15529748Y-21677366D02*
X15544034Y-21663080D01*
X15572606Y-21648794D01*
X15615463Y-21648794D01*
X15644034Y-21663080D01*
X15658320Y-21691652D01*
X15658320Y-21848794D01*
X15658320Y-21691652D02*
X15672606Y-21663080D01*
X15701177Y-21648794D01*
X15744034Y-21648794D01*
X15772606Y-21663080D01*
X15786891Y-21691652D01*
X15786891Y-21848794D01*
X16372606Y-21534509D02*
X16115463Y-21920223D01*
X16758320Y-21548794D02*
X16786891Y-21548794D01*
X16815463Y-21563080D01*
X16829748Y-21577366D01*
X16844034Y-21605937D01*
X16858320Y-21663080D01*
X16858320Y-21734509D01*
X16844034Y-21791652D01*
X16829748Y-21820223D01*
X16815463Y-21834509D01*
X16786891Y-21848794D01*
X16758320Y-21848794D01*
X16729748Y-21834509D01*
X16715463Y-21820223D01*
X16701177Y-21791652D01*
X16686891Y-21734509D01*
X16686891Y-21663080D01*
X16701177Y-21605937D01*
X16715463Y-21577366D01*
X16729748Y-21563080D01*
X16758320Y-21548794D01*
X16986891Y-21820223D02*
X17001177Y-21834509D01*
X16986891Y-21848794D01*
X16972606Y-21834509D01*
X16986891Y-21820223D01*
X16986891Y-21848794D01*
X17286891Y-21848794D02*
X17115463Y-21848794D01*
X17201177Y-21848794D02*
X17201177Y-21548794D01*
X17172606Y-21591652D01*
X17144034Y-21620223D01*
X17115463Y-21634509D01*
X17401177Y-21577366D02*
X17415463Y-21563080D01*
X17444034Y-21548794D01*
X17515463Y-21548794D01*
X17544034Y-21563080D01*
X17558320Y-21577366D01*
X17572606Y-21605937D01*
X17572606Y-21634509D01*
X17558320Y-21677366D01*
X17386891Y-21848794D01*
X17572606Y-21848794D01*
X17758320Y-21548794D02*
X17786891Y-21548794D01*
X17815463Y-21563080D01*
X17829748Y-21577366D01*
X17844034Y-21605937D01*
X17858320Y-21663080D01*
X17858320Y-21734509D01*
X17844034Y-21791652D01*
X17829748Y-21820223D01*
X17815463Y-21834509D01*
X17786891Y-21848794D01*
X17758320Y-21848794D01*
X17729748Y-21834509D01*
X17715463Y-21820223D01*
X17701177Y-21791652D01*
X17686891Y-21734509D01*
X17686891Y-21663080D01*
X17701177Y-21605937D01*
X17715463Y-21577366D01*
X17729748Y-21563080D01*
X17758320Y-21548794D01*
X17972606Y-21548794D02*
X17972606Y-21605937D01*
X18086891Y-21548794D02*
X18086891Y-21605937D01*
X18529748Y-21963080D02*
X18515463Y-21948794D01*
X18486891Y-21905937D01*
X18472606Y-21877366D01*
X18458320Y-21834509D01*
X18444034Y-21763080D01*
X18444034Y-21705937D01*
X18458320Y-21634509D01*
X18472606Y-21591652D01*
X18486891Y-21563080D01*
X18515463Y-21520223D01*
X18529748Y-21505937D01*
X18629748Y-21577366D02*
X18644034Y-21563080D01*
X18672606Y-21548794D01*
X18744034Y-21548794D01*
X18772606Y-21563080D01*
X18786891Y-21577366D01*
X18801177Y-21605937D01*
X18801177Y-21634509D01*
X18786891Y-21677366D01*
X18615463Y-21848794D01*
X18801177Y-21848794D01*
X19158320Y-21848794D02*
X19158320Y-21548794D01*
X19286891Y-21848794D02*
X19286891Y-21691652D01*
X19272606Y-21663080D01*
X19244034Y-21648794D01*
X19201177Y-21648794D01*
X19172606Y-21663080D01*
X19158320Y-21677366D01*
X19472606Y-21848794D02*
X19444034Y-21834509D01*
X19429748Y-21820223D01*
X19415463Y-21791652D01*
X19415463Y-21705937D01*
X19429748Y-21677366D01*
X19444034Y-21663080D01*
X19472606Y-21648794D01*
X19515463Y-21648794D01*
X19544034Y-21663080D01*
X19558320Y-21677366D01*
X19572606Y-21705937D01*
X19572606Y-21791652D01*
X19558320Y-21820223D01*
X19544034Y-21834509D01*
X19515463Y-21848794D01*
X19472606Y-21848794D01*
X19744034Y-21848794D02*
X19715463Y-21834509D01*
X19701177Y-21805937D01*
X19701177Y-21548794D01*
X19972606Y-21834509D02*
X19944034Y-21848794D01*
X19886891Y-21848794D01*
X19858320Y-21834509D01*
X19844034Y-21805937D01*
X19844034Y-21691652D01*
X19858320Y-21663080D01*
X19886891Y-21648794D01*
X19944034Y-21648794D01*
X19972606Y-21663080D01*
X19986891Y-21691652D01*
X19986891Y-21720223D01*
X19844034Y-21748794D01*
X20101177Y-21834509D02*
X20129749Y-21848794D01*
X20186891Y-21848794D01*
X20215463Y-21834509D01*
X20229749Y-21805937D01*
X20229749Y-21791652D01*
X20215463Y-21763080D01*
X20186891Y-21748794D01*
X20144034Y-21748794D01*
X20115463Y-21734509D01*
X20101177Y-21705937D01*
X20101177Y-21691652D01*
X20115463Y-21663080D01*
X20144034Y-21648794D01*
X20186891Y-21648794D01*
X20215463Y-21663080D01*
X20329748Y-21963080D02*
X20344034Y-21948794D01*
X20372606Y-21905937D01*
X20386891Y-21877366D01*
X20401177Y-21834509D01*
X20415463Y-21763080D01*
X20415463Y-21705937D01*
X20401177Y-21634509D01*
X20386891Y-21591652D01*
X20372606Y-21563080D01*
X20344034Y-21520223D01*
X20329748Y-21505937D01*
M02*
