G04 #@! TF.FileFunction,Soldermask,Bot*
%FSLAX46Y46*%
G04 Gerber Fmt 4.6, Leading zero omitted, Abs format (unit mm)*
G04 Created by KiCad (PCBNEW (2015-07-31 BZR 6030)-product) date Fri Sep 11 13:46:34 2015*
%MOMM*%
G01*
G04 APERTURE LIST*
%ADD10C,0.100000*%
%ADD11C,4.000000*%
%ADD12R,1.727200X2.032000*%
%ADD13O,1.727200X2.032000*%
%ADD14R,2.032000X1.727200*%
%ADD15O,2.032000X1.727200*%
%ADD16C,5.000000*%
%ADD17O,0.950000X1.250000*%
%ADD18O,1.550000X1.000000*%
%ADD19C,1.600000*%
%ADD20R,1.397000X1.397000*%
%ADD21C,1.397000*%
%ADD22C,1.501140*%
%ADD23C,2.999740*%
%ADD24C,4.064000*%
G04 APERTURE END LIST*
D10*
D11*
X143002000Y-106222800D03*
X178562000Y-84886800D03*
D12*
X162153600Y-104444800D03*
D13*
X159613600Y-104444800D03*
X157073600Y-104444800D03*
X154533600Y-104444800D03*
X151993600Y-104444800D03*
X149453600Y-104444800D03*
D14*
X144221200Y-87884000D03*
D15*
X144221200Y-90424000D03*
X144221200Y-92964000D03*
X144221200Y-95504000D03*
D14*
X174345600Y-90982800D03*
D15*
X174345600Y-93522800D03*
X174345600Y-96062800D03*
X174345600Y-98602800D03*
D11*
X149910800Y-84074000D03*
X143002000Y-106222800D03*
X178562000Y-84886800D03*
D12*
X162153600Y-104444800D03*
D13*
X159613600Y-104444800D03*
X157073600Y-104444800D03*
X154533600Y-104444800D03*
X151993600Y-104444800D03*
X149453600Y-104444800D03*
D14*
X144221200Y-87884000D03*
D15*
X144221200Y-90424000D03*
X144221200Y-92964000D03*
X144221200Y-95504000D03*
D14*
X174345600Y-90982800D03*
D15*
X174345600Y-93522800D03*
X174345600Y-96062800D03*
X174345600Y-98602800D03*
D11*
X149910800Y-84074000D03*
D16*
X213461600Y-142189200D03*
X144780000Y-166573200D03*
D17*
X146812000Y-127324000D03*
X146812000Y-132324000D03*
D18*
X144112000Y-126324000D03*
X144112000Y-133324000D03*
D14*
X189026800Y-133502400D03*
D15*
X189026800Y-136042400D03*
X189026800Y-138582400D03*
X189026800Y-141122400D03*
X189026800Y-143662400D03*
X189026800Y-146202400D03*
D12*
X186334400Y-117957600D03*
D13*
X183794400Y-117957600D03*
X181254400Y-117957600D03*
X178714400Y-117957600D03*
D12*
X154381200Y-161188400D03*
D13*
X156921200Y-161188400D03*
X159461200Y-161188400D03*
X162001200Y-161188400D03*
D14*
X145796000Y-145542000D03*
D15*
X145796000Y-148082000D03*
X145796000Y-150622000D03*
X145796000Y-153162000D03*
D19*
X202631200Y-139446000D03*
X195031200Y-139446000D03*
X202631200Y-141986000D03*
X195031200Y-141986000D03*
X202631200Y-144526000D03*
X195031200Y-144526000D03*
X202631200Y-147066000D03*
X195031200Y-147066000D03*
D16*
X145389600Y-114554000D03*
D11*
X188366400Y-98755200D03*
X217576400Y-105105200D03*
X218033600Y-60706000D03*
D17*
X188214000Y-75203200D03*
X188214000Y-80203200D03*
D18*
X185514000Y-74203200D03*
X185514000Y-81203200D03*
D12*
X200431400Y-104978200D03*
D13*
X197891400Y-104978200D03*
X195351400Y-104978200D03*
X192811400Y-104978200D03*
D20*
X208737200Y-71932800D03*
D21*
X208737200Y-74472800D03*
X208737200Y-77012800D03*
X208737200Y-79552800D03*
X208737200Y-82092800D03*
X208737200Y-84632800D03*
X208737200Y-87172800D03*
X208737200Y-89712800D03*
X208737200Y-92252800D03*
X208737200Y-94792800D03*
X216357200Y-94792800D03*
X216357200Y-92252800D03*
X216357200Y-89712800D03*
X216357200Y-87172800D03*
X216357200Y-84632800D03*
X216357200Y-82092800D03*
X216357200Y-79552800D03*
X216357200Y-77012800D03*
X216357200Y-74472800D03*
X216357200Y-71932800D03*
D11*
X186944000Y-61417200D03*
D16*
X151131800Y-50786600D03*
X151131800Y-76821600D03*
X178436800Y-76821600D03*
D22*
X170447800Y-66456600D03*
X167907800Y-66456600D03*
X165875800Y-66456600D03*
X163335800Y-66456600D03*
D23*
X173495800Y-69123600D03*
X159779800Y-69123600D03*
D24*
X170816800Y-50786600D03*
X159906800Y-50581600D03*
D16*
X178436800Y-50786600D03*
M02*
