G04 #@! TF.FileFunction,Copper,L2,Bot,Signal*
%FSLAX46Y46*%
G04 Gerber Fmt 4.6, Leading zero omitted, Abs format (unit mm)*
G04 Created by KiCad (PCBNEW (2015-07-31 BZR 6030)-product) date Fri Sep 11 13:46:34 2015*
%MOMM*%
G01*
G04 APERTURE LIST*
%ADD10C,0.100000*%
%ADD11C,4.000000*%
%ADD12R,1.727200X2.032000*%
%ADD13O,1.727200X2.032000*%
%ADD14R,2.032000X1.727200*%
%ADD15O,2.032000X1.727200*%
%ADD16C,5.000000*%
%ADD17O,0.950000X1.250000*%
%ADD18O,1.550000X1.000000*%
%ADD19C,1.600000*%
%ADD20R,1.397000X1.397000*%
%ADD21C,1.397000*%
%ADD22C,1.501140*%
%ADD23C,2.999740*%
%ADD24C,4.064000*%
%ADD25C,0.600000*%
%ADD26C,0.400000*%
%ADD27C,0.635000*%
%ADD28C,0.250000*%
%ADD29C,0.800000*%
%ADD30C,0.254000*%
G04 APERTURE END LIST*
D10*
D11*
X143002000Y-106222800D03*
X178562000Y-84886800D03*
D12*
X162153600Y-104444800D03*
D13*
X159613600Y-104444800D03*
X157073600Y-104444800D03*
X154533600Y-104444800D03*
X151993600Y-104444800D03*
X149453600Y-104444800D03*
D14*
X144221200Y-87884000D03*
D15*
X144221200Y-90424000D03*
X144221200Y-92964000D03*
X144221200Y-95504000D03*
D14*
X174345600Y-90982800D03*
D15*
X174345600Y-93522800D03*
X174345600Y-96062800D03*
X174345600Y-98602800D03*
D11*
X149910800Y-84074000D03*
X143002000Y-106222800D03*
X178562000Y-84886800D03*
D12*
X162153600Y-104444800D03*
D13*
X159613600Y-104444800D03*
X157073600Y-104444800D03*
X154533600Y-104444800D03*
X151993600Y-104444800D03*
X149453600Y-104444800D03*
D14*
X144221200Y-87884000D03*
D15*
X144221200Y-90424000D03*
X144221200Y-92964000D03*
X144221200Y-95504000D03*
D14*
X174345600Y-90982800D03*
D15*
X174345600Y-93522800D03*
X174345600Y-96062800D03*
X174345600Y-98602800D03*
D11*
X149910800Y-84074000D03*
D16*
X213461600Y-142189200D03*
X144780000Y-166573200D03*
D17*
X146812000Y-127324000D03*
X146812000Y-132324000D03*
D18*
X144112000Y-126324000D03*
X144112000Y-133324000D03*
D14*
X189026800Y-133502400D03*
D15*
X189026800Y-136042400D03*
X189026800Y-138582400D03*
X189026800Y-141122400D03*
X189026800Y-143662400D03*
X189026800Y-146202400D03*
D12*
X186334400Y-117957600D03*
D13*
X183794400Y-117957600D03*
X181254400Y-117957600D03*
X178714400Y-117957600D03*
D12*
X154381200Y-161188400D03*
D13*
X156921200Y-161188400D03*
X159461200Y-161188400D03*
X162001200Y-161188400D03*
D14*
X145796000Y-145542000D03*
D15*
X145796000Y-148082000D03*
X145796000Y-150622000D03*
X145796000Y-153162000D03*
D19*
X202631200Y-139446000D03*
X195031200Y-139446000D03*
X202631200Y-141986000D03*
X195031200Y-141986000D03*
X202631200Y-144526000D03*
X195031200Y-144526000D03*
X202631200Y-147066000D03*
X195031200Y-147066000D03*
D16*
X145389600Y-114554000D03*
D11*
X188366400Y-98755200D03*
X217576400Y-105105200D03*
X218033600Y-60706000D03*
D17*
X188214000Y-75203200D03*
X188214000Y-80203200D03*
D18*
X185514000Y-74203200D03*
X185514000Y-81203200D03*
D12*
X200431400Y-104978200D03*
D13*
X197891400Y-104978200D03*
X195351400Y-104978200D03*
X192811400Y-104978200D03*
D20*
X208737200Y-71932800D03*
D21*
X208737200Y-74472800D03*
X208737200Y-77012800D03*
X208737200Y-79552800D03*
X208737200Y-82092800D03*
X208737200Y-84632800D03*
X208737200Y-87172800D03*
X208737200Y-89712800D03*
X208737200Y-92252800D03*
X208737200Y-94792800D03*
X216357200Y-94792800D03*
X216357200Y-92252800D03*
X216357200Y-89712800D03*
X216357200Y-87172800D03*
X216357200Y-84632800D03*
X216357200Y-82092800D03*
X216357200Y-79552800D03*
X216357200Y-77012800D03*
X216357200Y-74472800D03*
X216357200Y-71932800D03*
D11*
X186944000Y-61417200D03*
D16*
X151131800Y-50786600D03*
X151131800Y-76821600D03*
X178436800Y-76821600D03*
D22*
X170447800Y-66456600D03*
X167907800Y-66456600D03*
X165875800Y-66456600D03*
X163335800Y-66456600D03*
D23*
X173495800Y-69123600D03*
X159779800Y-69123600D03*
D24*
X170816800Y-50786600D03*
X159906800Y-50581600D03*
D16*
X178436800Y-50786600D03*
D25*
X140817600Y-102006400D03*
X144018000Y-101904800D03*
X149961600Y-100736400D03*
X160782000Y-101752400D03*
X140817600Y-102006400D03*
X144018000Y-101904800D03*
X149961600Y-100736400D03*
X160782000Y-101752400D03*
X203454000Y-85293200D03*
X202971400Y-102438200D03*
X197891400Y-98628200D03*
X195834000Y-75133200D03*
X193294000Y-89103200D03*
X174345600Y-102616000D03*
X175310800Y-104546400D03*
X156210000Y-87172800D03*
X147878800Y-94437200D03*
X171500800Y-99923600D03*
X170840400Y-90728800D03*
X174345600Y-102616000D03*
X175310800Y-104546400D03*
X156210000Y-87172800D03*
X147878800Y-94437200D03*
X171500800Y-99923600D03*
X170840400Y-90728800D03*
X180848000Y-150520400D03*
X177495200Y-160934400D03*
X179527200Y-135432800D03*
X170637200Y-140004800D03*
X178663600Y-152704800D03*
X157632400Y-144729200D03*
X186588400Y-128879600D03*
X163388800Y-124104400D03*
X168859200Y-123139200D03*
X167995600Y-131572000D03*
X160190000Y-128333600D03*
X162390000Y-129933600D03*
X162192400Y-131622800D03*
X152316000Y-128320800D03*
X170281600Y-129235200D03*
X171043600Y-117906800D03*
X176276000Y-113233200D03*
X199644000Y-61163200D03*
X203454000Y-81483200D03*
X200914000Y-89103200D03*
X202184000Y-71323200D03*
X200914000Y-67513200D03*
X200431400Y-97358200D03*
X196621400Y-93548200D03*
X163266800Y-61826600D03*
X163266800Y-60926600D03*
X164166800Y-60926600D03*
X164166800Y-61826600D03*
X154838400Y-95808800D03*
X159664400Y-99618800D03*
X154838400Y-95808800D03*
X159664400Y-99618800D03*
X160121600Y-92049600D03*
X160629600Y-95910400D03*
X160121600Y-92049600D03*
X160629600Y-95910400D03*
X170078400Y-88696800D03*
X165709600Y-93268800D03*
X170078400Y-88696800D03*
X165709600Y-93268800D03*
X171500800Y-103936800D03*
X171500800Y-103936800D03*
X168351200Y-100685600D03*
X168351200Y-100685600D03*
X175260000Y-156210000D03*
X194462400Y-158038800D03*
X194818000Y-167030400D03*
X194544000Y-158292800D03*
X161798000Y-135585200D03*
X158648400Y-133248400D03*
X192319682Y-70053200D03*
X200914000Y-70053200D03*
X215900000Y-121666000D03*
X203758800Y-119278400D03*
X153314400Y-138074400D03*
X156276798Y-128981200D03*
X170484800Y-124612400D03*
X172466000Y-136804400D03*
X179425600Y-128574800D03*
X166268400Y-130810000D03*
X157276800Y-131013200D03*
X164693600Y-143205200D03*
X171653200Y-140919200D03*
X170434000Y-141681200D03*
X170637200Y-142798800D03*
X169976800Y-143560800D03*
X167894000Y-146659600D03*
X168960800Y-146659600D03*
X166979600Y-148082000D03*
X166878000Y-149047200D03*
X169773600Y-159105600D03*
X173583600Y-129540000D03*
X172313600Y-130098800D03*
X166827200Y-158953200D03*
X171602400Y-134416800D03*
X168046400Y-137058400D03*
X206603600Y-121107200D03*
X205638400Y-125577600D03*
X197104000Y-119786400D03*
X199898000Y-118719600D03*
X185826400Y-130759200D03*
X202946000Y-129438400D03*
X202387200Y-128270000D03*
X184912000Y-130302000D03*
X199644000Y-85293200D03*
X200914000Y-80213200D03*
X202184000Y-85293200D03*
X203454000Y-77673200D03*
X206298800Y-78994000D03*
X202234800Y-77876400D03*
D26*
X143916400Y-102006400D02*
X140817600Y-102006400D01*
X144018000Y-101904800D02*
X143916400Y-102006400D01*
X159766000Y-100736400D02*
X149961600Y-100736400D01*
X160782000Y-101752400D02*
X159766000Y-100736400D01*
X143916400Y-102006400D02*
X140817600Y-102006400D01*
X144018000Y-101904800D02*
X143916400Y-102006400D01*
X159766000Y-100736400D02*
X149961600Y-100736400D01*
X160782000Y-101752400D02*
X159766000Y-100736400D01*
D27*
X193294000Y-89103200D02*
X193294000Y-94030800D01*
X193294000Y-94030800D02*
X197891400Y-98628200D01*
X202971400Y-102438200D02*
X199161400Y-98628200D01*
X199161400Y-98628200D02*
X197891400Y-98628200D01*
X203454000Y-85293200D02*
X202184000Y-86563200D01*
X202184000Y-86563200D02*
X193294000Y-86563200D01*
X195834000Y-75133200D02*
X193294000Y-77673200D01*
X193294000Y-77673200D02*
X193294000Y-86563200D01*
X193294000Y-86563200D02*
X193294000Y-89103200D01*
D26*
X174345600Y-104495600D02*
X174345600Y-102616000D01*
X175260000Y-104495600D02*
X174345600Y-104495600D01*
X175310800Y-104546400D02*
X175260000Y-104495600D01*
X148945600Y-87172800D02*
X156210000Y-87172800D01*
X148590000Y-87528400D02*
X148945600Y-87172800D01*
X148590000Y-93726000D02*
X148590000Y-87528400D01*
X147878800Y-94437200D02*
X148590000Y-93726000D01*
X171500800Y-99923600D02*
X170840400Y-99263200D01*
X170840400Y-99263200D02*
X170840400Y-90728800D01*
X174345600Y-104495600D02*
X174345600Y-102616000D01*
X175260000Y-104495600D02*
X174345600Y-104495600D01*
X175310800Y-104546400D02*
X175260000Y-104495600D01*
X148945600Y-87172800D02*
X156210000Y-87172800D01*
X148590000Y-87528400D02*
X148945600Y-87172800D01*
X148590000Y-93726000D02*
X148590000Y-87528400D01*
X147878800Y-94437200D02*
X148590000Y-93726000D01*
X171500800Y-99923600D02*
X170840400Y-99263200D01*
X170840400Y-99263200D02*
X170840400Y-90728800D01*
X178663600Y-152704800D02*
X178663600Y-159766000D01*
X178663600Y-159766000D02*
X177495200Y-160934400D01*
D28*
X175209200Y-135432800D02*
X179527200Y-135432800D01*
X170637200Y-140004800D02*
X175209200Y-135432800D01*
D29*
X185166000Y-146202400D02*
X189026800Y-146202400D01*
X178663600Y-152704800D02*
X180848000Y-150520400D01*
X180848000Y-150520400D02*
X185166000Y-146202400D01*
X146812000Y-132324000D02*
X146812000Y-139801600D01*
X151739600Y-144729200D02*
X157632400Y-144729200D01*
X146812000Y-139801600D02*
X151739600Y-144729200D01*
X168859200Y-123139200D02*
X181508400Y-123139200D01*
X186588400Y-128219200D02*
X186588400Y-128879600D01*
X181508400Y-123139200D02*
X186588400Y-128219200D01*
X167894000Y-124104400D02*
X168859200Y-123139200D01*
X163388800Y-124104400D02*
X167894000Y-124104400D01*
D28*
X167995600Y-131572000D02*
X167944800Y-131572000D01*
D26*
X152654000Y-128219200D02*
X152654000Y-128066800D01*
X157124400Y-127406400D02*
X158750000Y-129032000D01*
X153314400Y-127406400D02*
X157124400Y-127406400D01*
X152654000Y-128066800D02*
X153314400Y-127406400D01*
D28*
X160190000Y-128333600D02*
X159448400Y-128333600D01*
X159448400Y-128333600D02*
X158750000Y-129032000D01*
X162243200Y-131572000D02*
X162192400Y-131622800D01*
X163322000Y-131572000D02*
X162243200Y-131572000D01*
X162192400Y-130131200D02*
X162192400Y-131622800D01*
X162192400Y-130131200D02*
X162390000Y-129933600D01*
D26*
X146812000Y-127324000D02*
X144811600Y-127324000D01*
X144811600Y-127324000D02*
X144112000Y-128023600D01*
X144112000Y-126324000D02*
X144112000Y-128023600D01*
X144112000Y-128023600D02*
X144112000Y-131324000D01*
X144112000Y-131324000D02*
X145112000Y-132324000D01*
X146812000Y-132324000D02*
X145112000Y-132324000D01*
X145112000Y-132324000D02*
X144112000Y-133324000D01*
X152654000Y-128219200D02*
X152417600Y-128219200D01*
X152417600Y-128219200D02*
X152316000Y-128320800D01*
X150916800Y-128219200D02*
X146812000Y-132324000D01*
X152654000Y-128219200D02*
X150916800Y-128219200D01*
X161290000Y-131572000D02*
X158750000Y-129032000D01*
X163322000Y-131572000D02*
X161290000Y-131572000D01*
X167944800Y-131572000D02*
X163322000Y-131572000D01*
D28*
X170281600Y-129235200D02*
X167944800Y-131572000D01*
D29*
X175717200Y-113233200D02*
X171043600Y-117906800D01*
X176276000Y-113233200D02*
X175717200Y-113233200D01*
D28*
X163196800Y-61581600D02*
X163196800Y-61756600D01*
X163196800Y-61756600D02*
X163266800Y-61826600D01*
X163196800Y-60946600D02*
X163246800Y-60946600D01*
X163246800Y-60946600D02*
X163266800Y-60926600D01*
X164146800Y-60946600D02*
X163831800Y-60946600D01*
X164166800Y-60926600D02*
X164146800Y-60946600D01*
X163831800Y-61581600D02*
X163921800Y-61581600D01*
X163921800Y-61581600D02*
X164166800Y-61826600D01*
D26*
X154838400Y-98450400D02*
X154838400Y-95808800D01*
X155346400Y-98958400D02*
X154838400Y-98450400D01*
X159004000Y-98958400D02*
X155346400Y-98958400D01*
X159664400Y-99618800D02*
X159004000Y-98958400D01*
X154838400Y-98450400D02*
X154838400Y-95808800D01*
X155346400Y-98958400D02*
X154838400Y-98450400D01*
X159004000Y-98958400D02*
X155346400Y-98958400D01*
X159664400Y-99618800D02*
X159004000Y-98958400D01*
X160121600Y-95402400D02*
X160121600Y-92049600D01*
X160629600Y-95910400D02*
X160121600Y-95402400D01*
X160121600Y-95402400D02*
X160121600Y-92049600D01*
X160629600Y-95910400D02*
X160121600Y-95402400D01*
X170078400Y-88900000D02*
X170078400Y-88696800D01*
X165709600Y-93268800D02*
X170078400Y-88900000D01*
X170078400Y-88900000D02*
X170078400Y-88696800D01*
X165709600Y-93268800D02*
X170078400Y-88900000D01*
X171500800Y-103936800D02*
X168351200Y-100787200D01*
X171500800Y-103936800D02*
X168351200Y-100787200D01*
X168351200Y-100787200D02*
X168351200Y-100685600D01*
X168351200Y-100787200D02*
X168351200Y-100685600D01*
D29*
X179781200Y-167030400D02*
X194818000Y-167030400D01*
X175514000Y-162763200D02*
X179781200Y-167030400D01*
X175514000Y-156464000D02*
X175514000Y-162763200D01*
X175260000Y-156210000D02*
X175514000Y-156464000D01*
X194462400Y-166674800D02*
X194462400Y-158038800D01*
X194818000Y-167030400D02*
X194462400Y-166674800D01*
X194544000Y-158292800D02*
X194614800Y-158222000D01*
X194614800Y-158222000D02*
X194614800Y-157937200D01*
D28*
X160985200Y-135585200D02*
X161798000Y-135585200D01*
X158648400Y-133248400D02*
X160985200Y-135585200D01*
D27*
X200914000Y-70053200D02*
X192319682Y-70053200D01*
D28*
X213512400Y-119278400D02*
X215900000Y-121666000D01*
X203758800Y-119278400D02*
X213512400Y-119278400D01*
D29*
X153314400Y-131943598D02*
X153314400Y-138074400D01*
X156276798Y-128981200D02*
X153314400Y-131943598D01*
D28*
X178155600Y-124612400D02*
X170484800Y-124612400D01*
X180695600Y-127152400D02*
X178155600Y-124612400D01*
X180695600Y-128574800D02*
X180695600Y-127152400D01*
X172466000Y-136804400D02*
X180695600Y-128574800D01*
X168503600Y-128574800D02*
X179425600Y-128574800D01*
X166268400Y-130810000D02*
X168503600Y-128574800D01*
D29*
X157276800Y-131013200D02*
X157276800Y-135788400D01*
X157276800Y-135788400D02*
X164693600Y-143205200D01*
D28*
X189026800Y-136042400D02*
X184150000Y-140919200D01*
X184150000Y-140919200D02*
X171653200Y-140919200D01*
X185928000Y-141681200D02*
X189026800Y-138582400D01*
X170434000Y-141681200D02*
X185928000Y-141681200D01*
X187350400Y-142798800D02*
X189026800Y-141122400D01*
X170637200Y-142798800D02*
X187350400Y-142798800D01*
X170078400Y-143662400D02*
X189026800Y-143662400D01*
X169976800Y-143560800D02*
X170078400Y-143662400D01*
X167894000Y-150215600D02*
X156921200Y-161188400D01*
X167894000Y-146659600D02*
X167894000Y-150215600D01*
X159461200Y-161188400D02*
X168960800Y-151688800D01*
X168960800Y-151688800D02*
X168960800Y-146659600D01*
X166979600Y-148082000D02*
X145796000Y-148082000D01*
X145796000Y-150622000D02*
X165303200Y-150622000D01*
X165303200Y-150622000D02*
X166878000Y-149047200D01*
X170637200Y-158242000D02*
X169773600Y-159105600D01*
X170637200Y-145288000D02*
X170637200Y-158242000D01*
X165049200Y-139700000D02*
X170637200Y-145288000D01*
X165049200Y-138684000D02*
X165049200Y-139700000D01*
X173482000Y-130251200D02*
X165049200Y-138684000D01*
X173482000Y-129641600D02*
X173482000Y-130251200D01*
X173583600Y-129540000D02*
X173482000Y-129641600D01*
X163779200Y-138633200D02*
X172313600Y-130098800D01*
X163779200Y-140106400D02*
X163779200Y-138633200D01*
X169824400Y-146151600D02*
X163779200Y-140106400D01*
X169824400Y-155956000D02*
X169824400Y-146151600D01*
X166827200Y-158953200D02*
X169824400Y-155956000D01*
X168960800Y-137058400D02*
X171602400Y-134416800D01*
X168046400Y-137058400D02*
X168960800Y-137058400D01*
X195031200Y-139446000D02*
X195031200Y-138724800D01*
X195031200Y-138724800D02*
X204927200Y-128828800D01*
X204927200Y-128828800D02*
X204927200Y-122783600D01*
X204927200Y-122783600D02*
X206603600Y-121107200D01*
X195031200Y-141986000D02*
X205638400Y-131378800D01*
X205638400Y-131378800D02*
X205638400Y-125577600D01*
X195031200Y-144526000D02*
X193751200Y-144526000D01*
X193751200Y-144526000D02*
X191973200Y-146304000D01*
X191973200Y-146304000D02*
X191973200Y-152298400D01*
X191973200Y-152298400D02*
X194005200Y-154330400D01*
X194005200Y-154330400D02*
X216916000Y-154330400D01*
X216916000Y-154330400D02*
X218795600Y-152450800D01*
X218795600Y-152450800D02*
X218795600Y-115976400D01*
X218795600Y-115976400D02*
X200914000Y-115976400D01*
X200914000Y-115976400D02*
X197104000Y-119786400D01*
X193294000Y-148803200D02*
X195031200Y-147066000D01*
X193294000Y-151638000D02*
X193294000Y-148803200D01*
X194614800Y-152958800D02*
X193294000Y-151638000D01*
X215544400Y-152958800D02*
X194614800Y-152958800D01*
X217474800Y-151028400D02*
X215544400Y-152958800D01*
X217474800Y-118872000D02*
X217474800Y-151028400D01*
X215392000Y-116789200D02*
X217474800Y-118872000D01*
X201828400Y-116789200D02*
X215392000Y-116789200D01*
X199898000Y-118719600D02*
X201828400Y-116789200D01*
X201625200Y-130759200D02*
X185826400Y-130759200D01*
X202946000Y-129438400D02*
X201625200Y-130759200D01*
X200863200Y-129794000D02*
X202387200Y-128270000D01*
X185420000Y-129794000D02*
X200863200Y-129794000D01*
X184912000Y-130302000D02*
X185420000Y-129794000D01*
X199644000Y-81483200D02*
X199644000Y-85293200D01*
X200914000Y-80213200D02*
X199644000Y-81483200D01*
X202184000Y-78943200D02*
X202184000Y-85293200D01*
X203454000Y-77673200D02*
X202184000Y-78943200D01*
X206298800Y-77419200D02*
X206298800Y-78994000D01*
X205079600Y-76200000D02*
X206298800Y-77419200D01*
X203911200Y-76200000D02*
X205079600Y-76200000D01*
X202234800Y-77876400D02*
X203911200Y-76200000D01*
D30*
G36*
X148420142Y-81838853D02*
X147678258Y-82579443D01*
X147276258Y-83547567D01*
X147275343Y-84595834D01*
X147675653Y-85564658D01*
X148416243Y-86306542D01*
X149384367Y-86708542D01*
X150432634Y-86709457D01*
X151401458Y-86309147D01*
X152143342Y-85568557D01*
X152209747Y-85408634D01*
X175926543Y-85408634D01*
X176326853Y-86377458D01*
X177067443Y-87119342D01*
X178035567Y-87521342D01*
X179083834Y-87522257D01*
X180052658Y-87121947D01*
X180794542Y-86381357D01*
X181196542Y-85413233D01*
X181197457Y-84364966D01*
X180797147Y-83396142D01*
X180056557Y-82654258D01*
X179088433Y-82252258D01*
X178040166Y-82251343D01*
X177071342Y-82651653D01*
X176329458Y-83392243D01*
X175927458Y-84360367D01*
X175926543Y-85408634D01*
X152209747Y-85408634D01*
X152545342Y-84600433D01*
X152546257Y-83552166D01*
X152145947Y-82583342D01*
X151405357Y-81841458D01*
X150603746Y-81508600D01*
X181382200Y-81508600D01*
X181382200Y-108737400D01*
X143827569Y-108737400D01*
X144476647Y-108468543D01*
X144697416Y-108097822D01*
X143002000Y-106402405D01*
X141306584Y-108097822D01*
X141527353Y-108468543D01*
X142191444Y-108737400D01*
X139420366Y-108737400D01*
X139414789Y-105719812D01*
X140362881Y-105719812D01*
X140371287Y-106768047D01*
X140756257Y-107697447D01*
X141126978Y-107918216D01*
X142822395Y-106222800D01*
X143181605Y-106222800D01*
X144877022Y-107918216D01*
X145247743Y-107697447D01*
X145641119Y-106725788D01*
X145632713Y-105677553D01*
X145272000Y-104806713D01*
X147968416Y-104806713D01*
X148161646Y-105359120D01*
X148551564Y-105795532D01*
X149078809Y-106049509D01*
X149094574Y-106052158D01*
X149326600Y-105931017D01*
X149326600Y-104571800D01*
X148112676Y-104571800D01*
X147968416Y-104806713D01*
X145272000Y-104806713D01*
X145247743Y-104748153D01*
X144877022Y-104527384D01*
X143181605Y-106222800D01*
X142822395Y-106222800D01*
X141126978Y-104527384D01*
X140756257Y-104748153D01*
X140362881Y-105719812D01*
X139414789Y-105719812D01*
X139412253Y-104347778D01*
X141306584Y-104347778D01*
X143002000Y-106043195D01*
X144697416Y-104347778D01*
X144539671Y-104082887D01*
X147968416Y-104082887D01*
X148112676Y-104317800D01*
X149326600Y-104317800D01*
X149326600Y-102958583D01*
X149580600Y-102958583D01*
X149580600Y-104317800D01*
X149600600Y-104317800D01*
X149600600Y-104571800D01*
X149580600Y-104571800D01*
X149580600Y-105931017D01*
X149812626Y-106052158D01*
X149828391Y-106049509D01*
X150355636Y-105795532D01*
X150727139Y-105379731D01*
X150933930Y-105689215D01*
X151420111Y-106014071D01*
X151993600Y-106128145D01*
X152567089Y-106014071D01*
X153053270Y-105689215D01*
X153263600Y-105374434D01*
X153473930Y-105689215D01*
X153960111Y-106014071D01*
X154533600Y-106128145D01*
X155107089Y-106014071D01*
X155593270Y-105689215D01*
X155803600Y-105374434D01*
X156013930Y-105689215D01*
X156500111Y-106014071D01*
X157073600Y-106128145D01*
X157647089Y-106014071D01*
X158133270Y-105689215D01*
X158343600Y-105374434D01*
X158553930Y-105689215D01*
X159040111Y-106014071D01*
X159613600Y-106128145D01*
X160187089Y-106014071D01*
X160673270Y-105689215D01*
X160682843Y-105674887D01*
X160686838Y-105696117D01*
X160825910Y-105912241D01*
X161038110Y-106057231D01*
X161290000Y-106108240D01*
X163017200Y-106108240D01*
X163252517Y-106063962D01*
X163468641Y-105924890D01*
X163613631Y-105712690D01*
X163664640Y-105460800D01*
X163664640Y-103428800D01*
X163620362Y-103193483D01*
X163481290Y-102977359D01*
X163269090Y-102832369D01*
X163017200Y-102781360D01*
X161290000Y-102781360D01*
X161054683Y-102825638D01*
X160838559Y-102964710D01*
X160693569Y-103176910D01*
X160685200Y-103218239D01*
X160673270Y-103200385D01*
X160187089Y-102875529D01*
X159613600Y-102761455D01*
X159040111Y-102875529D01*
X158553930Y-103200385D01*
X158343600Y-103515166D01*
X158133270Y-103200385D01*
X157647089Y-102875529D01*
X157073600Y-102761455D01*
X156500111Y-102875529D01*
X156013930Y-103200385D01*
X155803600Y-103515166D01*
X155593270Y-103200385D01*
X155107089Y-102875529D01*
X154533600Y-102761455D01*
X153960111Y-102875529D01*
X153473930Y-103200385D01*
X153263600Y-103515166D01*
X153053270Y-103200385D01*
X152567089Y-102875529D01*
X151993600Y-102761455D01*
X151420111Y-102875529D01*
X150933930Y-103200385D01*
X150727139Y-103509869D01*
X150355636Y-103094068D01*
X149828391Y-102840091D01*
X149812626Y-102837442D01*
X149580600Y-102958583D01*
X149326600Y-102958583D01*
X149094574Y-102837442D01*
X149078809Y-102840091D01*
X148551564Y-103094068D01*
X148161646Y-103530480D01*
X147968416Y-104082887D01*
X144539671Y-104082887D01*
X144476647Y-103977057D01*
X143504988Y-103583681D01*
X142456753Y-103592087D01*
X141527353Y-103977057D01*
X141306584Y-104347778D01*
X139412253Y-104347778D01*
X139408267Y-102191567D01*
X139882438Y-102191567D01*
X140024483Y-102535343D01*
X140287273Y-102798592D01*
X140630801Y-102941238D01*
X141002767Y-102941562D01*
X141245178Y-102841400D01*
X143916400Y-102841400D01*
X143924848Y-102839720D01*
X144203167Y-102839962D01*
X144546943Y-102697917D01*
X144810192Y-102435127D01*
X144952838Y-102091599D01*
X144953162Y-101719633D01*
X144811117Y-101375857D01*
X144548327Y-101112608D01*
X144204799Y-100969962D01*
X143832833Y-100969638D01*
X143489057Y-101111683D01*
X143429236Y-101171400D01*
X141244834Y-101171400D01*
X141004399Y-101071562D01*
X140632433Y-101071238D01*
X140288657Y-101213283D01*
X140025408Y-101476073D01*
X139882762Y-101819601D01*
X139882438Y-102191567D01*
X139408267Y-102191567D01*
X139405920Y-100921567D01*
X149026438Y-100921567D01*
X149168483Y-101265343D01*
X149431273Y-101528592D01*
X149774801Y-101671238D01*
X150146767Y-101671562D01*
X150389178Y-101571400D01*
X159420132Y-101571400D01*
X159889465Y-102040733D01*
X159988883Y-102281343D01*
X160251673Y-102544592D01*
X160595201Y-102687238D01*
X160967167Y-102687562D01*
X161310943Y-102545517D01*
X161574192Y-102282727D01*
X161716838Y-101939199D01*
X161717162Y-101567233D01*
X161575117Y-101223457D01*
X161312327Y-100960208D01*
X161096931Y-100870767D01*
X167416038Y-100870767D01*
X167558083Y-101214543D01*
X167820873Y-101477792D01*
X167889364Y-101506232D01*
X170608265Y-104225133D01*
X170707683Y-104465743D01*
X170970473Y-104728992D01*
X171314001Y-104871638D01*
X171685967Y-104871962D01*
X172029743Y-104729917D01*
X172292992Y-104467127D01*
X172435638Y-104123599D01*
X172435962Y-103751633D01*
X172293917Y-103407857D01*
X172031127Y-103144608D01*
X171788890Y-103044022D01*
X169286326Y-100541458D01*
X169286362Y-100500433D01*
X169144317Y-100156657D01*
X168881527Y-99893408D01*
X168537999Y-99750762D01*
X168166033Y-99750438D01*
X167822257Y-99892483D01*
X167559008Y-100155273D01*
X167416362Y-100498801D01*
X167416038Y-100870767D01*
X161096931Y-100870767D01*
X161070090Y-100859622D01*
X160408051Y-100197583D01*
X160456592Y-100149127D01*
X160599238Y-99805599D01*
X160599562Y-99433633D01*
X160457517Y-99089857D01*
X160194727Y-98826608D01*
X159952490Y-98726022D01*
X159594433Y-98367965D01*
X159323541Y-98186961D01*
X159004000Y-98123400D01*
X155692269Y-98123400D01*
X155673400Y-98104532D01*
X155673400Y-96236034D01*
X155773238Y-95995599D01*
X155773562Y-95623633D01*
X155631517Y-95279857D01*
X155368727Y-95016608D01*
X155025199Y-94873962D01*
X154653233Y-94873638D01*
X154309457Y-95015683D01*
X154046208Y-95278473D01*
X153903562Y-95622001D01*
X153903238Y-95993967D01*
X154003400Y-96236378D01*
X154003400Y-98450400D01*
X154066961Y-98769941D01*
X154239635Y-99028366D01*
X154247966Y-99040834D01*
X154755965Y-99548834D01*
X154860677Y-99618800D01*
X155026859Y-99729839D01*
X155346400Y-99793400D01*
X158658132Y-99793400D01*
X158766132Y-99901400D01*
X150388834Y-99901400D01*
X150148399Y-99801562D01*
X149776433Y-99801238D01*
X149432657Y-99943283D01*
X149169408Y-100206073D01*
X149026762Y-100549601D01*
X149026438Y-100921567D01*
X139405920Y-100921567D01*
X139396569Y-95863026D01*
X142613842Y-95863026D01*
X142616491Y-95878791D01*
X142870468Y-96406036D01*
X143306880Y-96795954D01*
X143859287Y-96989184D01*
X144094200Y-96844924D01*
X144094200Y-95631000D01*
X144348200Y-95631000D01*
X144348200Y-96844924D01*
X144583113Y-96989184D01*
X145135520Y-96795954D01*
X145571932Y-96406036D01*
X145825909Y-95878791D01*
X145828558Y-95863026D01*
X145707417Y-95631000D01*
X144348200Y-95631000D01*
X144094200Y-95631000D01*
X142734983Y-95631000D01*
X142613842Y-95863026D01*
X139396569Y-95863026D01*
X139386515Y-90424000D01*
X142537855Y-90424000D01*
X142651929Y-90997489D01*
X142976785Y-91483670D01*
X143291566Y-91694000D01*
X142976785Y-91904330D01*
X142651929Y-92390511D01*
X142537855Y-92964000D01*
X142651929Y-93537489D01*
X142976785Y-94023670D01*
X143286269Y-94230461D01*
X142870468Y-94601964D01*
X142616491Y-95129209D01*
X142613842Y-95144974D01*
X142734983Y-95377000D01*
X144094200Y-95377000D01*
X144094200Y-95357000D01*
X144348200Y-95357000D01*
X144348200Y-95377000D01*
X145707417Y-95377000D01*
X145828558Y-95144974D01*
X145825909Y-95129209D01*
X145571932Y-94601964D01*
X145156131Y-94230461D01*
X145465615Y-94023670D01*
X145790471Y-93537489D01*
X145904545Y-92964000D01*
X145790471Y-92390511D01*
X145686407Y-92234767D01*
X159186438Y-92234767D01*
X159286600Y-92477178D01*
X159286600Y-95402400D01*
X159350161Y-95721941D01*
X159531166Y-95992834D01*
X159737066Y-96198734D01*
X159836483Y-96439343D01*
X160099273Y-96702592D01*
X160442801Y-96845238D01*
X160814767Y-96845562D01*
X161158543Y-96703517D01*
X161421792Y-96440727D01*
X161564438Y-96097199D01*
X161564762Y-95725233D01*
X161422717Y-95381457D01*
X161159927Y-95118208D01*
X160956600Y-95033779D01*
X160956600Y-93453967D01*
X164774438Y-93453967D01*
X164916483Y-93797743D01*
X165179273Y-94060992D01*
X165522801Y-94203638D01*
X165894767Y-94203962D01*
X166238543Y-94061917D01*
X166501792Y-93799127D01*
X166602378Y-93556890D01*
X166636468Y-93522800D01*
X172662255Y-93522800D01*
X172776329Y-94096289D01*
X173101185Y-94582470D01*
X173415966Y-94792800D01*
X173101185Y-95003130D01*
X172776329Y-95489311D01*
X172662255Y-96062800D01*
X172776329Y-96636289D01*
X173101185Y-97122470D01*
X173415966Y-97332800D01*
X173101185Y-97543130D01*
X172776329Y-98029311D01*
X172662255Y-98602800D01*
X172776329Y-99176289D01*
X173101185Y-99662470D01*
X173587366Y-99987326D01*
X174160855Y-100101400D01*
X174530345Y-100101400D01*
X175103834Y-99987326D01*
X175590015Y-99662470D01*
X175914871Y-99176289D01*
X176028945Y-98602800D01*
X175914871Y-98029311D01*
X175590015Y-97543130D01*
X175275234Y-97332800D01*
X175590015Y-97122470D01*
X175914871Y-96636289D01*
X176028945Y-96062800D01*
X175914871Y-95489311D01*
X175590015Y-95003130D01*
X175275234Y-94792800D01*
X175590015Y-94582470D01*
X175914871Y-94096289D01*
X176028945Y-93522800D01*
X175914871Y-92949311D01*
X175590015Y-92463130D01*
X175575687Y-92453557D01*
X175596917Y-92449562D01*
X175813041Y-92310490D01*
X175958031Y-92098290D01*
X176009040Y-91846400D01*
X176009040Y-90119200D01*
X175964762Y-89883883D01*
X175825690Y-89667759D01*
X175613490Y-89522769D01*
X175361600Y-89471760D01*
X173329600Y-89471760D01*
X173094283Y-89516038D01*
X172878159Y-89655110D01*
X172733169Y-89867310D01*
X172682160Y-90119200D01*
X172682160Y-91846400D01*
X172726438Y-92081717D01*
X172865510Y-92297841D01*
X173077710Y-92442831D01*
X173119039Y-92451200D01*
X173101185Y-92463130D01*
X172776329Y-92949311D01*
X172662255Y-93522800D01*
X166636468Y-93522800D01*
X170668834Y-89490434D01*
X170793044Y-89304539D01*
X170870592Y-89227127D01*
X171013238Y-88883599D01*
X171013562Y-88511633D01*
X170871517Y-88167857D01*
X170608727Y-87904608D01*
X170265199Y-87761962D01*
X169893233Y-87761638D01*
X169549457Y-87903683D01*
X169286208Y-88166473D01*
X169143562Y-88510001D01*
X169143436Y-88654096D01*
X165421267Y-92376265D01*
X165180657Y-92475683D01*
X164917408Y-92738473D01*
X164774762Y-93082001D01*
X164774438Y-93453967D01*
X160956600Y-93453967D01*
X160956600Y-92476834D01*
X161056438Y-92236399D01*
X161056762Y-91864433D01*
X160914717Y-91520657D01*
X160651927Y-91257408D01*
X160308399Y-91114762D01*
X159936433Y-91114438D01*
X159592657Y-91256483D01*
X159329408Y-91519273D01*
X159186762Y-91862801D01*
X159186438Y-92234767D01*
X145686407Y-92234767D01*
X145465615Y-91904330D01*
X145150834Y-91694000D01*
X145465615Y-91483670D01*
X145790471Y-90997489D01*
X145904545Y-90424000D01*
X145790471Y-89850511D01*
X145465615Y-89364330D01*
X145451287Y-89354757D01*
X145472517Y-89350762D01*
X145688641Y-89211690D01*
X145833631Y-88999490D01*
X145884640Y-88747600D01*
X145884640Y-87020400D01*
X145840362Y-86785083D01*
X145701290Y-86568959D01*
X145489090Y-86423969D01*
X145237200Y-86372960D01*
X143205200Y-86372960D01*
X142969883Y-86417238D01*
X142753759Y-86556310D01*
X142608769Y-86768510D01*
X142557760Y-87020400D01*
X142557760Y-88747600D01*
X142602038Y-88982917D01*
X142741110Y-89199041D01*
X142953310Y-89344031D01*
X142994639Y-89352400D01*
X142976785Y-89364330D01*
X142651929Y-89850511D01*
X142537855Y-90424000D01*
X139386515Y-90424000D01*
X139370035Y-81508600D01*
X149219415Y-81508600D01*
X148420142Y-81838853D01*
X148420142Y-81838853D01*
G37*
X148420142Y-81838853D02*
X147678258Y-82579443D01*
X147276258Y-83547567D01*
X147275343Y-84595834D01*
X147675653Y-85564658D01*
X148416243Y-86306542D01*
X149384367Y-86708542D01*
X150432634Y-86709457D01*
X151401458Y-86309147D01*
X152143342Y-85568557D01*
X152209747Y-85408634D01*
X175926543Y-85408634D01*
X176326853Y-86377458D01*
X177067443Y-87119342D01*
X178035567Y-87521342D01*
X179083834Y-87522257D01*
X180052658Y-87121947D01*
X180794542Y-86381357D01*
X181196542Y-85413233D01*
X181197457Y-84364966D01*
X180797147Y-83396142D01*
X180056557Y-82654258D01*
X179088433Y-82252258D01*
X178040166Y-82251343D01*
X177071342Y-82651653D01*
X176329458Y-83392243D01*
X175927458Y-84360367D01*
X175926543Y-85408634D01*
X152209747Y-85408634D01*
X152545342Y-84600433D01*
X152546257Y-83552166D01*
X152145947Y-82583342D01*
X151405357Y-81841458D01*
X150603746Y-81508600D01*
X181382200Y-81508600D01*
X181382200Y-108737400D01*
X143827569Y-108737400D01*
X144476647Y-108468543D01*
X144697416Y-108097822D01*
X143002000Y-106402405D01*
X141306584Y-108097822D01*
X141527353Y-108468543D01*
X142191444Y-108737400D01*
X139420366Y-108737400D01*
X139414789Y-105719812D01*
X140362881Y-105719812D01*
X140371287Y-106768047D01*
X140756257Y-107697447D01*
X141126978Y-107918216D01*
X142822395Y-106222800D01*
X143181605Y-106222800D01*
X144877022Y-107918216D01*
X145247743Y-107697447D01*
X145641119Y-106725788D01*
X145632713Y-105677553D01*
X145272000Y-104806713D01*
X147968416Y-104806713D01*
X148161646Y-105359120D01*
X148551564Y-105795532D01*
X149078809Y-106049509D01*
X149094574Y-106052158D01*
X149326600Y-105931017D01*
X149326600Y-104571800D01*
X148112676Y-104571800D01*
X147968416Y-104806713D01*
X145272000Y-104806713D01*
X145247743Y-104748153D01*
X144877022Y-104527384D01*
X143181605Y-106222800D01*
X142822395Y-106222800D01*
X141126978Y-104527384D01*
X140756257Y-104748153D01*
X140362881Y-105719812D01*
X139414789Y-105719812D01*
X139412253Y-104347778D01*
X141306584Y-104347778D01*
X143002000Y-106043195D01*
X144697416Y-104347778D01*
X144539671Y-104082887D01*
X147968416Y-104082887D01*
X148112676Y-104317800D01*
X149326600Y-104317800D01*
X149326600Y-102958583D01*
X149580600Y-102958583D01*
X149580600Y-104317800D01*
X149600600Y-104317800D01*
X149600600Y-104571800D01*
X149580600Y-104571800D01*
X149580600Y-105931017D01*
X149812626Y-106052158D01*
X149828391Y-106049509D01*
X150355636Y-105795532D01*
X150727139Y-105379731D01*
X150933930Y-105689215D01*
X151420111Y-106014071D01*
X151993600Y-106128145D01*
X152567089Y-106014071D01*
X153053270Y-105689215D01*
X153263600Y-105374434D01*
X153473930Y-105689215D01*
X153960111Y-106014071D01*
X154533600Y-106128145D01*
X155107089Y-106014071D01*
X155593270Y-105689215D01*
X155803600Y-105374434D01*
X156013930Y-105689215D01*
X156500111Y-106014071D01*
X157073600Y-106128145D01*
X157647089Y-106014071D01*
X158133270Y-105689215D01*
X158343600Y-105374434D01*
X158553930Y-105689215D01*
X159040111Y-106014071D01*
X159613600Y-106128145D01*
X160187089Y-106014071D01*
X160673270Y-105689215D01*
X160682843Y-105674887D01*
X160686838Y-105696117D01*
X160825910Y-105912241D01*
X161038110Y-106057231D01*
X161290000Y-106108240D01*
X163017200Y-106108240D01*
X163252517Y-106063962D01*
X163468641Y-105924890D01*
X163613631Y-105712690D01*
X163664640Y-105460800D01*
X163664640Y-103428800D01*
X163620362Y-103193483D01*
X163481290Y-102977359D01*
X163269090Y-102832369D01*
X163017200Y-102781360D01*
X161290000Y-102781360D01*
X161054683Y-102825638D01*
X160838559Y-102964710D01*
X160693569Y-103176910D01*
X160685200Y-103218239D01*
X160673270Y-103200385D01*
X160187089Y-102875529D01*
X159613600Y-102761455D01*
X159040111Y-102875529D01*
X158553930Y-103200385D01*
X158343600Y-103515166D01*
X158133270Y-103200385D01*
X157647089Y-102875529D01*
X157073600Y-102761455D01*
X156500111Y-102875529D01*
X156013930Y-103200385D01*
X155803600Y-103515166D01*
X155593270Y-103200385D01*
X155107089Y-102875529D01*
X154533600Y-102761455D01*
X153960111Y-102875529D01*
X153473930Y-103200385D01*
X153263600Y-103515166D01*
X153053270Y-103200385D01*
X152567089Y-102875529D01*
X151993600Y-102761455D01*
X151420111Y-102875529D01*
X150933930Y-103200385D01*
X150727139Y-103509869D01*
X150355636Y-103094068D01*
X149828391Y-102840091D01*
X149812626Y-102837442D01*
X149580600Y-102958583D01*
X149326600Y-102958583D01*
X149094574Y-102837442D01*
X149078809Y-102840091D01*
X148551564Y-103094068D01*
X148161646Y-103530480D01*
X147968416Y-104082887D01*
X144539671Y-104082887D01*
X144476647Y-103977057D01*
X143504988Y-103583681D01*
X142456753Y-103592087D01*
X141527353Y-103977057D01*
X141306584Y-104347778D01*
X139412253Y-104347778D01*
X139408267Y-102191567D01*
X139882438Y-102191567D01*
X140024483Y-102535343D01*
X140287273Y-102798592D01*
X140630801Y-102941238D01*
X141002767Y-102941562D01*
X141245178Y-102841400D01*
X143916400Y-102841400D01*
X143924848Y-102839720D01*
X144203167Y-102839962D01*
X144546943Y-102697917D01*
X144810192Y-102435127D01*
X144952838Y-102091599D01*
X144953162Y-101719633D01*
X144811117Y-101375857D01*
X144548327Y-101112608D01*
X144204799Y-100969962D01*
X143832833Y-100969638D01*
X143489057Y-101111683D01*
X143429236Y-101171400D01*
X141244834Y-101171400D01*
X141004399Y-101071562D01*
X140632433Y-101071238D01*
X140288657Y-101213283D01*
X140025408Y-101476073D01*
X139882762Y-101819601D01*
X139882438Y-102191567D01*
X139408267Y-102191567D01*
X139405920Y-100921567D01*
X149026438Y-100921567D01*
X149168483Y-101265343D01*
X149431273Y-101528592D01*
X149774801Y-101671238D01*
X150146767Y-101671562D01*
X150389178Y-101571400D01*
X159420132Y-101571400D01*
X159889465Y-102040733D01*
X159988883Y-102281343D01*
X160251673Y-102544592D01*
X160595201Y-102687238D01*
X160967167Y-102687562D01*
X161310943Y-102545517D01*
X161574192Y-102282727D01*
X161716838Y-101939199D01*
X161717162Y-101567233D01*
X161575117Y-101223457D01*
X161312327Y-100960208D01*
X161096931Y-100870767D01*
X167416038Y-100870767D01*
X167558083Y-101214543D01*
X167820873Y-101477792D01*
X167889364Y-101506232D01*
X170608265Y-104225133D01*
X170707683Y-104465743D01*
X170970473Y-104728992D01*
X171314001Y-104871638D01*
X171685967Y-104871962D01*
X172029743Y-104729917D01*
X172292992Y-104467127D01*
X172435638Y-104123599D01*
X172435962Y-103751633D01*
X172293917Y-103407857D01*
X172031127Y-103144608D01*
X171788890Y-103044022D01*
X169286326Y-100541458D01*
X169286362Y-100500433D01*
X169144317Y-100156657D01*
X168881527Y-99893408D01*
X168537999Y-99750762D01*
X168166033Y-99750438D01*
X167822257Y-99892483D01*
X167559008Y-100155273D01*
X167416362Y-100498801D01*
X167416038Y-100870767D01*
X161096931Y-100870767D01*
X161070090Y-100859622D01*
X160408051Y-100197583D01*
X160456592Y-100149127D01*
X160599238Y-99805599D01*
X160599562Y-99433633D01*
X160457517Y-99089857D01*
X160194727Y-98826608D01*
X159952490Y-98726022D01*
X159594433Y-98367965D01*
X159323541Y-98186961D01*
X159004000Y-98123400D01*
X155692269Y-98123400D01*
X155673400Y-98104532D01*
X155673400Y-96236034D01*
X155773238Y-95995599D01*
X155773562Y-95623633D01*
X155631517Y-95279857D01*
X155368727Y-95016608D01*
X155025199Y-94873962D01*
X154653233Y-94873638D01*
X154309457Y-95015683D01*
X154046208Y-95278473D01*
X153903562Y-95622001D01*
X153903238Y-95993967D01*
X154003400Y-96236378D01*
X154003400Y-98450400D01*
X154066961Y-98769941D01*
X154239635Y-99028366D01*
X154247966Y-99040834D01*
X154755965Y-99548834D01*
X154860677Y-99618800D01*
X155026859Y-99729839D01*
X155346400Y-99793400D01*
X158658132Y-99793400D01*
X158766132Y-99901400D01*
X150388834Y-99901400D01*
X150148399Y-99801562D01*
X149776433Y-99801238D01*
X149432657Y-99943283D01*
X149169408Y-100206073D01*
X149026762Y-100549601D01*
X149026438Y-100921567D01*
X139405920Y-100921567D01*
X139396569Y-95863026D01*
X142613842Y-95863026D01*
X142616491Y-95878791D01*
X142870468Y-96406036D01*
X143306880Y-96795954D01*
X143859287Y-96989184D01*
X144094200Y-96844924D01*
X144094200Y-95631000D01*
X144348200Y-95631000D01*
X144348200Y-96844924D01*
X144583113Y-96989184D01*
X145135520Y-96795954D01*
X145571932Y-96406036D01*
X145825909Y-95878791D01*
X145828558Y-95863026D01*
X145707417Y-95631000D01*
X144348200Y-95631000D01*
X144094200Y-95631000D01*
X142734983Y-95631000D01*
X142613842Y-95863026D01*
X139396569Y-95863026D01*
X139386515Y-90424000D01*
X142537855Y-90424000D01*
X142651929Y-90997489D01*
X142976785Y-91483670D01*
X143291566Y-91694000D01*
X142976785Y-91904330D01*
X142651929Y-92390511D01*
X142537855Y-92964000D01*
X142651929Y-93537489D01*
X142976785Y-94023670D01*
X143286269Y-94230461D01*
X142870468Y-94601964D01*
X142616491Y-95129209D01*
X142613842Y-95144974D01*
X142734983Y-95377000D01*
X144094200Y-95377000D01*
X144094200Y-95357000D01*
X144348200Y-95357000D01*
X144348200Y-95377000D01*
X145707417Y-95377000D01*
X145828558Y-95144974D01*
X145825909Y-95129209D01*
X145571932Y-94601964D01*
X145156131Y-94230461D01*
X145465615Y-94023670D01*
X145790471Y-93537489D01*
X145904545Y-92964000D01*
X145790471Y-92390511D01*
X145686407Y-92234767D01*
X159186438Y-92234767D01*
X159286600Y-92477178D01*
X159286600Y-95402400D01*
X159350161Y-95721941D01*
X159531166Y-95992834D01*
X159737066Y-96198734D01*
X159836483Y-96439343D01*
X160099273Y-96702592D01*
X160442801Y-96845238D01*
X160814767Y-96845562D01*
X161158543Y-96703517D01*
X161421792Y-96440727D01*
X161564438Y-96097199D01*
X161564762Y-95725233D01*
X161422717Y-95381457D01*
X161159927Y-95118208D01*
X160956600Y-95033779D01*
X160956600Y-93453967D01*
X164774438Y-93453967D01*
X164916483Y-93797743D01*
X165179273Y-94060992D01*
X165522801Y-94203638D01*
X165894767Y-94203962D01*
X166238543Y-94061917D01*
X166501792Y-93799127D01*
X166602378Y-93556890D01*
X166636468Y-93522800D01*
X172662255Y-93522800D01*
X172776329Y-94096289D01*
X173101185Y-94582470D01*
X173415966Y-94792800D01*
X173101185Y-95003130D01*
X172776329Y-95489311D01*
X172662255Y-96062800D01*
X172776329Y-96636289D01*
X173101185Y-97122470D01*
X173415966Y-97332800D01*
X173101185Y-97543130D01*
X172776329Y-98029311D01*
X172662255Y-98602800D01*
X172776329Y-99176289D01*
X173101185Y-99662470D01*
X173587366Y-99987326D01*
X174160855Y-100101400D01*
X174530345Y-100101400D01*
X175103834Y-99987326D01*
X175590015Y-99662470D01*
X175914871Y-99176289D01*
X176028945Y-98602800D01*
X175914871Y-98029311D01*
X175590015Y-97543130D01*
X175275234Y-97332800D01*
X175590015Y-97122470D01*
X175914871Y-96636289D01*
X176028945Y-96062800D01*
X175914871Y-95489311D01*
X175590015Y-95003130D01*
X175275234Y-94792800D01*
X175590015Y-94582470D01*
X175914871Y-94096289D01*
X176028945Y-93522800D01*
X175914871Y-92949311D01*
X175590015Y-92463130D01*
X175575687Y-92453557D01*
X175596917Y-92449562D01*
X175813041Y-92310490D01*
X175958031Y-92098290D01*
X176009040Y-91846400D01*
X176009040Y-90119200D01*
X175964762Y-89883883D01*
X175825690Y-89667759D01*
X175613490Y-89522769D01*
X175361600Y-89471760D01*
X173329600Y-89471760D01*
X173094283Y-89516038D01*
X172878159Y-89655110D01*
X172733169Y-89867310D01*
X172682160Y-90119200D01*
X172682160Y-91846400D01*
X172726438Y-92081717D01*
X172865510Y-92297841D01*
X173077710Y-92442831D01*
X173119039Y-92451200D01*
X173101185Y-92463130D01*
X172776329Y-92949311D01*
X172662255Y-93522800D01*
X166636468Y-93522800D01*
X170668834Y-89490434D01*
X170793044Y-89304539D01*
X170870592Y-89227127D01*
X171013238Y-88883599D01*
X171013562Y-88511633D01*
X170871517Y-88167857D01*
X170608727Y-87904608D01*
X170265199Y-87761962D01*
X169893233Y-87761638D01*
X169549457Y-87903683D01*
X169286208Y-88166473D01*
X169143562Y-88510001D01*
X169143436Y-88654096D01*
X165421267Y-92376265D01*
X165180657Y-92475683D01*
X164917408Y-92738473D01*
X164774762Y-93082001D01*
X164774438Y-93453967D01*
X160956600Y-93453967D01*
X160956600Y-92476834D01*
X161056438Y-92236399D01*
X161056762Y-91864433D01*
X160914717Y-91520657D01*
X160651927Y-91257408D01*
X160308399Y-91114762D01*
X159936433Y-91114438D01*
X159592657Y-91256483D01*
X159329408Y-91519273D01*
X159186762Y-91862801D01*
X159186438Y-92234767D01*
X145686407Y-92234767D01*
X145465615Y-91904330D01*
X145150834Y-91694000D01*
X145465615Y-91483670D01*
X145790471Y-90997489D01*
X145904545Y-90424000D01*
X145790471Y-89850511D01*
X145465615Y-89364330D01*
X145451287Y-89354757D01*
X145472517Y-89350762D01*
X145688641Y-89211690D01*
X145833631Y-88999490D01*
X145884640Y-88747600D01*
X145884640Y-87020400D01*
X145840362Y-86785083D01*
X145701290Y-86568959D01*
X145489090Y-86423969D01*
X145237200Y-86372960D01*
X143205200Y-86372960D01*
X142969883Y-86417238D01*
X142753759Y-86556310D01*
X142608769Y-86768510D01*
X142557760Y-87020400D01*
X142557760Y-88747600D01*
X142602038Y-88982917D01*
X142741110Y-89199041D01*
X142953310Y-89344031D01*
X142994639Y-89352400D01*
X142976785Y-89364330D01*
X142651929Y-89850511D01*
X142537855Y-90424000D01*
X139386515Y-90424000D01*
X139370035Y-81508600D01*
X149219415Y-81508600D01*
X148420142Y-81838853D01*
G36*
X148420142Y-81838853D02*
X147678258Y-82579443D01*
X147276258Y-83547567D01*
X147275343Y-84595834D01*
X147675653Y-85564658D01*
X148416243Y-86306542D01*
X149384367Y-86708542D01*
X150432634Y-86709457D01*
X151401458Y-86309147D01*
X152143342Y-85568557D01*
X152209747Y-85408634D01*
X175926543Y-85408634D01*
X176326853Y-86377458D01*
X177067443Y-87119342D01*
X178035567Y-87521342D01*
X179083834Y-87522257D01*
X180052658Y-87121947D01*
X180794542Y-86381357D01*
X181196542Y-85413233D01*
X181197457Y-84364966D01*
X180797147Y-83396142D01*
X180056557Y-82654258D01*
X179088433Y-82252258D01*
X178040166Y-82251343D01*
X177071342Y-82651653D01*
X176329458Y-83392243D01*
X175927458Y-84360367D01*
X175926543Y-85408634D01*
X152209747Y-85408634D01*
X152545342Y-84600433D01*
X152546257Y-83552166D01*
X152145947Y-82583342D01*
X151405357Y-81841458D01*
X150603746Y-81508600D01*
X181382200Y-81508600D01*
X181382200Y-108737400D01*
X143827569Y-108737400D01*
X144476647Y-108468543D01*
X144697416Y-108097822D01*
X143002000Y-106402405D01*
X141306584Y-108097822D01*
X141527353Y-108468543D01*
X142191444Y-108737400D01*
X139420366Y-108737400D01*
X139414789Y-105719812D01*
X140362881Y-105719812D01*
X140371287Y-106768047D01*
X140756257Y-107697447D01*
X141126978Y-107918216D01*
X142822395Y-106222800D01*
X143181605Y-106222800D01*
X144877022Y-107918216D01*
X145247743Y-107697447D01*
X145641119Y-106725788D01*
X145632713Y-105677553D01*
X145272000Y-104806713D01*
X147968416Y-104806713D01*
X148161646Y-105359120D01*
X148551564Y-105795532D01*
X149078809Y-106049509D01*
X149094574Y-106052158D01*
X149326600Y-105931017D01*
X149326600Y-104571800D01*
X148112676Y-104571800D01*
X147968416Y-104806713D01*
X145272000Y-104806713D01*
X145247743Y-104748153D01*
X144877022Y-104527384D01*
X143181605Y-106222800D01*
X142822395Y-106222800D01*
X141126978Y-104527384D01*
X140756257Y-104748153D01*
X140362881Y-105719812D01*
X139414789Y-105719812D01*
X139412253Y-104347778D01*
X141306584Y-104347778D01*
X143002000Y-106043195D01*
X144697416Y-104347778D01*
X144539671Y-104082887D01*
X147968416Y-104082887D01*
X148112676Y-104317800D01*
X149326600Y-104317800D01*
X149326600Y-102958583D01*
X149580600Y-102958583D01*
X149580600Y-104317800D01*
X149600600Y-104317800D01*
X149600600Y-104571800D01*
X149580600Y-104571800D01*
X149580600Y-105931017D01*
X149812626Y-106052158D01*
X149828391Y-106049509D01*
X150355636Y-105795532D01*
X150727139Y-105379731D01*
X150933930Y-105689215D01*
X151420111Y-106014071D01*
X151993600Y-106128145D01*
X152567089Y-106014071D01*
X153053270Y-105689215D01*
X153263600Y-105374434D01*
X153473930Y-105689215D01*
X153960111Y-106014071D01*
X154533600Y-106128145D01*
X155107089Y-106014071D01*
X155593270Y-105689215D01*
X155803600Y-105374434D01*
X156013930Y-105689215D01*
X156500111Y-106014071D01*
X157073600Y-106128145D01*
X157647089Y-106014071D01*
X158133270Y-105689215D01*
X158343600Y-105374434D01*
X158553930Y-105689215D01*
X159040111Y-106014071D01*
X159613600Y-106128145D01*
X160187089Y-106014071D01*
X160673270Y-105689215D01*
X160682843Y-105674887D01*
X160686838Y-105696117D01*
X160825910Y-105912241D01*
X161038110Y-106057231D01*
X161290000Y-106108240D01*
X163017200Y-106108240D01*
X163252517Y-106063962D01*
X163468641Y-105924890D01*
X163613631Y-105712690D01*
X163664640Y-105460800D01*
X163664640Y-103428800D01*
X163620362Y-103193483D01*
X163481290Y-102977359D01*
X163269090Y-102832369D01*
X163017200Y-102781360D01*
X161290000Y-102781360D01*
X161054683Y-102825638D01*
X160838559Y-102964710D01*
X160693569Y-103176910D01*
X160685200Y-103218239D01*
X160673270Y-103200385D01*
X160187089Y-102875529D01*
X159613600Y-102761455D01*
X159040111Y-102875529D01*
X158553930Y-103200385D01*
X158343600Y-103515166D01*
X158133270Y-103200385D01*
X157647089Y-102875529D01*
X157073600Y-102761455D01*
X156500111Y-102875529D01*
X156013930Y-103200385D01*
X155803600Y-103515166D01*
X155593270Y-103200385D01*
X155107089Y-102875529D01*
X154533600Y-102761455D01*
X153960111Y-102875529D01*
X153473930Y-103200385D01*
X153263600Y-103515166D01*
X153053270Y-103200385D01*
X152567089Y-102875529D01*
X151993600Y-102761455D01*
X151420111Y-102875529D01*
X150933930Y-103200385D01*
X150727139Y-103509869D01*
X150355636Y-103094068D01*
X149828391Y-102840091D01*
X149812626Y-102837442D01*
X149580600Y-102958583D01*
X149326600Y-102958583D01*
X149094574Y-102837442D01*
X149078809Y-102840091D01*
X148551564Y-103094068D01*
X148161646Y-103530480D01*
X147968416Y-104082887D01*
X144539671Y-104082887D01*
X144476647Y-103977057D01*
X143504988Y-103583681D01*
X142456753Y-103592087D01*
X141527353Y-103977057D01*
X141306584Y-104347778D01*
X139412253Y-104347778D01*
X139408267Y-102191567D01*
X139882438Y-102191567D01*
X140024483Y-102535343D01*
X140287273Y-102798592D01*
X140630801Y-102941238D01*
X141002767Y-102941562D01*
X141245178Y-102841400D01*
X143916400Y-102841400D01*
X143924848Y-102839720D01*
X144203167Y-102839962D01*
X144546943Y-102697917D01*
X144810192Y-102435127D01*
X144952838Y-102091599D01*
X144953162Y-101719633D01*
X144811117Y-101375857D01*
X144548327Y-101112608D01*
X144204799Y-100969962D01*
X143832833Y-100969638D01*
X143489057Y-101111683D01*
X143429236Y-101171400D01*
X141244834Y-101171400D01*
X141004399Y-101071562D01*
X140632433Y-101071238D01*
X140288657Y-101213283D01*
X140025408Y-101476073D01*
X139882762Y-101819601D01*
X139882438Y-102191567D01*
X139408267Y-102191567D01*
X139405920Y-100921567D01*
X149026438Y-100921567D01*
X149168483Y-101265343D01*
X149431273Y-101528592D01*
X149774801Y-101671238D01*
X150146767Y-101671562D01*
X150389178Y-101571400D01*
X159420132Y-101571400D01*
X159889465Y-102040733D01*
X159988883Y-102281343D01*
X160251673Y-102544592D01*
X160595201Y-102687238D01*
X160967167Y-102687562D01*
X161310943Y-102545517D01*
X161574192Y-102282727D01*
X161716838Y-101939199D01*
X161717162Y-101567233D01*
X161575117Y-101223457D01*
X161312327Y-100960208D01*
X161096931Y-100870767D01*
X167416038Y-100870767D01*
X167558083Y-101214543D01*
X167820873Y-101477792D01*
X167889364Y-101506232D01*
X170608265Y-104225133D01*
X170707683Y-104465743D01*
X170970473Y-104728992D01*
X171314001Y-104871638D01*
X171685967Y-104871962D01*
X172029743Y-104729917D01*
X172292992Y-104467127D01*
X172435638Y-104123599D01*
X172435962Y-103751633D01*
X172293917Y-103407857D01*
X172031127Y-103144608D01*
X171788890Y-103044022D01*
X169286326Y-100541458D01*
X169286362Y-100500433D01*
X169144317Y-100156657D01*
X168881527Y-99893408D01*
X168537999Y-99750762D01*
X168166033Y-99750438D01*
X167822257Y-99892483D01*
X167559008Y-100155273D01*
X167416362Y-100498801D01*
X167416038Y-100870767D01*
X161096931Y-100870767D01*
X161070090Y-100859622D01*
X160408051Y-100197583D01*
X160456592Y-100149127D01*
X160599238Y-99805599D01*
X160599562Y-99433633D01*
X160457517Y-99089857D01*
X160194727Y-98826608D01*
X159952490Y-98726022D01*
X159594433Y-98367965D01*
X159323541Y-98186961D01*
X159004000Y-98123400D01*
X155692269Y-98123400D01*
X155673400Y-98104532D01*
X155673400Y-96236034D01*
X155773238Y-95995599D01*
X155773562Y-95623633D01*
X155631517Y-95279857D01*
X155368727Y-95016608D01*
X155025199Y-94873962D01*
X154653233Y-94873638D01*
X154309457Y-95015683D01*
X154046208Y-95278473D01*
X153903562Y-95622001D01*
X153903238Y-95993967D01*
X154003400Y-96236378D01*
X154003400Y-98450400D01*
X154066961Y-98769941D01*
X154239635Y-99028366D01*
X154247966Y-99040834D01*
X154755965Y-99548834D01*
X154860677Y-99618800D01*
X155026859Y-99729839D01*
X155346400Y-99793400D01*
X158658132Y-99793400D01*
X158766132Y-99901400D01*
X150388834Y-99901400D01*
X150148399Y-99801562D01*
X149776433Y-99801238D01*
X149432657Y-99943283D01*
X149169408Y-100206073D01*
X149026762Y-100549601D01*
X149026438Y-100921567D01*
X139405920Y-100921567D01*
X139396569Y-95863026D01*
X142613842Y-95863026D01*
X142616491Y-95878791D01*
X142870468Y-96406036D01*
X143306880Y-96795954D01*
X143859287Y-96989184D01*
X144094200Y-96844924D01*
X144094200Y-95631000D01*
X144348200Y-95631000D01*
X144348200Y-96844924D01*
X144583113Y-96989184D01*
X145135520Y-96795954D01*
X145571932Y-96406036D01*
X145825909Y-95878791D01*
X145828558Y-95863026D01*
X145707417Y-95631000D01*
X144348200Y-95631000D01*
X144094200Y-95631000D01*
X142734983Y-95631000D01*
X142613842Y-95863026D01*
X139396569Y-95863026D01*
X139386515Y-90424000D01*
X142537855Y-90424000D01*
X142651929Y-90997489D01*
X142976785Y-91483670D01*
X143291566Y-91694000D01*
X142976785Y-91904330D01*
X142651929Y-92390511D01*
X142537855Y-92964000D01*
X142651929Y-93537489D01*
X142976785Y-94023670D01*
X143286269Y-94230461D01*
X142870468Y-94601964D01*
X142616491Y-95129209D01*
X142613842Y-95144974D01*
X142734983Y-95377000D01*
X144094200Y-95377000D01*
X144094200Y-95357000D01*
X144348200Y-95357000D01*
X144348200Y-95377000D01*
X145707417Y-95377000D01*
X145828558Y-95144974D01*
X145825909Y-95129209D01*
X145571932Y-94601964D01*
X145156131Y-94230461D01*
X145465615Y-94023670D01*
X145790471Y-93537489D01*
X145904545Y-92964000D01*
X145790471Y-92390511D01*
X145686407Y-92234767D01*
X159186438Y-92234767D01*
X159286600Y-92477178D01*
X159286600Y-95402400D01*
X159350161Y-95721941D01*
X159531166Y-95992834D01*
X159737066Y-96198734D01*
X159836483Y-96439343D01*
X160099273Y-96702592D01*
X160442801Y-96845238D01*
X160814767Y-96845562D01*
X161158543Y-96703517D01*
X161421792Y-96440727D01*
X161564438Y-96097199D01*
X161564762Y-95725233D01*
X161422717Y-95381457D01*
X161159927Y-95118208D01*
X160956600Y-95033779D01*
X160956600Y-93453967D01*
X164774438Y-93453967D01*
X164916483Y-93797743D01*
X165179273Y-94060992D01*
X165522801Y-94203638D01*
X165894767Y-94203962D01*
X166238543Y-94061917D01*
X166501792Y-93799127D01*
X166602378Y-93556890D01*
X166636468Y-93522800D01*
X172662255Y-93522800D01*
X172776329Y-94096289D01*
X173101185Y-94582470D01*
X173415966Y-94792800D01*
X173101185Y-95003130D01*
X172776329Y-95489311D01*
X172662255Y-96062800D01*
X172776329Y-96636289D01*
X173101185Y-97122470D01*
X173415966Y-97332800D01*
X173101185Y-97543130D01*
X172776329Y-98029311D01*
X172662255Y-98602800D01*
X172776329Y-99176289D01*
X173101185Y-99662470D01*
X173587366Y-99987326D01*
X174160855Y-100101400D01*
X174530345Y-100101400D01*
X175103834Y-99987326D01*
X175590015Y-99662470D01*
X175914871Y-99176289D01*
X176028945Y-98602800D01*
X175914871Y-98029311D01*
X175590015Y-97543130D01*
X175275234Y-97332800D01*
X175590015Y-97122470D01*
X175914871Y-96636289D01*
X176028945Y-96062800D01*
X175914871Y-95489311D01*
X175590015Y-95003130D01*
X175275234Y-94792800D01*
X175590015Y-94582470D01*
X175914871Y-94096289D01*
X176028945Y-93522800D01*
X175914871Y-92949311D01*
X175590015Y-92463130D01*
X175575687Y-92453557D01*
X175596917Y-92449562D01*
X175813041Y-92310490D01*
X175958031Y-92098290D01*
X176009040Y-91846400D01*
X176009040Y-90119200D01*
X175964762Y-89883883D01*
X175825690Y-89667759D01*
X175613490Y-89522769D01*
X175361600Y-89471760D01*
X173329600Y-89471760D01*
X173094283Y-89516038D01*
X172878159Y-89655110D01*
X172733169Y-89867310D01*
X172682160Y-90119200D01*
X172682160Y-91846400D01*
X172726438Y-92081717D01*
X172865510Y-92297841D01*
X173077710Y-92442831D01*
X173119039Y-92451200D01*
X173101185Y-92463130D01*
X172776329Y-92949311D01*
X172662255Y-93522800D01*
X166636468Y-93522800D01*
X170668834Y-89490434D01*
X170793044Y-89304539D01*
X170870592Y-89227127D01*
X171013238Y-88883599D01*
X171013562Y-88511633D01*
X170871517Y-88167857D01*
X170608727Y-87904608D01*
X170265199Y-87761962D01*
X169893233Y-87761638D01*
X169549457Y-87903683D01*
X169286208Y-88166473D01*
X169143562Y-88510001D01*
X169143436Y-88654096D01*
X165421267Y-92376265D01*
X165180657Y-92475683D01*
X164917408Y-92738473D01*
X164774762Y-93082001D01*
X164774438Y-93453967D01*
X160956600Y-93453967D01*
X160956600Y-92476834D01*
X161056438Y-92236399D01*
X161056762Y-91864433D01*
X160914717Y-91520657D01*
X160651927Y-91257408D01*
X160308399Y-91114762D01*
X159936433Y-91114438D01*
X159592657Y-91256483D01*
X159329408Y-91519273D01*
X159186762Y-91862801D01*
X159186438Y-92234767D01*
X145686407Y-92234767D01*
X145465615Y-91904330D01*
X145150834Y-91694000D01*
X145465615Y-91483670D01*
X145790471Y-90997489D01*
X145904545Y-90424000D01*
X145790471Y-89850511D01*
X145465615Y-89364330D01*
X145451287Y-89354757D01*
X145472517Y-89350762D01*
X145688641Y-89211690D01*
X145833631Y-88999490D01*
X145884640Y-88747600D01*
X145884640Y-87020400D01*
X145840362Y-86785083D01*
X145701290Y-86568959D01*
X145489090Y-86423969D01*
X145237200Y-86372960D01*
X143205200Y-86372960D01*
X142969883Y-86417238D01*
X142753759Y-86556310D01*
X142608769Y-86768510D01*
X142557760Y-87020400D01*
X142557760Y-88747600D01*
X142602038Y-88982917D01*
X142741110Y-89199041D01*
X142953310Y-89344031D01*
X142994639Y-89352400D01*
X142976785Y-89364330D01*
X142651929Y-89850511D01*
X142537855Y-90424000D01*
X139386515Y-90424000D01*
X139370035Y-81508600D01*
X149219415Y-81508600D01*
X148420142Y-81838853D01*
X148420142Y-81838853D01*
G37*
X148420142Y-81838853D02*
X147678258Y-82579443D01*
X147276258Y-83547567D01*
X147275343Y-84595834D01*
X147675653Y-85564658D01*
X148416243Y-86306542D01*
X149384367Y-86708542D01*
X150432634Y-86709457D01*
X151401458Y-86309147D01*
X152143342Y-85568557D01*
X152209747Y-85408634D01*
X175926543Y-85408634D01*
X176326853Y-86377458D01*
X177067443Y-87119342D01*
X178035567Y-87521342D01*
X179083834Y-87522257D01*
X180052658Y-87121947D01*
X180794542Y-86381357D01*
X181196542Y-85413233D01*
X181197457Y-84364966D01*
X180797147Y-83396142D01*
X180056557Y-82654258D01*
X179088433Y-82252258D01*
X178040166Y-82251343D01*
X177071342Y-82651653D01*
X176329458Y-83392243D01*
X175927458Y-84360367D01*
X175926543Y-85408634D01*
X152209747Y-85408634D01*
X152545342Y-84600433D01*
X152546257Y-83552166D01*
X152145947Y-82583342D01*
X151405357Y-81841458D01*
X150603746Y-81508600D01*
X181382200Y-81508600D01*
X181382200Y-108737400D01*
X143827569Y-108737400D01*
X144476647Y-108468543D01*
X144697416Y-108097822D01*
X143002000Y-106402405D01*
X141306584Y-108097822D01*
X141527353Y-108468543D01*
X142191444Y-108737400D01*
X139420366Y-108737400D01*
X139414789Y-105719812D01*
X140362881Y-105719812D01*
X140371287Y-106768047D01*
X140756257Y-107697447D01*
X141126978Y-107918216D01*
X142822395Y-106222800D01*
X143181605Y-106222800D01*
X144877022Y-107918216D01*
X145247743Y-107697447D01*
X145641119Y-106725788D01*
X145632713Y-105677553D01*
X145272000Y-104806713D01*
X147968416Y-104806713D01*
X148161646Y-105359120D01*
X148551564Y-105795532D01*
X149078809Y-106049509D01*
X149094574Y-106052158D01*
X149326600Y-105931017D01*
X149326600Y-104571800D01*
X148112676Y-104571800D01*
X147968416Y-104806713D01*
X145272000Y-104806713D01*
X145247743Y-104748153D01*
X144877022Y-104527384D01*
X143181605Y-106222800D01*
X142822395Y-106222800D01*
X141126978Y-104527384D01*
X140756257Y-104748153D01*
X140362881Y-105719812D01*
X139414789Y-105719812D01*
X139412253Y-104347778D01*
X141306584Y-104347778D01*
X143002000Y-106043195D01*
X144697416Y-104347778D01*
X144539671Y-104082887D01*
X147968416Y-104082887D01*
X148112676Y-104317800D01*
X149326600Y-104317800D01*
X149326600Y-102958583D01*
X149580600Y-102958583D01*
X149580600Y-104317800D01*
X149600600Y-104317800D01*
X149600600Y-104571800D01*
X149580600Y-104571800D01*
X149580600Y-105931017D01*
X149812626Y-106052158D01*
X149828391Y-106049509D01*
X150355636Y-105795532D01*
X150727139Y-105379731D01*
X150933930Y-105689215D01*
X151420111Y-106014071D01*
X151993600Y-106128145D01*
X152567089Y-106014071D01*
X153053270Y-105689215D01*
X153263600Y-105374434D01*
X153473930Y-105689215D01*
X153960111Y-106014071D01*
X154533600Y-106128145D01*
X155107089Y-106014071D01*
X155593270Y-105689215D01*
X155803600Y-105374434D01*
X156013930Y-105689215D01*
X156500111Y-106014071D01*
X157073600Y-106128145D01*
X157647089Y-106014071D01*
X158133270Y-105689215D01*
X158343600Y-105374434D01*
X158553930Y-105689215D01*
X159040111Y-106014071D01*
X159613600Y-106128145D01*
X160187089Y-106014071D01*
X160673270Y-105689215D01*
X160682843Y-105674887D01*
X160686838Y-105696117D01*
X160825910Y-105912241D01*
X161038110Y-106057231D01*
X161290000Y-106108240D01*
X163017200Y-106108240D01*
X163252517Y-106063962D01*
X163468641Y-105924890D01*
X163613631Y-105712690D01*
X163664640Y-105460800D01*
X163664640Y-103428800D01*
X163620362Y-103193483D01*
X163481290Y-102977359D01*
X163269090Y-102832369D01*
X163017200Y-102781360D01*
X161290000Y-102781360D01*
X161054683Y-102825638D01*
X160838559Y-102964710D01*
X160693569Y-103176910D01*
X160685200Y-103218239D01*
X160673270Y-103200385D01*
X160187089Y-102875529D01*
X159613600Y-102761455D01*
X159040111Y-102875529D01*
X158553930Y-103200385D01*
X158343600Y-103515166D01*
X158133270Y-103200385D01*
X157647089Y-102875529D01*
X157073600Y-102761455D01*
X156500111Y-102875529D01*
X156013930Y-103200385D01*
X155803600Y-103515166D01*
X155593270Y-103200385D01*
X155107089Y-102875529D01*
X154533600Y-102761455D01*
X153960111Y-102875529D01*
X153473930Y-103200385D01*
X153263600Y-103515166D01*
X153053270Y-103200385D01*
X152567089Y-102875529D01*
X151993600Y-102761455D01*
X151420111Y-102875529D01*
X150933930Y-103200385D01*
X150727139Y-103509869D01*
X150355636Y-103094068D01*
X149828391Y-102840091D01*
X149812626Y-102837442D01*
X149580600Y-102958583D01*
X149326600Y-102958583D01*
X149094574Y-102837442D01*
X149078809Y-102840091D01*
X148551564Y-103094068D01*
X148161646Y-103530480D01*
X147968416Y-104082887D01*
X144539671Y-104082887D01*
X144476647Y-103977057D01*
X143504988Y-103583681D01*
X142456753Y-103592087D01*
X141527353Y-103977057D01*
X141306584Y-104347778D01*
X139412253Y-104347778D01*
X139408267Y-102191567D01*
X139882438Y-102191567D01*
X140024483Y-102535343D01*
X140287273Y-102798592D01*
X140630801Y-102941238D01*
X141002767Y-102941562D01*
X141245178Y-102841400D01*
X143916400Y-102841400D01*
X143924848Y-102839720D01*
X144203167Y-102839962D01*
X144546943Y-102697917D01*
X144810192Y-102435127D01*
X144952838Y-102091599D01*
X144953162Y-101719633D01*
X144811117Y-101375857D01*
X144548327Y-101112608D01*
X144204799Y-100969962D01*
X143832833Y-100969638D01*
X143489057Y-101111683D01*
X143429236Y-101171400D01*
X141244834Y-101171400D01*
X141004399Y-101071562D01*
X140632433Y-101071238D01*
X140288657Y-101213283D01*
X140025408Y-101476073D01*
X139882762Y-101819601D01*
X139882438Y-102191567D01*
X139408267Y-102191567D01*
X139405920Y-100921567D01*
X149026438Y-100921567D01*
X149168483Y-101265343D01*
X149431273Y-101528592D01*
X149774801Y-101671238D01*
X150146767Y-101671562D01*
X150389178Y-101571400D01*
X159420132Y-101571400D01*
X159889465Y-102040733D01*
X159988883Y-102281343D01*
X160251673Y-102544592D01*
X160595201Y-102687238D01*
X160967167Y-102687562D01*
X161310943Y-102545517D01*
X161574192Y-102282727D01*
X161716838Y-101939199D01*
X161717162Y-101567233D01*
X161575117Y-101223457D01*
X161312327Y-100960208D01*
X161096931Y-100870767D01*
X167416038Y-100870767D01*
X167558083Y-101214543D01*
X167820873Y-101477792D01*
X167889364Y-101506232D01*
X170608265Y-104225133D01*
X170707683Y-104465743D01*
X170970473Y-104728992D01*
X171314001Y-104871638D01*
X171685967Y-104871962D01*
X172029743Y-104729917D01*
X172292992Y-104467127D01*
X172435638Y-104123599D01*
X172435962Y-103751633D01*
X172293917Y-103407857D01*
X172031127Y-103144608D01*
X171788890Y-103044022D01*
X169286326Y-100541458D01*
X169286362Y-100500433D01*
X169144317Y-100156657D01*
X168881527Y-99893408D01*
X168537999Y-99750762D01*
X168166033Y-99750438D01*
X167822257Y-99892483D01*
X167559008Y-100155273D01*
X167416362Y-100498801D01*
X167416038Y-100870767D01*
X161096931Y-100870767D01*
X161070090Y-100859622D01*
X160408051Y-100197583D01*
X160456592Y-100149127D01*
X160599238Y-99805599D01*
X160599562Y-99433633D01*
X160457517Y-99089857D01*
X160194727Y-98826608D01*
X159952490Y-98726022D01*
X159594433Y-98367965D01*
X159323541Y-98186961D01*
X159004000Y-98123400D01*
X155692269Y-98123400D01*
X155673400Y-98104532D01*
X155673400Y-96236034D01*
X155773238Y-95995599D01*
X155773562Y-95623633D01*
X155631517Y-95279857D01*
X155368727Y-95016608D01*
X155025199Y-94873962D01*
X154653233Y-94873638D01*
X154309457Y-95015683D01*
X154046208Y-95278473D01*
X153903562Y-95622001D01*
X153903238Y-95993967D01*
X154003400Y-96236378D01*
X154003400Y-98450400D01*
X154066961Y-98769941D01*
X154239635Y-99028366D01*
X154247966Y-99040834D01*
X154755965Y-99548834D01*
X154860677Y-99618800D01*
X155026859Y-99729839D01*
X155346400Y-99793400D01*
X158658132Y-99793400D01*
X158766132Y-99901400D01*
X150388834Y-99901400D01*
X150148399Y-99801562D01*
X149776433Y-99801238D01*
X149432657Y-99943283D01*
X149169408Y-100206073D01*
X149026762Y-100549601D01*
X149026438Y-100921567D01*
X139405920Y-100921567D01*
X139396569Y-95863026D01*
X142613842Y-95863026D01*
X142616491Y-95878791D01*
X142870468Y-96406036D01*
X143306880Y-96795954D01*
X143859287Y-96989184D01*
X144094200Y-96844924D01*
X144094200Y-95631000D01*
X144348200Y-95631000D01*
X144348200Y-96844924D01*
X144583113Y-96989184D01*
X145135520Y-96795954D01*
X145571932Y-96406036D01*
X145825909Y-95878791D01*
X145828558Y-95863026D01*
X145707417Y-95631000D01*
X144348200Y-95631000D01*
X144094200Y-95631000D01*
X142734983Y-95631000D01*
X142613842Y-95863026D01*
X139396569Y-95863026D01*
X139386515Y-90424000D01*
X142537855Y-90424000D01*
X142651929Y-90997489D01*
X142976785Y-91483670D01*
X143291566Y-91694000D01*
X142976785Y-91904330D01*
X142651929Y-92390511D01*
X142537855Y-92964000D01*
X142651929Y-93537489D01*
X142976785Y-94023670D01*
X143286269Y-94230461D01*
X142870468Y-94601964D01*
X142616491Y-95129209D01*
X142613842Y-95144974D01*
X142734983Y-95377000D01*
X144094200Y-95377000D01*
X144094200Y-95357000D01*
X144348200Y-95357000D01*
X144348200Y-95377000D01*
X145707417Y-95377000D01*
X145828558Y-95144974D01*
X145825909Y-95129209D01*
X145571932Y-94601964D01*
X145156131Y-94230461D01*
X145465615Y-94023670D01*
X145790471Y-93537489D01*
X145904545Y-92964000D01*
X145790471Y-92390511D01*
X145686407Y-92234767D01*
X159186438Y-92234767D01*
X159286600Y-92477178D01*
X159286600Y-95402400D01*
X159350161Y-95721941D01*
X159531166Y-95992834D01*
X159737066Y-96198734D01*
X159836483Y-96439343D01*
X160099273Y-96702592D01*
X160442801Y-96845238D01*
X160814767Y-96845562D01*
X161158543Y-96703517D01*
X161421792Y-96440727D01*
X161564438Y-96097199D01*
X161564762Y-95725233D01*
X161422717Y-95381457D01*
X161159927Y-95118208D01*
X160956600Y-95033779D01*
X160956600Y-93453967D01*
X164774438Y-93453967D01*
X164916483Y-93797743D01*
X165179273Y-94060992D01*
X165522801Y-94203638D01*
X165894767Y-94203962D01*
X166238543Y-94061917D01*
X166501792Y-93799127D01*
X166602378Y-93556890D01*
X166636468Y-93522800D01*
X172662255Y-93522800D01*
X172776329Y-94096289D01*
X173101185Y-94582470D01*
X173415966Y-94792800D01*
X173101185Y-95003130D01*
X172776329Y-95489311D01*
X172662255Y-96062800D01*
X172776329Y-96636289D01*
X173101185Y-97122470D01*
X173415966Y-97332800D01*
X173101185Y-97543130D01*
X172776329Y-98029311D01*
X172662255Y-98602800D01*
X172776329Y-99176289D01*
X173101185Y-99662470D01*
X173587366Y-99987326D01*
X174160855Y-100101400D01*
X174530345Y-100101400D01*
X175103834Y-99987326D01*
X175590015Y-99662470D01*
X175914871Y-99176289D01*
X176028945Y-98602800D01*
X175914871Y-98029311D01*
X175590015Y-97543130D01*
X175275234Y-97332800D01*
X175590015Y-97122470D01*
X175914871Y-96636289D01*
X176028945Y-96062800D01*
X175914871Y-95489311D01*
X175590015Y-95003130D01*
X175275234Y-94792800D01*
X175590015Y-94582470D01*
X175914871Y-94096289D01*
X176028945Y-93522800D01*
X175914871Y-92949311D01*
X175590015Y-92463130D01*
X175575687Y-92453557D01*
X175596917Y-92449562D01*
X175813041Y-92310490D01*
X175958031Y-92098290D01*
X176009040Y-91846400D01*
X176009040Y-90119200D01*
X175964762Y-89883883D01*
X175825690Y-89667759D01*
X175613490Y-89522769D01*
X175361600Y-89471760D01*
X173329600Y-89471760D01*
X173094283Y-89516038D01*
X172878159Y-89655110D01*
X172733169Y-89867310D01*
X172682160Y-90119200D01*
X172682160Y-91846400D01*
X172726438Y-92081717D01*
X172865510Y-92297841D01*
X173077710Y-92442831D01*
X173119039Y-92451200D01*
X173101185Y-92463130D01*
X172776329Y-92949311D01*
X172662255Y-93522800D01*
X166636468Y-93522800D01*
X170668834Y-89490434D01*
X170793044Y-89304539D01*
X170870592Y-89227127D01*
X171013238Y-88883599D01*
X171013562Y-88511633D01*
X170871517Y-88167857D01*
X170608727Y-87904608D01*
X170265199Y-87761962D01*
X169893233Y-87761638D01*
X169549457Y-87903683D01*
X169286208Y-88166473D01*
X169143562Y-88510001D01*
X169143436Y-88654096D01*
X165421267Y-92376265D01*
X165180657Y-92475683D01*
X164917408Y-92738473D01*
X164774762Y-93082001D01*
X164774438Y-93453967D01*
X160956600Y-93453967D01*
X160956600Y-92476834D01*
X161056438Y-92236399D01*
X161056762Y-91864433D01*
X160914717Y-91520657D01*
X160651927Y-91257408D01*
X160308399Y-91114762D01*
X159936433Y-91114438D01*
X159592657Y-91256483D01*
X159329408Y-91519273D01*
X159186762Y-91862801D01*
X159186438Y-92234767D01*
X145686407Y-92234767D01*
X145465615Y-91904330D01*
X145150834Y-91694000D01*
X145465615Y-91483670D01*
X145790471Y-90997489D01*
X145904545Y-90424000D01*
X145790471Y-89850511D01*
X145465615Y-89364330D01*
X145451287Y-89354757D01*
X145472517Y-89350762D01*
X145688641Y-89211690D01*
X145833631Y-88999490D01*
X145884640Y-88747600D01*
X145884640Y-87020400D01*
X145840362Y-86785083D01*
X145701290Y-86568959D01*
X145489090Y-86423969D01*
X145237200Y-86372960D01*
X143205200Y-86372960D01*
X142969883Y-86417238D01*
X142753759Y-86556310D01*
X142608769Y-86768510D01*
X142557760Y-87020400D01*
X142557760Y-88747600D01*
X142602038Y-88982917D01*
X142741110Y-89199041D01*
X142953310Y-89344031D01*
X142994639Y-89352400D01*
X142976785Y-89364330D01*
X142651929Y-89850511D01*
X142537855Y-90424000D01*
X139386515Y-90424000D01*
X139370035Y-81508600D01*
X149219415Y-81508600D01*
X148420142Y-81838853D01*
G36*
X220446600Y-169087800D02*
X146698441Y-169087800D01*
X147436174Y-168351353D01*
X147914454Y-167199526D01*
X147915543Y-165952346D01*
X147439273Y-164799685D01*
X146558153Y-163917026D01*
X145406326Y-163438746D01*
X144159146Y-163437657D01*
X143006485Y-163913927D01*
X142123826Y-164795047D01*
X141645546Y-165946874D01*
X141644457Y-167194054D01*
X142120727Y-168346715D01*
X142860520Y-169087800D01*
X140995400Y-169087800D01*
X140995400Y-153521026D01*
X144188642Y-153521026D01*
X144191291Y-153536791D01*
X144445268Y-154064036D01*
X144881680Y-154453954D01*
X145434087Y-154647184D01*
X145669000Y-154502924D01*
X145669000Y-153289000D01*
X145923000Y-153289000D01*
X145923000Y-154502924D01*
X146157913Y-154647184D01*
X146710320Y-154453954D01*
X147146732Y-154064036D01*
X147400709Y-153536791D01*
X147403358Y-153521026D01*
X147282217Y-153289000D01*
X145923000Y-153289000D01*
X145669000Y-153289000D01*
X144309783Y-153289000D01*
X144188642Y-153521026D01*
X140995400Y-153521026D01*
X140995400Y-148082000D01*
X144112655Y-148082000D01*
X144226729Y-148655489D01*
X144551585Y-149141670D01*
X144866366Y-149352000D01*
X144551585Y-149562330D01*
X144226729Y-150048511D01*
X144112655Y-150622000D01*
X144226729Y-151195489D01*
X144551585Y-151681670D01*
X144861069Y-151888461D01*
X144445268Y-152259964D01*
X144191291Y-152787209D01*
X144188642Y-152802974D01*
X144309783Y-153035000D01*
X145669000Y-153035000D01*
X145669000Y-153015000D01*
X145923000Y-153015000D01*
X145923000Y-153035000D01*
X147282217Y-153035000D01*
X147403358Y-152802974D01*
X147400709Y-152787209D01*
X147146732Y-152259964D01*
X146730931Y-151888461D01*
X147040415Y-151681670D01*
X147240648Y-151382000D01*
X165303200Y-151382000D01*
X165594039Y-151324148D01*
X165840601Y-151159401D01*
X167017680Y-149982322D01*
X167052445Y-149982353D01*
X157428779Y-159606019D01*
X156921200Y-159505055D01*
X156347711Y-159619129D01*
X155861530Y-159943985D01*
X155851957Y-159958313D01*
X155847962Y-159937083D01*
X155708890Y-159720959D01*
X155496690Y-159575969D01*
X155244800Y-159524960D01*
X153517600Y-159524960D01*
X153282283Y-159569238D01*
X153066159Y-159708310D01*
X152921169Y-159920510D01*
X152870160Y-160172400D01*
X152870160Y-162204400D01*
X152914438Y-162439717D01*
X153053510Y-162655841D01*
X153265710Y-162800831D01*
X153517600Y-162851840D01*
X155244800Y-162851840D01*
X155480117Y-162807562D01*
X155696241Y-162668490D01*
X155841231Y-162456290D01*
X155849600Y-162414961D01*
X155861530Y-162432815D01*
X156347711Y-162757671D01*
X156921200Y-162871745D01*
X157494689Y-162757671D01*
X157980870Y-162432815D01*
X158191200Y-162118034D01*
X158401530Y-162432815D01*
X158887711Y-162757671D01*
X159461200Y-162871745D01*
X160034689Y-162757671D01*
X160520870Y-162432815D01*
X160727661Y-162123331D01*
X161099164Y-162539132D01*
X161626409Y-162793109D01*
X161642174Y-162795758D01*
X161874200Y-162674617D01*
X161874200Y-161315400D01*
X162128200Y-161315400D01*
X162128200Y-162674617D01*
X162360226Y-162795758D01*
X162375991Y-162793109D01*
X162903236Y-162539132D01*
X163293154Y-162102720D01*
X163486384Y-161550313D01*
X163342124Y-161315400D01*
X162128200Y-161315400D01*
X161874200Y-161315400D01*
X161854200Y-161315400D01*
X161854200Y-161061400D01*
X161874200Y-161061400D01*
X161874200Y-161041400D01*
X162128200Y-161041400D01*
X162128200Y-161061400D01*
X163342124Y-161061400D01*
X163486384Y-160826487D01*
X163293154Y-160274080D01*
X162903236Y-159837668D01*
X162375991Y-159583691D01*
X162360226Y-159581042D01*
X162128202Y-159702182D01*
X162128202Y-159596200D01*
X169064400Y-152660002D01*
X169064400Y-155641198D01*
X166687520Y-158018078D01*
X166642033Y-158018038D01*
X166298257Y-158160083D01*
X166035008Y-158422873D01*
X165892362Y-158766401D01*
X165892038Y-159138367D01*
X166034083Y-159482143D01*
X166296873Y-159745392D01*
X166640401Y-159888038D01*
X167012367Y-159888362D01*
X167356143Y-159746317D01*
X167619392Y-159483527D01*
X167762038Y-159139999D01*
X167762079Y-159093123D01*
X169877200Y-156978002D01*
X169877200Y-157927198D01*
X169633920Y-158170478D01*
X169588433Y-158170438D01*
X169244657Y-158312483D01*
X168981408Y-158575273D01*
X168838762Y-158918801D01*
X168838438Y-159290767D01*
X168980483Y-159634543D01*
X169243273Y-159897792D01*
X169586801Y-160040438D01*
X169958767Y-160040762D01*
X170302543Y-159898717D01*
X170565792Y-159635927D01*
X170708438Y-159292399D01*
X170708479Y-159245523D01*
X171174601Y-158779401D01*
X171339348Y-158532839D01*
X171397200Y-158242000D01*
X171397200Y-156210000D01*
X174224999Y-156210000D01*
X174303785Y-156606077D01*
X174479000Y-156868306D01*
X174479000Y-162763195D01*
X174478999Y-162763200D01*
X174557785Y-163159277D01*
X174782144Y-163495056D01*
X179049342Y-167762253D01*
X179049344Y-167762256D01*
X179353130Y-167965238D01*
X179385123Y-167986615D01*
X179781200Y-168065401D01*
X179781205Y-168065400D01*
X194818000Y-168065400D01*
X195214077Y-167986615D01*
X195549856Y-167762256D01*
X195774215Y-167426477D01*
X195853000Y-167030400D01*
X195815843Y-166843601D01*
X195774215Y-166634322D01*
X195684349Y-166499829D01*
X195549856Y-166298544D01*
X195549853Y-166298542D01*
X195497400Y-166246089D01*
X195497400Y-158728250D01*
X195571015Y-158618078D01*
X195649800Y-158222000D01*
X195649800Y-157937200D01*
X195571015Y-157541123D01*
X195346656Y-157205344D01*
X195010877Y-156980985D01*
X194614800Y-156902200D01*
X194218723Y-156980985D01*
X194066813Y-157082488D01*
X194066323Y-157082585D01*
X193730544Y-157306944D01*
X193506185Y-157642723D01*
X193427400Y-158038800D01*
X193427400Y-165995400D01*
X180209911Y-165995400D01*
X176549000Y-162334488D01*
X176549000Y-156464005D01*
X176549001Y-156464000D01*
X176470215Y-156067922D01*
X176380349Y-155933429D01*
X176245856Y-155732144D01*
X176245853Y-155732142D01*
X175991856Y-155478144D01*
X175656077Y-155253785D01*
X175260000Y-155174999D01*
X174863923Y-155253785D01*
X174528144Y-155478144D01*
X174303785Y-155813923D01*
X174224999Y-156210000D01*
X171397200Y-156210000D01*
X171397200Y-146561426D01*
X187419442Y-146561426D01*
X187422091Y-146577191D01*
X187676068Y-147104436D01*
X188112480Y-147494354D01*
X188664887Y-147687584D01*
X188899800Y-147543324D01*
X188899800Y-146329400D01*
X189153800Y-146329400D01*
X189153800Y-147543324D01*
X189388713Y-147687584D01*
X189941120Y-147494354D01*
X190377532Y-147104436D01*
X190631509Y-146577191D01*
X190634158Y-146561426D01*
X190513017Y-146329400D01*
X189153800Y-146329400D01*
X188899800Y-146329400D01*
X187540583Y-146329400D01*
X187419442Y-146561426D01*
X171397200Y-146561426D01*
X171397200Y-145288000D01*
X171339348Y-144997161D01*
X171339348Y-144997160D01*
X171174601Y-144750599D01*
X170846402Y-144422400D01*
X187582152Y-144422400D01*
X187782385Y-144722070D01*
X188091869Y-144928861D01*
X187676068Y-145300364D01*
X187422091Y-145827609D01*
X187419442Y-145843374D01*
X187540583Y-146075400D01*
X188899800Y-146075400D01*
X188899800Y-146055400D01*
X189153800Y-146055400D01*
X189153800Y-146075400D01*
X190513017Y-146075400D01*
X190634158Y-145843374D01*
X190631509Y-145827609D01*
X190377532Y-145300364D01*
X189961731Y-144928861D01*
X190271215Y-144722070D01*
X190596071Y-144235889D01*
X190710145Y-143662400D01*
X190596071Y-143088911D01*
X190271215Y-142602730D01*
X189956434Y-142392400D01*
X190271215Y-142182070D01*
X190596071Y-141695889D01*
X190710145Y-141122400D01*
X190596071Y-140548911D01*
X190271215Y-140062730D01*
X189956434Y-139852400D01*
X190271215Y-139642070D01*
X190596071Y-139155889D01*
X190710145Y-138582400D01*
X190596071Y-138008911D01*
X190271215Y-137522730D01*
X189956434Y-137312400D01*
X190271215Y-137102070D01*
X190596071Y-136615889D01*
X190710145Y-136042400D01*
X190596071Y-135468911D01*
X190271215Y-134982730D01*
X190256887Y-134973157D01*
X190278117Y-134969162D01*
X190494241Y-134830090D01*
X190639231Y-134617890D01*
X190690240Y-134366000D01*
X190690240Y-132638800D01*
X190645962Y-132403483D01*
X190506890Y-132187359D01*
X190294690Y-132042369D01*
X190042800Y-131991360D01*
X188010800Y-131991360D01*
X187775483Y-132035638D01*
X187559359Y-132174710D01*
X187414369Y-132386910D01*
X187363360Y-132638800D01*
X187363360Y-134366000D01*
X187407638Y-134601317D01*
X187546710Y-134817441D01*
X187758910Y-134962431D01*
X187800239Y-134970800D01*
X187782385Y-134982730D01*
X187457529Y-135468911D01*
X187343455Y-136042400D01*
X187444419Y-136549979D01*
X183835198Y-140159200D01*
X172215663Y-140159200D01*
X172183527Y-140127008D01*
X171839999Y-139984362D01*
X171468033Y-139984038D01*
X171124257Y-140126083D01*
X170861008Y-140388873D01*
X170718362Y-140732401D01*
X170718315Y-140786854D01*
X170620799Y-140746362D01*
X170248833Y-140746038D01*
X169905057Y-140888083D01*
X169641808Y-141150873D01*
X169499162Y-141494401D01*
X169498838Y-141866367D01*
X169640883Y-142210143D01*
X169802148Y-142371690D01*
X169702362Y-142612001D01*
X169702318Y-142662542D01*
X169447857Y-142767683D01*
X169319659Y-142895657D01*
X165809200Y-139385198D01*
X165809200Y-138998802D01*
X167243744Y-137564258D01*
X167253283Y-137587343D01*
X167516073Y-137850592D01*
X167859601Y-137993238D01*
X168231567Y-137993562D01*
X168575343Y-137851517D01*
X168608518Y-137818400D01*
X168960800Y-137818400D01*
X169251639Y-137760548D01*
X169498201Y-137595801D01*
X171742080Y-135351922D01*
X171787567Y-135351962D01*
X172131343Y-135209917D01*
X172394592Y-134947127D01*
X172537238Y-134603599D01*
X172537562Y-134231633D01*
X172395517Y-133887857D01*
X172132727Y-133624608D01*
X171789199Y-133481962D01*
X171417233Y-133481638D01*
X171262380Y-133545622D01*
X174019401Y-130788601D01*
X174184148Y-130542039D01*
X174242000Y-130251200D01*
X174242000Y-130203886D01*
X174375792Y-130070327D01*
X174518438Y-129726799D01*
X174518762Y-129354833D01*
X174510485Y-129334800D01*
X178860798Y-129334800D01*
X172326320Y-135869278D01*
X172280833Y-135869238D01*
X171937057Y-136011283D01*
X171673808Y-136274073D01*
X171531162Y-136617601D01*
X171530838Y-136989567D01*
X171672883Y-137333343D01*
X171935673Y-137596592D01*
X172279201Y-137739238D01*
X172651167Y-137739562D01*
X172994943Y-137597517D01*
X173258192Y-137334727D01*
X173400838Y-136991199D01*
X173400879Y-136944323D01*
X179858035Y-130487167D01*
X183976838Y-130487167D01*
X184118883Y-130830943D01*
X184381673Y-131094192D01*
X184725201Y-131236838D01*
X185012188Y-131237088D01*
X185033283Y-131288143D01*
X185296073Y-131551392D01*
X185639601Y-131694038D01*
X186011567Y-131694362D01*
X186355343Y-131552317D01*
X186388518Y-131519200D01*
X201161998Y-131519200D01*
X194616533Y-138064665D01*
X194219400Y-138228757D01*
X193815376Y-138632077D01*
X193596450Y-139159309D01*
X193595952Y-139730187D01*
X193813957Y-140257800D01*
X194217277Y-140661824D01*
X194347415Y-140715862D01*
X194219400Y-140768757D01*
X193815376Y-141172077D01*
X193596450Y-141699309D01*
X193595952Y-142270187D01*
X193813957Y-142797800D01*
X194217277Y-143201824D01*
X194347415Y-143255862D01*
X194219400Y-143308757D01*
X193815376Y-143712077D01*
X193792985Y-143766000D01*
X193751200Y-143766000D01*
X193460361Y-143823852D01*
X193213799Y-143988599D01*
X191435799Y-145766599D01*
X191271052Y-146013161D01*
X191213200Y-146304000D01*
X191213200Y-152298400D01*
X191271052Y-152589239D01*
X191435799Y-152835801D01*
X193467799Y-154867801D01*
X193714361Y-155032548D01*
X194005200Y-155090400D01*
X216916000Y-155090400D01*
X217206839Y-155032548D01*
X217453401Y-154867801D01*
X219333001Y-152988201D01*
X219497748Y-152741639D01*
X219555600Y-152450800D01*
X219555600Y-115976400D01*
X219497748Y-115685561D01*
X219333001Y-115438999D01*
X219086439Y-115274252D01*
X218795600Y-115216400D01*
X200914000Y-115216400D01*
X200623161Y-115274252D01*
X200376599Y-115438999D01*
X196964320Y-118851278D01*
X196918833Y-118851238D01*
X196575057Y-118993283D01*
X196311808Y-119256073D01*
X196169162Y-119599601D01*
X196168838Y-119971567D01*
X196310883Y-120315343D01*
X196573673Y-120578592D01*
X196917201Y-120721238D01*
X197289167Y-120721562D01*
X197632943Y-120579517D01*
X197896192Y-120316727D01*
X198038838Y-119973199D01*
X198038879Y-119926323D01*
X198991374Y-118973828D01*
X199104883Y-119248543D01*
X199367673Y-119511792D01*
X199711201Y-119654438D01*
X200083167Y-119654762D01*
X200426943Y-119512717D01*
X200690192Y-119249927D01*
X200832838Y-118906399D01*
X200832879Y-118859523D01*
X202143202Y-117549200D01*
X215077198Y-117549200D01*
X216714800Y-119186802D01*
X216714800Y-121189534D01*
X216693117Y-121137057D01*
X216430327Y-120873808D01*
X216086799Y-120731162D01*
X216039923Y-120731121D01*
X214049801Y-118740999D01*
X213803239Y-118576252D01*
X213512400Y-118518400D01*
X204321263Y-118518400D01*
X204289127Y-118486208D01*
X203945599Y-118343562D01*
X203573633Y-118343238D01*
X203229857Y-118485283D01*
X202966608Y-118748073D01*
X202823962Y-119091601D01*
X202823638Y-119463567D01*
X202965683Y-119807343D01*
X203228473Y-120070592D01*
X203572001Y-120213238D01*
X203943967Y-120213562D01*
X204287743Y-120071517D01*
X204320918Y-120038400D01*
X213197598Y-120038400D01*
X214964878Y-121805680D01*
X214964838Y-121851167D01*
X215106883Y-122194943D01*
X215369673Y-122458192D01*
X215713201Y-122600838D01*
X216085167Y-122601162D01*
X216428943Y-122459117D01*
X216692192Y-122196327D01*
X216714800Y-122141881D01*
X216714800Y-150713598D01*
X215229598Y-152198800D01*
X194929602Y-152198800D01*
X194054000Y-151323198D01*
X194054000Y-149118002D01*
X194692746Y-148479256D01*
X194744509Y-148500750D01*
X195315387Y-148501248D01*
X195843000Y-148283243D01*
X196247024Y-147879923D01*
X196465950Y-147352691D01*
X196466448Y-146781813D01*
X196248443Y-146254200D01*
X195845123Y-145850176D01*
X195714985Y-145796138D01*
X195843000Y-145743243D01*
X196247024Y-145339923D01*
X196465950Y-144812691D01*
X196466448Y-144241813D01*
X196248443Y-143714200D01*
X195845123Y-143310176D01*
X195714985Y-143256138D01*
X195843000Y-143203243D01*
X196247024Y-142799923D01*
X196465950Y-142272691D01*
X196466448Y-141701813D01*
X196444151Y-141647851D01*
X198361815Y-139730187D01*
X201195952Y-139730187D01*
X201413957Y-140257800D01*
X201817277Y-140661824D01*
X201947415Y-140715862D01*
X201819400Y-140768757D01*
X201415376Y-141172077D01*
X201196450Y-141699309D01*
X201195952Y-142270187D01*
X201413957Y-142797800D01*
X201817277Y-143201824D01*
X201947415Y-143255862D01*
X201819400Y-143308757D01*
X201415376Y-143712077D01*
X201196450Y-144239309D01*
X201195952Y-144810187D01*
X201413957Y-145337800D01*
X201817277Y-145741824D01*
X201947415Y-145795862D01*
X201819400Y-145848757D01*
X201415376Y-146252077D01*
X201196450Y-146779309D01*
X201195952Y-147350187D01*
X201413957Y-147877800D01*
X201817277Y-148281824D01*
X202344509Y-148500750D01*
X202915387Y-148501248D01*
X203443000Y-148283243D01*
X203847024Y-147879923D01*
X204065950Y-147352691D01*
X204066448Y-146781813D01*
X203848443Y-146254200D01*
X203445123Y-145850176D01*
X203314985Y-145796138D01*
X203443000Y-145743243D01*
X203847024Y-145339923D01*
X204065950Y-144812691D01*
X204066448Y-144241813D01*
X203848443Y-143714200D01*
X203445123Y-143310176D01*
X203314985Y-143256138D01*
X203443000Y-143203243D01*
X203836875Y-142810054D01*
X210326057Y-142810054D01*
X210802327Y-143962715D01*
X211683447Y-144845374D01*
X212835274Y-145323654D01*
X214082454Y-145324743D01*
X215235115Y-144848473D01*
X216117774Y-143967353D01*
X216596054Y-142815526D01*
X216597143Y-141568346D01*
X216120873Y-140415685D01*
X215239753Y-139533026D01*
X214087926Y-139054746D01*
X212840746Y-139053657D01*
X211688085Y-139529927D01*
X210805426Y-140411047D01*
X210327146Y-141562874D01*
X210326057Y-142810054D01*
X203836875Y-142810054D01*
X203847024Y-142799923D01*
X204065950Y-142272691D01*
X204066448Y-141701813D01*
X203848443Y-141174200D01*
X203445123Y-140770176D01*
X203314985Y-140716138D01*
X203443000Y-140663243D01*
X203847024Y-140259923D01*
X204065950Y-139732691D01*
X204066448Y-139161813D01*
X203848443Y-138634200D01*
X203445123Y-138230176D01*
X202917891Y-138011250D01*
X202347013Y-138010752D01*
X201819400Y-138228757D01*
X201415376Y-138632077D01*
X201196450Y-139159309D01*
X201195952Y-139730187D01*
X198361815Y-139730187D01*
X206175801Y-131916201D01*
X206340548Y-131669639D01*
X206398400Y-131378800D01*
X206398400Y-126140063D01*
X206430592Y-126107927D01*
X206573238Y-125764399D01*
X206573562Y-125392433D01*
X206431517Y-125048657D01*
X206168727Y-124785408D01*
X205825199Y-124642762D01*
X205687200Y-124642642D01*
X205687200Y-123098402D01*
X206743280Y-122042322D01*
X206788767Y-122042362D01*
X207132543Y-121900317D01*
X207395792Y-121637527D01*
X207538438Y-121293999D01*
X207538762Y-120922033D01*
X207396717Y-120578257D01*
X207133927Y-120315008D01*
X206790399Y-120172362D01*
X206418433Y-120172038D01*
X206074657Y-120314083D01*
X205811408Y-120576873D01*
X205668762Y-120920401D01*
X205668721Y-120967277D01*
X204389799Y-122246199D01*
X204225052Y-122492761D01*
X204167200Y-122783600D01*
X204167200Y-128513998D01*
X203748656Y-128932542D01*
X203739117Y-128909457D01*
X203476327Y-128646208D01*
X203277645Y-128563708D01*
X203322038Y-128456799D01*
X203322362Y-128084833D01*
X203180317Y-127741057D01*
X202917527Y-127477808D01*
X202573999Y-127335162D01*
X202202033Y-127334838D01*
X201858257Y-127476883D01*
X201595008Y-127739673D01*
X201452362Y-128083201D01*
X201452321Y-128130077D01*
X200548398Y-129034000D01*
X185420000Y-129034000D01*
X185129161Y-129091852D01*
X185017641Y-129166367D01*
X184882599Y-129256599D01*
X184772320Y-129366878D01*
X184726833Y-129366838D01*
X184383057Y-129508883D01*
X184119808Y-129771673D01*
X183977162Y-130115201D01*
X183976838Y-130487167D01*
X179858035Y-130487167D01*
X181233001Y-129112201D01*
X181397748Y-128865639D01*
X181455600Y-128574800D01*
X181455600Y-127152400D01*
X181397748Y-126861561D01*
X181397748Y-126861560D01*
X181233001Y-126614999D01*
X178693001Y-124074999D01*
X178446439Y-123910252D01*
X178155600Y-123852400D01*
X171047263Y-123852400D01*
X171015127Y-123820208D01*
X170671599Y-123677562D01*
X170299633Y-123677238D01*
X169955857Y-123819283D01*
X169692608Y-124082073D01*
X169549962Y-124425601D01*
X169549638Y-124797567D01*
X169691683Y-125141343D01*
X169954473Y-125404592D01*
X170298001Y-125547238D01*
X170669967Y-125547562D01*
X171013743Y-125405517D01*
X171046918Y-125372400D01*
X177840798Y-125372400D01*
X179935600Y-127467202D01*
X179935600Y-127774167D01*
X179612399Y-127639962D01*
X179240433Y-127639638D01*
X178896657Y-127781683D01*
X178863482Y-127814800D01*
X168503600Y-127814800D01*
X168212761Y-127872652D01*
X167966199Y-128037399D01*
X166128720Y-129874878D01*
X166083233Y-129874838D01*
X165739457Y-130016883D01*
X165476208Y-130279673D01*
X165333562Y-130623201D01*
X165333238Y-130995167D01*
X165475283Y-131338943D01*
X165738073Y-131602192D01*
X166081601Y-131744838D01*
X166453567Y-131745162D01*
X166797343Y-131603117D01*
X167060592Y-131340327D01*
X167203238Y-130996799D01*
X167203279Y-130949923D01*
X168818402Y-129334800D01*
X171755489Y-129334800D01*
X171521408Y-129568473D01*
X171378762Y-129912001D01*
X171378721Y-129958877D01*
X163241799Y-138095799D01*
X163077052Y-138342361D01*
X163019200Y-138633200D01*
X163019200Y-140067089D01*
X158311800Y-135359688D01*
X158311800Y-134121035D01*
X158461601Y-134183238D01*
X158508477Y-134183279D01*
X160447799Y-136122601D01*
X160694360Y-136287348D01*
X160985200Y-136345200D01*
X161235537Y-136345200D01*
X161267673Y-136377392D01*
X161611201Y-136520038D01*
X161983167Y-136520362D01*
X162326943Y-136378317D01*
X162590192Y-136115527D01*
X162732838Y-135771999D01*
X162733162Y-135400033D01*
X162591117Y-135056257D01*
X162328327Y-134793008D01*
X161984799Y-134650362D01*
X161612833Y-134650038D01*
X161269057Y-134792083D01*
X161267970Y-134793168D01*
X159583522Y-133108720D01*
X159583562Y-133063233D01*
X159441517Y-132719457D01*
X159178727Y-132456208D01*
X158835199Y-132313562D01*
X158463233Y-132313238D01*
X158311800Y-132375809D01*
X158311800Y-131013200D01*
X158233015Y-130617123D01*
X158008656Y-130281344D01*
X157672877Y-130056985D01*
X157276800Y-129978200D01*
X156880723Y-130056985D01*
X156544944Y-130281344D01*
X156320585Y-130617123D01*
X156241800Y-131013200D01*
X156241800Y-135788395D01*
X156241799Y-135788400D01*
X156320585Y-136184477D01*
X156544944Y-136520256D01*
X163961744Y-143937055D01*
X164297523Y-144161415D01*
X164693600Y-144240201D01*
X165089677Y-144161415D01*
X165425455Y-143937055D01*
X165649815Y-143601277D01*
X165728601Y-143205200D01*
X165710078Y-143112080D01*
X168454942Y-145856944D01*
X168431857Y-145866483D01*
X168427623Y-145870710D01*
X168424327Y-145867408D01*
X168080799Y-145724762D01*
X167708833Y-145724438D01*
X167365057Y-145866483D01*
X167101808Y-146129273D01*
X166959162Y-146472801D01*
X166958838Y-146844767D01*
X167083755Y-147147090D01*
X166794433Y-147146838D01*
X166450657Y-147288883D01*
X166417482Y-147322000D01*
X147240648Y-147322000D01*
X147040415Y-147022330D01*
X147026087Y-147012757D01*
X147047317Y-147008762D01*
X147263441Y-146869690D01*
X147408431Y-146657490D01*
X147459440Y-146405600D01*
X147459440Y-144678400D01*
X147415162Y-144443083D01*
X147276090Y-144226959D01*
X147063890Y-144081969D01*
X146812000Y-144030960D01*
X144780000Y-144030960D01*
X144544683Y-144075238D01*
X144328559Y-144214310D01*
X144183569Y-144426510D01*
X144132560Y-144678400D01*
X144132560Y-146405600D01*
X144176838Y-146640917D01*
X144315910Y-146857041D01*
X144528110Y-147002031D01*
X144569439Y-147010400D01*
X144551585Y-147022330D01*
X144226729Y-147508511D01*
X144112655Y-148082000D01*
X140995400Y-148082000D01*
X140995400Y-133625874D01*
X142742881Y-133625874D01*
X142944632Y-134036763D01*
X143285322Y-134324002D01*
X143710000Y-134459000D01*
X143985000Y-134459000D01*
X143985000Y-133451000D01*
X144239000Y-133451000D01*
X144239000Y-134459000D01*
X144514000Y-134459000D01*
X144938678Y-134324002D01*
X145279368Y-134036763D01*
X145481119Y-133625874D01*
X145354954Y-133451000D01*
X144239000Y-133451000D01*
X143985000Y-133451000D01*
X142869046Y-133451000D01*
X142742881Y-133625874D01*
X140995400Y-133625874D01*
X140995400Y-133022126D01*
X142742881Y-133022126D01*
X142869046Y-133197000D01*
X143985000Y-133197000D01*
X143985000Y-132189000D01*
X144239000Y-132189000D01*
X144239000Y-133197000D01*
X145354954Y-133197000D01*
X145481119Y-133022126D01*
X145286191Y-132625131D01*
X145710771Y-132625131D01*
X145852432Y-133035049D01*
X146140179Y-133359552D01*
X146514062Y-133543268D01*
X146685000Y-133416734D01*
X146685000Y-132451000D01*
X146939000Y-132451000D01*
X146939000Y-133416734D01*
X147109938Y-133543268D01*
X147483821Y-133359552D01*
X147771568Y-133035049D01*
X147913229Y-132625131D01*
X147764563Y-132451000D01*
X146939000Y-132451000D01*
X146685000Y-132451000D01*
X145859437Y-132451000D01*
X145710771Y-132625131D01*
X145286191Y-132625131D01*
X145279368Y-132611237D01*
X144938678Y-132323998D01*
X144514000Y-132189000D01*
X144239000Y-132189000D01*
X143985000Y-132189000D01*
X143710000Y-132189000D01*
X143285322Y-132323998D01*
X142944632Y-132611237D01*
X142742881Y-133022126D01*
X140995400Y-133022126D01*
X140995400Y-132022869D01*
X145710771Y-132022869D01*
X145859437Y-132197000D01*
X146685000Y-132197000D01*
X146685000Y-131231266D01*
X146939000Y-131231266D01*
X146939000Y-132197000D01*
X147764563Y-132197000D01*
X147913229Y-132022869D01*
X147885835Y-131943598D01*
X152279399Y-131943598D01*
X152279400Y-131943603D01*
X152279400Y-138074400D01*
X152358185Y-138470477D01*
X152582544Y-138806256D01*
X152918323Y-139030615D01*
X153314400Y-139109400D01*
X153710477Y-139030615D01*
X154046256Y-138806256D01*
X154270615Y-138470477D01*
X154349400Y-138074400D01*
X154349400Y-132372310D01*
X157008653Y-129713056D01*
X157233013Y-129377278D01*
X157311798Y-128981200D01*
X157233013Y-128585123D01*
X157008653Y-128249345D01*
X156672875Y-128024985D01*
X156276798Y-127946200D01*
X155880720Y-128024985D01*
X155544942Y-128249345D01*
X152582544Y-131211742D01*
X152358185Y-131547521D01*
X152279399Y-131943598D01*
X147885835Y-131943598D01*
X147771568Y-131612951D01*
X147483821Y-131288448D01*
X147109938Y-131104732D01*
X146939000Y-131231266D01*
X146685000Y-131231266D01*
X146514062Y-131104732D01*
X146140179Y-131288448D01*
X145852432Y-131612951D01*
X145710771Y-132022869D01*
X140995400Y-132022869D01*
X140995400Y-127625131D01*
X145710771Y-127625131D01*
X145852432Y-128035049D01*
X146140179Y-128359552D01*
X146514062Y-128543268D01*
X146685000Y-128416734D01*
X146685000Y-127451000D01*
X146939000Y-127451000D01*
X146939000Y-128416734D01*
X147109938Y-128543268D01*
X147483821Y-128359552D01*
X147771568Y-128035049D01*
X147913229Y-127625131D01*
X147764563Y-127451000D01*
X146939000Y-127451000D01*
X146685000Y-127451000D01*
X145859437Y-127451000D01*
X145710771Y-127625131D01*
X140995400Y-127625131D01*
X140995400Y-126625874D01*
X142742881Y-126625874D01*
X142944632Y-127036763D01*
X143285322Y-127324002D01*
X143710000Y-127459000D01*
X143985000Y-127459000D01*
X143985000Y-126451000D01*
X144239000Y-126451000D01*
X144239000Y-127459000D01*
X144514000Y-127459000D01*
X144938678Y-127324002D01*
X145279368Y-127036763D01*
X145286190Y-127022869D01*
X145710771Y-127022869D01*
X145859437Y-127197000D01*
X146685000Y-127197000D01*
X146685000Y-126231266D01*
X146939000Y-126231266D01*
X146939000Y-127197000D01*
X147764563Y-127197000D01*
X147913229Y-127022869D01*
X147771568Y-126612951D01*
X147483821Y-126288448D01*
X147109938Y-126104732D01*
X146939000Y-126231266D01*
X146685000Y-126231266D01*
X146514062Y-126104732D01*
X146140179Y-126288448D01*
X145852432Y-126612951D01*
X145710771Y-127022869D01*
X145286190Y-127022869D01*
X145481119Y-126625874D01*
X145354954Y-126451000D01*
X144239000Y-126451000D01*
X143985000Y-126451000D01*
X142869046Y-126451000D01*
X142742881Y-126625874D01*
X140995400Y-126625874D01*
X140995400Y-126022126D01*
X142742881Y-126022126D01*
X142869046Y-126197000D01*
X143985000Y-126197000D01*
X143985000Y-125189000D01*
X144239000Y-125189000D01*
X144239000Y-126197000D01*
X145354954Y-126197000D01*
X145481119Y-126022126D01*
X145279368Y-125611237D01*
X144938678Y-125323998D01*
X144514000Y-125189000D01*
X144239000Y-125189000D01*
X143985000Y-125189000D01*
X143710000Y-125189000D01*
X143285322Y-125323998D01*
X142944632Y-125611237D01*
X142742881Y-126022126D01*
X140995400Y-126022126D01*
X140995400Y-118319513D01*
X177229216Y-118319513D01*
X177422446Y-118871920D01*
X177812364Y-119308332D01*
X178339609Y-119562309D01*
X178355374Y-119564958D01*
X178587400Y-119443817D01*
X178587400Y-118084600D01*
X177373476Y-118084600D01*
X177229216Y-118319513D01*
X140995400Y-118319513D01*
X140995400Y-115174854D01*
X142254057Y-115174854D01*
X142730327Y-116327515D01*
X143611447Y-117210174D01*
X144763274Y-117688454D01*
X146010454Y-117689543D01*
X146237602Y-117595687D01*
X177229216Y-117595687D01*
X177373476Y-117830600D01*
X178587400Y-117830600D01*
X178587400Y-116471383D01*
X178841400Y-116471383D01*
X178841400Y-117830600D01*
X178861400Y-117830600D01*
X178861400Y-118084600D01*
X178841400Y-118084600D01*
X178841400Y-119443817D01*
X179073426Y-119564958D01*
X179089191Y-119562309D01*
X179616436Y-119308332D01*
X179987939Y-118892531D01*
X180194730Y-119202015D01*
X180680911Y-119526871D01*
X181254400Y-119640945D01*
X181827889Y-119526871D01*
X182314070Y-119202015D01*
X182524400Y-118887234D01*
X182734730Y-119202015D01*
X183220911Y-119526871D01*
X183794400Y-119640945D01*
X184367889Y-119526871D01*
X184854070Y-119202015D01*
X184863643Y-119187687D01*
X184867638Y-119208917D01*
X185006710Y-119425041D01*
X185218910Y-119570031D01*
X185470800Y-119621040D01*
X187198000Y-119621040D01*
X187433317Y-119576762D01*
X187649441Y-119437690D01*
X187794431Y-119225490D01*
X187845440Y-118973600D01*
X187845440Y-116941600D01*
X187801162Y-116706283D01*
X187662090Y-116490159D01*
X187449890Y-116345169D01*
X187198000Y-116294160D01*
X185470800Y-116294160D01*
X185235483Y-116338438D01*
X185019359Y-116477510D01*
X184874369Y-116689710D01*
X184866000Y-116731039D01*
X184854070Y-116713185D01*
X184367889Y-116388329D01*
X183794400Y-116274255D01*
X183220911Y-116388329D01*
X182734730Y-116713185D01*
X182524400Y-117027966D01*
X182314070Y-116713185D01*
X181827889Y-116388329D01*
X181254400Y-116274255D01*
X180680911Y-116388329D01*
X180194730Y-116713185D01*
X179987939Y-117022669D01*
X179616436Y-116606868D01*
X179089191Y-116352891D01*
X179073426Y-116350242D01*
X178841400Y-116471383D01*
X178587400Y-116471383D01*
X178355374Y-116350242D01*
X178339609Y-116352891D01*
X177812364Y-116606868D01*
X177422446Y-117043280D01*
X177229216Y-117595687D01*
X146237602Y-117595687D01*
X147163115Y-117213273D01*
X148045774Y-116332153D01*
X148524054Y-115180326D01*
X148525143Y-113933146D01*
X148048873Y-112780485D01*
X147167753Y-111897826D01*
X146015926Y-111419546D01*
X144768746Y-111418457D01*
X143616085Y-111894727D01*
X142733426Y-112775847D01*
X142255146Y-113927674D01*
X142254057Y-115174854D01*
X140995400Y-115174854D01*
X140995400Y-111378919D01*
X220446600Y-111328346D01*
X220446600Y-169087800D01*
X220446600Y-169087800D01*
G37*
X220446600Y-169087800D02*
X146698441Y-169087800D01*
X147436174Y-168351353D01*
X147914454Y-167199526D01*
X147915543Y-165952346D01*
X147439273Y-164799685D01*
X146558153Y-163917026D01*
X145406326Y-163438746D01*
X144159146Y-163437657D01*
X143006485Y-163913927D01*
X142123826Y-164795047D01*
X141645546Y-165946874D01*
X141644457Y-167194054D01*
X142120727Y-168346715D01*
X142860520Y-169087800D01*
X140995400Y-169087800D01*
X140995400Y-153521026D01*
X144188642Y-153521026D01*
X144191291Y-153536791D01*
X144445268Y-154064036D01*
X144881680Y-154453954D01*
X145434087Y-154647184D01*
X145669000Y-154502924D01*
X145669000Y-153289000D01*
X145923000Y-153289000D01*
X145923000Y-154502924D01*
X146157913Y-154647184D01*
X146710320Y-154453954D01*
X147146732Y-154064036D01*
X147400709Y-153536791D01*
X147403358Y-153521026D01*
X147282217Y-153289000D01*
X145923000Y-153289000D01*
X145669000Y-153289000D01*
X144309783Y-153289000D01*
X144188642Y-153521026D01*
X140995400Y-153521026D01*
X140995400Y-148082000D01*
X144112655Y-148082000D01*
X144226729Y-148655489D01*
X144551585Y-149141670D01*
X144866366Y-149352000D01*
X144551585Y-149562330D01*
X144226729Y-150048511D01*
X144112655Y-150622000D01*
X144226729Y-151195489D01*
X144551585Y-151681670D01*
X144861069Y-151888461D01*
X144445268Y-152259964D01*
X144191291Y-152787209D01*
X144188642Y-152802974D01*
X144309783Y-153035000D01*
X145669000Y-153035000D01*
X145669000Y-153015000D01*
X145923000Y-153015000D01*
X145923000Y-153035000D01*
X147282217Y-153035000D01*
X147403358Y-152802974D01*
X147400709Y-152787209D01*
X147146732Y-152259964D01*
X146730931Y-151888461D01*
X147040415Y-151681670D01*
X147240648Y-151382000D01*
X165303200Y-151382000D01*
X165594039Y-151324148D01*
X165840601Y-151159401D01*
X167017680Y-149982322D01*
X167052445Y-149982353D01*
X157428779Y-159606019D01*
X156921200Y-159505055D01*
X156347711Y-159619129D01*
X155861530Y-159943985D01*
X155851957Y-159958313D01*
X155847962Y-159937083D01*
X155708890Y-159720959D01*
X155496690Y-159575969D01*
X155244800Y-159524960D01*
X153517600Y-159524960D01*
X153282283Y-159569238D01*
X153066159Y-159708310D01*
X152921169Y-159920510D01*
X152870160Y-160172400D01*
X152870160Y-162204400D01*
X152914438Y-162439717D01*
X153053510Y-162655841D01*
X153265710Y-162800831D01*
X153517600Y-162851840D01*
X155244800Y-162851840D01*
X155480117Y-162807562D01*
X155696241Y-162668490D01*
X155841231Y-162456290D01*
X155849600Y-162414961D01*
X155861530Y-162432815D01*
X156347711Y-162757671D01*
X156921200Y-162871745D01*
X157494689Y-162757671D01*
X157980870Y-162432815D01*
X158191200Y-162118034D01*
X158401530Y-162432815D01*
X158887711Y-162757671D01*
X159461200Y-162871745D01*
X160034689Y-162757671D01*
X160520870Y-162432815D01*
X160727661Y-162123331D01*
X161099164Y-162539132D01*
X161626409Y-162793109D01*
X161642174Y-162795758D01*
X161874200Y-162674617D01*
X161874200Y-161315400D01*
X162128200Y-161315400D01*
X162128200Y-162674617D01*
X162360226Y-162795758D01*
X162375991Y-162793109D01*
X162903236Y-162539132D01*
X163293154Y-162102720D01*
X163486384Y-161550313D01*
X163342124Y-161315400D01*
X162128200Y-161315400D01*
X161874200Y-161315400D01*
X161854200Y-161315400D01*
X161854200Y-161061400D01*
X161874200Y-161061400D01*
X161874200Y-161041400D01*
X162128200Y-161041400D01*
X162128200Y-161061400D01*
X163342124Y-161061400D01*
X163486384Y-160826487D01*
X163293154Y-160274080D01*
X162903236Y-159837668D01*
X162375991Y-159583691D01*
X162360226Y-159581042D01*
X162128202Y-159702182D01*
X162128202Y-159596200D01*
X169064400Y-152660002D01*
X169064400Y-155641198D01*
X166687520Y-158018078D01*
X166642033Y-158018038D01*
X166298257Y-158160083D01*
X166035008Y-158422873D01*
X165892362Y-158766401D01*
X165892038Y-159138367D01*
X166034083Y-159482143D01*
X166296873Y-159745392D01*
X166640401Y-159888038D01*
X167012367Y-159888362D01*
X167356143Y-159746317D01*
X167619392Y-159483527D01*
X167762038Y-159139999D01*
X167762079Y-159093123D01*
X169877200Y-156978002D01*
X169877200Y-157927198D01*
X169633920Y-158170478D01*
X169588433Y-158170438D01*
X169244657Y-158312483D01*
X168981408Y-158575273D01*
X168838762Y-158918801D01*
X168838438Y-159290767D01*
X168980483Y-159634543D01*
X169243273Y-159897792D01*
X169586801Y-160040438D01*
X169958767Y-160040762D01*
X170302543Y-159898717D01*
X170565792Y-159635927D01*
X170708438Y-159292399D01*
X170708479Y-159245523D01*
X171174601Y-158779401D01*
X171339348Y-158532839D01*
X171397200Y-158242000D01*
X171397200Y-156210000D01*
X174224999Y-156210000D01*
X174303785Y-156606077D01*
X174479000Y-156868306D01*
X174479000Y-162763195D01*
X174478999Y-162763200D01*
X174557785Y-163159277D01*
X174782144Y-163495056D01*
X179049342Y-167762253D01*
X179049344Y-167762256D01*
X179353130Y-167965238D01*
X179385123Y-167986615D01*
X179781200Y-168065401D01*
X179781205Y-168065400D01*
X194818000Y-168065400D01*
X195214077Y-167986615D01*
X195549856Y-167762256D01*
X195774215Y-167426477D01*
X195853000Y-167030400D01*
X195815843Y-166843601D01*
X195774215Y-166634322D01*
X195684349Y-166499829D01*
X195549856Y-166298544D01*
X195549853Y-166298542D01*
X195497400Y-166246089D01*
X195497400Y-158728250D01*
X195571015Y-158618078D01*
X195649800Y-158222000D01*
X195649800Y-157937200D01*
X195571015Y-157541123D01*
X195346656Y-157205344D01*
X195010877Y-156980985D01*
X194614800Y-156902200D01*
X194218723Y-156980985D01*
X194066813Y-157082488D01*
X194066323Y-157082585D01*
X193730544Y-157306944D01*
X193506185Y-157642723D01*
X193427400Y-158038800D01*
X193427400Y-165995400D01*
X180209911Y-165995400D01*
X176549000Y-162334488D01*
X176549000Y-156464005D01*
X176549001Y-156464000D01*
X176470215Y-156067922D01*
X176380349Y-155933429D01*
X176245856Y-155732144D01*
X176245853Y-155732142D01*
X175991856Y-155478144D01*
X175656077Y-155253785D01*
X175260000Y-155174999D01*
X174863923Y-155253785D01*
X174528144Y-155478144D01*
X174303785Y-155813923D01*
X174224999Y-156210000D01*
X171397200Y-156210000D01*
X171397200Y-146561426D01*
X187419442Y-146561426D01*
X187422091Y-146577191D01*
X187676068Y-147104436D01*
X188112480Y-147494354D01*
X188664887Y-147687584D01*
X188899800Y-147543324D01*
X188899800Y-146329400D01*
X189153800Y-146329400D01*
X189153800Y-147543324D01*
X189388713Y-147687584D01*
X189941120Y-147494354D01*
X190377532Y-147104436D01*
X190631509Y-146577191D01*
X190634158Y-146561426D01*
X190513017Y-146329400D01*
X189153800Y-146329400D01*
X188899800Y-146329400D01*
X187540583Y-146329400D01*
X187419442Y-146561426D01*
X171397200Y-146561426D01*
X171397200Y-145288000D01*
X171339348Y-144997161D01*
X171339348Y-144997160D01*
X171174601Y-144750599D01*
X170846402Y-144422400D01*
X187582152Y-144422400D01*
X187782385Y-144722070D01*
X188091869Y-144928861D01*
X187676068Y-145300364D01*
X187422091Y-145827609D01*
X187419442Y-145843374D01*
X187540583Y-146075400D01*
X188899800Y-146075400D01*
X188899800Y-146055400D01*
X189153800Y-146055400D01*
X189153800Y-146075400D01*
X190513017Y-146075400D01*
X190634158Y-145843374D01*
X190631509Y-145827609D01*
X190377532Y-145300364D01*
X189961731Y-144928861D01*
X190271215Y-144722070D01*
X190596071Y-144235889D01*
X190710145Y-143662400D01*
X190596071Y-143088911D01*
X190271215Y-142602730D01*
X189956434Y-142392400D01*
X190271215Y-142182070D01*
X190596071Y-141695889D01*
X190710145Y-141122400D01*
X190596071Y-140548911D01*
X190271215Y-140062730D01*
X189956434Y-139852400D01*
X190271215Y-139642070D01*
X190596071Y-139155889D01*
X190710145Y-138582400D01*
X190596071Y-138008911D01*
X190271215Y-137522730D01*
X189956434Y-137312400D01*
X190271215Y-137102070D01*
X190596071Y-136615889D01*
X190710145Y-136042400D01*
X190596071Y-135468911D01*
X190271215Y-134982730D01*
X190256887Y-134973157D01*
X190278117Y-134969162D01*
X190494241Y-134830090D01*
X190639231Y-134617890D01*
X190690240Y-134366000D01*
X190690240Y-132638800D01*
X190645962Y-132403483D01*
X190506890Y-132187359D01*
X190294690Y-132042369D01*
X190042800Y-131991360D01*
X188010800Y-131991360D01*
X187775483Y-132035638D01*
X187559359Y-132174710D01*
X187414369Y-132386910D01*
X187363360Y-132638800D01*
X187363360Y-134366000D01*
X187407638Y-134601317D01*
X187546710Y-134817441D01*
X187758910Y-134962431D01*
X187800239Y-134970800D01*
X187782385Y-134982730D01*
X187457529Y-135468911D01*
X187343455Y-136042400D01*
X187444419Y-136549979D01*
X183835198Y-140159200D01*
X172215663Y-140159200D01*
X172183527Y-140127008D01*
X171839999Y-139984362D01*
X171468033Y-139984038D01*
X171124257Y-140126083D01*
X170861008Y-140388873D01*
X170718362Y-140732401D01*
X170718315Y-140786854D01*
X170620799Y-140746362D01*
X170248833Y-140746038D01*
X169905057Y-140888083D01*
X169641808Y-141150873D01*
X169499162Y-141494401D01*
X169498838Y-141866367D01*
X169640883Y-142210143D01*
X169802148Y-142371690D01*
X169702362Y-142612001D01*
X169702318Y-142662542D01*
X169447857Y-142767683D01*
X169319659Y-142895657D01*
X165809200Y-139385198D01*
X165809200Y-138998802D01*
X167243744Y-137564258D01*
X167253283Y-137587343D01*
X167516073Y-137850592D01*
X167859601Y-137993238D01*
X168231567Y-137993562D01*
X168575343Y-137851517D01*
X168608518Y-137818400D01*
X168960800Y-137818400D01*
X169251639Y-137760548D01*
X169498201Y-137595801D01*
X171742080Y-135351922D01*
X171787567Y-135351962D01*
X172131343Y-135209917D01*
X172394592Y-134947127D01*
X172537238Y-134603599D01*
X172537562Y-134231633D01*
X172395517Y-133887857D01*
X172132727Y-133624608D01*
X171789199Y-133481962D01*
X171417233Y-133481638D01*
X171262380Y-133545622D01*
X174019401Y-130788601D01*
X174184148Y-130542039D01*
X174242000Y-130251200D01*
X174242000Y-130203886D01*
X174375792Y-130070327D01*
X174518438Y-129726799D01*
X174518762Y-129354833D01*
X174510485Y-129334800D01*
X178860798Y-129334800D01*
X172326320Y-135869278D01*
X172280833Y-135869238D01*
X171937057Y-136011283D01*
X171673808Y-136274073D01*
X171531162Y-136617601D01*
X171530838Y-136989567D01*
X171672883Y-137333343D01*
X171935673Y-137596592D01*
X172279201Y-137739238D01*
X172651167Y-137739562D01*
X172994943Y-137597517D01*
X173258192Y-137334727D01*
X173400838Y-136991199D01*
X173400879Y-136944323D01*
X179858035Y-130487167D01*
X183976838Y-130487167D01*
X184118883Y-130830943D01*
X184381673Y-131094192D01*
X184725201Y-131236838D01*
X185012188Y-131237088D01*
X185033283Y-131288143D01*
X185296073Y-131551392D01*
X185639601Y-131694038D01*
X186011567Y-131694362D01*
X186355343Y-131552317D01*
X186388518Y-131519200D01*
X201161998Y-131519200D01*
X194616533Y-138064665D01*
X194219400Y-138228757D01*
X193815376Y-138632077D01*
X193596450Y-139159309D01*
X193595952Y-139730187D01*
X193813957Y-140257800D01*
X194217277Y-140661824D01*
X194347415Y-140715862D01*
X194219400Y-140768757D01*
X193815376Y-141172077D01*
X193596450Y-141699309D01*
X193595952Y-142270187D01*
X193813957Y-142797800D01*
X194217277Y-143201824D01*
X194347415Y-143255862D01*
X194219400Y-143308757D01*
X193815376Y-143712077D01*
X193792985Y-143766000D01*
X193751200Y-143766000D01*
X193460361Y-143823852D01*
X193213799Y-143988599D01*
X191435799Y-145766599D01*
X191271052Y-146013161D01*
X191213200Y-146304000D01*
X191213200Y-152298400D01*
X191271052Y-152589239D01*
X191435799Y-152835801D01*
X193467799Y-154867801D01*
X193714361Y-155032548D01*
X194005200Y-155090400D01*
X216916000Y-155090400D01*
X217206839Y-155032548D01*
X217453401Y-154867801D01*
X219333001Y-152988201D01*
X219497748Y-152741639D01*
X219555600Y-152450800D01*
X219555600Y-115976400D01*
X219497748Y-115685561D01*
X219333001Y-115438999D01*
X219086439Y-115274252D01*
X218795600Y-115216400D01*
X200914000Y-115216400D01*
X200623161Y-115274252D01*
X200376599Y-115438999D01*
X196964320Y-118851278D01*
X196918833Y-118851238D01*
X196575057Y-118993283D01*
X196311808Y-119256073D01*
X196169162Y-119599601D01*
X196168838Y-119971567D01*
X196310883Y-120315343D01*
X196573673Y-120578592D01*
X196917201Y-120721238D01*
X197289167Y-120721562D01*
X197632943Y-120579517D01*
X197896192Y-120316727D01*
X198038838Y-119973199D01*
X198038879Y-119926323D01*
X198991374Y-118973828D01*
X199104883Y-119248543D01*
X199367673Y-119511792D01*
X199711201Y-119654438D01*
X200083167Y-119654762D01*
X200426943Y-119512717D01*
X200690192Y-119249927D01*
X200832838Y-118906399D01*
X200832879Y-118859523D01*
X202143202Y-117549200D01*
X215077198Y-117549200D01*
X216714800Y-119186802D01*
X216714800Y-121189534D01*
X216693117Y-121137057D01*
X216430327Y-120873808D01*
X216086799Y-120731162D01*
X216039923Y-120731121D01*
X214049801Y-118740999D01*
X213803239Y-118576252D01*
X213512400Y-118518400D01*
X204321263Y-118518400D01*
X204289127Y-118486208D01*
X203945599Y-118343562D01*
X203573633Y-118343238D01*
X203229857Y-118485283D01*
X202966608Y-118748073D01*
X202823962Y-119091601D01*
X202823638Y-119463567D01*
X202965683Y-119807343D01*
X203228473Y-120070592D01*
X203572001Y-120213238D01*
X203943967Y-120213562D01*
X204287743Y-120071517D01*
X204320918Y-120038400D01*
X213197598Y-120038400D01*
X214964878Y-121805680D01*
X214964838Y-121851167D01*
X215106883Y-122194943D01*
X215369673Y-122458192D01*
X215713201Y-122600838D01*
X216085167Y-122601162D01*
X216428943Y-122459117D01*
X216692192Y-122196327D01*
X216714800Y-122141881D01*
X216714800Y-150713598D01*
X215229598Y-152198800D01*
X194929602Y-152198800D01*
X194054000Y-151323198D01*
X194054000Y-149118002D01*
X194692746Y-148479256D01*
X194744509Y-148500750D01*
X195315387Y-148501248D01*
X195843000Y-148283243D01*
X196247024Y-147879923D01*
X196465950Y-147352691D01*
X196466448Y-146781813D01*
X196248443Y-146254200D01*
X195845123Y-145850176D01*
X195714985Y-145796138D01*
X195843000Y-145743243D01*
X196247024Y-145339923D01*
X196465950Y-144812691D01*
X196466448Y-144241813D01*
X196248443Y-143714200D01*
X195845123Y-143310176D01*
X195714985Y-143256138D01*
X195843000Y-143203243D01*
X196247024Y-142799923D01*
X196465950Y-142272691D01*
X196466448Y-141701813D01*
X196444151Y-141647851D01*
X198361815Y-139730187D01*
X201195952Y-139730187D01*
X201413957Y-140257800D01*
X201817277Y-140661824D01*
X201947415Y-140715862D01*
X201819400Y-140768757D01*
X201415376Y-141172077D01*
X201196450Y-141699309D01*
X201195952Y-142270187D01*
X201413957Y-142797800D01*
X201817277Y-143201824D01*
X201947415Y-143255862D01*
X201819400Y-143308757D01*
X201415376Y-143712077D01*
X201196450Y-144239309D01*
X201195952Y-144810187D01*
X201413957Y-145337800D01*
X201817277Y-145741824D01*
X201947415Y-145795862D01*
X201819400Y-145848757D01*
X201415376Y-146252077D01*
X201196450Y-146779309D01*
X201195952Y-147350187D01*
X201413957Y-147877800D01*
X201817277Y-148281824D01*
X202344509Y-148500750D01*
X202915387Y-148501248D01*
X203443000Y-148283243D01*
X203847024Y-147879923D01*
X204065950Y-147352691D01*
X204066448Y-146781813D01*
X203848443Y-146254200D01*
X203445123Y-145850176D01*
X203314985Y-145796138D01*
X203443000Y-145743243D01*
X203847024Y-145339923D01*
X204065950Y-144812691D01*
X204066448Y-144241813D01*
X203848443Y-143714200D01*
X203445123Y-143310176D01*
X203314985Y-143256138D01*
X203443000Y-143203243D01*
X203836875Y-142810054D01*
X210326057Y-142810054D01*
X210802327Y-143962715D01*
X211683447Y-144845374D01*
X212835274Y-145323654D01*
X214082454Y-145324743D01*
X215235115Y-144848473D01*
X216117774Y-143967353D01*
X216596054Y-142815526D01*
X216597143Y-141568346D01*
X216120873Y-140415685D01*
X215239753Y-139533026D01*
X214087926Y-139054746D01*
X212840746Y-139053657D01*
X211688085Y-139529927D01*
X210805426Y-140411047D01*
X210327146Y-141562874D01*
X210326057Y-142810054D01*
X203836875Y-142810054D01*
X203847024Y-142799923D01*
X204065950Y-142272691D01*
X204066448Y-141701813D01*
X203848443Y-141174200D01*
X203445123Y-140770176D01*
X203314985Y-140716138D01*
X203443000Y-140663243D01*
X203847024Y-140259923D01*
X204065950Y-139732691D01*
X204066448Y-139161813D01*
X203848443Y-138634200D01*
X203445123Y-138230176D01*
X202917891Y-138011250D01*
X202347013Y-138010752D01*
X201819400Y-138228757D01*
X201415376Y-138632077D01*
X201196450Y-139159309D01*
X201195952Y-139730187D01*
X198361815Y-139730187D01*
X206175801Y-131916201D01*
X206340548Y-131669639D01*
X206398400Y-131378800D01*
X206398400Y-126140063D01*
X206430592Y-126107927D01*
X206573238Y-125764399D01*
X206573562Y-125392433D01*
X206431517Y-125048657D01*
X206168727Y-124785408D01*
X205825199Y-124642762D01*
X205687200Y-124642642D01*
X205687200Y-123098402D01*
X206743280Y-122042322D01*
X206788767Y-122042362D01*
X207132543Y-121900317D01*
X207395792Y-121637527D01*
X207538438Y-121293999D01*
X207538762Y-120922033D01*
X207396717Y-120578257D01*
X207133927Y-120315008D01*
X206790399Y-120172362D01*
X206418433Y-120172038D01*
X206074657Y-120314083D01*
X205811408Y-120576873D01*
X205668762Y-120920401D01*
X205668721Y-120967277D01*
X204389799Y-122246199D01*
X204225052Y-122492761D01*
X204167200Y-122783600D01*
X204167200Y-128513998D01*
X203748656Y-128932542D01*
X203739117Y-128909457D01*
X203476327Y-128646208D01*
X203277645Y-128563708D01*
X203322038Y-128456799D01*
X203322362Y-128084833D01*
X203180317Y-127741057D01*
X202917527Y-127477808D01*
X202573999Y-127335162D01*
X202202033Y-127334838D01*
X201858257Y-127476883D01*
X201595008Y-127739673D01*
X201452362Y-128083201D01*
X201452321Y-128130077D01*
X200548398Y-129034000D01*
X185420000Y-129034000D01*
X185129161Y-129091852D01*
X185017641Y-129166367D01*
X184882599Y-129256599D01*
X184772320Y-129366878D01*
X184726833Y-129366838D01*
X184383057Y-129508883D01*
X184119808Y-129771673D01*
X183977162Y-130115201D01*
X183976838Y-130487167D01*
X179858035Y-130487167D01*
X181233001Y-129112201D01*
X181397748Y-128865639D01*
X181455600Y-128574800D01*
X181455600Y-127152400D01*
X181397748Y-126861561D01*
X181397748Y-126861560D01*
X181233001Y-126614999D01*
X178693001Y-124074999D01*
X178446439Y-123910252D01*
X178155600Y-123852400D01*
X171047263Y-123852400D01*
X171015127Y-123820208D01*
X170671599Y-123677562D01*
X170299633Y-123677238D01*
X169955857Y-123819283D01*
X169692608Y-124082073D01*
X169549962Y-124425601D01*
X169549638Y-124797567D01*
X169691683Y-125141343D01*
X169954473Y-125404592D01*
X170298001Y-125547238D01*
X170669967Y-125547562D01*
X171013743Y-125405517D01*
X171046918Y-125372400D01*
X177840798Y-125372400D01*
X179935600Y-127467202D01*
X179935600Y-127774167D01*
X179612399Y-127639962D01*
X179240433Y-127639638D01*
X178896657Y-127781683D01*
X178863482Y-127814800D01*
X168503600Y-127814800D01*
X168212761Y-127872652D01*
X167966199Y-128037399D01*
X166128720Y-129874878D01*
X166083233Y-129874838D01*
X165739457Y-130016883D01*
X165476208Y-130279673D01*
X165333562Y-130623201D01*
X165333238Y-130995167D01*
X165475283Y-131338943D01*
X165738073Y-131602192D01*
X166081601Y-131744838D01*
X166453567Y-131745162D01*
X166797343Y-131603117D01*
X167060592Y-131340327D01*
X167203238Y-130996799D01*
X167203279Y-130949923D01*
X168818402Y-129334800D01*
X171755489Y-129334800D01*
X171521408Y-129568473D01*
X171378762Y-129912001D01*
X171378721Y-129958877D01*
X163241799Y-138095799D01*
X163077052Y-138342361D01*
X163019200Y-138633200D01*
X163019200Y-140067089D01*
X158311800Y-135359688D01*
X158311800Y-134121035D01*
X158461601Y-134183238D01*
X158508477Y-134183279D01*
X160447799Y-136122601D01*
X160694360Y-136287348D01*
X160985200Y-136345200D01*
X161235537Y-136345200D01*
X161267673Y-136377392D01*
X161611201Y-136520038D01*
X161983167Y-136520362D01*
X162326943Y-136378317D01*
X162590192Y-136115527D01*
X162732838Y-135771999D01*
X162733162Y-135400033D01*
X162591117Y-135056257D01*
X162328327Y-134793008D01*
X161984799Y-134650362D01*
X161612833Y-134650038D01*
X161269057Y-134792083D01*
X161267970Y-134793168D01*
X159583522Y-133108720D01*
X159583562Y-133063233D01*
X159441517Y-132719457D01*
X159178727Y-132456208D01*
X158835199Y-132313562D01*
X158463233Y-132313238D01*
X158311800Y-132375809D01*
X158311800Y-131013200D01*
X158233015Y-130617123D01*
X158008656Y-130281344D01*
X157672877Y-130056985D01*
X157276800Y-129978200D01*
X156880723Y-130056985D01*
X156544944Y-130281344D01*
X156320585Y-130617123D01*
X156241800Y-131013200D01*
X156241800Y-135788395D01*
X156241799Y-135788400D01*
X156320585Y-136184477D01*
X156544944Y-136520256D01*
X163961744Y-143937055D01*
X164297523Y-144161415D01*
X164693600Y-144240201D01*
X165089677Y-144161415D01*
X165425455Y-143937055D01*
X165649815Y-143601277D01*
X165728601Y-143205200D01*
X165710078Y-143112080D01*
X168454942Y-145856944D01*
X168431857Y-145866483D01*
X168427623Y-145870710D01*
X168424327Y-145867408D01*
X168080799Y-145724762D01*
X167708833Y-145724438D01*
X167365057Y-145866483D01*
X167101808Y-146129273D01*
X166959162Y-146472801D01*
X166958838Y-146844767D01*
X167083755Y-147147090D01*
X166794433Y-147146838D01*
X166450657Y-147288883D01*
X166417482Y-147322000D01*
X147240648Y-147322000D01*
X147040415Y-147022330D01*
X147026087Y-147012757D01*
X147047317Y-147008762D01*
X147263441Y-146869690D01*
X147408431Y-146657490D01*
X147459440Y-146405600D01*
X147459440Y-144678400D01*
X147415162Y-144443083D01*
X147276090Y-144226959D01*
X147063890Y-144081969D01*
X146812000Y-144030960D01*
X144780000Y-144030960D01*
X144544683Y-144075238D01*
X144328559Y-144214310D01*
X144183569Y-144426510D01*
X144132560Y-144678400D01*
X144132560Y-146405600D01*
X144176838Y-146640917D01*
X144315910Y-146857041D01*
X144528110Y-147002031D01*
X144569439Y-147010400D01*
X144551585Y-147022330D01*
X144226729Y-147508511D01*
X144112655Y-148082000D01*
X140995400Y-148082000D01*
X140995400Y-133625874D01*
X142742881Y-133625874D01*
X142944632Y-134036763D01*
X143285322Y-134324002D01*
X143710000Y-134459000D01*
X143985000Y-134459000D01*
X143985000Y-133451000D01*
X144239000Y-133451000D01*
X144239000Y-134459000D01*
X144514000Y-134459000D01*
X144938678Y-134324002D01*
X145279368Y-134036763D01*
X145481119Y-133625874D01*
X145354954Y-133451000D01*
X144239000Y-133451000D01*
X143985000Y-133451000D01*
X142869046Y-133451000D01*
X142742881Y-133625874D01*
X140995400Y-133625874D01*
X140995400Y-133022126D01*
X142742881Y-133022126D01*
X142869046Y-133197000D01*
X143985000Y-133197000D01*
X143985000Y-132189000D01*
X144239000Y-132189000D01*
X144239000Y-133197000D01*
X145354954Y-133197000D01*
X145481119Y-133022126D01*
X145286191Y-132625131D01*
X145710771Y-132625131D01*
X145852432Y-133035049D01*
X146140179Y-133359552D01*
X146514062Y-133543268D01*
X146685000Y-133416734D01*
X146685000Y-132451000D01*
X146939000Y-132451000D01*
X146939000Y-133416734D01*
X147109938Y-133543268D01*
X147483821Y-133359552D01*
X147771568Y-133035049D01*
X147913229Y-132625131D01*
X147764563Y-132451000D01*
X146939000Y-132451000D01*
X146685000Y-132451000D01*
X145859437Y-132451000D01*
X145710771Y-132625131D01*
X145286191Y-132625131D01*
X145279368Y-132611237D01*
X144938678Y-132323998D01*
X144514000Y-132189000D01*
X144239000Y-132189000D01*
X143985000Y-132189000D01*
X143710000Y-132189000D01*
X143285322Y-132323998D01*
X142944632Y-132611237D01*
X142742881Y-133022126D01*
X140995400Y-133022126D01*
X140995400Y-132022869D01*
X145710771Y-132022869D01*
X145859437Y-132197000D01*
X146685000Y-132197000D01*
X146685000Y-131231266D01*
X146939000Y-131231266D01*
X146939000Y-132197000D01*
X147764563Y-132197000D01*
X147913229Y-132022869D01*
X147885835Y-131943598D01*
X152279399Y-131943598D01*
X152279400Y-131943603D01*
X152279400Y-138074400D01*
X152358185Y-138470477D01*
X152582544Y-138806256D01*
X152918323Y-139030615D01*
X153314400Y-139109400D01*
X153710477Y-139030615D01*
X154046256Y-138806256D01*
X154270615Y-138470477D01*
X154349400Y-138074400D01*
X154349400Y-132372310D01*
X157008653Y-129713056D01*
X157233013Y-129377278D01*
X157311798Y-128981200D01*
X157233013Y-128585123D01*
X157008653Y-128249345D01*
X156672875Y-128024985D01*
X156276798Y-127946200D01*
X155880720Y-128024985D01*
X155544942Y-128249345D01*
X152582544Y-131211742D01*
X152358185Y-131547521D01*
X152279399Y-131943598D01*
X147885835Y-131943598D01*
X147771568Y-131612951D01*
X147483821Y-131288448D01*
X147109938Y-131104732D01*
X146939000Y-131231266D01*
X146685000Y-131231266D01*
X146514062Y-131104732D01*
X146140179Y-131288448D01*
X145852432Y-131612951D01*
X145710771Y-132022869D01*
X140995400Y-132022869D01*
X140995400Y-127625131D01*
X145710771Y-127625131D01*
X145852432Y-128035049D01*
X146140179Y-128359552D01*
X146514062Y-128543268D01*
X146685000Y-128416734D01*
X146685000Y-127451000D01*
X146939000Y-127451000D01*
X146939000Y-128416734D01*
X147109938Y-128543268D01*
X147483821Y-128359552D01*
X147771568Y-128035049D01*
X147913229Y-127625131D01*
X147764563Y-127451000D01*
X146939000Y-127451000D01*
X146685000Y-127451000D01*
X145859437Y-127451000D01*
X145710771Y-127625131D01*
X140995400Y-127625131D01*
X140995400Y-126625874D01*
X142742881Y-126625874D01*
X142944632Y-127036763D01*
X143285322Y-127324002D01*
X143710000Y-127459000D01*
X143985000Y-127459000D01*
X143985000Y-126451000D01*
X144239000Y-126451000D01*
X144239000Y-127459000D01*
X144514000Y-127459000D01*
X144938678Y-127324002D01*
X145279368Y-127036763D01*
X145286190Y-127022869D01*
X145710771Y-127022869D01*
X145859437Y-127197000D01*
X146685000Y-127197000D01*
X146685000Y-126231266D01*
X146939000Y-126231266D01*
X146939000Y-127197000D01*
X147764563Y-127197000D01*
X147913229Y-127022869D01*
X147771568Y-126612951D01*
X147483821Y-126288448D01*
X147109938Y-126104732D01*
X146939000Y-126231266D01*
X146685000Y-126231266D01*
X146514062Y-126104732D01*
X146140179Y-126288448D01*
X145852432Y-126612951D01*
X145710771Y-127022869D01*
X145286190Y-127022869D01*
X145481119Y-126625874D01*
X145354954Y-126451000D01*
X144239000Y-126451000D01*
X143985000Y-126451000D01*
X142869046Y-126451000D01*
X142742881Y-126625874D01*
X140995400Y-126625874D01*
X140995400Y-126022126D01*
X142742881Y-126022126D01*
X142869046Y-126197000D01*
X143985000Y-126197000D01*
X143985000Y-125189000D01*
X144239000Y-125189000D01*
X144239000Y-126197000D01*
X145354954Y-126197000D01*
X145481119Y-126022126D01*
X145279368Y-125611237D01*
X144938678Y-125323998D01*
X144514000Y-125189000D01*
X144239000Y-125189000D01*
X143985000Y-125189000D01*
X143710000Y-125189000D01*
X143285322Y-125323998D01*
X142944632Y-125611237D01*
X142742881Y-126022126D01*
X140995400Y-126022126D01*
X140995400Y-118319513D01*
X177229216Y-118319513D01*
X177422446Y-118871920D01*
X177812364Y-119308332D01*
X178339609Y-119562309D01*
X178355374Y-119564958D01*
X178587400Y-119443817D01*
X178587400Y-118084600D01*
X177373476Y-118084600D01*
X177229216Y-118319513D01*
X140995400Y-118319513D01*
X140995400Y-115174854D01*
X142254057Y-115174854D01*
X142730327Y-116327515D01*
X143611447Y-117210174D01*
X144763274Y-117688454D01*
X146010454Y-117689543D01*
X146237602Y-117595687D01*
X177229216Y-117595687D01*
X177373476Y-117830600D01*
X178587400Y-117830600D01*
X178587400Y-116471383D01*
X178841400Y-116471383D01*
X178841400Y-117830600D01*
X178861400Y-117830600D01*
X178861400Y-118084600D01*
X178841400Y-118084600D01*
X178841400Y-119443817D01*
X179073426Y-119564958D01*
X179089191Y-119562309D01*
X179616436Y-119308332D01*
X179987939Y-118892531D01*
X180194730Y-119202015D01*
X180680911Y-119526871D01*
X181254400Y-119640945D01*
X181827889Y-119526871D01*
X182314070Y-119202015D01*
X182524400Y-118887234D01*
X182734730Y-119202015D01*
X183220911Y-119526871D01*
X183794400Y-119640945D01*
X184367889Y-119526871D01*
X184854070Y-119202015D01*
X184863643Y-119187687D01*
X184867638Y-119208917D01*
X185006710Y-119425041D01*
X185218910Y-119570031D01*
X185470800Y-119621040D01*
X187198000Y-119621040D01*
X187433317Y-119576762D01*
X187649441Y-119437690D01*
X187794431Y-119225490D01*
X187845440Y-118973600D01*
X187845440Y-116941600D01*
X187801162Y-116706283D01*
X187662090Y-116490159D01*
X187449890Y-116345169D01*
X187198000Y-116294160D01*
X185470800Y-116294160D01*
X185235483Y-116338438D01*
X185019359Y-116477510D01*
X184874369Y-116689710D01*
X184866000Y-116731039D01*
X184854070Y-116713185D01*
X184367889Y-116388329D01*
X183794400Y-116274255D01*
X183220911Y-116388329D01*
X182734730Y-116713185D01*
X182524400Y-117027966D01*
X182314070Y-116713185D01*
X181827889Y-116388329D01*
X181254400Y-116274255D01*
X180680911Y-116388329D01*
X180194730Y-116713185D01*
X179987939Y-117022669D01*
X179616436Y-116606868D01*
X179089191Y-116352891D01*
X179073426Y-116350242D01*
X178841400Y-116471383D01*
X178587400Y-116471383D01*
X178355374Y-116350242D01*
X178339609Y-116352891D01*
X177812364Y-116606868D01*
X177422446Y-117043280D01*
X177229216Y-117595687D01*
X146237602Y-117595687D01*
X147163115Y-117213273D01*
X148045774Y-116332153D01*
X148524054Y-115180326D01*
X148525143Y-113933146D01*
X148048873Y-112780485D01*
X147167753Y-111897826D01*
X146015926Y-111419546D01*
X144768746Y-111418457D01*
X143616085Y-111894727D01*
X142733426Y-112775847D01*
X142255146Y-113927674D01*
X142254057Y-115174854D01*
X140995400Y-115174854D01*
X140995400Y-111378919D01*
X220446600Y-111328346D01*
X220446600Y-169087800D01*
G36*
X220701107Y-57530826D02*
X220903288Y-108025673D01*
X184175400Y-107874322D01*
X184175400Y-104793455D01*
X191312800Y-104793455D01*
X191312800Y-105162945D01*
X191426874Y-105736434D01*
X191751730Y-106222615D01*
X192237911Y-106547471D01*
X192811400Y-106661545D01*
X193384889Y-106547471D01*
X193871070Y-106222615D01*
X194081400Y-105907834D01*
X194291730Y-106222615D01*
X194777911Y-106547471D01*
X195351400Y-106661545D01*
X195924889Y-106547471D01*
X196411070Y-106222615D01*
X196621400Y-105907834D01*
X196831730Y-106222615D01*
X197317911Y-106547471D01*
X197891400Y-106661545D01*
X198464889Y-106547471D01*
X198951070Y-106222615D01*
X198960643Y-106208287D01*
X198964638Y-106229517D01*
X199103710Y-106445641D01*
X199315910Y-106590631D01*
X199567800Y-106641640D01*
X201295000Y-106641640D01*
X201530317Y-106597362D01*
X201746441Y-106458290D01*
X201891431Y-106246090D01*
X201942440Y-105994200D01*
X201942440Y-105627034D01*
X214940943Y-105627034D01*
X215341253Y-106595858D01*
X216081843Y-107337742D01*
X217049967Y-107739742D01*
X218098234Y-107740657D01*
X219067058Y-107340347D01*
X219808942Y-106599757D01*
X220210942Y-105631633D01*
X220211857Y-104583366D01*
X219811547Y-103614542D01*
X219070957Y-102872658D01*
X218102833Y-102470658D01*
X217054566Y-102469743D01*
X216085742Y-102870053D01*
X215343858Y-103610643D01*
X214941858Y-104578767D01*
X214940943Y-105627034D01*
X201942440Y-105627034D01*
X201942440Y-103962200D01*
X201898162Y-103726883D01*
X201759090Y-103510759D01*
X201546890Y-103365769D01*
X201295000Y-103314760D01*
X199567800Y-103314760D01*
X199332483Y-103359038D01*
X199116359Y-103498110D01*
X198971369Y-103710310D01*
X198963000Y-103751639D01*
X198951070Y-103733785D01*
X198464889Y-103408929D01*
X197891400Y-103294855D01*
X197317911Y-103408929D01*
X196831730Y-103733785D01*
X196621400Y-104048566D01*
X196411070Y-103733785D01*
X195924889Y-103408929D01*
X195351400Y-103294855D01*
X194777911Y-103408929D01*
X194291730Y-103733785D01*
X194081400Y-104048566D01*
X193871070Y-103733785D01*
X193384889Y-103408929D01*
X192811400Y-103294855D01*
X192237911Y-103408929D01*
X191751730Y-103733785D01*
X191426874Y-104219966D01*
X191312800Y-104793455D01*
X184175400Y-104793455D01*
X184175400Y-99277034D01*
X185730943Y-99277034D01*
X186131253Y-100245858D01*
X186871843Y-100987742D01*
X187839967Y-101389742D01*
X188888234Y-101390657D01*
X189857058Y-100990347D01*
X190598942Y-100249757D01*
X191000942Y-99281633D01*
X191001857Y-98233366D01*
X190601547Y-97264542D01*
X189860957Y-96522658D01*
X188892833Y-96120658D01*
X187844566Y-96119743D01*
X186875742Y-96520053D01*
X186133858Y-97260643D01*
X185731858Y-98228767D01*
X185730943Y-99277034D01*
X184175400Y-99277034D01*
X184175400Y-81567229D01*
X184346632Y-81915963D01*
X184687322Y-82203202D01*
X185112000Y-82338200D01*
X185387000Y-82338200D01*
X185387000Y-81330200D01*
X185641000Y-81330200D01*
X185641000Y-82338200D01*
X185916000Y-82338200D01*
X186340678Y-82203202D01*
X186681368Y-81915963D01*
X186883119Y-81505074D01*
X186756954Y-81330200D01*
X185641000Y-81330200D01*
X185387000Y-81330200D01*
X185367000Y-81330200D01*
X185367000Y-81076200D01*
X185387000Y-81076200D01*
X185387000Y-80068200D01*
X185641000Y-80068200D01*
X185641000Y-81076200D01*
X186756954Y-81076200D01*
X186883119Y-80901326D01*
X186688191Y-80504331D01*
X187112771Y-80504331D01*
X187254432Y-80914249D01*
X187542179Y-81238752D01*
X187916062Y-81422468D01*
X188087000Y-81295934D01*
X188087000Y-80330200D01*
X188341000Y-80330200D01*
X188341000Y-81295934D01*
X188511938Y-81422468D01*
X188885821Y-81238752D01*
X189173568Y-80914249D01*
X189315229Y-80504331D01*
X189166563Y-80330200D01*
X188341000Y-80330200D01*
X188087000Y-80330200D01*
X187261437Y-80330200D01*
X187112771Y-80504331D01*
X186688191Y-80504331D01*
X186681368Y-80490437D01*
X186340678Y-80203198D01*
X185916000Y-80068200D01*
X185641000Y-80068200D01*
X185387000Y-80068200D01*
X185112000Y-80068200D01*
X184687322Y-80203198D01*
X184346632Y-80490437D01*
X184175400Y-80839171D01*
X184175400Y-79902069D01*
X187112771Y-79902069D01*
X187261437Y-80076200D01*
X188087000Y-80076200D01*
X188087000Y-79110466D01*
X188341000Y-79110466D01*
X188341000Y-80076200D01*
X189166563Y-80076200D01*
X189315229Y-79902069D01*
X189173568Y-79492151D01*
X188885821Y-79167648D01*
X188511938Y-78983932D01*
X188341000Y-79110466D01*
X188087000Y-79110466D01*
X187916062Y-78983932D01*
X187542179Y-79167648D01*
X187254432Y-79492151D01*
X187112771Y-79902069D01*
X184175400Y-79902069D01*
X184175400Y-77673200D01*
X192341500Y-77673200D01*
X192341500Y-94030800D01*
X192414005Y-94395306D01*
X192620481Y-94704319D01*
X197217880Y-99301719D01*
X197292138Y-99351336D01*
X197361073Y-99420392D01*
X197451984Y-99458142D01*
X197526894Y-99508195D01*
X197614483Y-99525618D01*
X197704601Y-99563038D01*
X197803038Y-99563124D01*
X197891400Y-99580700D01*
X198766862Y-99580700D01*
X202297881Y-103111719D01*
X202372136Y-103161335D01*
X202441073Y-103230392D01*
X202531984Y-103268142D01*
X202606894Y-103318195D01*
X202694483Y-103335618D01*
X202784601Y-103373038D01*
X202883038Y-103373124D01*
X202971400Y-103390700D01*
X203058991Y-103373277D01*
X203156567Y-103373362D01*
X203247543Y-103335772D01*
X203335906Y-103318195D01*
X203410161Y-103268579D01*
X203500343Y-103231317D01*
X203570010Y-103161772D01*
X203644919Y-103111719D01*
X203694535Y-103037464D01*
X203763592Y-102968527D01*
X203801342Y-102877616D01*
X203851395Y-102802706D01*
X203868818Y-102715117D01*
X203906238Y-102624999D01*
X203906324Y-102526562D01*
X203923900Y-102438200D01*
X203906477Y-102350609D01*
X203906562Y-102253033D01*
X203868972Y-102162057D01*
X203851395Y-102073694D01*
X203801779Y-101999439D01*
X203764517Y-101909257D01*
X203694972Y-101839590D01*
X203644919Y-101764681D01*
X199834919Y-97954681D01*
X199525906Y-97748205D01*
X199161400Y-97675700D01*
X198285939Y-97675700D01*
X194246500Y-93636262D01*
X194246500Y-87515700D01*
X202184000Y-87515700D01*
X202548506Y-87443195D01*
X202857519Y-87236719D01*
X204127519Y-85966719D01*
X204177135Y-85892464D01*
X204246192Y-85823527D01*
X204283942Y-85732616D01*
X204333995Y-85657706D01*
X204351418Y-85570117D01*
X204388838Y-85479999D01*
X204388924Y-85381562D01*
X204406500Y-85293200D01*
X204389077Y-85205609D01*
X204389162Y-85108033D01*
X204351572Y-85017057D01*
X204333995Y-84928694D01*
X204284379Y-84854439D01*
X204247117Y-84764257D01*
X204177572Y-84694590D01*
X204127519Y-84619681D01*
X204053264Y-84570065D01*
X203984327Y-84501008D01*
X203893416Y-84463258D01*
X203818506Y-84413205D01*
X203730917Y-84395782D01*
X203640799Y-84358362D01*
X203542362Y-84358276D01*
X203454000Y-84340700D01*
X203366409Y-84358123D01*
X203268833Y-84358038D01*
X203177857Y-84395628D01*
X203089494Y-84413205D01*
X203015239Y-84462821D01*
X202944000Y-84492256D01*
X202944000Y-79258002D01*
X203593680Y-78608322D01*
X203639167Y-78608362D01*
X203982943Y-78466317D01*
X204246192Y-78203527D01*
X204388838Y-77859999D01*
X204389162Y-77488033D01*
X204247117Y-77144257D01*
X204144521Y-77041481D01*
X204226002Y-76960000D01*
X204764798Y-76960000D01*
X205538800Y-77734002D01*
X205538800Y-78431537D01*
X205506608Y-78463673D01*
X205363962Y-78807201D01*
X205363638Y-79179167D01*
X205505683Y-79522943D01*
X205768473Y-79786192D01*
X206112001Y-79928838D01*
X206483967Y-79929162D01*
X206827743Y-79787117D01*
X207090992Y-79524327D01*
X207233638Y-79180799D01*
X207233962Y-78808833D01*
X207091917Y-78465057D01*
X207058800Y-78431882D01*
X207058800Y-77419200D01*
X207000948Y-77128361D01*
X207000948Y-77128360D01*
X206836201Y-76881799D01*
X205617001Y-75662599D01*
X205370439Y-75497852D01*
X205079600Y-75440000D01*
X203911200Y-75440000D01*
X203620361Y-75497852D01*
X203373799Y-75662599D01*
X202095120Y-76941278D01*
X202049633Y-76941238D01*
X201705857Y-77083283D01*
X201442608Y-77346073D01*
X201299962Y-77689601D01*
X201299638Y-78061567D01*
X201441683Y-78405343D01*
X201564618Y-78528493D01*
X201481852Y-78652361D01*
X201424000Y-78943200D01*
X201424000Y-79412567D01*
X201100799Y-79278362D01*
X200728833Y-79278038D01*
X200385057Y-79420083D01*
X200121808Y-79682873D01*
X199979162Y-80026401D01*
X199979121Y-80073277D01*
X199106599Y-80945799D01*
X198941852Y-81192361D01*
X198884000Y-81483200D01*
X198884000Y-84730737D01*
X198851808Y-84762873D01*
X198709162Y-85106401D01*
X198708838Y-85478367D01*
X198763517Y-85610700D01*
X194246500Y-85610700D01*
X194246500Y-78067738D01*
X196507519Y-75806720D01*
X196557136Y-75732462D01*
X196626192Y-75663527D01*
X196663942Y-75572617D01*
X196713995Y-75497706D01*
X196731417Y-75410118D01*
X196768838Y-75319999D01*
X196768924Y-75221558D01*
X196786499Y-75133200D01*
X196769077Y-75045613D01*
X196769162Y-74948033D01*
X196731571Y-74857055D01*
X196713995Y-74768695D01*
X196664380Y-74694441D01*
X196627117Y-74604257D01*
X196557571Y-74534590D01*
X196507519Y-74459681D01*
X196433264Y-74410066D01*
X196364327Y-74341008D01*
X196273414Y-74303257D01*
X196198505Y-74253205D01*
X196110919Y-74235783D01*
X196020799Y-74198362D01*
X195922357Y-74198276D01*
X195834000Y-74180701D01*
X195746413Y-74198123D01*
X195648833Y-74198038D01*
X195557856Y-74235629D01*
X195469494Y-74253205D01*
X195395238Y-74302821D01*
X195305057Y-74340083D01*
X195235392Y-74409627D01*
X195160480Y-74459681D01*
X192620481Y-76999681D01*
X192414005Y-77308694D01*
X192341500Y-77673200D01*
X184175400Y-77673200D01*
X184175400Y-75504331D01*
X187112771Y-75504331D01*
X187254432Y-75914249D01*
X187542179Y-76238752D01*
X187916062Y-76422468D01*
X188087000Y-76295934D01*
X188087000Y-75330200D01*
X188341000Y-75330200D01*
X188341000Y-76295934D01*
X188511938Y-76422468D01*
X188885821Y-76238752D01*
X189173568Y-75914249D01*
X189315229Y-75504331D01*
X189166563Y-75330200D01*
X188341000Y-75330200D01*
X188087000Y-75330200D01*
X187261437Y-75330200D01*
X187112771Y-75504331D01*
X184175400Y-75504331D01*
X184175400Y-74567229D01*
X184346632Y-74915963D01*
X184687322Y-75203202D01*
X185112000Y-75338200D01*
X185387000Y-75338200D01*
X185387000Y-74330200D01*
X185641000Y-74330200D01*
X185641000Y-75338200D01*
X185916000Y-75338200D01*
X186340678Y-75203202D01*
X186681368Y-74915963D01*
X186688190Y-74902069D01*
X187112771Y-74902069D01*
X187261437Y-75076200D01*
X188087000Y-75076200D01*
X188087000Y-74110466D01*
X188341000Y-74110466D01*
X188341000Y-75076200D01*
X189166563Y-75076200D01*
X189315229Y-74902069D01*
X189173568Y-74492151D01*
X188885821Y-74167648D01*
X188511938Y-73983932D01*
X188341000Y-74110466D01*
X188087000Y-74110466D01*
X187916062Y-73983932D01*
X187542179Y-74167648D01*
X187254432Y-74492151D01*
X187112771Y-74902069D01*
X186688190Y-74902069D01*
X186883119Y-74505074D01*
X186756954Y-74330200D01*
X185641000Y-74330200D01*
X185387000Y-74330200D01*
X185367000Y-74330200D01*
X185367000Y-74076200D01*
X185387000Y-74076200D01*
X185387000Y-73068200D01*
X185641000Y-73068200D01*
X185641000Y-74076200D01*
X186756954Y-74076200D01*
X186883119Y-73901326D01*
X186681368Y-73490437D01*
X186340678Y-73203198D01*
X185916000Y-73068200D01*
X185641000Y-73068200D01*
X185387000Y-73068200D01*
X185112000Y-73068200D01*
X184687322Y-73203198D01*
X184346632Y-73490437D01*
X184175400Y-73839171D01*
X184175400Y-71234300D01*
X207261772Y-71234300D01*
X207261772Y-72631300D01*
X207314905Y-72913680D01*
X207481792Y-73173029D01*
X207736431Y-73347017D01*
X207936801Y-73387593D01*
X207607373Y-73716447D01*
X207403932Y-74206387D01*
X207403469Y-74736886D01*
X207606054Y-75227180D01*
X207980847Y-75602627D01*
X208318646Y-75742894D01*
X207982820Y-75881654D01*
X207607373Y-76256447D01*
X207403932Y-76746387D01*
X207403469Y-77276886D01*
X207606054Y-77767180D01*
X207980847Y-78142627D01*
X208318646Y-78282894D01*
X207982820Y-78421654D01*
X207607373Y-78796447D01*
X207403932Y-79286387D01*
X207403469Y-79816886D01*
X207606054Y-80307180D01*
X207980847Y-80682627D01*
X208318646Y-80822894D01*
X207982820Y-80961654D01*
X207607373Y-81336447D01*
X207403932Y-81826387D01*
X207403469Y-82356886D01*
X207606054Y-82847180D01*
X207980847Y-83222627D01*
X208318646Y-83362894D01*
X207982820Y-83501654D01*
X207607373Y-83876447D01*
X207403932Y-84366387D01*
X207403469Y-84896886D01*
X207606054Y-85387180D01*
X207980847Y-85762627D01*
X208318646Y-85902894D01*
X207982820Y-86041654D01*
X207607373Y-86416447D01*
X207403932Y-86906387D01*
X207403469Y-87436886D01*
X207606054Y-87927180D01*
X207980847Y-88302627D01*
X208318646Y-88442894D01*
X207982820Y-88581654D01*
X207607373Y-88956447D01*
X207403932Y-89446387D01*
X207403469Y-89976886D01*
X207606054Y-90467180D01*
X207980847Y-90842627D01*
X208318646Y-90982894D01*
X207982820Y-91121654D01*
X207607373Y-91496447D01*
X207403932Y-91986387D01*
X207403469Y-92516886D01*
X207606054Y-93007180D01*
X207980847Y-93382627D01*
X208318646Y-93522894D01*
X207982820Y-93661654D01*
X207607373Y-94036447D01*
X207403932Y-94526387D01*
X207403469Y-95056886D01*
X207606054Y-95547180D01*
X207980847Y-95922627D01*
X208470787Y-96126068D01*
X209001286Y-96126531D01*
X209491580Y-95923946D01*
X209867027Y-95549153D01*
X210070468Y-95059213D01*
X210070931Y-94528714D01*
X209868346Y-94038420D01*
X209493553Y-93662973D01*
X209155754Y-93522706D01*
X209491580Y-93383946D01*
X209867027Y-93009153D01*
X210070468Y-92519213D01*
X210070931Y-91988714D01*
X209868346Y-91498420D01*
X209493553Y-91122973D01*
X209155754Y-90982706D01*
X209491580Y-90843946D01*
X209867027Y-90469153D01*
X210070468Y-89979213D01*
X210070931Y-89448714D01*
X209868346Y-88958420D01*
X209493553Y-88582973D01*
X209155754Y-88442706D01*
X209491580Y-88303946D01*
X209867027Y-87929153D01*
X210070468Y-87439213D01*
X210070931Y-86908714D01*
X209868346Y-86418420D01*
X209493553Y-86042973D01*
X209155754Y-85902706D01*
X209491580Y-85763946D01*
X209867027Y-85389153D01*
X210070468Y-84899213D01*
X210070931Y-84368714D01*
X209868346Y-83878420D01*
X209493553Y-83502973D01*
X209155754Y-83362706D01*
X209491580Y-83223946D01*
X209867027Y-82849153D01*
X210070468Y-82359213D01*
X210070931Y-81828714D01*
X209868346Y-81338420D01*
X209493553Y-80962973D01*
X209155754Y-80822706D01*
X209491580Y-80683946D01*
X209867027Y-80309153D01*
X210070468Y-79819213D01*
X210070931Y-79288714D01*
X209868346Y-78798420D01*
X209493553Y-78422973D01*
X209155754Y-78282706D01*
X209491580Y-78143946D01*
X209867027Y-77769153D01*
X210070468Y-77279213D01*
X210070931Y-76748714D01*
X209868346Y-76258420D01*
X209493553Y-75882973D01*
X209155754Y-75742706D01*
X209491580Y-75603946D01*
X209867027Y-75229153D01*
X210070468Y-74739213D01*
X210070470Y-74736886D01*
X215023469Y-74736886D01*
X215226054Y-75227180D01*
X215600847Y-75602627D01*
X215938646Y-75742894D01*
X215602820Y-75881654D01*
X215227373Y-76256447D01*
X215023932Y-76746387D01*
X215023469Y-77276886D01*
X215226054Y-77767180D01*
X215600847Y-78142627D01*
X215938646Y-78282894D01*
X215602820Y-78421654D01*
X215227373Y-78796447D01*
X215023932Y-79286387D01*
X215023469Y-79816886D01*
X215226054Y-80307180D01*
X215600847Y-80682627D01*
X215938646Y-80822894D01*
X215602820Y-80961654D01*
X215227373Y-81336447D01*
X215023932Y-81826387D01*
X215023469Y-82356886D01*
X215226054Y-82847180D01*
X215600847Y-83222627D01*
X215938646Y-83362894D01*
X215602820Y-83501654D01*
X215227373Y-83876447D01*
X215023932Y-84366387D01*
X215023469Y-84896886D01*
X215226054Y-85387180D01*
X215600847Y-85762627D01*
X215938646Y-85902894D01*
X215602820Y-86041654D01*
X215227373Y-86416447D01*
X215023932Y-86906387D01*
X215023469Y-87436886D01*
X215226054Y-87927180D01*
X215600847Y-88302627D01*
X215938646Y-88442894D01*
X215602820Y-88581654D01*
X215227373Y-88956447D01*
X215023932Y-89446387D01*
X215023469Y-89976886D01*
X215226054Y-90467180D01*
X215600847Y-90842627D01*
X215938646Y-90982894D01*
X215602820Y-91121654D01*
X215227373Y-91496447D01*
X215023932Y-91986387D01*
X215023469Y-92516886D01*
X215226054Y-93007180D01*
X215600847Y-93382627D01*
X215938646Y-93522894D01*
X215602820Y-93661654D01*
X215227373Y-94036447D01*
X215023932Y-94526387D01*
X215023469Y-95056886D01*
X215226054Y-95547180D01*
X215600847Y-95922627D01*
X216090787Y-96126068D01*
X216621286Y-96126531D01*
X217111580Y-95923946D01*
X217487027Y-95549153D01*
X217690468Y-95059213D01*
X217690931Y-94528714D01*
X217488346Y-94038420D01*
X217113553Y-93662973D01*
X216775754Y-93522706D01*
X217111580Y-93383946D01*
X217487027Y-93009153D01*
X217690468Y-92519213D01*
X217690931Y-91988714D01*
X217488346Y-91498420D01*
X217113553Y-91122973D01*
X216775754Y-90982706D01*
X217111580Y-90843946D01*
X217487027Y-90469153D01*
X217690468Y-89979213D01*
X217690931Y-89448714D01*
X217488346Y-88958420D01*
X217113553Y-88582973D01*
X216775754Y-88442706D01*
X217111580Y-88303946D01*
X217487027Y-87929153D01*
X217690468Y-87439213D01*
X217690931Y-86908714D01*
X217488346Y-86418420D01*
X217113553Y-86042973D01*
X216775754Y-85902706D01*
X217111580Y-85763946D01*
X217487027Y-85389153D01*
X217690468Y-84899213D01*
X217690931Y-84368714D01*
X217488346Y-83878420D01*
X217113553Y-83502973D01*
X216775754Y-83362706D01*
X217111580Y-83223946D01*
X217487027Y-82849153D01*
X217690468Y-82359213D01*
X217690931Y-81828714D01*
X217488346Y-81338420D01*
X217113553Y-80962973D01*
X216775754Y-80822706D01*
X217111580Y-80683946D01*
X217487027Y-80309153D01*
X217690468Y-79819213D01*
X217690931Y-79288714D01*
X217488346Y-78798420D01*
X217113553Y-78422973D01*
X216775754Y-78282706D01*
X217111580Y-78143946D01*
X217487027Y-77769153D01*
X217690468Y-77279213D01*
X217690931Y-76748714D01*
X217488346Y-76258420D01*
X217113553Y-75882973D01*
X216775754Y-75742706D01*
X217111580Y-75603946D01*
X217487027Y-75229153D01*
X217690468Y-74739213D01*
X217690931Y-74208714D01*
X217488346Y-73718420D01*
X217113553Y-73342973D01*
X216792082Y-73209486D01*
X217050129Y-73102600D01*
X217111783Y-72866988D01*
X216357200Y-72112405D01*
X215602617Y-72866988D01*
X215664271Y-73102600D01*
X215943512Y-73200883D01*
X215602820Y-73341654D01*
X215227373Y-73716447D01*
X215023932Y-74206387D01*
X215023469Y-74736886D01*
X210070470Y-74736886D01*
X210070931Y-74208714D01*
X209868346Y-73718420D01*
X209539245Y-73388745D01*
X209718080Y-73355095D01*
X209977429Y-73188208D01*
X210151417Y-72933569D01*
X210212628Y-72631300D01*
X210212628Y-71740280D01*
X215011273Y-71740280D01*
X215040052Y-72269999D01*
X215187400Y-72625729D01*
X215423012Y-72687383D01*
X216177595Y-71932800D01*
X216536805Y-71932800D01*
X217291388Y-72687383D01*
X217527000Y-72625729D01*
X217703127Y-72125320D01*
X217674348Y-71595601D01*
X217527000Y-71239871D01*
X217291388Y-71178217D01*
X216536805Y-71932800D01*
X216177595Y-71932800D01*
X215423012Y-71178217D01*
X215187400Y-71239871D01*
X215011273Y-71740280D01*
X210212628Y-71740280D01*
X210212628Y-71234300D01*
X210168281Y-70998612D01*
X215602617Y-70998612D01*
X216357200Y-71753195D01*
X217111783Y-70998612D01*
X217050129Y-70763000D01*
X216549720Y-70586873D01*
X216020001Y-70615652D01*
X215664271Y-70763000D01*
X215602617Y-70998612D01*
X210168281Y-70998612D01*
X210159495Y-70951920D01*
X209992608Y-70692571D01*
X209737969Y-70518583D01*
X209435700Y-70457372D01*
X208038700Y-70457372D01*
X207756320Y-70510505D01*
X207496971Y-70677392D01*
X207322983Y-70932031D01*
X207261772Y-71234300D01*
X184175400Y-71234300D01*
X184175400Y-70053200D01*
X191367182Y-70053200D01*
X191384605Y-70140791D01*
X191384520Y-70238367D01*
X191422110Y-70329343D01*
X191439687Y-70417706D01*
X191489303Y-70491961D01*
X191526565Y-70582143D01*
X191596110Y-70651810D01*
X191646163Y-70726719D01*
X191720418Y-70776335D01*
X191789355Y-70845392D01*
X191880266Y-70883142D01*
X191955176Y-70933195D01*
X192042765Y-70950618D01*
X192132883Y-70988038D01*
X192231320Y-70988124D01*
X192319682Y-71005700D01*
X200914000Y-71005700D01*
X201001591Y-70988277D01*
X201099167Y-70988362D01*
X201190143Y-70950772D01*
X201278506Y-70933195D01*
X201352761Y-70883579D01*
X201442943Y-70846317D01*
X201512610Y-70776772D01*
X201587519Y-70726719D01*
X201637135Y-70652464D01*
X201706192Y-70583527D01*
X201743942Y-70492616D01*
X201793995Y-70417706D01*
X201811418Y-70330117D01*
X201848838Y-70239999D01*
X201848924Y-70141562D01*
X201866500Y-70053200D01*
X201849077Y-69965609D01*
X201849162Y-69868033D01*
X201811572Y-69777057D01*
X201793995Y-69688694D01*
X201744379Y-69614439D01*
X201707117Y-69524257D01*
X201637572Y-69454590D01*
X201587519Y-69379681D01*
X201513264Y-69330065D01*
X201444327Y-69261008D01*
X201353416Y-69223258D01*
X201278506Y-69173205D01*
X201190917Y-69155782D01*
X201100799Y-69118362D01*
X201002362Y-69118276D01*
X200914000Y-69100700D01*
X192319682Y-69100700D01*
X192232091Y-69118123D01*
X192134515Y-69118038D01*
X192043539Y-69155628D01*
X191955176Y-69173205D01*
X191880921Y-69222821D01*
X191790739Y-69260083D01*
X191721072Y-69329628D01*
X191646163Y-69379681D01*
X191596547Y-69453936D01*
X191527490Y-69522873D01*
X191489740Y-69613784D01*
X191439687Y-69688694D01*
X191422264Y-69776283D01*
X191384844Y-69866401D01*
X191384758Y-69964838D01*
X191367182Y-70053200D01*
X184175400Y-70053200D01*
X184175400Y-61939034D01*
X184308543Y-61939034D01*
X184708853Y-62907858D01*
X185449443Y-63649742D01*
X186417567Y-64051742D01*
X187465834Y-64052657D01*
X188434658Y-63652347D01*
X189176542Y-62911757D01*
X189578542Y-61943633D01*
X189579166Y-61227834D01*
X215398143Y-61227834D01*
X215798453Y-62196658D01*
X216539043Y-62938542D01*
X217507167Y-63340542D01*
X218555434Y-63341457D01*
X219524258Y-62941147D01*
X220266142Y-62200557D01*
X220668142Y-61232433D01*
X220669057Y-60184166D01*
X220268747Y-59215342D01*
X219528157Y-58473458D01*
X218560033Y-58071458D01*
X217511766Y-58070543D01*
X216542942Y-58470853D01*
X215801058Y-59211443D01*
X215399058Y-60179567D01*
X215398143Y-61227834D01*
X189579166Y-61227834D01*
X189579457Y-60895366D01*
X189179147Y-59926542D01*
X188438557Y-59184658D01*
X187470433Y-58782658D01*
X186422166Y-58781743D01*
X185453342Y-59182053D01*
X184711458Y-59922643D01*
X184309458Y-60890767D01*
X184308543Y-61939034D01*
X184175400Y-61939034D01*
X184175400Y-57480376D01*
X220701107Y-57530826D01*
X220701107Y-57530826D01*
G37*
X220701107Y-57530826D02*
X220903288Y-108025673D01*
X184175400Y-107874322D01*
X184175400Y-104793455D01*
X191312800Y-104793455D01*
X191312800Y-105162945D01*
X191426874Y-105736434D01*
X191751730Y-106222615D01*
X192237911Y-106547471D01*
X192811400Y-106661545D01*
X193384889Y-106547471D01*
X193871070Y-106222615D01*
X194081400Y-105907834D01*
X194291730Y-106222615D01*
X194777911Y-106547471D01*
X195351400Y-106661545D01*
X195924889Y-106547471D01*
X196411070Y-106222615D01*
X196621400Y-105907834D01*
X196831730Y-106222615D01*
X197317911Y-106547471D01*
X197891400Y-106661545D01*
X198464889Y-106547471D01*
X198951070Y-106222615D01*
X198960643Y-106208287D01*
X198964638Y-106229517D01*
X199103710Y-106445641D01*
X199315910Y-106590631D01*
X199567800Y-106641640D01*
X201295000Y-106641640D01*
X201530317Y-106597362D01*
X201746441Y-106458290D01*
X201891431Y-106246090D01*
X201942440Y-105994200D01*
X201942440Y-105627034D01*
X214940943Y-105627034D01*
X215341253Y-106595858D01*
X216081843Y-107337742D01*
X217049967Y-107739742D01*
X218098234Y-107740657D01*
X219067058Y-107340347D01*
X219808942Y-106599757D01*
X220210942Y-105631633D01*
X220211857Y-104583366D01*
X219811547Y-103614542D01*
X219070957Y-102872658D01*
X218102833Y-102470658D01*
X217054566Y-102469743D01*
X216085742Y-102870053D01*
X215343858Y-103610643D01*
X214941858Y-104578767D01*
X214940943Y-105627034D01*
X201942440Y-105627034D01*
X201942440Y-103962200D01*
X201898162Y-103726883D01*
X201759090Y-103510759D01*
X201546890Y-103365769D01*
X201295000Y-103314760D01*
X199567800Y-103314760D01*
X199332483Y-103359038D01*
X199116359Y-103498110D01*
X198971369Y-103710310D01*
X198963000Y-103751639D01*
X198951070Y-103733785D01*
X198464889Y-103408929D01*
X197891400Y-103294855D01*
X197317911Y-103408929D01*
X196831730Y-103733785D01*
X196621400Y-104048566D01*
X196411070Y-103733785D01*
X195924889Y-103408929D01*
X195351400Y-103294855D01*
X194777911Y-103408929D01*
X194291730Y-103733785D01*
X194081400Y-104048566D01*
X193871070Y-103733785D01*
X193384889Y-103408929D01*
X192811400Y-103294855D01*
X192237911Y-103408929D01*
X191751730Y-103733785D01*
X191426874Y-104219966D01*
X191312800Y-104793455D01*
X184175400Y-104793455D01*
X184175400Y-99277034D01*
X185730943Y-99277034D01*
X186131253Y-100245858D01*
X186871843Y-100987742D01*
X187839967Y-101389742D01*
X188888234Y-101390657D01*
X189857058Y-100990347D01*
X190598942Y-100249757D01*
X191000942Y-99281633D01*
X191001857Y-98233366D01*
X190601547Y-97264542D01*
X189860957Y-96522658D01*
X188892833Y-96120658D01*
X187844566Y-96119743D01*
X186875742Y-96520053D01*
X186133858Y-97260643D01*
X185731858Y-98228767D01*
X185730943Y-99277034D01*
X184175400Y-99277034D01*
X184175400Y-81567229D01*
X184346632Y-81915963D01*
X184687322Y-82203202D01*
X185112000Y-82338200D01*
X185387000Y-82338200D01*
X185387000Y-81330200D01*
X185641000Y-81330200D01*
X185641000Y-82338200D01*
X185916000Y-82338200D01*
X186340678Y-82203202D01*
X186681368Y-81915963D01*
X186883119Y-81505074D01*
X186756954Y-81330200D01*
X185641000Y-81330200D01*
X185387000Y-81330200D01*
X185367000Y-81330200D01*
X185367000Y-81076200D01*
X185387000Y-81076200D01*
X185387000Y-80068200D01*
X185641000Y-80068200D01*
X185641000Y-81076200D01*
X186756954Y-81076200D01*
X186883119Y-80901326D01*
X186688191Y-80504331D01*
X187112771Y-80504331D01*
X187254432Y-80914249D01*
X187542179Y-81238752D01*
X187916062Y-81422468D01*
X188087000Y-81295934D01*
X188087000Y-80330200D01*
X188341000Y-80330200D01*
X188341000Y-81295934D01*
X188511938Y-81422468D01*
X188885821Y-81238752D01*
X189173568Y-80914249D01*
X189315229Y-80504331D01*
X189166563Y-80330200D01*
X188341000Y-80330200D01*
X188087000Y-80330200D01*
X187261437Y-80330200D01*
X187112771Y-80504331D01*
X186688191Y-80504331D01*
X186681368Y-80490437D01*
X186340678Y-80203198D01*
X185916000Y-80068200D01*
X185641000Y-80068200D01*
X185387000Y-80068200D01*
X185112000Y-80068200D01*
X184687322Y-80203198D01*
X184346632Y-80490437D01*
X184175400Y-80839171D01*
X184175400Y-79902069D01*
X187112771Y-79902069D01*
X187261437Y-80076200D01*
X188087000Y-80076200D01*
X188087000Y-79110466D01*
X188341000Y-79110466D01*
X188341000Y-80076200D01*
X189166563Y-80076200D01*
X189315229Y-79902069D01*
X189173568Y-79492151D01*
X188885821Y-79167648D01*
X188511938Y-78983932D01*
X188341000Y-79110466D01*
X188087000Y-79110466D01*
X187916062Y-78983932D01*
X187542179Y-79167648D01*
X187254432Y-79492151D01*
X187112771Y-79902069D01*
X184175400Y-79902069D01*
X184175400Y-77673200D01*
X192341500Y-77673200D01*
X192341500Y-94030800D01*
X192414005Y-94395306D01*
X192620481Y-94704319D01*
X197217880Y-99301719D01*
X197292138Y-99351336D01*
X197361073Y-99420392D01*
X197451984Y-99458142D01*
X197526894Y-99508195D01*
X197614483Y-99525618D01*
X197704601Y-99563038D01*
X197803038Y-99563124D01*
X197891400Y-99580700D01*
X198766862Y-99580700D01*
X202297881Y-103111719D01*
X202372136Y-103161335D01*
X202441073Y-103230392D01*
X202531984Y-103268142D01*
X202606894Y-103318195D01*
X202694483Y-103335618D01*
X202784601Y-103373038D01*
X202883038Y-103373124D01*
X202971400Y-103390700D01*
X203058991Y-103373277D01*
X203156567Y-103373362D01*
X203247543Y-103335772D01*
X203335906Y-103318195D01*
X203410161Y-103268579D01*
X203500343Y-103231317D01*
X203570010Y-103161772D01*
X203644919Y-103111719D01*
X203694535Y-103037464D01*
X203763592Y-102968527D01*
X203801342Y-102877616D01*
X203851395Y-102802706D01*
X203868818Y-102715117D01*
X203906238Y-102624999D01*
X203906324Y-102526562D01*
X203923900Y-102438200D01*
X203906477Y-102350609D01*
X203906562Y-102253033D01*
X203868972Y-102162057D01*
X203851395Y-102073694D01*
X203801779Y-101999439D01*
X203764517Y-101909257D01*
X203694972Y-101839590D01*
X203644919Y-101764681D01*
X199834919Y-97954681D01*
X199525906Y-97748205D01*
X199161400Y-97675700D01*
X198285939Y-97675700D01*
X194246500Y-93636262D01*
X194246500Y-87515700D01*
X202184000Y-87515700D01*
X202548506Y-87443195D01*
X202857519Y-87236719D01*
X204127519Y-85966719D01*
X204177135Y-85892464D01*
X204246192Y-85823527D01*
X204283942Y-85732616D01*
X204333995Y-85657706D01*
X204351418Y-85570117D01*
X204388838Y-85479999D01*
X204388924Y-85381562D01*
X204406500Y-85293200D01*
X204389077Y-85205609D01*
X204389162Y-85108033D01*
X204351572Y-85017057D01*
X204333995Y-84928694D01*
X204284379Y-84854439D01*
X204247117Y-84764257D01*
X204177572Y-84694590D01*
X204127519Y-84619681D01*
X204053264Y-84570065D01*
X203984327Y-84501008D01*
X203893416Y-84463258D01*
X203818506Y-84413205D01*
X203730917Y-84395782D01*
X203640799Y-84358362D01*
X203542362Y-84358276D01*
X203454000Y-84340700D01*
X203366409Y-84358123D01*
X203268833Y-84358038D01*
X203177857Y-84395628D01*
X203089494Y-84413205D01*
X203015239Y-84462821D01*
X202944000Y-84492256D01*
X202944000Y-79258002D01*
X203593680Y-78608322D01*
X203639167Y-78608362D01*
X203982943Y-78466317D01*
X204246192Y-78203527D01*
X204388838Y-77859999D01*
X204389162Y-77488033D01*
X204247117Y-77144257D01*
X204144521Y-77041481D01*
X204226002Y-76960000D01*
X204764798Y-76960000D01*
X205538800Y-77734002D01*
X205538800Y-78431537D01*
X205506608Y-78463673D01*
X205363962Y-78807201D01*
X205363638Y-79179167D01*
X205505683Y-79522943D01*
X205768473Y-79786192D01*
X206112001Y-79928838D01*
X206483967Y-79929162D01*
X206827743Y-79787117D01*
X207090992Y-79524327D01*
X207233638Y-79180799D01*
X207233962Y-78808833D01*
X207091917Y-78465057D01*
X207058800Y-78431882D01*
X207058800Y-77419200D01*
X207000948Y-77128361D01*
X207000948Y-77128360D01*
X206836201Y-76881799D01*
X205617001Y-75662599D01*
X205370439Y-75497852D01*
X205079600Y-75440000D01*
X203911200Y-75440000D01*
X203620361Y-75497852D01*
X203373799Y-75662599D01*
X202095120Y-76941278D01*
X202049633Y-76941238D01*
X201705857Y-77083283D01*
X201442608Y-77346073D01*
X201299962Y-77689601D01*
X201299638Y-78061567D01*
X201441683Y-78405343D01*
X201564618Y-78528493D01*
X201481852Y-78652361D01*
X201424000Y-78943200D01*
X201424000Y-79412567D01*
X201100799Y-79278362D01*
X200728833Y-79278038D01*
X200385057Y-79420083D01*
X200121808Y-79682873D01*
X199979162Y-80026401D01*
X199979121Y-80073277D01*
X199106599Y-80945799D01*
X198941852Y-81192361D01*
X198884000Y-81483200D01*
X198884000Y-84730737D01*
X198851808Y-84762873D01*
X198709162Y-85106401D01*
X198708838Y-85478367D01*
X198763517Y-85610700D01*
X194246500Y-85610700D01*
X194246500Y-78067738D01*
X196507519Y-75806720D01*
X196557136Y-75732462D01*
X196626192Y-75663527D01*
X196663942Y-75572617D01*
X196713995Y-75497706D01*
X196731417Y-75410118D01*
X196768838Y-75319999D01*
X196768924Y-75221558D01*
X196786499Y-75133200D01*
X196769077Y-75045613D01*
X196769162Y-74948033D01*
X196731571Y-74857055D01*
X196713995Y-74768695D01*
X196664380Y-74694441D01*
X196627117Y-74604257D01*
X196557571Y-74534590D01*
X196507519Y-74459681D01*
X196433264Y-74410066D01*
X196364327Y-74341008D01*
X196273414Y-74303257D01*
X196198505Y-74253205D01*
X196110919Y-74235783D01*
X196020799Y-74198362D01*
X195922357Y-74198276D01*
X195834000Y-74180701D01*
X195746413Y-74198123D01*
X195648833Y-74198038D01*
X195557856Y-74235629D01*
X195469494Y-74253205D01*
X195395238Y-74302821D01*
X195305057Y-74340083D01*
X195235392Y-74409627D01*
X195160480Y-74459681D01*
X192620481Y-76999681D01*
X192414005Y-77308694D01*
X192341500Y-77673200D01*
X184175400Y-77673200D01*
X184175400Y-75504331D01*
X187112771Y-75504331D01*
X187254432Y-75914249D01*
X187542179Y-76238752D01*
X187916062Y-76422468D01*
X188087000Y-76295934D01*
X188087000Y-75330200D01*
X188341000Y-75330200D01*
X188341000Y-76295934D01*
X188511938Y-76422468D01*
X188885821Y-76238752D01*
X189173568Y-75914249D01*
X189315229Y-75504331D01*
X189166563Y-75330200D01*
X188341000Y-75330200D01*
X188087000Y-75330200D01*
X187261437Y-75330200D01*
X187112771Y-75504331D01*
X184175400Y-75504331D01*
X184175400Y-74567229D01*
X184346632Y-74915963D01*
X184687322Y-75203202D01*
X185112000Y-75338200D01*
X185387000Y-75338200D01*
X185387000Y-74330200D01*
X185641000Y-74330200D01*
X185641000Y-75338200D01*
X185916000Y-75338200D01*
X186340678Y-75203202D01*
X186681368Y-74915963D01*
X186688190Y-74902069D01*
X187112771Y-74902069D01*
X187261437Y-75076200D01*
X188087000Y-75076200D01*
X188087000Y-74110466D01*
X188341000Y-74110466D01*
X188341000Y-75076200D01*
X189166563Y-75076200D01*
X189315229Y-74902069D01*
X189173568Y-74492151D01*
X188885821Y-74167648D01*
X188511938Y-73983932D01*
X188341000Y-74110466D01*
X188087000Y-74110466D01*
X187916062Y-73983932D01*
X187542179Y-74167648D01*
X187254432Y-74492151D01*
X187112771Y-74902069D01*
X186688190Y-74902069D01*
X186883119Y-74505074D01*
X186756954Y-74330200D01*
X185641000Y-74330200D01*
X185387000Y-74330200D01*
X185367000Y-74330200D01*
X185367000Y-74076200D01*
X185387000Y-74076200D01*
X185387000Y-73068200D01*
X185641000Y-73068200D01*
X185641000Y-74076200D01*
X186756954Y-74076200D01*
X186883119Y-73901326D01*
X186681368Y-73490437D01*
X186340678Y-73203198D01*
X185916000Y-73068200D01*
X185641000Y-73068200D01*
X185387000Y-73068200D01*
X185112000Y-73068200D01*
X184687322Y-73203198D01*
X184346632Y-73490437D01*
X184175400Y-73839171D01*
X184175400Y-71234300D01*
X207261772Y-71234300D01*
X207261772Y-72631300D01*
X207314905Y-72913680D01*
X207481792Y-73173029D01*
X207736431Y-73347017D01*
X207936801Y-73387593D01*
X207607373Y-73716447D01*
X207403932Y-74206387D01*
X207403469Y-74736886D01*
X207606054Y-75227180D01*
X207980847Y-75602627D01*
X208318646Y-75742894D01*
X207982820Y-75881654D01*
X207607373Y-76256447D01*
X207403932Y-76746387D01*
X207403469Y-77276886D01*
X207606054Y-77767180D01*
X207980847Y-78142627D01*
X208318646Y-78282894D01*
X207982820Y-78421654D01*
X207607373Y-78796447D01*
X207403932Y-79286387D01*
X207403469Y-79816886D01*
X207606054Y-80307180D01*
X207980847Y-80682627D01*
X208318646Y-80822894D01*
X207982820Y-80961654D01*
X207607373Y-81336447D01*
X207403932Y-81826387D01*
X207403469Y-82356886D01*
X207606054Y-82847180D01*
X207980847Y-83222627D01*
X208318646Y-83362894D01*
X207982820Y-83501654D01*
X207607373Y-83876447D01*
X207403932Y-84366387D01*
X207403469Y-84896886D01*
X207606054Y-85387180D01*
X207980847Y-85762627D01*
X208318646Y-85902894D01*
X207982820Y-86041654D01*
X207607373Y-86416447D01*
X207403932Y-86906387D01*
X207403469Y-87436886D01*
X207606054Y-87927180D01*
X207980847Y-88302627D01*
X208318646Y-88442894D01*
X207982820Y-88581654D01*
X207607373Y-88956447D01*
X207403932Y-89446387D01*
X207403469Y-89976886D01*
X207606054Y-90467180D01*
X207980847Y-90842627D01*
X208318646Y-90982894D01*
X207982820Y-91121654D01*
X207607373Y-91496447D01*
X207403932Y-91986387D01*
X207403469Y-92516886D01*
X207606054Y-93007180D01*
X207980847Y-93382627D01*
X208318646Y-93522894D01*
X207982820Y-93661654D01*
X207607373Y-94036447D01*
X207403932Y-94526387D01*
X207403469Y-95056886D01*
X207606054Y-95547180D01*
X207980847Y-95922627D01*
X208470787Y-96126068D01*
X209001286Y-96126531D01*
X209491580Y-95923946D01*
X209867027Y-95549153D01*
X210070468Y-95059213D01*
X210070931Y-94528714D01*
X209868346Y-94038420D01*
X209493553Y-93662973D01*
X209155754Y-93522706D01*
X209491580Y-93383946D01*
X209867027Y-93009153D01*
X210070468Y-92519213D01*
X210070931Y-91988714D01*
X209868346Y-91498420D01*
X209493553Y-91122973D01*
X209155754Y-90982706D01*
X209491580Y-90843946D01*
X209867027Y-90469153D01*
X210070468Y-89979213D01*
X210070931Y-89448714D01*
X209868346Y-88958420D01*
X209493553Y-88582973D01*
X209155754Y-88442706D01*
X209491580Y-88303946D01*
X209867027Y-87929153D01*
X210070468Y-87439213D01*
X210070931Y-86908714D01*
X209868346Y-86418420D01*
X209493553Y-86042973D01*
X209155754Y-85902706D01*
X209491580Y-85763946D01*
X209867027Y-85389153D01*
X210070468Y-84899213D01*
X210070931Y-84368714D01*
X209868346Y-83878420D01*
X209493553Y-83502973D01*
X209155754Y-83362706D01*
X209491580Y-83223946D01*
X209867027Y-82849153D01*
X210070468Y-82359213D01*
X210070931Y-81828714D01*
X209868346Y-81338420D01*
X209493553Y-80962973D01*
X209155754Y-80822706D01*
X209491580Y-80683946D01*
X209867027Y-80309153D01*
X210070468Y-79819213D01*
X210070931Y-79288714D01*
X209868346Y-78798420D01*
X209493553Y-78422973D01*
X209155754Y-78282706D01*
X209491580Y-78143946D01*
X209867027Y-77769153D01*
X210070468Y-77279213D01*
X210070931Y-76748714D01*
X209868346Y-76258420D01*
X209493553Y-75882973D01*
X209155754Y-75742706D01*
X209491580Y-75603946D01*
X209867027Y-75229153D01*
X210070468Y-74739213D01*
X210070470Y-74736886D01*
X215023469Y-74736886D01*
X215226054Y-75227180D01*
X215600847Y-75602627D01*
X215938646Y-75742894D01*
X215602820Y-75881654D01*
X215227373Y-76256447D01*
X215023932Y-76746387D01*
X215023469Y-77276886D01*
X215226054Y-77767180D01*
X215600847Y-78142627D01*
X215938646Y-78282894D01*
X215602820Y-78421654D01*
X215227373Y-78796447D01*
X215023932Y-79286387D01*
X215023469Y-79816886D01*
X215226054Y-80307180D01*
X215600847Y-80682627D01*
X215938646Y-80822894D01*
X215602820Y-80961654D01*
X215227373Y-81336447D01*
X215023932Y-81826387D01*
X215023469Y-82356886D01*
X215226054Y-82847180D01*
X215600847Y-83222627D01*
X215938646Y-83362894D01*
X215602820Y-83501654D01*
X215227373Y-83876447D01*
X215023932Y-84366387D01*
X215023469Y-84896886D01*
X215226054Y-85387180D01*
X215600847Y-85762627D01*
X215938646Y-85902894D01*
X215602820Y-86041654D01*
X215227373Y-86416447D01*
X215023932Y-86906387D01*
X215023469Y-87436886D01*
X215226054Y-87927180D01*
X215600847Y-88302627D01*
X215938646Y-88442894D01*
X215602820Y-88581654D01*
X215227373Y-88956447D01*
X215023932Y-89446387D01*
X215023469Y-89976886D01*
X215226054Y-90467180D01*
X215600847Y-90842627D01*
X215938646Y-90982894D01*
X215602820Y-91121654D01*
X215227373Y-91496447D01*
X215023932Y-91986387D01*
X215023469Y-92516886D01*
X215226054Y-93007180D01*
X215600847Y-93382627D01*
X215938646Y-93522894D01*
X215602820Y-93661654D01*
X215227373Y-94036447D01*
X215023932Y-94526387D01*
X215023469Y-95056886D01*
X215226054Y-95547180D01*
X215600847Y-95922627D01*
X216090787Y-96126068D01*
X216621286Y-96126531D01*
X217111580Y-95923946D01*
X217487027Y-95549153D01*
X217690468Y-95059213D01*
X217690931Y-94528714D01*
X217488346Y-94038420D01*
X217113553Y-93662973D01*
X216775754Y-93522706D01*
X217111580Y-93383946D01*
X217487027Y-93009153D01*
X217690468Y-92519213D01*
X217690931Y-91988714D01*
X217488346Y-91498420D01*
X217113553Y-91122973D01*
X216775754Y-90982706D01*
X217111580Y-90843946D01*
X217487027Y-90469153D01*
X217690468Y-89979213D01*
X217690931Y-89448714D01*
X217488346Y-88958420D01*
X217113553Y-88582973D01*
X216775754Y-88442706D01*
X217111580Y-88303946D01*
X217487027Y-87929153D01*
X217690468Y-87439213D01*
X217690931Y-86908714D01*
X217488346Y-86418420D01*
X217113553Y-86042973D01*
X216775754Y-85902706D01*
X217111580Y-85763946D01*
X217487027Y-85389153D01*
X217690468Y-84899213D01*
X217690931Y-84368714D01*
X217488346Y-83878420D01*
X217113553Y-83502973D01*
X216775754Y-83362706D01*
X217111580Y-83223946D01*
X217487027Y-82849153D01*
X217690468Y-82359213D01*
X217690931Y-81828714D01*
X217488346Y-81338420D01*
X217113553Y-80962973D01*
X216775754Y-80822706D01*
X217111580Y-80683946D01*
X217487027Y-80309153D01*
X217690468Y-79819213D01*
X217690931Y-79288714D01*
X217488346Y-78798420D01*
X217113553Y-78422973D01*
X216775754Y-78282706D01*
X217111580Y-78143946D01*
X217487027Y-77769153D01*
X217690468Y-77279213D01*
X217690931Y-76748714D01*
X217488346Y-76258420D01*
X217113553Y-75882973D01*
X216775754Y-75742706D01*
X217111580Y-75603946D01*
X217487027Y-75229153D01*
X217690468Y-74739213D01*
X217690931Y-74208714D01*
X217488346Y-73718420D01*
X217113553Y-73342973D01*
X216792082Y-73209486D01*
X217050129Y-73102600D01*
X217111783Y-72866988D01*
X216357200Y-72112405D01*
X215602617Y-72866988D01*
X215664271Y-73102600D01*
X215943512Y-73200883D01*
X215602820Y-73341654D01*
X215227373Y-73716447D01*
X215023932Y-74206387D01*
X215023469Y-74736886D01*
X210070470Y-74736886D01*
X210070931Y-74208714D01*
X209868346Y-73718420D01*
X209539245Y-73388745D01*
X209718080Y-73355095D01*
X209977429Y-73188208D01*
X210151417Y-72933569D01*
X210212628Y-72631300D01*
X210212628Y-71740280D01*
X215011273Y-71740280D01*
X215040052Y-72269999D01*
X215187400Y-72625729D01*
X215423012Y-72687383D01*
X216177595Y-71932800D01*
X216536805Y-71932800D01*
X217291388Y-72687383D01*
X217527000Y-72625729D01*
X217703127Y-72125320D01*
X217674348Y-71595601D01*
X217527000Y-71239871D01*
X217291388Y-71178217D01*
X216536805Y-71932800D01*
X216177595Y-71932800D01*
X215423012Y-71178217D01*
X215187400Y-71239871D01*
X215011273Y-71740280D01*
X210212628Y-71740280D01*
X210212628Y-71234300D01*
X210168281Y-70998612D01*
X215602617Y-70998612D01*
X216357200Y-71753195D01*
X217111783Y-70998612D01*
X217050129Y-70763000D01*
X216549720Y-70586873D01*
X216020001Y-70615652D01*
X215664271Y-70763000D01*
X215602617Y-70998612D01*
X210168281Y-70998612D01*
X210159495Y-70951920D01*
X209992608Y-70692571D01*
X209737969Y-70518583D01*
X209435700Y-70457372D01*
X208038700Y-70457372D01*
X207756320Y-70510505D01*
X207496971Y-70677392D01*
X207322983Y-70932031D01*
X207261772Y-71234300D01*
X184175400Y-71234300D01*
X184175400Y-70053200D01*
X191367182Y-70053200D01*
X191384605Y-70140791D01*
X191384520Y-70238367D01*
X191422110Y-70329343D01*
X191439687Y-70417706D01*
X191489303Y-70491961D01*
X191526565Y-70582143D01*
X191596110Y-70651810D01*
X191646163Y-70726719D01*
X191720418Y-70776335D01*
X191789355Y-70845392D01*
X191880266Y-70883142D01*
X191955176Y-70933195D01*
X192042765Y-70950618D01*
X192132883Y-70988038D01*
X192231320Y-70988124D01*
X192319682Y-71005700D01*
X200914000Y-71005700D01*
X201001591Y-70988277D01*
X201099167Y-70988362D01*
X201190143Y-70950772D01*
X201278506Y-70933195D01*
X201352761Y-70883579D01*
X201442943Y-70846317D01*
X201512610Y-70776772D01*
X201587519Y-70726719D01*
X201637135Y-70652464D01*
X201706192Y-70583527D01*
X201743942Y-70492616D01*
X201793995Y-70417706D01*
X201811418Y-70330117D01*
X201848838Y-70239999D01*
X201848924Y-70141562D01*
X201866500Y-70053200D01*
X201849077Y-69965609D01*
X201849162Y-69868033D01*
X201811572Y-69777057D01*
X201793995Y-69688694D01*
X201744379Y-69614439D01*
X201707117Y-69524257D01*
X201637572Y-69454590D01*
X201587519Y-69379681D01*
X201513264Y-69330065D01*
X201444327Y-69261008D01*
X201353416Y-69223258D01*
X201278506Y-69173205D01*
X201190917Y-69155782D01*
X201100799Y-69118362D01*
X201002362Y-69118276D01*
X200914000Y-69100700D01*
X192319682Y-69100700D01*
X192232091Y-69118123D01*
X192134515Y-69118038D01*
X192043539Y-69155628D01*
X191955176Y-69173205D01*
X191880921Y-69222821D01*
X191790739Y-69260083D01*
X191721072Y-69329628D01*
X191646163Y-69379681D01*
X191596547Y-69453936D01*
X191527490Y-69522873D01*
X191489740Y-69613784D01*
X191439687Y-69688694D01*
X191422264Y-69776283D01*
X191384844Y-69866401D01*
X191384758Y-69964838D01*
X191367182Y-70053200D01*
X184175400Y-70053200D01*
X184175400Y-61939034D01*
X184308543Y-61939034D01*
X184708853Y-62907858D01*
X185449443Y-63649742D01*
X186417567Y-64051742D01*
X187465834Y-64052657D01*
X188434658Y-63652347D01*
X189176542Y-62911757D01*
X189578542Y-61943633D01*
X189579166Y-61227834D01*
X215398143Y-61227834D01*
X215798453Y-62196658D01*
X216539043Y-62938542D01*
X217507167Y-63340542D01*
X218555434Y-63341457D01*
X219524258Y-62941147D01*
X220266142Y-62200557D01*
X220668142Y-61232433D01*
X220669057Y-60184166D01*
X220268747Y-59215342D01*
X219528157Y-58473458D01*
X218560033Y-58071458D01*
X217511766Y-58070543D01*
X216542942Y-58470853D01*
X215801058Y-59211443D01*
X215399058Y-60179567D01*
X215398143Y-61227834D01*
X189579166Y-61227834D01*
X189579457Y-60895366D01*
X189179147Y-59926542D01*
X188438557Y-59184658D01*
X187470433Y-58782658D01*
X186422166Y-58781743D01*
X185453342Y-59182053D01*
X184711458Y-59922643D01*
X184309458Y-60890767D01*
X184308543Y-61939034D01*
X184175400Y-61939034D01*
X184175400Y-57480376D01*
X220701107Y-57530826D01*
G36*
X181096073Y-75048085D02*
X180214953Y-74165426D01*
X179063126Y-73687146D01*
X177815946Y-73686057D01*
X176663285Y-74162327D01*
X175780626Y-75043447D01*
X175302346Y-76195274D01*
X175301257Y-77442454D01*
X175777527Y-78595115D01*
X176658647Y-79477774D01*
X177602269Y-79869600D01*
X151964524Y-79869600D01*
X152905315Y-79480873D01*
X153787974Y-78599753D01*
X154266254Y-77447926D01*
X154267343Y-76200746D01*
X153791073Y-75048085D01*
X152909953Y-74165426D01*
X151758126Y-73687146D01*
X150510946Y-73686057D01*
X149358285Y-74162327D01*
X148475626Y-75043447D01*
X148083800Y-75987069D01*
X148083800Y-51619324D01*
X148472527Y-52560115D01*
X149353647Y-53442774D01*
X150505474Y-53921054D01*
X151752654Y-53922143D01*
X152905315Y-53445873D01*
X153787974Y-52564753D01*
X154266254Y-51412926D01*
X154267343Y-50165746D01*
X153791073Y-49013085D01*
X152909953Y-48130426D01*
X151966331Y-47738600D01*
X159378628Y-47738600D01*
X159378628Y-47914138D01*
X158398039Y-48319309D01*
X157647145Y-49068893D01*
X157240264Y-50048773D01*
X157239338Y-51109772D01*
X157644509Y-52090361D01*
X158265923Y-52712861D01*
X158265923Y-67789328D01*
X157947168Y-67949095D01*
X157637205Y-68739817D01*
X157653433Y-69588966D01*
X157947168Y-70298105D01*
X158265923Y-70457872D01*
X159600195Y-69123600D01*
X158265923Y-67789328D01*
X158265923Y-52712861D01*
X158394093Y-52841255D01*
X159373973Y-53248136D01*
X160163583Y-53248825D01*
X160163583Y-66981005D01*
X159314434Y-66997233D01*
X158605295Y-67290968D01*
X158445528Y-67609723D01*
X159779800Y-68943995D01*
X159779800Y-69303205D01*
X158445528Y-70637477D01*
X158605295Y-70956232D01*
X159396017Y-71266195D01*
X160245166Y-71249967D01*
X160954305Y-70956232D01*
X161114072Y-70637477D01*
X159779800Y-69303205D01*
X159779800Y-68943995D01*
X161114072Y-67609723D01*
X160954305Y-67290968D01*
X160163583Y-66981005D01*
X160163583Y-53248825D01*
X160434972Y-53249062D01*
X161293677Y-52894253D01*
X161293677Y-67789328D01*
X159959405Y-69123600D01*
X161293677Y-70457872D01*
X161612432Y-70298105D01*
X161922395Y-69507383D01*
X161906167Y-68658234D01*
X161612432Y-67949095D01*
X161293677Y-67789328D01*
X161293677Y-52894253D01*
X161415561Y-52843891D01*
X162166455Y-52094307D01*
X162573336Y-51114427D01*
X162574262Y-50053428D01*
X162169091Y-49072839D01*
X161419507Y-48321945D01*
X160439627Y-47915064D01*
X159378628Y-47914138D01*
X159378628Y-47738600D01*
X167633402Y-47738600D01*
X167633402Y-65070790D01*
X167123963Y-65281286D01*
X166891737Y-65513107D01*
X166661687Y-65282656D01*
X166152616Y-65071271D01*
X165601402Y-65070790D01*
X165091963Y-65281286D01*
X164701856Y-65670713D01*
X164605825Y-65901981D01*
X164511114Y-65672763D01*
X164121687Y-65282656D01*
X163612616Y-65071271D01*
X163061402Y-65070790D01*
X162551963Y-65281286D01*
X162161856Y-65670713D01*
X161950471Y-66179784D01*
X161949990Y-66730998D01*
X162160486Y-67240437D01*
X162549913Y-67630544D01*
X163058984Y-67841929D01*
X163610198Y-67842410D01*
X164119637Y-67631914D01*
X164509744Y-67242487D01*
X164605775Y-67011219D01*
X164700486Y-67240437D01*
X165089913Y-67630544D01*
X165598984Y-67841929D01*
X166150198Y-67842410D01*
X166659637Y-67631914D01*
X166891863Y-67400093D01*
X167121913Y-67630544D01*
X167630984Y-67841929D01*
X168182198Y-67842410D01*
X168691637Y-67631914D01*
X169081744Y-67242487D01*
X169171179Y-67027104D01*
X169234869Y-67180865D01*
X169475870Y-67248925D01*
X170268195Y-66456600D01*
X169475870Y-65664275D01*
X169234869Y-65732335D01*
X169176031Y-65897640D01*
X169083114Y-65672763D01*
X168693687Y-65282656D01*
X168184616Y-65071271D01*
X167633402Y-65070790D01*
X167633402Y-47738600D01*
X168918679Y-47738600D01*
X168918679Y-49068084D01*
X168544632Y-49292754D01*
X168145920Y-50275988D01*
X168153825Y-51336957D01*
X168544632Y-52280446D01*
X168918679Y-52505116D01*
X170637195Y-50786600D01*
X168918679Y-49068084D01*
X168918679Y-47738600D01*
X171327412Y-47738600D01*
X171327412Y-48115720D01*
X170266443Y-48123625D01*
X169322954Y-48514432D01*
X169098284Y-48888479D01*
X170816800Y-50606995D01*
X170816800Y-50966205D01*
X169098284Y-52684721D01*
X169322954Y-53058768D01*
X170306188Y-53457480D01*
X170652766Y-53454898D01*
X170652766Y-65058833D01*
X170102262Y-65086795D01*
X169723535Y-65243669D01*
X169655475Y-65484670D01*
X170447800Y-66276995D01*
X170447800Y-66636205D01*
X169655475Y-67428530D01*
X169723535Y-67669531D01*
X170242834Y-67854367D01*
X170793338Y-67826405D01*
X171172065Y-67669531D01*
X171240125Y-67428530D01*
X170447800Y-66636205D01*
X170447800Y-66276995D01*
X171240125Y-65484670D01*
X171172065Y-65243669D01*
X170652766Y-65058833D01*
X170652766Y-53454898D01*
X171367157Y-53449575D01*
X171419730Y-53427799D01*
X171419730Y-65664275D01*
X170627405Y-66456600D01*
X171419730Y-67248925D01*
X171660731Y-67180865D01*
X171845567Y-66661566D01*
X171817605Y-66111062D01*
X171660731Y-65732335D01*
X171419730Y-65664275D01*
X171419730Y-53427799D01*
X171981923Y-53194931D01*
X171981923Y-67789328D01*
X171663168Y-67949095D01*
X171353205Y-68739817D01*
X171369433Y-69588966D01*
X171663168Y-70298105D01*
X171981923Y-70457872D01*
X173316195Y-69123600D01*
X171981923Y-67789328D01*
X171981923Y-53194931D01*
X172310646Y-53058768D01*
X172535316Y-52684721D01*
X170816800Y-50966205D01*
X170816800Y-50606995D01*
X172535316Y-48888479D01*
X172310646Y-48514432D01*
X171327412Y-48115720D01*
X171327412Y-47738600D01*
X172714921Y-47738600D01*
X172714921Y-49068084D01*
X170996405Y-50786600D01*
X172714921Y-52505116D01*
X173088968Y-52280446D01*
X173487680Y-51297212D01*
X173479775Y-50236243D01*
X173088968Y-49292754D01*
X172714921Y-49068084D01*
X172714921Y-47738600D01*
X173879583Y-47738600D01*
X173879583Y-66981005D01*
X173030434Y-66997233D01*
X172321295Y-67290968D01*
X172161528Y-67609723D01*
X173495800Y-68943995D01*
X173495800Y-69303205D01*
X172161528Y-70637477D01*
X172321295Y-70956232D01*
X173112017Y-71266195D01*
X173961166Y-71249967D01*
X174670305Y-70956232D01*
X174830072Y-70637477D01*
X173495800Y-69303205D01*
X173495800Y-68943995D01*
X174830072Y-67609723D01*
X174670305Y-67290968D01*
X173879583Y-66981005D01*
X173879583Y-47738600D01*
X175009677Y-47738600D01*
X175009677Y-67789328D01*
X173675405Y-69123600D01*
X175009677Y-70457872D01*
X175328432Y-70298105D01*
X175638395Y-69507383D01*
X175622167Y-68658234D01*
X175328432Y-67949095D01*
X175009677Y-67789328D01*
X175009677Y-47738600D01*
X177604076Y-47738600D01*
X176663285Y-48127327D01*
X175780626Y-49008447D01*
X175302346Y-50160274D01*
X175301257Y-51407454D01*
X175777527Y-52560115D01*
X176658647Y-53442774D01*
X177810474Y-53921054D01*
X179057654Y-53922143D01*
X180210315Y-53445873D01*
X181092974Y-52564753D01*
X181484800Y-51621131D01*
X181484800Y-75988876D01*
X181096073Y-75048085D01*
X181096073Y-75048085D01*
G37*
X181096073Y-75048085D02*
X180214953Y-74165426D01*
X179063126Y-73687146D01*
X177815946Y-73686057D01*
X176663285Y-74162327D01*
X175780626Y-75043447D01*
X175302346Y-76195274D01*
X175301257Y-77442454D01*
X175777527Y-78595115D01*
X176658647Y-79477774D01*
X177602269Y-79869600D01*
X151964524Y-79869600D01*
X152905315Y-79480873D01*
X153787974Y-78599753D01*
X154266254Y-77447926D01*
X154267343Y-76200746D01*
X153791073Y-75048085D01*
X152909953Y-74165426D01*
X151758126Y-73687146D01*
X150510946Y-73686057D01*
X149358285Y-74162327D01*
X148475626Y-75043447D01*
X148083800Y-75987069D01*
X148083800Y-51619324D01*
X148472527Y-52560115D01*
X149353647Y-53442774D01*
X150505474Y-53921054D01*
X151752654Y-53922143D01*
X152905315Y-53445873D01*
X153787974Y-52564753D01*
X154266254Y-51412926D01*
X154267343Y-50165746D01*
X153791073Y-49013085D01*
X152909953Y-48130426D01*
X151966331Y-47738600D01*
X159378628Y-47738600D01*
X159378628Y-47914138D01*
X158398039Y-48319309D01*
X157647145Y-49068893D01*
X157240264Y-50048773D01*
X157239338Y-51109772D01*
X157644509Y-52090361D01*
X158265923Y-52712861D01*
X158265923Y-67789328D01*
X157947168Y-67949095D01*
X157637205Y-68739817D01*
X157653433Y-69588966D01*
X157947168Y-70298105D01*
X158265923Y-70457872D01*
X159600195Y-69123600D01*
X158265923Y-67789328D01*
X158265923Y-52712861D01*
X158394093Y-52841255D01*
X159373973Y-53248136D01*
X160163583Y-53248825D01*
X160163583Y-66981005D01*
X159314434Y-66997233D01*
X158605295Y-67290968D01*
X158445528Y-67609723D01*
X159779800Y-68943995D01*
X159779800Y-69303205D01*
X158445528Y-70637477D01*
X158605295Y-70956232D01*
X159396017Y-71266195D01*
X160245166Y-71249967D01*
X160954305Y-70956232D01*
X161114072Y-70637477D01*
X159779800Y-69303205D01*
X159779800Y-68943995D01*
X161114072Y-67609723D01*
X160954305Y-67290968D01*
X160163583Y-66981005D01*
X160163583Y-53248825D01*
X160434972Y-53249062D01*
X161293677Y-52894253D01*
X161293677Y-67789328D01*
X159959405Y-69123600D01*
X161293677Y-70457872D01*
X161612432Y-70298105D01*
X161922395Y-69507383D01*
X161906167Y-68658234D01*
X161612432Y-67949095D01*
X161293677Y-67789328D01*
X161293677Y-52894253D01*
X161415561Y-52843891D01*
X162166455Y-52094307D01*
X162573336Y-51114427D01*
X162574262Y-50053428D01*
X162169091Y-49072839D01*
X161419507Y-48321945D01*
X160439627Y-47915064D01*
X159378628Y-47914138D01*
X159378628Y-47738600D01*
X167633402Y-47738600D01*
X167633402Y-65070790D01*
X167123963Y-65281286D01*
X166891737Y-65513107D01*
X166661687Y-65282656D01*
X166152616Y-65071271D01*
X165601402Y-65070790D01*
X165091963Y-65281286D01*
X164701856Y-65670713D01*
X164605825Y-65901981D01*
X164511114Y-65672763D01*
X164121687Y-65282656D01*
X163612616Y-65071271D01*
X163061402Y-65070790D01*
X162551963Y-65281286D01*
X162161856Y-65670713D01*
X161950471Y-66179784D01*
X161949990Y-66730998D01*
X162160486Y-67240437D01*
X162549913Y-67630544D01*
X163058984Y-67841929D01*
X163610198Y-67842410D01*
X164119637Y-67631914D01*
X164509744Y-67242487D01*
X164605775Y-67011219D01*
X164700486Y-67240437D01*
X165089913Y-67630544D01*
X165598984Y-67841929D01*
X166150198Y-67842410D01*
X166659637Y-67631914D01*
X166891863Y-67400093D01*
X167121913Y-67630544D01*
X167630984Y-67841929D01*
X168182198Y-67842410D01*
X168691637Y-67631914D01*
X169081744Y-67242487D01*
X169171179Y-67027104D01*
X169234869Y-67180865D01*
X169475870Y-67248925D01*
X170268195Y-66456600D01*
X169475870Y-65664275D01*
X169234869Y-65732335D01*
X169176031Y-65897640D01*
X169083114Y-65672763D01*
X168693687Y-65282656D01*
X168184616Y-65071271D01*
X167633402Y-65070790D01*
X167633402Y-47738600D01*
X168918679Y-47738600D01*
X168918679Y-49068084D01*
X168544632Y-49292754D01*
X168145920Y-50275988D01*
X168153825Y-51336957D01*
X168544632Y-52280446D01*
X168918679Y-52505116D01*
X170637195Y-50786600D01*
X168918679Y-49068084D01*
X168918679Y-47738600D01*
X171327412Y-47738600D01*
X171327412Y-48115720D01*
X170266443Y-48123625D01*
X169322954Y-48514432D01*
X169098284Y-48888479D01*
X170816800Y-50606995D01*
X170816800Y-50966205D01*
X169098284Y-52684721D01*
X169322954Y-53058768D01*
X170306188Y-53457480D01*
X170652766Y-53454898D01*
X170652766Y-65058833D01*
X170102262Y-65086795D01*
X169723535Y-65243669D01*
X169655475Y-65484670D01*
X170447800Y-66276995D01*
X170447800Y-66636205D01*
X169655475Y-67428530D01*
X169723535Y-67669531D01*
X170242834Y-67854367D01*
X170793338Y-67826405D01*
X171172065Y-67669531D01*
X171240125Y-67428530D01*
X170447800Y-66636205D01*
X170447800Y-66276995D01*
X171240125Y-65484670D01*
X171172065Y-65243669D01*
X170652766Y-65058833D01*
X170652766Y-53454898D01*
X171367157Y-53449575D01*
X171419730Y-53427799D01*
X171419730Y-65664275D01*
X170627405Y-66456600D01*
X171419730Y-67248925D01*
X171660731Y-67180865D01*
X171845567Y-66661566D01*
X171817605Y-66111062D01*
X171660731Y-65732335D01*
X171419730Y-65664275D01*
X171419730Y-53427799D01*
X171981923Y-53194931D01*
X171981923Y-67789328D01*
X171663168Y-67949095D01*
X171353205Y-68739817D01*
X171369433Y-69588966D01*
X171663168Y-70298105D01*
X171981923Y-70457872D01*
X173316195Y-69123600D01*
X171981923Y-67789328D01*
X171981923Y-53194931D01*
X172310646Y-53058768D01*
X172535316Y-52684721D01*
X170816800Y-50966205D01*
X170816800Y-50606995D01*
X172535316Y-48888479D01*
X172310646Y-48514432D01*
X171327412Y-48115720D01*
X171327412Y-47738600D01*
X172714921Y-47738600D01*
X172714921Y-49068084D01*
X170996405Y-50786600D01*
X172714921Y-52505116D01*
X173088968Y-52280446D01*
X173487680Y-51297212D01*
X173479775Y-50236243D01*
X173088968Y-49292754D01*
X172714921Y-49068084D01*
X172714921Y-47738600D01*
X173879583Y-47738600D01*
X173879583Y-66981005D01*
X173030434Y-66997233D01*
X172321295Y-67290968D01*
X172161528Y-67609723D01*
X173495800Y-68943995D01*
X173495800Y-69303205D01*
X172161528Y-70637477D01*
X172321295Y-70956232D01*
X173112017Y-71266195D01*
X173961166Y-71249967D01*
X174670305Y-70956232D01*
X174830072Y-70637477D01*
X173495800Y-69303205D01*
X173495800Y-68943995D01*
X174830072Y-67609723D01*
X174670305Y-67290968D01*
X173879583Y-66981005D01*
X173879583Y-47738600D01*
X175009677Y-47738600D01*
X175009677Y-67789328D01*
X173675405Y-69123600D01*
X175009677Y-70457872D01*
X175328432Y-70298105D01*
X175638395Y-69507383D01*
X175622167Y-68658234D01*
X175328432Y-67949095D01*
X175009677Y-67789328D01*
X175009677Y-47738600D01*
X177604076Y-47738600D01*
X176663285Y-48127327D01*
X175780626Y-49008447D01*
X175302346Y-50160274D01*
X175301257Y-51407454D01*
X175777527Y-52560115D01*
X176658647Y-53442774D01*
X177810474Y-53921054D01*
X179057654Y-53922143D01*
X180210315Y-53445873D01*
X181092974Y-52564753D01*
X181484800Y-51621131D01*
X181484800Y-75988876D01*
X181096073Y-75048085D01*
M02*
