G04 #@! TF.FileFunction,Soldermask,Top*
%FSLAX46Y46*%
G04 Gerber Fmt 4.6, Leading zero omitted, Abs format (unit mm)*
G04 Created by KiCad (PCBNEW (2015-07-31 BZR 6030)-product) date Fri Sep 11 18:22:56 2015*
%MOMM*%
G01*
G04 APERTURE LIST*
%ADD10C,0.100000*%
%ADD11C,4.000000*%
%ADD12R,1.250000X1.000000*%
%ADD13R,1.000000X1.250000*%
%ADD14R,1.500000X0.600000*%
%ADD15R,1.727200X2.032000*%
%ADD16O,1.727200X2.032000*%
%ADD17R,2.032000X1.727200*%
%ADD18O,2.032000X1.727200*%
%ADD19R,0.800000X0.400000*%
%ADD20R,1.300000X0.700000*%
%ADD21R,0.700000X1.300000*%
%ADD22C,5.000000*%
%ADD23R,5.100000X2.500000*%
%ADD24C,17.800000*%
%ADD25R,0.750000X0.800000*%
%ADD26R,0.800000X0.750000*%
%ADD27R,0.400000X1.350000*%
%ADD28O,1.250000X0.950000*%
%ADD29O,1.000000X1.550000*%
%ADD30R,1.597660X1.800860*%
%ADD31R,0.900000X0.500000*%
%ADD32C,1.600000*%
%ADD33R,3.100000X1.000000*%
%ADD34R,0.650000X1.060000*%
%ADD35R,0.250000X1.000000*%
%ADD36R,1.000000X0.250000*%
%ADD37R,1.300000X0.800000*%
%ADD38R,0.800000X1.300000*%
%ADD39R,1.000000X2.000000*%
%ADD40C,1.200000*%
%ADD41R,1.200000X1.400000*%
%ADD42R,0.900000X1.700000*%
%ADD43R,0.700000X0.250000*%
%ADD44R,0.830000X1.190000*%
%ADD45R,1.397000X1.397000*%
%ADD46C,1.397000*%
%ADD47R,0.620000X1.220000*%
%ADD48R,0.660400X0.406400*%
%ADD49R,1.000000X1.600000*%
%ADD50C,1.501140*%
%ADD51C,2.999740*%
%ADD52R,3.400000X0.980000*%
%ADD53O,0.750000X0.300000*%
%ADD54O,0.300000X0.750000*%
%ADD55R,0.900000X0.900000*%
%ADD56C,4.064000*%
G04 APERTURE END LIST*
D10*
D11*
X209350400Y-46150400D03*
X173790400Y-67486400D03*
D12*
X208334400Y-51906800D03*
X208334400Y-53906800D03*
D13*
X198056800Y-67029200D03*
X196056800Y-67029200D03*
D14*
X200061600Y-63016000D03*
X200061600Y-61746000D03*
X200061600Y-60476000D03*
X200061600Y-59206000D03*
X200061600Y-57936000D03*
X200061600Y-56666000D03*
X200061600Y-55396000D03*
X194661600Y-55396000D03*
X194661600Y-56666000D03*
X194661600Y-57936000D03*
X194661600Y-59206000D03*
X194661600Y-60476000D03*
X194661600Y-61746000D03*
X194661600Y-63016000D03*
D15*
X190198800Y-47928400D03*
D16*
X192738800Y-47928400D03*
X195278800Y-47928400D03*
X197818800Y-47928400D03*
X200358800Y-47928400D03*
X202898800Y-47928400D03*
D17*
X208131200Y-64489200D03*
D18*
X208131200Y-61949200D03*
X208131200Y-59409200D03*
X208131200Y-56869200D03*
D17*
X178006800Y-61390400D03*
D18*
X178006800Y-58850400D03*
X178006800Y-56310400D03*
X178006800Y-53770400D03*
D19*
X186881600Y-66917200D03*
X186881600Y-66267200D03*
X186881600Y-65617200D03*
X184981600Y-65617200D03*
X184981600Y-66267200D03*
X184981600Y-66917200D03*
X178956800Y-49848400D03*
X178956800Y-49198400D03*
X178956800Y-48548400D03*
X177056800Y-48548400D03*
X177056800Y-49198400D03*
X177056800Y-49848400D03*
D20*
X189792400Y-63661200D03*
X189792400Y-61761200D03*
D21*
X188436000Y-59206000D03*
X190336000Y-59206000D03*
X178733200Y-66724400D03*
X180633200Y-66724400D03*
D20*
X183747200Y-58154400D03*
X183747200Y-60054400D03*
X189487600Y-53836400D03*
X189487600Y-55736400D03*
X183950400Y-47181600D03*
X183950400Y-49081600D03*
X173841200Y-57971600D03*
X173841200Y-56071600D03*
X183798000Y-54771200D03*
X183798000Y-52871200D03*
X204372000Y-51906000D03*
X204372000Y-53806000D03*
D11*
X202441600Y-68299200D03*
X209350400Y-46150400D03*
X173790400Y-67486400D03*
D12*
X208334400Y-51906800D03*
X208334400Y-53906800D03*
D13*
X198056800Y-67029200D03*
X196056800Y-67029200D03*
D14*
X200061600Y-63016000D03*
X200061600Y-61746000D03*
X200061600Y-60476000D03*
X200061600Y-59206000D03*
X200061600Y-57936000D03*
X200061600Y-56666000D03*
X200061600Y-55396000D03*
X194661600Y-55396000D03*
X194661600Y-56666000D03*
X194661600Y-57936000D03*
X194661600Y-59206000D03*
X194661600Y-60476000D03*
X194661600Y-61746000D03*
X194661600Y-63016000D03*
D15*
X190198800Y-47928400D03*
D16*
X192738800Y-47928400D03*
X195278800Y-47928400D03*
X197818800Y-47928400D03*
X200358800Y-47928400D03*
X202898800Y-47928400D03*
D17*
X208131200Y-64489200D03*
D18*
X208131200Y-61949200D03*
X208131200Y-59409200D03*
X208131200Y-56869200D03*
D17*
X178006800Y-61390400D03*
D18*
X178006800Y-58850400D03*
X178006800Y-56310400D03*
X178006800Y-53770400D03*
D19*
X186881600Y-66917200D03*
X186881600Y-66267200D03*
X186881600Y-65617200D03*
X184981600Y-65617200D03*
X184981600Y-66267200D03*
X184981600Y-66917200D03*
X178956800Y-49848400D03*
X178956800Y-49198400D03*
X178956800Y-48548400D03*
X177056800Y-48548400D03*
X177056800Y-49198400D03*
X177056800Y-49848400D03*
D20*
X189792400Y-63661200D03*
X189792400Y-61761200D03*
D21*
X188436000Y-59206000D03*
X190336000Y-59206000D03*
X178733200Y-66724400D03*
X180633200Y-66724400D03*
D20*
X183747200Y-58154400D03*
X183747200Y-60054400D03*
X189487600Y-53836400D03*
X189487600Y-55736400D03*
X183950400Y-47181600D03*
X183950400Y-49081600D03*
X173841200Y-57971600D03*
X173841200Y-56071600D03*
X183798000Y-54771200D03*
X183798000Y-52871200D03*
X204372000Y-51906000D03*
X204372000Y-53806000D03*
D11*
X202441600Y-68299200D03*
D22*
X92598200Y-50407400D03*
X116982200Y-119089000D03*
D23*
X108701800Y-46535000D03*
D24*
X108701800Y-57875000D03*
D23*
X108701800Y-69325000D03*
D13*
X78307400Y-114466200D03*
X76307400Y-114466200D03*
D25*
X75732600Y-110465000D03*
X75732600Y-111965000D03*
D12*
X74513400Y-98480200D03*
X74513400Y-100480200D03*
X73599000Y-93095400D03*
X73599000Y-95095400D03*
D25*
X77053400Y-101930600D03*
X77053400Y-103430600D03*
D26*
X80749800Y-81497000D03*
X79249800Y-81497000D03*
D25*
X82031800Y-103176600D03*
X82031800Y-101676600D03*
D13*
X105365000Y-99886600D03*
X107365000Y-99886600D03*
X78339400Y-71692600D03*
X80339400Y-71692600D03*
D26*
X112117400Y-72353000D03*
X113617400Y-72353000D03*
X105716600Y-97499000D03*
X107216600Y-97499000D03*
D27*
X78933000Y-117057000D03*
X79583000Y-117057000D03*
X80233000Y-117057000D03*
X80883000Y-117057000D03*
X81533000Y-117057000D03*
D28*
X77733000Y-117057000D03*
X82733000Y-117057000D03*
D29*
X76733000Y-119757000D03*
X83733000Y-119757000D03*
D12*
X95747800Y-84783000D03*
X95747800Y-82783000D03*
D30*
X76593660Y-51067800D03*
X73753940Y-51067800D03*
D13*
X75647000Y-106592200D03*
X77647000Y-106592200D03*
D15*
X83911400Y-74842200D03*
D16*
X86451400Y-74842200D03*
X88991400Y-74842200D03*
X91531400Y-74842200D03*
X94071400Y-74842200D03*
X96611400Y-74842200D03*
D17*
X68366600Y-77534600D03*
D18*
X68366600Y-80074600D03*
X68366600Y-82614600D03*
X68366600Y-85154600D03*
D17*
X111597400Y-109487800D03*
D18*
X111597400Y-106947800D03*
X111597400Y-104407800D03*
X111597400Y-101867800D03*
D15*
X95951000Y-118073000D03*
D16*
X98491000Y-118073000D03*
X101031000Y-118073000D03*
X103571000Y-118073000D03*
D20*
X80761800Y-85088600D03*
X80761800Y-83188600D03*
D31*
X72024200Y-75006600D03*
X72024200Y-76506600D03*
D21*
X95915400Y-88609000D03*
X97815400Y-88609000D03*
X112445800Y-94197000D03*
X110545800Y-94197000D03*
X112445800Y-97143400D03*
X110545800Y-97143400D03*
D31*
X97576600Y-56820200D03*
X97576600Y-58320200D03*
X94782600Y-56820200D03*
X94782600Y-58320200D03*
X92242600Y-56820200D03*
X92242600Y-58320200D03*
X89601000Y-56972600D03*
X89601000Y-58472600D03*
D21*
X71856600Y-51067800D03*
X69956600Y-51067800D03*
X88600200Y-110554600D03*
X90500200Y-110554600D03*
D32*
X89855000Y-61237800D03*
X89855000Y-68837800D03*
X92395000Y-61237800D03*
X92395000Y-68837800D03*
X94935000Y-61237800D03*
X94935000Y-68837800D03*
X97475000Y-61237800D03*
X97475000Y-68837800D03*
D33*
X91399400Y-104287400D03*
X91399400Y-108287400D03*
X100299400Y-104287400D03*
X100299400Y-108287400D03*
D34*
X77779800Y-111553000D03*
X78729800Y-111553000D03*
X79679800Y-111553000D03*
X79679800Y-109353000D03*
X77779800Y-109353000D03*
D35*
X86848600Y-87430200D03*
X86348600Y-87430200D03*
X85848600Y-87430200D03*
X85348600Y-87430200D03*
X84848600Y-87430200D03*
X84348600Y-87430200D03*
X83848600Y-87430200D03*
X83348600Y-87430200D03*
X82848600Y-87430200D03*
X82348600Y-87430200D03*
X81848600Y-87430200D03*
X81348600Y-87430200D03*
X80848600Y-87430200D03*
X80348600Y-87430200D03*
X79848600Y-87430200D03*
X79348600Y-87430200D03*
D36*
X77398600Y-89380200D03*
X77398600Y-89880200D03*
X77398600Y-90380200D03*
X77398600Y-90880200D03*
X77398600Y-91380200D03*
X77398600Y-91880200D03*
X77398600Y-92380200D03*
X77398600Y-92880200D03*
X77398600Y-93380200D03*
X77398600Y-93880200D03*
X77398600Y-94380200D03*
X77398600Y-94880200D03*
X77398600Y-95380200D03*
X77398600Y-95880200D03*
X77398600Y-96380200D03*
X77398600Y-96880200D03*
D35*
X79348600Y-98830200D03*
X79848600Y-98830200D03*
X80348600Y-98830200D03*
X80848600Y-98830200D03*
X81348600Y-98830200D03*
X81848600Y-98830200D03*
X82348600Y-98830200D03*
X82848600Y-98830200D03*
X83348600Y-98830200D03*
X83848600Y-98830200D03*
X84348600Y-98830200D03*
X84848600Y-98830200D03*
X85348600Y-98830200D03*
X85848600Y-98830200D03*
X86348600Y-98830200D03*
X86848600Y-98830200D03*
D36*
X88798600Y-96880200D03*
X88798600Y-96380200D03*
X88798600Y-95880200D03*
X88798600Y-95380200D03*
X88798600Y-94880200D03*
X88798600Y-94380200D03*
X88798600Y-93880200D03*
X88798600Y-93380200D03*
X88798600Y-92880200D03*
X88798600Y-92380200D03*
X88798600Y-91880200D03*
X88798600Y-91380200D03*
X88798600Y-90880200D03*
X88798600Y-90380200D03*
X88798600Y-89880200D03*
X88798600Y-89380200D03*
D37*
X82707440Y-58444040D03*
X82707440Y-59444040D03*
X82707440Y-60744040D03*
X82707440Y-61944040D03*
X82707440Y-63144040D03*
X82707440Y-64344040D03*
X82707440Y-65644040D03*
D38*
X79907440Y-55844040D03*
X78707440Y-55844040D03*
X77507440Y-55844040D03*
X76307440Y-55844040D03*
X75107440Y-55844040D03*
X73907440Y-55844040D03*
X72707440Y-55844040D03*
X71507440Y-55844040D03*
X69107440Y-55844040D03*
X70307440Y-55844040D03*
X67907440Y-55844040D03*
X66707440Y-55844040D03*
X66707440Y-69244040D03*
X67907440Y-69244040D03*
X70307440Y-69244040D03*
X69107440Y-69244040D03*
X71507440Y-69244040D03*
X72707440Y-69244040D03*
X73907440Y-69244040D03*
X75107440Y-69244040D03*
X76307440Y-69244040D03*
X77507440Y-69244040D03*
X78707440Y-69244040D03*
X79907440Y-69244040D03*
D37*
X82707440Y-66644040D03*
D39*
X104951800Y-75475000D03*
X112451800Y-75475000D03*
X109451800Y-75475000D03*
X110951800Y-75475000D03*
X107951800Y-75575000D03*
X115451800Y-75475000D03*
X106451800Y-75475000D03*
X103451800Y-75475000D03*
X113951800Y-75475000D03*
X101951800Y-75475000D03*
X101951800Y-91075000D03*
X113951800Y-91075000D03*
X103451800Y-91075000D03*
X106451800Y-91075000D03*
X115451800Y-91075000D03*
X107951800Y-91175000D03*
X110951800Y-91075000D03*
X109451800Y-91075000D03*
X112451800Y-91075000D03*
X104951800Y-91075000D03*
D40*
X107901800Y-83075000D03*
D41*
X80342600Y-103679000D03*
X80342600Y-101479000D03*
X78742600Y-103679000D03*
X78742600Y-101479000D03*
D22*
X64963000Y-118479400D03*
D11*
X169077600Y-118454000D03*
X175427600Y-89244000D03*
X131028400Y-88786800D03*
D13*
X136835600Y-102096400D03*
X138835600Y-102096400D03*
D25*
X151805600Y-114046400D03*
X151805600Y-115546400D03*
X156885600Y-114046400D03*
X156885600Y-115546400D03*
X158155600Y-107926400D03*
X158155600Y-106426400D03*
D12*
X141645600Y-109446400D03*
X141645600Y-107446400D03*
D25*
X158155600Y-104116400D03*
X158155600Y-102616400D03*
D12*
X132755600Y-109446400D03*
X132755600Y-107446400D03*
D27*
X146725600Y-118606400D03*
X147375600Y-118606400D03*
X148025600Y-118606400D03*
X148675600Y-118606400D03*
X149325600Y-118606400D03*
D28*
X145525600Y-118606400D03*
X150525600Y-118606400D03*
D29*
X144525600Y-121306400D03*
X151525600Y-121306400D03*
D31*
X144185600Y-112776400D03*
X144185600Y-114276400D03*
D17*
X175300600Y-106389000D03*
D18*
X175300600Y-108929000D03*
X175300600Y-111469000D03*
X175300600Y-114009000D03*
D42*
X155795600Y-109716400D03*
X152895600Y-109716400D03*
X150715600Y-109716400D03*
X147815600Y-109716400D03*
D20*
X158155600Y-111936400D03*
X158155600Y-110036400D03*
D43*
X153205600Y-104491400D03*
X153205600Y-104041400D03*
X153205600Y-103591400D03*
X153205600Y-103141400D03*
X153205600Y-102691400D03*
X153205600Y-102241400D03*
X150405600Y-102241400D03*
X150405600Y-102691400D03*
X150405600Y-103141400D03*
X150405600Y-103591400D03*
X150405600Y-104041400D03*
X150405600Y-104491400D03*
D44*
X151390600Y-102771400D03*
X151390600Y-103961400D03*
X152220600Y-102771400D03*
X152220600Y-103961400D03*
D45*
X142255200Y-98083200D03*
D46*
X144795200Y-98083200D03*
X147335200Y-98083200D03*
X149875200Y-98083200D03*
X152415200Y-98083200D03*
X154955200Y-98083200D03*
X157495200Y-98083200D03*
X160035200Y-98083200D03*
X162575200Y-98083200D03*
X165115200Y-98083200D03*
X165115200Y-90463200D03*
X162575200Y-90463200D03*
X160035200Y-90463200D03*
X157495200Y-90463200D03*
X154955200Y-90463200D03*
X152415200Y-90463200D03*
X149875200Y-90463200D03*
X147335200Y-90463200D03*
X144795200Y-90463200D03*
X142255200Y-90463200D03*
D47*
X136885600Y-109756400D03*
X138785600Y-109756400D03*
X136885600Y-107136400D03*
X138785600Y-107136400D03*
X137835600Y-107136400D03*
D48*
X170474600Y-104458600D03*
X170474600Y-105779400D03*
X170474600Y-105119000D03*
X172506600Y-105779400D03*
X172506600Y-104458600D03*
X165394600Y-108268600D03*
X165394600Y-109589400D03*
X165394600Y-108929000D03*
X167426600Y-109589400D03*
X167426600Y-108268600D03*
D11*
X131739600Y-119876400D03*
D22*
X130811800Y-46265400D03*
X130811800Y-72300400D03*
X158116800Y-72300400D03*
D13*
X139316800Y-54950400D03*
X137316800Y-54950400D03*
X139316800Y-58125400D03*
X137316800Y-58125400D03*
D49*
X142531800Y-53045400D03*
X145531800Y-53045400D03*
D13*
X143126800Y-60030400D03*
X141126800Y-60030400D03*
D50*
X150127800Y-61935400D03*
X147587800Y-61935400D03*
X145555800Y-61935400D03*
X143015800Y-61935400D03*
D51*
X153175800Y-64602400D03*
X139459800Y-64602400D03*
D52*
X147841800Y-56770400D03*
X147841800Y-59310400D03*
D31*
X151016800Y-57605400D03*
X151016800Y-56105400D03*
D53*
X144871800Y-57605400D03*
X144871800Y-57105400D03*
X144871800Y-56605400D03*
X144871800Y-56105400D03*
D54*
X144146800Y-55380400D03*
X143646800Y-55380400D03*
X143146800Y-55380400D03*
X142646800Y-55380400D03*
D53*
X141921800Y-56105400D03*
X141921800Y-56605400D03*
X141921800Y-57105400D03*
X141921800Y-57605400D03*
D54*
X142646800Y-58330400D03*
X143146800Y-58330400D03*
X143646800Y-58330400D03*
X144146800Y-58330400D03*
D55*
X142946800Y-56405400D03*
X142946800Y-57305400D03*
X143846800Y-56405400D03*
X143846800Y-57305400D03*
D56*
X150496800Y-46265400D03*
X139586800Y-46060400D03*
D22*
X158116800Y-46265400D03*
M02*
