M48
;DRILL file {KiCad (2015-07-31 BZR 6030)-product} date Mon Sep 14 17:18:42 2015
;FORMAT={-:-/ absolute / inch / decimal}
FMAT,2
INCH,TZ
T1C0.016
T2C0.020
T3C0.022
T4C0.031
T5C0.032
T6C0.039
T7C0.040
T8C0.091
T9C0.118
T10C0.120
%
G90
G05
M72
T1
X2.5056Y-3.4485
X2.6896Y-3.6545
X2.7216Y-2.5185
X2.7436Y-2.3665
X2.7636Y-2.6285
X2.8156Y-2.2545
X2.8376Y-1.8885
X2.8956Y-3.7405
X2.9336Y-3.9559
X2.9541Y-3.6085
X2.9861Y-2.2845
X3.0976Y-2.4205
X3.0996Y-4.3919
X3.1001Y-4.0819
X3.1141Y-3.3245
X3.1216Y-3.0425
X3.1256Y-4.2359
X3.1436Y-2.3985
X3.1476Y-3.5545
X3.1481Y-3.6165
X3.1481Y-3.6705
X3.1631Y-3.9952
X3.1776Y-3.1085
X3.1941Y-3.8345
X3.1956Y-3.0725
X3.2056Y-4.1965
X3.2276Y-3.7745
X3.2296Y-4.003
X3.2921Y-4.1365
X3.3396Y-3.6325
X3.3796Y-3.3205
X3.3901Y-4.0325
X3.4341Y-3.5985
X3.4436Y-3.7725
X3.4836Y-4.3525
X3.5596Y-3.6705
X3.5956Y-3.6305
X3.6321Y-3.6485
X3.6521Y-3.7405
X3.6696Y-3.6705
X3.6856Y-3.9045
X3.7456Y-4.1825
X3.7901Y-3.7765
X3.8201Y-3.7445
X3.8776Y-3.8145
X3.9221Y-3.8385
X3.9736Y-3.2685
X4.0596Y-3.3545
X4.1976Y-3.4885
X4.2696Y-2.7325
X4.2796Y-2.7293
X4.3116Y-3.7045
X4.3121Y-3.8265
X4.3836Y-3.4005
X4.6236Y-2.7185
X5.1766Y-4.2195
X5.4266Y-4.1695
X5.5266Y-4.1695
X5.5266Y-4.5079
X5.5766Y-4.1195
X5.6278Y-2.2207
X5.6278Y-2.2561
X5.6633Y-2.2207
X5.6633Y-2.2561
X5.7266Y-4.3695
X5.8261Y-4.0965
X5.8761Y-4.0585
X5.9266Y-4.1695
X5.9766Y-4.0695
X6.0961Y-4.0905
X6.1266Y-4.2195
X6.1751Y-4.0995
X6.2766Y-4.1695
X6.2766Y-4.4695
X6.4516Y-4.3385
X6.6016Y-4.1885
X6.6516Y-4.2635
X6.8016Y-4.0885
X6.9841Y-1.8865
X7.1201Y-2.0649
X7.1201Y-2.0649
X7.1461Y-2.4269
X7.1461Y-2.4269
X7.1681Y-1.9105
X7.1761Y-2.5069
X7.1761Y-2.5069
X7.2361Y-2.0445
X7.3481Y-2.3269
X7.3481Y-2.3269
X7.5421Y-1.9929
X7.5421Y-1.9929
X7.5481Y-2.2229
X7.5481Y-2.2229
X7.5681Y-2.3749
X7.5681Y-2.3749
X7.5861Y-2.0769
X7.5861Y-2.0769
X7.7221Y-2.5669
X7.7221Y-2.5669
X7.7761Y-2.2269
X7.7761Y-2.2269
X7.9681Y-2.0329
X7.9681Y-2.0329
X8.0501Y-2.2809
X8.0501Y-2.2809
X8.2021Y-1.9869
X8.2021Y-1.9869
X8.3281Y-1.9829
X8.3281Y-1.9829
T4
X3.5376Y-2.4109
X3.5376Y-2.7101
X3.6376Y-2.4109
X3.6376Y-2.7101
X3.7376Y-2.4109
X3.7376Y-2.7101
X3.8376Y-2.4109
X3.8376Y-2.7101
T5
X5.6006Y-3.5615
X5.6006Y-3.8615
X5.7006Y-3.5615
X5.7006Y-3.8615
X5.8006Y-3.5615
X5.8006Y-3.8615
X5.9006Y-3.5615
X5.9006Y-3.8615
X6.0006Y-3.5615
X6.0006Y-3.8615
X6.1006Y-3.5615
X6.1006Y-3.8615
X6.2006Y-3.5615
X6.2006Y-3.8615
X6.3006Y-3.5615
X6.3006Y-3.8615
X6.4006Y-3.5615
X6.4006Y-3.8615
X6.5006Y-3.5615
X6.5006Y-3.8615
T6
X5.6305Y-2.4384
X5.7305Y-2.4384
X5.8105Y-2.4384
X5.9105Y-2.4384
T7
X2.6916Y-3.0525
X2.6916Y-3.1525
X2.6916Y-3.2525
X2.6916Y-3.3525
X3.3036Y-2.9465
X3.4036Y-2.9465
X3.5036Y-2.9465
X3.6036Y-2.9465
X3.7036Y-2.9465
X3.7776Y-4.6485
X3.8036Y-2.9465
X3.8776Y-4.6485
X3.9776Y-4.6485
X4.0776Y-4.6485
X4.3936Y-4.0105
X4.3936Y-4.1105
X4.3936Y-4.2105
X4.3936Y-4.3105
X6.9016Y-4.1885
X6.9016Y-4.2885
X6.9016Y-4.3885
X6.9016Y-4.4885
X7.0081Y-2.1169
X7.0081Y-2.1169
X7.0081Y-2.2169
X7.0081Y-2.2169
X7.0081Y-2.3169
X7.0081Y-2.3169
X7.0081Y-2.4169
X7.0081Y-2.4169
X7.4881Y-1.8869
X7.4881Y-1.8869
X7.5881Y-1.8869
X7.5881Y-1.8869
X7.6881Y-1.8869
X7.6881Y-1.8869
X7.7881Y-1.8869
X7.7881Y-1.8869
X7.8881Y-1.8869
X7.8881Y-1.8869
X7.9881Y-1.8869
X7.9881Y-1.8869
X8.1941Y-2.2389
X8.1941Y-2.2389
X8.1941Y-2.3389
X8.1941Y-2.3389
X8.1941Y-2.4389
X8.1941Y-2.4389
X8.1941Y-2.5389
X8.1941Y-2.5389
T8
X5.4905Y-2.5434
X6.0305Y-2.5434
T9
X2.5576Y-4.6645
X3.6456Y-1.9845
X4.6056Y-4.6885
X5.1501Y-1.8215
X5.1501Y-2.8465
X5.1586Y-3.4955
X5.1866Y-4.7195
X6.2251Y-1.8215
X6.2251Y-2.8465
X6.6566Y-4.6635
X6.8421Y-2.6569
X6.8421Y-2.6569
X6.9066Y-3.5135
X7.9701Y-2.6889
X7.9701Y-2.6889
X8.2421Y-1.8169
X8.2421Y-1.8169
T10
X5.4955Y-1.8134
X5.9251Y-1.8215
T2
X3.021Y-4.7276G85X3.021Y-4.702
G05
X3.2966Y-4.7276G85X3.2966Y-4.702
G05
X5.69Y-4.7886G85X5.69Y-4.763
G05
X5.9656Y-4.7886G85X5.9656Y-4.763
G05
T3
X3.0544Y-4.6085G85X3.0663Y-4.6085
G05
X3.2513Y-4.6085G85X3.2631Y-4.6085
G05
X5.7234Y-4.6695G85X5.7353Y-4.6695
G05
X5.9203Y-4.6695G85X5.9321Y-4.6695
G05
T0
M30
