M48
;DRILL file {KiCad (2015-07-31 BZR 6030)-product} date Fri Sep 11 13:47:36 2015
;FORMAT={-:-/ absolute / inch / decimal}
FMAT,2
INCH,TZ
T1C0.016
T2C0.020
T3C0.022
T4C0.031
T5C0.032
T6C0.039
T7C0.040
T8C0.091
T9C0.118
T10C0.120
%
G90
G05
M72
T1
X5.544Y-4.016
X5.544Y-4.016
X5.67Y-4.012
X5.67Y-4.012
X5.822Y-3.718
X5.822Y-3.718
X5.904Y-3.966
X5.904Y-3.966
X5.9967Y-5.052
X6.036Y-5.436
X6.096Y-3.772
X6.096Y-3.772
X6.15Y-3.432
X6.15Y-3.432
X6.1526Y-5.078
X6.192Y-5.158
X6.206Y-5.698
X6.246Y-5.246
X6.286Y-3.922
X6.286Y-3.922
X6.304Y-3.624
X6.304Y-3.624
X6.3067Y-5.0525
X6.324Y-3.776
X6.324Y-3.776
X6.33Y-4.006
X6.33Y-4.006
X6.37Y-5.338
X6.3855Y-5.182
X6.3933Y-5.1155
X6.4278Y-2.3987
X6.4278Y-2.4341
X6.4326Y-4.886
X6.4633Y-2.3987
X6.4633Y-2.4341
X6.484Y-5.638
X6.524Y-3.672
X6.524Y-3.672
X6.546Y-5.15
X6.568Y-6.258
X6.57Y-5.868
X6.574Y-5.83
X6.61Y-5.774
X6.614Y-5.18
X6.616Y-5.396
X6.628Y-3.964
X6.628Y-3.964
X6.648Y-4.848
X6.652Y-5.774
X6.684Y-6.264
X6.692Y-5.652
X6.696Y-3.492
X6.696Y-3.492
X6.704Y-5.088
X6.71Y-5.578
X6.712Y-4.906
X6.718Y-5.512
X6.718Y-5.622
X6.726Y-3.572
X6.726Y-3.572
X6.734Y-4.642
X6.752Y-3.934
X6.752Y-3.934
X6.752Y-4.092
X6.752Y-4.092
X6.756Y-5.292
X6.758Y-5.548
X6.784Y-5.122
X6.79Y-5.386
X6.834Y-5.1
X6.864Y-4.04
X6.864Y-4.04
X6.9Y-6.15
X6.902Y-4.116
X6.902Y-4.116
X6.94Y-4.458
X6.988Y-6.336
X7.034Y-6.012
X7.064Y-5.062
X7.068Y-5.332
X7.12Y-5.926
X7.28Y-5.13
X7.316Y-5.148
X7.346Y-5.074
X7.5716Y-2.758
X7.61Y-3.508
X7.656Y-6.222
X7.6592Y-6.232
X7.67Y-6.576
X7.71Y-2.958
X7.741Y-3.683
X7.76Y-4.716
X7.791Y-3.883
X7.86Y-2.408
X7.86Y-3.358
X7.87Y-4.674
X7.891Y-3.833
X7.91Y-2.658
X7.91Y-2.758
X7.91Y-3.158
X7.91Y-3.508
X7.96Y-2.808
X7.96Y-3.358
X7.962Y-3.066
X7.968Y-5.05
X7.99Y-5.096
X7.991Y-4.033
X8.01Y-3.058
X8.01Y-3.208
X8.01Y-3.358
X8.022Y-4.696
X8.096Y-4.944
X8.122Y-3.11
X8.134Y-4.768
X8.5Y-4.79
T4
X7.6784Y-5.49
X7.6784Y-5.59
X7.6784Y-5.69
X7.6784Y-5.79
X7.9776Y-5.49
X7.9776Y-5.59
X7.9776Y-5.69
X7.9776Y-5.79
T5
X8.218Y-2.832
X8.218Y-2.932
X8.218Y-3.032
X8.218Y-3.132
X8.218Y-3.232
X8.218Y-3.332
X8.218Y-3.432
X8.218Y-3.532
X8.218Y-3.632
X8.218Y-3.732
X8.518Y-2.832
X8.518Y-2.932
X8.518Y-3.032
X8.518Y-3.132
X8.518Y-3.232
X8.518Y-3.332
X8.518Y-3.432
X8.518Y-3.532
X8.518Y-3.632
X8.518Y-3.732
T6
X6.4305Y-2.6164
X6.5305Y-2.6164
X6.6105Y-2.6164
X6.7105Y-2.6164
T7
X5.678Y-3.46
X5.678Y-3.46
X5.678Y-3.56
X5.678Y-3.56
X5.678Y-3.66
X5.678Y-3.66
X5.678Y-3.76
X5.678Y-3.76
X5.74Y-5.73
X5.74Y-5.83
X5.74Y-5.93
X5.74Y-6.03
X5.884Y-4.112
X5.884Y-4.112
X5.984Y-4.112
X5.984Y-4.112
X6.078Y-6.346
X6.084Y-4.112
X6.084Y-4.112
X6.178Y-6.346
X6.184Y-4.112
X6.184Y-4.112
X6.278Y-6.346
X6.284Y-4.112
X6.284Y-4.112
X6.378Y-6.346
X6.384Y-4.112
X6.384Y-4.112
X6.864Y-3.582
X6.864Y-3.582
X6.864Y-3.682
X6.864Y-3.682
X6.864Y-3.782
X6.864Y-3.782
X6.864Y-3.882
X6.864Y-3.882
X7.036Y-4.644
X7.136Y-4.644
X7.236Y-4.644
X7.336Y-4.644
X7.442Y-5.256
X7.442Y-5.356
X7.442Y-5.456
X7.442Y-5.556
X7.442Y-5.656
X7.442Y-5.756
X7.591Y-4.133
X7.691Y-4.133
X7.791Y-4.133
X7.891Y-4.133
T8
X6.2905Y-2.7214
X6.8305Y-2.7214
T9
X5.63Y-4.182
X5.63Y-4.182
X5.7Y-6.558
X5.724Y-4.51
X5.902Y-3.31
X5.902Y-3.31
X5.9501Y-1.9995
X5.9501Y-3.0245
X7.0251Y-1.9995
X7.0251Y-3.0245
X7.03Y-3.342
X7.03Y-3.342
X7.36Y-2.418
X7.416Y-3.888
X8.404Y-5.598
X8.566Y-4.138
X8.584Y-2.39
T10
X6.2955Y-1.9914
X6.7251Y-1.9995
T2
X5.6609Y-4.9734G85X5.6865Y-4.9734
G05
X5.6609Y-5.249G85X5.6865Y-5.249
G05
X7.2909Y-2.9214G85X7.3165Y-2.9214
G05
X7.2909Y-3.197G85X7.3165Y-3.197
G05
T3
X5.78Y-5.0069G85X5.78Y-5.0187
G05
X5.78Y-5.2037G85X5.78Y-5.2155
G05
X7.41Y-2.9549G85X7.41Y-2.9667
G05
X7.41Y-3.1517G85X7.41Y-3.1635
G05
T0
M30
