G04 #@! TF.FileFunction,Soldermask,Top*
%FSLAX46Y46*%
G04 Gerber Fmt 4.6, Leading zero omitted, Abs format (unit mm)*
G04 Created by KiCad (PCBNEW (2015-07-31 BZR 6030)-product) date Fri Sep 11 13:46:34 2015*
%MOMM*%
G01*
G04 APERTURE LIST*
%ADD10C,0.100000*%
%ADD11C,4.000000*%
%ADD12R,1.250000X1.000000*%
%ADD13R,1.000000X1.250000*%
%ADD14R,1.500000X0.600000*%
%ADD15R,1.727200X2.032000*%
%ADD16O,1.727200X2.032000*%
%ADD17R,2.032000X1.727200*%
%ADD18O,2.032000X1.727200*%
%ADD19R,0.800000X0.400000*%
%ADD20R,1.300000X0.700000*%
%ADD21R,0.700000X1.300000*%
%ADD22C,5.000000*%
%ADD23R,2.500000X5.100000*%
%ADD24C,17.800000*%
%ADD25R,0.800000X0.750000*%
%ADD26R,0.750000X0.800000*%
%ADD27R,1.350000X0.400000*%
%ADD28O,0.950000X1.250000*%
%ADD29O,1.550000X1.000000*%
%ADD30R,1.800860X1.597660*%
%ADD31R,0.500000X0.900000*%
%ADD32C,1.600000*%
%ADD33R,1.000000X3.100000*%
%ADD34R,1.060000X0.650000*%
%ADD35R,1.000000X0.250000*%
%ADD36R,0.250000X1.000000*%
%ADD37R,0.800000X1.300000*%
%ADD38R,1.300000X0.800000*%
%ADD39R,2.000000X1.000000*%
%ADD40C,1.200000*%
%ADD41R,1.400000X1.200000*%
%ADD42R,1.700000X0.900000*%
%ADD43R,0.250000X0.700000*%
%ADD44R,1.190000X0.830000*%
%ADD45R,1.397000X1.397000*%
%ADD46C,1.397000*%
%ADD47R,1.220000X0.620000*%
%ADD48R,0.406400X0.660400*%
%ADD49R,1.000000X1.600000*%
%ADD50C,1.501140*%
%ADD51C,2.999740*%
%ADD52R,3.400000X0.980000*%
%ADD53R,0.900000X0.500000*%
%ADD54O,0.750000X0.300000*%
%ADD55O,0.300000X0.750000*%
%ADD56R,0.900000X0.900000*%
%ADD57C,4.064000*%
G04 APERTURE END LIST*
D10*
D11*
X143002000Y-106222800D03*
X178562000Y-84886800D03*
D12*
X144018000Y-100466400D03*
X144018000Y-98466400D03*
D13*
X154295600Y-85344000D03*
X156295600Y-85344000D03*
D14*
X152290800Y-89357200D03*
X152290800Y-90627200D03*
X152290800Y-91897200D03*
X152290800Y-93167200D03*
X152290800Y-94437200D03*
X152290800Y-95707200D03*
X152290800Y-96977200D03*
X157690800Y-96977200D03*
X157690800Y-95707200D03*
X157690800Y-94437200D03*
X157690800Y-93167200D03*
X157690800Y-91897200D03*
X157690800Y-90627200D03*
X157690800Y-89357200D03*
D15*
X162153600Y-104444800D03*
D16*
X159613600Y-104444800D03*
X157073600Y-104444800D03*
X154533600Y-104444800D03*
X151993600Y-104444800D03*
X149453600Y-104444800D03*
D17*
X144221200Y-87884000D03*
D18*
X144221200Y-90424000D03*
X144221200Y-92964000D03*
X144221200Y-95504000D03*
D17*
X174345600Y-90982800D03*
D18*
X174345600Y-93522800D03*
X174345600Y-96062800D03*
X174345600Y-98602800D03*
D19*
X165470800Y-85456000D03*
X165470800Y-86106000D03*
X165470800Y-86756000D03*
X167370800Y-86756000D03*
X167370800Y-86106000D03*
X167370800Y-85456000D03*
X173395600Y-102524800D03*
X173395600Y-103174800D03*
X173395600Y-103824800D03*
X175295600Y-103824800D03*
X175295600Y-103174800D03*
X175295600Y-102524800D03*
D20*
X162560000Y-88712000D03*
X162560000Y-90612000D03*
D21*
X163916400Y-93167200D03*
X162016400Y-93167200D03*
X173619200Y-85648800D03*
X171719200Y-85648800D03*
D20*
X168605200Y-94218800D03*
X168605200Y-92318800D03*
X162864800Y-98536800D03*
X162864800Y-96636800D03*
X168402000Y-105191600D03*
X168402000Y-103291600D03*
X178511200Y-94401600D03*
X178511200Y-96301600D03*
X168554400Y-97602000D03*
X168554400Y-99502000D03*
X147980400Y-100467200D03*
X147980400Y-98567200D03*
D11*
X149910800Y-84074000D03*
X143002000Y-106222800D03*
X178562000Y-84886800D03*
D12*
X144018000Y-100466400D03*
X144018000Y-98466400D03*
D13*
X154295600Y-85344000D03*
X156295600Y-85344000D03*
D14*
X152290800Y-89357200D03*
X152290800Y-90627200D03*
X152290800Y-91897200D03*
X152290800Y-93167200D03*
X152290800Y-94437200D03*
X152290800Y-95707200D03*
X152290800Y-96977200D03*
X157690800Y-96977200D03*
X157690800Y-95707200D03*
X157690800Y-94437200D03*
X157690800Y-93167200D03*
X157690800Y-91897200D03*
X157690800Y-90627200D03*
X157690800Y-89357200D03*
D15*
X162153600Y-104444800D03*
D16*
X159613600Y-104444800D03*
X157073600Y-104444800D03*
X154533600Y-104444800D03*
X151993600Y-104444800D03*
X149453600Y-104444800D03*
D17*
X144221200Y-87884000D03*
D18*
X144221200Y-90424000D03*
X144221200Y-92964000D03*
X144221200Y-95504000D03*
D17*
X174345600Y-90982800D03*
D18*
X174345600Y-93522800D03*
X174345600Y-96062800D03*
X174345600Y-98602800D03*
D19*
X165470800Y-85456000D03*
X165470800Y-86106000D03*
X165470800Y-86756000D03*
X167370800Y-86756000D03*
X167370800Y-86106000D03*
X167370800Y-85456000D03*
X173395600Y-102524800D03*
X173395600Y-103174800D03*
X173395600Y-103824800D03*
X175295600Y-103824800D03*
X175295600Y-103174800D03*
X175295600Y-102524800D03*
D20*
X162560000Y-88712000D03*
X162560000Y-90612000D03*
D21*
X163916400Y-93167200D03*
X162016400Y-93167200D03*
X173619200Y-85648800D03*
X171719200Y-85648800D03*
D20*
X168605200Y-94218800D03*
X168605200Y-92318800D03*
X162864800Y-98536800D03*
X162864800Y-96636800D03*
X168402000Y-105191600D03*
X168402000Y-103291600D03*
X178511200Y-94401600D03*
X178511200Y-96301600D03*
X168554400Y-97602000D03*
X168554400Y-99502000D03*
X147980400Y-100467200D03*
X147980400Y-98567200D03*
D11*
X149910800Y-84074000D03*
D22*
X213461600Y-142189200D03*
X144780000Y-166573200D03*
D23*
X217334000Y-158292800D03*
D24*
X205994000Y-158292800D03*
D23*
X194544000Y-158292800D03*
D12*
X149402800Y-127898400D03*
X149402800Y-125898400D03*
D25*
X153404000Y-125323600D03*
X151904000Y-125323600D03*
D13*
X165388800Y-124104400D03*
X163388800Y-124104400D03*
X170773600Y-123190000D03*
X168773600Y-123190000D03*
D25*
X161938400Y-126644400D03*
X160438400Y-126644400D03*
D26*
X182372000Y-130340800D03*
X182372000Y-128840800D03*
D25*
X160692400Y-131622800D03*
X162192400Y-131622800D03*
D12*
X163982400Y-154956000D03*
X163982400Y-156956000D03*
X192176400Y-127930400D03*
X192176400Y-129930400D03*
D26*
X191516000Y-161708400D03*
X191516000Y-163208400D03*
X166370000Y-155307600D03*
X166370000Y-156807600D03*
D27*
X146812000Y-128524000D03*
X146812000Y-129174000D03*
X146812000Y-129824000D03*
X146812000Y-130474000D03*
X146812000Y-131124000D03*
D28*
X146812000Y-127324000D03*
X146812000Y-132324000D03*
D29*
X144112000Y-126324000D03*
X144112000Y-133324000D03*
D13*
X179086000Y-145338800D03*
X181086000Y-145338800D03*
D30*
X212801200Y-126184660D03*
X212801200Y-123344940D03*
D12*
X157276800Y-125238000D03*
X157276800Y-127238000D03*
D17*
X189026800Y-133502400D03*
D18*
X189026800Y-136042400D03*
X189026800Y-138582400D03*
X189026800Y-141122400D03*
X189026800Y-143662400D03*
X189026800Y-146202400D03*
D15*
X186334400Y-117957600D03*
D16*
X183794400Y-117957600D03*
X181254400Y-117957600D03*
X178714400Y-117957600D03*
D15*
X154381200Y-161188400D03*
D16*
X156921200Y-161188400D03*
X159461200Y-161188400D03*
X162001200Y-161188400D03*
D17*
X145796000Y-145542000D03*
D18*
X145796000Y-148082000D03*
X145796000Y-150622000D03*
X145796000Y-153162000D03*
D21*
X178780400Y-130352800D03*
X180680400Y-130352800D03*
D31*
X188862400Y-121615200D03*
X187362400Y-121615200D03*
D20*
X175260000Y-145506400D03*
X175260000Y-147406400D03*
X169672000Y-162036800D03*
X169672000Y-160136800D03*
X166725600Y-162036800D03*
X166725600Y-160136800D03*
D31*
X207048800Y-147167600D03*
X205548800Y-147167600D03*
X207048800Y-144373600D03*
X205548800Y-144373600D03*
X207048800Y-141833600D03*
X205548800Y-141833600D03*
X206896400Y-139192000D03*
X205396400Y-139192000D03*
D20*
X212801200Y-121447600D03*
X212801200Y-119547600D03*
X153314400Y-138191200D03*
X153314400Y-140091200D03*
D32*
X202631200Y-139446000D03*
X195031200Y-139446000D03*
X202631200Y-141986000D03*
X195031200Y-141986000D03*
X202631200Y-144526000D03*
X195031200Y-144526000D03*
X202631200Y-147066000D03*
X195031200Y-147066000D03*
D33*
X159581600Y-140990400D03*
X155581600Y-140990400D03*
X159581600Y-149890400D03*
X155581600Y-149890400D03*
D34*
X152316000Y-127370800D03*
X152316000Y-128320800D03*
X152316000Y-129270800D03*
X154516000Y-129270800D03*
X154516000Y-127370800D03*
D35*
X176438800Y-136439600D03*
X176438800Y-135939600D03*
X176438800Y-135439600D03*
X176438800Y-134939600D03*
X176438800Y-134439600D03*
X176438800Y-133939600D03*
X176438800Y-133439600D03*
X176438800Y-132939600D03*
X176438800Y-132439600D03*
X176438800Y-131939600D03*
X176438800Y-131439600D03*
X176438800Y-130939600D03*
X176438800Y-130439600D03*
X176438800Y-129939600D03*
X176438800Y-129439600D03*
X176438800Y-128939600D03*
D36*
X174488800Y-126989600D03*
X173988800Y-126989600D03*
X173488800Y-126989600D03*
X172988800Y-126989600D03*
X172488800Y-126989600D03*
X171988800Y-126989600D03*
X171488800Y-126989600D03*
X170988800Y-126989600D03*
X170488800Y-126989600D03*
X169988800Y-126989600D03*
X169488800Y-126989600D03*
X168988800Y-126989600D03*
X168488800Y-126989600D03*
X167988800Y-126989600D03*
X167488800Y-126989600D03*
X166988800Y-126989600D03*
D35*
X165038800Y-128939600D03*
X165038800Y-129439600D03*
X165038800Y-129939600D03*
X165038800Y-130439600D03*
X165038800Y-130939600D03*
X165038800Y-131439600D03*
X165038800Y-131939600D03*
X165038800Y-132439600D03*
X165038800Y-132939600D03*
X165038800Y-133439600D03*
X165038800Y-133939600D03*
X165038800Y-134439600D03*
X165038800Y-134939600D03*
X165038800Y-135439600D03*
X165038800Y-135939600D03*
X165038800Y-136439600D03*
D36*
X166988800Y-138389600D03*
X167488800Y-138389600D03*
X167988800Y-138389600D03*
X168488800Y-138389600D03*
X168988800Y-138389600D03*
X169488800Y-138389600D03*
X169988800Y-138389600D03*
X170488800Y-138389600D03*
X170988800Y-138389600D03*
X171488800Y-138389600D03*
X171988800Y-138389600D03*
X172488800Y-138389600D03*
X172988800Y-138389600D03*
X173488800Y-138389600D03*
X173988800Y-138389600D03*
X174488800Y-138389600D03*
D37*
X205424960Y-132298440D03*
X204424960Y-132298440D03*
X203124960Y-132298440D03*
X201924960Y-132298440D03*
X200724960Y-132298440D03*
X199524960Y-132298440D03*
X198224960Y-132298440D03*
D38*
X208024960Y-129498440D03*
X208024960Y-128298440D03*
X208024960Y-127098440D03*
X208024960Y-125898440D03*
X208024960Y-124698440D03*
X208024960Y-123498440D03*
X208024960Y-122298440D03*
X208024960Y-121098440D03*
X208024960Y-118698440D03*
X208024960Y-119898440D03*
X208024960Y-117498440D03*
X208024960Y-116298440D03*
X194624960Y-116298440D03*
X194624960Y-117498440D03*
X194624960Y-119898440D03*
X194624960Y-118698440D03*
X194624960Y-121098440D03*
X194624960Y-122298440D03*
X194624960Y-123498440D03*
X194624960Y-124698440D03*
X194624960Y-125898440D03*
X194624960Y-127098440D03*
X194624960Y-128298440D03*
X194624960Y-129498440D03*
D37*
X197224960Y-132298440D03*
D39*
X188394000Y-154542800D03*
X188394000Y-162042800D03*
X188394000Y-159042800D03*
X188394000Y-160542800D03*
X188294000Y-157542800D03*
X188394000Y-165042800D03*
X188394000Y-156042800D03*
X188394000Y-153042800D03*
X188394000Y-163542800D03*
X188394000Y-151542800D03*
X172794000Y-151542800D03*
X172794000Y-163542800D03*
X172794000Y-153042800D03*
X172794000Y-156042800D03*
X172794000Y-165042800D03*
X172694000Y-157542800D03*
X172794000Y-160542800D03*
X172794000Y-159042800D03*
X172794000Y-162042800D03*
X172794000Y-154542800D03*
D40*
X180794000Y-157492800D03*
D41*
X160190000Y-129933600D03*
X162390000Y-129933600D03*
X160190000Y-128333600D03*
X162390000Y-128333600D03*
D22*
X145389600Y-114554000D03*
D11*
X188366400Y-98755200D03*
X217576400Y-105105200D03*
X218033600Y-60706000D03*
D12*
X204724000Y-66513200D03*
X204724000Y-68513200D03*
D25*
X192774000Y-81483200D03*
X191274000Y-81483200D03*
X192774000Y-86563200D03*
X191274000Y-86563200D03*
X198894000Y-87833200D03*
X200394000Y-87833200D03*
D13*
X197374000Y-71323200D03*
X199374000Y-71323200D03*
D25*
X202704000Y-87833200D03*
X204204000Y-87833200D03*
D13*
X197374000Y-62433200D03*
X199374000Y-62433200D03*
D27*
X188214000Y-76403200D03*
X188214000Y-77053200D03*
X188214000Y-77703200D03*
X188214000Y-78353200D03*
X188214000Y-79003200D03*
D28*
X188214000Y-75203200D03*
X188214000Y-80203200D03*
D29*
X185514000Y-74203200D03*
X185514000Y-81203200D03*
D31*
X194044000Y-73863200D03*
X192544000Y-73863200D03*
D15*
X200431400Y-104978200D03*
D16*
X197891400Y-104978200D03*
X195351400Y-104978200D03*
X192811400Y-104978200D03*
D42*
X197104000Y-85473200D03*
X197104000Y-82573200D03*
X197104000Y-80393200D03*
X197104000Y-77493200D03*
D21*
X194884000Y-87833200D03*
X196784000Y-87833200D03*
D43*
X202329000Y-82883200D03*
X202779000Y-82883200D03*
X203229000Y-82883200D03*
X203679000Y-82883200D03*
X204129000Y-82883200D03*
X204579000Y-82883200D03*
X204579000Y-80083200D03*
X204129000Y-80083200D03*
X203679000Y-80083200D03*
X203229000Y-80083200D03*
X202779000Y-80083200D03*
X202329000Y-80083200D03*
D44*
X204049000Y-81068200D03*
X202859000Y-81068200D03*
X204049000Y-81898200D03*
X202859000Y-81898200D03*
D45*
X208737200Y-71932800D03*
D46*
X208737200Y-74472800D03*
X208737200Y-77012800D03*
X208737200Y-79552800D03*
X208737200Y-82092800D03*
X208737200Y-84632800D03*
X208737200Y-87172800D03*
X208737200Y-89712800D03*
X208737200Y-92252800D03*
X208737200Y-94792800D03*
X216357200Y-94792800D03*
X216357200Y-92252800D03*
X216357200Y-89712800D03*
X216357200Y-87172800D03*
X216357200Y-84632800D03*
X216357200Y-82092800D03*
X216357200Y-79552800D03*
X216357200Y-77012800D03*
X216357200Y-74472800D03*
X216357200Y-71932800D03*
D47*
X197064000Y-66563200D03*
X197064000Y-68463200D03*
X199684000Y-66563200D03*
X199684000Y-68463200D03*
X199684000Y-67513200D03*
D48*
X202361800Y-100152200D03*
X201041000Y-100152200D03*
X201701400Y-100152200D03*
X201041000Y-102184200D03*
X202361800Y-102184200D03*
X198551800Y-95072200D03*
X197231000Y-95072200D03*
X197891400Y-95072200D03*
X197231000Y-97104200D03*
X198551800Y-97104200D03*
D11*
X186944000Y-61417200D03*
D22*
X151131800Y-50786600D03*
X151131800Y-76821600D03*
X178436800Y-76821600D03*
D13*
X159636800Y-59471600D03*
X157636800Y-59471600D03*
X159636800Y-62646600D03*
X157636800Y-62646600D03*
D49*
X162851800Y-57566600D03*
X165851800Y-57566600D03*
D13*
X163446800Y-64551600D03*
X161446800Y-64551600D03*
D50*
X170447800Y-66456600D03*
X167907800Y-66456600D03*
X165875800Y-66456600D03*
X163335800Y-66456600D03*
D51*
X173495800Y-69123600D03*
X159779800Y-69123600D03*
D52*
X168161800Y-61291600D03*
X168161800Y-63831600D03*
D53*
X171336800Y-62126600D03*
X171336800Y-60626600D03*
D54*
X165191800Y-62126600D03*
X165191800Y-61626600D03*
X165191800Y-61126600D03*
X165191800Y-60626600D03*
D55*
X164466800Y-59901600D03*
X163966800Y-59901600D03*
X163466800Y-59901600D03*
X162966800Y-59901600D03*
D54*
X162241800Y-60626600D03*
X162241800Y-61126600D03*
X162241800Y-61626600D03*
X162241800Y-62126600D03*
D55*
X162966800Y-62851600D03*
X163466800Y-62851600D03*
X163966800Y-62851600D03*
X164466800Y-62851600D03*
D56*
X163266800Y-60926600D03*
X163266800Y-61826600D03*
X164166800Y-60926600D03*
X164166800Y-61826600D03*
D57*
X170816800Y-50786600D03*
X159906800Y-50581600D03*
D22*
X178436800Y-50786600D03*
M02*
