%FSLAX45Y45*%
G04 Gerber Fmt 4.5, Leading zero omitted, Abs format (unit mm)*
G04 Created by KiCad (PCBNEW (2015-07-31 BZR 6030)-product) date Mon Sep  7 22:06:34 2015*
%MOMM*%
G01*
G04 APERTURE LIST*
%ADD10C,0.127000*%
%ADD11C,0.100000*%
%ADD12C,0.200000*%
%ADD13C,0.300000*%
G04 APERTURE END LIST*
D10*
D11*
X13995400Y-7772400D02*
X14005560Y-7782560D01*
X13995400Y-10652760D02*
X13995400Y-7772400D01*
X18338800Y-10652760D02*
X13995400Y-10652760D01*
X18338800Y-7777480D02*
X18338800Y-10652760D01*
X14010640Y-7777480D02*
X18338800Y-7777480D01*
D12*
X14193840Y-9875840D02*
X14233840Y-9915840D01*
X14233840Y-9875840D02*
X14193840Y-9915840D01*
X14513880Y-9865680D02*
X14553880Y-9905680D01*
X14553880Y-9865680D02*
X14513880Y-9905680D01*
X14899960Y-9118920D02*
X14939960Y-9158920D01*
X14939960Y-9118920D02*
X14899960Y-9158920D01*
X15108240Y-9748840D02*
X15148240Y-9788840D01*
X15148240Y-9748840D02*
X15108240Y-9788840D01*
X15595920Y-9256080D02*
X15635920Y-9296080D01*
X15635920Y-9256080D02*
X15595920Y-9296080D01*
X15733080Y-8392480D02*
X15773080Y-8432480D01*
X15773080Y-8392480D02*
X15733080Y-8432480D01*
X16078520Y-9637080D02*
X16118520Y-9677080D01*
X16118520Y-9637080D02*
X16078520Y-9677080D01*
X16124240Y-8880160D02*
X16164240Y-8920160D01*
X16164240Y-8880160D02*
X16124240Y-8920160D01*
X16175040Y-9266240D02*
X16215040Y-9306240D01*
X16215040Y-9266240D02*
X16175040Y-9306240D01*
X16190280Y-9850440D02*
X16230280Y-9890440D01*
X16230280Y-9850440D02*
X16190280Y-9890440D01*
X16683040Y-9002080D02*
X16723040Y-9042080D01*
X16723040Y-9002080D02*
X16683040Y-9042080D01*
X16947200Y-9743760D02*
X16987200Y-9783760D01*
X16987200Y-9743760D02*
X16947200Y-9783760D01*
X17119920Y-8544880D02*
X17159920Y-8584880D01*
X17159920Y-8544880D02*
X17119920Y-8584880D01*
X17196120Y-8748080D02*
X17236120Y-8788080D01*
X17236120Y-8748080D02*
X17196120Y-8788080D01*
X17262160Y-9667560D02*
X17302160Y-9707560D01*
X17302160Y-9667560D02*
X17262160Y-9707560D01*
X17262160Y-10068880D02*
X17302160Y-10108880D01*
X17302160Y-10068880D02*
X17262160Y-10108880D01*
X17546640Y-9936800D02*
X17586640Y-9976800D01*
X17586640Y-9936800D02*
X17546640Y-9976800D01*
X17643160Y-10129840D02*
X17683160Y-10169840D01*
X17683160Y-10129840D02*
X17643160Y-10169840D01*
X14605000Y-8483600D02*
G75*
G03X14605000Y-8483600I-50800J0D01*
G01*
X14605000Y-8737600D02*
G75*
G03X14605000Y-8737600I-50800J0D01*
G01*
X14605000Y-8991600D02*
G75*
G03X14605000Y-8991600I-50800J0D01*
G01*
X14605000Y-9245600D02*
G75*
G03X14605000Y-9245600I-50800J0D01*
G01*
X15128240Y-10139680D02*
G75*
G03X15128240Y-10139680I-50800J0D01*
G01*
X15382240Y-10139680D02*
G75*
G03X15382240Y-10139680I-50800J0D01*
G01*
X15636240Y-10139680D02*
G75*
G03X15636240Y-10139680I-50800J0D01*
G01*
X15890240Y-10139680D02*
G75*
G03X15890240Y-10139680I-50800J0D01*
G01*
X16144240Y-10139680D02*
G75*
G03X16144240Y-10139680I-50800J0D01*
G01*
X16398240Y-10139680D02*
G75*
G03X16398240Y-10139680I-50800J0D01*
G01*
X17617440Y-8793480D02*
G75*
G03X17617440Y-8793480I-50800J0D01*
G01*
X17617440Y-9047480D02*
G75*
G03X17617440Y-9047480I-50800J0D01*
G01*
X17617440Y-9301480D02*
G75*
G03X17617440Y-9301480I-50800J0D01*
G01*
X17617440Y-9555480D02*
G75*
G03X17617440Y-9555480I-50800J0D01*
G01*
X14432280Y-10167480D02*
X14432280Y-10467480D01*
X14282280Y-10317480D02*
X14582280Y-10317480D01*
X15123160Y-7952600D02*
X15123160Y-8252600D01*
X14973160Y-8102600D02*
X15273160Y-8102600D01*
X17988280Y-8033880D02*
X17988280Y-8333880D01*
X17838280Y-8183880D02*
X18138280Y-8183880D01*
D13*
X14261828Y-11123474D02*
X14261828Y-10823474D01*
X14333257Y-10823474D01*
X14376114Y-10837760D01*
X14404686Y-10866332D01*
X14418971Y-10894903D01*
X14433257Y-10952046D01*
X14433257Y-10994903D01*
X14418971Y-11052046D01*
X14404686Y-11080617D01*
X14376114Y-11109189D01*
X14333257Y-11123474D01*
X14261828Y-11123474D01*
X14561828Y-11123474D02*
X14561828Y-10923474D01*
X14561828Y-10980617D02*
X14576114Y-10952046D01*
X14590400Y-10937760D01*
X14618971Y-10923474D01*
X14647543Y-10923474D01*
X14747543Y-11123474D02*
X14747543Y-10923474D01*
X14747543Y-10823474D02*
X14733257Y-10837760D01*
X14747543Y-10852046D01*
X14761828Y-10837760D01*
X14747543Y-10823474D01*
X14747543Y-10852046D01*
X14933257Y-11123474D02*
X14904686Y-11109189D01*
X14890400Y-11080617D01*
X14890400Y-10823474D01*
X15090400Y-11123474D02*
X15061828Y-11109189D01*
X15047543Y-11080617D01*
X15047543Y-10823474D01*
X15433257Y-11123474D02*
X15433257Y-10823474D01*
X15533257Y-11037760D01*
X15633257Y-10823474D01*
X15633257Y-11123474D01*
X15904686Y-11123474D02*
X15904686Y-10966332D01*
X15890400Y-10937760D01*
X15861828Y-10923474D01*
X15804686Y-10923474D01*
X15776114Y-10937760D01*
X15904686Y-11109189D02*
X15876114Y-11123474D01*
X15804686Y-11123474D01*
X15776114Y-11109189D01*
X15761828Y-11080617D01*
X15761828Y-11052046D01*
X15776114Y-11023474D01*
X15804686Y-11009189D01*
X15876114Y-11009189D01*
X15904686Y-10994903D01*
X16047543Y-10923474D02*
X16047543Y-11223474D01*
X16047543Y-10937760D02*
X16076114Y-10923474D01*
X16133257Y-10923474D01*
X16161828Y-10937760D01*
X16176114Y-10952046D01*
X16190400Y-10980617D01*
X16190400Y-11066332D01*
X16176114Y-11094903D01*
X16161828Y-11109189D01*
X16133257Y-11123474D01*
X16076114Y-11123474D01*
X16047543Y-11109189D01*
X16318971Y-11094903D02*
X16333257Y-11109189D01*
X16318971Y-11123474D01*
X16304686Y-11109189D01*
X16318971Y-11094903D01*
X16318971Y-11123474D01*
X16318971Y-10937760D02*
X16333257Y-10952046D01*
X16318971Y-10966332D01*
X16304686Y-10952046D01*
X16318971Y-10937760D01*
X16318971Y-10966332D01*
X13950400Y-11597760D02*
X13990400Y-11637760D01*
X13990400Y-11597760D02*
X13950400Y-11637760D01*
X14318971Y-11453474D02*
X14347543Y-11453474D01*
X14376114Y-11467760D01*
X14390400Y-11482046D01*
X14404686Y-11510617D01*
X14418971Y-11567760D01*
X14418971Y-11639189D01*
X14404686Y-11696331D01*
X14390400Y-11724903D01*
X14376114Y-11739189D01*
X14347543Y-11753474D01*
X14318971Y-11753474D01*
X14290400Y-11739189D01*
X14276114Y-11724903D01*
X14261828Y-11696331D01*
X14247543Y-11639189D01*
X14247543Y-11567760D01*
X14261828Y-11510617D01*
X14276114Y-11482046D01*
X14290400Y-11467760D01*
X14318971Y-11453474D01*
X14547543Y-11724903D02*
X14561828Y-11739189D01*
X14547543Y-11753474D01*
X14533257Y-11739189D01*
X14547543Y-11724903D01*
X14547543Y-11753474D01*
X14818971Y-11553474D02*
X14818971Y-11753474D01*
X14747543Y-11439189D02*
X14676114Y-11653474D01*
X14861828Y-11653474D01*
X15033257Y-11453474D02*
X15061828Y-11453474D01*
X15090400Y-11467760D01*
X15104686Y-11482046D01*
X15118971Y-11510617D01*
X15133257Y-11567760D01*
X15133257Y-11639189D01*
X15118971Y-11696331D01*
X15104686Y-11724903D01*
X15090400Y-11739189D01*
X15061828Y-11753474D01*
X15033257Y-11753474D01*
X15004686Y-11739189D01*
X14990400Y-11724903D01*
X14976114Y-11696331D01*
X14961828Y-11639189D01*
X14961828Y-11567760D01*
X14976114Y-11510617D01*
X14990400Y-11482046D01*
X15004686Y-11467760D01*
X15033257Y-11453474D01*
X15261828Y-11753474D02*
X15261828Y-11553474D01*
X15261828Y-11582046D02*
X15276114Y-11567760D01*
X15304686Y-11553474D01*
X15347543Y-11553474D01*
X15376114Y-11567760D01*
X15390400Y-11596331D01*
X15390400Y-11753474D01*
X15390400Y-11596331D02*
X15404686Y-11567760D01*
X15433257Y-11553474D01*
X15476114Y-11553474D01*
X15504686Y-11567760D01*
X15518971Y-11596331D01*
X15518971Y-11753474D01*
X15661828Y-11753474D02*
X15661828Y-11553474D01*
X15661828Y-11582046D02*
X15676114Y-11567760D01*
X15704686Y-11553474D01*
X15747543Y-11553474D01*
X15776114Y-11567760D01*
X15790400Y-11596331D01*
X15790400Y-11753474D01*
X15790400Y-11596331D02*
X15804686Y-11567760D01*
X15833257Y-11553474D01*
X15876114Y-11553474D01*
X15904686Y-11567760D01*
X15918971Y-11596331D01*
X15918971Y-11753474D01*
X16504686Y-11439189D02*
X16247543Y-11824903D01*
X16890400Y-11453474D02*
X16918971Y-11453474D01*
X16947543Y-11467760D01*
X16961828Y-11482046D01*
X16976114Y-11510617D01*
X16990400Y-11567760D01*
X16990400Y-11639189D01*
X16976114Y-11696331D01*
X16961828Y-11724903D01*
X16947543Y-11739189D01*
X16918971Y-11753474D01*
X16890400Y-11753474D01*
X16861828Y-11739189D01*
X16847543Y-11724903D01*
X16833257Y-11696331D01*
X16818971Y-11639189D01*
X16818971Y-11567760D01*
X16833257Y-11510617D01*
X16847543Y-11482046D01*
X16861828Y-11467760D01*
X16890400Y-11453474D01*
X17118971Y-11724903D02*
X17133257Y-11739189D01*
X17118971Y-11753474D01*
X17104686Y-11739189D01*
X17118971Y-11724903D01*
X17118971Y-11753474D01*
X17318971Y-11453474D02*
X17347543Y-11453474D01*
X17376114Y-11467760D01*
X17390400Y-11482046D01*
X17404686Y-11510617D01*
X17418971Y-11567760D01*
X17418971Y-11639189D01*
X17404686Y-11696331D01*
X17390400Y-11724903D01*
X17376114Y-11739189D01*
X17347543Y-11753474D01*
X17318971Y-11753474D01*
X17290400Y-11739189D01*
X17276114Y-11724903D01*
X17261828Y-11696331D01*
X17247543Y-11639189D01*
X17247543Y-11567760D01*
X17261828Y-11510617D01*
X17276114Y-11482046D01*
X17290400Y-11467760D01*
X17318971Y-11453474D01*
X17704686Y-11753474D02*
X17533257Y-11753474D01*
X17618971Y-11753474D02*
X17618971Y-11453474D01*
X17590400Y-11496331D01*
X17561828Y-11524903D01*
X17533257Y-11539189D01*
X17961828Y-11453474D02*
X17904686Y-11453474D01*
X17876114Y-11467760D01*
X17861828Y-11482046D01*
X17833257Y-11524903D01*
X17818971Y-11582046D01*
X17818971Y-11696331D01*
X17833257Y-11724903D01*
X17847543Y-11739189D01*
X17876114Y-11753474D01*
X17933257Y-11753474D01*
X17961828Y-11739189D01*
X17976114Y-11724903D01*
X17990400Y-11696331D01*
X17990400Y-11624903D01*
X17976114Y-11596331D01*
X17961828Y-11582046D01*
X17933257Y-11567760D01*
X17876114Y-11567760D01*
X17847543Y-11582046D01*
X17833257Y-11596331D01*
X17818971Y-11624903D01*
X18104686Y-11453474D02*
X18104686Y-11510617D01*
X18218971Y-11453474D02*
X18218971Y-11510617D01*
X18661828Y-11867760D02*
X18647543Y-11853474D01*
X18618971Y-11810617D01*
X18604686Y-11782046D01*
X18590400Y-11739189D01*
X18576114Y-11667760D01*
X18576114Y-11610617D01*
X18590400Y-11539189D01*
X18604686Y-11496331D01*
X18618971Y-11467760D01*
X18647543Y-11424903D01*
X18661828Y-11410617D01*
X18933257Y-11753474D02*
X18761828Y-11753474D01*
X18847543Y-11753474D02*
X18847543Y-11453474D01*
X18818971Y-11496331D01*
X18790400Y-11524903D01*
X18761828Y-11539189D01*
X19104686Y-11582046D02*
X19076114Y-11567760D01*
X19061828Y-11553474D01*
X19047543Y-11524903D01*
X19047543Y-11510617D01*
X19061828Y-11482046D01*
X19076114Y-11467760D01*
X19104686Y-11453474D01*
X19161828Y-11453474D01*
X19190400Y-11467760D01*
X19204686Y-11482046D01*
X19218971Y-11510617D01*
X19218971Y-11524903D01*
X19204686Y-11553474D01*
X19190400Y-11567760D01*
X19161828Y-11582046D01*
X19104686Y-11582046D01*
X19076114Y-11596331D01*
X19061828Y-11610617D01*
X19047543Y-11639189D01*
X19047543Y-11696331D01*
X19061828Y-11724903D01*
X19076114Y-11739189D01*
X19104686Y-11753474D01*
X19161828Y-11753474D01*
X19190400Y-11739189D01*
X19204686Y-11724903D01*
X19218971Y-11696331D01*
X19218971Y-11639189D01*
X19204686Y-11610617D01*
X19190400Y-11596331D01*
X19161828Y-11582046D01*
X19576114Y-11753474D02*
X19576114Y-11453474D01*
X19704686Y-11753474D02*
X19704686Y-11596331D01*
X19690400Y-11567760D01*
X19661828Y-11553474D01*
X19618971Y-11553474D01*
X19590400Y-11567760D01*
X19576114Y-11582046D01*
X19890400Y-11753474D02*
X19861828Y-11739189D01*
X19847543Y-11724903D01*
X19833257Y-11696331D01*
X19833257Y-11610617D01*
X19847543Y-11582046D01*
X19861828Y-11567760D01*
X19890400Y-11553474D01*
X19933257Y-11553474D01*
X19961828Y-11567760D01*
X19976114Y-11582046D01*
X19990400Y-11610617D01*
X19990400Y-11696331D01*
X19976114Y-11724903D01*
X19961828Y-11739189D01*
X19933257Y-11753474D01*
X19890400Y-11753474D01*
X20161828Y-11753474D02*
X20133257Y-11739189D01*
X20118971Y-11710617D01*
X20118971Y-11453474D01*
X20390400Y-11739189D02*
X20361829Y-11753474D01*
X20304686Y-11753474D01*
X20276114Y-11739189D01*
X20261829Y-11710617D01*
X20261829Y-11596331D01*
X20276114Y-11567760D01*
X20304686Y-11553474D01*
X20361829Y-11553474D01*
X20390400Y-11567760D01*
X20404686Y-11596331D01*
X20404686Y-11624903D01*
X20261829Y-11653474D01*
X20518971Y-11739189D02*
X20547543Y-11753474D01*
X20604686Y-11753474D01*
X20633257Y-11739189D01*
X20647543Y-11710617D01*
X20647543Y-11696331D01*
X20633257Y-11667760D01*
X20604686Y-11653474D01*
X20561829Y-11653474D01*
X20533257Y-11639189D01*
X20518971Y-11610617D01*
X20518971Y-11596331D01*
X20533257Y-11567760D01*
X20561829Y-11553474D01*
X20604686Y-11553474D01*
X20633257Y-11567760D01*
X20747543Y-11867760D02*
X20761829Y-11853474D01*
X20790400Y-11810617D01*
X20804686Y-11782046D01*
X20818971Y-11739189D01*
X20833257Y-11667760D01*
X20833257Y-11610617D01*
X20818971Y-11539189D01*
X20804686Y-11496331D01*
X20790400Y-11467760D01*
X20761829Y-11424903D01*
X20747543Y-11410617D01*
X13990400Y-12013760D02*
G75*
G03X13990400Y-12013760I-50800J0D01*
G01*
X14418971Y-12149474D02*
X14247543Y-12149474D01*
X14333257Y-12149474D02*
X14333257Y-11849474D01*
X14304686Y-11892331D01*
X14276114Y-11920903D01*
X14247543Y-11935189D01*
X14547543Y-12120903D02*
X14561828Y-12135189D01*
X14547543Y-12149474D01*
X14533257Y-12135189D01*
X14547543Y-12120903D01*
X14547543Y-12149474D01*
X14747543Y-11849474D02*
X14776114Y-11849474D01*
X14804686Y-11863760D01*
X14818971Y-11878046D01*
X14833257Y-11906617D01*
X14847543Y-11963760D01*
X14847543Y-12035189D01*
X14833257Y-12092331D01*
X14818971Y-12120903D01*
X14804686Y-12135189D01*
X14776114Y-12149474D01*
X14747543Y-12149474D01*
X14718971Y-12135189D01*
X14704686Y-12120903D01*
X14690400Y-12092331D01*
X14676114Y-12035189D01*
X14676114Y-11963760D01*
X14690400Y-11906617D01*
X14704686Y-11878046D01*
X14718971Y-11863760D01*
X14747543Y-11849474D01*
X14961828Y-11878046D02*
X14976114Y-11863760D01*
X15004686Y-11849474D01*
X15076114Y-11849474D01*
X15104686Y-11863760D01*
X15118971Y-11878046D01*
X15133257Y-11906617D01*
X15133257Y-11935189D01*
X15118971Y-11978046D01*
X14947543Y-12149474D01*
X15133257Y-12149474D01*
X15261828Y-12149474D02*
X15261828Y-11949474D01*
X15261828Y-11978046D02*
X15276114Y-11963760D01*
X15304686Y-11949474D01*
X15347543Y-11949474D01*
X15376114Y-11963760D01*
X15390400Y-11992331D01*
X15390400Y-12149474D01*
X15390400Y-11992331D02*
X15404686Y-11963760D01*
X15433257Y-11949474D01*
X15476114Y-11949474D01*
X15504686Y-11963760D01*
X15518971Y-11992331D01*
X15518971Y-12149474D01*
X15661828Y-12149474D02*
X15661828Y-11949474D01*
X15661828Y-11978046D02*
X15676114Y-11963760D01*
X15704686Y-11949474D01*
X15747543Y-11949474D01*
X15776114Y-11963760D01*
X15790400Y-11992331D01*
X15790400Y-12149474D01*
X15790400Y-11992331D02*
X15804686Y-11963760D01*
X15833257Y-11949474D01*
X15876114Y-11949474D01*
X15904686Y-11963760D01*
X15918971Y-11992331D01*
X15918971Y-12149474D01*
X16504686Y-11835189D02*
X16247543Y-12220903D01*
X16890400Y-11849474D02*
X16918971Y-11849474D01*
X16947543Y-11863760D01*
X16961828Y-11878046D01*
X16976114Y-11906617D01*
X16990400Y-11963760D01*
X16990400Y-12035189D01*
X16976114Y-12092331D01*
X16961828Y-12120903D01*
X16947543Y-12135189D01*
X16918971Y-12149474D01*
X16890400Y-12149474D01*
X16861828Y-12135189D01*
X16847543Y-12120903D01*
X16833257Y-12092331D01*
X16818971Y-12035189D01*
X16818971Y-11963760D01*
X16833257Y-11906617D01*
X16847543Y-11878046D01*
X16861828Y-11863760D01*
X16890400Y-11849474D01*
X17118971Y-12120903D02*
X17133257Y-12135189D01*
X17118971Y-12149474D01*
X17104686Y-12135189D01*
X17118971Y-12120903D01*
X17118971Y-12149474D01*
X17318971Y-11849474D02*
X17347543Y-11849474D01*
X17376114Y-11863760D01*
X17390400Y-11878046D01*
X17404686Y-11906617D01*
X17418971Y-11963760D01*
X17418971Y-12035189D01*
X17404686Y-12092331D01*
X17390400Y-12120903D01*
X17376114Y-12135189D01*
X17347543Y-12149474D01*
X17318971Y-12149474D01*
X17290400Y-12135189D01*
X17276114Y-12120903D01*
X17261828Y-12092331D01*
X17247543Y-12035189D01*
X17247543Y-11963760D01*
X17261828Y-11906617D01*
X17276114Y-11878046D01*
X17290400Y-11863760D01*
X17318971Y-11849474D01*
X17676114Y-11949474D02*
X17676114Y-12149474D01*
X17604686Y-11835189D02*
X17533257Y-12049474D01*
X17718971Y-12049474D01*
X17890400Y-11849474D02*
X17918971Y-11849474D01*
X17947543Y-11863760D01*
X17961828Y-11878046D01*
X17976114Y-11906617D01*
X17990400Y-11963760D01*
X17990400Y-12035189D01*
X17976114Y-12092331D01*
X17961828Y-12120903D01*
X17947543Y-12135189D01*
X17918971Y-12149474D01*
X17890400Y-12149474D01*
X17861828Y-12135189D01*
X17847543Y-12120903D01*
X17833257Y-12092331D01*
X17818971Y-12035189D01*
X17818971Y-11963760D01*
X17833257Y-11906617D01*
X17847543Y-11878046D01*
X17861828Y-11863760D01*
X17890400Y-11849474D01*
X18104686Y-11849474D02*
X18104686Y-11906617D01*
X18218971Y-11849474D02*
X18218971Y-11906617D01*
X18661828Y-12263760D02*
X18647543Y-12249474D01*
X18618971Y-12206617D01*
X18604686Y-12178046D01*
X18590400Y-12135189D01*
X18576114Y-12063760D01*
X18576114Y-12006617D01*
X18590400Y-11935189D01*
X18604686Y-11892331D01*
X18618971Y-11863760D01*
X18647543Y-11820903D01*
X18661828Y-11806617D01*
X18933257Y-12149474D02*
X18761828Y-12149474D01*
X18847543Y-12149474D02*
X18847543Y-11849474D01*
X18818971Y-11892331D01*
X18790400Y-11920903D01*
X18761828Y-11935189D01*
X19190400Y-11949474D02*
X19190400Y-12149474D01*
X19118971Y-11835189D02*
X19047543Y-12049474D01*
X19233257Y-12049474D01*
X19576114Y-12149474D02*
X19576114Y-11849474D01*
X19704686Y-12149474D02*
X19704686Y-11992331D01*
X19690400Y-11963760D01*
X19661828Y-11949474D01*
X19618971Y-11949474D01*
X19590400Y-11963760D01*
X19576114Y-11978046D01*
X19890400Y-12149474D02*
X19861828Y-12135189D01*
X19847543Y-12120903D01*
X19833257Y-12092331D01*
X19833257Y-12006617D01*
X19847543Y-11978046D01*
X19861828Y-11963760D01*
X19890400Y-11949474D01*
X19933257Y-11949474D01*
X19961828Y-11963760D01*
X19976114Y-11978046D01*
X19990400Y-12006617D01*
X19990400Y-12092331D01*
X19976114Y-12120903D01*
X19961828Y-12135189D01*
X19933257Y-12149474D01*
X19890400Y-12149474D01*
X20161828Y-12149474D02*
X20133257Y-12135189D01*
X20118971Y-12106617D01*
X20118971Y-11849474D01*
X20390400Y-12135189D02*
X20361829Y-12149474D01*
X20304686Y-12149474D01*
X20276114Y-12135189D01*
X20261829Y-12106617D01*
X20261829Y-11992331D01*
X20276114Y-11963760D01*
X20304686Y-11949474D01*
X20361829Y-11949474D01*
X20390400Y-11963760D01*
X20404686Y-11992331D01*
X20404686Y-12020903D01*
X20261829Y-12049474D01*
X20518971Y-12135189D02*
X20547543Y-12149474D01*
X20604686Y-12149474D01*
X20633257Y-12135189D01*
X20647543Y-12106617D01*
X20647543Y-12092331D01*
X20633257Y-12063760D01*
X20604686Y-12049474D01*
X20561829Y-12049474D01*
X20533257Y-12035189D01*
X20518971Y-12006617D01*
X20518971Y-11992331D01*
X20533257Y-11963760D01*
X20561829Y-11949474D01*
X20604686Y-11949474D01*
X20633257Y-11963760D01*
X20747543Y-12263760D02*
X20761829Y-12249474D01*
X20790400Y-12206617D01*
X20804686Y-12178046D01*
X20818971Y-12135189D01*
X20833257Y-12063760D01*
X20833257Y-12006617D01*
X20818971Y-11935189D01*
X20804686Y-11892331D01*
X20790400Y-11863760D01*
X20761829Y-11820903D01*
X20747543Y-11806617D01*
X13840400Y-12259760D02*
X13840400Y-12559760D01*
X13690400Y-12409760D02*
X13990400Y-12409760D01*
X14233257Y-12245474D02*
X14418971Y-12245474D01*
X14318971Y-12359760D01*
X14361828Y-12359760D01*
X14390400Y-12374046D01*
X14404686Y-12388331D01*
X14418971Y-12416903D01*
X14418971Y-12488331D01*
X14404686Y-12516903D01*
X14390400Y-12531189D01*
X14361828Y-12545474D01*
X14276114Y-12545474D01*
X14247543Y-12531189D01*
X14233257Y-12516903D01*
X14547543Y-12516903D02*
X14561828Y-12531189D01*
X14547543Y-12545474D01*
X14533257Y-12531189D01*
X14547543Y-12516903D01*
X14547543Y-12545474D01*
X14747543Y-12245474D02*
X14776114Y-12245474D01*
X14804686Y-12259760D01*
X14818971Y-12274046D01*
X14833257Y-12302617D01*
X14847543Y-12359760D01*
X14847543Y-12431189D01*
X14833257Y-12488331D01*
X14818971Y-12516903D01*
X14804686Y-12531189D01*
X14776114Y-12545474D01*
X14747543Y-12545474D01*
X14718971Y-12531189D01*
X14704686Y-12516903D01*
X14690400Y-12488331D01*
X14676114Y-12431189D01*
X14676114Y-12359760D01*
X14690400Y-12302617D01*
X14704686Y-12274046D01*
X14718971Y-12259760D01*
X14747543Y-12245474D01*
X15033257Y-12245474D02*
X15061828Y-12245474D01*
X15090400Y-12259760D01*
X15104686Y-12274046D01*
X15118971Y-12302617D01*
X15133257Y-12359760D01*
X15133257Y-12431189D01*
X15118971Y-12488331D01*
X15104686Y-12516903D01*
X15090400Y-12531189D01*
X15061828Y-12545474D01*
X15033257Y-12545474D01*
X15004686Y-12531189D01*
X14990400Y-12516903D01*
X14976114Y-12488331D01*
X14961828Y-12431189D01*
X14961828Y-12359760D01*
X14976114Y-12302617D01*
X14990400Y-12274046D01*
X15004686Y-12259760D01*
X15033257Y-12245474D01*
X15261828Y-12545474D02*
X15261828Y-12345474D01*
X15261828Y-12374046D02*
X15276114Y-12359760D01*
X15304686Y-12345474D01*
X15347543Y-12345474D01*
X15376114Y-12359760D01*
X15390400Y-12388331D01*
X15390400Y-12545474D01*
X15390400Y-12388331D02*
X15404686Y-12359760D01*
X15433257Y-12345474D01*
X15476114Y-12345474D01*
X15504686Y-12359760D01*
X15518971Y-12388331D01*
X15518971Y-12545474D01*
X15661828Y-12545474D02*
X15661828Y-12345474D01*
X15661828Y-12374046D02*
X15676114Y-12359760D01*
X15704686Y-12345474D01*
X15747543Y-12345474D01*
X15776114Y-12359760D01*
X15790400Y-12388331D01*
X15790400Y-12545474D01*
X15790400Y-12388331D02*
X15804686Y-12359760D01*
X15833257Y-12345474D01*
X15876114Y-12345474D01*
X15904686Y-12359760D01*
X15918971Y-12388331D01*
X15918971Y-12545474D01*
X16504686Y-12231189D02*
X16247543Y-12616903D01*
X16890400Y-12245474D02*
X16918971Y-12245474D01*
X16947543Y-12259760D01*
X16961828Y-12274046D01*
X16976114Y-12302617D01*
X16990400Y-12359760D01*
X16990400Y-12431189D01*
X16976114Y-12488331D01*
X16961828Y-12516903D01*
X16947543Y-12531189D01*
X16918971Y-12545474D01*
X16890400Y-12545474D01*
X16861828Y-12531189D01*
X16847543Y-12516903D01*
X16833257Y-12488331D01*
X16818971Y-12431189D01*
X16818971Y-12359760D01*
X16833257Y-12302617D01*
X16847543Y-12274046D01*
X16861828Y-12259760D01*
X16890400Y-12245474D01*
X17118971Y-12516903D02*
X17133257Y-12531189D01*
X17118971Y-12545474D01*
X17104686Y-12531189D01*
X17118971Y-12516903D01*
X17118971Y-12545474D01*
X17418971Y-12545474D02*
X17247543Y-12545474D01*
X17333257Y-12545474D02*
X17333257Y-12245474D01*
X17304686Y-12288331D01*
X17276114Y-12316903D01*
X17247543Y-12331189D01*
X17704686Y-12545474D02*
X17533257Y-12545474D01*
X17618971Y-12545474D02*
X17618971Y-12245474D01*
X17590400Y-12288331D01*
X17561828Y-12316903D01*
X17533257Y-12331189D01*
X17876114Y-12374046D02*
X17847543Y-12359760D01*
X17833257Y-12345474D01*
X17818971Y-12316903D01*
X17818971Y-12302617D01*
X17833257Y-12274046D01*
X17847543Y-12259760D01*
X17876114Y-12245474D01*
X17933257Y-12245474D01*
X17961828Y-12259760D01*
X17976114Y-12274046D01*
X17990400Y-12302617D01*
X17990400Y-12316903D01*
X17976114Y-12345474D01*
X17961828Y-12359760D01*
X17933257Y-12374046D01*
X17876114Y-12374046D01*
X17847543Y-12388331D01*
X17833257Y-12402617D01*
X17818971Y-12431189D01*
X17818971Y-12488331D01*
X17833257Y-12516903D01*
X17847543Y-12531189D01*
X17876114Y-12545474D01*
X17933257Y-12545474D01*
X17961828Y-12531189D01*
X17976114Y-12516903D01*
X17990400Y-12488331D01*
X17990400Y-12431189D01*
X17976114Y-12402617D01*
X17961828Y-12388331D01*
X17933257Y-12374046D01*
X18104686Y-12245474D02*
X18104686Y-12302617D01*
X18218971Y-12245474D02*
X18218971Y-12302617D01*
X18661828Y-12659760D02*
X18647543Y-12645474D01*
X18618971Y-12602617D01*
X18604686Y-12574046D01*
X18590400Y-12531189D01*
X18576114Y-12459760D01*
X18576114Y-12402617D01*
X18590400Y-12331189D01*
X18604686Y-12288331D01*
X18618971Y-12259760D01*
X18647543Y-12216903D01*
X18661828Y-12202617D01*
X18747543Y-12245474D02*
X18933257Y-12245474D01*
X18833257Y-12359760D01*
X18876114Y-12359760D01*
X18904686Y-12374046D01*
X18918971Y-12388331D01*
X18933257Y-12416903D01*
X18933257Y-12488331D01*
X18918971Y-12516903D01*
X18904686Y-12531189D01*
X18876114Y-12545474D01*
X18790400Y-12545474D01*
X18761828Y-12531189D01*
X18747543Y-12516903D01*
X19290400Y-12545474D02*
X19290400Y-12245474D01*
X19418971Y-12545474D02*
X19418971Y-12388331D01*
X19404686Y-12359760D01*
X19376114Y-12345474D01*
X19333257Y-12345474D01*
X19304686Y-12359760D01*
X19290400Y-12374046D01*
X19604686Y-12545474D02*
X19576114Y-12531189D01*
X19561828Y-12516903D01*
X19547543Y-12488331D01*
X19547543Y-12402617D01*
X19561828Y-12374046D01*
X19576114Y-12359760D01*
X19604686Y-12345474D01*
X19647543Y-12345474D01*
X19676114Y-12359760D01*
X19690400Y-12374046D01*
X19704686Y-12402617D01*
X19704686Y-12488331D01*
X19690400Y-12516903D01*
X19676114Y-12531189D01*
X19647543Y-12545474D01*
X19604686Y-12545474D01*
X19876114Y-12545474D02*
X19847543Y-12531189D01*
X19833257Y-12502617D01*
X19833257Y-12245474D01*
X20104686Y-12531189D02*
X20076114Y-12545474D01*
X20018971Y-12545474D01*
X19990400Y-12531189D01*
X19976114Y-12502617D01*
X19976114Y-12388331D01*
X19990400Y-12359760D01*
X20018971Y-12345474D01*
X20076114Y-12345474D01*
X20104686Y-12359760D01*
X20118971Y-12388331D01*
X20118971Y-12416903D01*
X19976114Y-12445474D01*
X20233257Y-12531189D02*
X20261829Y-12545474D01*
X20318971Y-12545474D01*
X20347543Y-12531189D01*
X20361829Y-12502617D01*
X20361829Y-12488331D01*
X20347543Y-12459760D01*
X20318971Y-12445474D01*
X20276114Y-12445474D01*
X20247543Y-12431189D01*
X20233257Y-12402617D01*
X20233257Y-12388331D01*
X20247543Y-12359760D01*
X20276114Y-12345474D01*
X20318971Y-12345474D01*
X20347543Y-12359760D01*
X20461828Y-12659760D02*
X20476114Y-12645474D01*
X20504686Y-12602617D01*
X20518971Y-12574046D01*
X20533257Y-12531189D01*
X20547543Y-12459760D01*
X20547543Y-12402617D01*
X20533257Y-12331189D01*
X20518971Y-12288331D01*
X20504686Y-12259760D01*
X20476114Y-12216903D01*
X20461828Y-12202617D01*
M02*
