M48
;DRILL file {KiCad (2015-07-31 BZR 6030)-product} date Fri Sep 11 12:39:45 2015
;FORMAT={-:-/ absolute / inch / decimal}
FMAT,2
INCH,TZ
T1C0.016
T2C0.040
T3C0.118
%
G90
G05
M72
T1
X5.596Y-3.896
X5.722Y-3.892
X5.874Y-3.598
X5.956Y-3.846
X6.148Y-3.652
X6.202Y-3.312
X6.338Y-3.802
X6.356Y-3.504
X6.376Y-3.656
X6.382Y-3.886
X6.576Y-3.552
X6.68Y-3.844
X6.748Y-3.372
X6.778Y-3.452
X6.804Y-3.814
X6.804Y-3.972
X6.916Y-3.92
X6.954Y-3.996
T2
X5.73Y-3.34
X5.73Y-3.44
X5.73Y-3.54
X5.73Y-3.64
X5.936Y-3.992
X6.036Y-3.992
X6.136Y-3.992
X6.236Y-3.992
X6.336Y-3.992
X6.436Y-3.992
X6.916Y-3.462
X6.916Y-3.562
X6.916Y-3.662
X6.916Y-3.762
T3
X5.682Y-4.062
X5.954Y-3.19
X7.082Y-3.222
T0
M30
